G04 #@! TF.GenerationSoftware,KiCad,Pcbnew,(5.0.1)*
G04 #@! TF.CreationDate,2019-02-02T12:52:51+09:00*
G04 #@! TF.ProjectId,center,63656E7465722E6B696361645F706362,rev?*
G04 #@! TF.SameCoordinates,Original*
G04 #@! TF.FileFunction,Copper,L2,Bot,Signal*
G04 #@! TF.FilePolarity,Positive*
%FSLAX46Y46*%
G04 Gerber Fmt 4.6, Leading zero omitted, Abs format (unit mm)*
G04 Created by KiCad (PCBNEW (5.0.1)) date Sat Feb  2 12:52:51 2019*
%MOMM*%
%LPD*%
G01*
G04 APERTURE LIST*
G04 #@! TA.AperFunction,SMDPad,CuDef*
%ADD10C,2.800000*%
G04 #@! TD*
G04 #@! TA.AperFunction,Conductor*
%ADD11C,2.800000*%
G04 #@! TD*
G04 #@! TA.AperFunction,ComponentPad*
%ADD12R,1.700000X1.700000*%
G04 #@! TD*
G04 #@! TA.AperFunction,ComponentPad*
%ADD13O,1.700000X1.700000*%
G04 #@! TD*
G04 #@! TA.AperFunction,ComponentPad*
%ADD14C,2.000000*%
G04 #@! TD*
G04 #@! TA.AperFunction,Conductor*
%ADD15C,0.100000*%
G04 #@! TD*
G04 #@! TA.AperFunction,ViaPad*
%ADD16C,1.200000*%
G04 #@! TD*
G04 #@! TA.AperFunction,ViaPad*
%ADD17C,2.000000*%
G04 #@! TD*
G04 #@! TA.AperFunction,ViaPad*
%ADD18C,0.800000*%
G04 #@! TD*
G04 #@! TA.AperFunction,Conductor*
%ADD19C,2.000000*%
G04 #@! TD*
G04 #@! TA.AperFunction,Conductor*
%ADD20C,0.300000*%
G04 #@! TD*
G04 #@! TA.AperFunction,Conductor*
%ADD21C,1.200000*%
G04 #@! TD*
G04 #@! TA.AperFunction,Conductor*
%ADD22C,0.250000*%
G04 #@! TD*
G04 #@! TA.AperFunction,Conductor*
%ADD23C,0.150000*%
G04 #@! TD*
G04 APERTURE END LIST*
D10*
G04 #@! TO.P,J1,2*
G04 #@! TO.N,Net-(D1-Pad2)*
X110796930Y-92354084D03*
D11*
G04 #@! TD*
G04 #@! TO.N,Net-(D1-Pad2)*
G04 #@! TO.C,J1*
X111458927Y-91475585D02*
X110134933Y-93232583D01*
D10*
G04 #@! TO.P,J1,1*
G04 #@! TO.N,/Q2*
X107203070Y-89645916D03*
D11*
G04 #@! TD*
G04 #@! TO.N,/Q2*
G04 #@! TO.C,J1*
X107865067Y-88767417D02*
X106541073Y-90524415D01*
D10*
G04 #@! TO.P,J2,1*
G04 #@! TO.N,/Q0*
X89203070Y-92354084D03*
D11*
G04 #@! TD*
G04 #@! TO.N,/Q0*
G04 #@! TO.C,J2*
X88541073Y-91475585D02*
X89865067Y-93232583D01*
D10*
G04 #@! TO.P,J2,2*
G04 #@! TO.N,Net-(D2-Pad2)*
X92796930Y-89645916D03*
D11*
G04 #@! TD*
G04 #@! TO.N,Net-(D2-Pad2)*
G04 #@! TO.C,J2*
X92134933Y-88767417D02*
X93458927Y-90524415D01*
D10*
G04 #@! TO.P,J3,2*
G04 #@! TO.N,Net-(D1-Pad2)*
X89203070Y-107645916D03*
D11*
G04 #@! TD*
G04 #@! TO.N,Net-(D1-Pad2)*
G04 #@! TO.C,J3*
X88541073Y-108524415D02*
X89865067Y-106767417D01*
D10*
G04 #@! TO.P,J3,1*
G04 #@! TO.N,/Q3*
X92796930Y-110354084D03*
D11*
G04 #@! TD*
G04 #@! TO.N,/Q3*
G04 #@! TO.C,J3*
X92134933Y-111232583D02*
X93458927Y-109475585D01*
D10*
G04 #@! TO.P,J4,2*
G04 #@! TO.N,Net-(D2-Pad2)*
X107203070Y-110354084D03*
D11*
G04 #@! TD*
G04 #@! TO.N,Net-(D2-Pad2)*
G04 #@! TO.C,J4*
X107865067Y-111232583D02*
X106541073Y-109475585D01*
D10*
G04 #@! TO.P,J4,1*
G04 #@! TO.N,/Q1*
X110796930Y-107645916D03*
D11*
G04 #@! TD*
G04 #@! TO.N,/Q1*
G04 #@! TO.C,J4*
X111458927Y-108524415D02*
X110134933Y-106767417D01*
D12*
G04 #@! TO.P,J5,1*
G04 #@! TO.N,+3V3*
X90750000Y-96750000D03*
D13*
G04 #@! TO.P,J5,2*
G04 #@! TO.N,/SWCLK*
X88210000Y-96750000D03*
G04 #@! TO.P,J5,3*
G04 #@! TO.N,GND*
X85670001Y-96750000D03*
G04 #@! TO.P,J5,4*
G04 #@! TO.N,/SWDIO*
X83130000Y-96750000D03*
G04 #@! TD*
D14*
G04 #@! TO.P,C1,1*
G04 #@! TO.N,+12V*
X89300000Y-118850000D03*
D15*
G04 #@! TD*
G04 #@! TO.N,+12V*
G04 #@! TO.C,C1*
G36*
X88592893Y-120074745D02*
X88075255Y-118142893D01*
X90007107Y-117625255D01*
X90524745Y-119557107D01*
X88592893Y-120074745D01*
X88592893Y-120074745D01*
G37*
D14*
G04 #@! TO.P,C1,2*
G04 #@! TO.N,GND*
X94129629Y-117555905D03*
G04 #@! TD*
G04 #@! TO.P,C4,2*
G04 #@! TO.N,GND*
X104520371Y-119494095D03*
G04 #@! TO.P,C4,1*
G04 #@! TO.N,+3V3*
X109350000Y-118200000D03*
D15*
G04 #@! TD*
G04 #@! TO.N,+3V3*
G04 #@! TO.C,C4*
G36*
X110057107Y-116975255D02*
X110574745Y-118907107D01*
X108642893Y-119424745D01*
X108125255Y-117492893D01*
X110057107Y-116975255D01*
X110057107Y-116975255D01*
G37*
D16*
G04 #@! TO.N,+12V*
X85799992Y-111750008D03*
D17*
X92571589Y-78755737D03*
X86370323Y-82091010D03*
X81503225Y-87179340D03*
X78446720Y-93522646D03*
X77500000Y-100500000D03*
X78755737Y-107428411D03*
X82091010Y-113629677D03*
X87179340Y-118496775D03*
X93522646Y-121553280D03*
X100500000Y-122500000D03*
X107428411Y-121244263D03*
X113629677Y-117908990D03*
X118496775Y-112820660D03*
X121553280Y-106477354D03*
X122500000Y-99500000D03*
X121244263Y-92571589D03*
X117908990Y-86370323D03*
X112820660Y-81503225D03*
X106477354Y-78446720D03*
X99500000Y-77500000D03*
X85799992Y-111750008D03*
D16*
G04 #@! TO.N,GND*
X98900000Y-95900000D03*
X105250000Y-92400000D03*
X99000000Y-82700000D03*
X84903097Y-101658975D03*
X100800000Y-97950000D03*
X106750000Y-99400000D03*
X103800000Y-83250000D03*
D17*
X106250000Y-84500000D03*
X114900000Y-107700000D03*
X97150000Y-111700000D03*
X112000000Y-100300000D03*
D18*
X117300000Y-101050000D03*
X117000000Y-102400000D03*
D16*
X94800000Y-82700000D03*
D17*
X85775634Y-92775634D03*
X94800000Y-112700000D03*
X96400000Y-109500000D03*
X96800000Y-104700000D03*
D16*
X108200000Y-105500000D03*
D18*
X93000000Y-93000000D03*
X95900000Y-95900000D03*
X93400000Y-96300000D03*
X92400000Y-96300000D03*
X101500000Y-93200000D03*
X101600000Y-95300000D03*
X92400000Y-98850000D03*
X109300000Y-90500000D03*
X109300000Y-86500000D03*
X113600000Y-108500000D03*
X109200000Y-109400000D03*
X101100000Y-109800000D03*
X106700000Y-117700000D03*
X97900000Y-119100000D03*
X96200000Y-118800000D03*
X90600000Y-90600000D03*
X91200000Y-85500000D03*
X92200000Y-86500000D03*
X100000000Y-81950000D03*
X101600000Y-84700000D03*
X98000000Y-87500000D03*
X93500000Y-84200000D03*
D16*
X101354480Y-100500010D03*
G04 #@! TO.N,+3V3*
X99200000Y-104400000D03*
X99750000Y-102000000D03*
D17*
G04 #@! TO.N,Net-(D1-Pad2)*
X111750000Y-86139998D03*
G04 #@! TO.N,Net-(D2-Pad2)*
X87950000Y-86191024D03*
D18*
X107900000Y-107700000D03*
G04 #@! TO.N,/Vmeas_A*
X90683142Y-95080201D03*
X97975075Y-89849978D03*
G04 #@! TO.N,/Vmeas_B*
X101500000Y-104900000D03*
X101450021Y-103200000D03*
D17*
G04 #@! TO.N,/Q2*
X114800000Y-91700000D03*
G04 #@! TO.N,/Q0*
X94500000Y-87400000D03*
G04 #@! TO.N,/Q3*
X92694365Y-107305635D03*
G04 #@! TO.N,/Q1*
X103000000Y-109800000D03*
D18*
G04 #@! TO.N,/CH1*
X101225000Y-102100000D03*
X100450000Y-104875000D03*
G04 #@! TD*
D19*
G04 #@! TO.N,+12V*
X89300000Y-118850000D02*
X85799992Y-115349992D01*
X85799992Y-112598536D02*
X85799992Y-111750008D01*
X85799992Y-115349992D02*
X85799992Y-112598536D01*
D20*
G04 #@! TO.N,GND*
X98900000Y-95900000D02*
X98900000Y-96050000D01*
X98900000Y-96050000D02*
X100800000Y-97950000D01*
D21*
G04 #@! TO.N,+3V3*
X99750000Y-103850000D02*
X99750000Y-102000000D01*
X99200000Y-104400000D02*
X99750000Y-103850000D01*
D19*
G04 #@! TO.N,Net-(D1-Pad2)*
X112889998Y-86139998D02*
X111750000Y-86139998D01*
X114751014Y-88400000D02*
X110796930Y-92354084D01*
X115150000Y-88400000D02*
X114751014Y-88400000D01*
X115150000Y-88400000D02*
X112889998Y-86139998D01*
X119000000Y-92250000D02*
X115150000Y-88400000D01*
X119000000Y-106800000D02*
X119000000Y-92250000D01*
X110024755Y-115775245D02*
X119000000Y-106800000D01*
X89203070Y-113003070D02*
X91200000Y-115000000D01*
X91200000Y-115000000D02*
X96700000Y-115000000D01*
X96700000Y-115000000D02*
X97500000Y-115800000D01*
X97524755Y-115775245D02*
X110024755Y-115775245D01*
X97500000Y-115800000D02*
X97524755Y-115775245D01*
X89203070Y-107645916D02*
X89203070Y-113003070D01*
G04 #@! TO.N,Net-(D2-Pad2)*
X89351014Y-86200000D02*
X92796930Y-89645916D01*
X89300000Y-86200000D02*
X89351014Y-86200000D01*
D22*
X107203070Y-108396930D02*
X107203070Y-110354084D01*
X107900000Y-107700000D02*
X107203070Y-108396930D01*
D19*
X89342038Y-86191024D02*
X87950000Y-86191024D01*
X89451014Y-86300000D02*
X89342038Y-86191024D01*
X89139998Y-86300000D02*
X89451014Y-86300000D01*
X107203070Y-110354084D02*
X103848986Y-107000000D01*
X95500000Y-107000000D02*
X92450000Y-103950000D01*
X80649999Y-94789999D02*
X89139998Y-86300000D01*
X92450000Y-103950000D02*
X83000000Y-103950000D01*
X103848986Y-107000000D02*
X95500000Y-107000000D01*
X83000000Y-103950000D02*
X80649999Y-101599999D01*
X80649999Y-101599999D02*
X80649999Y-94789999D01*
D22*
G04 #@! TO.N,/Vmeas_A*
X97100000Y-90725053D02*
X97975075Y-89849978D01*
X97100000Y-93265685D02*
X97100000Y-90725053D01*
X94885485Y-95480200D02*
X97100000Y-93265685D01*
X90683142Y-95080201D02*
X91083141Y-95480200D01*
X91083141Y-95480200D02*
X94885485Y-95480200D01*
D20*
G04 #@! TO.N,/Vmeas_B*
X101500000Y-103249979D02*
X101450021Y-103200000D01*
X101500000Y-104900000D02*
X101500000Y-103249979D01*
D21*
G04 #@! TO.N,/Q2*
X107203070Y-93753070D02*
X107203070Y-91851988D01*
X107203070Y-91851988D02*
X107203070Y-89645916D01*
X109050000Y-95600000D02*
X107203070Y-93753070D01*
X111350000Y-95600000D02*
X109050000Y-95600000D01*
X114800000Y-91700000D02*
X114800000Y-92150000D01*
X114800000Y-92150000D02*
X111350000Y-95600000D01*
G04 #@! TO.N,/Q0*
X94299999Y-94500001D02*
X91799999Y-94500001D01*
X96100000Y-92700000D02*
X94299999Y-94500001D01*
X91799999Y-94500001D02*
X90701375Y-93401377D01*
X94500000Y-87400000D02*
X96100000Y-89000000D01*
X96100000Y-89000000D02*
X96100000Y-92700000D01*
G04 #@! TO.N,/Q3*
X92796930Y-110354084D02*
X92796930Y-107408200D01*
X92796930Y-107408200D02*
X92694365Y-107305635D01*
G04 #@! TO.N,/Q1*
X103000000Y-110500000D02*
X103000000Y-109800000D01*
X106200000Y-113700000D02*
X103000000Y-110500000D01*
X109100000Y-113700000D02*
X106200000Y-113700000D01*
X110796930Y-107645916D02*
X110796930Y-112003070D01*
X110796930Y-112003070D02*
X109100000Y-113700000D01*
D20*
G04 #@! TO.N,/CH1*
X100700011Y-104624989D02*
X100450000Y-104875000D01*
X100700011Y-102624989D02*
X100700011Y-104624989D01*
X101225000Y-102100000D02*
X100700011Y-102624989D01*
G04 #@! TD*
D23*
G04 #@! TO.N,GND*
G36*
X82009645Y-104762767D02*
X82080777Y-104869223D01*
X82502520Y-105151023D01*
X82874427Y-105225000D01*
X82874431Y-105225000D01*
X82999999Y-105249977D01*
X83125567Y-105225000D01*
X89201353Y-105225000D01*
X88998286Y-105295914D01*
X88626635Y-105627625D01*
X87104077Y-107648127D01*
X86887657Y-108096813D01*
X86849878Y-108762096D01*
X87069570Y-109391195D01*
X87513284Y-109888336D01*
X87928070Y-110088405D01*
X87928071Y-112877497D01*
X87903093Y-113003070D01*
X88002048Y-113500550D01*
X88201840Y-113799559D01*
X88283848Y-113922293D01*
X88390303Y-113993424D01*
X90209645Y-115812767D01*
X90280777Y-115919223D01*
X90702520Y-116201023D01*
X91074427Y-116275000D01*
X91074431Y-116275000D01*
X91199999Y-116299977D01*
X91325567Y-116275000D01*
X93773802Y-116275000D01*
X93424904Y-116403320D01*
X93198714Y-116576883D01*
X93128024Y-116775556D01*
X94065575Y-117316851D01*
X94606870Y-116379300D01*
X94484378Y-116275000D01*
X96171879Y-116275000D01*
X96509645Y-116612766D01*
X96580777Y-116719223D01*
X96743719Y-116828097D01*
X97002520Y-117001023D01*
X97500000Y-117099977D01*
X97750022Y-117050245D01*
X108693909Y-117050245D01*
X108052686Y-117222060D01*
X107954566Y-117270447D01*
X107882433Y-117352699D01*
X107847267Y-117456295D01*
X107854422Y-117565462D01*
X108027467Y-118211274D01*
X106972846Y-118679995D01*
X105779080Y-119077917D01*
X105672956Y-118789370D01*
X105499393Y-118563180D01*
X105300720Y-118492490D01*
X104808145Y-119345655D01*
X104183672Y-119501773D01*
X103343766Y-119016854D01*
X103207055Y-119177410D01*
X103185964Y-119700909D01*
X100496880Y-119925000D01*
X99253743Y-119925000D01*
X96761907Y-119675816D01*
X94521408Y-119177928D01*
X93333628Y-118732510D01*
X93652388Y-118732510D01*
X93812944Y-118869221D01*
X94339635Y-118890441D01*
X94820063Y-118713746D01*
X103518766Y-118713746D01*
X104456317Y-119255041D01*
X104997612Y-118317490D01*
X104837056Y-118180779D01*
X104310365Y-118159559D01*
X103815646Y-118341510D01*
X103589456Y-118515073D01*
X103518766Y-118713746D01*
X94820063Y-118713746D01*
X94834354Y-118708490D01*
X95060544Y-118534927D01*
X95131234Y-118336254D01*
X94193683Y-117794959D01*
X93652388Y-118732510D01*
X93333628Y-118732510D01*
X92528708Y-118430665D01*
X91066250Y-117765911D01*
X92795093Y-117765911D01*
X92977044Y-118260630D01*
X93150607Y-118486820D01*
X93349280Y-118557510D01*
X93890575Y-117619959D01*
X93668686Y-117491851D01*
X94368683Y-117491851D01*
X95306234Y-118033146D01*
X95442945Y-117872590D01*
X95464165Y-117345899D01*
X95282214Y-116851180D01*
X95108651Y-116624990D01*
X94909978Y-116554300D01*
X94368683Y-117491851D01*
X93668686Y-117491851D01*
X92953024Y-117078664D01*
X92816313Y-117239220D01*
X92795093Y-117765911D01*
X91066250Y-117765911D01*
X89787669Y-117184738D01*
X88563337Y-116310215D01*
X87074992Y-114821871D01*
X87074992Y-111496395D01*
X87025993Y-111378100D01*
X87001015Y-111252528D01*
X86929885Y-111146074D01*
X86880885Y-111027778D01*
X86790344Y-110937237D01*
X86719215Y-110830785D01*
X86612763Y-110759656D01*
X86522222Y-110669115D01*
X86403926Y-110620115D01*
X86297472Y-110548985D01*
X86171900Y-110524007D01*
X86053605Y-110475008D01*
X85925565Y-110475008D01*
X85799992Y-110450030D01*
X85674419Y-110475008D01*
X85546379Y-110475008D01*
X85428084Y-110524007D01*
X85302513Y-110548985D01*
X85196061Y-110620114D01*
X85077762Y-110669115D01*
X84987219Y-110759658D01*
X84880770Y-110830785D01*
X84809642Y-110937235D01*
X84719099Y-111027778D01*
X84670099Y-111146075D01*
X84598969Y-111252528D01*
X84573991Y-111378101D01*
X84524992Y-111496395D01*
X84524992Y-112598682D01*
X83811717Y-111707088D01*
X82316673Y-109215347D01*
X81320469Y-106973890D01*
X80573451Y-104483830D01*
X80380575Y-103133696D01*
X82009645Y-104762767D01*
X82009645Y-104762767D01*
G37*
X82009645Y-104762767D02*
X82080777Y-104869223D01*
X82502520Y-105151023D01*
X82874427Y-105225000D01*
X82874431Y-105225000D01*
X82999999Y-105249977D01*
X83125567Y-105225000D01*
X89201353Y-105225000D01*
X88998286Y-105295914D01*
X88626635Y-105627625D01*
X87104077Y-107648127D01*
X86887657Y-108096813D01*
X86849878Y-108762096D01*
X87069570Y-109391195D01*
X87513284Y-109888336D01*
X87928070Y-110088405D01*
X87928071Y-112877497D01*
X87903093Y-113003070D01*
X88002048Y-113500550D01*
X88201840Y-113799559D01*
X88283848Y-113922293D01*
X88390303Y-113993424D01*
X90209645Y-115812767D01*
X90280777Y-115919223D01*
X90702520Y-116201023D01*
X91074427Y-116275000D01*
X91074431Y-116275000D01*
X91199999Y-116299977D01*
X91325567Y-116275000D01*
X93773802Y-116275000D01*
X93424904Y-116403320D01*
X93198714Y-116576883D01*
X93128024Y-116775556D01*
X94065575Y-117316851D01*
X94606870Y-116379300D01*
X94484378Y-116275000D01*
X96171879Y-116275000D01*
X96509645Y-116612766D01*
X96580777Y-116719223D01*
X96743719Y-116828097D01*
X97002520Y-117001023D01*
X97500000Y-117099977D01*
X97750022Y-117050245D01*
X108693909Y-117050245D01*
X108052686Y-117222060D01*
X107954566Y-117270447D01*
X107882433Y-117352699D01*
X107847267Y-117456295D01*
X107854422Y-117565462D01*
X108027467Y-118211274D01*
X106972846Y-118679995D01*
X105779080Y-119077917D01*
X105672956Y-118789370D01*
X105499393Y-118563180D01*
X105300720Y-118492490D01*
X104808145Y-119345655D01*
X104183672Y-119501773D01*
X103343766Y-119016854D01*
X103207055Y-119177410D01*
X103185964Y-119700909D01*
X100496880Y-119925000D01*
X99253743Y-119925000D01*
X96761907Y-119675816D01*
X94521408Y-119177928D01*
X93333628Y-118732510D01*
X93652388Y-118732510D01*
X93812944Y-118869221D01*
X94339635Y-118890441D01*
X94820063Y-118713746D01*
X103518766Y-118713746D01*
X104456317Y-119255041D01*
X104997612Y-118317490D01*
X104837056Y-118180779D01*
X104310365Y-118159559D01*
X103815646Y-118341510D01*
X103589456Y-118515073D01*
X103518766Y-118713746D01*
X94820063Y-118713746D01*
X94834354Y-118708490D01*
X95060544Y-118534927D01*
X95131234Y-118336254D01*
X94193683Y-117794959D01*
X93652388Y-118732510D01*
X93333628Y-118732510D01*
X92528708Y-118430665D01*
X91066250Y-117765911D01*
X92795093Y-117765911D01*
X92977044Y-118260630D01*
X93150607Y-118486820D01*
X93349280Y-118557510D01*
X93890575Y-117619959D01*
X93668686Y-117491851D01*
X94368683Y-117491851D01*
X95306234Y-118033146D01*
X95442945Y-117872590D01*
X95464165Y-117345899D01*
X95282214Y-116851180D01*
X95108651Y-116624990D01*
X94909978Y-116554300D01*
X94368683Y-117491851D01*
X93668686Y-117491851D01*
X92953024Y-117078664D01*
X92816313Y-117239220D01*
X92795093Y-117765911D01*
X91066250Y-117765911D01*
X89787669Y-117184738D01*
X88563337Y-116310215D01*
X87074992Y-114821871D01*
X87074992Y-111496395D01*
X87025993Y-111378100D01*
X87001015Y-111252528D01*
X86929885Y-111146074D01*
X86880885Y-111027778D01*
X86790344Y-110937237D01*
X86719215Y-110830785D01*
X86612763Y-110759656D01*
X86522222Y-110669115D01*
X86403926Y-110620115D01*
X86297472Y-110548985D01*
X86171900Y-110524007D01*
X86053605Y-110475008D01*
X85925565Y-110475008D01*
X85799992Y-110450030D01*
X85674419Y-110475008D01*
X85546379Y-110475008D01*
X85428084Y-110524007D01*
X85302513Y-110548985D01*
X85196061Y-110620114D01*
X85077762Y-110669115D01*
X84987219Y-110759658D01*
X84880770Y-110830785D01*
X84809642Y-110937235D01*
X84719099Y-111027778D01*
X84670099Y-111146075D01*
X84598969Y-111252528D01*
X84573991Y-111378101D01*
X84524992Y-111496395D01*
X84524992Y-112598682D01*
X83811717Y-111707088D01*
X82316673Y-109215347D01*
X81320469Y-106973890D01*
X80573451Y-104483830D01*
X80380575Y-103133696D01*
X82009645Y-104762767D01*
G36*
X94509645Y-107812767D02*
X94580777Y-107919223D01*
X95002520Y-108201023D01*
X95374427Y-108275000D01*
X95374431Y-108275000D01*
X95499999Y-108299977D01*
X95625567Y-108275000D01*
X103320865Y-108275000D01*
X104883961Y-109838096D01*
X104887657Y-109903187D01*
X105104077Y-110351873D01*
X106626635Y-112372375D01*
X106998286Y-112704086D01*
X107344531Y-112825000D01*
X106562436Y-112825000D01*
X104133254Y-110395818D01*
X104275000Y-110053613D01*
X104275000Y-109546387D01*
X104080893Y-109077770D01*
X103722230Y-108719107D01*
X103253613Y-108525000D01*
X102746387Y-108525000D01*
X102277770Y-108719107D01*
X101919107Y-109077770D01*
X101725000Y-109546387D01*
X101725000Y-110053613D01*
X101919107Y-110522230D01*
X102160245Y-110763368D01*
X102175768Y-110841407D01*
X102369160Y-111130840D01*
X102442223Y-111179659D01*
X105520341Y-114257777D01*
X105569160Y-114330840D01*
X105822693Y-114500245D01*
X98003366Y-114500245D01*
X97690356Y-114187235D01*
X97619223Y-114080777D01*
X97197480Y-113798977D01*
X96825573Y-113725000D01*
X96825568Y-113725000D01*
X96700000Y-113700023D01*
X96574432Y-113725000D01*
X91728122Y-113725000D01*
X90478070Y-112474949D01*
X90478070Y-111568575D01*
X90663430Y-112099363D01*
X91107144Y-112596504D01*
X91707331Y-112885999D01*
X92372614Y-112923778D01*
X93001713Y-112704086D01*
X93373364Y-112372376D01*
X94895923Y-110351874D01*
X95112343Y-109903189D01*
X95150122Y-109237905D01*
X94930430Y-108608805D01*
X94486715Y-108111665D01*
X93886529Y-107822169D01*
X93861059Y-107820723D01*
X93969365Y-107559248D01*
X93969365Y-107272487D01*
X94509645Y-107812767D01*
X94509645Y-107812767D01*
G37*
X94509645Y-107812767D02*
X94580777Y-107919223D01*
X95002520Y-108201023D01*
X95374427Y-108275000D01*
X95374431Y-108275000D01*
X95499999Y-108299977D01*
X95625567Y-108275000D01*
X103320865Y-108275000D01*
X104883961Y-109838096D01*
X104887657Y-109903187D01*
X105104077Y-110351873D01*
X106626635Y-112372375D01*
X106998286Y-112704086D01*
X107344531Y-112825000D01*
X106562436Y-112825000D01*
X104133254Y-110395818D01*
X104275000Y-110053613D01*
X104275000Y-109546387D01*
X104080893Y-109077770D01*
X103722230Y-108719107D01*
X103253613Y-108525000D01*
X102746387Y-108525000D01*
X102277770Y-108719107D01*
X101919107Y-109077770D01*
X101725000Y-109546387D01*
X101725000Y-110053613D01*
X101919107Y-110522230D01*
X102160245Y-110763368D01*
X102175768Y-110841407D01*
X102369160Y-111130840D01*
X102442223Y-111179659D01*
X105520341Y-114257777D01*
X105569160Y-114330840D01*
X105822693Y-114500245D01*
X98003366Y-114500245D01*
X97690356Y-114187235D01*
X97619223Y-114080777D01*
X97197480Y-113798977D01*
X96825573Y-113725000D01*
X96825568Y-113725000D01*
X96700000Y-113700023D01*
X96574432Y-113725000D01*
X91728122Y-113725000D01*
X90478070Y-112474949D01*
X90478070Y-111568575D01*
X90663430Y-112099363D01*
X91107144Y-112596504D01*
X91707331Y-112885999D01*
X92372614Y-112923778D01*
X93001713Y-112704086D01*
X93373364Y-112372376D01*
X94895923Y-110351874D01*
X95112343Y-109903189D01*
X95150122Y-109237905D01*
X94930430Y-108608805D01*
X94486715Y-108111665D01*
X93886529Y-107822169D01*
X93861059Y-107820723D01*
X93969365Y-107559248D01*
X93969365Y-107272487D01*
X94509645Y-107812767D01*
G36*
X102987321Y-80323950D02*
X105479346Y-80822355D01*
X107472047Y-81569618D01*
X109216518Y-82317248D01*
X110957712Y-83312217D01*
X112202160Y-84307775D01*
X112835712Y-84850819D01*
X112764430Y-84864998D01*
X111496387Y-84864998D01*
X111378093Y-84913997D01*
X111252520Y-84938975D01*
X111146066Y-85010105D01*
X111027770Y-85059105D01*
X110937229Y-85149646D01*
X110830777Y-85220775D01*
X110759648Y-85327227D01*
X110669107Y-85417768D01*
X110620107Y-85536064D01*
X110548977Y-85642518D01*
X110523999Y-85768090D01*
X110475000Y-85886385D01*
X110475000Y-86014425D01*
X110450022Y-86139998D01*
X110475000Y-86265571D01*
X110475000Y-86393611D01*
X110523999Y-86511906D01*
X110548977Y-86637478D01*
X110620107Y-86743932D01*
X110669107Y-86862228D01*
X110759648Y-86952769D01*
X110830777Y-87059221D01*
X110937229Y-87130350D01*
X111027770Y-87220891D01*
X111146066Y-87269891D01*
X111252520Y-87341021D01*
X111378093Y-87365999D01*
X111496387Y-87414998D01*
X112361877Y-87414998D01*
X113147385Y-88200507D01*
X111545111Y-89802782D01*
X111221245Y-89784391D01*
X110592146Y-90004082D01*
X110220495Y-90335793D01*
X108697937Y-92356295D01*
X108481517Y-92804981D01*
X108443738Y-93470264D01*
X108597229Y-93909793D01*
X108078070Y-93390634D01*
X108078070Y-91267998D01*
X109302063Y-89643706D01*
X109518483Y-89195021D01*
X109556262Y-88529737D01*
X109336570Y-87900637D01*
X108892855Y-87403497D01*
X108292669Y-87114001D01*
X107627385Y-87076223D01*
X106998286Y-87295914D01*
X106626635Y-87627625D01*
X105104077Y-89648127D01*
X104887657Y-90096813D01*
X104849878Y-90762096D01*
X105069570Y-91391195D01*
X105513284Y-91888336D01*
X106113471Y-92177831D01*
X106328071Y-92190017D01*
X106328070Y-93666892D01*
X106310928Y-93753070D01*
X106328070Y-93839248D01*
X106378838Y-94094477D01*
X106572230Y-94383910D01*
X106645293Y-94432729D01*
X108370341Y-96157777D01*
X108419160Y-96230840D01*
X108708592Y-96424232D01*
X108963821Y-96475000D01*
X109049999Y-96492142D01*
X109136177Y-96475000D01*
X111263822Y-96475000D01*
X111350000Y-96492142D01*
X111436178Y-96475000D01*
X111436179Y-96475000D01*
X111691408Y-96424232D01*
X111980840Y-96230840D01*
X112029659Y-96157777D01*
X115324742Y-92862695D01*
X115522230Y-92780893D01*
X115880893Y-92422230D01*
X116075000Y-91953613D01*
X116075000Y-91446387D01*
X115880893Y-90977770D01*
X115522230Y-90619107D01*
X115053613Y-90425000D01*
X114546387Y-90425000D01*
X114516937Y-90437198D01*
X114950507Y-90003629D01*
X117725001Y-92778123D01*
X117725000Y-106271878D01*
X111558258Y-112438621D01*
X111621162Y-112344478D01*
X111671930Y-112089249D01*
X111689072Y-112003071D01*
X111671930Y-111916893D01*
X111671930Y-110190017D01*
X111886529Y-110177831D01*
X112486715Y-109888335D01*
X112930430Y-109391195D01*
X113150122Y-108762095D01*
X113112343Y-108096811D01*
X112895923Y-107648126D01*
X111373364Y-105627624D01*
X111001713Y-105295914D01*
X110372614Y-105076222D01*
X109707331Y-105114001D01*
X109107144Y-105403496D01*
X108663430Y-105900637D01*
X108443738Y-106529736D01*
X108481517Y-107195019D01*
X108697937Y-107643705D01*
X109921930Y-109267999D01*
X109921931Y-111640633D01*
X108737564Y-112825000D01*
X108419133Y-112825000D01*
X108892855Y-112596503D01*
X109336570Y-112099363D01*
X109556262Y-111470263D01*
X109518483Y-110804979D01*
X109302063Y-110356294D01*
X107809049Y-108375000D01*
X108034266Y-108375000D01*
X108282357Y-108272237D01*
X108472237Y-108082357D01*
X108575000Y-107834266D01*
X108575000Y-107565734D01*
X108472237Y-107317643D01*
X108282357Y-107127763D01*
X108034266Y-107025000D01*
X107765734Y-107025000D01*
X107517643Y-107127763D01*
X107327763Y-107317643D01*
X107225000Y-107565734D01*
X107225000Y-107809316D01*
X107127973Y-107906343D01*
X106778754Y-107784390D01*
X106454889Y-107802781D01*
X104839342Y-106187235D01*
X104768209Y-106080777D01*
X104346466Y-105798977D01*
X103974559Y-105725000D01*
X103974554Y-105725000D01*
X103848986Y-105700023D01*
X103723418Y-105725000D01*
X96028122Y-105725000D01*
X94703122Y-104400000D01*
X98307858Y-104400000D01*
X98325000Y-104486178D01*
X98325000Y-104574048D01*
X98358627Y-104655231D01*
X98375769Y-104741408D01*
X98424583Y-104814464D01*
X98458211Y-104895648D01*
X98520347Y-104957784D01*
X98569161Y-105030839D01*
X98642216Y-105079653D01*
X98704352Y-105141789D01*
X98785536Y-105175417D01*
X98858592Y-105224231D01*
X98944769Y-105241373D01*
X99025952Y-105275000D01*
X99113822Y-105275000D01*
X99200000Y-105292142D01*
X99286178Y-105275000D01*
X99374048Y-105275000D01*
X99455231Y-105241373D01*
X99541408Y-105224231D01*
X99614464Y-105175416D01*
X99695648Y-105141789D01*
X99790573Y-105046864D01*
X99877763Y-105257357D01*
X100067643Y-105447237D01*
X100315734Y-105550000D01*
X100584266Y-105550000D01*
X100832357Y-105447237D01*
X100962500Y-105317094D01*
X101117643Y-105472237D01*
X101365734Y-105575000D01*
X101634266Y-105575000D01*
X101882357Y-105472237D01*
X102072237Y-105282357D01*
X102175000Y-105034266D01*
X102175000Y-104765734D01*
X102072237Y-104517643D01*
X101925000Y-104370406D01*
X101925000Y-103679615D01*
X102022258Y-103582357D01*
X102125021Y-103334266D01*
X102125021Y-103065734D01*
X102022258Y-102817643D01*
X101832378Y-102627763D01*
X101704712Y-102574882D01*
X101797237Y-102482357D01*
X101900000Y-102234266D01*
X101900000Y-101965734D01*
X101797237Y-101717643D01*
X101607357Y-101527763D01*
X101359266Y-101425000D01*
X101090734Y-101425000D01*
X100842643Y-101527763D01*
X100652763Y-101717643D01*
X100616450Y-101805310D01*
X100591374Y-101744772D01*
X100574232Y-101658592D01*
X100525415Y-101585532D01*
X100491789Y-101504352D01*
X100429657Y-101442220D01*
X100380840Y-101369160D01*
X100307780Y-101320343D01*
X100245648Y-101258211D01*
X100164468Y-101224585D01*
X100091408Y-101175768D01*
X100005228Y-101158626D01*
X99924048Y-101125000D01*
X99836179Y-101125000D01*
X99750000Y-101107858D01*
X99663821Y-101125000D01*
X99575952Y-101125000D01*
X99494771Y-101158626D01*
X99408593Y-101175768D01*
X99335534Y-101224584D01*
X99254352Y-101258211D01*
X99192218Y-101320345D01*
X99119161Y-101369160D01*
X99070346Y-101442217D01*
X99008211Y-101504352D01*
X98974584Y-101585536D01*
X98925769Y-101658592D01*
X98908628Y-101744768D01*
X98875000Y-101825952D01*
X98875000Y-102174048D01*
X98875001Y-102174050D01*
X98875000Y-103487564D01*
X98704354Y-103658210D01*
X98704352Y-103658211D01*
X98458211Y-103904352D01*
X98424584Y-103985536D01*
X98375769Y-104058592D01*
X98358627Y-104144769D01*
X98325000Y-104225952D01*
X98325000Y-104313822D01*
X98307858Y-104400000D01*
X94703122Y-104400000D01*
X93440356Y-103137235D01*
X93369223Y-103030777D01*
X92947480Y-102748977D01*
X92575573Y-102675000D01*
X92575568Y-102675000D01*
X92450000Y-102650023D01*
X92324432Y-102675000D01*
X83528122Y-102675000D01*
X81924999Y-101071878D01*
X81924999Y-96750000D01*
X81982960Y-96750000D01*
X82070273Y-97188953D01*
X82318920Y-97561080D01*
X82691047Y-97809727D01*
X83019197Y-97875000D01*
X83240803Y-97875000D01*
X83568953Y-97809727D01*
X83941080Y-97561080D01*
X84189727Y-97188953D01*
X84206504Y-97104609D01*
X84549770Y-97104609D01*
X84770745Y-97506310D01*
X85128624Y-97792870D01*
X85315395Y-97870214D01*
X85495001Y-97829659D01*
X85495001Y-96925000D01*
X85845001Y-96925000D01*
X85845001Y-97829659D01*
X86024607Y-97870214D01*
X86211378Y-97792870D01*
X86569257Y-97506310D01*
X86790232Y-97104609D01*
X86750663Y-96925000D01*
X85845001Y-96925000D01*
X85495001Y-96925000D01*
X84589339Y-96925000D01*
X84549770Y-97104609D01*
X84206504Y-97104609D01*
X84277040Y-96750000D01*
X87062960Y-96750000D01*
X87150273Y-97188953D01*
X87398920Y-97561080D01*
X87771047Y-97809727D01*
X88099197Y-97875000D01*
X88320803Y-97875000D01*
X88648953Y-97809727D01*
X89021080Y-97561080D01*
X89269727Y-97188953D01*
X89357040Y-96750000D01*
X89269727Y-96311047D01*
X89021080Y-95938920D01*
X88648953Y-95690273D01*
X88320803Y-95625000D01*
X88099197Y-95625000D01*
X87771047Y-95690273D01*
X87398920Y-95938920D01*
X87150273Y-96311047D01*
X87062960Y-96750000D01*
X84277040Y-96750000D01*
X84206505Y-96395391D01*
X84549770Y-96395391D01*
X84589339Y-96575000D01*
X85495001Y-96575000D01*
X85495001Y-95670341D01*
X85845001Y-95670341D01*
X85845001Y-96575000D01*
X86750663Y-96575000D01*
X86790232Y-96395391D01*
X86569257Y-95993690D01*
X86211378Y-95707130D01*
X86024607Y-95629786D01*
X85845001Y-95670341D01*
X85495001Y-95670341D01*
X85315395Y-95629786D01*
X85128624Y-95707130D01*
X84770745Y-95993690D01*
X84549770Y-96395391D01*
X84206505Y-96395391D01*
X84189727Y-96311047D01*
X83941080Y-95938920D01*
X83568953Y-95690273D01*
X83240803Y-95625000D01*
X83019197Y-95625000D01*
X82691047Y-95690273D01*
X82318920Y-95938920D01*
X82070273Y-96311047D01*
X81982960Y-96750000D01*
X81924999Y-96750000D01*
X81924999Y-95318120D01*
X89295506Y-87947614D01*
X90477821Y-89129928D01*
X90481517Y-89195019D01*
X90697937Y-89643705D01*
X92220495Y-91664207D01*
X92592146Y-91995918D01*
X93221245Y-92215609D01*
X93886529Y-92177831D01*
X94486715Y-91888335D01*
X94930430Y-91391195D01*
X95150122Y-90762095D01*
X95112343Y-90096811D01*
X94895923Y-89648126D01*
X94124608Y-88624558D01*
X94246387Y-88675000D01*
X94537564Y-88675000D01*
X95225000Y-89362437D01*
X95225001Y-92337562D01*
X93937563Y-93625001D01*
X92162436Y-93625001D01*
X91529083Y-92991649D01*
X91518483Y-92804979D01*
X91302063Y-92356294D01*
X89779504Y-90335792D01*
X89407853Y-90004082D01*
X88778754Y-89784390D01*
X88113471Y-89822169D01*
X87513284Y-90111664D01*
X87069570Y-90608805D01*
X86849878Y-91237904D01*
X86887657Y-91903187D01*
X87104077Y-92351873D01*
X88626635Y-94372375D01*
X88998286Y-94704086D01*
X89627385Y-94923777D01*
X90026713Y-94901101D01*
X90008142Y-94945935D01*
X90008142Y-95214467D01*
X90110905Y-95462558D01*
X90267960Y-95619613D01*
X89900000Y-95619613D01*
X89792701Y-95640956D01*
X89701736Y-95701736D01*
X89640956Y-95792701D01*
X89619613Y-95900000D01*
X89619613Y-97600000D01*
X89640956Y-97707299D01*
X89701736Y-97798264D01*
X89792701Y-97859044D01*
X89900000Y-97880387D01*
X91600000Y-97880387D01*
X91707299Y-97859044D01*
X91798264Y-97798264D01*
X91859044Y-97707299D01*
X91880387Y-97600000D01*
X91880387Y-95900000D01*
X91876449Y-95880200D01*
X94846091Y-95880200D01*
X94885485Y-95888036D01*
X94924879Y-95880200D01*
X95041557Y-95856991D01*
X95173869Y-95768584D01*
X95196188Y-95735181D01*
X97354988Y-93576383D01*
X97388384Y-93554069D01*
X97476791Y-93421757D01*
X97500000Y-93305079D01*
X97500000Y-93305078D01*
X97507836Y-93265686D01*
X97500000Y-93226293D01*
X97500000Y-90890737D01*
X97865760Y-90524978D01*
X98109341Y-90524978D01*
X98357432Y-90422215D01*
X98547312Y-90232335D01*
X98650075Y-89984244D01*
X98650075Y-89715712D01*
X98547312Y-89467621D01*
X98357432Y-89277741D01*
X98109341Y-89174978D01*
X97840809Y-89174978D01*
X97592718Y-89277741D01*
X97402838Y-89467621D01*
X97300075Y-89715712D01*
X97300075Y-89959293D01*
X96975000Y-90284369D01*
X96975000Y-89086179D01*
X96992142Y-89000000D01*
X96924232Y-88658592D01*
X96805497Y-88480893D01*
X96730840Y-88369160D01*
X96657780Y-88320343D01*
X95775000Y-87437564D01*
X95775000Y-87146387D01*
X95580893Y-86677770D01*
X95222230Y-86319107D01*
X94753613Y-86125000D01*
X94246387Y-86125000D01*
X93777770Y-86319107D01*
X93419107Y-86677770D01*
X93225000Y-87146387D01*
X93225000Y-87495205D01*
X93001713Y-87295914D01*
X92372614Y-87076222D01*
X92048749Y-87094613D01*
X90441370Y-85487235D01*
X90370237Y-85380777D01*
X90310291Y-85340723D01*
X90270237Y-85280777D01*
X90264856Y-85277182D01*
X90261261Y-85271801D01*
X89839518Y-84990001D01*
X89467611Y-84916024D01*
X89467606Y-84916024D01*
X89342038Y-84891047D01*
X89216470Y-84916024D01*
X87696387Y-84916024D01*
X87578093Y-84965023D01*
X87452520Y-84990001D01*
X87346066Y-85061131D01*
X87227770Y-85110131D01*
X87137229Y-85200672D01*
X87030777Y-85271801D01*
X86959648Y-85378253D01*
X86869107Y-85468794D01*
X86820107Y-85587090D01*
X86748977Y-85693544D01*
X86723999Y-85819116D01*
X86675000Y-85937411D01*
X86675000Y-86065451D01*
X86650022Y-86191024D01*
X86675000Y-86316597D01*
X86675000Y-86444637D01*
X86723999Y-86562932D01*
X86748977Y-86688504D01*
X86820107Y-86794958D01*
X86826496Y-86810381D01*
X81816537Y-91820340D01*
X83313369Y-89040508D01*
X84806802Y-87049264D01*
X86800624Y-85055442D01*
X88293562Y-83811327D01*
X90783895Y-82317127D01*
X93774393Y-81071086D01*
X96514094Y-80323895D01*
X98754151Y-80075000D01*
X101244671Y-80075000D01*
X102987321Y-80323950D01*
X102987321Y-80323950D01*
G37*
X102987321Y-80323950D02*
X105479346Y-80822355D01*
X107472047Y-81569618D01*
X109216518Y-82317248D01*
X110957712Y-83312217D01*
X112202160Y-84307775D01*
X112835712Y-84850819D01*
X112764430Y-84864998D01*
X111496387Y-84864998D01*
X111378093Y-84913997D01*
X111252520Y-84938975D01*
X111146066Y-85010105D01*
X111027770Y-85059105D01*
X110937229Y-85149646D01*
X110830777Y-85220775D01*
X110759648Y-85327227D01*
X110669107Y-85417768D01*
X110620107Y-85536064D01*
X110548977Y-85642518D01*
X110523999Y-85768090D01*
X110475000Y-85886385D01*
X110475000Y-86014425D01*
X110450022Y-86139998D01*
X110475000Y-86265571D01*
X110475000Y-86393611D01*
X110523999Y-86511906D01*
X110548977Y-86637478D01*
X110620107Y-86743932D01*
X110669107Y-86862228D01*
X110759648Y-86952769D01*
X110830777Y-87059221D01*
X110937229Y-87130350D01*
X111027770Y-87220891D01*
X111146066Y-87269891D01*
X111252520Y-87341021D01*
X111378093Y-87365999D01*
X111496387Y-87414998D01*
X112361877Y-87414998D01*
X113147385Y-88200507D01*
X111545111Y-89802782D01*
X111221245Y-89784391D01*
X110592146Y-90004082D01*
X110220495Y-90335793D01*
X108697937Y-92356295D01*
X108481517Y-92804981D01*
X108443738Y-93470264D01*
X108597229Y-93909793D01*
X108078070Y-93390634D01*
X108078070Y-91267998D01*
X109302063Y-89643706D01*
X109518483Y-89195021D01*
X109556262Y-88529737D01*
X109336570Y-87900637D01*
X108892855Y-87403497D01*
X108292669Y-87114001D01*
X107627385Y-87076223D01*
X106998286Y-87295914D01*
X106626635Y-87627625D01*
X105104077Y-89648127D01*
X104887657Y-90096813D01*
X104849878Y-90762096D01*
X105069570Y-91391195D01*
X105513284Y-91888336D01*
X106113471Y-92177831D01*
X106328071Y-92190017D01*
X106328070Y-93666892D01*
X106310928Y-93753070D01*
X106328070Y-93839248D01*
X106378838Y-94094477D01*
X106572230Y-94383910D01*
X106645293Y-94432729D01*
X108370341Y-96157777D01*
X108419160Y-96230840D01*
X108708592Y-96424232D01*
X108963821Y-96475000D01*
X109049999Y-96492142D01*
X109136177Y-96475000D01*
X111263822Y-96475000D01*
X111350000Y-96492142D01*
X111436178Y-96475000D01*
X111436179Y-96475000D01*
X111691408Y-96424232D01*
X111980840Y-96230840D01*
X112029659Y-96157777D01*
X115324742Y-92862695D01*
X115522230Y-92780893D01*
X115880893Y-92422230D01*
X116075000Y-91953613D01*
X116075000Y-91446387D01*
X115880893Y-90977770D01*
X115522230Y-90619107D01*
X115053613Y-90425000D01*
X114546387Y-90425000D01*
X114516937Y-90437198D01*
X114950507Y-90003629D01*
X117725001Y-92778123D01*
X117725000Y-106271878D01*
X111558258Y-112438621D01*
X111621162Y-112344478D01*
X111671930Y-112089249D01*
X111689072Y-112003071D01*
X111671930Y-111916893D01*
X111671930Y-110190017D01*
X111886529Y-110177831D01*
X112486715Y-109888335D01*
X112930430Y-109391195D01*
X113150122Y-108762095D01*
X113112343Y-108096811D01*
X112895923Y-107648126D01*
X111373364Y-105627624D01*
X111001713Y-105295914D01*
X110372614Y-105076222D01*
X109707331Y-105114001D01*
X109107144Y-105403496D01*
X108663430Y-105900637D01*
X108443738Y-106529736D01*
X108481517Y-107195019D01*
X108697937Y-107643705D01*
X109921930Y-109267999D01*
X109921931Y-111640633D01*
X108737564Y-112825000D01*
X108419133Y-112825000D01*
X108892855Y-112596503D01*
X109336570Y-112099363D01*
X109556262Y-111470263D01*
X109518483Y-110804979D01*
X109302063Y-110356294D01*
X107809049Y-108375000D01*
X108034266Y-108375000D01*
X108282357Y-108272237D01*
X108472237Y-108082357D01*
X108575000Y-107834266D01*
X108575000Y-107565734D01*
X108472237Y-107317643D01*
X108282357Y-107127763D01*
X108034266Y-107025000D01*
X107765734Y-107025000D01*
X107517643Y-107127763D01*
X107327763Y-107317643D01*
X107225000Y-107565734D01*
X107225000Y-107809316D01*
X107127973Y-107906343D01*
X106778754Y-107784390D01*
X106454889Y-107802781D01*
X104839342Y-106187235D01*
X104768209Y-106080777D01*
X104346466Y-105798977D01*
X103974559Y-105725000D01*
X103974554Y-105725000D01*
X103848986Y-105700023D01*
X103723418Y-105725000D01*
X96028122Y-105725000D01*
X94703122Y-104400000D01*
X98307858Y-104400000D01*
X98325000Y-104486178D01*
X98325000Y-104574048D01*
X98358627Y-104655231D01*
X98375769Y-104741408D01*
X98424583Y-104814464D01*
X98458211Y-104895648D01*
X98520347Y-104957784D01*
X98569161Y-105030839D01*
X98642216Y-105079653D01*
X98704352Y-105141789D01*
X98785536Y-105175417D01*
X98858592Y-105224231D01*
X98944769Y-105241373D01*
X99025952Y-105275000D01*
X99113822Y-105275000D01*
X99200000Y-105292142D01*
X99286178Y-105275000D01*
X99374048Y-105275000D01*
X99455231Y-105241373D01*
X99541408Y-105224231D01*
X99614464Y-105175416D01*
X99695648Y-105141789D01*
X99790573Y-105046864D01*
X99877763Y-105257357D01*
X100067643Y-105447237D01*
X100315734Y-105550000D01*
X100584266Y-105550000D01*
X100832357Y-105447237D01*
X100962500Y-105317094D01*
X101117643Y-105472237D01*
X101365734Y-105575000D01*
X101634266Y-105575000D01*
X101882357Y-105472237D01*
X102072237Y-105282357D01*
X102175000Y-105034266D01*
X102175000Y-104765734D01*
X102072237Y-104517643D01*
X101925000Y-104370406D01*
X101925000Y-103679615D01*
X102022258Y-103582357D01*
X102125021Y-103334266D01*
X102125021Y-103065734D01*
X102022258Y-102817643D01*
X101832378Y-102627763D01*
X101704712Y-102574882D01*
X101797237Y-102482357D01*
X101900000Y-102234266D01*
X101900000Y-101965734D01*
X101797237Y-101717643D01*
X101607357Y-101527763D01*
X101359266Y-101425000D01*
X101090734Y-101425000D01*
X100842643Y-101527763D01*
X100652763Y-101717643D01*
X100616450Y-101805310D01*
X100591374Y-101744772D01*
X100574232Y-101658592D01*
X100525415Y-101585532D01*
X100491789Y-101504352D01*
X100429657Y-101442220D01*
X100380840Y-101369160D01*
X100307780Y-101320343D01*
X100245648Y-101258211D01*
X100164468Y-101224585D01*
X100091408Y-101175768D01*
X100005228Y-101158626D01*
X99924048Y-101125000D01*
X99836179Y-101125000D01*
X99750000Y-101107858D01*
X99663821Y-101125000D01*
X99575952Y-101125000D01*
X99494771Y-101158626D01*
X99408593Y-101175768D01*
X99335534Y-101224584D01*
X99254352Y-101258211D01*
X99192218Y-101320345D01*
X99119161Y-101369160D01*
X99070346Y-101442217D01*
X99008211Y-101504352D01*
X98974584Y-101585536D01*
X98925769Y-101658592D01*
X98908628Y-101744768D01*
X98875000Y-101825952D01*
X98875000Y-102174048D01*
X98875001Y-102174050D01*
X98875000Y-103487564D01*
X98704354Y-103658210D01*
X98704352Y-103658211D01*
X98458211Y-103904352D01*
X98424584Y-103985536D01*
X98375769Y-104058592D01*
X98358627Y-104144769D01*
X98325000Y-104225952D01*
X98325000Y-104313822D01*
X98307858Y-104400000D01*
X94703122Y-104400000D01*
X93440356Y-103137235D01*
X93369223Y-103030777D01*
X92947480Y-102748977D01*
X92575573Y-102675000D01*
X92575568Y-102675000D01*
X92450000Y-102650023D01*
X92324432Y-102675000D01*
X83528122Y-102675000D01*
X81924999Y-101071878D01*
X81924999Y-96750000D01*
X81982960Y-96750000D01*
X82070273Y-97188953D01*
X82318920Y-97561080D01*
X82691047Y-97809727D01*
X83019197Y-97875000D01*
X83240803Y-97875000D01*
X83568953Y-97809727D01*
X83941080Y-97561080D01*
X84189727Y-97188953D01*
X84206504Y-97104609D01*
X84549770Y-97104609D01*
X84770745Y-97506310D01*
X85128624Y-97792870D01*
X85315395Y-97870214D01*
X85495001Y-97829659D01*
X85495001Y-96925000D01*
X85845001Y-96925000D01*
X85845001Y-97829659D01*
X86024607Y-97870214D01*
X86211378Y-97792870D01*
X86569257Y-97506310D01*
X86790232Y-97104609D01*
X86750663Y-96925000D01*
X85845001Y-96925000D01*
X85495001Y-96925000D01*
X84589339Y-96925000D01*
X84549770Y-97104609D01*
X84206504Y-97104609D01*
X84277040Y-96750000D01*
X87062960Y-96750000D01*
X87150273Y-97188953D01*
X87398920Y-97561080D01*
X87771047Y-97809727D01*
X88099197Y-97875000D01*
X88320803Y-97875000D01*
X88648953Y-97809727D01*
X89021080Y-97561080D01*
X89269727Y-97188953D01*
X89357040Y-96750000D01*
X89269727Y-96311047D01*
X89021080Y-95938920D01*
X88648953Y-95690273D01*
X88320803Y-95625000D01*
X88099197Y-95625000D01*
X87771047Y-95690273D01*
X87398920Y-95938920D01*
X87150273Y-96311047D01*
X87062960Y-96750000D01*
X84277040Y-96750000D01*
X84206505Y-96395391D01*
X84549770Y-96395391D01*
X84589339Y-96575000D01*
X85495001Y-96575000D01*
X85495001Y-95670341D01*
X85845001Y-95670341D01*
X85845001Y-96575000D01*
X86750663Y-96575000D01*
X86790232Y-96395391D01*
X86569257Y-95993690D01*
X86211378Y-95707130D01*
X86024607Y-95629786D01*
X85845001Y-95670341D01*
X85495001Y-95670341D01*
X85315395Y-95629786D01*
X85128624Y-95707130D01*
X84770745Y-95993690D01*
X84549770Y-96395391D01*
X84206505Y-96395391D01*
X84189727Y-96311047D01*
X83941080Y-95938920D01*
X83568953Y-95690273D01*
X83240803Y-95625000D01*
X83019197Y-95625000D01*
X82691047Y-95690273D01*
X82318920Y-95938920D01*
X82070273Y-96311047D01*
X81982960Y-96750000D01*
X81924999Y-96750000D01*
X81924999Y-95318120D01*
X89295506Y-87947614D01*
X90477821Y-89129928D01*
X90481517Y-89195019D01*
X90697937Y-89643705D01*
X92220495Y-91664207D01*
X92592146Y-91995918D01*
X93221245Y-92215609D01*
X93886529Y-92177831D01*
X94486715Y-91888335D01*
X94930430Y-91391195D01*
X95150122Y-90762095D01*
X95112343Y-90096811D01*
X94895923Y-89648126D01*
X94124608Y-88624558D01*
X94246387Y-88675000D01*
X94537564Y-88675000D01*
X95225000Y-89362437D01*
X95225001Y-92337562D01*
X93937563Y-93625001D01*
X92162436Y-93625001D01*
X91529083Y-92991649D01*
X91518483Y-92804979D01*
X91302063Y-92356294D01*
X89779504Y-90335792D01*
X89407853Y-90004082D01*
X88778754Y-89784390D01*
X88113471Y-89822169D01*
X87513284Y-90111664D01*
X87069570Y-90608805D01*
X86849878Y-91237904D01*
X86887657Y-91903187D01*
X87104077Y-92351873D01*
X88626635Y-94372375D01*
X88998286Y-94704086D01*
X89627385Y-94923777D01*
X90026713Y-94901101D01*
X90008142Y-94945935D01*
X90008142Y-95214467D01*
X90110905Y-95462558D01*
X90267960Y-95619613D01*
X89900000Y-95619613D01*
X89792701Y-95640956D01*
X89701736Y-95701736D01*
X89640956Y-95792701D01*
X89619613Y-95900000D01*
X89619613Y-97600000D01*
X89640956Y-97707299D01*
X89701736Y-97798264D01*
X89792701Y-97859044D01*
X89900000Y-97880387D01*
X91600000Y-97880387D01*
X91707299Y-97859044D01*
X91798264Y-97798264D01*
X91859044Y-97707299D01*
X91880387Y-97600000D01*
X91880387Y-95900000D01*
X91876449Y-95880200D01*
X94846091Y-95880200D01*
X94885485Y-95888036D01*
X94924879Y-95880200D01*
X95041557Y-95856991D01*
X95173869Y-95768584D01*
X95196188Y-95735181D01*
X97354988Y-93576383D01*
X97388384Y-93554069D01*
X97476791Y-93421757D01*
X97500000Y-93305079D01*
X97500000Y-93305078D01*
X97507836Y-93265686D01*
X97500000Y-93226293D01*
X97500000Y-90890737D01*
X97865760Y-90524978D01*
X98109341Y-90524978D01*
X98357432Y-90422215D01*
X98547312Y-90232335D01*
X98650075Y-89984244D01*
X98650075Y-89715712D01*
X98547312Y-89467621D01*
X98357432Y-89277741D01*
X98109341Y-89174978D01*
X97840809Y-89174978D01*
X97592718Y-89277741D01*
X97402838Y-89467621D01*
X97300075Y-89715712D01*
X97300075Y-89959293D01*
X96975000Y-90284369D01*
X96975000Y-89086179D01*
X96992142Y-89000000D01*
X96924232Y-88658592D01*
X96805497Y-88480893D01*
X96730840Y-88369160D01*
X96657780Y-88320343D01*
X95775000Y-87437564D01*
X95775000Y-87146387D01*
X95580893Y-86677770D01*
X95222230Y-86319107D01*
X94753613Y-86125000D01*
X94246387Y-86125000D01*
X93777770Y-86319107D01*
X93419107Y-86677770D01*
X93225000Y-87146387D01*
X93225000Y-87495205D01*
X93001713Y-87295914D01*
X92372614Y-87076222D01*
X92048749Y-87094613D01*
X90441370Y-85487235D01*
X90370237Y-85380777D01*
X90310291Y-85340723D01*
X90270237Y-85280777D01*
X90264856Y-85277182D01*
X90261261Y-85271801D01*
X89839518Y-84990001D01*
X89467611Y-84916024D01*
X89467606Y-84916024D01*
X89342038Y-84891047D01*
X89216470Y-84916024D01*
X87696387Y-84916024D01*
X87578093Y-84965023D01*
X87452520Y-84990001D01*
X87346066Y-85061131D01*
X87227770Y-85110131D01*
X87137229Y-85200672D01*
X87030777Y-85271801D01*
X86959648Y-85378253D01*
X86869107Y-85468794D01*
X86820107Y-85587090D01*
X86748977Y-85693544D01*
X86723999Y-85819116D01*
X86675000Y-85937411D01*
X86675000Y-86065451D01*
X86650022Y-86191024D01*
X86675000Y-86316597D01*
X86675000Y-86444637D01*
X86723999Y-86562932D01*
X86748977Y-86688504D01*
X86820107Y-86794958D01*
X86826496Y-86810381D01*
X81816537Y-91820340D01*
X83313369Y-89040508D01*
X84806802Y-87049264D01*
X86800624Y-85055442D01*
X88293562Y-83811327D01*
X90783895Y-82317127D01*
X93774393Y-81071086D01*
X96514094Y-80323895D01*
X98754151Y-80075000D01*
X101244671Y-80075000D01*
X102987321Y-80323950D01*
G04 #@! TO.N,+12V*
G36*
X103227907Y-75576836D02*
X106381157Y-76209398D01*
X109425348Y-77246699D01*
X112283273Y-78659544D01*
X112284359Y-78660760D01*
X112341112Y-78688137D01*
X112368455Y-78701654D01*
X112369990Y-78702067D01*
X112400812Y-78716935D01*
X112431813Y-78718697D01*
X112461794Y-78726761D01*
X112495722Y-78722328D01*
X112529895Y-78724270D01*
X112559211Y-78714033D01*
X112589997Y-78710011D01*
X112619652Y-78692929D01*
X112651960Y-78681647D01*
X112675125Y-78660973D01*
X112702031Y-78645474D01*
X112722891Y-78618344D01*
X112724075Y-78617287D01*
X112742424Y-78592938D01*
X112746726Y-78587344D01*
X115633561Y-80539135D01*
X117466402Y-82202638D01*
X119757864Y-84820158D01*
X119741917Y-84841318D01*
X119710998Y-84873190D01*
X119691480Y-84922410D01*
X119668473Y-84970100D01*
X119667788Y-84982154D01*
X119663337Y-84993378D01*
X119664140Y-85046315D01*
X119661135Y-85099183D01*
X119665116Y-85110584D01*
X119665299Y-85122654D01*
X119686300Y-85171258D01*
X119703755Y-85221249D01*
X119733318Y-85254376D01*
X120862002Y-86889326D01*
X121854001Y-88607578D01*
X122702260Y-90394218D01*
X123403745Y-92240178D01*
X123955383Y-94136291D01*
X124354132Y-96073469D01*
X124596943Y-98042593D01*
X124680736Y-100033912D01*
X124593545Y-102055934D01*
X124342503Y-104054420D01*
X123930869Y-106019431D01*
X123361885Y-107941445D01*
X122638795Y-109810944D01*
X121764842Y-111618408D01*
X120743269Y-113354322D01*
X119580364Y-115004855D01*
X119549761Y-115039144D01*
X119532815Y-115087672D01*
X119511979Y-115134654D01*
X119511641Y-115148309D01*
X119507137Y-115161208D01*
X119510052Y-115212526D01*
X119508781Y-115263906D01*
X119513695Y-115276653D01*
X119514470Y-115290292D01*
X119536802Y-115336588D01*
X119555290Y-115384544D01*
X119566786Y-115396623D01*
X117716756Y-117566850D01*
X115024590Y-119870147D01*
X112506034Y-121558212D01*
X112490039Y-121537068D01*
X112462151Y-121520711D01*
X112438034Y-121499185D01*
X112406933Y-121488324D01*
X112378514Y-121471655D01*
X112346491Y-121467215D01*
X112315971Y-121456557D01*
X112283080Y-121458424D01*
X112250447Y-121453900D01*
X112219164Y-121462053D01*
X112186887Y-121463885D01*
X112157211Y-121478198D01*
X112156913Y-121478276D01*
X112128398Y-121492096D01*
X112070432Y-121520054D01*
X112070220Y-121520291D01*
X109257224Y-122883593D01*
X106264067Y-123885502D01*
X103167511Y-124497114D01*
X100005651Y-124708407D01*
X96867878Y-124505411D01*
X93793094Y-123908020D01*
X90818763Y-122925911D01*
X87963499Y-121559964D01*
X87905702Y-121532091D01*
X87872603Y-121530214D01*
X87840481Y-121522016D01*
X87808688Y-121526588D01*
X87776616Y-121524769D01*
X87745319Y-121535701D01*
X87712506Y-121540420D01*
X87684879Y-121556813D01*
X87654556Y-121567405D01*
X87629826Y-121589480D01*
X87601315Y-121606398D01*
X87599113Y-121609340D01*
X84945809Y-119870350D01*
X84627140Y-119585343D01*
X88125294Y-119585343D01*
X88262236Y-120096418D01*
X88295699Y-120221305D01*
X88374408Y-120323880D01*
X88486380Y-120388526D01*
X88614566Y-120405402D01*
X89250528Y-120234997D01*
X89307980Y-120135486D01*
X89070190Y-119248042D01*
X88182746Y-119485832D01*
X88125294Y-119585343D01*
X84627140Y-119585343D01*
X84061899Y-119079810D01*
X89698042Y-119079810D01*
X89935832Y-119967254D01*
X90035343Y-120024706D01*
X90671304Y-119854301D01*
X90773879Y-119775593D01*
X90838526Y-119663622D01*
X90855403Y-119535435D01*
X90821939Y-119410547D01*
X90684997Y-118899472D01*
X90585486Y-118842020D01*
X89698042Y-119079810D01*
X84061899Y-119079810D01*
X83038553Y-118164565D01*
X87744597Y-118164565D01*
X87778061Y-118289453D01*
X87915003Y-118800528D01*
X88014514Y-118857980D01*
X88901958Y-118620190D01*
X88664168Y-117732746D01*
X88564657Y-117675294D01*
X87928696Y-117845699D01*
X87826121Y-117924407D01*
X87761474Y-118036378D01*
X87744597Y-118164565D01*
X83038553Y-118164565D01*
X82113501Y-117337230D01*
X80507124Y-115491227D01*
X80513109Y-115484896D01*
X80531244Y-115437382D01*
X80553339Y-115391575D01*
X80554145Y-115377384D01*
X80559214Y-115364103D01*
X80557786Y-115313259D01*
X80560668Y-115262490D01*
X80555982Y-115249072D01*
X80555583Y-115234862D01*
X80534807Y-115188437D01*
X80518041Y-115140426D01*
X80487079Y-115105736D01*
X79309558Y-113446289D01*
X78275660Y-111700396D01*
X77391408Y-109881576D01*
X76660120Y-107999532D01*
X76085139Y-106064024D01*
X75669783Y-104084762D01*
X75417379Y-102071460D01*
X75331270Y-100034159D01*
X75416945Y-98029495D01*
X75663723Y-96047647D01*
X75924856Y-94789999D01*
X79350022Y-94789999D01*
X79375000Y-94915572D01*
X79374999Y-101474431D01*
X79350022Y-101599999D01*
X79374999Y-101725567D01*
X79374999Y-101725571D01*
X79448976Y-102097478D01*
X79730776Y-102519222D01*
X79837234Y-102590355D01*
X79969429Y-102722550D01*
X79977124Y-102784110D01*
X79977764Y-102788891D01*
X80227764Y-104538891D01*
X80236598Y-104579021D01*
X80986598Y-107079021D01*
X80998702Y-107111688D01*
X81998702Y-109361688D01*
X82014189Y-109391486D01*
X83514189Y-111891486D01*
X83535261Y-111921791D01*
X84535261Y-113171791D01*
X84555546Y-113194454D01*
X86055546Y-114694454D01*
X86071032Y-114708796D01*
X87821032Y-116208796D01*
X87840159Y-116223777D01*
X89515568Y-117420498D01*
X89349472Y-117465003D01*
X89292020Y-117564514D01*
X89529810Y-118451958D01*
X90417254Y-118214168D01*
X90474706Y-118114657D01*
X90403564Y-117849151D01*
X92386204Y-118750351D01*
X92403441Y-118757491D01*
X94403441Y-119507491D01*
X94440344Y-119518451D01*
X96690344Y-120018451D01*
X96722636Y-120023635D01*
X99222636Y-120273635D01*
X99250000Y-120275000D01*
X100500000Y-120275000D01*
X100522838Y-120274050D01*
X103365274Y-120037180D01*
X103439478Y-120216325D01*
X103798141Y-120574988D01*
X104266758Y-120769095D01*
X104773984Y-120769095D01*
X105242601Y-120574988D01*
X105601264Y-120216325D01*
X105795371Y-119747708D01*
X105795371Y-119441419D01*
X107086963Y-119010888D01*
X107111688Y-119001298D01*
X108119173Y-118553527D01*
X108372060Y-119497314D01*
X108420447Y-119595434D01*
X108502699Y-119667567D01*
X108606295Y-119702733D01*
X108715462Y-119695578D01*
X110647314Y-119177940D01*
X110745434Y-119129553D01*
X110817567Y-119047301D01*
X110852733Y-118943705D01*
X110845578Y-118834538D01*
X110442213Y-117329160D01*
X111395750Y-116733200D01*
X111409841Y-116723777D01*
X113159841Y-115473777D01*
X113194454Y-115444454D01*
X115194454Y-113444454D01*
X115220000Y-113415000D01*
X116720000Y-111415000D01*
X116733200Y-111395750D01*
X117609580Y-109993541D01*
X119812768Y-107790354D01*
X119919223Y-107719223D01*
X120201023Y-107297480D01*
X120275000Y-106925573D01*
X120275000Y-106925569D01*
X120299977Y-106800001D01*
X120275000Y-106674433D01*
X120275000Y-92375567D01*
X120299977Y-92249999D01*
X120275000Y-92124431D01*
X120275000Y-92124427D01*
X120201023Y-91752520D01*
X119919223Y-91330777D01*
X119812768Y-91259646D01*
X116140356Y-87587235D01*
X116069223Y-87480777D01*
X115962768Y-87409646D01*
X115675017Y-87121896D01*
X115473777Y-86840159D01*
X115444454Y-86805546D01*
X114194454Y-85555546D01*
X114178968Y-85541204D01*
X113814699Y-85228973D01*
X113809221Y-85220775D01*
X113790683Y-85208388D01*
X112428968Y-84041204D01*
X112421791Y-84035261D01*
X111171791Y-83035261D01*
X111136438Y-83011233D01*
X109386438Y-82011233D01*
X109358328Y-81997235D01*
X107608328Y-81247235D01*
X107596559Y-81242509D01*
X105596559Y-80492509D01*
X105553932Y-80480340D01*
X103053932Y-79980340D01*
X103038891Y-79977764D01*
X101288891Y-79727764D01*
X101250000Y-79725000D01*
X98750000Y-79725000D01*
X98719631Y-79726682D01*
X96469631Y-79976682D01*
X96427643Y-79984690D01*
X93677643Y-80734690D01*
X93644231Y-80746154D01*
X90644231Y-81996154D01*
X90608514Y-82014189D01*
X88108514Y-83514189D01*
X88073949Y-83538739D01*
X86573949Y-84788739D01*
X86555546Y-84805546D01*
X84555546Y-86805546D01*
X84530000Y-86835000D01*
X83030000Y-88835000D01*
X83007870Y-88869623D01*
X81257870Y-92119623D01*
X81237161Y-92169126D01*
X81134677Y-92502200D01*
X79837232Y-93799645D01*
X79730777Y-93870776D01*
X79659646Y-93977231D01*
X79659645Y-93977232D01*
X79448977Y-94292519D01*
X79350022Y-94789999D01*
X75924856Y-94789999D01*
X76068448Y-94098449D01*
X76627987Y-92191170D01*
X77339202Y-90335113D01*
X78198964Y-88539547D01*
X79204116Y-86813797D01*
X80347973Y-85172231D01*
X80378006Y-85138580D01*
X80395229Y-85089258D01*
X80416162Y-85041387D01*
X80416412Y-85028596D01*
X80420630Y-85016516D01*
X80417667Y-84964352D01*
X80418687Y-84912119D01*
X80414023Y-84900205D01*
X80413297Y-84887431D01*
X80390596Y-84840369D01*
X80371551Y-84791725D01*
X80340287Y-84759215D01*
X80327077Y-84741685D01*
X82642506Y-82113857D01*
X85454451Y-79760598D01*
X87361925Y-78540502D01*
X87366923Y-78547045D01*
X87385575Y-78571799D01*
X87386391Y-78572528D01*
X87406867Y-78599329D01*
X87434149Y-78615157D01*
X87457684Y-78636165D01*
X87489528Y-78647287D01*
X87518701Y-78664212D01*
X87549966Y-78668395D01*
X87579746Y-78678796D01*
X87613421Y-78676885D01*
X87646851Y-78681358D01*
X87677337Y-78673258D01*
X87708831Y-78671471D01*
X87739213Y-78656818D01*
X87740267Y-78656538D01*
X87767987Y-78642941D01*
X87825288Y-78615305D01*
X87826037Y-78614466D01*
X90663271Y-77222734D01*
X93684074Y-76200106D01*
X96811536Y-75575637D01*
X100006028Y-75359800D01*
X103227907Y-75576836D01*
X103227907Y-75576836D01*
G37*
X103227907Y-75576836D02*
X106381157Y-76209398D01*
X109425348Y-77246699D01*
X112283273Y-78659544D01*
X112284359Y-78660760D01*
X112341112Y-78688137D01*
X112368455Y-78701654D01*
X112369990Y-78702067D01*
X112400812Y-78716935D01*
X112431813Y-78718697D01*
X112461794Y-78726761D01*
X112495722Y-78722328D01*
X112529895Y-78724270D01*
X112559211Y-78714033D01*
X112589997Y-78710011D01*
X112619652Y-78692929D01*
X112651960Y-78681647D01*
X112675125Y-78660973D01*
X112702031Y-78645474D01*
X112722891Y-78618344D01*
X112724075Y-78617287D01*
X112742424Y-78592938D01*
X112746726Y-78587344D01*
X115633561Y-80539135D01*
X117466402Y-82202638D01*
X119757864Y-84820158D01*
X119741917Y-84841318D01*
X119710998Y-84873190D01*
X119691480Y-84922410D01*
X119668473Y-84970100D01*
X119667788Y-84982154D01*
X119663337Y-84993378D01*
X119664140Y-85046315D01*
X119661135Y-85099183D01*
X119665116Y-85110584D01*
X119665299Y-85122654D01*
X119686300Y-85171258D01*
X119703755Y-85221249D01*
X119733318Y-85254376D01*
X120862002Y-86889326D01*
X121854001Y-88607578D01*
X122702260Y-90394218D01*
X123403745Y-92240178D01*
X123955383Y-94136291D01*
X124354132Y-96073469D01*
X124596943Y-98042593D01*
X124680736Y-100033912D01*
X124593545Y-102055934D01*
X124342503Y-104054420D01*
X123930869Y-106019431D01*
X123361885Y-107941445D01*
X122638795Y-109810944D01*
X121764842Y-111618408D01*
X120743269Y-113354322D01*
X119580364Y-115004855D01*
X119549761Y-115039144D01*
X119532815Y-115087672D01*
X119511979Y-115134654D01*
X119511641Y-115148309D01*
X119507137Y-115161208D01*
X119510052Y-115212526D01*
X119508781Y-115263906D01*
X119513695Y-115276653D01*
X119514470Y-115290292D01*
X119536802Y-115336588D01*
X119555290Y-115384544D01*
X119566786Y-115396623D01*
X117716756Y-117566850D01*
X115024590Y-119870147D01*
X112506034Y-121558212D01*
X112490039Y-121537068D01*
X112462151Y-121520711D01*
X112438034Y-121499185D01*
X112406933Y-121488324D01*
X112378514Y-121471655D01*
X112346491Y-121467215D01*
X112315971Y-121456557D01*
X112283080Y-121458424D01*
X112250447Y-121453900D01*
X112219164Y-121462053D01*
X112186887Y-121463885D01*
X112157211Y-121478198D01*
X112156913Y-121478276D01*
X112128398Y-121492096D01*
X112070432Y-121520054D01*
X112070220Y-121520291D01*
X109257224Y-122883593D01*
X106264067Y-123885502D01*
X103167511Y-124497114D01*
X100005651Y-124708407D01*
X96867878Y-124505411D01*
X93793094Y-123908020D01*
X90818763Y-122925911D01*
X87963499Y-121559964D01*
X87905702Y-121532091D01*
X87872603Y-121530214D01*
X87840481Y-121522016D01*
X87808688Y-121526588D01*
X87776616Y-121524769D01*
X87745319Y-121535701D01*
X87712506Y-121540420D01*
X87684879Y-121556813D01*
X87654556Y-121567405D01*
X87629826Y-121589480D01*
X87601315Y-121606398D01*
X87599113Y-121609340D01*
X84945809Y-119870350D01*
X84627140Y-119585343D01*
X88125294Y-119585343D01*
X88262236Y-120096418D01*
X88295699Y-120221305D01*
X88374408Y-120323880D01*
X88486380Y-120388526D01*
X88614566Y-120405402D01*
X89250528Y-120234997D01*
X89307980Y-120135486D01*
X89070190Y-119248042D01*
X88182746Y-119485832D01*
X88125294Y-119585343D01*
X84627140Y-119585343D01*
X84061899Y-119079810D01*
X89698042Y-119079810D01*
X89935832Y-119967254D01*
X90035343Y-120024706D01*
X90671304Y-119854301D01*
X90773879Y-119775593D01*
X90838526Y-119663622D01*
X90855403Y-119535435D01*
X90821939Y-119410547D01*
X90684997Y-118899472D01*
X90585486Y-118842020D01*
X89698042Y-119079810D01*
X84061899Y-119079810D01*
X83038553Y-118164565D01*
X87744597Y-118164565D01*
X87778061Y-118289453D01*
X87915003Y-118800528D01*
X88014514Y-118857980D01*
X88901958Y-118620190D01*
X88664168Y-117732746D01*
X88564657Y-117675294D01*
X87928696Y-117845699D01*
X87826121Y-117924407D01*
X87761474Y-118036378D01*
X87744597Y-118164565D01*
X83038553Y-118164565D01*
X82113501Y-117337230D01*
X80507124Y-115491227D01*
X80513109Y-115484896D01*
X80531244Y-115437382D01*
X80553339Y-115391575D01*
X80554145Y-115377384D01*
X80559214Y-115364103D01*
X80557786Y-115313259D01*
X80560668Y-115262490D01*
X80555982Y-115249072D01*
X80555583Y-115234862D01*
X80534807Y-115188437D01*
X80518041Y-115140426D01*
X80487079Y-115105736D01*
X79309558Y-113446289D01*
X78275660Y-111700396D01*
X77391408Y-109881576D01*
X76660120Y-107999532D01*
X76085139Y-106064024D01*
X75669783Y-104084762D01*
X75417379Y-102071460D01*
X75331270Y-100034159D01*
X75416945Y-98029495D01*
X75663723Y-96047647D01*
X75924856Y-94789999D01*
X79350022Y-94789999D01*
X79375000Y-94915572D01*
X79374999Y-101474431D01*
X79350022Y-101599999D01*
X79374999Y-101725567D01*
X79374999Y-101725571D01*
X79448976Y-102097478D01*
X79730776Y-102519222D01*
X79837234Y-102590355D01*
X79969429Y-102722550D01*
X79977124Y-102784110D01*
X79977764Y-102788891D01*
X80227764Y-104538891D01*
X80236598Y-104579021D01*
X80986598Y-107079021D01*
X80998702Y-107111688D01*
X81998702Y-109361688D01*
X82014189Y-109391486D01*
X83514189Y-111891486D01*
X83535261Y-111921791D01*
X84535261Y-113171791D01*
X84555546Y-113194454D01*
X86055546Y-114694454D01*
X86071032Y-114708796D01*
X87821032Y-116208796D01*
X87840159Y-116223777D01*
X89515568Y-117420498D01*
X89349472Y-117465003D01*
X89292020Y-117564514D01*
X89529810Y-118451958D01*
X90417254Y-118214168D01*
X90474706Y-118114657D01*
X90403564Y-117849151D01*
X92386204Y-118750351D01*
X92403441Y-118757491D01*
X94403441Y-119507491D01*
X94440344Y-119518451D01*
X96690344Y-120018451D01*
X96722636Y-120023635D01*
X99222636Y-120273635D01*
X99250000Y-120275000D01*
X100500000Y-120275000D01*
X100522838Y-120274050D01*
X103365274Y-120037180D01*
X103439478Y-120216325D01*
X103798141Y-120574988D01*
X104266758Y-120769095D01*
X104773984Y-120769095D01*
X105242601Y-120574988D01*
X105601264Y-120216325D01*
X105795371Y-119747708D01*
X105795371Y-119441419D01*
X107086963Y-119010888D01*
X107111688Y-119001298D01*
X108119173Y-118553527D01*
X108372060Y-119497314D01*
X108420447Y-119595434D01*
X108502699Y-119667567D01*
X108606295Y-119702733D01*
X108715462Y-119695578D01*
X110647314Y-119177940D01*
X110745434Y-119129553D01*
X110817567Y-119047301D01*
X110852733Y-118943705D01*
X110845578Y-118834538D01*
X110442213Y-117329160D01*
X111395750Y-116733200D01*
X111409841Y-116723777D01*
X113159841Y-115473777D01*
X113194454Y-115444454D01*
X115194454Y-113444454D01*
X115220000Y-113415000D01*
X116720000Y-111415000D01*
X116733200Y-111395750D01*
X117609580Y-109993541D01*
X119812768Y-107790354D01*
X119919223Y-107719223D01*
X120201023Y-107297480D01*
X120275000Y-106925573D01*
X120275000Y-106925569D01*
X120299977Y-106800001D01*
X120275000Y-106674433D01*
X120275000Y-92375567D01*
X120299977Y-92249999D01*
X120275000Y-92124431D01*
X120275000Y-92124427D01*
X120201023Y-91752520D01*
X119919223Y-91330777D01*
X119812768Y-91259646D01*
X116140356Y-87587235D01*
X116069223Y-87480777D01*
X115962768Y-87409646D01*
X115675017Y-87121896D01*
X115473777Y-86840159D01*
X115444454Y-86805546D01*
X114194454Y-85555546D01*
X114178968Y-85541204D01*
X113814699Y-85228973D01*
X113809221Y-85220775D01*
X113790683Y-85208388D01*
X112428968Y-84041204D01*
X112421791Y-84035261D01*
X111171791Y-83035261D01*
X111136438Y-83011233D01*
X109386438Y-82011233D01*
X109358328Y-81997235D01*
X107608328Y-81247235D01*
X107596559Y-81242509D01*
X105596559Y-80492509D01*
X105553932Y-80480340D01*
X103053932Y-79980340D01*
X103038891Y-79977764D01*
X101288891Y-79727764D01*
X101250000Y-79725000D01*
X98750000Y-79725000D01*
X98719631Y-79726682D01*
X96469631Y-79976682D01*
X96427643Y-79984690D01*
X93677643Y-80734690D01*
X93644231Y-80746154D01*
X90644231Y-81996154D01*
X90608514Y-82014189D01*
X88108514Y-83514189D01*
X88073949Y-83538739D01*
X86573949Y-84788739D01*
X86555546Y-84805546D01*
X84555546Y-86805546D01*
X84530000Y-86835000D01*
X83030000Y-88835000D01*
X83007870Y-88869623D01*
X81257870Y-92119623D01*
X81237161Y-92169126D01*
X81134677Y-92502200D01*
X79837232Y-93799645D01*
X79730777Y-93870776D01*
X79659646Y-93977231D01*
X79659645Y-93977232D01*
X79448977Y-94292519D01*
X79350022Y-94789999D01*
X75924856Y-94789999D01*
X76068448Y-94098449D01*
X76627987Y-92191170D01*
X77339202Y-90335113D01*
X78198964Y-88539547D01*
X79204116Y-86813797D01*
X80347973Y-85172231D01*
X80378006Y-85138580D01*
X80395229Y-85089258D01*
X80416162Y-85041387D01*
X80416412Y-85028596D01*
X80420630Y-85016516D01*
X80417667Y-84964352D01*
X80418687Y-84912119D01*
X80414023Y-84900205D01*
X80413297Y-84887431D01*
X80390596Y-84840369D01*
X80371551Y-84791725D01*
X80340287Y-84759215D01*
X80327077Y-84741685D01*
X82642506Y-82113857D01*
X85454451Y-79760598D01*
X87361925Y-78540502D01*
X87366923Y-78547045D01*
X87385575Y-78571799D01*
X87386391Y-78572528D01*
X87406867Y-78599329D01*
X87434149Y-78615157D01*
X87457684Y-78636165D01*
X87489528Y-78647287D01*
X87518701Y-78664212D01*
X87549966Y-78668395D01*
X87579746Y-78678796D01*
X87613421Y-78676885D01*
X87646851Y-78681358D01*
X87677337Y-78673258D01*
X87708831Y-78671471D01*
X87739213Y-78656818D01*
X87740267Y-78656538D01*
X87767987Y-78642941D01*
X87825288Y-78615305D01*
X87826037Y-78614466D01*
X90663271Y-77222734D01*
X93684074Y-76200106D01*
X96811536Y-75575637D01*
X100006028Y-75359800D01*
X103227907Y-75576836D01*
G04 #@! TD*
M02*
