M48
;DRILL file {KiCad (5.0.1)} date Sat Feb  2 12:52:47 2019
;FORMAT={-:-/ absolute / inch / decimal}
FMAT,2
INCH,TZ
T1C0.0157
T2C0.0236
T3C0.0394
%
G90
G05
M72
T1
X3.5669Y-3.5669
X3.5702Y-3.7433
X3.5906Y-3.3661
X3.6299Y-3.4055
X3.6378Y-3.7913
X3.6378Y-3.8917
X3.6614Y-3.6614
X3.6772Y-3.7913
X3.6811Y-3.315
X3.7756Y-3.7756
X3.7874Y-4.6772
X3.8543Y-4.689
X3.8573Y-3.5374
X3.8583Y-3.4449
X3.937Y-3.2264
X3.9547Y-4.1289
X3.9803Y-4.3228
X3.9852Y-4.0197
X3.9941Y-4.063
X3.9961Y-3.6693
X3.9961Y-4.1299
X4.Y-3.3346
X4.Y-3.752
X4.2008Y-4.6339
X4.248Y-4.2402
X4.2992Y-4.3071
X4.3031Y-3.4055
X4.3031Y-3.563
X4.4724Y-4.2717
X4.6063Y-4.0315
X4.6181Y-3.9783
T2
X3.3426Y-4.0023
X3.378Y-4.3996
X3.7323Y-3.2559
X3.8937Y-3.7756
X3.8976Y-3.2559
X3.9055Y-4.1102
X3.9272Y-4.0157
X3.9685Y-3.8563
X3.9903Y-3.9567
X4.0866Y-3.2776
X4.1437Y-3.6378
X4.2028Y-3.9134
X4.2598Y-4.1535
T3
X3.0512Y-3.9567
X3.0885Y-3.682
X3.1006Y-4.2295
X3.2088Y-3.4323
X3.2319Y-4.4736
X3.377Y-3.6526
X3.378Y-4.3996
X3.4004Y-3.2319
X3.4323Y-4.6652
X3.4626Y-3.3933
X3.6446Y-3.1006
X3.6494Y-4.2246
X3.682Y-4.7856
X3.7205Y-3.4409
X3.7323Y-4.437
X3.7953Y-4.311
X3.811Y-4.122
X3.8248Y-4.3976
X3.9173Y-3.0512
X3.9567Y-4.8228
X4.0551Y-4.3228
X4.1831Y-3.3268
X4.192Y-3.0885
X4.2295Y-4.7734
X4.3996Y-3.3913
X4.4094Y-3.9488
X4.4418Y-3.2088
X4.4736Y-4.6421
X4.5197Y-3.6102
X4.5236Y-4.2402
X4.6421Y-3.4004
X4.6652Y-4.4418
X4.7734Y-3.6446
X4.7856Y-4.192
X4.8228Y-3.9173
X3.5157Y-4.6791
X3.7059Y-4.6282
X4.115Y-4.7045
X4.3051Y-4.6535
X3.2728Y-3.8091
X3.3728Y-3.8091
X3.4728Y-3.8091
X3.5728Y-3.8091
T0
M30
