G04 #@! TF.GenerationSoftware,KiCad,Pcbnew,(5.0.1)*
G04 #@! TF.CreationDate,2019-02-02T12:52:51+09:00*
G04 #@! TF.ProjectId,center,63656E7465722E6B696361645F706362,rev?*
G04 #@! TF.SameCoordinates,Original*
G04 #@! TF.FileFunction,Legend,Bot*
G04 #@! TF.FilePolarity,Positive*
%FSLAX46Y46*%
G04 Gerber Fmt 4.6, Leading zero omitted, Abs format (unit mm)*
G04 Created by KiCad (PCBNEW (5.0.1)) date Sat Feb  2 12:52:51 2019*
%MOMM*%
%LPD*%
G01*
G04 APERTURE LIST*
%ADD10C,0.600000*%
%ADD11C,0.500000*%
G04 APERTURE END LIST*
D10*
X104578571Y-79377142D02*
X104578571Y-77091428D01*
X105150000Y-77662857D02*
X104578571Y-77091428D01*
X104007142Y-77662857D01*
X102007142Y-76377142D02*
X102007142Y-78805714D01*
X101864285Y-79091428D01*
X101721428Y-79234285D01*
X101435714Y-79377142D01*
X100864285Y-79377142D01*
X100578571Y-79234285D01*
X100435714Y-79091428D01*
X100292857Y-78805714D01*
X100292857Y-76377142D01*
X98864285Y-79377142D02*
X98864285Y-76377142D01*
X97721428Y-76377142D01*
X97435714Y-76520000D01*
X97292857Y-76662857D01*
X97150000Y-76948571D01*
X97150000Y-77377142D01*
X97292857Y-77662857D01*
X97435714Y-77805714D01*
X97721428Y-77948571D01*
X98864285Y-77948571D01*
X94721428Y-79377142D02*
X94721428Y-77091428D01*
X95292857Y-77662857D02*
X94721428Y-77091428D01*
X94150000Y-77662857D01*
D11*
G04 #@! TO.C,J1*
X108600683Y-90699093D02*
X109399317Y-91300907D01*
X125434473Y-75837279D02*
X112194542Y-93407260D01*
X105805458Y-88592740D02*
X119045388Y-71022759D01*
X114832683Y-76613207D02*
X121221767Y-81427727D01*
X121221767Y-81427727D02*
X113027238Y-79009115D01*
X113027238Y-79009115D02*
X119416322Y-83823635D01*
X120619952Y-82226363D02*
X115023827Y-80513651D01*
X117020416Y-82018189D02*
X120018137Y-83024998D01*
X114230868Y-77411843D02*
X116829272Y-78117745D01*
X113629053Y-78210478D02*
X118825861Y-79622282D01*
G04 #@! TO.C,J2*
X79981863Y-83024998D02*
X82771410Y-78418652D01*
X79380048Y-82226363D02*
X80774821Y-79923190D01*
X84576855Y-80814559D02*
X86370947Y-78210478D01*
X85769132Y-77411843D02*
X82580266Y-82319096D01*
X80583678Y-83823635D02*
X86972762Y-79009115D01*
X85167317Y-76613207D02*
X80583678Y-83823635D01*
X78778233Y-81427727D02*
X85167317Y-76613207D01*
X87805458Y-93407260D02*
X74565527Y-75837279D01*
X80954612Y-71022759D02*
X94194542Y-88592740D01*
X90600683Y-91300907D02*
X91399317Y-90699093D01*
G04 #@! TO.C,J3*
X91399317Y-109300907D02*
X90600683Y-108699093D01*
X74565527Y-124162721D02*
X87805458Y-106592740D01*
X94194542Y-111407260D02*
X80954612Y-128977241D01*
X85167317Y-123386793D02*
X78778233Y-118572273D01*
X78778233Y-118572273D02*
X86972762Y-120990885D01*
X86972762Y-120990885D02*
X80583678Y-116176365D01*
X79380048Y-117773637D02*
X84976173Y-119486349D01*
X82979584Y-117981811D02*
X79981863Y-116975002D01*
X85769132Y-122588157D02*
X83170728Y-121882255D01*
X86370947Y-121789522D02*
X81174139Y-120377718D01*
G04 #@! TO.C,J4*
X109399317Y-108699093D02*
X108600683Y-109300907D01*
X119045388Y-128977241D02*
X105805458Y-111407260D01*
X112194542Y-106592740D02*
X125434473Y-124162721D01*
X121221767Y-118572273D02*
X114832683Y-123386793D01*
X114832683Y-123386793D02*
X119416322Y-116176365D01*
X119416322Y-116176365D02*
X113027238Y-120990885D01*
X114230868Y-122588157D02*
X117419734Y-117680904D01*
X115423145Y-119185441D02*
X113629053Y-121789522D01*
X120619952Y-117773637D02*
X119225179Y-120076810D01*
X120018137Y-116975002D02*
X117228590Y-121581348D01*
G04 #@! TD*
M02*
