G04 #@! TF.GenerationSoftware,KiCad,Pcbnew,(5.0.1)*
G04 #@! TF.CreationDate,2018-11-27T10:01:39+09:00*
G04 #@! TF.ProjectId,center,63656E7465722E6B696361645F706362,rev?*
G04 #@! TF.SameCoordinates,Original*
G04 #@! TF.FileFunction,Paste,Top*
G04 #@! TF.FilePolarity,Positive*
%FSLAX46Y46*%
G04 Gerber Fmt 4.6, Leading zero omitted, Abs format (unit mm)*
G04 Created by KiCad (PCBNEW (5.0.1)) date Tue Nov 27 10:01:39 2018*
%MOMM*%
%LPD*%
G01*
G04 APERTURE LIST*
%ADD10R,0.800000X0.900000*%
%ADD11R,1.200000X0.750000*%
%ADD12R,0.750000X1.200000*%
%ADD13R,1.250000X1.000000*%
%ADD14R,1.000000X1.250000*%
%ADD15R,3.500000X2.300000*%
%ADD16R,0.900000X1.200000*%
%ADD17R,1.200000X0.900000*%
%ADD18R,1.200000X1.400000*%
%ADD19R,0.900000X0.800000*%
%ADD20R,3.800000X2.000000*%
%ADD21R,1.500000X2.000000*%
%ADD22R,1.450000X0.450000*%
%ADD23R,1.700000X3.300000*%
%ADD24R,3.300000X1.700000*%
%ADD25R,3.200000X2.700000*%
G04 APERTURE END LIST*
D10*
G04 #@! TO.C,Q3*
X118150000Y-103300000D03*
X120050000Y-103300000D03*
X119100000Y-101300000D03*
G04 #@! TD*
D11*
G04 #@! TO.C,C2*
X101350000Y-119200000D03*
X99450000Y-119200000D03*
G04 #@! TD*
G04 #@! TO.C,C3*
X101800000Y-116750000D03*
X103700000Y-116750000D03*
G04 #@! TD*
G04 #@! TO.C,C5*
X97500000Y-116500000D03*
X99400000Y-116500000D03*
G04 #@! TD*
D12*
G04 #@! TO.C,C6*
X105500000Y-101250000D03*
X105500000Y-99350000D03*
G04 #@! TD*
D11*
G04 #@! TO.C,C7*
X111050000Y-96750000D03*
X112950000Y-96750000D03*
G04 #@! TD*
D12*
G04 #@! TO.C,C8*
X99000000Y-86200000D03*
X99000000Y-84300000D03*
G04 #@! TD*
G04 #@! TO.C,C9*
X102500000Y-92300000D03*
X102500000Y-94200000D03*
G04 #@! TD*
G04 #@! TO.C,C10*
X96750000Y-94250000D03*
X96750000Y-92350000D03*
G04 #@! TD*
D13*
G04 #@! TO.C,C11*
X84600000Y-108000000D03*
X84600000Y-106000000D03*
G04 #@! TD*
D14*
G04 #@! TO.C,C12*
X118100000Y-105750000D03*
X120100000Y-105750000D03*
G04 #@! TD*
D13*
G04 #@! TO.C,C13*
X113000000Y-109750000D03*
X113000000Y-111750000D03*
G04 #@! TD*
D15*
G04 #@! TO.C,D1*
X114700000Y-83750000D03*
X109300000Y-83750000D03*
G04 #@! TD*
G04 #@! TO.C,D2*
X85478544Y-83662480D03*
X90878544Y-83662480D03*
G04 #@! TD*
G04 #@! TO.C,D3*
X109300000Y-88750000D03*
X114700000Y-88750000D03*
G04 #@! TD*
G04 #@! TO.C,D4*
X90878544Y-88662480D03*
X85478544Y-88662480D03*
G04 #@! TD*
D16*
G04 #@! TO.C,R1*
X105950000Y-88500000D03*
X105950000Y-86300000D03*
G04 #@! TD*
D17*
G04 #@! TO.C,R2*
X106600000Y-107500000D03*
X104400000Y-107500000D03*
G04 #@! TD*
D16*
G04 #@! TO.C,R3*
X103950000Y-88500000D03*
X103950000Y-86300000D03*
G04 #@! TD*
D17*
G04 #@! TO.C,R4*
X106600000Y-105500000D03*
X104400000Y-105500000D03*
G04 #@! TD*
D16*
G04 #@! TO.C,R5*
X94000000Y-98400000D03*
X94000000Y-100600000D03*
G04 #@! TD*
D17*
G04 #@! TO.C,R6*
X96650000Y-88500000D03*
X98850000Y-88500000D03*
G04 #@! TD*
D16*
G04 #@! TO.C,R7*
X115600000Y-96900000D03*
X115600000Y-99100000D03*
G04 #@! TD*
G04 #@! TO.C,R8*
X94500000Y-92150000D03*
X94500000Y-94350000D03*
G04 #@! TD*
D17*
G04 #@! TO.C,R9*
X113100000Y-98750000D03*
X110900000Y-98750000D03*
G04 #@! TD*
D16*
G04 #@! TO.C,R11*
X115700000Y-101300000D03*
X115700000Y-103500000D03*
G04 #@! TD*
G04 #@! TO.C,R12*
X110500000Y-109650000D03*
X110500000Y-111850000D03*
G04 #@! TD*
D17*
G04 #@! TO.C,R13*
X83600000Y-110100000D03*
X85800000Y-110100000D03*
G04 #@! TD*
D16*
G04 #@! TO.C,R14*
X82200000Y-105900000D03*
X82200000Y-108100000D03*
G04 #@! TD*
D18*
G04 #@! TO.C,Y1*
X100350000Y-94350000D03*
X100350000Y-92150000D03*
X98650000Y-92150000D03*
X98650000Y-94350000D03*
G04 #@! TD*
D10*
G04 #@! TO.C,Q1*
X96700000Y-84250000D03*
X94800000Y-84250000D03*
X95750000Y-86250000D03*
G04 #@! TD*
G04 #@! TO.C,Q2*
X112000000Y-92500000D03*
X112950000Y-94500000D03*
X111050000Y-94500000D03*
G04 #@! TD*
D19*
G04 #@! TO.C,Q4*
X105750000Y-110750000D03*
X107750000Y-109800000D03*
X107750000Y-111700000D03*
G04 #@! TD*
G04 #@! TO.C,Q5*
X87000000Y-106050000D03*
X87000000Y-107950000D03*
X89000000Y-107000000D03*
G04 #@! TD*
D20*
G04 #@! TO.C,U1*
X99450000Y-107700000D03*
D21*
X99450000Y-114000000D03*
X101750000Y-114000000D03*
X97150000Y-114000000D03*
G04 #@! TD*
D22*
G04 #@! TO.C,U2*
X97050000Y-97075000D03*
X97050000Y-97725000D03*
X97050000Y-98375000D03*
X97050000Y-99025000D03*
X97050000Y-99675000D03*
X97050000Y-100325000D03*
X97050000Y-100975000D03*
X97050000Y-101625000D03*
X97050000Y-102275000D03*
X97050000Y-102925000D03*
X102950000Y-102925000D03*
X102950000Y-102275000D03*
X102950000Y-101625000D03*
X102950000Y-100975000D03*
X102950000Y-100325000D03*
X102950000Y-99675000D03*
X102950000Y-99025000D03*
X102950000Y-98375000D03*
X102950000Y-97725000D03*
X102950000Y-97075000D03*
G04 #@! TD*
D23*
G04 #@! TO.C,D5*
X101600000Y-87450000D03*
X101600000Y-81950000D03*
G04 #@! TD*
D24*
G04 #@! TO.C,D6*
X82850000Y-100000000D03*
X88350000Y-100000000D03*
G04 #@! TD*
D23*
G04 #@! TO.C,D7*
X108500000Y-93000000D03*
X108500000Y-98500000D03*
G04 #@! TD*
D24*
G04 #@! TO.C,D8*
X88350000Y-103200000D03*
X82850000Y-103200000D03*
G04 #@! TD*
D25*
G04 #@! TO.C,R10*
X119100000Y-90050000D03*
X119100000Y-97950000D03*
G04 #@! TD*
M02*
