G04 #@! TF.GenerationSoftware,KiCad,Pcbnew,(5.0.1)*
G04 #@! TF.CreationDate,2019-02-02T12:52:51+09:00*
G04 #@! TF.ProjectId,center,63656E7465722E6B696361645F706362,rev?*
G04 #@! TF.SameCoordinates,Original*
G04 #@! TF.FileFunction,Copper,L1,Top,Signal*
G04 #@! TF.FilePolarity,Positive*
%FSLAX46Y46*%
G04 Gerber Fmt 4.6, Leading zero omitted, Abs format (unit mm)*
G04 Created by KiCad (PCBNEW (5.0.1)) date Sat Feb  2 12:52:51 2019*
%MOMM*%
%LPD*%
G01*
G04 APERTURE LIST*
G04 #@! TA.AperFunction,SMDPad,CuDef*
%ADD10R,0.800000X0.900000*%
G04 #@! TD*
G04 #@! TA.AperFunction,SMDPad,CuDef*
%ADD11R,1.200000X0.750000*%
G04 #@! TD*
G04 #@! TA.AperFunction,SMDPad,CuDef*
%ADD12R,0.750000X1.200000*%
G04 #@! TD*
G04 #@! TA.AperFunction,SMDPad,CuDef*
%ADD13R,1.250000X1.000000*%
G04 #@! TD*
G04 #@! TA.AperFunction,SMDPad,CuDef*
%ADD14R,3.500000X2.300000*%
G04 #@! TD*
G04 #@! TA.AperFunction,ComponentPad*
%ADD15R,1.700000X1.700000*%
G04 #@! TD*
G04 #@! TA.AperFunction,ComponentPad*
%ADD16O,1.700000X1.700000*%
G04 #@! TD*
G04 #@! TA.AperFunction,SMDPad,CuDef*
%ADD17R,0.900000X1.200000*%
G04 #@! TD*
G04 #@! TA.AperFunction,SMDPad,CuDef*
%ADD18R,1.200000X0.900000*%
G04 #@! TD*
G04 #@! TA.AperFunction,SMDPad,CuDef*
%ADD19R,1.500000X1.500000*%
G04 #@! TD*
G04 #@! TA.AperFunction,SMDPad,CuDef*
%ADD20R,1.200000X1.400000*%
G04 #@! TD*
G04 #@! TA.AperFunction,SMDPad,CuDef*
%ADD21R,0.900000X0.800000*%
G04 #@! TD*
G04 #@! TA.AperFunction,SMDPad,CuDef*
%ADD22R,3.800000X2.000000*%
G04 #@! TD*
G04 #@! TA.AperFunction,SMDPad,CuDef*
%ADD23R,1.500000X2.000000*%
G04 #@! TD*
G04 #@! TA.AperFunction,SMDPad,CuDef*
%ADD24R,1.450000X0.450000*%
G04 #@! TD*
G04 #@! TA.AperFunction,SMDPad,CuDef*
%ADD25R,1.700000X3.300000*%
G04 #@! TD*
G04 #@! TA.AperFunction,SMDPad,CuDef*
%ADD26R,3.300000X1.700000*%
G04 #@! TD*
G04 #@! TA.AperFunction,SMDPad,CuDef*
%ADD27R,3.200000X2.700000*%
G04 #@! TD*
G04 #@! TA.AperFunction,ComponentPad*
%ADD28C,2.000000*%
G04 #@! TD*
G04 #@! TA.AperFunction,Conductor*
%ADD29C,0.100000*%
G04 #@! TD*
G04 #@! TA.AperFunction,ViaPad*
%ADD30C,1.200000*%
G04 #@! TD*
G04 #@! TA.AperFunction,ViaPad*
%ADD31C,2.000000*%
G04 #@! TD*
G04 #@! TA.AperFunction,ViaPad*
%ADD32C,0.800000*%
G04 #@! TD*
G04 #@! TA.AperFunction,Conductor*
%ADD33C,1.200000*%
G04 #@! TD*
G04 #@! TA.AperFunction,Conductor*
%ADD34C,2.000000*%
G04 #@! TD*
G04 #@! TA.AperFunction,Conductor*
%ADD35C,0.300000*%
G04 #@! TD*
G04 #@! TA.AperFunction,Conductor*
%ADD36C,0.200000*%
G04 #@! TD*
G04 #@! TA.AperFunction,Conductor*
%ADD37C,0.500000*%
G04 #@! TD*
G04 #@! TA.AperFunction,Conductor*
%ADD38C,0.250000*%
G04 #@! TD*
G04 #@! TA.AperFunction,Conductor*
%ADD39C,0.800000*%
G04 #@! TD*
G04 #@! TA.AperFunction,Conductor*
%ADD40C,0.150000*%
G04 #@! TD*
G04 APERTURE END LIST*
D10*
G04 #@! TO.P,Q3,1*
G04 #@! TO.N,Net-(C12-Pad1)*
X118150000Y-103300000D03*
G04 #@! TO.P,Q3,2*
G04 #@! TO.N,GND*
X120050000Y-103300000D03*
G04 #@! TO.P,Q3,3*
G04 #@! TO.N,Net-(Q3-Pad3)*
X119100000Y-101300000D03*
G04 #@! TD*
D11*
G04 #@! TO.P,C2,1*
G04 #@! TO.N,+12V*
X101350000Y-119200000D03*
G04 #@! TO.P,C2,2*
G04 #@! TO.N,GND*
X99450000Y-119200000D03*
G04 #@! TD*
G04 #@! TO.P,C3,1*
G04 #@! TO.N,+12V*
X101800000Y-116750000D03*
G04 #@! TO.P,C3,2*
G04 #@! TO.N,GND*
X103700000Y-116750000D03*
G04 #@! TD*
G04 #@! TO.P,C5,2*
G04 #@! TO.N,GND*
X97500000Y-116500000D03*
G04 #@! TO.P,C5,1*
G04 #@! TO.N,+3V3*
X99400000Y-116500000D03*
G04 #@! TD*
D12*
G04 #@! TO.P,C6,2*
G04 #@! TO.N,GND*
X105500000Y-101250000D03*
G04 #@! TO.P,C6,1*
G04 #@! TO.N,+3V3*
X105500000Y-99350000D03*
G04 #@! TD*
D11*
G04 #@! TO.P,C7,2*
G04 #@! TO.N,Net-(C7-Pad2)*
X111050000Y-96750000D03*
G04 #@! TO.P,C7,1*
G04 #@! TO.N,+12V*
X112950000Y-96750000D03*
G04 #@! TD*
D12*
G04 #@! TO.P,C8,1*
G04 #@! TO.N,Net-(C8-Pad1)*
X99000000Y-86200000D03*
G04 #@! TO.P,C8,2*
G04 #@! TO.N,GND*
X99000000Y-84300000D03*
G04 #@! TD*
G04 #@! TO.P,C9,2*
G04 #@! TO.N,GND*
X102500000Y-92300000D03*
G04 #@! TO.P,C9,1*
G04 #@! TO.N,Net-(C9-Pad1)*
X102500000Y-94200000D03*
G04 #@! TD*
G04 #@! TO.P,C10,1*
G04 #@! TO.N,Net-(C10-Pad1)*
X96750000Y-94250000D03*
G04 #@! TO.P,C10,2*
G04 #@! TO.N,GND*
X96750000Y-92350000D03*
G04 #@! TD*
D13*
G04 #@! TO.P,C11,1*
G04 #@! TO.N,+12V*
X84600000Y-108000000D03*
G04 #@! TO.P,C11,2*
G04 #@! TO.N,Net-(C11-Pad2)*
X84600000Y-106000000D03*
G04 #@! TD*
G04 #@! TO.P,C12,1*
G04 #@! TO.N,Net-(C12-Pad1)*
X114000000Y-103200000D03*
G04 #@! TO.P,C12,2*
G04 #@! TO.N,GND*
X114000000Y-105200000D03*
G04 #@! TD*
G04 #@! TO.P,C13,2*
G04 #@! TO.N,GND*
X113000000Y-109750000D03*
G04 #@! TO.P,C13,1*
G04 #@! TO.N,Net-(C13-Pad1)*
X113000000Y-111750000D03*
G04 #@! TD*
D14*
G04 #@! TO.P,D1,1*
G04 #@! TO.N,+12V*
X114700000Y-83750000D03*
G04 #@! TO.P,D1,2*
G04 #@! TO.N,Net-(D1-Pad2)*
X109300000Y-83750000D03*
G04 #@! TD*
G04 #@! TO.P,D2,1*
G04 #@! TO.N,+12V*
X85478544Y-83662480D03*
G04 #@! TO.P,D2,2*
G04 #@! TO.N,Net-(D2-Pad2)*
X90878544Y-83662480D03*
G04 #@! TD*
G04 #@! TO.P,D3,2*
G04 #@! TO.N,GND*
X109300000Y-88750000D03*
G04 #@! TO.P,D3,1*
G04 #@! TO.N,Net-(D1-Pad2)*
X114700000Y-88750000D03*
G04 #@! TD*
G04 #@! TO.P,D4,2*
G04 #@! TO.N,GND*
X90878544Y-88662480D03*
G04 #@! TO.P,D4,1*
G04 #@! TO.N,Net-(D2-Pad2)*
X85478544Y-88662480D03*
G04 #@! TD*
D15*
G04 #@! TO.P,J5,1*
G04 #@! TO.N,+3V3*
X90750000Y-96750000D03*
D16*
G04 #@! TO.P,J5,2*
G04 #@! TO.N,/SWCLK*
X88210000Y-96750000D03*
G04 #@! TO.P,J5,3*
G04 #@! TO.N,GND*
X85670001Y-96750000D03*
G04 #@! TO.P,J5,4*
G04 #@! TO.N,/SWDIO*
X83130000Y-96750000D03*
G04 #@! TD*
D17*
G04 #@! TO.P,R1,2*
G04 #@! TO.N,/Vmeas_A*
X105950000Y-88500000D03*
G04 #@! TO.P,R1,1*
G04 #@! TO.N,Net-(D1-Pad2)*
X105950000Y-86300000D03*
G04 #@! TD*
D18*
G04 #@! TO.P,R2,1*
G04 #@! TO.N,Net-(D2-Pad2)*
X106600000Y-107500000D03*
G04 #@! TO.P,R2,2*
G04 #@! TO.N,/Vmeas_B*
X104400000Y-107500000D03*
G04 #@! TD*
D17*
G04 #@! TO.P,R3,1*
G04 #@! TO.N,/Vmeas_A*
X103950000Y-88500000D03*
G04 #@! TO.P,R3,2*
G04 #@! TO.N,GND*
X103950000Y-86300000D03*
G04 #@! TD*
D18*
G04 #@! TO.P,R4,2*
G04 #@! TO.N,GND*
X106600000Y-105500000D03*
G04 #@! TO.P,R4,1*
G04 #@! TO.N,/Vmeas_B*
X104400000Y-105500000D03*
G04 #@! TD*
D17*
G04 #@! TO.P,R5,1*
G04 #@! TO.N,Net-(R5-Pad1)*
X94000000Y-98400000D03*
G04 #@! TO.P,R5,2*
G04 #@! TO.N,+3V3*
X94000000Y-100600000D03*
G04 #@! TD*
D18*
G04 #@! TO.P,R6,1*
G04 #@! TO.N,Net-(C8-Pad1)*
X96650000Y-88500000D03*
G04 #@! TO.P,R6,2*
G04 #@! TO.N,/CH0*
X98850000Y-88500000D03*
G04 #@! TD*
D17*
G04 #@! TO.P,R7,2*
G04 #@! TO.N,+12V*
X115600000Y-96900000D03*
G04 #@! TO.P,R7,1*
G04 #@! TO.N,Net-(C7-Pad2)*
X115600000Y-99100000D03*
G04 #@! TD*
G04 #@! TO.P,R8,2*
G04 #@! TO.N,GND*
X94500000Y-92150000D03*
G04 #@! TO.P,R8,1*
G04 #@! TO.N,Net-(R8-Pad1)*
X94500000Y-94350000D03*
G04 #@! TD*
D18*
G04 #@! TO.P,R9,1*
G04 #@! TO.N,Net-(C7-Pad2)*
X113100000Y-98750000D03*
G04 #@! TO.P,R9,2*
G04 #@! TO.N,Net-(D7-Pad1)*
X110900000Y-98750000D03*
G04 #@! TD*
D17*
G04 #@! TO.P,R11,2*
G04 #@! TO.N,/LOAD*
X115700000Y-101300000D03*
G04 #@! TO.P,R11,1*
G04 #@! TO.N,Net-(C12-Pad1)*
X115700000Y-103500000D03*
G04 #@! TD*
G04 #@! TO.P,R12,2*
G04 #@! TO.N,/CH1*
X110500000Y-109650000D03*
G04 #@! TO.P,R12,1*
G04 #@! TO.N,Net-(C13-Pad1)*
X110500000Y-111850000D03*
G04 #@! TD*
D18*
G04 #@! TO.P,R13,1*
G04 #@! TO.N,Net-(C11-Pad2)*
X83600000Y-110100000D03*
G04 #@! TO.P,R13,2*
G04 #@! TO.N,+12V*
X85800000Y-110100000D03*
G04 #@! TD*
D17*
G04 #@! TO.P,R14,2*
G04 #@! TO.N,Net-(D8-Pad1)*
X82200000Y-105900000D03*
G04 #@! TO.P,R14,1*
G04 #@! TO.N,Net-(C11-Pad2)*
X82200000Y-108100000D03*
G04 #@! TD*
D19*
G04 #@! TO.P,TP1,1*
G04 #@! TO.N,Net-(TP1-Pad1)*
X110100000Y-101600000D03*
G04 #@! TD*
G04 #@! TO.P,TP2,1*
G04 #@! TO.N,Net-(TP2-Pad1)*
X105900000Y-96700000D03*
G04 #@! TD*
G04 #@! TO.P,TP3,1*
G04 #@! TO.N,Net-(TP3-Pad1)*
X105900000Y-94200000D03*
G04 #@! TD*
G04 #@! TO.P,TP4,1*
G04 #@! TO.N,Net-(TP4-Pad1)*
X107400000Y-101600000D03*
G04 #@! TD*
D20*
G04 #@! TO.P,Y1,1*
G04 #@! TO.N,Net-(C9-Pad1)*
X100350000Y-94350000D03*
G04 #@! TO.P,Y1,2*
G04 #@! TO.N,GND*
X100350000Y-92150000D03*
G04 #@! TO.P,Y1,3*
G04 #@! TO.N,Net-(C10-Pad1)*
X98650000Y-92150000D03*
G04 #@! TO.P,Y1,4*
G04 #@! TO.N,GND*
X98650000Y-94350000D03*
G04 #@! TD*
D10*
G04 #@! TO.P,Q1,1*
G04 #@! TO.N,Net-(C8-Pad1)*
X96700000Y-84250000D03*
G04 #@! TO.P,Q1,2*
G04 #@! TO.N,GND*
X94800000Y-84250000D03*
G04 #@! TO.P,Q1,3*
G04 #@! TO.N,/Q0*
X95750000Y-86250000D03*
G04 #@! TD*
G04 #@! TO.P,Q2,3*
G04 #@! TO.N,/Q2*
X112000000Y-92500000D03*
G04 #@! TO.P,Q2,2*
G04 #@! TO.N,+12V*
X112950000Y-94500000D03*
G04 #@! TO.P,Q2,1*
G04 #@! TO.N,Net-(C7-Pad2)*
X111050000Y-94500000D03*
G04 #@! TD*
D21*
G04 #@! TO.P,Q4,3*
G04 #@! TO.N,/Q1*
X105750000Y-110750000D03*
G04 #@! TO.P,Q4,2*
G04 #@! TO.N,GND*
X107750000Y-109800000D03*
G04 #@! TO.P,Q4,1*
G04 #@! TO.N,Net-(C13-Pad1)*
X107750000Y-111700000D03*
G04 #@! TD*
G04 #@! TO.P,Q5,1*
G04 #@! TO.N,Net-(C11-Pad2)*
X87000000Y-106050000D03*
G04 #@! TO.P,Q5,2*
G04 #@! TO.N,+12V*
X87000000Y-107950000D03*
G04 #@! TO.P,Q5,3*
G04 #@! TO.N,/Q3*
X89000000Y-107000000D03*
G04 #@! TD*
D22*
G04 #@! TO.P,U1,2*
G04 #@! TO.N,+3V3*
X99450000Y-107700000D03*
D23*
X99450000Y-114000000D03*
G04 #@! TO.P,U1,3*
G04 #@! TO.N,+12V*
X101750000Y-114000000D03*
G04 #@! TO.P,U1,1*
G04 #@! TO.N,GND*
X97150000Y-114000000D03*
G04 #@! TD*
D24*
G04 #@! TO.P,U2,1*
G04 #@! TO.N,Net-(R8-Pad1)*
X97050000Y-97075000D03*
G04 #@! TO.P,U2,2*
G04 #@! TO.N,Net-(C10-Pad1)*
X97050000Y-97725000D03*
G04 #@! TO.P,U2,3*
G04 #@! TO.N,Net-(C9-Pad1)*
X97050000Y-98375000D03*
G04 #@! TO.P,U2,4*
G04 #@! TO.N,Net-(R5-Pad1)*
X97050000Y-99025000D03*
G04 #@! TO.P,U2,5*
G04 #@! TO.N,+3V3*
X97050000Y-99675000D03*
G04 #@! TO.P,U2,6*
G04 #@! TO.N,/Vmeas_A*
X97050000Y-100325000D03*
G04 #@! TO.P,U2,7*
G04 #@! TO.N,/Vmeas_B*
X97050000Y-100975000D03*
G04 #@! TO.P,U2,8*
G04 #@! TO.N,/LOAD*
X97050000Y-101625000D03*
G04 #@! TO.P,U2,9*
G04 #@! TO.N,/CH0*
X97050000Y-102275000D03*
G04 #@! TO.P,U2,10*
G04 #@! TO.N,/CH3*
X97050000Y-102925000D03*
G04 #@! TO.P,U2,11*
G04 #@! TO.N,Net-(TP1-Pad1)*
X102950000Y-102925000D03*
G04 #@! TO.P,U2,12*
G04 #@! TO.N,/CH2*
X102950000Y-102275000D03*
G04 #@! TO.P,U2,13*
G04 #@! TO.N,/CH1*
X102950000Y-101625000D03*
G04 #@! TO.P,U2,14*
G04 #@! TO.N,Net-(TP4-Pad1)*
X102950000Y-100975000D03*
G04 #@! TO.P,U2,15*
G04 #@! TO.N,GND*
X102950000Y-100325000D03*
G04 #@! TO.P,U2,16*
G04 #@! TO.N,+3V3*
X102950000Y-99675000D03*
G04 #@! TO.P,U2,17*
G04 #@! TO.N,Net-(TP2-Pad1)*
X102950000Y-99025000D03*
G04 #@! TO.P,U2,18*
G04 #@! TO.N,Net-(TP3-Pad1)*
X102950000Y-98375000D03*
G04 #@! TO.P,U2,19*
G04 #@! TO.N,/SWDIO*
X102950000Y-97725000D03*
G04 #@! TO.P,U2,20*
G04 #@! TO.N,/SWCLK*
X102950000Y-97075000D03*
G04 #@! TD*
D25*
G04 #@! TO.P,D5,1*
G04 #@! TO.N,/Vmeas_A*
X101600000Y-87450000D03*
G04 #@! TO.P,D5,2*
G04 #@! TO.N,GND*
X101600000Y-81950000D03*
G04 #@! TD*
D26*
G04 #@! TO.P,D6,2*
G04 #@! TO.N,GND*
X82850000Y-100000000D03*
G04 #@! TO.P,D6,1*
G04 #@! TO.N,/Vmeas_B*
X88350000Y-100000000D03*
G04 #@! TD*
D25*
G04 #@! TO.P,D7,1*
G04 #@! TO.N,Net-(D7-Pad1)*
X108500000Y-93000000D03*
G04 #@! TO.P,D7,2*
G04 #@! TO.N,/CH2*
X108500000Y-98500000D03*
G04 #@! TD*
D26*
G04 #@! TO.P,D8,2*
G04 #@! TO.N,/CH3*
X88350000Y-103200000D03*
G04 #@! TO.P,D8,1*
G04 #@! TO.N,Net-(D8-Pad1)*
X82850000Y-103200000D03*
G04 #@! TD*
D27*
G04 #@! TO.P,R10,1*
G04 #@! TO.N,+12V*
X119100000Y-90050000D03*
G04 #@! TO.P,R10,2*
G04 #@! TO.N,Net-(Q3-Pad3)*
X119100000Y-97950000D03*
G04 #@! TD*
D28*
G04 #@! TO.P,C1,1*
G04 #@! TO.N,+12V*
X89300000Y-118850000D03*
D29*
G04 #@! TD*
G04 #@! TO.N,+12V*
G04 #@! TO.C,C1*
G36*
X88592893Y-120074745D02*
X88075255Y-118142893D01*
X90007107Y-117625255D01*
X90524745Y-119557107D01*
X88592893Y-120074745D01*
X88592893Y-120074745D01*
G37*
D28*
G04 #@! TO.P,C1,2*
G04 #@! TO.N,GND*
X94129629Y-117555905D03*
G04 #@! TD*
G04 #@! TO.P,C4,2*
G04 #@! TO.N,GND*
X104520371Y-119494095D03*
G04 #@! TO.P,C4,1*
G04 #@! TO.N,+3V3*
X109350000Y-118200000D03*
D29*
G04 #@! TD*
G04 #@! TO.N,+3V3*
G04 #@! TO.C,C4*
G36*
X110057107Y-116975255D02*
X110574745Y-118907107D01*
X108642893Y-119424745D01*
X108125255Y-117492893D01*
X110057107Y-116975255D01*
X110057107Y-116975255D01*
G37*
D30*
G04 #@! TO.N,+12V*
X85799992Y-111750008D03*
D31*
X92571589Y-78755737D03*
X86370323Y-82091010D03*
X81503225Y-87179340D03*
X78446720Y-93522646D03*
X77500000Y-100500000D03*
X78755737Y-107428411D03*
X82091010Y-113629677D03*
X87179340Y-118496775D03*
X93522646Y-121553280D03*
X100500000Y-122500000D03*
X107428411Y-121244263D03*
X113629677Y-117908990D03*
X118496775Y-112820660D03*
X121553280Y-106477354D03*
X122500000Y-99500000D03*
X121244263Y-92571589D03*
X117908990Y-86370323D03*
X112820660Y-81503225D03*
X106477354Y-78446720D03*
X99500000Y-77500000D03*
X85799992Y-111750008D03*
D30*
G04 #@! TO.N,GND*
X98900000Y-95900000D03*
X105250000Y-92400000D03*
X99000000Y-82700000D03*
X84903097Y-101658975D03*
X100800000Y-97950000D03*
X106750000Y-99400000D03*
X103800000Y-83250000D03*
D31*
X106250000Y-84500000D03*
X114900000Y-107700000D03*
X97150000Y-111700000D03*
X112000000Y-100300000D03*
D32*
X117300000Y-101050000D03*
X117000000Y-102400000D03*
D30*
X94800000Y-82700000D03*
D31*
X85775634Y-92775634D03*
X94800000Y-112700000D03*
X96400000Y-109500000D03*
X96800000Y-104700000D03*
D30*
X108200000Y-105500000D03*
D32*
X93000000Y-93000000D03*
X95900000Y-95900000D03*
X93400000Y-96300000D03*
X92400000Y-96300000D03*
X101500000Y-93200000D03*
X101600000Y-95300000D03*
X92400000Y-98850000D03*
X109300000Y-90500000D03*
X109300000Y-86500000D03*
X113600000Y-108500000D03*
X109200000Y-109400000D03*
X101100000Y-109800000D03*
X106700000Y-117700000D03*
X97900000Y-119100000D03*
X96200000Y-118800000D03*
X90600000Y-90600000D03*
X91200000Y-85500000D03*
X92200000Y-86500000D03*
X100000000Y-81950000D03*
X101600000Y-84700000D03*
X98000000Y-87500000D03*
X93500000Y-84200000D03*
D30*
X101354480Y-100500010D03*
G04 #@! TO.N,+3V3*
X99200000Y-104400000D03*
X99750000Y-102000000D03*
D31*
G04 #@! TO.N,Net-(D1-Pad2)*
X111750000Y-86139998D03*
G04 #@! TO.N,Net-(D2-Pad2)*
X87950000Y-86191024D03*
D32*
X107900000Y-107700000D03*
G04 #@! TO.N,/Vmeas_A*
X90683142Y-95080201D03*
X97975075Y-89849978D03*
G04 #@! TO.N,/Vmeas_B*
X101500000Y-104900000D03*
X101450021Y-103200000D03*
D31*
G04 #@! TO.N,/Q2*
X114800000Y-91700000D03*
G04 #@! TO.N,/Q0*
X94500000Y-87400000D03*
G04 #@! TO.N,/Q3*
X92694365Y-107305635D03*
G04 #@! TO.N,/Q1*
X103000000Y-109800000D03*
D32*
G04 #@! TO.N,/CH1*
X101225000Y-102100000D03*
X100450000Y-104875000D03*
G04 #@! TD*
D33*
G04 #@! TO.N,+12V*
X87000000Y-108900000D02*
X85800000Y-110100000D01*
X87000000Y-107950000D02*
X87000000Y-108900000D01*
X84600000Y-108900000D02*
X85800000Y-110100000D01*
X84600000Y-108000000D02*
X84600000Y-108900000D01*
X113100000Y-96900000D02*
X112950000Y-96750000D01*
X115600000Y-96900000D02*
X113100000Y-96900000D01*
X114650000Y-94500000D02*
X119100000Y-90050000D01*
X112950000Y-94500000D02*
X114650000Y-94500000D01*
X112950000Y-96750000D02*
X112950000Y-94500000D01*
X101800000Y-116750000D02*
X101800000Y-114050000D01*
X101800000Y-114050000D02*
X101750000Y-114000000D01*
X101800000Y-118750000D02*
X101350000Y-119200000D01*
X101800000Y-116750000D02*
X101800000Y-118750000D01*
D34*
X101350000Y-119200000D02*
X101350000Y-120600000D01*
D33*
X85799992Y-110100008D02*
X85800000Y-110100000D01*
X85799992Y-111750008D02*
X85799992Y-110100008D01*
D35*
G04 #@! TO.N,GND*
X105500000Y-101025000D02*
X105500000Y-101250000D01*
X104800000Y-100325000D02*
X105500000Y-101025000D01*
X102950000Y-100325000D02*
X104800000Y-100325000D01*
X98650000Y-94350000D02*
X98650000Y-95650000D01*
X98650000Y-95650000D02*
X98900000Y-95900000D01*
X109300000Y-88750000D02*
X108700000Y-88750000D01*
X105250000Y-92200000D02*
X105250000Y-92400000D01*
X108700000Y-88750000D02*
X105250000Y-92200000D01*
X101600000Y-81950000D02*
X100000000Y-81950000D01*
X98300000Y-81950000D02*
X98200000Y-82050000D01*
X82850000Y-100000000D02*
X83244122Y-100000000D01*
X83244122Y-100000000D02*
X84903097Y-101658975D01*
X97150000Y-114000000D02*
X97000000Y-110650000D01*
X97150000Y-110800000D02*
X97000000Y-110650000D01*
X105500000Y-101250000D02*
X106750000Y-100000000D01*
X106750000Y-100000000D02*
X106750000Y-99400000D01*
X103950000Y-85100000D02*
X103950000Y-86300000D01*
X103800000Y-83250000D02*
X103950000Y-85100000D01*
X106500000Y-84500000D02*
X106250000Y-84500000D01*
X109300000Y-88750000D02*
X109300000Y-87300000D01*
X109300000Y-87300000D02*
X106500000Y-84500000D01*
X97150000Y-110800000D02*
X97150000Y-110800000D01*
X97150000Y-111700000D02*
X97150000Y-110800000D01*
X106749999Y-104600001D02*
X106600000Y-104750000D01*
X106600000Y-104750000D02*
X106600000Y-105500000D01*
X112550001Y-104600001D02*
X106749999Y-104600001D01*
X113550000Y-105600000D02*
X112550001Y-104600001D01*
D36*
X119450000Y-103300000D02*
X119250000Y-103100000D01*
X119250000Y-103100000D02*
X119250000Y-103050000D01*
X119550000Y-103300000D02*
X117400000Y-101150000D01*
X119550000Y-103300000D02*
X119450000Y-103300000D01*
X120050000Y-103300000D02*
X119550000Y-103300000D01*
X113149999Y-100200001D02*
X112350000Y-101000000D01*
X116450001Y-100200001D02*
X113149999Y-100200001D01*
X117400000Y-101150000D02*
X117300000Y-101050000D01*
X117300000Y-101050000D02*
X116450001Y-100200001D01*
X117300000Y-101050000D02*
X117300000Y-102100000D01*
X117300000Y-102100000D02*
X117000000Y-102400000D01*
D37*
X94800000Y-84250000D02*
X94800000Y-83050000D01*
X94800000Y-83050000D02*
X94150000Y-82400000D01*
D38*
X86165390Y-92775634D02*
X85775634Y-92775634D01*
X90878544Y-88662480D02*
X90278544Y-88662480D01*
X90278544Y-88662480D02*
X86165390Y-92775634D01*
D35*
X97000000Y-110650000D02*
X97150000Y-111700000D01*
X100000000Y-81950000D02*
X98300000Y-81950000D01*
D39*
X120050000Y-103300000D02*
X120050000Y-103550000D01*
X120050000Y-103550000D02*
X119050000Y-104550000D01*
D35*
X102950000Y-100325000D02*
X101529490Y-100325000D01*
X101529490Y-100325000D02*
X101354480Y-100500010D01*
G04 #@! TO.N,+3V3*
X94775000Y-99675000D02*
X94000000Y-100450000D01*
X97050000Y-99675000D02*
X94775000Y-99675000D01*
X105175000Y-99675000D02*
X105500000Y-99350000D01*
X102950000Y-99675000D02*
X105175000Y-99675000D01*
D33*
X99450000Y-116450000D02*
X99400000Y-116500000D01*
X99450000Y-114000000D02*
X99450000Y-116450000D01*
D34*
X99450000Y-114000000D02*
X99450000Y-111900000D01*
X99450000Y-111900000D02*
X99450000Y-107700000D01*
D35*
X94000000Y-100600000D02*
X94000000Y-100450000D01*
X90750000Y-98300000D02*
X90750000Y-96750000D01*
X94000000Y-100450000D02*
X92900000Y-100450000D01*
X92900000Y-100450000D02*
X90750000Y-98300000D01*
D33*
X98850000Y-104750000D02*
X99200000Y-104400000D01*
X99450000Y-107700000D02*
X98850000Y-107100000D01*
X98850000Y-107100000D02*
X98850000Y-104750000D01*
X109350000Y-118200000D02*
X103050000Y-111900000D01*
X103050000Y-111900000D02*
X99450000Y-111900000D01*
D35*
X99750000Y-101350000D02*
X99750000Y-102000000D01*
X97050000Y-99675000D02*
X98075000Y-99675000D01*
D37*
X101700000Y-99450000D02*
X100795998Y-99450000D01*
D35*
X101925000Y-99675000D02*
X101700000Y-99450000D01*
X102950000Y-99675000D02*
X101925000Y-99675000D01*
D37*
X100795998Y-99450000D02*
X100595998Y-99650000D01*
X98100000Y-99650000D02*
X98075000Y-99675000D01*
X100595998Y-99650000D02*
X98100000Y-99650000D01*
X99750000Y-101151472D02*
X99750000Y-102000000D01*
X100595998Y-99650000D02*
X99900000Y-99650000D01*
X99750000Y-99800000D02*
X99750000Y-101151472D01*
X99900000Y-99650000D02*
X99750000Y-99800000D01*
G04 #@! TO.N,Net-(C7-Pad2)*
X113450000Y-99100000D02*
X113100000Y-98750000D01*
X115600000Y-99100000D02*
X113450000Y-99100000D01*
X113050000Y-98750000D02*
X111050000Y-96750000D01*
X113100000Y-98750000D02*
X113050000Y-98750000D01*
X111050000Y-94500000D02*
X111050000Y-96750000D01*
G04 #@! TO.N,Net-(C8-Pad1)*
X96750000Y-84300000D02*
X96700000Y-84250000D01*
X96700000Y-84300000D02*
X97600000Y-85200000D01*
X96700000Y-84250000D02*
X96700000Y-84300000D01*
X99000000Y-86200000D02*
X98125000Y-86200000D01*
X97600000Y-85200000D02*
X97600000Y-86200000D01*
X98125000Y-86200000D02*
X97600000Y-86200000D01*
X97600000Y-86600000D02*
X96650000Y-87550000D01*
X97600000Y-86200000D02*
X97600000Y-86600000D01*
X96650000Y-87550000D02*
X96650000Y-88500000D01*
D35*
G04 #@! TO.N,Net-(C9-Pad1)*
X102350000Y-94350000D02*
X102500000Y-94200000D01*
X100350000Y-94350000D02*
X102350000Y-94350000D01*
X100350000Y-96157120D02*
X100350000Y-95350000D01*
X100350000Y-95350000D02*
X100350000Y-94350000D01*
X98132120Y-98375000D02*
X100350000Y-96157120D01*
X97050000Y-98375000D02*
X98132120Y-98375000D01*
G04 #@! TO.N,Net-(C10-Pad1)*
X96750000Y-94050000D02*
X98650000Y-92150000D01*
X96750000Y-94250000D02*
X96750000Y-94050000D01*
X96750000Y-95150000D02*
X98500000Y-96900000D01*
X96750000Y-94250000D02*
X96750000Y-95150000D01*
X98500000Y-97300000D02*
X98075000Y-97725000D01*
X98500000Y-96900000D02*
X98500000Y-97300000D01*
X98075000Y-97725000D02*
X97050000Y-97725000D01*
D39*
G04 #@! TO.N,Net-(C11-Pad2)*
X84300000Y-106000000D02*
X84600000Y-106000000D01*
X82200000Y-108100000D02*
X84300000Y-106000000D01*
X84600000Y-106000000D02*
X86950000Y-106000000D01*
X86950000Y-106000000D02*
X87000000Y-106050000D01*
X82200000Y-108700000D02*
X83600000Y-110100000D01*
X82200000Y-108100000D02*
X82200000Y-108700000D01*
D37*
G04 #@! TO.N,Net-(C12-Pad1)*
X118100000Y-103350000D02*
X118150000Y-103300000D01*
X117950000Y-103500000D02*
X118150000Y-103300000D01*
X115700000Y-103500000D02*
X117950000Y-103500000D01*
D39*
X114300000Y-103500000D02*
X114000000Y-103200000D01*
X115700000Y-103500000D02*
X114300000Y-103500000D01*
D35*
G04 #@! TO.N,Net-(C13-Pad1)*
X110400000Y-111750000D02*
X110500000Y-111850000D01*
D37*
X110350000Y-111700000D02*
X110500000Y-111850000D01*
X107750000Y-111700000D02*
X110350000Y-111700000D01*
X112900000Y-111850000D02*
X113000000Y-111750000D01*
X110500000Y-111850000D02*
X112900000Y-111850000D01*
D34*
G04 #@! TO.N,Net-(D1-Pad2)*
X114360002Y-88750000D02*
X114700000Y-88750000D01*
X109300000Y-83750000D02*
X109360002Y-83750000D01*
X109360002Y-83750000D02*
X111750000Y-86139998D01*
X111750000Y-86139998D02*
X114360002Y-88750000D01*
D35*
X105950000Y-86150000D02*
X104700000Y-84900000D01*
X104700000Y-84900000D02*
X104700000Y-84051998D01*
X105950000Y-86300000D02*
X105950000Y-86150000D01*
X104700000Y-84051998D02*
X105601999Y-83149999D01*
X105601999Y-83149999D02*
X108099999Y-83149999D01*
X108700000Y-83750000D02*
X109300000Y-83750000D01*
X108099999Y-83149999D02*
X108700000Y-83750000D01*
D34*
G04 #@! TO.N,Net-(D2-Pad2)*
X90878544Y-83662480D02*
X90478544Y-83662480D01*
X85478544Y-88662480D02*
X87950000Y-86191024D01*
X90478544Y-83662480D02*
X87950000Y-86191024D01*
D38*
X106600000Y-107500000D02*
X107700000Y-107500000D01*
X107700000Y-107500000D02*
X107900000Y-107700000D01*
D35*
G04 #@! TO.N,/Vmeas_A*
X105950000Y-88500000D02*
X103950000Y-88500000D01*
X102650000Y-88500000D02*
X101600000Y-87450000D01*
X103950000Y-88500000D02*
X102650000Y-88500000D01*
X94580035Y-101699967D02*
X95955002Y-100325000D01*
X95955002Y-100325000D02*
X96025000Y-100325000D01*
X93369964Y-101699968D02*
X94580035Y-101699967D01*
X96025000Y-100325000D02*
X97050000Y-100325000D01*
X89410001Y-97740003D02*
X93369964Y-101699968D01*
X89410001Y-95759997D02*
X89410001Y-97740003D01*
D38*
X90089797Y-95080201D02*
X89410001Y-95759997D01*
X90683142Y-95080201D02*
X90089797Y-95080201D01*
X101600000Y-87450000D02*
X101600000Y-88250000D01*
X101600000Y-88250000D02*
X100000022Y-89849978D01*
X98540760Y-89849978D02*
X97975075Y-89849978D01*
X100000022Y-89849978D02*
X98540760Y-89849978D01*
D35*
G04 #@! TO.N,/Vmeas_B*
X104400000Y-107500000D02*
X104400000Y-105500000D01*
X93162855Y-102199978D02*
X94800022Y-102199978D01*
X88350000Y-100000000D02*
X90962876Y-100000000D01*
X96025000Y-100975000D02*
X97050000Y-100975000D01*
X94800022Y-102199978D02*
X96025000Y-100975000D01*
X90962876Y-100000000D02*
X93162855Y-102199978D01*
D38*
X98750010Y-102450010D02*
X99225001Y-102925001D01*
X100609337Y-102925001D02*
X100884336Y-103200000D01*
X100884336Y-103200000D02*
X101450021Y-103200000D01*
X98750010Y-101628245D02*
X98750010Y-102450010D01*
X98096765Y-100975000D02*
X98750010Y-101628245D01*
X99225001Y-102925001D02*
X100609337Y-102925001D01*
X97050000Y-100975000D02*
X98096765Y-100975000D01*
D35*
X103800000Y-104900000D02*
X101500000Y-104900000D01*
X104400000Y-105500000D02*
X103800000Y-104900000D01*
G04 #@! TO.N,Net-(D7-Pad1)*
X110750000Y-98750000D02*
X109900000Y-97900000D01*
X110900000Y-98750000D02*
X110750000Y-98750000D01*
X108500000Y-94950000D02*
X108500000Y-93000000D01*
X109900000Y-96350000D02*
X108500000Y-94950000D01*
X109900000Y-97900000D02*
X109900000Y-96350000D01*
G04 #@! TO.N,/CH2*
X108650000Y-98650000D02*
X108500000Y-98500000D01*
X108650000Y-102700000D02*
X108650000Y-98650000D01*
X108400000Y-102950000D02*
X108650000Y-102700000D01*
X104650000Y-102950000D02*
X108400000Y-102950000D01*
X102950000Y-102275000D02*
X103975000Y-102275000D01*
X103975000Y-102275000D02*
X104650000Y-102950000D01*
G04 #@! TO.N,/CH3*
X95300000Y-103200000D02*
X90300000Y-103200000D01*
X95575000Y-102925000D02*
X95300000Y-103200000D01*
X97050000Y-102925000D02*
X95575000Y-102925000D01*
X90300000Y-103200000D02*
X88350000Y-103200000D01*
D39*
G04 #@! TO.N,Net-(D8-Pad1)*
X82200000Y-103850000D02*
X82850000Y-103200000D01*
X82200000Y-105900000D02*
X82200000Y-103850000D01*
D33*
G04 #@! TO.N,/Q2*
X112000000Y-92500000D02*
X114000000Y-92500000D01*
X114000000Y-92500000D02*
X114800000Y-91700000D01*
G04 #@! TO.N,/Q0*
X95750000Y-86250000D02*
X95650000Y-86250000D01*
X95650000Y-86250000D02*
X94500000Y-87400000D01*
G04 #@! TO.N,/Q3*
X92388730Y-107000000D02*
X92694365Y-107305635D01*
X89000000Y-107000000D02*
X92388730Y-107000000D01*
G04 #@! TO.N,/Q1*
X105750000Y-110750000D02*
X103950000Y-110750000D01*
X103950000Y-110750000D02*
X103000000Y-109800000D01*
D35*
G04 #@! TO.N,/SWCLK*
X93714245Y-91099999D02*
X102905001Y-91099999D01*
X102905001Y-91099999D02*
X103225001Y-91419999D01*
X102950000Y-96550000D02*
X102950000Y-97075000D01*
X103225001Y-96274999D02*
X102950000Y-96550000D01*
X93114223Y-91700021D02*
X93714245Y-91099999D01*
X92199979Y-91700022D02*
X93114223Y-91700021D01*
X88210000Y-96750000D02*
X88210000Y-95690001D01*
X88210000Y-95690001D02*
X92199979Y-91700022D01*
X103225001Y-91419999D02*
X103225001Y-96274999D01*
G04 #@! TO.N,/SWDIO*
X88092880Y-95099999D02*
X91992869Y-91200011D01*
X104050000Y-97650000D02*
X103975000Y-97725000D01*
X83130000Y-96750000D02*
X84780000Y-95100000D01*
X103975000Y-97725000D02*
X102950000Y-97725000D01*
X91992869Y-91200011D02*
X92907111Y-91200011D01*
X104050000Y-90819998D02*
X104050000Y-97650000D01*
X93507134Y-90599988D02*
X103829990Y-90599988D01*
X92907111Y-91200011D02*
X93507134Y-90599988D01*
X84780000Y-95100000D02*
X88092880Y-95099999D01*
X103829990Y-90599988D02*
X104050000Y-90819998D01*
G04 #@! TO.N,Net-(R5-Pad1)*
X94625000Y-99025000D02*
X94000000Y-98400000D01*
X97050000Y-99025000D02*
X94625000Y-99025000D01*
G04 #@! TO.N,/CH0*
X96614743Y-90099977D02*
X98214720Y-88500000D01*
X93300023Y-90099977D02*
X96614743Y-90099977D01*
X86669998Y-101450000D02*
X86100000Y-100880002D01*
X91705756Y-101450000D02*
X86669998Y-101450000D01*
X98214720Y-88500000D02*
X98850000Y-88500000D01*
X92955745Y-102699989D02*
X91705756Y-101450000D01*
X95092889Y-102699989D02*
X92955745Y-102699989D01*
X95517878Y-102275000D02*
X95092889Y-102699989D01*
X86100000Y-100880002D02*
X86100000Y-100119998D01*
X83200011Y-94599989D02*
X87885768Y-94599989D01*
X86100000Y-100119998D02*
X84110001Y-98129999D01*
X91785757Y-90700000D02*
X92700000Y-90700000D01*
X84110001Y-98129999D02*
X82309998Y-98129999D01*
X97050000Y-102275000D02*
X95517878Y-102275000D01*
X81750000Y-96050000D02*
X83200011Y-94599989D01*
X92700000Y-90700000D02*
X93300023Y-90099977D01*
X82309998Y-98129999D02*
X81750000Y-97570001D01*
X81750000Y-97570001D02*
X81750000Y-96050000D01*
X87885768Y-94599989D02*
X91785757Y-90700000D01*
G04 #@! TO.N,Net-(R8-Pad1)*
X97050000Y-97075000D02*
X95225000Y-97075000D01*
X94500000Y-96350000D02*
X94500000Y-94350000D01*
X95225000Y-97075000D02*
X94500000Y-96350000D01*
G04 #@! TO.N,/LOAD*
X98075000Y-101625000D02*
X97050000Y-101625000D01*
X110499999Y-104100001D02*
X100550001Y-104100001D01*
X115700000Y-101300000D02*
X113300000Y-101300000D01*
X113300000Y-101300000D02*
X110499999Y-104100001D01*
X100550001Y-104100001D02*
X100250000Y-103800000D01*
D38*
X100250000Y-103800000D02*
X99825012Y-103375012D01*
X99825012Y-103375012D02*
X98825012Y-103375012D01*
X98825012Y-103375012D02*
X98300000Y-102850000D01*
X98299999Y-101849999D02*
X98075000Y-101625000D01*
X98300000Y-102850000D02*
X98299999Y-101849999D01*
D35*
G04 #@! TO.N,/CH1*
X102950000Y-101625000D02*
X101700000Y-101625000D01*
X101700000Y-101625000D02*
X101225000Y-102100000D01*
X107219998Y-110750000D02*
X106169998Y-109700000D01*
X103100000Y-106150000D02*
X102600000Y-105650000D01*
X104925000Y-109700000D02*
X103600000Y-108375000D01*
X102600000Y-105650000D02*
X100800000Y-105650000D01*
X109550000Y-110750000D02*
X107219998Y-110750000D01*
X103600000Y-108375000D02*
X103325000Y-108375000D01*
X110500000Y-109650000D02*
X110500000Y-109800000D01*
X106169998Y-109700000D02*
X104925000Y-109700000D01*
X110500000Y-109800000D02*
X109550000Y-110750000D01*
X103325000Y-108375000D02*
X103100000Y-108150000D01*
X103100000Y-108150000D02*
X103100000Y-106150000D01*
X100800000Y-105650000D02*
X100450000Y-105300000D01*
X100450000Y-105300000D02*
X100450000Y-104875000D01*
G04 #@! TO.N,Net-(TP1-Pad1)*
X109300000Y-103450000D02*
X110100000Y-102650000D01*
X110100000Y-102650000D02*
X110100000Y-101600000D01*
X104400000Y-103450000D02*
X109300000Y-103450000D01*
X102950000Y-102925000D02*
X103875000Y-102925000D01*
X103875000Y-102925000D02*
X104400000Y-103450000D01*
G04 #@! TO.N,Net-(TP2-Pad1)*
X105900000Y-96700000D02*
X105900000Y-97100000D01*
X104089240Y-99025000D02*
X105900000Y-97214240D01*
X105900000Y-97214240D02*
X105900000Y-96700000D01*
X102950000Y-99025000D02*
X104089240Y-99025000D01*
G04 #@! TO.N,Net-(TP3-Pad1)*
X104032120Y-98375000D02*
X104550010Y-97857110D01*
X102950000Y-98375000D02*
X104032120Y-98375000D01*
X104850000Y-94200000D02*
X105900000Y-94200000D01*
X104550010Y-94499990D02*
X104850000Y-94200000D01*
X104550010Y-97857110D02*
X104550010Y-94499990D01*
G04 #@! TO.N,Net-(TP4-Pad1)*
X106550000Y-102450000D02*
X107400000Y-101600000D01*
X105094998Y-102450000D02*
X106550000Y-102450000D01*
X104400000Y-101400000D02*
X104400000Y-101755002D01*
X102950000Y-100975000D02*
X103975000Y-100975000D01*
X104400000Y-101755002D02*
X105094998Y-102450000D01*
X103975000Y-100975000D02*
X104400000Y-101400000D01*
D33*
G04 #@! TO.N,Net-(Q3-Pad3)*
X119100000Y-101300000D02*
X119100000Y-97950000D01*
G04 #@! TD*
D40*
G04 #@! TO.N,GND*
G36*
X100474478Y-80115903D02*
X100425000Y-80235354D01*
X100425000Y-81693750D01*
X100506250Y-81775000D01*
X101425000Y-81775000D01*
X101425000Y-81755000D01*
X101775000Y-81755000D01*
X101775000Y-81775000D01*
X102693750Y-81775000D01*
X102775000Y-81693750D01*
X102775000Y-80293618D01*
X102987321Y-80323950D01*
X105479346Y-80822355D01*
X107472047Y-81569618D01*
X109216518Y-82317248D01*
X109220657Y-82319613D01*
X107550000Y-82319613D01*
X107442701Y-82340956D01*
X107351736Y-82401736D01*
X107290956Y-82492701D01*
X107269613Y-82600000D01*
X107269613Y-82724999D01*
X105643856Y-82724999D01*
X105601998Y-82716673D01*
X105560141Y-82724999D01*
X105436172Y-82749658D01*
X105295591Y-82843591D01*
X105271880Y-82879077D01*
X104429079Y-83721879D01*
X104393593Y-83745590D01*
X104369882Y-83781076D01*
X104299659Y-83886172D01*
X104266674Y-84051998D01*
X104275001Y-84093860D01*
X104275000Y-84858142D01*
X104266674Y-84900000D01*
X104276823Y-84951023D01*
X104299659Y-85065826D01*
X104393592Y-85206408D01*
X104429081Y-85230121D01*
X105219613Y-86020654D01*
X105219613Y-86900000D01*
X105240956Y-87007299D01*
X105301736Y-87098264D01*
X105392701Y-87159044D01*
X105500000Y-87180387D01*
X106400000Y-87180387D01*
X106507299Y-87159044D01*
X106598264Y-87098264D01*
X106659044Y-87007299D01*
X106680387Y-86900000D01*
X106680387Y-85700000D01*
X106659044Y-85592701D01*
X106598264Y-85501736D01*
X106507299Y-85440956D01*
X106400000Y-85419613D01*
X105820654Y-85419613D01*
X105125000Y-84723960D01*
X105125000Y-84228038D01*
X105778040Y-83574999D01*
X107269613Y-83574999D01*
X107269613Y-84900000D01*
X107290956Y-85007299D01*
X107351736Y-85098264D01*
X107442701Y-85159044D01*
X107550000Y-85180387D01*
X108987268Y-85180387D01*
X110669106Y-86862226D01*
X110669107Y-86862228D01*
X111027770Y-87220891D01*
X111027773Y-87220892D01*
X111081881Y-87275000D01*
X109556250Y-87275000D01*
X109475000Y-87356250D01*
X109475000Y-88575000D01*
X111293750Y-88575000D01*
X111375000Y-88493750D01*
X111375000Y-87568119D01*
X112669613Y-88862733D01*
X112669613Y-89900000D01*
X112690956Y-90007299D01*
X112751736Y-90098264D01*
X112842701Y-90159044D01*
X112950000Y-90180387D01*
X116450000Y-90180387D01*
X116557299Y-90159044D01*
X116648264Y-90098264D01*
X116709044Y-90007299D01*
X116730387Y-89900000D01*
X116730387Y-89304344D01*
X117219613Y-90160489D01*
X117219613Y-90692951D01*
X116075000Y-91837564D01*
X116075000Y-91446387D01*
X115880893Y-90977770D01*
X115522230Y-90619107D01*
X115053613Y-90425000D01*
X114546387Y-90425000D01*
X114077770Y-90619107D01*
X113719107Y-90977770D01*
X113525000Y-91446387D01*
X113525000Y-91625000D01*
X111913821Y-91625000D01*
X111658592Y-91675768D01*
X111369160Y-91869160D01*
X111175768Y-92158592D01*
X111107858Y-92500000D01*
X111175768Y-92841408D01*
X111369160Y-93130840D01*
X111658592Y-93324232D01*
X111913821Y-93375000D01*
X113913822Y-93375000D01*
X114000000Y-93392142D01*
X114086178Y-93375000D01*
X114086179Y-93375000D01*
X114341408Y-93324232D01*
X114630840Y-93130840D01*
X114679659Y-93057777D01*
X114762436Y-92975000D01*
X114937564Y-92975000D01*
X114287564Y-93625000D01*
X113036179Y-93625000D01*
X112950000Y-93607858D01*
X112863821Y-93625000D01*
X112608592Y-93675768D01*
X112319160Y-93869160D01*
X112125768Y-94158592D01*
X112057858Y-94500000D01*
X112075001Y-94586184D01*
X112075000Y-96347917D01*
X112069613Y-96375000D01*
X112069613Y-96690904D01*
X112057858Y-96750000D01*
X112069613Y-96809096D01*
X112069613Y-97027152D01*
X111930387Y-96887926D01*
X111930387Y-96375000D01*
X111909044Y-96267701D01*
X111848264Y-96176736D01*
X111757299Y-96115956D01*
X111650000Y-96094613D01*
X111575000Y-96094613D01*
X111575000Y-95197217D01*
X111648264Y-95148264D01*
X111709044Y-95057299D01*
X111730387Y-94950000D01*
X111730387Y-94050000D01*
X111709044Y-93942701D01*
X111648264Y-93851736D01*
X111557299Y-93790956D01*
X111450000Y-93769613D01*
X110650000Y-93769613D01*
X110542701Y-93790956D01*
X110451736Y-93851736D01*
X110390956Y-93942701D01*
X110369613Y-94050000D01*
X110369613Y-94950000D01*
X110390956Y-95057299D01*
X110451736Y-95148264D01*
X110525000Y-95197217D01*
X110525001Y-96094613D01*
X110450000Y-96094613D01*
X110342701Y-96115956D01*
X110281903Y-96156579D01*
X110206408Y-96043592D01*
X110170922Y-96019881D01*
X109081427Y-94930387D01*
X109350000Y-94930387D01*
X109457299Y-94909044D01*
X109548264Y-94848264D01*
X109609044Y-94757299D01*
X109630387Y-94650000D01*
X109630387Y-91350000D01*
X109609044Y-91242701D01*
X109548264Y-91151736D01*
X109457299Y-91090956D01*
X109350000Y-91069613D01*
X107650000Y-91069613D01*
X107542701Y-91090956D01*
X107451736Y-91151736D01*
X107390956Y-91242701D01*
X107369613Y-91350000D01*
X107369613Y-94650000D01*
X107390956Y-94757299D01*
X107451736Y-94848264D01*
X107542701Y-94909044D01*
X107650000Y-94930387D01*
X108070575Y-94930387D01*
X108066674Y-94950000D01*
X108085291Y-95043592D01*
X108099659Y-95115826D01*
X108193592Y-95256408D01*
X108229081Y-95280121D01*
X109475001Y-96526042D01*
X109475001Y-96602784D01*
X109457299Y-96590956D01*
X109350000Y-96569613D01*
X107650000Y-96569613D01*
X107542701Y-96590956D01*
X107451736Y-96651736D01*
X107390956Y-96742701D01*
X107369613Y-96850000D01*
X107369613Y-100150000D01*
X107390956Y-100257299D01*
X107451736Y-100348264D01*
X107542701Y-100409044D01*
X107650000Y-100430387D01*
X108225001Y-100430387D01*
X108225001Y-100584531D01*
X108150000Y-100569613D01*
X106650000Y-100569613D01*
X106542701Y-100590956D01*
X106451736Y-100651736D01*
X106390956Y-100742701D01*
X106369613Y-100850000D01*
X106369613Y-102025000D01*
X106154290Y-102025000D01*
X106200000Y-101914646D01*
X106200000Y-101506250D01*
X106118750Y-101425000D01*
X105675000Y-101425000D01*
X105675000Y-101445000D01*
X105325000Y-101445000D01*
X105325000Y-101425000D01*
X105305000Y-101425000D01*
X105305000Y-101075000D01*
X105325000Y-101075000D01*
X105325000Y-100406250D01*
X105675000Y-100406250D01*
X105675000Y-101075000D01*
X106118750Y-101075000D01*
X106200000Y-100993750D01*
X106200000Y-100585354D01*
X106150522Y-100465903D01*
X106059098Y-100374479D01*
X105939647Y-100325000D01*
X105756250Y-100325000D01*
X105675000Y-100406250D01*
X105325000Y-100406250D01*
X105243750Y-100325000D01*
X105060353Y-100325000D01*
X104940902Y-100374479D01*
X104849478Y-100465903D01*
X104800000Y-100585354D01*
X104800000Y-100993750D01*
X104881248Y-101074998D01*
X104800000Y-101074998D01*
X104800000Y-101233663D01*
X104777507Y-101200000D01*
X104706408Y-101093592D01*
X104670922Y-101069881D01*
X104305121Y-100704080D01*
X104281408Y-100668592D01*
X104140827Y-100574659D01*
X104016858Y-100550000D01*
X104016857Y-100550000D01*
X104000000Y-100546647D01*
X104000000Y-100518750D01*
X103918750Y-100437500D01*
X103125000Y-100437500D01*
X103125000Y-100469613D01*
X102775000Y-100469613D01*
X102775000Y-100437500D01*
X101981250Y-100437500D01*
X101900000Y-100518750D01*
X101900000Y-100614647D01*
X101948329Y-100731321D01*
X101944613Y-100750000D01*
X101944613Y-101200000D01*
X101741855Y-101200000D01*
X101699999Y-101191674D01*
X101658143Y-101200000D01*
X101658142Y-101200000D01*
X101534173Y-101224659D01*
X101393592Y-101318592D01*
X101369881Y-101354078D01*
X101298959Y-101425000D01*
X101090734Y-101425000D01*
X100842643Y-101527763D01*
X100652763Y-101717643D01*
X100616450Y-101805310D01*
X100491789Y-101504352D01*
X100275000Y-101287563D01*
X100275000Y-100175000D01*
X100544292Y-100175000D01*
X100595998Y-100185285D01*
X100647704Y-100175000D01*
X100653471Y-100173853D01*
X100672478Y-100170072D01*
X100800843Y-100144539D01*
X100974502Y-100028504D01*
X101003795Y-99984664D01*
X101013459Y-99975000D01*
X101614310Y-99975000D01*
X101618592Y-99981408D01*
X101732909Y-100057792D01*
X101759173Y-100075341D01*
X101900000Y-100103353D01*
X101900000Y-100131250D01*
X101981250Y-100212500D01*
X102775000Y-100212500D01*
X102775000Y-100180387D01*
X103125000Y-100180387D01*
X103125000Y-100212500D01*
X103918750Y-100212500D01*
X104000000Y-100131250D01*
X104000000Y-100100000D01*
X104894487Y-100100000D01*
X104926736Y-100148264D01*
X105017701Y-100209044D01*
X105125000Y-100230387D01*
X105875000Y-100230387D01*
X105982299Y-100209044D01*
X106073264Y-100148264D01*
X106134044Y-100057299D01*
X106155387Y-99950000D01*
X106155387Y-98750000D01*
X106134044Y-98642701D01*
X106073264Y-98551736D01*
X105982299Y-98490956D01*
X105875000Y-98469613D01*
X105245667Y-98469613D01*
X105984894Y-97730387D01*
X106650000Y-97730387D01*
X106757299Y-97709044D01*
X106848264Y-97648264D01*
X106909044Y-97557299D01*
X106930387Y-97450000D01*
X106930387Y-95950000D01*
X106909044Y-95842701D01*
X106848264Y-95751736D01*
X106757299Y-95690956D01*
X106650000Y-95669613D01*
X105150000Y-95669613D01*
X105042701Y-95690956D01*
X104975010Y-95736185D01*
X104975010Y-95163815D01*
X105042701Y-95209044D01*
X105150000Y-95230387D01*
X106650000Y-95230387D01*
X106757299Y-95209044D01*
X106848264Y-95148264D01*
X106909044Y-95057299D01*
X106930387Y-94950000D01*
X106930387Y-93450000D01*
X106909044Y-93342701D01*
X106848264Y-93251736D01*
X106757299Y-93190956D01*
X106650000Y-93169613D01*
X105150000Y-93169613D01*
X105042701Y-93190956D01*
X104951736Y-93251736D01*
X104890956Y-93342701D01*
X104869613Y-93450000D01*
X104869613Y-93770575D01*
X104850000Y-93766674D01*
X104808142Y-93775000D01*
X104684173Y-93799659D01*
X104543592Y-93893592D01*
X104519881Y-93929078D01*
X104475000Y-93973959D01*
X104475000Y-90861855D01*
X104483326Y-90819997D01*
X104450341Y-90654171D01*
X104412500Y-90597538D01*
X104356408Y-90513590D01*
X104320920Y-90489878D01*
X104160111Y-90329069D01*
X104136398Y-90293580D01*
X103995817Y-90199647D01*
X103871848Y-90174988D01*
X103871847Y-90174988D01*
X103829990Y-90166662D01*
X103788133Y-90174988D01*
X100233591Y-90174988D01*
X100288406Y-90138362D01*
X100310725Y-90104959D01*
X101035297Y-89380387D01*
X102450000Y-89380387D01*
X102557299Y-89359044D01*
X102648264Y-89298264D01*
X102709044Y-89207299D01*
X102730387Y-89100000D01*
X102730387Y-88925000D01*
X103219613Y-88925000D01*
X103219613Y-89100000D01*
X103240956Y-89207299D01*
X103301736Y-89298264D01*
X103392701Y-89359044D01*
X103500000Y-89380387D01*
X104400000Y-89380387D01*
X104507299Y-89359044D01*
X104598264Y-89298264D01*
X104659044Y-89207299D01*
X104680387Y-89100000D01*
X104680387Y-88925000D01*
X105219613Y-88925000D01*
X105219613Y-89100000D01*
X105240956Y-89207299D01*
X105301736Y-89298264D01*
X105392701Y-89359044D01*
X105500000Y-89380387D01*
X106400000Y-89380387D01*
X106507299Y-89359044D01*
X106598264Y-89298264D01*
X106659044Y-89207299D01*
X106680387Y-89100000D01*
X106680387Y-89006250D01*
X107225000Y-89006250D01*
X107225000Y-89964647D01*
X107274479Y-90084098D01*
X107365903Y-90175522D01*
X107485354Y-90225000D01*
X109043750Y-90225000D01*
X109125000Y-90143750D01*
X109125000Y-88925000D01*
X109475000Y-88925000D01*
X109475000Y-90143750D01*
X109556250Y-90225000D01*
X111114646Y-90225000D01*
X111234097Y-90175522D01*
X111325521Y-90084098D01*
X111375000Y-89964647D01*
X111375000Y-89006250D01*
X111293750Y-88925000D01*
X109475000Y-88925000D01*
X109125000Y-88925000D01*
X107306250Y-88925000D01*
X107225000Y-89006250D01*
X106680387Y-89006250D01*
X106680387Y-87900000D01*
X106659044Y-87792701D01*
X106598264Y-87701736D01*
X106507299Y-87640956D01*
X106400000Y-87619613D01*
X105500000Y-87619613D01*
X105392701Y-87640956D01*
X105301736Y-87701736D01*
X105240956Y-87792701D01*
X105219613Y-87900000D01*
X105219613Y-88075000D01*
X104680387Y-88075000D01*
X104680387Y-87900000D01*
X104659044Y-87792701D01*
X104598264Y-87701736D01*
X104507299Y-87640956D01*
X104400000Y-87619613D01*
X103500000Y-87619613D01*
X103392701Y-87640956D01*
X103301736Y-87701736D01*
X103240956Y-87792701D01*
X103219613Y-87900000D01*
X103219613Y-88075000D01*
X102826041Y-88075000D01*
X102730387Y-87979346D01*
X102730387Y-87535353D01*
X107225000Y-87535353D01*
X107225000Y-88493750D01*
X107306250Y-88575000D01*
X109125000Y-88575000D01*
X109125000Y-87356250D01*
X109043750Y-87275000D01*
X107485354Y-87275000D01*
X107365903Y-87324478D01*
X107274479Y-87415902D01*
X107225000Y-87535353D01*
X102730387Y-87535353D01*
X102730387Y-86556250D01*
X103175000Y-86556250D01*
X103175000Y-86964646D01*
X103224478Y-87084097D01*
X103315902Y-87175521D01*
X103435353Y-87225000D01*
X103693750Y-87225000D01*
X103775000Y-87143750D01*
X103775000Y-86475000D01*
X104125000Y-86475000D01*
X104125000Y-87143750D01*
X104206250Y-87225000D01*
X104464647Y-87225000D01*
X104584098Y-87175521D01*
X104675522Y-87084097D01*
X104725000Y-86964646D01*
X104725000Y-86556250D01*
X104643750Y-86475000D01*
X104125000Y-86475000D01*
X103775000Y-86475000D01*
X103256250Y-86475000D01*
X103175000Y-86556250D01*
X102730387Y-86556250D01*
X102730387Y-85800000D01*
X102709044Y-85692701D01*
X102670727Y-85635354D01*
X103175000Y-85635354D01*
X103175000Y-86043750D01*
X103256250Y-86125000D01*
X103775000Y-86125000D01*
X103775000Y-85456250D01*
X104125000Y-85456250D01*
X104125000Y-86125000D01*
X104643750Y-86125000D01*
X104725000Y-86043750D01*
X104725000Y-85635354D01*
X104675522Y-85515903D01*
X104584098Y-85424479D01*
X104464647Y-85375000D01*
X104206250Y-85375000D01*
X104125000Y-85456250D01*
X103775000Y-85456250D01*
X103693750Y-85375000D01*
X103435353Y-85375000D01*
X103315902Y-85424479D01*
X103224478Y-85515903D01*
X103175000Y-85635354D01*
X102670727Y-85635354D01*
X102648264Y-85601736D01*
X102557299Y-85540956D01*
X102450000Y-85519613D01*
X100750000Y-85519613D01*
X100642701Y-85540956D01*
X100551736Y-85601736D01*
X100490956Y-85692701D01*
X100469613Y-85800000D01*
X100469613Y-88814703D01*
X99834338Y-89449978D01*
X98529669Y-89449978D01*
X98357432Y-89277741D01*
X98236744Y-89227750D01*
X98250000Y-89230387D01*
X99450000Y-89230387D01*
X99557299Y-89209044D01*
X99648264Y-89148264D01*
X99709044Y-89057299D01*
X99730387Y-88950000D01*
X99730387Y-88050000D01*
X99709044Y-87942701D01*
X99648264Y-87851736D01*
X99557299Y-87790956D01*
X99450000Y-87769613D01*
X98250000Y-87769613D01*
X98142701Y-87790956D01*
X98051736Y-87851736D01*
X97990956Y-87942701D01*
X97969613Y-88050000D01*
X97969613Y-88152632D01*
X97908312Y-88193592D01*
X97884602Y-88229077D01*
X97530387Y-88583292D01*
X97530387Y-88050000D01*
X97509044Y-87942701D01*
X97448264Y-87851736D01*
X97357299Y-87790956D01*
X97250000Y-87769613D01*
X97175000Y-87769613D01*
X97175000Y-87767461D01*
X97934667Y-87007795D01*
X97978504Y-86978504D01*
X98094539Y-86804845D01*
X98110421Y-86725000D01*
X98344613Y-86725000D01*
X98344613Y-86800000D01*
X98365956Y-86907299D01*
X98426736Y-86998264D01*
X98517701Y-87059044D01*
X98625000Y-87080387D01*
X99375000Y-87080387D01*
X99482299Y-87059044D01*
X99573264Y-86998264D01*
X99634044Y-86907299D01*
X99655387Y-86800000D01*
X99655387Y-85600000D01*
X99634044Y-85492701D01*
X99573264Y-85401736D01*
X99482299Y-85340956D01*
X99375000Y-85319613D01*
X98625000Y-85319613D01*
X98517701Y-85340956D01*
X98426736Y-85401736D01*
X98365956Y-85492701D01*
X98344613Y-85600000D01*
X98344613Y-85675000D01*
X98125000Y-85675000D01*
X98125000Y-85251705D01*
X98135285Y-85199999D01*
X98094539Y-84995155D01*
X98077452Y-84969583D01*
X97978504Y-84821496D01*
X97934668Y-84792206D01*
X97698712Y-84556250D01*
X98300000Y-84556250D01*
X98300000Y-84964646D01*
X98349478Y-85084097D01*
X98440902Y-85175521D01*
X98560353Y-85225000D01*
X98743750Y-85225000D01*
X98825000Y-85143750D01*
X98825000Y-84475000D01*
X99175000Y-84475000D01*
X99175000Y-85143750D01*
X99256250Y-85225000D01*
X99439647Y-85225000D01*
X99559098Y-85175521D01*
X99650522Y-85084097D01*
X99700000Y-84964646D01*
X99700000Y-84556250D01*
X99618750Y-84475000D01*
X99175000Y-84475000D01*
X98825000Y-84475000D01*
X98381250Y-84475000D01*
X98300000Y-84556250D01*
X97698712Y-84556250D01*
X97380387Y-84237926D01*
X97380387Y-83800000D01*
X97359044Y-83692701D01*
X97320727Y-83635354D01*
X98300000Y-83635354D01*
X98300000Y-84043750D01*
X98381250Y-84125000D01*
X98825000Y-84125000D01*
X98825000Y-83456250D01*
X99175000Y-83456250D01*
X99175000Y-84125000D01*
X99618750Y-84125000D01*
X99700000Y-84043750D01*
X99700000Y-83635354D01*
X99650522Y-83515903D01*
X99559098Y-83424479D01*
X99439647Y-83375000D01*
X99256250Y-83375000D01*
X99175000Y-83456250D01*
X98825000Y-83456250D01*
X98743750Y-83375000D01*
X98560353Y-83375000D01*
X98440902Y-83424479D01*
X98349478Y-83515903D01*
X98300000Y-83635354D01*
X97320727Y-83635354D01*
X97298264Y-83601736D01*
X97207299Y-83540956D01*
X97100000Y-83519613D01*
X96300000Y-83519613D01*
X96192701Y-83540956D01*
X96101736Y-83601736D01*
X96040956Y-83692701D01*
X96019613Y-83800000D01*
X96019613Y-84700000D01*
X96040956Y-84807299D01*
X96101736Y-84898264D01*
X96192701Y-84959044D01*
X96300000Y-84980387D01*
X96637926Y-84980387D01*
X97075000Y-85417462D01*
X97075001Y-86148289D01*
X97064715Y-86200000D01*
X97075000Y-86251706D01*
X97075000Y-86382538D01*
X96315335Y-87142203D01*
X96271496Y-87171496D01*
X96166669Y-87328382D01*
X96155461Y-87345156D01*
X96114715Y-87550000D01*
X96125000Y-87601707D01*
X96125000Y-87769613D01*
X96050000Y-87769613D01*
X95942701Y-87790956D01*
X95851736Y-87851736D01*
X95790956Y-87942701D01*
X95769613Y-88050000D01*
X95769613Y-88950000D01*
X95790956Y-89057299D01*
X95851736Y-89148264D01*
X95942701Y-89209044D01*
X96050000Y-89230387D01*
X96883293Y-89230387D01*
X96438703Y-89674977D01*
X93341880Y-89674977D01*
X93300023Y-89666651D01*
X93258165Y-89674977D01*
X93134196Y-89699636D01*
X92993615Y-89793569D01*
X92969904Y-89829055D01*
X92953544Y-89845415D01*
X92953544Y-88918730D01*
X92872294Y-88837480D01*
X91053544Y-88837480D01*
X91053544Y-90056230D01*
X91134794Y-90137480D01*
X92661480Y-90137480D01*
X92523960Y-90275000D01*
X91827612Y-90275000D01*
X91785756Y-90266674D01*
X91743900Y-90275000D01*
X91743899Y-90275000D01*
X91619930Y-90299659D01*
X91479349Y-90393592D01*
X91455638Y-90429078D01*
X87709728Y-94174989D01*
X83241868Y-94174989D01*
X83200010Y-94166663D01*
X83140944Y-94178412D01*
X83034184Y-94199648D01*
X82893603Y-94293581D01*
X82869892Y-94329067D01*
X81479079Y-95719881D01*
X81443593Y-95743592D01*
X81419882Y-95779078D01*
X81349659Y-95884174D01*
X81316674Y-96050000D01*
X81325001Y-96091862D01*
X81325000Y-97528143D01*
X81316674Y-97570001D01*
X81325000Y-97611858D01*
X81349659Y-97735827D01*
X81443592Y-97876409D01*
X81479081Y-97900122D01*
X81979879Y-98400921D01*
X82003590Y-98436407D01*
X82067452Y-98479078D01*
X82144171Y-98530340D01*
X82309998Y-98563325D01*
X82351855Y-98554999D01*
X83933961Y-98554999D01*
X84203962Y-98825000D01*
X83106250Y-98825000D01*
X83025000Y-98906250D01*
X83025000Y-99825000D01*
X84743750Y-99825000D01*
X84825000Y-99743750D01*
X84825000Y-99446039D01*
X85675001Y-100296040D01*
X85675000Y-100838144D01*
X85666674Y-100880002D01*
X85675000Y-100921859D01*
X85699659Y-101045828D01*
X85793592Y-101186410D01*
X85829081Y-101210123D01*
X86339879Y-101720922D01*
X86363590Y-101756408D01*
X86504171Y-101850341D01*
X86581864Y-101865795D01*
X86669998Y-101883326D01*
X86711855Y-101875000D01*
X91529716Y-101875000D01*
X92429715Y-102775000D01*
X90280387Y-102775000D01*
X90280387Y-102350000D01*
X90259044Y-102242701D01*
X90198264Y-102151736D01*
X90107299Y-102090956D01*
X90000000Y-102069613D01*
X86700000Y-102069613D01*
X86592701Y-102090956D01*
X86501736Y-102151736D01*
X86440956Y-102242701D01*
X86419613Y-102350000D01*
X86419613Y-104050000D01*
X86440956Y-104157299D01*
X86501736Y-104248264D01*
X86592701Y-104309044D01*
X86700000Y-104330387D01*
X90000000Y-104330387D01*
X90107299Y-104309044D01*
X90198264Y-104248264D01*
X90259044Y-104157299D01*
X90280387Y-104050000D01*
X90280387Y-103625000D01*
X95258143Y-103625000D01*
X95300000Y-103633326D01*
X95341857Y-103625000D01*
X95341858Y-103625000D01*
X95465827Y-103600341D01*
X95606408Y-103506408D01*
X95630120Y-103470920D01*
X95751041Y-103350000D01*
X96129334Y-103350000D01*
X96217701Y-103409044D01*
X96325000Y-103430387D01*
X97775000Y-103430387D01*
X97882299Y-103409044D01*
X97973264Y-103348264D01*
X98034044Y-103257299D01*
X98051891Y-103167575D01*
X98514312Y-103629998D01*
X98536628Y-103663396D01*
X98634063Y-103728500D01*
X98458211Y-103904352D01*
X98458210Y-103904354D01*
X98292221Y-104070343D01*
X98219161Y-104119160D01*
X98159910Y-104207836D01*
X98025769Y-104408592D01*
X97957858Y-104750000D01*
X97975001Y-104836182D01*
X97975000Y-106419613D01*
X97550000Y-106419613D01*
X97442701Y-106440956D01*
X97351736Y-106501736D01*
X97290956Y-106592701D01*
X97269613Y-106700000D01*
X97269613Y-108700000D01*
X97290956Y-108807299D01*
X97351736Y-108898264D01*
X97442701Y-108959044D01*
X97550000Y-108980387D01*
X98175001Y-108980387D01*
X98175000Y-112025572D01*
X98175001Y-112025576D01*
X98175001Y-112815382D01*
X98084098Y-112724479D01*
X97964647Y-112675000D01*
X97406250Y-112675000D01*
X97325000Y-112756250D01*
X97325000Y-113825000D01*
X97345000Y-113825000D01*
X97345000Y-114175000D01*
X97325000Y-114175000D01*
X97325000Y-115243750D01*
X97406250Y-115325000D01*
X97964647Y-115325000D01*
X98084098Y-115275521D01*
X98175522Y-115184097D01*
X98225000Y-115064646D01*
X98225000Y-114376939D01*
X98248977Y-114497479D01*
X98419613Y-114752854D01*
X98419613Y-115000000D01*
X98440956Y-115107299D01*
X98501736Y-115198264D01*
X98575001Y-115247217D01*
X98575001Y-115966749D01*
X98540956Y-116017701D01*
X98519613Y-116125000D01*
X98519613Y-116440904D01*
X98507858Y-116500000D01*
X98519613Y-116559096D01*
X98519613Y-116875000D01*
X98540956Y-116982299D01*
X98601736Y-117073264D01*
X98692701Y-117134044D01*
X98800000Y-117155387D01*
X98805900Y-117155387D01*
X99058592Y-117324231D01*
X99400000Y-117392142D01*
X99741408Y-117324231D01*
X99957780Y-117179656D01*
X99982049Y-117155387D01*
X100000000Y-117155387D01*
X100107299Y-117134044D01*
X100198264Y-117073264D01*
X100259044Y-116982299D01*
X100280387Y-116875000D01*
X100280387Y-116760465D01*
X100325000Y-116536179D01*
X100342142Y-116450000D01*
X100325000Y-116363821D01*
X100325000Y-115247217D01*
X100398264Y-115198264D01*
X100459044Y-115107299D01*
X100480387Y-115000000D01*
X100480387Y-114752855D01*
X100651023Y-114497480D01*
X100719613Y-114152655D01*
X100719613Y-115000000D01*
X100740956Y-115107299D01*
X100801736Y-115198264D01*
X100892701Y-115259044D01*
X100925001Y-115265469D01*
X100925000Y-116347917D01*
X100919613Y-116375000D01*
X100919613Y-117125000D01*
X100925000Y-117152084D01*
X100925001Y-117984560D01*
X100852520Y-117998977D01*
X100430777Y-118280777D01*
X100244372Y-118559753D01*
X100234097Y-118549478D01*
X100114646Y-118500000D01*
X99706250Y-118500000D01*
X99625000Y-118581250D01*
X99625000Y-119025000D01*
X99645000Y-119025000D01*
X99645000Y-119375000D01*
X99625000Y-119375000D01*
X99625000Y-119818750D01*
X99706250Y-119900000D01*
X100075000Y-119900000D01*
X100075000Y-119925000D01*
X99253743Y-119925000D01*
X99003743Y-119900000D01*
X99193750Y-119900000D01*
X99275000Y-119818750D01*
X99275000Y-119375000D01*
X98606250Y-119375000D01*
X98525000Y-119456250D01*
X98525000Y-119639647D01*
X98574479Y-119759098D01*
X98665903Y-119850522D01*
X98715850Y-119871211D01*
X96761907Y-119675816D01*
X94521408Y-119177928D01*
X93333628Y-118732510D01*
X93652388Y-118732510D01*
X93812944Y-118869221D01*
X94339635Y-118890441D01*
X94693340Y-118760353D01*
X98525000Y-118760353D01*
X98525000Y-118943750D01*
X98606250Y-119025000D01*
X99275000Y-119025000D01*
X99275000Y-118581250D01*
X99193750Y-118500000D01*
X98785354Y-118500000D01*
X98665903Y-118549478D01*
X98574479Y-118640902D01*
X98525000Y-118760353D01*
X94693340Y-118760353D01*
X94834354Y-118708490D01*
X95060544Y-118534927D01*
X95131234Y-118336254D01*
X94193683Y-117794959D01*
X93652388Y-118732510D01*
X93333628Y-118732510D01*
X92528708Y-118430665D01*
X91066250Y-117765911D01*
X92795093Y-117765911D01*
X92977044Y-118260630D01*
X93150607Y-118486820D01*
X93349280Y-118557510D01*
X93890575Y-117619959D01*
X93668686Y-117491851D01*
X94368683Y-117491851D01*
X95306234Y-118033146D01*
X95442945Y-117872590D01*
X95464165Y-117345899D01*
X95282214Y-116851180D01*
X95209372Y-116756250D01*
X96575000Y-116756250D01*
X96575000Y-116939647D01*
X96624479Y-117059098D01*
X96715903Y-117150522D01*
X96835354Y-117200000D01*
X97243750Y-117200000D01*
X97325000Y-117118750D01*
X97325000Y-116675000D01*
X97675000Y-116675000D01*
X97675000Y-117118750D01*
X97756250Y-117200000D01*
X98164646Y-117200000D01*
X98284097Y-117150522D01*
X98375521Y-117059098D01*
X98425000Y-116939647D01*
X98425000Y-116756250D01*
X98343750Y-116675000D01*
X97675000Y-116675000D01*
X97325000Y-116675000D01*
X96656250Y-116675000D01*
X96575000Y-116756250D01*
X95209372Y-116756250D01*
X95108651Y-116624990D01*
X94909978Y-116554300D01*
X94368683Y-117491851D01*
X93668686Y-117491851D01*
X92953024Y-117078664D01*
X92816313Y-117239220D01*
X92795093Y-117765911D01*
X91066250Y-117765911D01*
X89787669Y-117184738D01*
X89214815Y-116775556D01*
X93128024Y-116775556D01*
X94065575Y-117316851D01*
X94606870Y-116379300D01*
X94446314Y-116242589D01*
X93919623Y-116221369D01*
X93424904Y-116403320D01*
X93198714Y-116576883D01*
X93128024Y-116775556D01*
X89214815Y-116775556D01*
X88213530Y-116060353D01*
X96575000Y-116060353D01*
X96575000Y-116243750D01*
X96656250Y-116325000D01*
X97325000Y-116325000D01*
X97325000Y-115881250D01*
X97675000Y-115881250D01*
X97675000Y-116325000D01*
X98343750Y-116325000D01*
X98425000Y-116243750D01*
X98425000Y-116060353D01*
X98375521Y-115940902D01*
X98284097Y-115849478D01*
X98164646Y-115800000D01*
X97756250Y-115800000D01*
X97675000Y-115881250D01*
X97325000Y-115881250D01*
X97243750Y-115800000D01*
X96835354Y-115800000D01*
X96715903Y-115849478D01*
X96624479Y-115940902D01*
X96575000Y-116060353D01*
X88213530Y-116060353D01*
X88046287Y-115940894D01*
X86301000Y-114444934D01*
X86112316Y-114256250D01*
X96075000Y-114256250D01*
X96075000Y-115064646D01*
X96124478Y-115184097D01*
X96215902Y-115275521D01*
X96335353Y-115325000D01*
X96893750Y-115325000D01*
X96975000Y-115243750D01*
X96975000Y-114175000D01*
X96156250Y-114175000D01*
X96075000Y-114256250D01*
X86112316Y-114256250D01*
X84805969Y-112949903D01*
X83811717Y-111707088D01*
X83285697Y-110830387D01*
X84200000Y-110830387D01*
X84307299Y-110809044D01*
X84398264Y-110748264D01*
X84459044Y-110657299D01*
X84480387Y-110550000D01*
X84480387Y-110017823D01*
X84919613Y-110457049D01*
X84919613Y-110550000D01*
X84924993Y-110577046D01*
X84924993Y-110821884D01*
X84719099Y-111027778D01*
X84524992Y-111496395D01*
X84524992Y-112003621D01*
X84719099Y-112472238D01*
X85077762Y-112830901D01*
X85546379Y-113025008D01*
X86053605Y-113025008D01*
X86270049Y-112935354D01*
X96075000Y-112935354D01*
X96075000Y-113743750D01*
X96156250Y-113825000D01*
X96975000Y-113825000D01*
X96975000Y-112756250D01*
X96893750Y-112675000D01*
X96335353Y-112675000D01*
X96215902Y-112724479D01*
X96124478Y-112815903D01*
X96075000Y-112935354D01*
X86270049Y-112935354D01*
X86522222Y-112830901D01*
X86880885Y-112472238D01*
X87074992Y-112003621D01*
X87074992Y-111496395D01*
X86880885Y-111027778D01*
X86674992Y-110821885D01*
X86674992Y-110577123D01*
X86680387Y-110550000D01*
X86680387Y-110457049D01*
X87557777Y-109579659D01*
X87630840Y-109530840D01*
X87824232Y-109241408D01*
X87875000Y-108986179D01*
X87892142Y-108900001D01*
X87875000Y-108813823D01*
X87875000Y-107863821D01*
X87824232Y-107608592D01*
X87630840Y-107319160D01*
X87341407Y-107125768D01*
X87000000Y-107057858D01*
X86658592Y-107125768D01*
X86369160Y-107319160D01*
X86175768Y-107608593D01*
X86125000Y-107863822D01*
X86125001Y-108537563D01*
X85800000Y-108862564D01*
X85494113Y-108556677D01*
X85505387Y-108500000D01*
X85505387Y-107500000D01*
X85484044Y-107392701D01*
X85423264Y-107301736D01*
X85332299Y-107240956D01*
X85225000Y-107219613D01*
X85007026Y-107219613D01*
X84941407Y-107175768D01*
X84600000Y-107107858D01*
X84258592Y-107175768D01*
X84192973Y-107219613D01*
X84034981Y-107219613D01*
X84254594Y-107000000D01*
X88107858Y-107000000D01*
X88175768Y-107341408D01*
X88369160Y-107630840D01*
X88658592Y-107824232D01*
X88913821Y-107875000D01*
X91550153Y-107875000D01*
X91613472Y-108027865D01*
X91972135Y-108386528D01*
X92440752Y-108580635D01*
X92947978Y-108580635D01*
X93416595Y-108386528D01*
X93775258Y-108027865D01*
X93969365Y-107559248D01*
X93969365Y-107052022D01*
X93775258Y-106583405D01*
X93416595Y-106224742D01*
X92947978Y-106030635D01*
X92440752Y-106030635D01*
X92212934Y-106125000D01*
X88913821Y-106125000D01*
X88658592Y-106175768D01*
X88369160Y-106369160D01*
X88175768Y-106658592D01*
X88107858Y-107000000D01*
X84254594Y-107000000D01*
X84474207Y-106780387D01*
X85225000Y-106780387D01*
X85332299Y-106759044D01*
X85423264Y-106698264D01*
X85438808Y-106675000D01*
X86391750Y-106675000D01*
X86442701Y-106709044D01*
X86550000Y-106730387D01*
X86960601Y-106730387D01*
X87000000Y-106738224D01*
X87039399Y-106730387D01*
X87450000Y-106730387D01*
X87557299Y-106709044D01*
X87648264Y-106648264D01*
X87709044Y-106557299D01*
X87730387Y-106450000D01*
X87730387Y-105650000D01*
X87709044Y-105542701D01*
X87648264Y-105451736D01*
X87557299Y-105390956D01*
X87450000Y-105369613D01*
X87221527Y-105369613D01*
X87213372Y-105364164D01*
X87016481Y-105325000D01*
X86950000Y-105311776D01*
X86883519Y-105325000D01*
X85438808Y-105325000D01*
X85423264Y-105301736D01*
X85332299Y-105240956D01*
X85225000Y-105219613D01*
X83975000Y-105219613D01*
X83867701Y-105240956D01*
X83776736Y-105301736D01*
X83715956Y-105392701D01*
X83694613Y-105500000D01*
X83694613Y-105650793D01*
X82930387Y-106415019D01*
X82930387Y-105300000D01*
X82909044Y-105192701D01*
X82875000Y-105141750D01*
X82875000Y-104330387D01*
X84500000Y-104330387D01*
X84607299Y-104309044D01*
X84698264Y-104248264D01*
X84759044Y-104157299D01*
X84780387Y-104050000D01*
X84780387Y-102350000D01*
X84759044Y-102242701D01*
X84698264Y-102151736D01*
X84607299Y-102090956D01*
X84500000Y-102069613D01*
X81200000Y-102069613D01*
X81092701Y-102090956D01*
X81001736Y-102151736D01*
X80940956Y-102242701D01*
X80919613Y-102350000D01*
X80919613Y-104050000D01*
X80940956Y-104157299D01*
X81001736Y-104248264D01*
X81092701Y-104309044D01*
X81200000Y-104330387D01*
X81525001Y-104330387D01*
X81525000Y-105141749D01*
X81490956Y-105192701D01*
X81469613Y-105300000D01*
X81469613Y-106500000D01*
X81490956Y-106607299D01*
X81551736Y-106698264D01*
X81642701Y-106759044D01*
X81750000Y-106780387D01*
X82565020Y-106780387D01*
X82125794Y-107219613D01*
X81750000Y-107219613D01*
X81642701Y-107240956D01*
X81551736Y-107301736D01*
X81500355Y-107378634D01*
X81320469Y-106973890D01*
X80573451Y-104483830D01*
X80324342Y-102740065D01*
X80075000Y-100745329D01*
X80075000Y-100256250D01*
X80875000Y-100256250D01*
X80875000Y-100914647D01*
X80924479Y-101034098D01*
X81015903Y-101125522D01*
X81135354Y-101175000D01*
X82593750Y-101175000D01*
X82675000Y-101093750D01*
X82675000Y-100175000D01*
X83025000Y-100175000D01*
X83025000Y-101093750D01*
X83106250Y-101175000D01*
X84564646Y-101175000D01*
X84684097Y-101125522D01*
X84775521Y-101034098D01*
X84825000Y-100914647D01*
X84825000Y-100256250D01*
X84743750Y-100175000D01*
X83025000Y-100175000D01*
X82675000Y-100175000D01*
X80956250Y-100175000D01*
X80875000Y-100256250D01*
X80075000Y-100256250D01*
X80075000Y-99085353D01*
X80875000Y-99085353D01*
X80875000Y-99743750D01*
X80956250Y-99825000D01*
X82675000Y-99825000D01*
X82675000Y-98906250D01*
X82593750Y-98825000D01*
X81135354Y-98825000D01*
X81015903Y-98874478D01*
X80924479Y-98965902D01*
X80875000Y-99085353D01*
X80075000Y-99085353D01*
X80075000Y-98755736D01*
X80573295Y-95516816D01*
X81569521Y-92279084D01*
X83313369Y-89040508D01*
X83448157Y-88860791D01*
X83448157Y-89812480D01*
X83469500Y-89919779D01*
X83530280Y-90010744D01*
X83621245Y-90071524D01*
X83728544Y-90092867D01*
X87228544Y-90092867D01*
X87335843Y-90071524D01*
X87426808Y-90010744D01*
X87487588Y-89919779D01*
X87508931Y-89812480D01*
X87508931Y-88918730D01*
X88803544Y-88918730D01*
X88803544Y-89877127D01*
X88853023Y-89996578D01*
X88944447Y-90088002D01*
X89063898Y-90137480D01*
X90622294Y-90137480D01*
X90703544Y-90056230D01*
X90703544Y-88837480D01*
X88884794Y-88837480D01*
X88803544Y-88918730D01*
X87508931Y-88918730D01*
X87508931Y-88435214D01*
X88496312Y-87447833D01*
X88803544Y-87447833D01*
X88803544Y-88406230D01*
X88884794Y-88487480D01*
X90703544Y-88487480D01*
X90703544Y-87268730D01*
X91053544Y-87268730D01*
X91053544Y-88487480D01*
X92872294Y-88487480D01*
X92953544Y-88406230D01*
X92953544Y-87447833D01*
X92904065Y-87328382D01*
X92812641Y-87236958D01*
X92693190Y-87187480D01*
X91134794Y-87187480D01*
X91053544Y-87268730D01*
X90703544Y-87268730D01*
X90622294Y-87187480D01*
X89063898Y-87187480D01*
X88944447Y-87236958D01*
X88853023Y-87328382D01*
X88803544Y-87447833D01*
X88496312Y-87447833D01*
X88672228Y-87271918D01*
X88672230Y-87271917D01*
X88797760Y-87146387D01*
X93225000Y-87146387D01*
X93225000Y-87653613D01*
X93419107Y-88122230D01*
X93777770Y-88480893D01*
X94246387Y-88675000D01*
X94753613Y-88675000D01*
X95222230Y-88480893D01*
X95580893Y-88122230D01*
X95775000Y-87653613D01*
X95775000Y-87362437D01*
X96056202Y-87081235D01*
X96091408Y-87074232D01*
X96380840Y-86880840D01*
X96574232Y-86591408D01*
X96642142Y-86250000D01*
X96574232Y-85908592D01*
X96380840Y-85619160D01*
X96091408Y-85425768D01*
X95836179Y-85375000D01*
X95736179Y-85375000D01*
X95650000Y-85357858D01*
X95563821Y-85375000D01*
X95308592Y-85425768D01*
X95019160Y-85619160D01*
X94970343Y-85692220D01*
X94537563Y-86125000D01*
X94246387Y-86125000D01*
X93777770Y-86319107D01*
X93419107Y-86677770D01*
X93225000Y-87146387D01*
X88797760Y-87146387D01*
X89030893Y-86913254D01*
X89030894Y-86913251D01*
X90851279Y-85092867D01*
X92628544Y-85092867D01*
X92735843Y-85071524D01*
X92826808Y-85010744D01*
X92887588Y-84919779D01*
X92908931Y-84812480D01*
X92908931Y-84506250D01*
X94075000Y-84506250D01*
X94075000Y-84764646D01*
X94124478Y-84884097D01*
X94215902Y-84975521D01*
X94335353Y-85025000D01*
X94543750Y-85025000D01*
X94625000Y-84943750D01*
X94625000Y-84425000D01*
X94975000Y-84425000D01*
X94975000Y-84943750D01*
X95056250Y-85025000D01*
X95264647Y-85025000D01*
X95384098Y-84975521D01*
X95475522Y-84884097D01*
X95525000Y-84764646D01*
X95525000Y-84506250D01*
X95443750Y-84425000D01*
X94975000Y-84425000D01*
X94625000Y-84425000D01*
X94156250Y-84425000D01*
X94075000Y-84506250D01*
X92908931Y-84506250D01*
X92908931Y-83735354D01*
X94075000Y-83735354D01*
X94075000Y-83993750D01*
X94156250Y-84075000D01*
X94625000Y-84075000D01*
X94625000Y-83556250D01*
X94975000Y-83556250D01*
X94975000Y-84075000D01*
X95443750Y-84075000D01*
X95525000Y-83993750D01*
X95525000Y-83735354D01*
X95475522Y-83615903D01*
X95384098Y-83524479D01*
X95264647Y-83475000D01*
X95056250Y-83475000D01*
X94975000Y-83556250D01*
X94625000Y-83556250D01*
X94543750Y-83475000D01*
X94335353Y-83475000D01*
X94215902Y-83524479D01*
X94124478Y-83615903D01*
X94075000Y-83735354D01*
X92908931Y-83735354D01*
X92908931Y-82512480D01*
X92887588Y-82405181D01*
X92826808Y-82314216D01*
X92735843Y-82253436D01*
X92628544Y-82232093D01*
X90987977Y-82232093D01*
X91050000Y-82206250D01*
X100425000Y-82206250D01*
X100425000Y-83664646D01*
X100474478Y-83784097D01*
X100565902Y-83875521D01*
X100685353Y-83925000D01*
X101343750Y-83925000D01*
X101425000Y-83843750D01*
X101425000Y-82125000D01*
X101775000Y-82125000D01*
X101775000Y-83843750D01*
X101856250Y-83925000D01*
X102514647Y-83925000D01*
X102634098Y-83875521D01*
X102725522Y-83784097D01*
X102775000Y-83664646D01*
X102775000Y-82206250D01*
X102693750Y-82125000D01*
X101775000Y-82125000D01*
X101425000Y-82125000D01*
X100506250Y-82125000D01*
X100425000Y-82206250D01*
X91050000Y-82206250D01*
X93774393Y-81071086D01*
X96514094Y-80323895D01*
X98754151Y-80075000D01*
X100515381Y-80075000D01*
X100474478Y-80115903D01*
X100474478Y-80115903D01*
G37*
X100474478Y-80115903D02*
X100425000Y-80235354D01*
X100425000Y-81693750D01*
X100506250Y-81775000D01*
X101425000Y-81775000D01*
X101425000Y-81755000D01*
X101775000Y-81755000D01*
X101775000Y-81775000D01*
X102693750Y-81775000D01*
X102775000Y-81693750D01*
X102775000Y-80293618D01*
X102987321Y-80323950D01*
X105479346Y-80822355D01*
X107472047Y-81569618D01*
X109216518Y-82317248D01*
X109220657Y-82319613D01*
X107550000Y-82319613D01*
X107442701Y-82340956D01*
X107351736Y-82401736D01*
X107290956Y-82492701D01*
X107269613Y-82600000D01*
X107269613Y-82724999D01*
X105643856Y-82724999D01*
X105601998Y-82716673D01*
X105560141Y-82724999D01*
X105436172Y-82749658D01*
X105295591Y-82843591D01*
X105271880Y-82879077D01*
X104429079Y-83721879D01*
X104393593Y-83745590D01*
X104369882Y-83781076D01*
X104299659Y-83886172D01*
X104266674Y-84051998D01*
X104275001Y-84093860D01*
X104275000Y-84858142D01*
X104266674Y-84900000D01*
X104276823Y-84951023D01*
X104299659Y-85065826D01*
X104393592Y-85206408D01*
X104429081Y-85230121D01*
X105219613Y-86020654D01*
X105219613Y-86900000D01*
X105240956Y-87007299D01*
X105301736Y-87098264D01*
X105392701Y-87159044D01*
X105500000Y-87180387D01*
X106400000Y-87180387D01*
X106507299Y-87159044D01*
X106598264Y-87098264D01*
X106659044Y-87007299D01*
X106680387Y-86900000D01*
X106680387Y-85700000D01*
X106659044Y-85592701D01*
X106598264Y-85501736D01*
X106507299Y-85440956D01*
X106400000Y-85419613D01*
X105820654Y-85419613D01*
X105125000Y-84723960D01*
X105125000Y-84228038D01*
X105778040Y-83574999D01*
X107269613Y-83574999D01*
X107269613Y-84900000D01*
X107290956Y-85007299D01*
X107351736Y-85098264D01*
X107442701Y-85159044D01*
X107550000Y-85180387D01*
X108987268Y-85180387D01*
X110669106Y-86862226D01*
X110669107Y-86862228D01*
X111027770Y-87220891D01*
X111027773Y-87220892D01*
X111081881Y-87275000D01*
X109556250Y-87275000D01*
X109475000Y-87356250D01*
X109475000Y-88575000D01*
X111293750Y-88575000D01*
X111375000Y-88493750D01*
X111375000Y-87568119D01*
X112669613Y-88862733D01*
X112669613Y-89900000D01*
X112690956Y-90007299D01*
X112751736Y-90098264D01*
X112842701Y-90159044D01*
X112950000Y-90180387D01*
X116450000Y-90180387D01*
X116557299Y-90159044D01*
X116648264Y-90098264D01*
X116709044Y-90007299D01*
X116730387Y-89900000D01*
X116730387Y-89304344D01*
X117219613Y-90160489D01*
X117219613Y-90692951D01*
X116075000Y-91837564D01*
X116075000Y-91446387D01*
X115880893Y-90977770D01*
X115522230Y-90619107D01*
X115053613Y-90425000D01*
X114546387Y-90425000D01*
X114077770Y-90619107D01*
X113719107Y-90977770D01*
X113525000Y-91446387D01*
X113525000Y-91625000D01*
X111913821Y-91625000D01*
X111658592Y-91675768D01*
X111369160Y-91869160D01*
X111175768Y-92158592D01*
X111107858Y-92500000D01*
X111175768Y-92841408D01*
X111369160Y-93130840D01*
X111658592Y-93324232D01*
X111913821Y-93375000D01*
X113913822Y-93375000D01*
X114000000Y-93392142D01*
X114086178Y-93375000D01*
X114086179Y-93375000D01*
X114341408Y-93324232D01*
X114630840Y-93130840D01*
X114679659Y-93057777D01*
X114762436Y-92975000D01*
X114937564Y-92975000D01*
X114287564Y-93625000D01*
X113036179Y-93625000D01*
X112950000Y-93607858D01*
X112863821Y-93625000D01*
X112608592Y-93675768D01*
X112319160Y-93869160D01*
X112125768Y-94158592D01*
X112057858Y-94500000D01*
X112075001Y-94586184D01*
X112075000Y-96347917D01*
X112069613Y-96375000D01*
X112069613Y-96690904D01*
X112057858Y-96750000D01*
X112069613Y-96809096D01*
X112069613Y-97027152D01*
X111930387Y-96887926D01*
X111930387Y-96375000D01*
X111909044Y-96267701D01*
X111848264Y-96176736D01*
X111757299Y-96115956D01*
X111650000Y-96094613D01*
X111575000Y-96094613D01*
X111575000Y-95197217D01*
X111648264Y-95148264D01*
X111709044Y-95057299D01*
X111730387Y-94950000D01*
X111730387Y-94050000D01*
X111709044Y-93942701D01*
X111648264Y-93851736D01*
X111557299Y-93790956D01*
X111450000Y-93769613D01*
X110650000Y-93769613D01*
X110542701Y-93790956D01*
X110451736Y-93851736D01*
X110390956Y-93942701D01*
X110369613Y-94050000D01*
X110369613Y-94950000D01*
X110390956Y-95057299D01*
X110451736Y-95148264D01*
X110525000Y-95197217D01*
X110525001Y-96094613D01*
X110450000Y-96094613D01*
X110342701Y-96115956D01*
X110281903Y-96156579D01*
X110206408Y-96043592D01*
X110170922Y-96019881D01*
X109081427Y-94930387D01*
X109350000Y-94930387D01*
X109457299Y-94909044D01*
X109548264Y-94848264D01*
X109609044Y-94757299D01*
X109630387Y-94650000D01*
X109630387Y-91350000D01*
X109609044Y-91242701D01*
X109548264Y-91151736D01*
X109457299Y-91090956D01*
X109350000Y-91069613D01*
X107650000Y-91069613D01*
X107542701Y-91090956D01*
X107451736Y-91151736D01*
X107390956Y-91242701D01*
X107369613Y-91350000D01*
X107369613Y-94650000D01*
X107390956Y-94757299D01*
X107451736Y-94848264D01*
X107542701Y-94909044D01*
X107650000Y-94930387D01*
X108070575Y-94930387D01*
X108066674Y-94950000D01*
X108085291Y-95043592D01*
X108099659Y-95115826D01*
X108193592Y-95256408D01*
X108229081Y-95280121D01*
X109475001Y-96526042D01*
X109475001Y-96602784D01*
X109457299Y-96590956D01*
X109350000Y-96569613D01*
X107650000Y-96569613D01*
X107542701Y-96590956D01*
X107451736Y-96651736D01*
X107390956Y-96742701D01*
X107369613Y-96850000D01*
X107369613Y-100150000D01*
X107390956Y-100257299D01*
X107451736Y-100348264D01*
X107542701Y-100409044D01*
X107650000Y-100430387D01*
X108225001Y-100430387D01*
X108225001Y-100584531D01*
X108150000Y-100569613D01*
X106650000Y-100569613D01*
X106542701Y-100590956D01*
X106451736Y-100651736D01*
X106390956Y-100742701D01*
X106369613Y-100850000D01*
X106369613Y-102025000D01*
X106154290Y-102025000D01*
X106200000Y-101914646D01*
X106200000Y-101506250D01*
X106118750Y-101425000D01*
X105675000Y-101425000D01*
X105675000Y-101445000D01*
X105325000Y-101445000D01*
X105325000Y-101425000D01*
X105305000Y-101425000D01*
X105305000Y-101075000D01*
X105325000Y-101075000D01*
X105325000Y-100406250D01*
X105675000Y-100406250D01*
X105675000Y-101075000D01*
X106118750Y-101075000D01*
X106200000Y-100993750D01*
X106200000Y-100585354D01*
X106150522Y-100465903D01*
X106059098Y-100374479D01*
X105939647Y-100325000D01*
X105756250Y-100325000D01*
X105675000Y-100406250D01*
X105325000Y-100406250D01*
X105243750Y-100325000D01*
X105060353Y-100325000D01*
X104940902Y-100374479D01*
X104849478Y-100465903D01*
X104800000Y-100585354D01*
X104800000Y-100993750D01*
X104881248Y-101074998D01*
X104800000Y-101074998D01*
X104800000Y-101233663D01*
X104777507Y-101200000D01*
X104706408Y-101093592D01*
X104670922Y-101069881D01*
X104305121Y-100704080D01*
X104281408Y-100668592D01*
X104140827Y-100574659D01*
X104016858Y-100550000D01*
X104016857Y-100550000D01*
X104000000Y-100546647D01*
X104000000Y-100518750D01*
X103918750Y-100437500D01*
X103125000Y-100437500D01*
X103125000Y-100469613D01*
X102775000Y-100469613D01*
X102775000Y-100437500D01*
X101981250Y-100437500D01*
X101900000Y-100518750D01*
X101900000Y-100614647D01*
X101948329Y-100731321D01*
X101944613Y-100750000D01*
X101944613Y-101200000D01*
X101741855Y-101200000D01*
X101699999Y-101191674D01*
X101658143Y-101200000D01*
X101658142Y-101200000D01*
X101534173Y-101224659D01*
X101393592Y-101318592D01*
X101369881Y-101354078D01*
X101298959Y-101425000D01*
X101090734Y-101425000D01*
X100842643Y-101527763D01*
X100652763Y-101717643D01*
X100616450Y-101805310D01*
X100491789Y-101504352D01*
X100275000Y-101287563D01*
X100275000Y-100175000D01*
X100544292Y-100175000D01*
X100595998Y-100185285D01*
X100647704Y-100175000D01*
X100653471Y-100173853D01*
X100672478Y-100170072D01*
X100800843Y-100144539D01*
X100974502Y-100028504D01*
X101003795Y-99984664D01*
X101013459Y-99975000D01*
X101614310Y-99975000D01*
X101618592Y-99981408D01*
X101732909Y-100057792D01*
X101759173Y-100075341D01*
X101900000Y-100103353D01*
X101900000Y-100131250D01*
X101981250Y-100212500D01*
X102775000Y-100212500D01*
X102775000Y-100180387D01*
X103125000Y-100180387D01*
X103125000Y-100212500D01*
X103918750Y-100212500D01*
X104000000Y-100131250D01*
X104000000Y-100100000D01*
X104894487Y-100100000D01*
X104926736Y-100148264D01*
X105017701Y-100209044D01*
X105125000Y-100230387D01*
X105875000Y-100230387D01*
X105982299Y-100209044D01*
X106073264Y-100148264D01*
X106134044Y-100057299D01*
X106155387Y-99950000D01*
X106155387Y-98750000D01*
X106134044Y-98642701D01*
X106073264Y-98551736D01*
X105982299Y-98490956D01*
X105875000Y-98469613D01*
X105245667Y-98469613D01*
X105984894Y-97730387D01*
X106650000Y-97730387D01*
X106757299Y-97709044D01*
X106848264Y-97648264D01*
X106909044Y-97557299D01*
X106930387Y-97450000D01*
X106930387Y-95950000D01*
X106909044Y-95842701D01*
X106848264Y-95751736D01*
X106757299Y-95690956D01*
X106650000Y-95669613D01*
X105150000Y-95669613D01*
X105042701Y-95690956D01*
X104975010Y-95736185D01*
X104975010Y-95163815D01*
X105042701Y-95209044D01*
X105150000Y-95230387D01*
X106650000Y-95230387D01*
X106757299Y-95209044D01*
X106848264Y-95148264D01*
X106909044Y-95057299D01*
X106930387Y-94950000D01*
X106930387Y-93450000D01*
X106909044Y-93342701D01*
X106848264Y-93251736D01*
X106757299Y-93190956D01*
X106650000Y-93169613D01*
X105150000Y-93169613D01*
X105042701Y-93190956D01*
X104951736Y-93251736D01*
X104890956Y-93342701D01*
X104869613Y-93450000D01*
X104869613Y-93770575D01*
X104850000Y-93766674D01*
X104808142Y-93775000D01*
X104684173Y-93799659D01*
X104543592Y-93893592D01*
X104519881Y-93929078D01*
X104475000Y-93973959D01*
X104475000Y-90861855D01*
X104483326Y-90819997D01*
X104450341Y-90654171D01*
X104412500Y-90597538D01*
X104356408Y-90513590D01*
X104320920Y-90489878D01*
X104160111Y-90329069D01*
X104136398Y-90293580D01*
X103995817Y-90199647D01*
X103871848Y-90174988D01*
X103871847Y-90174988D01*
X103829990Y-90166662D01*
X103788133Y-90174988D01*
X100233591Y-90174988D01*
X100288406Y-90138362D01*
X100310725Y-90104959D01*
X101035297Y-89380387D01*
X102450000Y-89380387D01*
X102557299Y-89359044D01*
X102648264Y-89298264D01*
X102709044Y-89207299D01*
X102730387Y-89100000D01*
X102730387Y-88925000D01*
X103219613Y-88925000D01*
X103219613Y-89100000D01*
X103240956Y-89207299D01*
X103301736Y-89298264D01*
X103392701Y-89359044D01*
X103500000Y-89380387D01*
X104400000Y-89380387D01*
X104507299Y-89359044D01*
X104598264Y-89298264D01*
X104659044Y-89207299D01*
X104680387Y-89100000D01*
X104680387Y-88925000D01*
X105219613Y-88925000D01*
X105219613Y-89100000D01*
X105240956Y-89207299D01*
X105301736Y-89298264D01*
X105392701Y-89359044D01*
X105500000Y-89380387D01*
X106400000Y-89380387D01*
X106507299Y-89359044D01*
X106598264Y-89298264D01*
X106659044Y-89207299D01*
X106680387Y-89100000D01*
X106680387Y-89006250D01*
X107225000Y-89006250D01*
X107225000Y-89964647D01*
X107274479Y-90084098D01*
X107365903Y-90175522D01*
X107485354Y-90225000D01*
X109043750Y-90225000D01*
X109125000Y-90143750D01*
X109125000Y-88925000D01*
X109475000Y-88925000D01*
X109475000Y-90143750D01*
X109556250Y-90225000D01*
X111114646Y-90225000D01*
X111234097Y-90175522D01*
X111325521Y-90084098D01*
X111375000Y-89964647D01*
X111375000Y-89006250D01*
X111293750Y-88925000D01*
X109475000Y-88925000D01*
X109125000Y-88925000D01*
X107306250Y-88925000D01*
X107225000Y-89006250D01*
X106680387Y-89006250D01*
X106680387Y-87900000D01*
X106659044Y-87792701D01*
X106598264Y-87701736D01*
X106507299Y-87640956D01*
X106400000Y-87619613D01*
X105500000Y-87619613D01*
X105392701Y-87640956D01*
X105301736Y-87701736D01*
X105240956Y-87792701D01*
X105219613Y-87900000D01*
X105219613Y-88075000D01*
X104680387Y-88075000D01*
X104680387Y-87900000D01*
X104659044Y-87792701D01*
X104598264Y-87701736D01*
X104507299Y-87640956D01*
X104400000Y-87619613D01*
X103500000Y-87619613D01*
X103392701Y-87640956D01*
X103301736Y-87701736D01*
X103240956Y-87792701D01*
X103219613Y-87900000D01*
X103219613Y-88075000D01*
X102826041Y-88075000D01*
X102730387Y-87979346D01*
X102730387Y-87535353D01*
X107225000Y-87535353D01*
X107225000Y-88493750D01*
X107306250Y-88575000D01*
X109125000Y-88575000D01*
X109125000Y-87356250D01*
X109043750Y-87275000D01*
X107485354Y-87275000D01*
X107365903Y-87324478D01*
X107274479Y-87415902D01*
X107225000Y-87535353D01*
X102730387Y-87535353D01*
X102730387Y-86556250D01*
X103175000Y-86556250D01*
X103175000Y-86964646D01*
X103224478Y-87084097D01*
X103315902Y-87175521D01*
X103435353Y-87225000D01*
X103693750Y-87225000D01*
X103775000Y-87143750D01*
X103775000Y-86475000D01*
X104125000Y-86475000D01*
X104125000Y-87143750D01*
X104206250Y-87225000D01*
X104464647Y-87225000D01*
X104584098Y-87175521D01*
X104675522Y-87084097D01*
X104725000Y-86964646D01*
X104725000Y-86556250D01*
X104643750Y-86475000D01*
X104125000Y-86475000D01*
X103775000Y-86475000D01*
X103256250Y-86475000D01*
X103175000Y-86556250D01*
X102730387Y-86556250D01*
X102730387Y-85800000D01*
X102709044Y-85692701D01*
X102670727Y-85635354D01*
X103175000Y-85635354D01*
X103175000Y-86043750D01*
X103256250Y-86125000D01*
X103775000Y-86125000D01*
X103775000Y-85456250D01*
X104125000Y-85456250D01*
X104125000Y-86125000D01*
X104643750Y-86125000D01*
X104725000Y-86043750D01*
X104725000Y-85635354D01*
X104675522Y-85515903D01*
X104584098Y-85424479D01*
X104464647Y-85375000D01*
X104206250Y-85375000D01*
X104125000Y-85456250D01*
X103775000Y-85456250D01*
X103693750Y-85375000D01*
X103435353Y-85375000D01*
X103315902Y-85424479D01*
X103224478Y-85515903D01*
X103175000Y-85635354D01*
X102670727Y-85635354D01*
X102648264Y-85601736D01*
X102557299Y-85540956D01*
X102450000Y-85519613D01*
X100750000Y-85519613D01*
X100642701Y-85540956D01*
X100551736Y-85601736D01*
X100490956Y-85692701D01*
X100469613Y-85800000D01*
X100469613Y-88814703D01*
X99834338Y-89449978D01*
X98529669Y-89449978D01*
X98357432Y-89277741D01*
X98236744Y-89227750D01*
X98250000Y-89230387D01*
X99450000Y-89230387D01*
X99557299Y-89209044D01*
X99648264Y-89148264D01*
X99709044Y-89057299D01*
X99730387Y-88950000D01*
X99730387Y-88050000D01*
X99709044Y-87942701D01*
X99648264Y-87851736D01*
X99557299Y-87790956D01*
X99450000Y-87769613D01*
X98250000Y-87769613D01*
X98142701Y-87790956D01*
X98051736Y-87851736D01*
X97990956Y-87942701D01*
X97969613Y-88050000D01*
X97969613Y-88152632D01*
X97908312Y-88193592D01*
X97884602Y-88229077D01*
X97530387Y-88583292D01*
X97530387Y-88050000D01*
X97509044Y-87942701D01*
X97448264Y-87851736D01*
X97357299Y-87790956D01*
X97250000Y-87769613D01*
X97175000Y-87769613D01*
X97175000Y-87767461D01*
X97934667Y-87007795D01*
X97978504Y-86978504D01*
X98094539Y-86804845D01*
X98110421Y-86725000D01*
X98344613Y-86725000D01*
X98344613Y-86800000D01*
X98365956Y-86907299D01*
X98426736Y-86998264D01*
X98517701Y-87059044D01*
X98625000Y-87080387D01*
X99375000Y-87080387D01*
X99482299Y-87059044D01*
X99573264Y-86998264D01*
X99634044Y-86907299D01*
X99655387Y-86800000D01*
X99655387Y-85600000D01*
X99634044Y-85492701D01*
X99573264Y-85401736D01*
X99482299Y-85340956D01*
X99375000Y-85319613D01*
X98625000Y-85319613D01*
X98517701Y-85340956D01*
X98426736Y-85401736D01*
X98365956Y-85492701D01*
X98344613Y-85600000D01*
X98344613Y-85675000D01*
X98125000Y-85675000D01*
X98125000Y-85251705D01*
X98135285Y-85199999D01*
X98094539Y-84995155D01*
X98077452Y-84969583D01*
X97978504Y-84821496D01*
X97934668Y-84792206D01*
X97698712Y-84556250D01*
X98300000Y-84556250D01*
X98300000Y-84964646D01*
X98349478Y-85084097D01*
X98440902Y-85175521D01*
X98560353Y-85225000D01*
X98743750Y-85225000D01*
X98825000Y-85143750D01*
X98825000Y-84475000D01*
X99175000Y-84475000D01*
X99175000Y-85143750D01*
X99256250Y-85225000D01*
X99439647Y-85225000D01*
X99559098Y-85175521D01*
X99650522Y-85084097D01*
X99700000Y-84964646D01*
X99700000Y-84556250D01*
X99618750Y-84475000D01*
X99175000Y-84475000D01*
X98825000Y-84475000D01*
X98381250Y-84475000D01*
X98300000Y-84556250D01*
X97698712Y-84556250D01*
X97380387Y-84237926D01*
X97380387Y-83800000D01*
X97359044Y-83692701D01*
X97320727Y-83635354D01*
X98300000Y-83635354D01*
X98300000Y-84043750D01*
X98381250Y-84125000D01*
X98825000Y-84125000D01*
X98825000Y-83456250D01*
X99175000Y-83456250D01*
X99175000Y-84125000D01*
X99618750Y-84125000D01*
X99700000Y-84043750D01*
X99700000Y-83635354D01*
X99650522Y-83515903D01*
X99559098Y-83424479D01*
X99439647Y-83375000D01*
X99256250Y-83375000D01*
X99175000Y-83456250D01*
X98825000Y-83456250D01*
X98743750Y-83375000D01*
X98560353Y-83375000D01*
X98440902Y-83424479D01*
X98349478Y-83515903D01*
X98300000Y-83635354D01*
X97320727Y-83635354D01*
X97298264Y-83601736D01*
X97207299Y-83540956D01*
X97100000Y-83519613D01*
X96300000Y-83519613D01*
X96192701Y-83540956D01*
X96101736Y-83601736D01*
X96040956Y-83692701D01*
X96019613Y-83800000D01*
X96019613Y-84700000D01*
X96040956Y-84807299D01*
X96101736Y-84898264D01*
X96192701Y-84959044D01*
X96300000Y-84980387D01*
X96637926Y-84980387D01*
X97075000Y-85417462D01*
X97075001Y-86148289D01*
X97064715Y-86200000D01*
X97075000Y-86251706D01*
X97075000Y-86382538D01*
X96315335Y-87142203D01*
X96271496Y-87171496D01*
X96166669Y-87328382D01*
X96155461Y-87345156D01*
X96114715Y-87550000D01*
X96125000Y-87601707D01*
X96125000Y-87769613D01*
X96050000Y-87769613D01*
X95942701Y-87790956D01*
X95851736Y-87851736D01*
X95790956Y-87942701D01*
X95769613Y-88050000D01*
X95769613Y-88950000D01*
X95790956Y-89057299D01*
X95851736Y-89148264D01*
X95942701Y-89209044D01*
X96050000Y-89230387D01*
X96883293Y-89230387D01*
X96438703Y-89674977D01*
X93341880Y-89674977D01*
X93300023Y-89666651D01*
X93258165Y-89674977D01*
X93134196Y-89699636D01*
X92993615Y-89793569D01*
X92969904Y-89829055D01*
X92953544Y-89845415D01*
X92953544Y-88918730D01*
X92872294Y-88837480D01*
X91053544Y-88837480D01*
X91053544Y-90056230D01*
X91134794Y-90137480D01*
X92661480Y-90137480D01*
X92523960Y-90275000D01*
X91827612Y-90275000D01*
X91785756Y-90266674D01*
X91743900Y-90275000D01*
X91743899Y-90275000D01*
X91619930Y-90299659D01*
X91479349Y-90393592D01*
X91455638Y-90429078D01*
X87709728Y-94174989D01*
X83241868Y-94174989D01*
X83200010Y-94166663D01*
X83140944Y-94178412D01*
X83034184Y-94199648D01*
X82893603Y-94293581D01*
X82869892Y-94329067D01*
X81479079Y-95719881D01*
X81443593Y-95743592D01*
X81419882Y-95779078D01*
X81349659Y-95884174D01*
X81316674Y-96050000D01*
X81325001Y-96091862D01*
X81325000Y-97528143D01*
X81316674Y-97570001D01*
X81325000Y-97611858D01*
X81349659Y-97735827D01*
X81443592Y-97876409D01*
X81479081Y-97900122D01*
X81979879Y-98400921D01*
X82003590Y-98436407D01*
X82067452Y-98479078D01*
X82144171Y-98530340D01*
X82309998Y-98563325D01*
X82351855Y-98554999D01*
X83933961Y-98554999D01*
X84203962Y-98825000D01*
X83106250Y-98825000D01*
X83025000Y-98906250D01*
X83025000Y-99825000D01*
X84743750Y-99825000D01*
X84825000Y-99743750D01*
X84825000Y-99446039D01*
X85675001Y-100296040D01*
X85675000Y-100838144D01*
X85666674Y-100880002D01*
X85675000Y-100921859D01*
X85699659Y-101045828D01*
X85793592Y-101186410D01*
X85829081Y-101210123D01*
X86339879Y-101720922D01*
X86363590Y-101756408D01*
X86504171Y-101850341D01*
X86581864Y-101865795D01*
X86669998Y-101883326D01*
X86711855Y-101875000D01*
X91529716Y-101875000D01*
X92429715Y-102775000D01*
X90280387Y-102775000D01*
X90280387Y-102350000D01*
X90259044Y-102242701D01*
X90198264Y-102151736D01*
X90107299Y-102090956D01*
X90000000Y-102069613D01*
X86700000Y-102069613D01*
X86592701Y-102090956D01*
X86501736Y-102151736D01*
X86440956Y-102242701D01*
X86419613Y-102350000D01*
X86419613Y-104050000D01*
X86440956Y-104157299D01*
X86501736Y-104248264D01*
X86592701Y-104309044D01*
X86700000Y-104330387D01*
X90000000Y-104330387D01*
X90107299Y-104309044D01*
X90198264Y-104248264D01*
X90259044Y-104157299D01*
X90280387Y-104050000D01*
X90280387Y-103625000D01*
X95258143Y-103625000D01*
X95300000Y-103633326D01*
X95341857Y-103625000D01*
X95341858Y-103625000D01*
X95465827Y-103600341D01*
X95606408Y-103506408D01*
X95630120Y-103470920D01*
X95751041Y-103350000D01*
X96129334Y-103350000D01*
X96217701Y-103409044D01*
X96325000Y-103430387D01*
X97775000Y-103430387D01*
X97882299Y-103409044D01*
X97973264Y-103348264D01*
X98034044Y-103257299D01*
X98051891Y-103167575D01*
X98514312Y-103629998D01*
X98536628Y-103663396D01*
X98634063Y-103728500D01*
X98458211Y-103904352D01*
X98458210Y-103904354D01*
X98292221Y-104070343D01*
X98219161Y-104119160D01*
X98159910Y-104207836D01*
X98025769Y-104408592D01*
X97957858Y-104750000D01*
X97975001Y-104836182D01*
X97975000Y-106419613D01*
X97550000Y-106419613D01*
X97442701Y-106440956D01*
X97351736Y-106501736D01*
X97290956Y-106592701D01*
X97269613Y-106700000D01*
X97269613Y-108700000D01*
X97290956Y-108807299D01*
X97351736Y-108898264D01*
X97442701Y-108959044D01*
X97550000Y-108980387D01*
X98175001Y-108980387D01*
X98175000Y-112025572D01*
X98175001Y-112025576D01*
X98175001Y-112815382D01*
X98084098Y-112724479D01*
X97964647Y-112675000D01*
X97406250Y-112675000D01*
X97325000Y-112756250D01*
X97325000Y-113825000D01*
X97345000Y-113825000D01*
X97345000Y-114175000D01*
X97325000Y-114175000D01*
X97325000Y-115243750D01*
X97406250Y-115325000D01*
X97964647Y-115325000D01*
X98084098Y-115275521D01*
X98175522Y-115184097D01*
X98225000Y-115064646D01*
X98225000Y-114376939D01*
X98248977Y-114497479D01*
X98419613Y-114752854D01*
X98419613Y-115000000D01*
X98440956Y-115107299D01*
X98501736Y-115198264D01*
X98575001Y-115247217D01*
X98575001Y-115966749D01*
X98540956Y-116017701D01*
X98519613Y-116125000D01*
X98519613Y-116440904D01*
X98507858Y-116500000D01*
X98519613Y-116559096D01*
X98519613Y-116875000D01*
X98540956Y-116982299D01*
X98601736Y-117073264D01*
X98692701Y-117134044D01*
X98800000Y-117155387D01*
X98805900Y-117155387D01*
X99058592Y-117324231D01*
X99400000Y-117392142D01*
X99741408Y-117324231D01*
X99957780Y-117179656D01*
X99982049Y-117155387D01*
X100000000Y-117155387D01*
X100107299Y-117134044D01*
X100198264Y-117073264D01*
X100259044Y-116982299D01*
X100280387Y-116875000D01*
X100280387Y-116760465D01*
X100325000Y-116536179D01*
X100342142Y-116450000D01*
X100325000Y-116363821D01*
X100325000Y-115247217D01*
X100398264Y-115198264D01*
X100459044Y-115107299D01*
X100480387Y-115000000D01*
X100480387Y-114752855D01*
X100651023Y-114497480D01*
X100719613Y-114152655D01*
X100719613Y-115000000D01*
X100740956Y-115107299D01*
X100801736Y-115198264D01*
X100892701Y-115259044D01*
X100925001Y-115265469D01*
X100925000Y-116347917D01*
X100919613Y-116375000D01*
X100919613Y-117125000D01*
X100925000Y-117152084D01*
X100925001Y-117984560D01*
X100852520Y-117998977D01*
X100430777Y-118280777D01*
X100244372Y-118559753D01*
X100234097Y-118549478D01*
X100114646Y-118500000D01*
X99706250Y-118500000D01*
X99625000Y-118581250D01*
X99625000Y-119025000D01*
X99645000Y-119025000D01*
X99645000Y-119375000D01*
X99625000Y-119375000D01*
X99625000Y-119818750D01*
X99706250Y-119900000D01*
X100075000Y-119900000D01*
X100075000Y-119925000D01*
X99253743Y-119925000D01*
X99003743Y-119900000D01*
X99193750Y-119900000D01*
X99275000Y-119818750D01*
X99275000Y-119375000D01*
X98606250Y-119375000D01*
X98525000Y-119456250D01*
X98525000Y-119639647D01*
X98574479Y-119759098D01*
X98665903Y-119850522D01*
X98715850Y-119871211D01*
X96761907Y-119675816D01*
X94521408Y-119177928D01*
X93333628Y-118732510D01*
X93652388Y-118732510D01*
X93812944Y-118869221D01*
X94339635Y-118890441D01*
X94693340Y-118760353D01*
X98525000Y-118760353D01*
X98525000Y-118943750D01*
X98606250Y-119025000D01*
X99275000Y-119025000D01*
X99275000Y-118581250D01*
X99193750Y-118500000D01*
X98785354Y-118500000D01*
X98665903Y-118549478D01*
X98574479Y-118640902D01*
X98525000Y-118760353D01*
X94693340Y-118760353D01*
X94834354Y-118708490D01*
X95060544Y-118534927D01*
X95131234Y-118336254D01*
X94193683Y-117794959D01*
X93652388Y-118732510D01*
X93333628Y-118732510D01*
X92528708Y-118430665D01*
X91066250Y-117765911D01*
X92795093Y-117765911D01*
X92977044Y-118260630D01*
X93150607Y-118486820D01*
X93349280Y-118557510D01*
X93890575Y-117619959D01*
X93668686Y-117491851D01*
X94368683Y-117491851D01*
X95306234Y-118033146D01*
X95442945Y-117872590D01*
X95464165Y-117345899D01*
X95282214Y-116851180D01*
X95209372Y-116756250D01*
X96575000Y-116756250D01*
X96575000Y-116939647D01*
X96624479Y-117059098D01*
X96715903Y-117150522D01*
X96835354Y-117200000D01*
X97243750Y-117200000D01*
X97325000Y-117118750D01*
X97325000Y-116675000D01*
X97675000Y-116675000D01*
X97675000Y-117118750D01*
X97756250Y-117200000D01*
X98164646Y-117200000D01*
X98284097Y-117150522D01*
X98375521Y-117059098D01*
X98425000Y-116939647D01*
X98425000Y-116756250D01*
X98343750Y-116675000D01*
X97675000Y-116675000D01*
X97325000Y-116675000D01*
X96656250Y-116675000D01*
X96575000Y-116756250D01*
X95209372Y-116756250D01*
X95108651Y-116624990D01*
X94909978Y-116554300D01*
X94368683Y-117491851D01*
X93668686Y-117491851D01*
X92953024Y-117078664D01*
X92816313Y-117239220D01*
X92795093Y-117765911D01*
X91066250Y-117765911D01*
X89787669Y-117184738D01*
X89214815Y-116775556D01*
X93128024Y-116775556D01*
X94065575Y-117316851D01*
X94606870Y-116379300D01*
X94446314Y-116242589D01*
X93919623Y-116221369D01*
X93424904Y-116403320D01*
X93198714Y-116576883D01*
X93128024Y-116775556D01*
X89214815Y-116775556D01*
X88213530Y-116060353D01*
X96575000Y-116060353D01*
X96575000Y-116243750D01*
X96656250Y-116325000D01*
X97325000Y-116325000D01*
X97325000Y-115881250D01*
X97675000Y-115881250D01*
X97675000Y-116325000D01*
X98343750Y-116325000D01*
X98425000Y-116243750D01*
X98425000Y-116060353D01*
X98375521Y-115940902D01*
X98284097Y-115849478D01*
X98164646Y-115800000D01*
X97756250Y-115800000D01*
X97675000Y-115881250D01*
X97325000Y-115881250D01*
X97243750Y-115800000D01*
X96835354Y-115800000D01*
X96715903Y-115849478D01*
X96624479Y-115940902D01*
X96575000Y-116060353D01*
X88213530Y-116060353D01*
X88046287Y-115940894D01*
X86301000Y-114444934D01*
X86112316Y-114256250D01*
X96075000Y-114256250D01*
X96075000Y-115064646D01*
X96124478Y-115184097D01*
X96215902Y-115275521D01*
X96335353Y-115325000D01*
X96893750Y-115325000D01*
X96975000Y-115243750D01*
X96975000Y-114175000D01*
X96156250Y-114175000D01*
X96075000Y-114256250D01*
X86112316Y-114256250D01*
X84805969Y-112949903D01*
X83811717Y-111707088D01*
X83285697Y-110830387D01*
X84200000Y-110830387D01*
X84307299Y-110809044D01*
X84398264Y-110748264D01*
X84459044Y-110657299D01*
X84480387Y-110550000D01*
X84480387Y-110017823D01*
X84919613Y-110457049D01*
X84919613Y-110550000D01*
X84924993Y-110577046D01*
X84924993Y-110821884D01*
X84719099Y-111027778D01*
X84524992Y-111496395D01*
X84524992Y-112003621D01*
X84719099Y-112472238D01*
X85077762Y-112830901D01*
X85546379Y-113025008D01*
X86053605Y-113025008D01*
X86270049Y-112935354D01*
X96075000Y-112935354D01*
X96075000Y-113743750D01*
X96156250Y-113825000D01*
X96975000Y-113825000D01*
X96975000Y-112756250D01*
X96893750Y-112675000D01*
X96335353Y-112675000D01*
X96215902Y-112724479D01*
X96124478Y-112815903D01*
X96075000Y-112935354D01*
X86270049Y-112935354D01*
X86522222Y-112830901D01*
X86880885Y-112472238D01*
X87074992Y-112003621D01*
X87074992Y-111496395D01*
X86880885Y-111027778D01*
X86674992Y-110821885D01*
X86674992Y-110577123D01*
X86680387Y-110550000D01*
X86680387Y-110457049D01*
X87557777Y-109579659D01*
X87630840Y-109530840D01*
X87824232Y-109241408D01*
X87875000Y-108986179D01*
X87892142Y-108900001D01*
X87875000Y-108813823D01*
X87875000Y-107863821D01*
X87824232Y-107608592D01*
X87630840Y-107319160D01*
X87341407Y-107125768D01*
X87000000Y-107057858D01*
X86658592Y-107125768D01*
X86369160Y-107319160D01*
X86175768Y-107608593D01*
X86125000Y-107863822D01*
X86125001Y-108537563D01*
X85800000Y-108862564D01*
X85494113Y-108556677D01*
X85505387Y-108500000D01*
X85505387Y-107500000D01*
X85484044Y-107392701D01*
X85423264Y-107301736D01*
X85332299Y-107240956D01*
X85225000Y-107219613D01*
X85007026Y-107219613D01*
X84941407Y-107175768D01*
X84600000Y-107107858D01*
X84258592Y-107175768D01*
X84192973Y-107219613D01*
X84034981Y-107219613D01*
X84254594Y-107000000D01*
X88107858Y-107000000D01*
X88175768Y-107341408D01*
X88369160Y-107630840D01*
X88658592Y-107824232D01*
X88913821Y-107875000D01*
X91550153Y-107875000D01*
X91613472Y-108027865D01*
X91972135Y-108386528D01*
X92440752Y-108580635D01*
X92947978Y-108580635D01*
X93416595Y-108386528D01*
X93775258Y-108027865D01*
X93969365Y-107559248D01*
X93969365Y-107052022D01*
X93775258Y-106583405D01*
X93416595Y-106224742D01*
X92947978Y-106030635D01*
X92440752Y-106030635D01*
X92212934Y-106125000D01*
X88913821Y-106125000D01*
X88658592Y-106175768D01*
X88369160Y-106369160D01*
X88175768Y-106658592D01*
X88107858Y-107000000D01*
X84254594Y-107000000D01*
X84474207Y-106780387D01*
X85225000Y-106780387D01*
X85332299Y-106759044D01*
X85423264Y-106698264D01*
X85438808Y-106675000D01*
X86391750Y-106675000D01*
X86442701Y-106709044D01*
X86550000Y-106730387D01*
X86960601Y-106730387D01*
X87000000Y-106738224D01*
X87039399Y-106730387D01*
X87450000Y-106730387D01*
X87557299Y-106709044D01*
X87648264Y-106648264D01*
X87709044Y-106557299D01*
X87730387Y-106450000D01*
X87730387Y-105650000D01*
X87709044Y-105542701D01*
X87648264Y-105451736D01*
X87557299Y-105390956D01*
X87450000Y-105369613D01*
X87221527Y-105369613D01*
X87213372Y-105364164D01*
X87016481Y-105325000D01*
X86950000Y-105311776D01*
X86883519Y-105325000D01*
X85438808Y-105325000D01*
X85423264Y-105301736D01*
X85332299Y-105240956D01*
X85225000Y-105219613D01*
X83975000Y-105219613D01*
X83867701Y-105240956D01*
X83776736Y-105301736D01*
X83715956Y-105392701D01*
X83694613Y-105500000D01*
X83694613Y-105650793D01*
X82930387Y-106415019D01*
X82930387Y-105300000D01*
X82909044Y-105192701D01*
X82875000Y-105141750D01*
X82875000Y-104330387D01*
X84500000Y-104330387D01*
X84607299Y-104309044D01*
X84698264Y-104248264D01*
X84759044Y-104157299D01*
X84780387Y-104050000D01*
X84780387Y-102350000D01*
X84759044Y-102242701D01*
X84698264Y-102151736D01*
X84607299Y-102090956D01*
X84500000Y-102069613D01*
X81200000Y-102069613D01*
X81092701Y-102090956D01*
X81001736Y-102151736D01*
X80940956Y-102242701D01*
X80919613Y-102350000D01*
X80919613Y-104050000D01*
X80940956Y-104157299D01*
X81001736Y-104248264D01*
X81092701Y-104309044D01*
X81200000Y-104330387D01*
X81525001Y-104330387D01*
X81525000Y-105141749D01*
X81490956Y-105192701D01*
X81469613Y-105300000D01*
X81469613Y-106500000D01*
X81490956Y-106607299D01*
X81551736Y-106698264D01*
X81642701Y-106759044D01*
X81750000Y-106780387D01*
X82565020Y-106780387D01*
X82125794Y-107219613D01*
X81750000Y-107219613D01*
X81642701Y-107240956D01*
X81551736Y-107301736D01*
X81500355Y-107378634D01*
X81320469Y-106973890D01*
X80573451Y-104483830D01*
X80324342Y-102740065D01*
X80075000Y-100745329D01*
X80075000Y-100256250D01*
X80875000Y-100256250D01*
X80875000Y-100914647D01*
X80924479Y-101034098D01*
X81015903Y-101125522D01*
X81135354Y-101175000D01*
X82593750Y-101175000D01*
X82675000Y-101093750D01*
X82675000Y-100175000D01*
X83025000Y-100175000D01*
X83025000Y-101093750D01*
X83106250Y-101175000D01*
X84564646Y-101175000D01*
X84684097Y-101125522D01*
X84775521Y-101034098D01*
X84825000Y-100914647D01*
X84825000Y-100256250D01*
X84743750Y-100175000D01*
X83025000Y-100175000D01*
X82675000Y-100175000D01*
X80956250Y-100175000D01*
X80875000Y-100256250D01*
X80075000Y-100256250D01*
X80075000Y-99085353D01*
X80875000Y-99085353D01*
X80875000Y-99743750D01*
X80956250Y-99825000D01*
X82675000Y-99825000D01*
X82675000Y-98906250D01*
X82593750Y-98825000D01*
X81135354Y-98825000D01*
X81015903Y-98874478D01*
X80924479Y-98965902D01*
X80875000Y-99085353D01*
X80075000Y-99085353D01*
X80075000Y-98755736D01*
X80573295Y-95516816D01*
X81569521Y-92279084D01*
X83313369Y-89040508D01*
X83448157Y-88860791D01*
X83448157Y-89812480D01*
X83469500Y-89919779D01*
X83530280Y-90010744D01*
X83621245Y-90071524D01*
X83728544Y-90092867D01*
X87228544Y-90092867D01*
X87335843Y-90071524D01*
X87426808Y-90010744D01*
X87487588Y-89919779D01*
X87508931Y-89812480D01*
X87508931Y-88918730D01*
X88803544Y-88918730D01*
X88803544Y-89877127D01*
X88853023Y-89996578D01*
X88944447Y-90088002D01*
X89063898Y-90137480D01*
X90622294Y-90137480D01*
X90703544Y-90056230D01*
X90703544Y-88837480D01*
X88884794Y-88837480D01*
X88803544Y-88918730D01*
X87508931Y-88918730D01*
X87508931Y-88435214D01*
X88496312Y-87447833D01*
X88803544Y-87447833D01*
X88803544Y-88406230D01*
X88884794Y-88487480D01*
X90703544Y-88487480D01*
X90703544Y-87268730D01*
X91053544Y-87268730D01*
X91053544Y-88487480D01*
X92872294Y-88487480D01*
X92953544Y-88406230D01*
X92953544Y-87447833D01*
X92904065Y-87328382D01*
X92812641Y-87236958D01*
X92693190Y-87187480D01*
X91134794Y-87187480D01*
X91053544Y-87268730D01*
X90703544Y-87268730D01*
X90622294Y-87187480D01*
X89063898Y-87187480D01*
X88944447Y-87236958D01*
X88853023Y-87328382D01*
X88803544Y-87447833D01*
X88496312Y-87447833D01*
X88672228Y-87271918D01*
X88672230Y-87271917D01*
X88797760Y-87146387D01*
X93225000Y-87146387D01*
X93225000Y-87653613D01*
X93419107Y-88122230D01*
X93777770Y-88480893D01*
X94246387Y-88675000D01*
X94753613Y-88675000D01*
X95222230Y-88480893D01*
X95580893Y-88122230D01*
X95775000Y-87653613D01*
X95775000Y-87362437D01*
X96056202Y-87081235D01*
X96091408Y-87074232D01*
X96380840Y-86880840D01*
X96574232Y-86591408D01*
X96642142Y-86250000D01*
X96574232Y-85908592D01*
X96380840Y-85619160D01*
X96091408Y-85425768D01*
X95836179Y-85375000D01*
X95736179Y-85375000D01*
X95650000Y-85357858D01*
X95563821Y-85375000D01*
X95308592Y-85425768D01*
X95019160Y-85619160D01*
X94970343Y-85692220D01*
X94537563Y-86125000D01*
X94246387Y-86125000D01*
X93777770Y-86319107D01*
X93419107Y-86677770D01*
X93225000Y-87146387D01*
X88797760Y-87146387D01*
X89030893Y-86913254D01*
X89030894Y-86913251D01*
X90851279Y-85092867D01*
X92628544Y-85092867D01*
X92735843Y-85071524D01*
X92826808Y-85010744D01*
X92887588Y-84919779D01*
X92908931Y-84812480D01*
X92908931Y-84506250D01*
X94075000Y-84506250D01*
X94075000Y-84764646D01*
X94124478Y-84884097D01*
X94215902Y-84975521D01*
X94335353Y-85025000D01*
X94543750Y-85025000D01*
X94625000Y-84943750D01*
X94625000Y-84425000D01*
X94975000Y-84425000D01*
X94975000Y-84943750D01*
X95056250Y-85025000D01*
X95264647Y-85025000D01*
X95384098Y-84975521D01*
X95475522Y-84884097D01*
X95525000Y-84764646D01*
X95525000Y-84506250D01*
X95443750Y-84425000D01*
X94975000Y-84425000D01*
X94625000Y-84425000D01*
X94156250Y-84425000D01*
X94075000Y-84506250D01*
X92908931Y-84506250D01*
X92908931Y-83735354D01*
X94075000Y-83735354D01*
X94075000Y-83993750D01*
X94156250Y-84075000D01*
X94625000Y-84075000D01*
X94625000Y-83556250D01*
X94975000Y-83556250D01*
X94975000Y-84075000D01*
X95443750Y-84075000D01*
X95525000Y-83993750D01*
X95525000Y-83735354D01*
X95475522Y-83615903D01*
X95384098Y-83524479D01*
X95264647Y-83475000D01*
X95056250Y-83475000D01*
X94975000Y-83556250D01*
X94625000Y-83556250D01*
X94543750Y-83475000D01*
X94335353Y-83475000D01*
X94215902Y-83524479D01*
X94124478Y-83615903D01*
X94075000Y-83735354D01*
X92908931Y-83735354D01*
X92908931Y-82512480D01*
X92887588Y-82405181D01*
X92826808Y-82314216D01*
X92735843Y-82253436D01*
X92628544Y-82232093D01*
X90987977Y-82232093D01*
X91050000Y-82206250D01*
X100425000Y-82206250D01*
X100425000Y-83664646D01*
X100474478Y-83784097D01*
X100565902Y-83875521D01*
X100685353Y-83925000D01*
X101343750Y-83925000D01*
X101425000Y-83843750D01*
X101425000Y-82125000D01*
X101775000Y-82125000D01*
X101775000Y-83843750D01*
X101856250Y-83925000D01*
X102514647Y-83925000D01*
X102634098Y-83875521D01*
X102725522Y-83784097D01*
X102775000Y-83664646D01*
X102775000Y-82206250D01*
X102693750Y-82125000D01*
X101775000Y-82125000D01*
X101425000Y-82125000D01*
X100506250Y-82125000D01*
X100425000Y-82206250D01*
X91050000Y-82206250D01*
X93774393Y-81071086D01*
X96514094Y-80323895D01*
X98754151Y-80075000D01*
X100515381Y-80075000D01*
X100474478Y-80115903D01*
G36*
X107992192Y-118079628D02*
X108027467Y-118211274D01*
X106972846Y-118679995D01*
X105779080Y-119077917D01*
X105672956Y-118789370D01*
X105499393Y-118563180D01*
X105300720Y-118492490D01*
X104808145Y-119345655D01*
X104183672Y-119501773D01*
X103343766Y-119016854D01*
X103207055Y-119177410D01*
X103185964Y-119700909D01*
X102625000Y-119747656D01*
X102625000Y-119087547D01*
X102675000Y-118836179D01*
X102692142Y-118750001D01*
X102684931Y-118713746D01*
X103518766Y-118713746D01*
X104456317Y-119255041D01*
X104997612Y-118317490D01*
X104837056Y-118180779D01*
X104310365Y-118159559D01*
X103815646Y-118341510D01*
X103589456Y-118515073D01*
X103518766Y-118713746D01*
X102684931Y-118713746D01*
X102675000Y-118663823D01*
X102675000Y-117152082D01*
X102680387Y-117125000D01*
X102680387Y-117006250D01*
X102775000Y-117006250D01*
X102775000Y-117189647D01*
X102824479Y-117309098D01*
X102915903Y-117400522D01*
X103035354Y-117450000D01*
X103443750Y-117450000D01*
X103525000Y-117368750D01*
X103525000Y-116925000D01*
X103875000Y-116925000D01*
X103875000Y-117368750D01*
X103956250Y-117450000D01*
X104364646Y-117450000D01*
X104484097Y-117400522D01*
X104575521Y-117309098D01*
X104625000Y-117189647D01*
X104625000Y-117006250D01*
X104543750Y-116925000D01*
X103875000Y-116925000D01*
X103525000Y-116925000D01*
X102856250Y-116925000D01*
X102775000Y-117006250D01*
X102680387Y-117006250D01*
X102680387Y-116375000D01*
X102675000Y-116347918D01*
X102675000Y-116310353D01*
X102775000Y-116310353D01*
X102775000Y-116493750D01*
X102856250Y-116575000D01*
X103525000Y-116575000D01*
X103525000Y-116131250D01*
X103875000Y-116131250D01*
X103875000Y-116575000D01*
X104543750Y-116575000D01*
X104625000Y-116493750D01*
X104625000Y-116310353D01*
X104575521Y-116190902D01*
X104484097Y-116099478D01*
X104364646Y-116050000D01*
X103956250Y-116050000D01*
X103875000Y-116131250D01*
X103525000Y-116131250D01*
X103443750Y-116050000D01*
X103035354Y-116050000D01*
X102915903Y-116099478D01*
X102824479Y-116190902D01*
X102775000Y-116310353D01*
X102675000Y-116310353D01*
X102675000Y-115213808D01*
X102698264Y-115198264D01*
X102759044Y-115107299D01*
X102780387Y-115000000D01*
X102780387Y-113000000D01*
X102759044Y-112892701D01*
X102698264Y-112801736D01*
X102658250Y-112775000D01*
X102687564Y-112775000D01*
X107992192Y-118079628D01*
X107992192Y-118079628D01*
G37*
X107992192Y-118079628D02*
X108027467Y-118211274D01*
X106972846Y-118679995D01*
X105779080Y-119077917D01*
X105672956Y-118789370D01*
X105499393Y-118563180D01*
X105300720Y-118492490D01*
X104808145Y-119345655D01*
X104183672Y-119501773D01*
X103343766Y-119016854D01*
X103207055Y-119177410D01*
X103185964Y-119700909D01*
X102625000Y-119747656D01*
X102625000Y-119087547D01*
X102675000Y-118836179D01*
X102692142Y-118750001D01*
X102684931Y-118713746D01*
X103518766Y-118713746D01*
X104456317Y-119255041D01*
X104997612Y-118317490D01*
X104837056Y-118180779D01*
X104310365Y-118159559D01*
X103815646Y-118341510D01*
X103589456Y-118515073D01*
X103518766Y-118713746D01*
X102684931Y-118713746D01*
X102675000Y-118663823D01*
X102675000Y-117152082D01*
X102680387Y-117125000D01*
X102680387Y-117006250D01*
X102775000Y-117006250D01*
X102775000Y-117189647D01*
X102824479Y-117309098D01*
X102915903Y-117400522D01*
X103035354Y-117450000D01*
X103443750Y-117450000D01*
X103525000Y-117368750D01*
X103525000Y-116925000D01*
X103875000Y-116925000D01*
X103875000Y-117368750D01*
X103956250Y-117450000D01*
X104364646Y-117450000D01*
X104484097Y-117400522D01*
X104575521Y-117309098D01*
X104625000Y-117189647D01*
X104625000Y-117006250D01*
X104543750Y-116925000D01*
X103875000Y-116925000D01*
X103525000Y-116925000D01*
X102856250Y-116925000D01*
X102775000Y-117006250D01*
X102680387Y-117006250D01*
X102680387Y-116375000D01*
X102675000Y-116347918D01*
X102675000Y-116310353D01*
X102775000Y-116310353D01*
X102775000Y-116493750D01*
X102856250Y-116575000D01*
X103525000Y-116575000D01*
X103525000Y-116131250D01*
X103875000Y-116131250D01*
X103875000Y-116575000D01*
X104543750Y-116575000D01*
X104625000Y-116493750D01*
X104625000Y-116310353D01*
X104575521Y-116190902D01*
X104484097Y-116099478D01*
X104364646Y-116050000D01*
X103956250Y-116050000D01*
X103875000Y-116131250D01*
X103525000Y-116131250D01*
X103443750Y-116050000D01*
X103035354Y-116050000D01*
X102915903Y-116099478D01*
X102824479Y-116190902D01*
X102775000Y-116310353D01*
X102675000Y-116310353D01*
X102675000Y-115213808D01*
X102698264Y-115198264D01*
X102759044Y-115107299D01*
X102780387Y-115000000D01*
X102780387Y-113000000D01*
X102759044Y-112892701D01*
X102698264Y-112801736D01*
X102658250Y-112775000D01*
X102687564Y-112775000D01*
X107992192Y-118079628D01*
G36*
X118431256Y-92779992D02*
X119178696Y-94524020D01*
X119627594Y-96319613D01*
X117500000Y-96319613D01*
X117392701Y-96340956D01*
X117301736Y-96401736D01*
X117240956Y-96492701D01*
X117219613Y-96600000D01*
X117219613Y-99300000D01*
X117240956Y-99407299D01*
X117301736Y-99498264D01*
X117392701Y-99559044D01*
X117500000Y-99580387D01*
X118225001Y-99580387D01*
X118225000Y-101386178D01*
X118275768Y-101641407D01*
X118469160Y-101930840D01*
X118758592Y-102124232D01*
X119100000Y-102192142D01*
X119441407Y-102124232D01*
X119730840Y-101930840D01*
X119830964Y-101780994D01*
X119763327Y-102525000D01*
X119585353Y-102525000D01*
X119465902Y-102574479D01*
X119374478Y-102665903D01*
X119325000Y-102785354D01*
X119325000Y-103043750D01*
X119406250Y-103125000D01*
X119708781Y-103125000D01*
X119676963Y-103475000D01*
X119406250Y-103475000D01*
X119325000Y-103556250D01*
X119325000Y-103814646D01*
X119374478Y-103934097D01*
X119465902Y-104025521D01*
X119534235Y-104053826D01*
X119427661Y-104480124D01*
X118679531Y-106973890D01*
X117683606Y-109214720D01*
X116438088Y-111207550D01*
X114943198Y-113200736D01*
X112951356Y-115192578D01*
X111208290Y-116437625D01*
X110347485Y-116975628D01*
X110327940Y-116902686D01*
X110279553Y-116804566D01*
X110197301Y-116732433D01*
X110093705Y-116697267D01*
X109984538Y-116704422D01*
X109280503Y-116893067D01*
X104016375Y-111628939D01*
X104036179Y-111625000D01*
X105836179Y-111625000D01*
X106091408Y-111574232D01*
X106380840Y-111380840D01*
X106574232Y-111091408D01*
X106638295Y-110769338D01*
X106889879Y-111020922D01*
X106913590Y-111056408D01*
X107042737Y-111142701D01*
X107054171Y-111150341D01*
X107067490Y-111152990D01*
X107040956Y-111192701D01*
X107019613Y-111300000D01*
X107019613Y-112100000D01*
X107040956Y-112207299D01*
X107101736Y-112298264D01*
X107192701Y-112359044D01*
X107300000Y-112380387D01*
X108200000Y-112380387D01*
X108307299Y-112359044D01*
X108398264Y-112298264D01*
X108447217Y-112225000D01*
X109769613Y-112225000D01*
X109769613Y-112450000D01*
X109790956Y-112557299D01*
X109851736Y-112648264D01*
X109942701Y-112709044D01*
X110050000Y-112730387D01*
X110950000Y-112730387D01*
X111057299Y-112709044D01*
X111148264Y-112648264D01*
X111209044Y-112557299D01*
X111230387Y-112450000D01*
X111230387Y-112375000D01*
X112127783Y-112375000D01*
X112176736Y-112448264D01*
X112267701Y-112509044D01*
X112375000Y-112530387D01*
X113625000Y-112530387D01*
X113732299Y-112509044D01*
X113823264Y-112448264D01*
X113884044Y-112357299D01*
X113905387Y-112250000D01*
X113905387Y-111250000D01*
X113884044Y-111142701D01*
X113823264Y-111051736D01*
X113732299Y-110990956D01*
X113625000Y-110969613D01*
X112375000Y-110969613D01*
X112267701Y-110990956D01*
X112176736Y-111051736D01*
X112115956Y-111142701D01*
X112094613Y-111250000D01*
X112094613Y-111325000D01*
X111230387Y-111325000D01*
X111230387Y-111250000D01*
X111209044Y-111142701D01*
X111148264Y-111051736D01*
X111057299Y-110990956D01*
X110950000Y-110969613D01*
X110050000Y-110969613D01*
X109942701Y-110990956D01*
X109865816Y-111042328D01*
X109880121Y-111020919D01*
X110370654Y-110530387D01*
X110950000Y-110530387D01*
X111057299Y-110509044D01*
X111148264Y-110448264D01*
X111209044Y-110357299D01*
X111230387Y-110250000D01*
X111230387Y-110006250D01*
X112050000Y-110006250D01*
X112050000Y-110314646D01*
X112099478Y-110434097D01*
X112190902Y-110525521D01*
X112310353Y-110575000D01*
X112743750Y-110575000D01*
X112825000Y-110493750D01*
X112825000Y-109925000D01*
X113175000Y-109925000D01*
X113175000Y-110493750D01*
X113256250Y-110575000D01*
X113689647Y-110575000D01*
X113809098Y-110525521D01*
X113900522Y-110434097D01*
X113950000Y-110314646D01*
X113950000Y-110006250D01*
X113868750Y-109925000D01*
X113175000Y-109925000D01*
X112825000Y-109925000D01*
X112131250Y-109925000D01*
X112050000Y-110006250D01*
X111230387Y-110006250D01*
X111230387Y-109185354D01*
X112050000Y-109185354D01*
X112050000Y-109493750D01*
X112131250Y-109575000D01*
X112825000Y-109575000D01*
X112825000Y-109006250D01*
X113175000Y-109006250D01*
X113175000Y-109575000D01*
X113868750Y-109575000D01*
X113950000Y-109493750D01*
X113950000Y-109185354D01*
X113900522Y-109065903D01*
X113809098Y-108974479D01*
X113689647Y-108925000D01*
X113256250Y-108925000D01*
X113175000Y-109006250D01*
X112825000Y-109006250D01*
X112743750Y-108925000D01*
X112310353Y-108925000D01*
X112190902Y-108974479D01*
X112099478Y-109065903D01*
X112050000Y-109185354D01*
X111230387Y-109185354D01*
X111230387Y-109050000D01*
X111209044Y-108942701D01*
X111148264Y-108851736D01*
X111057299Y-108790956D01*
X110950000Y-108769613D01*
X110050000Y-108769613D01*
X109942701Y-108790956D01*
X109851736Y-108851736D01*
X109790956Y-108942701D01*
X109769613Y-109050000D01*
X109769613Y-109929346D01*
X109373960Y-110325000D01*
X108500001Y-110325000D01*
X108525000Y-110264647D01*
X108525000Y-110056250D01*
X108443750Y-109975000D01*
X107925000Y-109975000D01*
X107925000Y-109995000D01*
X107575000Y-109995000D01*
X107575000Y-109975000D01*
X107056250Y-109975000D01*
X107051144Y-109980106D01*
X106500119Y-109429081D01*
X106476406Y-109393592D01*
X106389245Y-109335353D01*
X106975000Y-109335353D01*
X106975000Y-109543750D01*
X107056250Y-109625000D01*
X107575000Y-109625000D01*
X107575000Y-109156250D01*
X107925000Y-109156250D01*
X107925000Y-109625000D01*
X108443750Y-109625000D01*
X108525000Y-109543750D01*
X108525000Y-109335353D01*
X108475521Y-109215902D01*
X108384097Y-109124478D01*
X108264646Y-109075000D01*
X108006250Y-109075000D01*
X107925000Y-109156250D01*
X107575000Y-109156250D01*
X107493750Y-109075000D01*
X107235354Y-109075000D01*
X107115903Y-109124478D01*
X107024479Y-109215902D01*
X106975000Y-109335353D01*
X106389245Y-109335353D01*
X106335825Y-109299659D01*
X106211856Y-109275000D01*
X106211855Y-109275000D01*
X106169998Y-109266674D01*
X106128141Y-109275000D01*
X105101041Y-109275000D01*
X104056427Y-108230387D01*
X105000000Y-108230387D01*
X105107299Y-108209044D01*
X105198264Y-108148264D01*
X105259044Y-108057299D01*
X105280387Y-107950000D01*
X105280387Y-107050000D01*
X105719613Y-107050000D01*
X105719613Y-107950000D01*
X105740956Y-108057299D01*
X105801736Y-108148264D01*
X105892701Y-108209044D01*
X106000000Y-108230387D01*
X107200000Y-108230387D01*
X107307299Y-108209044D01*
X107395510Y-108150104D01*
X107517643Y-108272237D01*
X107765734Y-108375000D01*
X108034266Y-108375000D01*
X108282357Y-108272237D01*
X108472237Y-108082357D01*
X108575000Y-107834266D01*
X108575000Y-107565734D01*
X108472237Y-107317643D01*
X108282357Y-107127763D01*
X108034266Y-107025000D01*
X107765734Y-107025000D01*
X107584669Y-107100000D01*
X107480387Y-107100000D01*
X107480387Y-107050000D01*
X107459044Y-106942701D01*
X107398264Y-106851736D01*
X107307299Y-106790956D01*
X107200000Y-106769613D01*
X106000000Y-106769613D01*
X105892701Y-106790956D01*
X105801736Y-106851736D01*
X105740956Y-106942701D01*
X105719613Y-107050000D01*
X105280387Y-107050000D01*
X105259044Y-106942701D01*
X105198264Y-106851736D01*
X105107299Y-106790956D01*
X105000000Y-106769613D01*
X104825000Y-106769613D01*
X104825000Y-106230387D01*
X105000000Y-106230387D01*
X105107299Y-106209044D01*
X105198264Y-106148264D01*
X105259044Y-106057299D01*
X105280387Y-105950000D01*
X105280387Y-105756250D01*
X105675000Y-105756250D01*
X105675000Y-106014647D01*
X105724479Y-106134098D01*
X105815903Y-106225522D01*
X105935354Y-106275000D01*
X106343750Y-106275000D01*
X106425000Y-106193750D01*
X106425000Y-105675000D01*
X106775000Y-105675000D01*
X106775000Y-106193750D01*
X106856250Y-106275000D01*
X107264646Y-106275000D01*
X107384097Y-106225522D01*
X107475521Y-106134098D01*
X107525000Y-106014647D01*
X107525000Y-105756250D01*
X107443750Y-105675000D01*
X106775000Y-105675000D01*
X106425000Y-105675000D01*
X105756250Y-105675000D01*
X105675000Y-105756250D01*
X105280387Y-105756250D01*
X105280387Y-105456250D01*
X113050000Y-105456250D01*
X113050000Y-105764646D01*
X113099478Y-105884097D01*
X113190902Y-105975521D01*
X113310353Y-106025000D01*
X113743750Y-106025000D01*
X113825000Y-105943750D01*
X113825000Y-105375000D01*
X114175000Y-105375000D01*
X114175000Y-105943750D01*
X114256250Y-106025000D01*
X114689647Y-106025000D01*
X114809098Y-105975521D01*
X114900522Y-105884097D01*
X114950000Y-105764646D01*
X114950000Y-105456250D01*
X114868750Y-105375000D01*
X114175000Y-105375000D01*
X113825000Y-105375000D01*
X113131250Y-105375000D01*
X113050000Y-105456250D01*
X105280387Y-105456250D01*
X105280387Y-105050000D01*
X105267528Y-104985353D01*
X105675000Y-104985353D01*
X105675000Y-105243750D01*
X105756250Y-105325000D01*
X106425000Y-105325000D01*
X106425000Y-104806250D01*
X106775000Y-104806250D01*
X106775000Y-105325000D01*
X107443750Y-105325000D01*
X107525000Y-105243750D01*
X107525000Y-104985353D01*
X107475521Y-104865902D01*
X107384097Y-104774478D01*
X107264646Y-104725000D01*
X106856250Y-104725000D01*
X106775000Y-104806250D01*
X106425000Y-104806250D01*
X106343750Y-104725000D01*
X105935354Y-104725000D01*
X105815903Y-104774478D01*
X105724479Y-104865902D01*
X105675000Y-104985353D01*
X105267528Y-104985353D01*
X105259044Y-104942701D01*
X105198264Y-104851736D01*
X105107299Y-104790956D01*
X105000000Y-104769613D01*
X104270653Y-104769613D01*
X104136394Y-104635354D01*
X113050000Y-104635354D01*
X113050000Y-104943750D01*
X113131250Y-105025000D01*
X113825000Y-105025000D01*
X113825000Y-104456250D01*
X114175000Y-104456250D01*
X114175000Y-105025000D01*
X114868750Y-105025000D01*
X114950000Y-104943750D01*
X114950000Y-104635354D01*
X114900522Y-104515903D01*
X114809098Y-104424479D01*
X114689647Y-104375000D01*
X114256250Y-104375000D01*
X114175000Y-104456250D01*
X113825000Y-104456250D01*
X113743750Y-104375000D01*
X113310353Y-104375000D01*
X113190902Y-104424479D01*
X113099478Y-104515903D01*
X113050000Y-104635354D01*
X104136394Y-104635354D01*
X104130121Y-104629081D01*
X104106408Y-104593592D01*
X104003754Y-104525001D01*
X110458142Y-104525001D01*
X110499999Y-104533327D01*
X110541856Y-104525001D01*
X110541857Y-104525001D01*
X110665826Y-104500342D01*
X110806407Y-104406409D01*
X110830120Y-104370920D01*
X112501040Y-102700000D01*
X113094613Y-102700000D01*
X113094613Y-103700000D01*
X113115956Y-103807299D01*
X113176736Y-103898264D01*
X113267701Y-103959044D01*
X113375000Y-103980387D01*
X113809169Y-103980387D01*
X113813352Y-103986648D01*
X114003007Y-104113371D01*
X114036628Y-104135836D01*
X114299999Y-104188224D01*
X114366480Y-104175000D01*
X114984531Y-104175000D01*
X114990956Y-104207299D01*
X115051736Y-104298264D01*
X115142701Y-104359044D01*
X115250000Y-104380387D01*
X116150000Y-104380387D01*
X116257299Y-104359044D01*
X116348264Y-104298264D01*
X116409044Y-104207299D01*
X116430387Y-104100000D01*
X116430387Y-104025000D01*
X117722918Y-104025000D01*
X117750000Y-104030387D01*
X117925376Y-104030387D01*
X117950000Y-104035285D01*
X117974624Y-104030387D01*
X118550000Y-104030387D01*
X118657299Y-104009044D01*
X118748264Y-103948264D01*
X118809044Y-103857299D01*
X118830387Y-103750000D01*
X118830387Y-102850000D01*
X118809044Y-102742701D01*
X118748264Y-102651736D01*
X118657299Y-102590956D01*
X118550000Y-102569613D01*
X117750000Y-102569613D01*
X117642701Y-102590956D01*
X117551736Y-102651736D01*
X117490956Y-102742701D01*
X117469613Y-102850000D01*
X117469613Y-102975000D01*
X116430387Y-102975000D01*
X116430387Y-102900000D01*
X116409044Y-102792701D01*
X116348264Y-102701736D01*
X116257299Y-102640956D01*
X116150000Y-102619613D01*
X115250000Y-102619613D01*
X115142701Y-102640956D01*
X115051736Y-102701736D01*
X114990956Y-102792701D01*
X114984531Y-102825000D01*
X114905387Y-102825000D01*
X114905387Y-102700000D01*
X114884044Y-102592701D01*
X114823264Y-102501736D01*
X114732299Y-102440956D01*
X114625000Y-102419613D01*
X113375000Y-102419613D01*
X113267701Y-102440956D01*
X113176736Y-102501736D01*
X113115956Y-102592701D01*
X113094613Y-102700000D01*
X112501040Y-102700000D01*
X113476041Y-101725000D01*
X114969613Y-101725000D01*
X114969613Y-101900000D01*
X114990956Y-102007299D01*
X115051736Y-102098264D01*
X115142701Y-102159044D01*
X115250000Y-102180387D01*
X116150000Y-102180387D01*
X116257299Y-102159044D01*
X116348264Y-102098264D01*
X116409044Y-102007299D01*
X116430387Y-101900000D01*
X116430387Y-100700000D01*
X116409044Y-100592701D01*
X116348264Y-100501736D01*
X116257299Y-100440956D01*
X116150000Y-100419613D01*
X115250000Y-100419613D01*
X115142701Y-100440956D01*
X115051736Y-100501736D01*
X114990956Y-100592701D01*
X114969613Y-100700000D01*
X114969613Y-100875000D01*
X113341855Y-100875000D01*
X113299999Y-100866674D01*
X113258143Y-100875000D01*
X113258142Y-100875000D01*
X113134173Y-100899659D01*
X112993592Y-100993592D01*
X112969881Y-101029078D01*
X110323959Y-103675001D01*
X109676039Y-103675001D01*
X110370923Y-102980118D01*
X110406408Y-102956408D01*
X110500341Y-102815827D01*
X110525000Y-102691858D01*
X110525000Y-102691857D01*
X110533326Y-102650000D01*
X110529425Y-102630387D01*
X110850000Y-102630387D01*
X110957299Y-102609044D01*
X111048264Y-102548264D01*
X111109044Y-102457299D01*
X111130387Y-102350000D01*
X111130387Y-100850000D01*
X111109044Y-100742701D01*
X111048264Y-100651736D01*
X110957299Y-100590956D01*
X110850000Y-100569613D01*
X109350000Y-100569613D01*
X109242701Y-100590956D01*
X109151736Y-100651736D01*
X109090956Y-100742701D01*
X109075000Y-100822918D01*
X109075000Y-100430387D01*
X109350000Y-100430387D01*
X109457299Y-100409044D01*
X109548264Y-100348264D01*
X109609044Y-100257299D01*
X109630387Y-100150000D01*
X109630387Y-98231427D01*
X110019613Y-98620653D01*
X110019613Y-99200000D01*
X110040956Y-99307299D01*
X110101736Y-99398264D01*
X110192701Y-99459044D01*
X110300000Y-99480387D01*
X111500000Y-99480387D01*
X111607299Y-99459044D01*
X111698264Y-99398264D01*
X111759044Y-99307299D01*
X111780387Y-99200000D01*
X111780387Y-98300000D01*
X111761230Y-98203692D01*
X112219613Y-98662075D01*
X112219613Y-99200000D01*
X112240956Y-99307299D01*
X112301736Y-99398264D01*
X112392701Y-99459044D01*
X112500000Y-99480387D01*
X113074314Y-99480387D01*
X113192033Y-99559044D01*
X113245155Y-99594539D01*
X113450000Y-99635285D01*
X113501706Y-99625000D01*
X114869613Y-99625000D01*
X114869613Y-99700000D01*
X114890956Y-99807299D01*
X114951736Y-99898264D01*
X115042701Y-99959044D01*
X115150000Y-99980387D01*
X116050000Y-99980387D01*
X116157299Y-99959044D01*
X116248264Y-99898264D01*
X116309044Y-99807299D01*
X116330387Y-99700000D01*
X116330387Y-98500000D01*
X116309044Y-98392701D01*
X116248264Y-98301736D01*
X116157299Y-98240956D01*
X116050000Y-98219613D01*
X115150000Y-98219613D01*
X115042701Y-98240956D01*
X114951736Y-98301736D01*
X114890956Y-98392701D01*
X114869613Y-98500000D01*
X114869613Y-98575000D01*
X113980387Y-98575000D01*
X113980387Y-98300000D01*
X113959044Y-98192701D01*
X113898264Y-98101736D01*
X113807299Y-98040956D01*
X113700000Y-98019613D01*
X113062075Y-98019613D01*
X112768705Y-97726244D01*
X113013821Y-97775000D01*
X113013822Y-97775000D01*
X113099999Y-97792142D01*
X113186177Y-97775000D01*
X115122918Y-97775000D01*
X115150000Y-97780387D01*
X116050000Y-97780387D01*
X116157299Y-97759044D01*
X116248264Y-97698264D01*
X116309044Y-97607299D01*
X116330387Y-97500000D01*
X116330387Y-97381857D01*
X116424232Y-97241408D01*
X116492142Y-96900000D01*
X116424232Y-96558592D01*
X116330387Y-96418143D01*
X116330387Y-96300000D01*
X116309044Y-96192701D01*
X116248264Y-96101736D01*
X116157299Y-96040956D01*
X116050000Y-96019613D01*
X115150000Y-96019613D01*
X115122918Y-96025000D01*
X113825000Y-96025000D01*
X113825000Y-95375000D01*
X114563822Y-95375000D01*
X114650000Y-95392142D01*
X114736178Y-95375000D01*
X114736179Y-95375000D01*
X114991408Y-95324232D01*
X115280840Y-95130840D01*
X115329659Y-95057777D01*
X118177775Y-92209661D01*
X118431256Y-92779992D01*
X118431256Y-92779992D01*
G37*
X118431256Y-92779992D02*
X119178696Y-94524020D01*
X119627594Y-96319613D01*
X117500000Y-96319613D01*
X117392701Y-96340956D01*
X117301736Y-96401736D01*
X117240956Y-96492701D01*
X117219613Y-96600000D01*
X117219613Y-99300000D01*
X117240956Y-99407299D01*
X117301736Y-99498264D01*
X117392701Y-99559044D01*
X117500000Y-99580387D01*
X118225001Y-99580387D01*
X118225000Y-101386178D01*
X118275768Y-101641407D01*
X118469160Y-101930840D01*
X118758592Y-102124232D01*
X119100000Y-102192142D01*
X119441407Y-102124232D01*
X119730840Y-101930840D01*
X119830964Y-101780994D01*
X119763327Y-102525000D01*
X119585353Y-102525000D01*
X119465902Y-102574479D01*
X119374478Y-102665903D01*
X119325000Y-102785354D01*
X119325000Y-103043750D01*
X119406250Y-103125000D01*
X119708781Y-103125000D01*
X119676963Y-103475000D01*
X119406250Y-103475000D01*
X119325000Y-103556250D01*
X119325000Y-103814646D01*
X119374478Y-103934097D01*
X119465902Y-104025521D01*
X119534235Y-104053826D01*
X119427661Y-104480124D01*
X118679531Y-106973890D01*
X117683606Y-109214720D01*
X116438088Y-111207550D01*
X114943198Y-113200736D01*
X112951356Y-115192578D01*
X111208290Y-116437625D01*
X110347485Y-116975628D01*
X110327940Y-116902686D01*
X110279553Y-116804566D01*
X110197301Y-116732433D01*
X110093705Y-116697267D01*
X109984538Y-116704422D01*
X109280503Y-116893067D01*
X104016375Y-111628939D01*
X104036179Y-111625000D01*
X105836179Y-111625000D01*
X106091408Y-111574232D01*
X106380840Y-111380840D01*
X106574232Y-111091408D01*
X106638295Y-110769338D01*
X106889879Y-111020922D01*
X106913590Y-111056408D01*
X107042737Y-111142701D01*
X107054171Y-111150341D01*
X107067490Y-111152990D01*
X107040956Y-111192701D01*
X107019613Y-111300000D01*
X107019613Y-112100000D01*
X107040956Y-112207299D01*
X107101736Y-112298264D01*
X107192701Y-112359044D01*
X107300000Y-112380387D01*
X108200000Y-112380387D01*
X108307299Y-112359044D01*
X108398264Y-112298264D01*
X108447217Y-112225000D01*
X109769613Y-112225000D01*
X109769613Y-112450000D01*
X109790956Y-112557299D01*
X109851736Y-112648264D01*
X109942701Y-112709044D01*
X110050000Y-112730387D01*
X110950000Y-112730387D01*
X111057299Y-112709044D01*
X111148264Y-112648264D01*
X111209044Y-112557299D01*
X111230387Y-112450000D01*
X111230387Y-112375000D01*
X112127783Y-112375000D01*
X112176736Y-112448264D01*
X112267701Y-112509044D01*
X112375000Y-112530387D01*
X113625000Y-112530387D01*
X113732299Y-112509044D01*
X113823264Y-112448264D01*
X113884044Y-112357299D01*
X113905387Y-112250000D01*
X113905387Y-111250000D01*
X113884044Y-111142701D01*
X113823264Y-111051736D01*
X113732299Y-110990956D01*
X113625000Y-110969613D01*
X112375000Y-110969613D01*
X112267701Y-110990956D01*
X112176736Y-111051736D01*
X112115956Y-111142701D01*
X112094613Y-111250000D01*
X112094613Y-111325000D01*
X111230387Y-111325000D01*
X111230387Y-111250000D01*
X111209044Y-111142701D01*
X111148264Y-111051736D01*
X111057299Y-110990956D01*
X110950000Y-110969613D01*
X110050000Y-110969613D01*
X109942701Y-110990956D01*
X109865816Y-111042328D01*
X109880121Y-111020919D01*
X110370654Y-110530387D01*
X110950000Y-110530387D01*
X111057299Y-110509044D01*
X111148264Y-110448264D01*
X111209044Y-110357299D01*
X111230387Y-110250000D01*
X111230387Y-110006250D01*
X112050000Y-110006250D01*
X112050000Y-110314646D01*
X112099478Y-110434097D01*
X112190902Y-110525521D01*
X112310353Y-110575000D01*
X112743750Y-110575000D01*
X112825000Y-110493750D01*
X112825000Y-109925000D01*
X113175000Y-109925000D01*
X113175000Y-110493750D01*
X113256250Y-110575000D01*
X113689647Y-110575000D01*
X113809098Y-110525521D01*
X113900522Y-110434097D01*
X113950000Y-110314646D01*
X113950000Y-110006250D01*
X113868750Y-109925000D01*
X113175000Y-109925000D01*
X112825000Y-109925000D01*
X112131250Y-109925000D01*
X112050000Y-110006250D01*
X111230387Y-110006250D01*
X111230387Y-109185354D01*
X112050000Y-109185354D01*
X112050000Y-109493750D01*
X112131250Y-109575000D01*
X112825000Y-109575000D01*
X112825000Y-109006250D01*
X113175000Y-109006250D01*
X113175000Y-109575000D01*
X113868750Y-109575000D01*
X113950000Y-109493750D01*
X113950000Y-109185354D01*
X113900522Y-109065903D01*
X113809098Y-108974479D01*
X113689647Y-108925000D01*
X113256250Y-108925000D01*
X113175000Y-109006250D01*
X112825000Y-109006250D01*
X112743750Y-108925000D01*
X112310353Y-108925000D01*
X112190902Y-108974479D01*
X112099478Y-109065903D01*
X112050000Y-109185354D01*
X111230387Y-109185354D01*
X111230387Y-109050000D01*
X111209044Y-108942701D01*
X111148264Y-108851736D01*
X111057299Y-108790956D01*
X110950000Y-108769613D01*
X110050000Y-108769613D01*
X109942701Y-108790956D01*
X109851736Y-108851736D01*
X109790956Y-108942701D01*
X109769613Y-109050000D01*
X109769613Y-109929346D01*
X109373960Y-110325000D01*
X108500001Y-110325000D01*
X108525000Y-110264647D01*
X108525000Y-110056250D01*
X108443750Y-109975000D01*
X107925000Y-109975000D01*
X107925000Y-109995000D01*
X107575000Y-109995000D01*
X107575000Y-109975000D01*
X107056250Y-109975000D01*
X107051144Y-109980106D01*
X106500119Y-109429081D01*
X106476406Y-109393592D01*
X106389245Y-109335353D01*
X106975000Y-109335353D01*
X106975000Y-109543750D01*
X107056250Y-109625000D01*
X107575000Y-109625000D01*
X107575000Y-109156250D01*
X107925000Y-109156250D01*
X107925000Y-109625000D01*
X108443750Y-109625000D01*
X108525000Y-109543750D01*
X108525000Y-109335353D01*
X108475521Y-109215902D01*
X108384097Y-109124478D01*
X108264646Y-109075000D01*
X108006250Y-109075000D01*
X107925000Y-109156250D01*
X107575000Y-109156250D01*
X107493750Y-109075000D01*
X107235354Y-109075000D01*
X107115903Y-109124478D01*
X107024479Y-109215902D01*
X106975000Y-109335353D01*
X106389245Y-109335353D01*
X106335825Y-109299659D01*
X106211856Y-109275000D01*
X106211855Y-109275000D01*
X106169998Y-109266674D01*
X106128141Y-109275000D01*
X105101041Y-109275000D01*
X104056427Y-108230387D01*
X105000000Y-108230387D01*
X105107299Y-108209044D01*
X105198264Y-108148264D01*
X105259044Y-108057299D01*
X105280387Y-107950000D01*
X105280387Y-107050000D01*
X105719613Y-107050000D01*
X105719613Y-107950000D01*
X105740956Y-108057299D01*
X105801736Y-108148264D01*
X105892701Y-108209044D01*
X106000000Y-108230387D01*
X107200000Y-108230387D01*
X107307299Y-108209044D01*
X107395510Y-108150104D01*
X107517643Y-108272237D01*
X107765734Y-108375000D01*
X108034266Y-108375000D01*
X108282357Y-108272237D01*
X108472237Y-108082357D01*
X108575000Y-107834266D01*
X108575000Y-107565734D01*
X108472237Y-107317643D01*
X108282357Y-107127763D01*
X108034266Y-107025000D01*
X107765734Y-107025000D01*
X107584669Y-107100000D01*
X107480387Y-107100000D01*
X107480387Y-107050000D01*
X107459044Y-106942701D01*
X107398264Y-106851736D01*
X107307299Y-106790956D01*
X107200000Y-106769613D01*
X106000000Y-106769613D01*
X105892701Y-106790956D01*
X105801736Y-106851736D01*
X105740956Y-106942701D01*
X105719613Y-107050000D01*
X105280387Y-107050000D01*
X105259044Y-106942701D01*
X105198264Y-106851736D01*
X105107299Y-106790956D01*
X105000000Y-106769613D01*
X104825000Y-106769613D01*
X104825000Y-106230387D01*
X105000000Y-106230387D01*
X105107299Y-106209044D01*
X105198264Y-106148264D01*
X105259044Y-106057299D01*
X105280387Y-105950000D01*
X105280387Y-105756250D01*
X105675000Y-105756250D01*
X105675000Y-106014647D01*
X105724479Y-106134098D01*
X105815903Y-106225522D01*
X105935354Y-106275000D01*
X106343750Y-106275000D01*
X106425000Y-106193750D01*
X106425000Y-105675000D01*
X106775000Y-105675000D01*
X106775000Y-106193750D01*
X106856250Y-106275000D01*
X107264646Y-106275000D01*
X107384097Y-106225522D01*
X107475521Y-106134098D01*
X107525000Y-106014647D01*
X107525000Y-105756250D01*
X107443750Y-105675000D01*
X106775000Y-105675000D01*
X106425000Y-105675000D01*
X105756250Y-105675000D01*
X105675000Y-105756250D01*
X105280387Y-105756250D01*
X105280387Y-105456250D01*
X113050000Y-105456250D01*
X113050000Y-105764646D01*
X113099478Y-105884097D01*
X113190902Y-105975521D01*
X113310353Y-106025000D01*
X113743750Y-106025000D01*
X113825000Y-105943750D01*
X113825000Y-105375000D01*
X114175000Y-105375000D01*
X114175000Y-105943750D01*
X114256250Y-106025000D01*
X114689647Y-106025000D01*
X114809098Y-105975521D01*
X114900522Y-105884097D01*
X114950000Y-105764646D01*
X114950000Y-105456250D01*
X114868750Y-105375000D01*
X114175000Y-105375000D01*
X113825000Y-105375000D01*
X113131250Y-105375000D01*
X113050000Y-105456250D01*
X105280387Y-105456250D01*
X105280387Y-105050000D01*
X105267528Y-104985353D01*
X105675000Y-104985353D01*
X105675000Y-105243750D01*
X105756250Y-105325000D01*
X106425000Y-105325000D01*
X106425000Y-104806250D01*
X106775000Y-104806250D01*
X106775000Y-105325000D01*
X107443750Y-105325000D01*
X107525000Y-105243750D01*
X107525000Y-104985353D01*
X107475521Y-104865902D01*
X107384097Y-104774478D01*
X107264646Y-104725000D01*
X106856250Y-104725000D01*
X106775000Y-104806250D01*
X106425000Y-104806250D01*
X106343750Y-104725000D01*
X105935354Y-104725000D01*
X105815903Y-104774478D01*
X105724479Y-104865902D01*
X105675000Y-104985353D01*
X105267528Y-104985353D01*
X105259044Y-104942701D01*
X105198264Y-104851736D01*
X105107299Y-104790956D01*
X105000000Y-104769613D01*
X104270653Y-104769613D01*
X104136394Y-104635354D01*
X113050000Y-104635354D01*
X113050000Y-104943750D01*
X113131250Y-105025000D01*
X113825000Y-105025000D01*
X113825000Y-104456250D01*
X114175000Y-104456250D01*
X114175000Y-105025000D01*
X114868750Y-105025000D01*
X114950000Y-104943750D01*
X114950000Y-104635354D01*
X114900522Y-104515903D01*
X114809098Y-104424479D01*
X114689647Y-104375000D01*
X114256250Y-104375000D01*
X114175000Y-104456250D01*
X113825000Y-104456250D01*
X113743750Y-104375000D01*
X113310353Y-104375000D01*
X113190902Y-104424479D01*
X113099478Y-104515903D01*
X113050000Y-104635354D01*
X104136394Y-104635354D01*
X104130121Y-104629081D01*
X104106408Y-104593592D01*
X104003754Y-104525001D01*
X110458142Y-104525001D01*
X110499999Y-104533327D01*
X110541856Y-104525001D01*
X110541857Y-104525001D01*
X110665826Y-104500342D01*
X110806407Y-104406409D01*
X110830120Y-104370920D01*
X112501040Y-102700000D01*
X113094613Y-102700000D01*
X113094613Y-103700000D01*
X113115956Y-103807299D01*
X113176736Y-103898264D01*
X113267701Y-103959044D01*
X113375000Y-103980387D01*
X113809169Y-103980387D01*
X113813352Y-103986648D01*
X114003007Y-104113371D01*
X114036628Y-104135836D01*
X114299999Y-104188224D01*
X114366480Y-104175000D01*
X114984531Y-104175000D01*
X114990956Y-104207299D01*
X115051736Y-104298264D01*
X115142701Y-104359044D01*
X115250000Y-104380387D01*
X116150000Y-104380387D01*
X116257299Y-104359044D01*
X116348264Y-104298264D01*
X116409044Y-104207299D01*
X116430387Y-104100000D01*
X116430387Y-104025000D01*
X117722918Y-104025000D01*
X117750000Y-104030387D01*
X117925376Y-104030387D01*
X117950000Y-104035285D01*
X117974624Y-104030387D01*
X118550000Y-104030387D01*
X118657299Y-104009044D01*
X118748264Y-103948264D01*
X118809044Y-103857299D01*
X118830387Y-103750000D01*
X118830387Y-102850000D01*
X118809044Y-102742701D01*
X118748264Y-102651736D01*
X118657299Y-102590956D01*
X118550000Y-102569613D01*
X117750000Y-102569613D01*
X117642701Y-102590956D01*
X117551736Y-102651736D01*
X117490956Y-102742701D01*
X117469613Y-102850000D01*
X117469613Y-102975000D01*
X116430387Y-102975000D01*
X116430387Y-102900000D01*
X116409044Y-102792701D01*
X116348264Y-102701736D01*
X116257299Y-102640956D01*
X116150000Y-102619613D01*
X115250000Y-102619613D01*
X115142701Y-102640956D01*
X115051736Y-102701736D01*
X114990956Y-102792701D01*
X114984531Y-102825000D01*
X114905387Y-102825000D01*
X114905387Y-102700000D01*
X114884044Y-102592701D01*
X114823264Y-102501736D01*
X114732299Y-102440956D01*
X114625000Y-102419613D01*
X113375000Y-102419613D01*
X113267701Y-102440956D01*
X113176736Y-102501736D01*
X113115956Y-102592701D01*
X113094613Y-102700000D01*
X112501040Y-102700000D01*
X113476041Y-101725000D01*
X114969613Y-101725000D01*
X114969613Y-101900000D01*
X114990956Y-102007299D01*
X115051736Y-102098264D01*
X115142701Y-102159044D01*
X115250000Y-102180387D01*
X116150000Y-102180387D01*
X116257299Y-102159044D01*
X116348264Y-102098264D01*
X116409044Y-102007299D01*
X116430387Y-101900000D01*
X116430387Y-100700000D01*
X116409044Y-100592701D01*
X116348264Y-100501736D01*
X116257299Y-100440956D01*
X116150000Y-100419613D01*
X115250000Y-100419613D01*
X115142701Y-100440956D01*
X115051736Y-100501736D01*
X114990956Y-100592701D01*
X114969613Y-100700000D01*
X114969613Y-100875000D01*
X113341855Y-100875000D01*
X113299999Y-100866674D01*
X113258143Y-100875000D01*
X113258142Y-100875000D01*
X113134173Y-100899659D01*
X112993592Y-100993592D01*
X112969881Y-101029078D01*
X110323959Y-103675001D01*
X109676039Y-103675001D01*
X110370923Y-102980118D01*
X110406408Y-102956408D01*
X110500341Y-102815827D01*
X110525000Y-102691858D01*
X110525000Y-102691857D01*
X110533326Y-102650000D01*
X110529425Y-102630387D01*
X110850000Y-102630387D01*
X110957299Y-102609044D01*
X111048264Y-102548264D01*
X111109044Y-102457299D01*
X111130387Y-102350000D01*
X111130387Y-100850000D01*
X111109044Y-100742701D01*
X111048264Y-100651736D01*
X110957299Y-100590956D01*
X110850000Y-100569613D01*
X109350000Y-100569613D01*
X109242701Y-100590956D01*
X109151736Y-100651736D01*
X109090956Y-100742701D01*
X109075000Y-100822918D01*
X109075000Y-100430387D01*
X109350000Y-100430387D01*
X109457299Y-100409044D01*
X109548264Y-100348264D01*
X109609044Y-100257299D01*
X109630387Y-100150000D01*
X109630387Y-98231427D01*
X110019613Y-98620653D01*
X110019613Y-99200000D01*
X110040956Y-99307299D01*
X110101736Y-99398264D01*
X110192701Y-99459044D01*
X110300000Y-99480387D01*
X111500000Y-99480387D01*
X111607299Y-99459044D01*
X111698264Y-99398264D01*
X111759044Y-99307299D01*
X111780387Y-99200000D01*
X111780387Y-98300000D01*
X111761230Y-98203692D01*
X112219613Y-98662075D01*
X112219613Y-99200000D01*
X112240956Y-99307299D01*
X112301736Y-99398264D01*
X112392701Y-99459044D01*
X112500000Y-99480387D01*
X113074314Y-99480387D01*
X113192033Y-99559044D01*
X113245155Y-99594539D01*
X113450000Y-99635285D01*
X113501706Y-99625000D01*
X114869613Y-99625000D01*
X114869613Y-99700000D01*
X114890956Y-99807299D01*
X114951736Y-99898264D01*
X115042701Y-99959044D01*
X115150000Y-99980387D01*
X116050000Y-99980387D01*
X116157299Y-99959044D01*
X116248264Y-99898264D01*
X116309044Y-99807299D01*
X116330387Y-99700000D01*
X116330387Y-98500000D01*
X116309044Y-98392701D01*
X116248264Y-98301736D01*
X116157299Y-98240956D01*
X116050000Y-98219613D01*
X115150000Y-98219613D01*
X115042701Y-98240956D01*
X114951736Y-98301736D01*
X114890956Y-98392701D01*
X114869613Y-98500000D01*
X114869613Y-98575000D01*
X113980387Y-98575000D01*
X113980387Y-98300000D01*
X113959044Y-98192701D01*
X113898264Y-98101736D01*
X113807299Y-98040956D01*
X113700000Y-98019613D01*
X113062075Y-98019613D01*
X112768705Y-97726244D01*
X113013821Y-97775000D01*
X113013822Y-97775000D01*
X113099999Y-97792142D01*
X113186177Y-97775000D01*
X115122918Y-97775000D01*
X115150000Y-97780387D01*
X116050000Y-97780387D01*
X116157299Y-97759044D01*
X116248264Y-97698264D01*
X116309044Y-97607299D01*
X116330387Y-97500000D01*
X116330387Y-97381857D01*
X116424232Y-97241408D01*
X116492142Y-96900000D01*
X116424232Y-96558592D01*
X116330387Y-96418143D01*
X116330387Y-96300000D01*
X116309044Y-96192701D01*
X116248264Y-96101736D01*
X116157299Y-96040956D01*
X116050000Y-96019613D01*
X115150000Y-96019613D01*
X115122918Y-96025000D01*
X113825000Y-96025000D01*
X113825000Y-95375000D01*
X114563822Y-95375000D01*
X114650000Y-95392142D01*
X114736178Y-95375000D01*
X114736179Y-95375000D01*
X114991408Y-95324232D01*
X115280840Y-95130840D01*
X115329659Y-95057777D01*
X118177775Y-92209661D01*
X118431256Y-92779992D01*
G36*
X99877763Y-105257357D02*
X100040578Y-105420172D01*
X100042464Y-105429656D01*
X100049659Y-105465826D01*
X100143592Y-105606408D01*
X100179080Y-105630121D01*
X100469881Y-105920922D01*
X100493592Y-105956408D01*
X100634173Y-106050341D01*
X100701384Y-106063710D01*
X100800000Y-106083326D01*
X100841857Y-106075000D01*
X102423960Y-106075000D01*
X102675001Y-106326042D01*
X102675000Y-108108142D01*
X102666674Y-108150000D01*
X102679276Y-108213353D01*
X102699659Y-108315826D01*
X102793592Y-108456408D01*
X102829081Y-108480121D01*
X102873960Y-108525000D01*
X102746387Y-108525000D01*
X102277770Y-108719107D01*
X101919107Y-109077770D01*
X101725000Y-109546387D01*
X101725000Y-110053613D01*
X101919107Y-110522230D01*
X102277770Y-110880893D01*
X102625676Y-111025000D01*
X100725000Y-111025000D01*
X100725000Y-108980387D01*
X101350000Y-108980387D01*
X101457299Y-108959044D01*
X101548264Y-108898264D01*
X101609044Y-108807299D01*
X101630387Y-108700000D01*
X101630387Y-106700000D01*
X101609044Y-106592701D01*
X101548264Y-106501736D01*
X101457299Y-106440956D01*
X101350000Y-106419613D01*
X99725000Y-106419613D01*
X99725000Y-105112437D01*
X99790573Y-105046864D01*
X99877763Y-105257357D01*
X99877763Y-105257357D01*
G37*
X99877763Y-105257357D02*
X100040578Y-105420172D01*
X100042464Y-105429656D01*
X100049659Y-105465826D01*
X100143592Y-105606408D01*
X100179080Y-105630121D01*
X100469881Y-105920922D01*
X100493592Y-105956408D01*
X100634173Y-106050341D01*
X100701384Y-106063710D01*
X100800000Y-106083326D01*
X100841857Y-106075000D01*
X102423960Y-106075000D01*
X102675001Y-106326042D01*
X102675000Y-108108142D01*
X102666674Y-108150000D01*
X102679276Y-108213353D01*
X102699659Y-108315826D01*
X102793592Y-108456408D01*
X102829081Y-108480121D01*
X102873960Y-108525000D01*
X102746387Y-108525000D01*
X102277770Y-108719107D01*
X101919107Y-109077770D01*
X101725000Y-109546387D01*
X101725000Y-110053613D01*
X101919107Y-110522230D01*
X102277770Y-110880893D01*
X102625676Y-111025000D01*
X100725000Y-111025000D01*
X100725000Y-108980387D01*
X101350000Y-108980387D01*
X101457299Y-108959044D01*
X101548264Y-108898264D01*
X101609044Y-108807299D01*
X101630387Y-108700000D01*
X101630387Y-106700000D01*
X101609044Y-106592701D01*
X101548264Y-106501736D01*
X101457299Y-106440956D01*
X101350000Y-106419613D01*
X99725000Y-106419613D01*
X99725000Y-105112437D01*
X99790573Y-105046864D01*
X99877763Y-105257357D01*
G36*
X96099478Y-91565903D02*
X96050000Y-91685354D01*
X96050000Y-92093750D01*
X96131250Y-92175000D01*
X96575000Y-92175000D01*
X96575000Y-92155000D01*
X96925000Y-92155000D01*
X96925000Y-92175000D01*
X97368750Y-92175000D01*
X97450000Y-92093750D01*
X97450000Y-91685354D01*
X97400522Y-91565903D01*
X97359618Y-91524999D01*
X97769613Y-91524999D01*
X97769613Y-92429346D01*
X97450000Y-92748959D01*
X97450000Y-92606250D01*
X97368750Y-92525000D01*
X96925000Y-92525000D01*
X96925000Y-93193750D01*
X96965105Y-93233855D01*
X96829347Y-93369613D01*
X96375000Y-93369613D01*
X96267701Y-93390956D01*
X96176736Y-93451736D01*
X96115956Y-93542701D01*
X96094613Y-93650000D01*
X96094613Y-94850000D01*
X96115956Y-94957299D01*
X96176736Y-95048264D01*
X96267701Y-95109044D01*
X96322647Y-95119973D01*
X96316674Y-95150000D01*
X96349659Y-95315826D01*
X96400462Y-95391858D01*
X96443593Y-95456408D01*
X96479079Y-95480119D01*
X97568572Y-96569613D01*
X96325000Y-96569613D01*
X96217701Y-96590956D01*
X96129334Y-96650000D01*
X95401041Y-96650000D01*
X94925000Y-96173960D01*
X94925000Y-95230387D01*
X94950000Y-95230387D01*
X95057299Y-95209044D01*
X95148264Y-95148264D01*
X95209044Y-95057299D01*
X95230387Y-94950000D01*
X95230387Y-93750000D01*
X95209044Y-93642701D01*
X95148264Y-93551736D01*
X95057299Y-93490956D01*
X94950000Y-93469613D01*
X94050000Y-93469613D01*
X93942701Y-93490956D01*
X93851736Y-93551736D01*
X93790956Y-93642701D01*
X93769613Y-93750000D01*
X93769613Y-94950000D01*
X93790956Y-95057299D01*
X93851736Y-95148264D01*
X93942701Y-95209044D01*
X94050000Y-95230387D01*
X94075001Y-95230387D01*
X94075000Y-96308142D01*
X94066674Y-96350000D01*
X94075000Y-96391857D01*
X94099659Y-96515826D01*
X94193592Y-96656408D01*
X94229081Y-96680121D01*
X94894881Y-97345922D01*
X94918592Y-97381408D01*
X95059173Y-97475341D01*
X95108552Y-97485163D01*
X95225000Y-97508326D01*
X95266857Y-97500000D01*
X96044613Y-97500000D01*
X96044613Y-97950000D01*
X96064504Y-98050000D01*
X96044613Y-98150000D01*
X96044613Y-98600000D01*
X94801041Y-98600000D01*
X94730387Y-98529346D01*
X94730387Y-97800000D01*
X94709044Y-97692701D01*
X94648264Y-97601736D01*
X94557299Y-97540956D01*
X94450000Y-97519613D01*
X93550000Y-97519613D01*
X93442701Y-97540956D01*
X93351736Y-97601736D01*
X93290956Y-97692701D01*
X93269613Y-97800000D01*
X93269613Y-99000000D01*
X93290956Y-99107299D01*
X93351736Y-99198264D01*
X93442701Y-99259044D01*
X93550000Y-99280387D01*
X94279346Y-99280387D01*
X94294881Y-99295922D01*
X94318592Y-99331408D01*
X94437860Y-99411100D01*
X94129347Y-99719613D01*
X93550000Y-99719613D01*
X93442701Y-99740956D01*
X93351736Y-99801736D01*
X93290956Y-99892701D01*
X93269613Y-100000000D01*
X93269613Y-100025000D01*
X93076041Y-100025000D01*
X91175000Y-98123960D01*
X91175000Y-97880387D01*
X91600000Y-97880387D01*
X91707299Y-97859044D01*
X91798264Y-97798264D01*
X91859044Y-97707299D01*
X91880387Y-97600000D01*
X91880387Y-95900000D01*
X91859044Y-95792701D01*
X91798264Y-95701736D01*
X91707299Y-95640956D01*
X91600000Y-95619613D01*
X91098324Y-95619613D01*
X91255379Y-95462558D01*
X91358142Y-95214467D01*
X91358142Y-94945935D01*
X91255379Y-94697844D01*
X91065499Y-94507964D01*
X90817408Y-94405201D01*
X90548876Y-94405201D01*
X90300785Y-94507964D01*
X90128655Y-94680094D01*
X90089797Y-94672365D01*
X90050403Y-94680201D01*
X89933725Y-94703410D01*
X89801413Y-94791817D01*
X89779096Y-94825217D01*
X89244778Y-95359536D01*
X89244174Y-95359656D01*
X89103593Y-95453589D01*
X89009660Y-95594171D01*
X88985001Y-95718140D01*
X88985001Y-95914813D01*
X88745954Y-95755087D01*
X92094791Y-92406250D01*
X93725000Y-92406250D01*
X93725000Y-92814646D01*
X93774478Y-92934097D01*
X93865902Y-93025521D01*
X93985353Y-93075000D01*
X94243750Y-93075000D01*
X94325000Y-92993750D01*
X94325000Y-92325000D01*
X94675000Y-92325000D01*
X94675000Y-92993750D01*
X94756250Y-93075000D01*
X95014647Y-93075000D01*
X95134098Y-93025521D01*
X95225522Y-92934097D01*
X95275000Y-92814646D01*
X95275000Y-92606250D01*
X96050000Y-92606250D01*
X96050000Y-93014646D01*
X96099478Y-93134097D01*
X96190902Y-93225521D01*
X96310353Y-93275000D01*
X96493750Y-93275000D01*
X96575000Y-93193750D01*
X96575000Y-92525000D01*
X96131250Y-92525000D01*
X96050000Y-92606250D01*
X95275000Y-92606250D01*
X95275000Y-92406250D01*
X95193750Y-92325000D01*
X94675000Y-92325000D01*
X94325000Y-92325000D01*
X93806250Y-92325000D01*
X93725000Y-92406250D01*
X92094791Y-92406250D01*
X92376020Y-92125022D01*
X93072361Y-92125020D01*
X93114223Y-92133347D01*
X93280049Y-92100362D01*
X93385145Y-92030139D01*
X93420631Y-92006428D01*
X93444342Y-91970942D01*
X93725000Y-91690285D01*
X93725000Y-91893750D01*
X93806250Y-91975000D01*
X94325000Y-91975000D01*
X94325000Y-91955000D01*
X94675000Y-91955000D01*
X94675000Y-91975000D01*
X95193750Y-91975000D01*
X95275000Y-91893750D01*
X95275000Y-91524999D01*
X96140382Y-91524999D01*
X96099478Y-91565903D01*
X96099478Y-91565903D01*
G37*
X96099478Y-91565903D02*
X96050000Y-91685354D01*
X96050000Y-92093750D01*
X96131250Y-92175000D01*
X96575000Y-92175000D01*
X96575000Y-92155000D01*
X96925000Y-92155000D01*
X96925000Y-92175000D01*
X97368750Y-92175000D01*
X97450000Y-92093750D01*
X97450000Y-91685354D01*
X97400522Y-91565903D01*
X97359618Y-91524999D01*
X97769613Y-91524999D01*
X97769613Y-92429346D01*
X97450000Y-92748959D01*
X97450000Y-92606250D01*
X97368750Y-92525000D01*
X96925000Y-92525000D01*
X96925000Y-93193750D01*
X96965105Y-93233855D01*
X96829347Y-93369613D01*
X96375000Y-93369613D01*
X96267701Y-93390956D01*
X96176736Y-93451736D01*
X96115956Y-93542701D01*
X96094613Y-93650000D01*
X96094613Y-94850000D01*
X96115956Y-94957299D01*
X96176736Y-95048264D01*
X96267701Y-95109044D01*
X96322647Y-95119973D01*
X96316674Y-95150000D01*
X96349659Y-95315826D01*
X96400462Y-95391858D01*
X96443593Y-95456408D01*
X96479079Y-95480119D01*
X97568572Y-96569613D01*
X96325000Y-96569613D01*
X96217701Y-96590956D01*
X96129334Y-96650000D01*
X95401041Y-96650000D01*
X94925000Y-96173960D01*
X94925000Y-95230387D01*
X94950000Y-95230387D01*
X95057299Y-95209044D01*
X95148264Y-95148264D01*
X95209044Y-95057299D01*
X95230387Y-94950000D01*
X95230387Y-93750000D01*
X95209044Y-93642701D01*
X95148264Y-93551736D01*
X95057299Y-93490956D01*
X94950000Y-93469613D01*
X94050000Y-93469613D01*
X93942701Y-93490956D01*
X93851736Y-93551736D01*
X93790956Y-93642701D01*
X93769613Y-93750000D01*
X93769613Y-94950000D01*
X93790956Y-95057299D01*
X93851736Y-95148264D01*
X93942701Y-95209044D01*
X94050000Y-95230387D01*
X94075001Y-95230387D01*
X94075000Y-96308142D01*
X94066674Y-96350000D01*
X94075000Y-96391857D01*
X94099659Y-96515826D01*
X94193592Y-96656408D01*
X94229081Y-96680121D01*
X94894881Y-97345922D01*
X94918592Y-97381408D01*
X95059173Y-97475341D01*
X95108552Y-97485163D01*
X95225000Y-97508326D01*
X95266857Y-97500000D01*
X96044613Y-97500000D01*
X96044613Y-97950000D01*
X96064504Y-98050000D01*
X96044613Y-98150000D01*
X96044613Y-98600000D01*
X94801041Y-98600000D01*
X94730387Y-98529346D01*
X94730387Y-97800000D01*
X94709044Y-97692701D01*
X94648264Y-97601736D01*
X94557299Y-97540956D01*
X94450000Y-97519613D01*
X93550000Y-97519613D01*
X93442701Y-97540956D01*
X93351736Y-97601736D01*
X93290956Y-97692701D01*
X93269613Y-97800000D01*
X93269613Y-99000000D01*
X93290956Y-99107299D01*
X93351736Y-99198264D01*
X93442701Y-99259044D01*
X93550000Y-99280387D01*
X94279346Y-99280387D01*
X94294881Y-99295922D01*
X94318592Y-99331408D01*
X94437860Y-99411100D01*
X94129347Y-99719613D01*
X93550000Y-99719613D01*
X93442701Y-99740956D01*
X93351736Y-99801736D01*
X93290956Y-99892701D01*
X93269613Y-100000000D01*
X93269613Y-100025000D01*
X93076041Y-100025000D01*
X91175000Y-98123960D01*
X91175000Y-97880387D01*
X91600000Y-97880387D01*
X91707299Y-97859044D01*
X91798264Y-97798264D01*
X91859044Y-97707299D01*
X91880387Y-97600000D01*
X91880387Y-95900000D01*
X91859044Y-95792701D01*
X91798264Y-95701736D01*
X91707299Y-95640956D01*
X91600000Y-95619613D01*
X91098324Y-95619613D01*
X91255379Y-95462558D01*
X91358142Y-95214467D01*
X91358142Y-94945935D01*
X91255379Y-94697844D01*
X91065499Y-94507964D01*
X90817408Y-94405201D01*
X90548876Y-94405201D01*
X90300785Y-94507964D01*
X90128655Y-94680094D01*
X90089797Y-94672365D01*
X90050403Y-94680201D01*
X89933725Y-94703410D01*
X89801413Y-94791817D01*
X89779096Y-94825217D01*
X89244778Y-95359536D01*
X89244174Y-95359656D01*
X89103593Y-95453589D01*
X89009660Y-95594171D01*
X88985001Y-95718140D01*
X88985001Y-95914813D01*
X88745954Y-95755087D01*
X92094791Y-92406250D01*
X93725000Y-92406250D01*
X93725000Y-92814646D01*
X93774478Y-92934097D01*
X93865902Y-93025521D01*
X93985353Y-93075000D01*
X94243750Y-93075000D01*
X94325000Y-92993750D01*
X94325000Y-92325000D01*
X94675000Y-92325000D01*
X94675000Y-92993750D01*
X94756250Y-93075000D01*
X95014647Y-93075000D01*
X95134098Y-93025521D01*
X95225522Y-92934097D01*
X95275000Y-92814646D01*
X95275000Y-92606250D01*
X96050000Y-92606250D01*
X96050000Y-93014646D01*
X96099478Y-93134097D01*
X96190902Y-93225521D01*
X96310353Y-93275000D01*
X96493750Y-93275000D01*
X96575000Y-93193750D01*
X96575000Y-92525000D01*
X96131250Y-92525000D01*
X96050000Y-92606250D01*
X95275000Y-92606250D01*
X95275000Y-92406250D01*
X95193750Y-92325000D01*
X94675000Y-92325000D01*
X94325000Y-92325000D01*
X93806250Y-92325000D01*
X93725000Y-92406250D01*
X92094791Y-92406250D01*
X92376020Y-92125022D01*
X93072361Y-92125020D01*
X93114223Y-92133347D01*
X93280049Y-92100362D01*
X93385145Y-92030139D01*
X93420631Y-92006428D01*
X93444342Y-91970942D01*
X93725000Y-91690285D01*
X93725000Y-91893750D01*
X93806250Y-91975000D01*
X94325000Y-91975000D01*
X94325000Y-91955000D01*
X94675000Y-91955000D01*
X94675000Y-91975000D01*
X95193750Y-91975000D01*
X95275000Y-91893750D01*
X95275000Y-91524999D01*
X96140382Y-91524999D01*
X96099478Y-91565903D01*
G36*
X87776849Y-95689119D02*
X87771047Y-95690273D01*
X87398920Y-95938920D01*
X87150273Y-96311047D01*
X87062960Y-96750000D01*
X87150273Y-97188953D01*
X87398920Y-97561080D01*
X87771047Y-97809727D01*
X88099197Y-97875000D01*
X88320803Y-97875000D01*
X88648953Y-97809727D01*
X88985002Y-97585187D01*
X88985002Y-97698141D01*
X88976675Y-97740003D01*
X89009660Y-97905829D01*
X89068302Y-97993593D01*
X89103594Y-98046411D01*
X89139080Y-98070122D01*
X89938570Y-98869613D01*
X86700000Y-98869613D01*
X86592701Y-98890956D01*
X86501736Y-98951736D01*
X86440956Y-99042701D01*
X86419613Y-99150000D01*
X86419613Y-99833353D01*
X86406408Y-99813590D01*
X86370922Y-99789879D01*
X84440122Y-97859080D01*
X84416409Y-97823591D01*
X84275828Y-97729658D01*
X84151859Y-97704999D01*
X84151858Y-97704999D01*
X84110001Y-97696673D01*
X84068144Y-97704999D01*
X83725690Y-97704999D01*
X83941080Y-97561080D01*
X84189727Y-97188953D01*
X84206504Y-97104609D01*
X84549770Y-97104609D01*
X84770745Y-97506310D01*
X85128624Y-97792870D01*
X85315395Y-97870214D01*
X85495001Y-97829659D01*
X85495001Y-96925000D01*
X85845001Y-96925000D01*
X85845001Y-97829659D01*
X86024607Y-97870214D01*
X86211378Y-97792870D01*
X86569257Y-97506310D01*
X86790232Y-97104609D01*
X86750663Y-96925000D01*
X85845001Y-96925000D01*
X85495001Y-96925000D01*
X84589339Y-96925000D01*
X84549770Y-97104609D01*
X84206504Y-97104609D01*
X84277040Y-96750000D01*
X84206505Y-96395391D01*
X84549770Y-96395391D01*
X84589339Y-96575000D01*
X85495001Y-96575000D01*
X85495001Y-95670341D01*
X85845001Y-95670341D01*
X85845001Y-96575000D01*
X86750663Y-96575000D01*
X86790232Y-96395391D01*
X86569257Y-95993690D01*
X86211378Y-95707130D01*
X86024607Y-95629786D01*
X85845001Y-95670341D01*
X85495001Y-95670341D01*
X85315395Y-95629786D01*
X85128624Y-95707130D01*
X84770745Y-95993690D01*
X84549770Y-96395391D01*
X84206505Y-96395391D01*
X84189727Y-96311047D01*
X84181823Y-96299218D01*
X84956041Y-95525000D01*
X87809495Y-95524998D01*
X87776849Y-95689119D01*
X87776849Y-95689119D01*
G37*
X87776849Y-95689119D02*
X87771047Y-95690273D01*
X87398920Y-95938920D01*
X87150273Y-96311047D01*
X87062960Y-96750000D01*
X87150273Y-97188953D01*
X87398920Y-97561080D01*
X87771047Y-97809727D01*
X88099197Y-97875000D01*
X88320803Y-97875000D01*
X88648953Y-97809727D01*
X88985002Y-97585187D01*
X88985002Y-97698141D01*
X88976675Y-97740003D01*
X89009660Y-97905829D01*
X89068302Y-97993593D01*
X89103594Y-98046411D01*
X89139080Y-98070122D01*
X89938570Y-98869613D01*
X86700000Y-98869613D01*
X86592701Y-98890956D01*
X86501736Y-98951736D01*
X86440956Y-99042701D01*
X86419613Y-99150000D01*
X86419613Y-99833353D01*
X86406408Y-99813590D01*
X86370922Y-99789879D01*
X84440122Y-97859080D01*
X84416409Y-97823591D01*
X84275828Y-97729658D01*
X84151859Y-97704999D01*
X84151858Y-97704999D01*
X84110001Y-97696673D01*
X84068144Y-97704999D01*
X83725690Y-97704999D01*
X83941080Y-97561080D01*
X84189727Y-97188953D01*
X84206504Y-97104609D01*
X84549770Y-97104609D01*
X84770745Y-97506310D01*
X85128624Y-97792870D01*
X85315395Y-97870214D01*
X85495001Y-97829659D01*
X85495001Y-96925000D01*
X85845001Y-96925000D01*
X85845001Y-97829659D01*
X86024607Y-97870214D01*
X86211378Y-97792870D01*
X86569257Y-97506310D01*
X86790232Y-97104609D01*
X86750663Y-96925000D01*
X85845001Y-96925000D01*
X85495001Y-96925000D01*
X84589339Y-96925000D01*
X84549770Y-97104609D01*
X84206504Y-97104609D01*
X84277040Y-96750000D01*
X84206505Y-96395391D01*
X84549770Y-96395391D01*
X84589339Y-96575000D01*
X85495001Y-96575000D01*
X85495001Y-95670341D01*
X85845001Y-95670341D01*
X85845001Y-96575000D01*
X86750663Y-96575000D01*
X86790232Y-96395391D01*
X86569257Y-95993690D01*
X86211378Y-95707130D01*
X86024607Y-95629786D01*
X85845001Y-95670341D01*
X85495001Y-95670341D01*
X85315395Y-95629786D01*
X85128624Y-95707130D01*
X84770745Y-95993690D01*
X84549770Y-96395391D01*
X84206505Y-96395391D01*
X84189727Y-96311047D01*
X84181823Y-96299218D01*
X84956041Y-95525000D01*
X87809495Y-95524998D01*
X87776849Y-95689119D01*
G36*
X101844613Y-94800000D02*
X101865956Y-94907299D01*
X101926736Y-94998264D01*
X102017701Y-95059044D01*
X102125000Y-95080387D01*
X102800002Y-95080387D01*
X102800002Y-96098958D01*
X102679080Y-96219880D01*
X102643592Y-96243592D01*
X102555789Y-96375000D01*
X102549659Y-96384174D01*
X102516674Y-96550000D01*
X102520575Y-96569613D01*
X102225000Y-96569613D01*
X102117701Y-96590956D01*
X102026736Y-96651736D01*
X101965956Y-96742701D01*
X101944613Y-96850000D01*
X101944613Y-97300000D01*
X101964504Y-97400000D01*
X101944613Y-97500000D01*
X101944613Y-97950000D01*
X101964504Y-98050000D01*
X101944613Y-98150000D01*
X101944613Y-98600000D01*
X101964504Y-98700000D01*
X101944613Y-98800000D01*
X101944613Y-98982033D01*
X101904845Y-98955461D01*
X101751706Y-98925000D01*
X100847704Y-98925000D01*
X100795998Y-98914715D01*
X100744292Y-98925000D01*
X100591153Y-98955461D01*
X100417494Y-99071496D01*
X100388201Y-99115336D01*
X100378537Y-99125000D01*
X99951705Y-99125000D01*
X99899999Y-99114715D01*
X99848293Y-99125000D01*
X98151704Y-99125000D01*
X98099999Y-99114715D01*
X98055387Y-99123589D01*
X98055387Y-98800000D01*
X98090263Y-98800000D01*
X98132120Y-98808326D01*
X98173977Y-98800000D01*
X98173978Y-98800000D01*
X98297947Y-98775341D01*
X98438528Y-98681408D01*
X98462241Y-98645919D01*
X100620923Y-96487238D01*
X100656408Y-96463528D01*
X100750341Y-96322947D01*
X100775000Y-96198978D01*
X100775000Y-96198977D01*
X100783326Y-96157120D01*
X100775000Y-96115263D01*
X100775000Y-95330387D01*
X100950000Y-95330387D01*
X101057299Y-95309044D01*
X101148264Y-95248264D01*
X101209044Y-95157299D01*
X101230387Y-95050000D01*
X101230387Y-94775000D01*
X101844613Y-94775000D01*
X101844613Y-94800000D01*
X101844613Y-94800000D01*
G37*
X101844613Y-94800000D02*
X101865956Y-94907299D01*
X101926736Y-94998264D01*
X102017701Y-95059044D01*
X102125000Y-95080387D01*
X102800002Y-95080387D01*
X102800002Y-96098958D01*
X102679080Y-96219880D01*
X102643592Y-96243592D01*
X102555789Y-96375000D01*
X102549659Y-96384174D01*
X102516674Y-96550000D01*
X102520575Y-96569613D01*
X102225000Y-96569613D01*
X102117701Y-96590956D01*
X102026736Y-96651736D01*
X101965956Y-96742701D01*
X101944613Y-96850000D01*
X101944613Y-97300000D01*
X101964504Y-97400000D01*
X101944613Y-97500000D01*
X101944613Y-97950000D01*
X101964504Y-98050000D01*
X101944613Y-98150000D01*
X101944613Y-98600000D01*
X101964504Y-98700000D01*
X101944613Y-98800000D01*
X101944613Y-98982033D01*
X101904845Y-98955461D01*
X101751706Y-98925000D01*
X100847704Y-98925000D01*
X100795998Y-98914715D01*
X100744292Y-98925000D01*
X100591153Y-98955461D01*
X100417494Y-99071496D01*
X100388201Y-99115336D01*
X100378537Y-99125000D01*
X99951705Y-99125000D01*
X99899999Y-99114715D01*
X99848293Y-99125000D01*
X98151704Y-99125000D01*
X98099999Y-99114715D01*
X98055387Y-99123589D01*
X98055387Y-98800000D01*
X98090263Y-98800000D01*
X98132120Y-98808326D01*
X98173977Y-98800000D01*
X98173978Y-98800000D01*
X98297947Y-98775341D01*
X98438528Y-98681408D01*
X98462241Y-98645919D01*
X100620923Y-96487238D01*
X100656408Y-96463528D01*
X100750341Y-96322947D01*
X100775000Y-96198978D01*
X100775000Y-96198977D01*
X100783326Y-96157120D01*
X100775000Y-96115263D01*
X100775000Y-95330387D01*
X100950000Y-95330387D01*
X101057299Y-95309044D01*
X101148264Y-95248264D01*
X101209044Y-95157299D01*
X101230387Y-95050000D01*
X101230387Y-94775000D01*
X101844613Y-94775000D01*
X101844613Y-94800000D01*
G36*
X101800000Y-91635354D02*
X101800000Y-92043750D01*
X101881250Y-92125000D01*
X102325000Y-92125000D01*
X102325000Y-92105000D01*
X102675000Y-92105000D01*
X102675000Y-92125000D01*
X102695000Y-92125000D01*
X102695000Y-92475000D01*
X102675000Y-92475000D01*
X102675000Y-93143750D01*
X102756250Y-93225000D01*
X102800001Y-93225000D01*
X102800001Y-93319613D01*
X102125000Y-93319613D01*
X102017701Y-93340956D01*
X101926736Y-93401736D01*
X101865956Y-93492701D01*
X101844613Y-93600000D01*
X101844613Y-93925000D01*
X101230387Y-93925000D01*
X101230387Y-93650000D01*
X101209044Y-93542701D01*
X101148264Y-93451736D01*
X101057299Y-93390956D01*
X100950000Y-93369613D01*
X99750000Y-93369613D01*
X99642701Y-93390956D01*
X99551736Y-93451736D01*
X99531931Y-93481376D01*
X99525522Y-93465903D01*
X99434098Y-93374479D01*
X99314647Y-93325000D01*
X98906250Y-93325000D01*
X98825000Y-93406250D01*
X98825000Y-94175000D01*
X98845000Y-94175000D01*
X98845000Y-94525000D01*
X98825000Y-94525000D01*
X98825000Y-95293750D01*
X98906250Y-95375000D01*
X99314647Y-95375000D01*
X99434098Y-95325521D01*
X99525522Y-95234097D01*
X99531931Y-95218624D01*
X99551736Y-95248264D01*
X99642701Y-95309044D01*
X99750000Y-95330387D01*
X99925000Y-95330387D01*
X99925000Y-95391857D01*
X99925001Y-95391862D01*
X99925000Y-95981079D01*
X98925000Y-96981080D01*
X98925000Y-96941857D01*
X98933326Y-96900000D01*
X98900341Y-96734173D01*
X98848380Y-96656408D01*
X98806408Y-96593592D01*
X98770923Y-96569882D01*
X97278928Y-95077888D01*
X97323264Y-95048264D01*
X97384044Y-94957299D01*
X97405387Y-94850000D01*
X97405387Y-94606250D01*
X97725000Y-94606250D01*
X97725000Y-95114646D01*
X97774478Y-95234097D01*
X97865902Y-95325521D01*
X97985353Y-95375000D01*
X98393750Y-95375000D01*
X98475000Y-95293750D01*
X98475000Y-94525000D01*
X97806250Y-94525000D01*
X97725000Y-94606250D01*
X97405387Y-94606250D01*
X97405387Y-93995653D01*
X97725000Y-93676040D01*
X97725000Y-94093750D01*
X97806250Y-94175000D01*
X98475000Y-94175000D01*
X98475000Y-93406250D01*
X98393750Y-93325000D01*
X98076041Y-93325000D01*
X98270654Y-93130387D01*
X99250000Y-93130387D01*
X99357299Y-93109044D01*
X99448264Y-93048264D01*
X99468069Y-93018624D01*
X99474478Y-93034097D01*
X99565902Y-93125521D01*
X99685353Y-93175000D01*
X100093750Y-93175000D01*
X100175000Y-93093750D01*
X100175000Y-92325000D01*
X100525000Y-92325000D01*
X100525000Y-93093750D01*
X100606250Y-93175000D01*
X101014647Y-93175000D01*
X101134098Y-93125521D01*
X101225522Y-93034097D01*
X101275000Y-92914646D01*
X101275000Y-92556250D01*
X101800000Y-92556250D01*
X101800000Y-92964646D01*
X101849478Y-93084097D01*
X101940902Y-93175521D01*
X102060353Y-93225000D01*
X102243750Y-93225000D01*
X102325000Y-93143750D01*
X102325000Y-92475000D01*
X101881250Y-92475000D01*
X101800000Y-92556250D01*
X101275000Y-92556250D01*
X101275000Y-92406250D01*
X101193750Y-92325000D01*
X100525000Y-92325000D01*
X100175000Y-92325000D01*
X100155000Y-92325000D01*
X100155000Y-91975000D01*
X100175000Y-91975000D01*
X100175000Y-91955000D01*
X100525000Y-91955000D01*
X100525000Y-91975000D01*
X101193750Y-91975000D01*
X101275000Y-91893750D01*
X101275000Y-91524999D01*
X101845710Y-91524999D01*
X101800000Y-91635354D01*
X101800000Y-91635354D01*
G37*
X101800000Y-91635354D02*
X101800000Y-92043750D01*
X101881250Y-92125000D01*
X102325000Y-92125000D01*
X102325000Y-92105000D01*
X102675000Y-92105000D01*
X102675000Y-92125000D01*
X102695000Y-92125000D01*
X102695000Y-92475000D01*
X102675000Y-92475000D01*
X102675000Y-93143750D01*
X102756250Y-93225000D01*
X102800001Y-93225000D01*
X102800001Y-93319613D01*
X102125000Y-93319613D01*
X102017701Y-93340956D01*
X101926736Y-93401736D01*
X101865956Y-93492701D01*
X101844613Y-93600000D01*
X101844613Y-93925000D01*
X101230387Y-93925000D01*
X101230387Y-93650000D01*
X101209044Y-93542701D01*
X101148264Y-93451736D01*
X101057299Y-93390956D01*
X100950000Y-93369613D01*
X99750000Y-93369613D01*
X99642701Y-93390956D01*
X99551736Y-93451736D01*
X99531931Y-93481376D01*
X99525522Y-93465903D01*
X99434098Y-93374479D01*
X99314647Y-93325000D01*
X98906250Y-93325000D01*
X98825000Y-93406250D01*
X98825000Y-94175000D01*
X98845000Y-94175000D01*
X98845000Y-94525000D01*
X98825000Y-94525000D01*
X98825000Y-95293750D01*
X98906250Y-95375000D01*
X99314647Y-95375000D01*
X99434098Y-95325521D01*
X99525522Y-95234097D01*
X99531931Y-95218624D01*
X99551736Y-95248264D01*
X99642701Y-95309044D01*
X99750000Y-95330387D01*
X99925000Y-95330387D01*
X99925000Y-95391857D01*
X99925001Y-95391862D01*
X99925000Y-95981079D01*
X98925000Y-96981080D01*
X98925000Y-96941857D01*
X98933326Y-96900000D01*
X98900341Y-96734173D01*
X98848380Y-96656408D01*
X98806408Y-96593592D01*
X98770923Y-96569882D01*
X97278928Y-95077888D01*
X97323264Y-95048264D01*
X97384044Y-94957299D01*
X97405387Y-94850000D01*
X97405387Y-94606250D01*
X97725000Y-94606250D01*
X97725000Y-95114646D01*
X97774478Y-95234097D01*
X97865902Y-95325521D01*
X97985353Y-95375000D01*
X98393750Y-95375000D01*
X98475000Y-95293750D01*
X98475000Y-94525000D01*
X97806250Y-94525000D01*
X97725000Y-94606250D01*
X97405387Y-94606250D01*
X97405387Y-93995653D01*
X97725000Y-93676040D01*
X97725000Y-94093750D01*
X97806250Y-94175000D01*
X98475000Y-94175000D01*
X98475000Y-93406250D01*
X98393750Y-93325000D01*
X98076041Y-93325000D01*
X98270654Y-93130387D01*
X99250000Y-93130387D01*
X99357299Y-93109044D01*
X99448264Y-93048264D01*
X99468069Y-93018624D01*
X99474478Y-93034097D01*
X99565902Y-93125521D01*
X99685353Y-93175000D01*
X100093750Y-93175000D01*
X100175000Y-93093750D01*
X100175000Y-92325000D01*
X100525000Y-92325000D01*
X100525000Y-93093750D01*
X100606250Y-93175000D01*
X101014647Y-93175000D01*
X101134098Y-93125521D01*
X101225522Y-93034097D01*
X101275000Y-92914646D01*
X101275000Y-92556250D01*
X101800000Y-92556250D01*
X101800000Y-92964646D01*
X101849478Y-93084097D01*
X101940902Y-93175521D01*
X102060353Y-93225000D01*
X102243750Y-93225000D01*
X102325000Y-93143750D01*
X102325000Y-92475000D01*
X101881250Y-92475000D01*
X101800000Y-92556250D01*
X101275000Y-92556250D01*
X101275000Y-92406250D01*
X101193750Y-92325000D01*
X100525000Y-92325000D01*
X100175000Y-92325000D01*
X100155000Y-92325000D01*
X100155000Y-91975000D01*
X100175000Y-91975000D01*
X100175000Y-91955000D01*
X100525000Y-91955000D01*
X100525000Y-91975000D01*
X101193750Y-91975000D01*
X101275000Y-91893750D01*
X101275000Y-91524999D01*
X101845710Y-91524999D01*
X101800000Y-91635354D01*
G04 #@! TO.N,+12V*
G36*
X103227907Y-75576836D02*
X106381157Y-76209398D01*
X109425348Y-77246699D01*
X112283273Y-78659544D01*
X112284359Y-78660760D01*
X112341112Y-78688137D01*
X112368455Y-78701654D01*
X112369990Y-78702067D01*
X112400812Y-78716935D01*
X112431813Y-78718697D01*
X112461794Y-78726761D01*
X112495722Y-78722328D01*
X112529895Y-78724270D01*
X112559211Y-78714033D01*
X112589997Y-78710011D01*
X112619652Y-78692929D01*
X112651960Y-78681647D01*
X112675125Y-78660973D01*
X112702031Y-78645474D01*
X112722891Y-78618344D01*
X112724075Y-78617287D01*
X112742424Y-78592938D01*
X112746726Y-78587344D01*
X115633561Y-80539135D01*
X117466402Y-82202638D01*
X119757864Y-84820158D01*
X119741917Y-84841318D01*
X119710998Y-84873190D01*
X119691480Y-84922410D01*
X119668473Y-84970100D01*
X119667788Y-84982154D01*
X119663337Y-84993378D01*
X119664140Y-85046315D01*
X119661135Y-85099183D01*
X119665116Y-85110584D01*
X119665299Y-85122654D01*
X119686300Y-85171258D01*
X119703755Y-85221249D01*
X119733318Y-85254376D01*
X120862002Y-86889326D01*
X121854001Y-88607578D01*
X122702260Y-90394218D01*
X123403745Y-92240178D01*
X123955383Y-94136291D01*
X124354132Y-96073469D01*
X124596943Y-98042593D01*
X124680736Y-100033912D01*
X124593545Y-102055934D01*
X124342503Y-104054420D01*
X123930869Y-106019431D01*
X123361885Y-107941445D01*
X122638795Y-109810944D01*
X121764842Y-111618408D01*
X120743269Y-113354322D01*
X119580364Y-115004855D01*
X119549761Y-115039144D01*
X119532815Y-115087672D01*
X119511979Y-115134654D01*
X119511641Y-115148309D01*
X119507137Y-115161208D01*
X119510052Y-115212526D01*
X119508781Y-115263906D01*
X119513695Y-115276653D01*
X119514470Y-115290292D01*
X119536802Y-115336588D01*
X119555290Y-115384544D01*
X119566786Y-115396623D01*
X117716756Y-117566850D01*
X115024590Y-119870147D01*
X112506034Y-121558212D01*
X112490039Y-121537068D01*
X112462151Y-121520711D01*
X112438034Y-121499185D01*
X112406933Y-121488324D01*
X112378514Y-121471655D01*
X112346491Y-121467215D01*
X112315971Y-121456557D01*
X112283080Y-121458424D01*
X112250447Y-121453900D01*
X112219164Y-121462053D01*
X112186887Y-121463885D01*
X112157211Y-121478198D01*
X112156913Y-121478276D01*
X112128398Y-121492096D01*
X112070432Y-121520054D01*
X112070220Y-121520291D01*
X109257224Y-122883593D01*
X106264067Y-123885502D01*
X103167511Y-124497114D01*
X100005651Y-124708407D01*
X96867878Y-124505411D01*
X93793094Y-123908020D01*
X90818763Y-122925911D01*
X87963499Y-121559964D01*
X87905702Y-121532091D01*
X87872603Y-121530214D01*
X87840481Y-121522016D01*
X87808688Y-121526588D01*
X87776616Y-121524769D01*
X87745319Y-121535701D01*
X87712506Y-121540420D01*
X87684879Y-121556813D01*
X87654556Y-121567405D01*
X87629826Y-121589480D01*
X87601315Y-121606398D01*
X87599113Y-121609340D01*
X84945809Y-119870350D01*
X84627140Y-119585343D01*
X88125294Y-119585343D01*
X88262236Y-120096418D01*
X88295699Y-120221305D01*
X88374408Y-120323880D01*
X88486380Y-120388526D01*
X88614566Y-120405402D01*
X89250528Y-120234997D01*
X89307980Y-120135486D01*
X89070190Y-119248042D01*
X88182746Y-119485832D01*
X88125294Y-119585343D01*
X84627140Y-119585343D01*
X84061899Y-119079810D01*
X89698042Y-119079810D01*
X89935832Y-119967254D01*
X90035343Y-120024706D01*
X90671304Y-119854301D01*
X90773879Y-119775593D01*
X90838526Y-119663622D01*
X90855403Y-119535435D01*
X90821939Y-119410547D01*
X90684997Y-118899472D01*
X90585486Y-118842020D01*
X89698042Y-119079810D01*
X84061899Y-119079810D01*
X83038553Y-118164565D01*
X87744597Y-118164565D01*
X87778061Y-118289453D01*
X87915003Y-118800528D01*
X88014514Y-118857980D01*
X88901958Y-118620190D01*
X88664168Y-117732746D01*
X88564657Y-117675294D01*
X87928696Y-117845699D01*
X87826121Y-117924407D01*
X87761474Y-118036378D01*
X87744597Y-118164565D01*
X83038553Y-118164565D01*
X82113501Y-117337230D01*
X80507124Y-115491227D01*
X80513109Y-115484896D01*
X80531244Y-115437382D01*
X80553339Y-115391575D01*
X80554145Y-115377384D01*
X80559214Y-115364103D01*
X80557786Y-115313259D01*
X80560668Y-115262490D01*
X80555982Y-115249072D01*
X80555583Y-115234862D01*
X80534807Y-115188437D01*
X80518041Y-115140426D01*
X80487079Y-115105736D01*
X79309558Y-113446289D01*
X78275660Y-111700396D01*
X77391408Y-109881576D01*
X76660120Y-107999532D01*
X76085139Y-106064024D01*
X75669783Y-104084762D01*
X75417379Y-102071460D01*
X75331270Y-100034159D01*
X75386152Y-98750000D01*
X79725000Y-98750000D01*
X79725000Y-100750000D01*
X79727124Y-100784110D01*
X79977124Y-102784110D01*
X79977764Y-102788891D01*
X80227764Y-104538891D01*
X80236598Y-104579021D01*
X80986598Y-107079021D01*
X80998702Y-107111688D01*
X81469613Y-108171238D01*
X81469613Y-108700000D01*
X81490956Y-108807299D01*
X81550992Y-108897150D01*
X81564164Y-108963372D01*
X81713353Y-109186648D01*
X81769714Y-109224307D01*
X82130133Y-109584727D01*
X82724729Y-110575719D01*
X82740956Y-110657299D01*
X82801736Y-110748264D01*
X82846002Y-110777841D01*
X83514189Y-111891486D01*
X83535261Y-111921791D01*
X84535261Y-113171791D01*
X84555546Y-113194454D01*
X86055546Y-114694454D01*
X86071032Y-114708796D01*
X87821032Y-116208796D01*
X87840159Y-116223777D01*
X89515568Y-117420498D01*
X89349472Y-117465003D01*
X89292020Y-117564514D01*
X89529810Y-118451958D01*
X90417254Y-118214168D01*
X90474706Y-118114657D01*
X90403564Y-117849151D01*
X92386204Y-118750351D01*
X92403441Y-118757491D01*
X94403441Y-119507491D01*
X94440344Y-119518451D01*
X96690344Y-120018451D01*
X96722636Y-120023635D01*
X99222636Y-120273635D01*
X99250000Y-120275000D01*
X100500000Y-120275000D01*
X100522838Y-120274050D01*
X103365274Y-120037180D01*
X103439478Y-120216325D01*
X103798141Y-120574988D01*
X104266758Y-120769095D01*
X104773984Y-120769095D01*
X105242601Y-120574988D01*
X105601264Y-120216325D01*
X105795371Y-119747708D01*
X105795371Y-119441419D01*
X107086963Y-119010888D01*
X107111688Y-119001298D01*
X108119173Y-118553527D01*
X108372060Y-119497314D01*
X108420447Y-119595434D01*
X108502699Y-119667567D01*
X108606295Y-119702733D01*
X108715462Y-119695578D01*
X110647314Y-119177940D01*
X110745434Y-119129553D01*
X110817567Y-119047301D01*
X110852733Y-118943705D01*
X110845578Y-118834538D01*
X110442213Y-117329160D01*
X111395750Y-116733200D01*
X111409841Y-116723777D01*
X113159841Y-115473777D01*
X113194454Y-115444454D01*
X115194454Y-113444454D01*
X115220000Y-113415000D01*
X116720000Y-111415000D01*
X116733200Y-111395750D01*
X117983200Y-109395750D01*
X118001298Y-109361688D01*
X119001298Y-107111688D01*
X119013402Y-107079021D01*
X119672472Y-104882121D01*
X120480286Y-104074308D01*
X120536648Y-104036648D01*
X120554754Y-104009550D01*
X120557299Y-104009044D01*
X120648264Y-103948264D01*
X120709044Y-103857299D01*
X120730387Y-103750000D01*
X120730387Y-103589399D01*
X120738224Y-103550000D01*
X120730387Y-103510601D01*
X120730387Y-102850000D01*
X120709044Y-102742701D01*
X120648264Y-102651736D01*
X120557299Y-102590956D01*
X120450000Y-102569613D01*
X120110715Y-102569613D01*
X120273871Y-100774897D01*
X120275000Y-100750000D01*
X120275000Y-100000000D01*
X120274301Y-99980407D01*
X120245728Y-99580387D01*
X120700000Y-99580387D01*
X120807299Y-99559044D01*
X120898264Y-99498264D01*
X120959044Y-99407299D01*
X120980387Y-99300000D01*
X120980387Y-96600000D01*
X120959044Y-96492701D01*
X120898264Y-96401736D01*
X120807299Y-96340956D01*
X120700000Y-96319613D01*
X119988366Y-96319613D01*
X119516789Y-94433303D01*
X119502765Y-94391672D01*
X118752765Y-92641672D01*
X118751298Y-92638312D01*
X118345382Y-91725000D01*
X118693750Y-91725000D01*
X118775000Y-91643750D01*
X118775000Y-90375000D01*
X119425000Y-90375000D01*
X119425000Y-91643750D01*
X119506250Y-91725000D01*
X120764647Y-91725000D01*
X120884098Y-91675521D01*
X120975522Y-91584097D01*
X121025000Y-91464646D01*
X121025000Y-90456250D01*
X120943750Y-90375000D01*
X119425000Y-90375000D01*
X118775000Y-90375000D01*
X118755000Y-90375000D01*
X118755000Y-89725000D01*
X118775000Y-89725000D01*
X118775000Y-88456250D01*
X119425000Y-88456250D01*
X119425000Y-89725000D01*
X120943750Y-89725000D01*
X121025000Y-89643750D01*
X121025000Y-88635354D01*
X120975522Y-88515903D01*
X120884098Y-88424479D01*
X120764647Y-88375000D01*
X119506250Y-88375000D01*
X119425000Y-88456250D01*
X118775000Y-88456250D01*
X118693750Y-88375000D01*
X117435353Y-88375000D01*
X117315902Y-88424479D01*
X117224478Y-88515903D01*
X117175000Y-88635354D01*
X117175000Y-89376970D01*
X116738767Y-88613562D01*
X116730387Y-88600479D01*
X116730387Y-87600000D01*
X116709044Y-87492701D01*
X116648264Y-87401736D01*
X116557299Y-87340956D01*
X116450000Y-87319613D01*
X115816244Y-87319613D01*
X115473777Y-86840159D01*
X115444454Y-86805546D01*
X114194454Y-85555546D01*
X114178968Y-85541204D01*
X113810063Y-85225000D01*
X114293750Y-85225000D01*
X114375000Y-85143750D01*
X114375000Y-84075000D01*
X115025000Y-84075000D01*
X115025000Y-85143750D01*
X115106250Y-85225000D01*
X116514646Y-85225000D01*
X116634097Y-85175522D01*
X116725521Y-85084098D01*
X116775000Y-84964647D01*
X116775000Y-84156250D01*
X116693750Y-84075000D01*
X115025000Y-84075000D01*
X114375000Y-84075000D01*
X112706250Y-84075000D01*
X112625000Y-84156250D01*
X112625000Y-84209231D01*
X112428968Y-84041204D01*
X112421791Y-84035261D01*
X111330387Y-83162138D01*
X111330387Y-82600000D01*
X111317528Y-82535353D01*
X112625000Y-82535353D01*
X112625000Y-83343750D01*
X112706250Y-83425000D01*
X114375000Y-83425000D01*
X114375000Y-82356250D01*
X115025000Y-82356250D01*
X115025000Y-83425000D01*
X116693750Y-83425000D01*
X116775000Y-83343750D01*
X116775000Y-82535353D01*
X116725521Y-82415902D01*
X116634097Y-82324478D01*
X116514646Y-82275000D01*
X115106250Y-82275000D01*
X115025000Y-82356250D01*
X114375000Y-82356250D01*
X114293750Y-82275000D01*
X112885354Y-82275000D01*
X112765903Y-82324478D01*
X112674479Y-82415902D01*
X112625000Y-82535353D01*
X111317528Y-82535353D01*
X111309044Y-82492701D01*
X111248264Y-82401736D01*
X111157299Y-82340956D01*
X111050000Y-82319613D01*
X109926103Y-82319613D01*
X109386438Y-82011233D01*
X109358328Y-81997235D01*
X107608328Y-81247235D01*
X107596559Y-81242509D01*
X105596559Y-80492509D01*
X105553932Y-80480340D01*
X103053932Y-79980340D01*
X103038891Y-79977764D01*
X101288891Y-79727764D01*
X101250000Y-79725000D01*
X98750000Y-79725000D01*
X98719631Y-79726682D01*
X96469631Y-79976682D01*
X96427643Y-79984690D01*
X93677643Y-80734690D01*
X93644231Y-80746154D01*
X90644231Y-81996154D01*
X90608514Y-82014189D01*
X90245341Y-82232093D01*
X89128544Y-82232093D01*
X89021245Y-82253436D01*
X88930280Y-82314216D01*
X88869500Y-82405181D01*
X88848157Y-82512480D01*
X88848157Y-83070403D01*
X88108514Y-83514189D01*
X88073949Y-83538739D01*
X87501006Y-84016192D01*
X87472294Y-83987480D01*
X85803544Y-83987480D01*
X85803544Y-85056230D01*
X85884794Y-85137480D01*
X86223612Y-85137480D01*
X84555546Y-86805546D01*
X84530000Y-86835000D01*
X84232180Y-87232093D01*
X83728544Y-87232093D01*
X83621245Y-87253436D01*
X83530280Y-87314216D01*
X83469500Y-87405181D01*
X83448157Y-87512480D01*
X83448157Y-88277457D01*
X83030000Y-88835000D01*
X83007870Y-88869623D01*
X81257870Y-92119623D01*
X81237161Y-92169126D01*
X80237161Y-95419126D01*
X80228198Y-95458184D01*
X79728198Y-98708184D01*
X79725000Y-98750000D01*
X75386152Y-98750000D01*
X75416945Y-98029495D01*
X75663723Y-96047647D01*
X76068448Y-94098449D01*
X76627987Y-92191170D01*
X77339202Y-90335113D01*
X78198964Y-88539547D01*
X79204116Y-86813797D01*
X80347973Y-85172231D01*
X80378006Y-85138580D01*
X80395229Y-85089258D01*
X80416162Y-85041387D01*
X80416412Y-85028596D01*
X80420630Y-85016516D01*
X80417667Y-84964352D01*
X80418687Y-84912119D01*
X80414023Y-84900205D01*
X80413297Y-84887431D01*
X80390596Y-84840369D01*
X80371551Y-84791725D01*
X80340287Y-84759215D01*
X80327077Y-84741685D01*
X80920030Y-84068730D01*
X83403544Y-84068730D01*
X83403544Y-84877127D01*
X83453023Y-84996578D01*
X83544447Y-85088002D01*
X83663898Y-85137480D01*
X85072294Y-85137480D01*
X85153544Y-85056230D01*
X85153544Y-83987480D01*
X83484794Y-83987480D01*
X83403544Y-84068730D01*
X80920030Y-84068730D01*
X82348233Y-82447833D01*
X83403544Y-82447833D01*
X83403544Y-83256230D01*
X83484794Y-83337480D01*
X85153544Y-83337480D01*
X85153544Y-82268730D01*
X85803544Y-82268730D01*
X85803544Y-83337480D01*
X87472294Y-83337480D01*
X87553544Y-83256230D01*
X87553544Y-82447833D01*
X87504065Y-82328382D01*
X87412641Y-82236958D01*
X87293190Y-82187480D01*
X85884794Y-82187480D01*
X85803544Y-82268730D01*
X85153544Y-82268730D01*
X85072294Y-82187480D01*
X83663898Y-82187480D01*
X83544447Y-82236958D01*
X83453023Y-82328382D01*
X83403544Y-82447833D01*
X82348233Y-82447833D01*
X82642506Y-82113857D01*
X85454451Y-79760598D01*
X87361925Y-78540502D01*
X87366923Y-78547045D01*
X87385575Y-78571799D01*
X87386391Y-78572528D01*
X87406867Y-78599329D01*
X87434149Y-78615157D01*
X87457684Y-78636165D01*
X87489528Y-78647287D01*
X87518701Y-78664212D01*
X87549966Y-78668395D01*
X87579746Y-78678796D01*
X87613421Y-78676885D01*
X87646851Y-78681358D01*
X87677337Y-78673258D01*
X87708831Y-78671471D01*
X87739213Y-78656818D01*
X87740267Y-78656538D01*
X87767987Y-78642941D01*
X87825288Y-78615305D01*
X87826037Y-78614466D01*
X90663271Y-77222734D01*
X93684074Y-76200106D01*
X96811536Y-75575637D01*
X100006028Y-75359800D01*
X103227907Y-75576836D01*
X103227907Y-75576836D01*
G37*
X103227907Y-75576836D02*
X106381157Y-76209398D01*
X109425348Y-77246699D01*
X112283273Y-78659544D01*
X112284359Y-78660760D01*
X112341112Y-78688137D01*
X112368455Y-78701654D01*
X112369990Y-78702067D01*
X112400812Y-78716935D01*
X112431813Y-78718697D01*
X112461794Y-78726761D01*
X112495722Y-78722328D01*
X112529895Y-78724270D01*
X112559211Y-78714033D01*
X112589997Y-78710011D01*
X112619652Y-78692929D01*
X112651960Y-78681647D01*
X112675125Y-78660973D01*
X112702031Y-78645474D01*
X112722891Y-78618344D01*
X112724075Y-78617287D01*
X112742424Y-78592938D01*
X112746726Y-78587344D01*
X115633561Y-80539135D01*
X117466402Y-82202638D01*
X119757864Y-84820158D01*
X119741917Y-84841318D01*
X119710998Y-84873190D01*
X119691480Y-84922410D01*
X119668473Y-84970100D01*
X119667788Y-84982154D01*
X119663337Y-84993378D01*
X119664140Y-85046315D01*
X119661135Y-85099183D01*
X119665116Y-85110584D01*
X119665299Y-85122654D01*
X119686300Y-85171258D01*
X119703755Y-85221249D01*
X119733318Y-85254376D01*
X120862002Y-86889326D01*
X121854001Y-88607578D01*
X122702260Y-90394218D01*
X123403745Y-92240178D01*
X123955383Y-94136291D01*
X124354132Y-96073469D01*
X124596943Y-98042593D01*
X124680736Y-100033912D01*
X124593545Y-102055934D01*
X124342503Y-104054420D01*
X123930869Y-106019431D01*
X123361885Y-107941445D01*
X122638795Y-109810944D01*
X121764842Y-111618408D01*
X120743269Y-113354322D01*
X119580364Y-115004855D01*
X119549761Y-115039144D01*
X119532815Y-115087672D01*
X119511979Y-115134654D01*
X119511641Y-115148309D01*
X119507137Y-115161208D01*
X119510052Y-115212526D01*
X119508781Y-115263906D01*
X119513695Y-115276653D01*
X119514470Y-115290292D01*
X119536802Y-115336588D01*
X119555290Y-115384544D01*
X119566786Y-115396623D01*
X117716756Y-117566850D01*
X115024590Y-119870147D01*
X112506034Y-121558212D01*
X112490039Y-121537068D01*
X112462151Y-121520711D01*
X112438034Y-121499185D01*
X112406933Y-121488324D01*
X112378514Y-121471655D01*
X112346491Y-121467215D01*
X112315971Y-121456557D01*
X112283080Y-121458424D01*
X112250447Y-121453900D01*
X112219164Y-121462053D01*
X112186887Y-121463885D01*
X112157211Y-121478198D01*
X112156913Y-121478276D01*
X112128398Y-121492096D01*
X112070432Y-121520054D01*
X112070220Y-121520291D01*
X109257224Y-122883593D01*
X106264067Y-123885502D01*
X103167511Y-124497114D01*
X100005651Y-124708407D01*
X96867878Y-124505411D01*
X93793094Y-123908020D01*
X90818763Y-122925911D01*
X87963499Y-121559964D01*
X87905702Y-121532091D01*
X87872603Y-121530214D01*
X87840481Y-121522016D01*
X87808688Y-121526588D01*
X87776616Y-121524769D01*
X87745319Y-121535701D01*
X87712506Y-121540420D01*
X87684879Y-121556813D01*
X87654556Y-121567405D01*
X87629826Y-121589480D01*
X87601315Y-121606398D01*
X87599113Y-121609340D01*
X84945809Y-119870350D01*
X84627140Y-119585343D01*
X88125294Y-119585343D01*
X88262236Y-120096418D01*
X88295699Y-120221305D01*
X88374408Y-120323880D01*
X88486380Y-120388526D01*
X88614566Y-120405402D01*
X89250528Y-120234997D01*
X89307980Y-120135486D01*
X89070190Y-119248042D01*
X88182746Y-119485832D01*
X88125294Y-119585343D01*
X84627140Y-119585343D01*
X84061899Y-119079810D01*
X89698042Y-119079810D01*
X89935832Y-119967254D01*
X90035343Y-120024706D01*
X90671304Y-119854301D01*
X90773879Y-119775593D01*
X90838526Y-119663622D01*
X90855403Y-119535435D01*
X90821939Y-119410547D01*
X90684997Y-118899472D01*
X90585486Y-118842020D01*
X89698042Y-119079810D01*
X84061899Y-119079810D01*
X83038553Y-118164565D01*
X87744597Y-118164565D01*
X87778061Y-118289453D01*
X87915003Y-118800528D01*
X88014514Y-118857980D01*
X88901958Y-118620190D01*
X88664168Y-117732746D01*
X88564657Y-117675294D01*
X87928696Y-117845699D01*
X87826121Y-117924407D01*
X87761474Y-118036378D01*
X87744597Y-118164565D01*
X83038553Y-118164565D01*
X82113501Y-117337230D01*
X80507124Y-115491227D01*
X80513109Y-115484896D01*
X80531244Y-115437382D01*
X80553339Y-115391575D01*
X80554145Y-115377384D01*
X80559214Y-115364103D01*
X80557786Y-115313259D01*
X80560668Y-115262490D01*
X80555982Y-115249072D01*
X80555583Y-115234862D01*
X80534807Y-115188437D01*
X80518041Y-115140426D01*
X80487079Y-115105736D01*
X79309558Y-113446289D01*
X78275660Y-111700396D01*
X77391408Y-109881576D01*
X76660120Y-107999532D01*
X76085139Y-106064024D01*
X75669783Y-104084762D01*
X75417379Y-102071460D01*
X75331270Y-100034159D01*
X75386152Y-98750000D01*
X79725000Y-98750000D01*
X79725000Y-100750000D01*
X79727124Y-100784110D01*
X79977124Y-102784110D01*
X79977764Y-102788891D01*
X80227764Y-104538891D01*
X80236598Y-104579021D01*
X80986598Y-107079021D01*
X80998702Y-107111688D01*
X81469613Y-108171238D01*
X81469613Y-108700000D01*
X81490956Y-108807299D01*
X81550992Y-108897150D01*
X81564164Y-108963372D01*
X81713353Y-109186648D01*
X81769714Y-109224307D01*
X82130133Y-109584727D01*
X82724729Y-110575719D01*
X82740956Y-110657299D01*
X82801736Y-110748264D01*
X82846002Y-110777841D01*
X83514189Y-111891486D01*
X83535261Y-111921791D01*
X84535261Y-113171791D01*
X84555546Y-113194454D01*
X86055546Y-114694454D01*
X86071032Y-114708796D01*
X87821032Y-116208796D01*
X87840159Y-116223777D01*
X89515568Y-117420498D01*
X89349472Y-117465003D01*
X89292020Y-117564514D01*
X89529810Y-118451958D01*
X90417254Y-118214168D01*
X90474706Y-118114657D01*
X90403564Y-117849151D01*
X92386204Y-118750351D01*
X92403441Y-118757491D01*
X94403441Y-119507491D01*
X94440344Y-119518451D01*
X96690344Y-120018451D01*
X96722636Y-120023635D01*
X99222636Y-120273635D01*
X99250000Y-120275000D01*
X100500000Y-120275000D01*
X100522838Y-120274050D01*
X103365274Y-120037180D01*
X103439478Y-120216325D01*
X103798141Y-120574988D01*
X104266758Y-120769095D01*
X104773984Y-120769095D01*
X105242601Y-120574988D01*
X105601264Y-120216325D01*
X105795371Y-119747708D01*
X105795371Y-119441419D01*
X107086963Y-119010888D01*
X107111688Y-119001298D01*
X108119173Y-118553527D01*
X108372060Y-119497314D01*
X108420447Y-119595434D01*
X108502699Y-119667567D01*
X108606295Y-119702733D01*
X108715462Y-119695578D01*
X110647314Y-119177940D01*
X110745434Y-119129553D01*
X110817567Y-119047301D01*
X110852733Y-118943705D01*
X110845578Y-118834538D01*
X110442213Y-117329160D01*
X111395750Y-116733200D01*
X111409841Y-116723777D01*
X113159841Y-115473777D01*
X113194454Y-115444454D01*
X115194454Y-113444454D01*
X115220000Y-113415000D01*
X116720000Y-111415000D01*
X116733200Y-111395750D01*
X117983200Y-109395750D01*
X118001298Y-109361688D01*
X119001298Y-107111688D01*
X119013402Y-107079021D01*
X119672472Y-104882121D01*
X120480286Y-104074308D01*
X120536648Y-104036648D01*
X120554754Y-104009550D01*
X120557299Y-104009044D01*
X120648264Y-103948264D01*
X120709044Y-103857299D01*
X120730387Y-103750000D01*
X120730387Y-103589399D01*
X120738224Y-103550000D01*
X120730387Y-103510601D01*
X120730387Y-102850000D01*
X120709044Y-102742701D01*
X120648264Y-102651736D01*
X120557299Y-102590956D01*
X120450000Y-102569613D01*
X120110715Y-102569613D01*
X120273871Y-100774897D01*
X120275000Y-100750000D01*
X120275000Y-100000000D01*
X120274301Y-99980407D01*
X120245728Y-99580387D01*
X120700000Y-99580387D01*
X120807299Y-99559044D01*
X120898264Y-99498264D01*
X120959044Y-99407299D01*
X120980387Y-99300000D01*
X120980387Y-96600000D01*
X120959044Y-96492701D01*
X120898264Y-96401736D01*
X120807299Y-96340956D01*
X120700000Y-96319613D01*
X119988366Y-96319613D01*
X119516789Y-94433303D01*
X119502765Y-94391672D01*
X118752765Y-92641672D01*
X118751298Y-92638312D01*
X118345382Y-91725000D01*
X118693750Y-91725000D01*
X118775000Y-91643750D01*
X118775000Y-90375000D01*
X119425000Y-90375000D01*
X119425000Y-91643750D01*
X119506250Y-91725000D01*
X120764647Y-91725000D01*
X120884098Y-91675521D01*
X120975522Y-91584097D01*
X121025000Y-91464646D01*
X121025000Y-90456250D01*
X120943750Y-90375000D01*
X119425000Y-90375000D01*
X118775000Y-90375000D01*
X118755000Y-90375000D01*
X118755000Y-89725000D01*
X118775000Y-89725000D01*
X118775000Y-88456250D01*
X119425000Y-88456250D01*
X119425000Y-89725000D01*
X120943750Y-89725000D01*
X121025000Y-89643750D01*
X121025000Y-88635354D01*
X120975522Y-88515903D01*
X120884098Y-88424479D01*
X120764647Y-88375000D01*
X119506250Y-88375000D01*
X119425000Y-88456250D01*
X118775000Y-88456250D01*
X118693750Y-88375000D01*
X117435353Y-88375000D01*
X117315902Y-88424479D01*
X117224478Y-88515903D01*
X117175000Y-88635354D01*
X117175000Y-89376970D01*
X116738767Y-88613562D01*
X116730387Y-88600479D01*
X116730387Y-87600000D01*
X116709044Y-87492701D01*
X116648264Y-87401736D01*
X116557299Y-87340956D01*
X116450000Y-87319613D01*
X115816244Y-87319613D01*
X115473777Y-86840159D01*
X115444454Y-86805546D01*
X114194454Y-85555546D01*
X114178968Y-85541204D01*
X113810063Y-85225000D01*
X114293750Y-85225000D01*
X114375000Y-85143750D01*
X114375000Y-84075000D01*
X115025000Y-84075000D01*
X115025000Y-85143750D01*
X115106250Y-85225000D01*
X116514646Y-85225000D01*
X116634097Y-85175522D01*
X116725521Y-85084098D01*
X116775000Y-84964647D01*
X116775000Y-84156250D01*
X116693750Y-84075000D01*
X115025000Y-84075000D01*
X114375000Y-84075000D01*
X112706250Y-84075000D01*
X112625000Y-84156250D01*
X112625000Y-84209231D01*
X112428968Y-84041204D01*
X112421791Y-84035261D01*
X111330387Y-83162138D01*
X111330387Y-82600000D01*
X111317528Y-82535353D01*
X112625000Y-82535353D01*
X112625000Y-83343750D01*
X112706250Y-83425000D01*
X114375000Y-83425000D01*
X114375000Y-82356250D01*
X115025000Y-82356250D01*
X115025000Y-83425000D01*
X116693750Y-83425000D01*
X116775000Y-83343750D01*
X116775000Y-82535353D01*
X116725521Y-82415902D01*
X116634097Y-82324478D01*
X116514646Y-82275000D01*
X115106250Y-82275000D01*
X115025000Y-82356250D01*
X114375000Y-82356250D01*
X114293750Y-82275000D01*
X112885354Y-82275000D01*
X112765903Y-82324478D01*
X112674479Y-82415902D01*
X112625000Y-82535353D01*
X111317528Y-82535353D01*
X111309044Y-82492701D01*
X111248264Y-82401736D01*
X111157299Y-82340956D01*
X111050000Y-82319613D01*
X109926103Y-82319613D01*
X109386438Y-82011233D01*
X109358328Y-81997235D01*
X107608328Y-81247235D01*
X107596559Y-81242509D01*
X105596559Y-80492509D01*
X105553932Y-80480340D01*
X103053932Y-79980340D01*
X103038891Y-79977764D01*
X101288891Y-79727764D01*
X101250000Y-79725000D01*
X98750000Y-79725000D01*
X98719631Y-79726682D01*
X96469631Y-79976682D01*
X96427643Y-79984690D01*
X93677643Y-80734690D01*
X93644231Y-80746154D01*
X90644231Y-81996154D01*
X90608514Y-82014189D01*
X90245341Y-82232093D01*
X89128544Y-82232093D01*
X89021245Y-82253436D01*
X88930280Y-82314216D01*
X88869500Y-82405181D01*
X88848157Y-82512480D01*
X88848157Y-83070403D01*
X88108514Y-83514189D01*
X88073949Y-83538739D01*
X87501006Y-84016192D01*
X87472294Y-83987480D01*
X85803544Y-83987480D01*
X85803544Y-85056230D01*
X85884794Y-85137480D01*
X86223612Y-85137480D01*
X84555546Y-86805546D01*
X84530000Y-86835000D01*
X84232180Y-87232093D01*
X83728544Y-87232093D01*
X83621245Y-87253436D01*
X83530280Y-87314216D01*
X83469500Y-87405181D01*
X83448157Y-87512480D01*
X83448157Y-88277457D01*
X83030000Y-88835000D01*
X83007870Y-88869623D01*
X81257870Y-92119623D01*
X81237161Y-92169126D01*
X80237161Y-95419126D01*
X80228198Y-95458184D01*
X79728198Y-98708184D01*
X79725000Y-98750000D01*
X75386152Y-98750000D01*
X75416945Y-98029495D01*
X75663723Y-96047647D01*
X76068448Y-94098449D01*
X76627987Y-92191170D01*
X77339202Y-90335113D01*
X78198964Y-88539547D01*
X79204116Y-86813797D01*
X80347973Y-85172231D01*
X80378006Y-85138580D01*
X80395229Y-85089258D01*
X80416162Y-85041387D01*
X80416412Y-85028596D01*
X80420630Y-85016516D01*
X80417667Y-84964352D01*
X80418687Y-84912119D01*
X80414023Y-84900205D01*
X80413297Y-84887431D01*
X80390596Y-84840369D01*
X80371551Y-84791725D01*
X80340287Y-84759215D01*
X80327077Y-84741685D01*
X80920030Y-84068730D01*
X83403544Y-84068730D01*
X83403544Y-84877127D01*
X83453023Y-84996578D01*
X83544447Y-85088002D01*
X83663898Y-85137480D01*
X85072294Y-85137480D01*
X85153544Y-85056230D01*
X85153544Y-83987480D01*
X83484794Y-83987480D01*
X83403544Y-84068730D01*
X80920030Y-84068730D01*
X82348233Y-82447833D01*
X83403544Y-82447833D01*
X83403544Y-83256230D01*
X83484794Y-83337480D01*
X85153544Y-83337480D01*
X85153544Y-82268730D01*
X85803544Y-82268730D01*
X85803544Y-83337480D01*
X87472294Y-83337480D01*
X87553544Y-83256230D01*
X87553544Y-82447833D01*
X87504065Y-82328382D01*
X87412641Y-82236958D01*
X87293190Y-82187480D01*
X85884794Y-82187480D01*
X85803544Y-82268730D01*
X85153544Y-82268730D01*
X85072294Y-82187480D01*
X83663898Y-82187480D01*
X83544447Y-82236958D01*
X83453023Y-82328382D01*
X83403544Y-82447833D01*
X82348233Y-82447833D01*
X82642506Y-82113857D01*
X85454451Y-79760598D01*
X87361925Y-78540502D01*
X87366923Y-78547045D01*
X87385575Y-78571799D01*
X87386391Y-78572528D01*
X87406867Y-78599329D01*
X87434149Y-78615157D01*
X87457684Y-78636165D01*
X87489528Y-78647287D01*
X87518701Y-78664212D01*
X87549966Y-78668395D01*
X87579746Y-78678796D01*
X87613421Y-78676885D01*
X87646851Y-78681358D01*
X87677337Y-78673258D01*
X87708831Y-78671471D01*
X87739213Y-78656818D01*
X87740267Y-78656538D01*
X87767987Y-78642941D01*
X87825288Y-78615305D01*
X87826037Y-78614466D01*
X90663271Y-77222734D01*
X93684074Y-76200106D01*
X96811536Y-75575637D01*
X100006028Y-75359800D01*
X103227907Y-75576836D01*
G04 #@! TD*
M02*
