<?xml version="1.0" encoding="UTF-8" standalone="no"?>
<!-- Created with Inkscape (http://www.inkscape.org/) -->

<svg
   xmlns:dc="http://purl.org/dc/elements/1.1/"
   xmlns:cc="http://creativecommons.org/ns#"
   xmlns:rdf="http://www.w3.org/1999/02/22-rdf-syntax-ns#"
   xmlns:svg="http://www.w3.org/2000/svg"
   xmlns="http://www.w3.org/2000/svg"
   xmlns:sodipodi="http://sodipodi.sourceforge.net/DTD/sodipodi-0.dtd"
   xmlns:inkscape="http://www.inkscape.org/namespaces/inkscape"
   width="58.220741mm"
   height="64.04673mm"
   viewBox="0 0 58.220741 64.04673"
   version="1.1"
   id="svg976"
   sodipodi:docname="circle_template.svg"
   inkscape:version="0.92.3 (2405546, 2018-03-11)">
  <sodipodi:namedview
     id="base"
     pagecolor="#ffffff"
     bordercolor="#666666"
     borderopacity="1.0"
     inkscape:pageopacity="0.0"
     inkscape:pageshadow="2"
     inkscape:zoom="2.8284271"
     inkscape:cx="201.6646"
     inkscape:cy="133.87986"
     inkscape:document-units="mm"
     inkscape:current-layer="layer1"
     showgrid="false"
     fit-margin-top="0"
     fit-margin-left="0"
     fit-margin-right="0"
     fit-margin-bottom="0"
     inkscape:window-width="1920"
     inkscape:window-height="1030"
     inkscape:window-x="0"
     inkscape:window-y="50"
     inkscape:window-maximized="0" />
  <defs
     id="defs970" />
  <metadata
     id="metadata973">
    <rdf:RDF>
      <cc:Work
         rdf:about="">
        <dc:format>image/svg+xml</dc:format>
        <dc:type
           rdf:resource="http://purl.org/dc/dcmitype/StillImage" />
        <dc:title></dc:title>
      </cc:Work>
    </rdf:RDF>
  </metadata>
  <g
     transform="translate(-60.847967,-75.988538)"
     id="layer1"
     inkscape:groupmode="layer"
     inkscape:label="Layer 1">
    <path
       id="path1898"
       d="M73.625997 75.988538L60.847967 85.617928L64.842557 90.918378L67.238277 89.113318L69.978677 92.749788L68.8161115499 94.4182042135L67.7976939262 96.1667321024L66.9266004584 97.9859649772L66.2060074763 99.8664961481L65.6390913097 101.798918925L65.2290282883 103.77382662L64.9789947418 105.781812541L64.892167 107.81347L64.9794263761 109.877960932L65.2351584781 111.917817754L65.6559925679 113.923189531L66.2385579073 115.884225328L66.9794837583 117.791074208L67.8753993828 119.633885237L68.9229340428 121.40280748L70.118717 123.08799L67.238277 126.9105L64.842557 125.10544L60.847967 130.40589L73.625997 140.03527L77.620587 134.73431L75.224867 132.92925L77.708947 129.63229L80.5833763164 131.007407333L83.5970027258 132.002492794L86.7124112723 132.607776858L89.892187 132.81349L93.0961901219 132.599381595L96.2336694698 131.979686613L99.2663708329 130.964540824L102.15604 129.56408L104.69181 132.92925L102.29609 134.73431L106.29067 140.03527L119.06871 130.40589L115.07412 125.10544L112.6784 126.9105L109.72147 122.9867L110.902800258 121.310019249L111.937847736 119.551208341L112.823327179 117.719907641L113.555953335 115.825757512L114.132440949 113.878398319L114.549504767 111.887470426L114.803859536 109.862614199L114.89222 107.81347L114.807293703 105.795217216L114.561280193 103.800110955L114.157270583 101.83738189L113.598355987 99.9162606907L112.887627517 98.0459780305L112.028176288 96.2357645808L111.023093411 94.4948510133L109.87547 92.832468L112.6784 89.113318L115.07412 90.918378L119.06871 85.617928L106.29067 75.988538L102.29609 81.289506L104.69181 83.094564L102.36998 86.175508L99.4364912551 84.7253089205L96.3520742228 83.6743022931L93.157161829 83.0333825192L89.892187 82.813444L86.6547636557 83.0321808177L83.4859775069 83.6649022183L80.4252661046 84.7010430097L77.512067 86.130038L75.224867 83.094564L77.620587 81.289506L73.625997 75.988538"
       style="opacity:0.253;vector-effect:none;fill:#669900;fill-opacity:1;stroke:none;stroke-width:0.99509072;stroke-linecap:butt;stroke-linejoin:miter;stroke-miterlimit:4;stroke-dasharray:none;stroke-dashoffset:0;stroke-opacity:1"
       inkscape:connector-curvature="0" />
  </g>
</svg>
