  0
SECTION
  2
HEADER
  9
$ACADVER
  1
AC1014
  9
$HANDSEED
  5
FFFF
  9
$MEASUREMENT
 70
     1
  0
ENDSEC
  0
SECTION
  2
TABLES
  0
TABLE
  2
VPORT
  5
8
330
0
100
AcDbSymbolTable
 70
     4
  0
VPORT
  5
2E
330
8
100
AcDbSymbolTableRecord
100
AcDbViewportTableRecord
  2
*ACTIVE
 70
     0
 10
0.0
 20
0.0
 11
1.0
 21
1.0
 12
210.0
 22
148.5
 13
0.0
 23
0.0
 14
10.0
 24
10.0
 15
10.0
 25
10.0
 16
0.0
 26
0.0
 36
1.0
 17
0.0
 27
0.0
 37
0.0
 40
341.0
 41
1.24
 42
50.0
 43
0.0
 44
0.0
 50
0.0
 51
0.0
 71
     0
 72
   100
 73
     1
 74
     3
 75
     0
 76
     0
 77
     0
 78
     0
  0
ENDTAB
  0
TABLE
  2
LTYPE
  5
5
330
0
100
AcDbSymbolTable
 70
     1
  0
LTYPE
  5
14
330
5
100
AcDbSymbolTableRecord
100
AcDbLinetypeTableRecord
  2
BYBLOCK
 70
     0
  3

 72
    65
 73
     0
 40
0.0
  0
LTYPE
  5
15
330
5
100
AcDbSymbolTableRecord
100
AcDbLinetypeTableRecord
  2
BYLAYER
 70
     0
  3

 72
    65
 73
     0
 40
0.0
  0
LTYPE
  5
16
330
5
100
AcDbSymbolTableRecord
100
AcDbLinetypeTableRecord
  2
CONTINUOUS
 70
     0
  3
Solid line
 72
    65
 73
     0
 40
0.0
  0
ENDTAB
  0
TABLE
  2
LAYER
  5
2
100
AcDbSymbolTable
 70
2
  0
LAYER
  5
50
100
AcDbSymbolTableRecord
100
AcDbLayerTableRecord
  2
0
 70
0
  6
CONTINUOUS
  0
LAYER
  5
51
100
AcDbSymbolTableRecord
100
AcDbLayerTableRecord
  2
Layer_1
 70
0
  6
CONTINUOUS
  0
ENDTAB
  0
TABLE
  2
STYLE
  5
3
330
0
100
AcDbSymbolTable
 70
     1
  0
STYLE
  5
11
330
3
100
AcDbSymbolTableRecord
100
AcDbTextStyleTableRecord
  2
STANDARD
 70
     0
 40
0.0
 41
1.0
 50
0.0
 71
     0
 42
2.5
  3
txt
  4

  0
ENDTAB
  0
TABLE
  2
VIEW
  5
6
330
0
100
AcDbSymbolTable
 70
     0
  0
ENDTAB
  0
TABLE
  2
UCS
  5
7
330
0
100
AcDbSymbolTable
 70
     0
  0
ENDTAB
  0
TABLE
  2
APPID
  5
9
330
0
100
AcDbSymbolTable
 70
     2
  0
APPID
  5
12
330
9
100
AcDbSymbolTableRecord
100
AcDbRegAppTableRecord
  2
ACAD
 70
     0
  0
ENDTAB
  0
TABLE
  2
DIMSTYLE
  5
A
330
0
100
AcDbSymbolTable
 70
     1
  0
DIMSTYLE
105
27
330
A
100
AcDbSymbolTableRecord
100
AcDbDimStyleTableRecord
  2
ISO-25
 70
     0
  3

  4

  5

  6

  7

 40
1.0
 41
2.5
 42
0.625
 43
3.75
 44
1.25
 45
0.0
 46
0.0
 47
0.0
 48
0.0
140
2.5
141
2.5
142
0.0
143
0.03937007874016
144
1.0
145
0.0
146
1.0
147
0.625
 71
     0
 72
     0
 73
     0
 74
     0
 75
     0
 76
     0
 77
     1
 78
     8
170
     0
171
     3
172
     1
173
     0
174
     0
175
     0
176
     0
177
     0
178
     0
270
     2
271
     2
272
     2
273
     2
274
     3
340
11
275
     0
280
     0
281
     0
282
     0
283
     0
284
     8
285
     0
286
     0
287
     3
288
     0
  0
ENDTAB
  0
TABLE
  2
BLOCK_RECORD
  5
1
330
0
100
AcDbSymbolTable
 70
     1
  0
BLOCK_RECORD
  5
1F
330
1
100
AcDbSymbolTableRecord
100
AcDbBlockTableRecord
  2
*MODEL_SPACE
  0
BLOCK_RECORD
  5
1B
330
1
100
AcDbSymbolTableRecord
100
AcDbBlockTableRecord
  2
*PAPER_SPACE
  0
ENDTAB
  0
ENDSEC
  0
SECTION
  2
BLOCKS
  0
BLOCK
  5
20
330
1F
100
AcDbEntity
  8
0
100
AcDbBlockBegin
  2
*MODEL_SPACE
 70
     0
 10
0.0
 20
0.0
 30
0.0
  3
*MODEL_SPACE
  1

  0
ENDBLK
  5
21
330
1F
100
AcDbEntity
  8
0
100
AcDbBlockEnd
  0
BLOCK
  5
1C
330
1B
100
AcDbEntity
 67
     1
  8
0
100
AcDbBlockBegin
  2
*PAPER_SPACE
  1

  0
ENDBLK
  5
1D
330
1B
100
AcDbEntity
 67
     1
  8
0
100
AcDbBlockEnd
  0
ENDSEC
  0
SECTION
  2
ENTITIES
  0
LWPOLYLINE
  5
100
100
AcDbEntity
  8
Layer_1
 62
7
100
AcDbPolyline
 90
76
 70
1
 10
12.778030
 20
64.046730
 30
0.0
 10
0.000000
 20
54.417340
 30
0.0
 10
3.994590
 20
49.116890
 30
0.0
 10
6.390310
 20
50.921950
 30
0.0
 10
9.130710
 20
47.285480
 30
0.0
 10
7.968145
 20
45.617064
 30
0.0
 10
6.949727
 20
43.868536
 30
0.0
 10
6.078633
 20
42.049303
 30
0.0
 10
5.358040
 20
40.168772
 30
0.0
 10
4.791124
 20
38.236349
 30
0.0
 10
4.381061
 20
36.261441
 30
0.0
 10
4.131028
 20
34.253455
 30
0.0
 10
4.044200
 20
32.221798
 30
0.0
 10
4.131459
 20
30.157307
 30
0.0
 10
4.387191
 20
28.117450
 30
0.0
 10
4.808026
 20
26.112078
 30
0.0
 10
5.390591
 20
24.151043
 30
0.0
 10
6.131517
 20
22.244194
 30
0.0
 10
7.027432
 20
20.401383
 30
0.0
 10
8.074967
 20
18.632461
 30
0.0
 10
9.270750
 20
16.947278
 30
0.0
 10
6.390310
 20
13.124768
 30
0.0
 10
3.994590
 20
14.929828
 30
0.0
 10
0.000000
 20
9.629378
 30
0.0
 10
12.778030
 20
-0.000002
 30
0.0
 10
16.772620
 20
5.300958
 30
0.0
 10
14.376900
 20
7.106018
 30
0.0
 10
16.860980
 20
10.402978
 30
0.0
 10
19.735409
 20
9.027861
 30
0.0
 10
22.749036
 20
8.032775
 30
0.0
 10
25.864444
 20
7.427491
 30
0.0
 10
29.044220
 20
7.221778
 30
0.0
 10
32.248223
 20
7.435886
 30
0.0
 10
35.385702
 20
8.055581
 30
0.0
 10
38.418404
 20
9.070727
 30
0.0
 10
41.308073
 20
10.471188
 30
0.0
 10
43.843843
 20
7.106018
 30
0.0
 10
41.448123
 20
5.300958
 30
0.0
 10
45.442703
 20
-0.000002
 30
0.0
 10
58.220743
 20
9.629378
 30
0.0
 10
54.226153
 20
14.929828
 30
0.0
 10
51.830433
 20
13.124768
 30
0.0
 10
48.873503
 20
17.048568
 30
0.0
 10
50.054833
 20
18.725249
 30
0.0
 10
51.089881
 20
20.484060
 30
0.0
 10
51.975360
 20
22.315360
 30
0.0
 10
52.707986
 20
24.209510
 30
0.0
 10
53.284474
 20
26.156870
 30
0.0
 10
53.701538
 20
28.147798
 30
0.0
 10
53.955893
 20
30.172654
 30
0.0
 10
54.044253
 20
32.221798
 30
0.0
 10
53.959327
 20
34.240051
 30
0.0
 10
53.713313
 20
36.235157
 30
0.0
 10
53.309304
 20
38.197886
 30
0.0
 10
52.750389
 20
40.119007
 30
0.0
 10
52.039661
 20
41.989290
 30
0.0
 10
51.180209
 20
43.799503
 30
0.0
 10
50.175126
 20
45.540417
 30
0.0
 10
49.027503
 20
47.202800
 30
0.0
 10
51.830433
 20
50.921950
 30
0.0
 10
54.226153
 20
49.116890
 30
0.0
 10
58.220743
 20
54.417340
 30
0.0
 10
45.442703
 20
64.046730
 30
0.0
 10
41.448123
 20
58.745762
 30
0.0
 10
43.843843
 20
56.940704
 30
0.0
 10
41.522013
 20
53.859760
 30
0.0
 10
38.588524
 20
55.309959
 30
0.0
 10
35.504107
 20
56.360966
 30
0.0
 10
32.309195
 20
57.001885
 30
0.0
 10
29.044220
 20
57.221824
 30
0.0
 10
25.806797
 20
57.003087
 30
0.0
 10
22.638011
 20
56.370366
 30
0.0
 10
19.577299
 20
55.334225
 30
0.0
 10
16.664100
 20
53.905230
 30
0.0
 10
14.376900
 20
56.940704
 30
0.0
 10
16.772620
 20
58.745762
 30
0.0
  0
ENDSEC
  0
SECTION
  2
OBJECTS
  0
DICTIONARY
  5
C
330
0
100
AcDbDictionary
  3
ACAD_GROUP
350
D
  3
ACAD_MLINESTYLE
350
17
  0
DICTIONARY
  5
D
330
C
100
AcDbDictionary
  0
DICTIONARY
  5
1A
330
C
100
AcDbDictionary
  0
DICTIONARY
  5
17
330
C
100
AcDbDictionary
  3
STANDARD
350
18
  0
DICTIONARY
  5
19
330
C
100
AcDbDictionary
  0
ENDSEC
  0
EOF
