<svg width="361" height="405" viewBox="-20 0 401 405" fill="none" xmlns="http://www.w3.org/2000/svg">
    <path fill-rule="evenodd" clip-rule="evenodd" d="M366.383 6C366.383 9.31371 363.697 12 360.383 12H6C2.68629 12 0 9.31371 0 6V6C0 2.68629 2.68629 0 5.99999 0H360.383C363.697 0 366.383 2.68629 366.383 6V6Z" fill="black"/>
    <path fill-rule="evenodd" clip-rule="evenodd" d="M6 0C9.31371 0 12 2.68629 12 6V405C12 408.314 9.31371 411 6 411V411C2.68629 411 0 408.314 0 405V6C0 2.68629 2.68629 0 6 0V0Z" fill="black"/>
    <path fill-rule="evenodd" clip-rule="evenodd" d="M366.383 6C366.383 9.31371 363.697 12 360.383 12H6C2.68629 12 0 9.31371 0 6V6C0 2.68629 2.68629 0 5.99999 0H360.383C363.697 0 366.383 2.68629 366.383 6V6Z" transform="translate(0 399)" fill="black"/>
    <path fill-rule="evenodd" clip-rule="evenodd" d="M6 0C9.31371 0 12 2.68629 12 6V405C12 408.314 9.31371 411 6 411V411C2.68629 411 0 408.314 0 405V6C0 2.68629 2.68629 0 6 0V0Z" transform="translate(354.383)" fill="black"/>
    <path fill-rule="evenodd" clip-rule="evenodd" d="M174.201 8.41804C178.179 3.93894 185.176 3.93894 189.154 8.41805L359.371 200.065C361.572 202.542 361.347 206.335 358.869 208.535V208.535C356.392 210.736 352.6 210.511 350.399 208.034L181.678 18.0705L12.9565 208.034C10.756 210.511 6.96361 210.736 4.48604 208.535V208.535C2.00847 206.335 1.78387 202.542 3.98439 200.065L174.201 8.41804Z" transform="translate(1.51416 196.465)" fill="black"/>
    <path fill-rule="evenodd" clip-rule="evenodd" d="M3.9844 12.4548C1.78388 9.97727 2.00847 6.18493 4.48604 3.9844V3.9844C6.96361 1.78388 10.7559 2.00846 12.9565 4.48603L181.678 194.449L350.399 4.48604C352.6 2.00847 356.392 1.78388 358.869 3.98441V3.98441C361.347 6.18493 361.572 9.97727 359.371 12.4548L189.154 204.102C185.176 208.581 178.179 208.581 174.201 204.102L3.9844 12.4548Z" transform="translate(1.51416 2.01562)" fill="black"/>
  </svg>
