G04 #@! TF.GenerationSoftware,KiCad,Pcbnew,(5.0.1)*
G04 #@! TF.CreationDate,2019-01-31T15:41:56+09:00*
G04 #@! TF.ProjectId,driver,6472697665722E6B696361645F706362,rev?*
G04 #@! TF.SameCoordinates,Original*
G04 #@! TF.FileFunction,Copper,L2,Bot,Signal*
G04 #@! TF.FilePolarity,Positive*
%FSLAX46Y46*%
G04 Gerber Fmt 4.6, Leading zero omitted, Abs format (unit mm)*
G04 Created by KiCad (PCBNEW (5.0.1)) date Thu Jan 31 15:41:56 2019*
%MOMM*%
%LPD*%
G01*
G04 APERTURE LIST*
G04 #@! TA.AperFunction,ComponentPad*
%ADD10O,2.600000X2.000000*%
G04 #@! TD*
G04 #@! TA.AperFunction,ComponentPad*
%ADD11R,2.600000X2.000000*%
G04 #@! TD*
G04 #@! TA.AperFunction,ComponentPad*
%ADD12R,1.600000X1.600000*%
G04 #@! TD*
G04 #@! TA.AperFunction,ComponentPad*
%ADD13O,1.600000X1.600000*%
G04 #@! TD*
G04 #@! TA.AperFunction,SMDPad,CuDef*
%ADD14R,0.750000X1.200000*%
G04 #@! TD*
G04 #@! TA.AperFunction,ComponentPad*
%ADD15R,2.600000X2.600000*%
G04 #@! TD*
G04 #@! TA.AperFunction,ComponentPad*
%ADD16C,2.600000*%
G04 #@! TD*
G04 #@! TA.AperFunction,Conductor*
%ADD17C,0.100000*%
G04 #@! TD*
G04 #@! TA.AperFunction,SMDPad,CuDef*
%ADD18C,0.950000*%
G04 #@! TD*
G04 #@! TA.AperFunction,WasherPad*
%ADD19C,8.000000*%
G04 #@! TD*
G04 #@! TA.AperFunction,ComponentPad*
%ADD20C,2.000000*%
G04 #@! TD*
G04 #@! TA.AperFunction,ComponentPad*
%ADD21R,2.000000X2.000000*%
G04 #@! TD*
G04 #@! TA.AperFunction,ComponentPad*
%ADD22R,1.700000X1.700000*%
G04 #@! TD*
G04 #@! TA.AperFunction,ComponentPad*
%ADD23O,1.700000X1.700000*%
G04 #@! TD*
G04 #@! TA.AperFunction,SMDPad,CuDef*
%ADD24R,1.200000X0.750000*%
G04 #@! TD*
G04 #@! TA.AperFunction,ComponentPad*
%ADD25C,1.600000*%
G04 #@! TD*
G04 #@! TA.AperFunction,ComponentPad*
%ADD26C,1.500000*%
G04 #@! TD*
G04 #@! TA.AperFunction,ComponentPad*
%ADD27R,1.500000X1.500000*%
G04 #@! TD*
G04 #@! TA.AperFunction,SMDPad,CuDef*
%ADD28R,1.750000X0.550000*%
G04 #@! TD*
G04 #@! TA.AperFunction,ViaPad*
%ADD29C,0.800000*%
G04 #@! TD*
G04 #@! TA.AperFunction,ViaPad*
%ADD30C,2.000000*%
G04 #@! TD*
G04 #@! TA.AperFunction,Conductor*
%ADD31C,0.500000*%
G04 #@! TD*
G04 #@! TA.AperFunction,Conductor*
%ADD32C,1.200000*%
G04 #@! TD*
G04 #@! TA.AperFunction,Conductor*
%ADD33C,0.800000*%
G04 #@! TD*
G04 #@! TA.AperFunction,Conductor*
%ADD34C,0.250000*%
G04 #@! TD*
G04 #@! TA.AperFunction,Conductor*
%ADD35C,0.254000*%
G04 #@! TD*
G04 APERTURE END LIST*
D10*
G04 #@! TO.P,J6,4*
G04 #@! TO.N,GND*
X101500000Y-82480000D03*
G04 #@! TO.P,J6,3*
G04 #@! TO.N,+3V3*
X101500000Y-85020000D03*
G04 #@! TO.P,J6,2*
G04 #@! TO.N,/SDA*
X101500000Y-87560000D03*
D11*
G04 #@! TO.P,J6,1*
G04 #@! TO.N,/SCL*
X101500000Y-90100000D03*
G04 #@! TD*
D12*
G04 #@! TO.P,U12,1*
G04 #@! TO.N,+3V3*
X160970000Y-80970000D03*
D13*
G04 #@! TO.P,U12,3*
G04 #@! TO.N,/ISO_DE*
X163510000Y-73350000D03*
G04 #@! TO.P,U12,2*
G04 #@! TO.N,Net-(R18-Pad2)*
X163510000Y-80970000D03*
G04 #@! TO.P,U12,4*
G04 #@! TO.N,/ISO_5V*
X160970000Y-73350000D03*
G04 #@! TD*
D14*
G04 #@! TO.P,C11,2*
G04 #@! TO.N,GND*
X117600000Y-75850000D03*
G04 #@! TO.P,C11,1*
G04 #@! TO.N,+3V3*
X117600000Y-77750000D03*
G04 #@! TD*
D15*
G04 #@! TO.P,J1,1*
G04 #@! TO.N,/OUT_A*
X165000000Y-104840000D03*
D16*
G04 #@! TO.P,J1,2*
X165000000Y-109920000D03*
G04 #@! TO.P,J1,3*
X165000000Y-115000000D03*
G04 #@! TD*
G04 #@! TO.P,J2,3*
G04 #@! TO.N,/OUT_B*
X165000000Y-135080000D03*
G04 #@! TO.P,J2,2*
X165000000Y-130000000D03*
D15*
G04 #@! TO.P,J2,1*
X165000000Y-124920000D03*
G04 #@! TD*
D16*
G04 #@! TO.P,J7,3*
G04 #@! TO.N,/VIN*
X75000000Y-124920000D03*
G04 #@! TO.P,J7,2*
X75000000Y-130000000D03*
D15*
G04 #@! TO.P,J7,1*
X75000000Y-135080000D03*
G04 #@! TD*
G04 #@! TO.P,J8,1*
G04 #@! TO.N,GND*
X75000000Y-115080000D03*
D16*
G04 #@! TO.P,J8,2*
X75000000Y-110000000D03*
G04 #@! TO.P,J8,3*
X75000000Y-104920000D03*
G04 #@! TD*
D17*
G04 #@! TO.N,/ISO_DI*
G04 #@! TO.C,R34*
G36*
X148235779Y-78226144D02*
X148258834Y-78229563D01*
X148281443Y-78235227D01*
X148303387Y-78243079D01*
X148324457Y-78253044D01*
X148344448Y-78265026D01*
X148363168Y-78278910D01*
X148380438Y-78294562D01*
X148396090Y-78311832D01*
X148409974Y-78330552D01*
X148421956Y-78350543D01*
X148431921Y-78371613D01*
X148439773Y-78393557D01*
X148445437Y-78416166D01*
X148448856Y-78439221D01*
X148450000Y-78462500D01*
X148450000Y-78937500D01*
X148448856Y-78960779D01*
X148445437Y-78983834D01*
X148439773Y-79006443D01*
X148431921Y-79028387D01*
X148421956Y-79049457D01*
X148409974Y-79069448D01*
X148396090Y-79088168D01*
X148380438Y-79105438D01*
X148363168Y-79121090D01*
X148344448Y-79134974D01*
X148324457Y-79146956D01*
X148303387Y-79156921D01*
X148281443Y-79164773D01*
X148258834Y-79170437D01*
X148235779Y-79173856D01*
X148212500Y-79175000D01*
X147637500Y-79175000D01*
X147614221Y-79173856D01*
X147591166Y-79170437D01*
X147568557Y-79164773D01*
X147546613Y-79156921D01*
X147525543Y-79146956D01*
X147505552Y-79134974D01*
X147486832Y-79121090D01*
X147469562Y-79105438D01*
X147453910Y-79088168D01*
X147440026Y-79069448D01*
X147428044Y-79049457D01*
X147418079Y-79028387D01*
X147410227Y-79006443D01*
X147404563Y-78983834D01*
X147401144Y-78960779D01*
X147400000Y-78937500D01*
X147400000Y-78462500D01*
X147401144Y-78439221D01*
X147404563Y-78416166D01*
X147410227Y-78393557D01*
X147418079Y-78371613D01*
X147428044Y-78350543D01*
X147440026Y-78330552D01*
X147453910Y-78311832D01*
X147469562Y-78294562D01*
X147486832Y-78278910D01*
X147505552Y-78265026D01*
X147525543Y-78253044D01*
X147546613Y-78243079D01*
X147568557Y-78235227D01*
X147591166Y-78229563D01*
X147614221Y-78226144D01*
X147637500Y-78225000D01*
X148212500Y-78225000D01*
X148235779Y-78226144D01*
X148235779Y-78226144D01*
G37*
D18*
G04 #@! TD*
G04 #@! TO.P,R34,1*
G04 #@! TO.N,/ISO_DI*
X147925000Y-78700000D03*
D17*
G04 #@! TO.N,/ISO_GND*
G04 #@! TO.C,R34*
G36*
X149985779Y-78226144D02*
X150008834Y-78229563D01*
X150031443Y-78235227D01*
X150053387Y-78243079D01*
X150074457Y-78253044D01*
X150094448Y-78265026D01*
X150113168Y-78278910D01*
X150130438Y-78294562D01*
X150146090Y-78311832D01*
X150159974Y-78330552D01*
X150171956Y-78350543D01*
X150181921Y-78371613D01*
X150189773Y-78393557D01*
X150195437Y-78416166D01*
X150198856Y-78439221D01*
X150200000Y-78462500D01*
X150200000Y-78937500D01*
X150198856Y-78960779D01*
X150195437Y-78983834D01*
X150189773Y-79006443D01*
X150181921Y-79028387D01*
X150171956Y-79049457D01*
X150159974Y-79069448D01*
X150146090Y-79088168D01*
X150130438Y-79105438D01*
X150113168Y-79121090D01*
X150094448Y-79134974D01*
X150074457Y-79146956D01*
X150053387Y-79156921D01*
X150031443Y-79164773D01*
X150008834Y-79170437D01*
X149985779Y-79173856D01*
X149962500Y-79175000D01*
X149387500Y-79175000D01*
X149364221Y-79173856D01*
X149341166Y-79170437D01*
X149318557Y-79164773D01*
X149296613Y-79156921D01*
X149275543Y-79146956D01*
X149255552Y-79134974D01*
X149236832Y-79121090D01*
X149219562Y-79105438D01*
X149203910Y-79088168D01*
X149190026Y-79069448D01*
X149178044Y-79049457D01*
X149168079Y-79028387D01*
X149160227Y-79006443D01*
X149154563Y-78983834D01*
X149151144Y-78960779D01*
X149150000Y-78937500D01*
X149150000Y-78462500D01*
X149151144Y-78439221D01*
X149154563Y-78416166D01*
X149160227Y-78393557D01*
X149168079Y-78371613D01*
X149178044Y-78350543D01*
X149190026Y-78330552D01*
X149203910Y-78311832D01*
X149219562Y-78294562D01*
X149236832Y-78278910D01*
X149255552Y-78265026D01*
X149275543Y-78253044D01*
X149296613Y-78243079D01*
X149318557Y-78235227D01*
X149341166Y-78229563D01*
X149364221Y-78226144D01*
X149387500Y-78225000D01*
X149962500Y-78225000D01*
X149985779Y-78226144D01*
X149985779Y-78226144D01*
G37*
D18*
G04 #@! TD*
G04 #@! TO.P,R34,2*
G04 #@! TO.N,/ISO_GND*
X149675000Y-78700000D03*
D17*
G04 #@! TO.N,Net-(R35-Pad2)*
G04 #@! TO.C,R35*
G36*
X141260160Y-79211393D02*
X141283215Y-79214812D01*
X141305824Y-79220476D01*
X141327768Y-79228328D01*
X141348838Y-79238293D01*
X141368829Y-79250275D01*
X141387549Y-79264159D01*
X141404819Y-79279811D01*
X141420471Y-79297081D01*
X141434355Y-79315801D01*
X141446337Y-79335792D01*
X141456302Y-79356862D01*
X141464154Y-79378806D01*
X141469818Y-79401415D01*
X141473237Y-79424470D01*
X141474381Y-79447749D01*
X141474381Y-79922749D01*
X141473237Y-79946028D01*
X141469818Y-79969083D01*
X141464154Y-79991692D01*
X141456302Y-80013636D01*
X141446337Y-80034706D01*
X141434355Y-80054697D01*
X141420471Y-80073417D01*
X141404819Y-80090687D01*
X141387549Y-80106339D01*
X141368829Y-80120223D01*
X141348838Y-80132205D01*
X141327768Y-80142170D01*
X141305824Y-80150022D01*
X141283215Y-80155686D01*
X141260160Y-80159105D01*
X141236881Y-80160249D01*
X140661881Y-80160249D01*
X140638602Y-80159105D01*
X140615547Y-80155686D01*
X140592938Y-80150022D01*
X140570994Y-80142170D01*
X140549924Y-80132205D01*
X140529933Y-80120223D01*
X140511213Y-80106339D01*
X140493943Y-80090687D01*
X140478291Y-80073417D01*
X140464407Y-80054697D01*
X140452425Y-80034706D01*
X140442460Y-80013636D01*
X140434608Y-79991692D01*
X140428944Y-79969083D01*
X140425525Y-79946028D01*
X140424381Y-79922749D01*
X140424381Y-79447749D01*
X140425525Y-79424470D01*
X140428944Y-79401415D01*
X140434608Y-79378806D01*
X140442460Y-79356862D01*
X140452425Y-79335792D01*
X140464407Y-79315801D01*
X140478291Y-79297081D01*
X140493943Y-79279811D01*
X140511213Y-79264159D01*
X140529933Y-79250275D01*
X140549924Y-79238293D01*
X140570994Y-79228328D01*
X140592938Y-79220476D01*
X140615547Y-79214812D01*
X140638602Y-79211393D01*
X140661881Y-79210249D01*
X141236881Y-79210249D01*
X141260160Y-79211393D01*
X141260160Y-79211393D01*
G37*
D18*
G04 #@! TD*
G04 #@! TO.P,R35,2*
G04 #@! TO.N,Net-(R35-Pad2)*
X140949381Y-79685249D03*
D17*
G04 #@! TO.N,/ISO_RO*
G04 #@! TO.C,R35*
G36*
X143010160Y-79211393D02*
X143033215Y-79214812D01*
X143055824Y-79220476D01*
X143077768Y-79228328D01*
X143098838Y-79238293D01*
X143118829Y-79250275D01*
X143137549Y-79264159D01*
X143154819Y-79279811D01*
X143170471Y-79297081D01*
X143184355Y-79315801D01*
X143196337Y-79335792D01*
X143206302Y-79356862D01*
X143214154Y-79378806D01*
X143219818Y-79401415D01*
X143223237Y-79424470D01*
X143224381Y-79447749D01*
X143224381Y-79922749D01*
X143223237Y-79946028D01*
X143219818Y-79969083D01*
X143214154Y-79991692D01*
X143206302Y-80013636D01*
X143196337Y-80034706D01*
X143184355Y-80054697D01*
X143170471Y-80073417D01*
X143154819Y-80090687D01*
X143137549Y-80106339D01*
X143118829Y-80120223D01*
X143098838Y-80132205D01*
X143077768Y-80142170D01*
X143055824Y-80150022D01*
X143033215Y-80155686D01*
X143010160Y-80159105D01*
X142986881Y-80160249D01*
X142411881Y-80160249D01*
X142388602Y-80159105D01*
X142365547Y-80155686D01*
X142342938Y-80150022D01*
X142320994Y-80142170D01*
X142299924Y-80132205D01*
X142279933Y-80120223D01*
X142261213Y-80106339D01*
X142243943Y-80090687D01*
X142228291Y-80073417D01*
X142214407Y-80054697D01*
X142202425Y-80034706D01*
X142192460Y-80013636D01*
X142184608Y-79991692D01*
X142178944Y-79969083D01*
X142175525Y-79946028D01*
X142174381Y-79922749D01*
X142174381Y-79447749D01*
X142175525Y-79424470D01*
X142178944Y-79401415D01*
X142184608Y-79378806D01*
X142192460Y-79356862D01*
X142202425Y-79335792D01*
X142214407Y-79315801D01*
X142228291Y-79297081D01*
X142243943Y-79279811D01*
X142261213Y-79264159D01*
X142279933Y-79250275D01*
X142299924Y-79238293D01*
X142320994Y-79228328D01*
X142342938Y-79220476D01*
X142365547Y-79214812D01*
X142388602Y-79211393D01*
X142411881Y-79210249D01*
X142986881Y-79210249D01*
X143010160Y-79211393D01*
X143010160Y-79211393D01*
G37*
D18*
G04 #@! TD*
G04 #@! TO.P,R35,1*
G04 #@! TO.N,/ISO_RO*
X142699381Y-79685249D03*
D13*
G04 #@! TO.P,U9,4*
G04 #@! TO.N,/ISO_5V*
X155890000Y-73350000D03*
G04 #@! TO.P,U9,2*
G04 #@! TO.N,Net-(R33-Pad2)*
X158430000Y-80970000D03*
G04 #@! TO.P,U9,3*
G04 #@! TO.N,/ISO_DI*
X158430000Y-73350000D03*
D12*
G04 #@! TO.P,U9,1*
G04 #@! TO.N,+3V3*
X155890000Y-80970000D03*
G04 #@! TD*
G04 #@! TO.P,U10,1*
G04 #@! TO.N,Net-(R35-Pad2)*
X135000000Y-73350000D03*
D13*
G04 #@! TO.P,U10,3*
G04 #@! TO.N,Net-(R36-Pad2)*
X132460000Y-80970000D03*
G04 #@! TO.P,U10,2*
G04 #@! TO.N,/ISO_GND*
X132460000Y-73350000D03*
G04 #@! TO.P,U10,4*
G04 #@! TO.N,+3V3*
X135000000Y-80970000D03*
G04 #@! TD*
D19*
G04 #@! TO.P,H1,1*
G04 #@! TO.N,*
X75000000Y-60000000D03*
G04 #@! TD*
G04 #@! TO.P,H2,1*
G04 #@! TO.N,*
X165000000Y-60000000D03*
G04 #@! TD*
G04 #@! TO.P,H3,1*
G04 #@! TO.N,*
X75000000Y-150000000D03*
G04 #@! TD*
G04 #@! TO.P,H4,1*
G04 #@! TO.N,*
X165000000Y-150000000D03*
G04 #@! TD*
D20*
G04 #@! TO.P,C2,2*
G04 #@! TO.N,GND*
X107800000Y-58400000D03*
D21*
G04 #@! TO.P,C2,1*
G04 #@! TO.N,+VSW*
X107800000Y-63400000D03*
G04 #@! TD*
G04 #@! TO.P,C3,1*
G04 #@! TO.N,Net-(C3-Pad1)*
X96100000Y-63400000D03*
D20*
G04 #@! TO.P,C3,2*
G04 #@! TO.N,GND*
X96100000Y-58400000D03*
G04 #@! TD*
G04 #@! TO.P,C15,2*
G04 #@! TO.N,GND*
X73800000Y-88100000D03*
D21*
G04 #@! TO.P,C15,1*
G04 #@! TO.N,Net-(C15-Pad1)*
X78800000Y-88100000D03*
G04 #@! TD*
G04 #@! TO.P,C19,1*
G04 #@! TO.N,+3V3*
X78800000Y-75900000D03*
D20*
G04 #@! TO.P,C19,2*
G04 #@! TO.N,GND*
X73800000Y-75900000D03*
G04 #@! TD*
D22*
G04 #@! TO.P,J9,1*
G04 #@! TO.N,+3V3*
X116550000Y-66590000D03*
D23*
G04 #@! TO.P,J9,2*
G04 #@! TO.N,/SWCLK*
X116550000Y-64050000D03*
G04 #@! TO.P,J9,3*
G04 #@! TO.N,GND*
X116550000Y-61510000D03*
G04 #@! TO.P,J9,4*
G04 #@! TO.N,/SWDIO*
X116550000Y-58970000D03*
G04 #@! TD*
D11*
G04 #@! TO.P,J10,1*
G04 #@! TO.N,+3V3*
X86700000Y-89140000D03*
D10*
G04 #@! TO.P,J10,2*
G04 #@! TO.N,GND*
X86700000Y-86600000D03*
G04 #@! TD*
D24*
G04 #@! TO.P,C6,1*
G04 #@! TO.N,/ISO_5V*
X160250000Y-75000000D03*
G04 #@! TO.P,C6,2*
G04 #@! TO.N,/ISO_GND*
X162150000Y-75000000D03*
G04 #@! TD*
D12*
G04 #@! TO.P,C8,1*
G04 #@! TO.N,/ISO_5V*
X141099381Y-75385249D03*
D25*
G04 #@! TO.P,C8,2*
G04 #@! TO.N,/ISO_GND*
X141099381Y-77385249D03*
G04 #@! TD*
D26*
G04 #@! TO.P,J4,12*
G04 #@! TO.N,/CLED1*
X155220000Y-69300000D03*
G04 #@! TO.P,J4,11*
G04 #@! TO.N,GND*
X152930000Y-69300000D03*
G04 #@! TO.P,J4,10*
G04 #@! TO.N,/CLED2*
X143790000Y-69300000D03*
G04 #@! TO.P,J4,9*
G04 #@! TO.N,GND*
X141500000Y-69300000D03*
D20*
G04 #@! TO.P,J4,SH*
G04 #@! TO.N,/ISO_GND*
X140230000Y-63590000D03*
X156490000Y-63590000D03*
D26*
G04 #@! TO.P,J4,8*
G04 #@! TO.N,Net-(J4-Pad8)*
X151940000Y-64480000D03*
G04 #@! TO.P,J4,6*
G04 #@! TO.N,/ISO_GND*
X149900000Y-64480000D03*
G04 #@! TO.P,J4,4*
G04 #@! TO.N,/RS485_B*
X147860000Y-64480000D03*
G04 #@! TO.P,J4,2*
G04 #@! TO.N,/BUS_VCC*
X145820000Y-64480000D03*
G04 #@! TO.P,J4,7*
G04 #@! TO.N,Net-(J4-Pad7)*
X150920000Y-62700000D03*
G04 #@! TO.P,J4,5*
G04 #@! TO.N,/RX485_A*
X148880000Y-62700000D03*
G04 #@! TO.P,J4,3*
G04 #@! TO.N,/ISO_GND*
X146840000Y-62700000D03*
D27*
G04 #@! TO.P,J4,1*
G04 #@! TO.N,/BUS_VCC*
X144800000Y-62700000D03*
G04 #@! TD*
G04 #@! TO.P,J5,1*
G04 #@! TO.N,/BUS_VCC*
X124950000Y-62700000D03*
D26*
G04 #@! TO.P,J5,3*
G04 #@! TO.N,/ISO_GND*
X126990000Y-62700000D03*
G04 #@! TO.P,J5,5*
G04 #@! TO.N,/RX485_A*
X129030000Y-62700000D03*
G04 #@! TO.P,J5,7*
G04 #@! TO.N,Net-(J5-Pad7)*
X131070000Y-62700000D03*
G04 #@! TO.P,J5,2*
G04 #@! TO.N,/BUS_VCC*
X125970000Y-64480000D03*
G04 #@! TO.P,J5,4*
G04 #@! TO.N,/RS485_B*
X128010000Y-64480000D03*
G04 #@! TO.P,J5,6*
G04 #@! TO.N,/ISO_GND*
X130050000Y-64480000D03*
G04 #@! TO.P,J5,8*
G04 #@! TO.N,Net-(J5-Pad8)*
X132090000Y-64480000D03*
D20*
G04 #@! TO.P,J5,SH*
G04 #@! TO.N,/ISO_GND*
X136640000Y-63590000D03*
X120380000Y-63590000D03*
D26*
G04 #@! TO.P,J5,9*
G04 #@! TO.N,GND*
X121650000Y-69300000D03*
G04 #@! TO.P,J5,10*
G04 #@! TO.N,/CLED4*
X123940000Y-69300000D03*
G04 #@! TO.P,J5,11*
G04 #@! TO.N,GND*
X133080000Y-69300000D03*
G04 #@! TO.P,J5,12*
G04 #@! TO.N,/CLED3*
X135370000Y-69300000D03*
G04 #@! TD*
D28*
G04 #@! TO.P,U13,1*
G04 #@! TO.N,/ISO_RO*
X145100000Y-76505000D03*
G04 #@! TO.P,U13,2*
G04 #@! TO.N,/ISO_DE*
X145100000Y-75235000D03*
G04 #@! TO.P,U13,3*
X145100000Y-73965000D03*
G04 #@! TO.P,U13,4*
G04 #@! TO.N,/ISO_DI*
X145100000Y-72695000D03*
G04 #@! TO.P,U13,5*
G04 #@! TO.N,/ISO_GND*
X152500000Y-72695000D03*
G04 #@! TO.P,U13,6*
G04 #@! TO.N,/RX485_A*
X152500000Y-73965000D03*
G04 #@! TO.P,U13,7*
G04 #@! TO.N,/RS485_B*
X152500000Y-75235000D03*
G04 #@! TO.P,U13,8*
G04 #@! TO.N,/ISO_5V*
X152500000Y-76505000D03*
G04 #@! TD*
D29*
G04 #@! TO.N,+VSW*
X142500000Y-93750000D03*
X125500000Y-93025010D03*
D30*
G04 #@! TO.N,GND*
X80750000Y-66000000D03*
X89500000Y-61000000D03*
X102000000Y-60750000D03*
X94500000Y-69500000D03*
X100000000Y-65750000D03*
X77750000Y-82000000D03*
X89000000Y-98000000D03*
X89000000Y-103000000D03*
X89000000Y-100500000D03*
X89000000Y-105500000D03*
X89000000Y-108000000D03*
X89000000Y-110500000D03*
X89000000Y-113000000D03*
X89000000Y-115500000D03*
X89000000Y-118000000D03*
X89000000Y-120500000D03*
X91500000Y-145500000D03*
X86500000Y-74750000D03*
X86750000Y-82750000D03*
X139500000Y-90000000D03*
X134100000Y-87600000D03*
D29*
X99500000Y-69400000D03*
X99500000Y-68200000D03*
X100600000Y-68200000D03*
X100600000Y-69200000D03*
X80400000Y-79500000D03*
X79600000Y-80800000D03*
X86000000Y-77100000D03*
X81400000Y-76000000D03*
X83600000Y-74600000D03*
X95300000Y-81200000D03*
X94300000Y-90000000D03*
X128600000Y-87500000D03*
X143800000Y-88700000D03*
X96400000Y-89200000D03*
X97200000Y-87500000D03*
X97300000Y-92200000D03*
X120100000Y-90800000D03*
X118300000Y-74300000D03*
X117100000Y-74300000D03*
X117100000Y-73100000D03*
X165500000Y-83500000D03*
X161900000Y-84500000D03*
X156900000Y-88500000D03*
X158600000Y-78100000D03*
X162700000Y-78100000D03*
X123600000Y-73400000D03*
D30*
X139500000Y-82800000D03*
X112000000Y-85400000D03*
X101300000Y-76900000D03*
X101300000Y-79200000D03*
X105700000Y-77800000D03*
X105700000Y-80100000D03*
X105700000Y-82400000D03*
X105700000Y-84700000D03*
X117000000Y-90600000D03*
D29*
X123700000Y-87000000D03*
D30*
X109700000Y-65500000D03*
X108700000Y-71100000D03*
X97100000Y-76100000D03*
X97100000Y-78200000D03*
X97100000Y-80300000D03*
X107500000Y-74900000D03*
D29*
X110400000Y-77600000D03*
X111600000Y-79300000D03*
X126800000Y-78700000D03*
X121300000Y-76000000D03*
X122100000Y-76000000D03*
X121300000Y-77000000D03*
X122100000Y-77000000D03*
X123600000Y-79100000D03*
X121900000Y-83100000D03*
X124300000Y-84600000D03*
X122700000Y-83100000D03*
X122600000Y-86600000D03*
X156900000Y-89500000D03*
X165500000Y-82600000D03*
X120100000Y-89900000D03*
X156900000Y-84600000D03*
X124300000Y-89874990D03*
X150312660Y-91474990D03*
X140300000Y-149900000D03*
X150300000Y-148700000D03*
X122712660Y-79112660D03*
X105250000Y-92750000D03*
G04 #@! TO.N,+3V3*
X117200000Y-79000000D03*
X129600000Y-77300000D03*
X158989324Y-143889324D03*
X88087339Y-150112659D03*
X156330000Y-149900000D03*
G04 #@! TO.N,/VIN_MON*
X126600000Y-82700000D03*
X119300000Y-82900000D03*
X112000000Y-91500000D03*
X111900000Y-88900000D03*
G04 #@! TO.N,/ISO_5V*
X154000000Y-77500000D03*
G04 #@! TO.N,/ISO_GND*
X152000000Y-79000000D03*
X138000000Y-73000000D03*
X143500000Y-78500000D03*
X147000000Y-74800000D03*
X154400000Y-73100000D03*
X164600000Y-72300000D03*
X153375000Y-64700000D03*
G04 #@! TO.N,/DRV1F*
X128000000Y-130000000D03*
X133519082Y-95522671D03*
G04 #@! TO.N,/DRV2F*
X132200000Y-136600000D03*
X147800000Y-94600000D03*
G04 #@! TO.N,/DRV3F*
X127700000Y-116800000D03*
X132400002Y-95500000D03*
G04 #@! TO.N,/OUT_A*
X131500000Y-113500000D03*
X130500000Y-114500000D03*
X131500000Y-114500000D03*
X130500000Y-113500000D03*
X130500000Y-112500000D03*
X131500000Y-112500000D03*
X131500000Y-115500000D03*
X130500000Y-115500000D03*
X129500000Y-115500000D03*
X129500000Y-114500000D03*
X129500000Y-113500000D03*
X129500000Y-112500000D03*
X129500000Y-111500000D03*
X130500000Y-111500000D03*
X131500000Y-111500000D03*
D30*
X130000000Y-109000000D03*
X133000000Y-109000000D03*
X136000000Y-109000000D03*
X136000000Y-109000000D03*
X136000000Y-109000000D03*
X139000000Y-109000000D03*
X136000000Y-112000000D03*
X136000000Y-115000000D03*
X136000000Y-118000000D03*
X133000000Y-118000000D03*
X139000000Y-118000000D03*
X139000000Y-115000000D03*
X139000000Y-112000000D03*
X142000000Y-115000000D03*
X142000000Y-118000000D03*
X142000000Y-109000000D03*
X142000000Y-112000000D03*
D29*
G04 #@! TO.N,/OUT_B*
X131000000Y-126500000D03*
X131000000Y-127500000D03*
X130000000Y-127500000D03*
X130000000Y-126500000D03*
X130000000Y-125500000D03*
X131000000Y-125500000D03*
X132000000Y-126500000D03*
X132000000Y-125500000D03*
X132000000Y-124500000D03*
X132000000Y-127500000D03*
X129000000Y-124500000D03*
X129000000Y-125500000D03*
X129000000Y-126500000D03*
X129000000Y-127500000D03*
X129000000Y-128500000D03*
X130000000Y-128500000D03*
X131000000Y-128500000D03*
X132000000Y-128500000D03*
D30*
X130000000Y-131000000D03*
X133000000Y-131000000D03*
X136000000Y-131000000D03*
X139000000Y-131000000D03*
X142000000Y-131000000D03*
X142000000Y-128000000D03*
X142000000Y-125000000D03*
X142000000Y-122000000D03*
X139000000Y-122000000D03*
X136000000Y-122000000D03*
X133000000Y-122000000D03*
X136000000Y-125000000D03*
X136000000Y-128000000D03*
X139000000Y-128000000D03*
X139000000Y-125000000D03*
D29*
X131000000Y-124500000D03*
X130000000Y-124500000D03*
G04 #@! TO.N,/VIN*
X130000000Y-140000000D03*
X130000000Y-141000000D03*
X129000000Y-141000000D03*
X129000000Y-140000000D03*
X129000000Y-139000000D03*
X129000000Y-138000000D03*
X130000000Y-138000000D03*
X131000000Y-138000000D03*
X131000000Y-140000000D03*
X131000000Y-141000000D03*
X131000000Y-142000000D03*
X130000000Y-142000000D03*
X129000000Y-142000000D03*
X128000000Y-142000000D03*
X128000000Y-141000000D03*
X128000000Y-140000000D03*
X128000000Y-139000000D03*
X128000000Y-138000000D03*
X130000000Y-100000000D03*
X130000000Y-101000000D03*
X129000000Y-101000000D03*
X129000000Y-100000000D03*
X129000000Y-99000000D03*
X130000000Y-99000000D03*
X131000000Y-99000000D03*
X131000000Y-100000000D03*
X131000000Y-101000000D03*
X131000000Y-102000000D03*
X130000000Y-102000000D03*
X129000000Y-102000000D03*
X128000000Y-102000000D03*
X128000000Y-101000000D03*
X128000000Y-100000000D03*
X128000000Y-99000000D03*
X128000000Y-98000000D03*
X129000000Y-98000000D03*
X130000000Y-98000000D03*
X131000000Y-98000000D03*
D30*
X130000000Y-96500000D03*
X127000000Y-96500000D03*
X124000000Y-96500000D03*
X121000000Y-96500000D03*
X118000000Y-96500000D03*
X118000000Y-99000000D03*
X118000000Y-102000000D03*
X118000000Y-105000000D03*
X121000000Y-105000000D03*
X124000000Y-105000000D03*
X127000000Y-105000000D03*
X130000000Y-105000000D03*
X121000000Y-102000000D03*
X121000000Y-99000000D03*
X124000000Y-99000000D03*
X124000000Y-102000000D03*
X130000000Y-136000000D03*
X127000000Y-136000000D03*
X124000000Y-136000000D03*
X121000000Y-136000000D03*
X118000000Y-136000000D03*
X121000000Y-139000000D03*
X118000000Y-139000000D03*
X118000000Y-142000000D03*
X121000000Y-142000000D03*
X121000000Y-145000000D03*
X118000000Y-145000000D03*
X124000000Y-145000000D03*
X127000000Y-145000000D03*
X130000000Y-145000000D03*
X115000000Y-136000000D03*
X115000000Y-139000000D03*
X115000000Y-142000000D03*
X115000000Y-145000000D03*
X99000000Y-129000000D03*
X102000000Y-128000000D03*
X97000000Y-127000000D03*
X104000000Y-130000000D03*
X96000000Y-130000000D03*
X98000000Y-132000000D03*
X94000000Y-128000000D03*
X111000000Y-133000000D03*
X107000000Y-129000000D03*
X108000000Y-134000000D03*
X100000000Y-126000000D03*
X103000000Y-133000000D03*
X101000000Y-131000000D03*
X112000000Y-130000000D03*
X114000000Y-132000000D03*
X109000000Y-131000000D03*
X106000000Y-132000000D03*
X105000000Y-135000000D03*
X102000000Y-136000000D03*
X100000000Y-134000000D03*
D29*
X130000000Y-139000000D03*
X131000000Y-139000000D03*
X94750000Y-94000000D03*
G04 #@! TO.N,/CTRL_B*
X135300000Y-91100000D03*
X123362335Y-92237665D03*
G04 #@! TO.N,/CTRL_A*
X135253882Y-92098948D03*
X124449990Y-92300000D03*
G04 #@! TO.N,/TX*
X116900000Y-81000000D03*
X129251150Y-83000000D03*
G04 #@! TO.N,/RX*
X117700000Y-82400000D03*
X129300001Y-81700001D03*
G04 #@! TO.N,/BUS_VCC*
X148650000Y-76910249D03*
G04 #@! TO.N,/SDA*
X131100000Y-120400000D03*
X105950000Y-89400000D03*
G04 #@! TO.N,/SCL*
X166500000Y-94800000D03*
X107850000Y-90200000D03*
G04 #@! TO.N,/DE*
X127956666Y-80386667D03*
X117187342Y-80012661D03*
G04 #@! TO.N,/ISO_DE*
X143000000Y-73000000D03*
G04 #@! TO.N,/SLED1*
X168750000Y-91050000D03*
X159344239Y-150375010D03*
G04 #@! TO.N,/SLED2*
X87900000Y-152300000D03*
X147086411Y-150700000D03*
G04 #@! TO.N,/SLED3*
X82300000Y-149075000D03*
X147237002Y-149149989D03*
G04 #@! TO.N,/SLED4*
X167650000Y-91600000D03*
X157484796Y-149626213D03*
G04 #@! TD*
D31*
G04 #@! TO.N,+VSW*
X125500000Y-93650000D02*
X125400000Y-93750000D01*
X125500000Y-93025010D02*
X125500000Y-93650000D01*
D32*
X142500000Y-93750000D02*
X125400000Y-93750000D01*
X107800000Y-65600000D02*
X107800000Y-63400000D01*
X103800000Y-69600000D02*
X107800000Y-65600000D01*
X104830108Y-90100000D02*
X104800000Y-90100000D01*
X108830137Y-94100029D02*
X104830108Y-90100000D01*
X125400000Y-93750000D02*
X125049971Y-94100029D01*
X103800000Y-89100000D02*
X103800000Y-69600000D01*
X104800000Y-90100000D02*
X103800000Y-89100000D01*
X125049971Y-94100029D02*
X108830137Y-94100029D01*
D33*
G04 #@! TO.N,GND*
X123600000Y-71250000D02*
X121650000Y-69300000D01*
X123600000Y-73400000D02*
X123600000Y-71250000D01*
D32*
X71700000Y-119300000D02*
X71700000Y-143800000D01*
X75000000Y-115080000D02*
X75000000Y-116000000D01*
X75000000Y-116000000D02*
X71700000Y-119300000D01*
D31*
G04 #@! TO.N,+3V3*
X117600000Y-78600000D02*
X117200000Y-79000000D01*
X117600000Y-77750000D02*
X117600000Y-78600000D01*
D33*
X117765685Y-79000000D02*
X117200000Y-79000000D01*
X118890686Y-80125001D02*
X117765685Y-79000000D01*
X126774999Y-80125001D02*
X118890686Y-80125001D01*
X129600000Y-77300000D02*
X126774999Y-80125001D01*
D34*
X146436411Y-149900000D02*
X155764315Y-149900000D01*
X91424691Y-153450011D02*
X142886400Y-153450011D01*
X156330000Y-146548648D02*
X156330000Y-149334315D01*
X156330000Y-149334315D02*
X156330000Y-149900000D01*
X158989324Y-143889324D02*
X156330000Y-146548648D01*
X88087339Y-150112659D02*
X91424691Y-153450011D01*
X142886400Y-153450011D02*
X146436411Y-149900000D01*
X155764315Y-149900000D02*
X156330000Y-149900000D01*
G04 #@! TO.N,/VIN_MON*
X126600000Y-82700000D02*
X126200000Y-82300000D01*
X119900000Y-82300000D02*
X119300000Y-82900000D01*
X126200000Y-82300000D02*
X119900000Y-82300000D01*
X112000000Y-91500000D02*
X112000000Y-89000000D01*
X112000000Y-89000000D02*
X111900000Y-88900000D01*
G04 #@! TO.N,/ISO_5V*
X152500000Y-76505000D02*
X153005000Y-76505000D01*
X153005000Y-76505000D02*
X154000000Y-77500000D01*
D31*
X160250000Y-74070000D02*
X160970000Y-73350000D01*
X160250000Y-75000000D02*
X160250000Y-74070000D01*
D34*
G04 #@! TO.N,/ISO_GND*
X152519999Y-65555001D02*
X153375000Y-64700000D01*
X149900000Y-64480000D02*
X150975001Y-65555001D01*
X150975001Y-65555001D02*
X152519999Y-65555001D01*
G04 #@! TO.N,/DRV1F*
X133000000Y-106836410D02*
X132936410Y-106900000D01*
X133500000Y-95541753D02*
X133519082Y-95522671D01*
X133000000Y-106836410D02*
X133500000Y-106336410D01*
X133500000Y-106336410D02*
X133500000Y-95541753D01*
X128686400Y-107050010D02*
X132786400Y-107050010D01*
X128000000Y-107736410D02*
X128686400Y-107050010D01*
X128000000Y-130000000D02*
X127600001Y-129600001D01*
X127600001Y-118073001D02*
X128425001Y-117248001D01*
X132786400Y-107050010D02*
X133000000Y-106836410D01*
X128425001Y-117248001D02*
X128425001Y-116451999D01*
X128425001Y-116451999D02*
X128000000Y-116026998D01*
X127600001Y-129600001D02*
X127600001Y-118073001D01*
X128000000Y-116026998D02*
X128000000Y-107736410D01*
G04 #@! TO.N,/DRV2F*
X128450010Y-111600000D02*
X128450010Y-111349990D01*
X128450010Y-115750010D02*
X128450010Y-111600000D01*
X128875011Y-117434401D02*
X128875011Y-116175011D01*
X128050011Y-118259401D02*
X128875011Y-117434401D01*
X128050011Y-128977009D02*
X128050011Y-118259401D01*
X128725001Y-129651999D02*
X128050011Y-128977009D01*
X128725001Y-130348001D02*
X128725001Y-129651999D01*
X128400000Y-130673002D02*
X128725001Y-130348001D01*
X131200000Y-133000000D02*
X128900000Y-133000000D01*
X128400000Y-132500000D02*
X128400000Y-130673002D01*
X128875011Y-116175011D02*
X128450010Y-115750010D01*
X132200000Y-134000000D02*
X131200000Y-133000000D01*
X132200000Y-136600000D02*
X132200000Y-134000000D01*
X128900000Y-133000000D02*
X128400000Y-132500000D01*
X128450010Y-108049990D02*
X128450010Y-111600000D01*
X128999980Y-107500020D02*
X128450010Y-108049990D01*
X147700000Y-94700000D02*
X135400000Y-94700000D01*
X147800000Y-94600000D02*
X147700000Y-94700000D01*
X135400000Y-94700000D02*
X134000000Y-96100000D01*
X134000000Y-96100000D02*
X134000000Y-106472820D01*
X134000000Y-106472820D02*
X132972801Y-107500019D01*
X132972801Y-107500019D02*
X128999980Y-107500020D01*
G04 #@! TO.N,/DRV3F*
X133000000Y-96099998D02*
X132400002Y-95500000D01*
X127500000Y-116600000D02*
X127500000Y-107600000D01*
X127700000Y-116800000D02*
X127500000Y-116600000D01*
X128500000Y-106600000D02*
X132600000Y-106600000D01*
X127500000Y-107600000D02*
X128500000Y-106600000D01*
X132600000Y-106600000D02*
X133000000Y-106200000D01*
X133000000Y-106200000D02*
X133000000Y-96099998D01*
G04 #@! TO.N,/VIN*
X94750000Y-94000000D02*
X93500000Y-95250000D01*
X93500000Y-95250000D02*
X93500000Y-124750000D01*
G04 #@! TO.N,/CTRL_B*
X123762334Y-91837666D02*
X123362335Y-92237665D01*
X124025001Y-91574999D02*
X123762334Y-91837666D01*
X134525001Y-91574999D02*
X124025001Y-91574999D01*
X135300000Y-91100000D02*
X135000000Y-91100000D01*
X135000000Y-91100000D02*
X134525001Y-91574999D01*
G04 #@! TO.N,/CTRL_A*
X135052830Y-92300000D02*
X124449990Y-92300000D01*
X135253882Y-92098948D02*
X135052830Y-92300000D01*
G04 #@! TO.N,/TX*
X129651149Y-82600001D02*
X129251150Y-83000000D01*
X130025002Y-82226148D02*
X129651149Y-82600001D01*
X116900000Y-81000000D02*
X117200022Y-81300022D01*
X117200022Y-81300022D02*
X128499978Y-81300022D01*
X128499978Y-81300022D02*
X128900000Y-80900000D01*
X128900000Y-80900000D02*
X129573002Y-80900000D01*
X129573002Y-80900000D02*
X130025002Y-81352000D01*
X130025002Y-81352000D02*
X130025002Y-82226148D01*
G04 #@! TO.N,/RX*
X129249969Y-81750033D02*
X129300001Y-81700001D01*
X117700000Y-82400000D02*
X118349967Y-81750033D01*
X118349967Y-81750033D02*
X129249969Y-81750033D01*
G04 #@! TO.N,/RX485_A*
X149629999Y-61950001D02*
X148880000Y-62700000D01*
X152624999Y-61624999D02*
X149955001Y-61624999D01*
X154100000Y-65800000D02*
X154100000Y-63100000D01*
X149955001Y-61624999D02*
X149629999Y-61950001D01*
X150665000Y-73965000D02*
X148525022Y-71825022D01*
X154100000Y-63100000D02*
X152624999Y-61624999D01*
X152500000Y-73965000D02*
X150665000Y-73965000D01*
X148900000Y-67000000D02*
X152900000Y-67000000D01*
X148525022Y-71825022D02*
X148525022Y-67374978D01*
X148525022Y-67374978D02*
X148900000Y-67000000D01*
X152900000Y-67000000D02*
X154100000Y-65800000D01*
G04 #@! TO.N,/RS485_B*
X147860000Y-64480000D02*
X147860000Y-65540660D01*
X151298589Y-75235000D02*
X151375000Y-75235000D01*
X148075011Y-72011422D02*
X151298589Y-75235000D01*
X147860000Y-65540660D02*
X148075011Y-65755671D01*
X148075011Y-65755671D02*
X148075011Y-72011422D01*
X151375000Y-75235000D02*
X152500000Y-75235000D01*
D31*
G04 #@! TO.N,/BUS_VCC*
X124950000Y-63460000D02*
X125970000Y-64480000D01*
X124950000Y-62700000D02*
X124950000Y-63460000D01*
X144800000Y-63460000D02*
X145820000Y-64480000D01*
X144800000Y-62700000D02*
X144800000Y-63460000D01*
X126150001Y-61499999D02*
X124950000Y-62700000D01*
X131646001Y-61499999D02*
X126150001Y-61499999D01*
X132381003Y-62235001D02*
X131646001Y-61499999D01*
X135856001Y-62235001D02*
X132381003Y-62235001D01*
X135951003Y-62139999D02*
X135856001Y-62235001D01*
X140926001Y-62139999D02*
X135951003Y-62139999D01*
X141486002Y-62700000D02*
X140926001Y-62139999D01*
X144800000Y-62700000D02*
X141486002Y-62700000D01*
X147500000Y-72500000D02*
X148650000Y-73650000D01*
X147500000Y-66160000D02*
X147500000Y-72500000D01*
X148650000Y-73650000D02*
X148650000Y-76910249D01*
X145820000Y-64480000D02*
X147500000Y-66160000D01*
D34*
G04 #@! TO.N,/SDA*
X105950000Y-89473002D02*
X105950000Y-89400000D01*
X109627009Y-93150011D02*
X105950000Y-89473002D01*
X133974999Y-91100000D02*
X123426998Y-91100000D01*
X134700000Y-90374999D02*
X133974999Y-91100000D01*
X135648001Y-90374999D02*
X134700000Y-90374999D01*
X167000000Y-120400000D02*
X167700000Y-119700000D01*
X123426998Y-91100000D02*
X121376988Y-93150011D01*
X131100000Y-120400000D02*
X167000000Y-120400000D01*
X167700000Y-119700000D02*
X167700000Y-97200000D01*
X167700000Y-97200000D02*
X163150011Y-92650011D01*
X121376988Y-93150011D02*
X109627009Y-93150011D01*
X137923012Y-92650011D02*
X135648001Y-90374999D01*
X163150011Y-92650011D02*
X137923012Y-92650011D01*
G04 #@! TO.N,/SCL*
X110350000Y-92700000D02*
X108249999Y-90599999D01*
X108249999Y-90599999D02*
X107850000Y-90200000D01*
X123290588Y-90600000D02*
X121190588Y-92700000D01*
X138109412Y-92200000D02*
X135834401Y-89924988D01*
X135834401Y-89924988D02*
X134513600Y-89924988D01*
X133838589Y-90600000D02*
X123290588Y-90600000D01*
X163900000Y-92200000D02*
X138109412Y-92200000D01*
X166500000Y-94800000D02*
X163900000Y-92200000D01*
X121190588Y-92700000D02*
X110350000Y-92700000D01*
X134513600Y-89924988D02*
X133838589Y-90600000D01*
G04 #@! TO.N,/DE*
X117200000Y-80000003D02*
X117187342Y-80012661D01*
X127956666Y-80386667D02*
X127493322Y-80850011D01*
X127493322Y-80850011D02*
X118050008Y-80850011D01*
X118050008Y-80850011D02*
X117599999Y-80400002D01*
X117599999Y-80400002D02*
X117200000Y-80000003D01*
G04 #@! TO.N,/ISO_DE*
X145100000Y-75235000D02*
X145100000Y-73965000D01*
X145100000Y-73965000D02*
X143965000Y-73965000D01*
X143965000Y-73965000D02*
X143000000Y-73000000D01*
G04 #@! TO.N,/ISO_DI*
X146795000Y-72695000D02*
X145100000Y-72695000D01*
X147925000Y-78700000D02*
X147925000Y-73825000D01*
X147925000Y-73825000D02*
X146795000Y-72695000D01*
X150725000Y-75900000D02*
X147925000Y-78700000D01*
X158430000Y-73350000D02*
X155880000Y-75900000D01*
X155880000Y-75900000D02*
X150725000Y-75900000D01*
G04 #@! TO.N,Net-(R35-Pad2)*
X135000000Y-73735868D02*
X135000000Y-73350000D01*
X140949381Y-79685249D02*
X135000000Y-73735868D01*
G04 #@! TO.N,/ISO_RO*
X144500000Y-76505000D02*
X145100000Y-76505000D01*
X142699381Y-78305619D02*
X144500000Y-76505000D01*
X142699381Y-79685249D02*
X142699381Y-78305619D01*
G04 #@! TO.N,/SLED1*
X168700000Y-91100000D02*
X168700000Y-143700000D01*
X159344239Y-149809325D02*
X159344239Y-150375010D01*
X159865374Y-144674990D02*
X159344239Y-145196125D01*
X168750000Y-91050000D02*
X168700000Y-91100000D01*
X168700000Y-143700000D02*
X167725010Y-144674990D01*
X167725010Y-144674990D02*
X159865374Y-144674990D01*
X159344239Y-145196125D02*
X159344239Y-149809325D01*
G04 #@! TO.N,/SLED2*
X146300000Y-150700000D02*
X147086411Y-150700000D01*
X87900000Y-152300000D02*
X89500022Y-153900022D01*
X143099978Y-153900022D02*
X146300000Y-150700000D01*
X89500022Y-153900022D02*
X143099978Y-153900022D01*
G04 #@! TO.N,/SLED3*
X146540598Y-149149989D02*
X147237002Y-149149989D01*
X142690587Y-153000000D02*
X146540598Y-149149989D01*
X92000000Y-153000000D02*
X142690587Y-153000000D01*
X82300000Y-149075000D02*
X88075000Y-149075000D01*
X88075000Y-149075000D02*
X92000000Y-153000000D01*
G04 #@! TO.N,/SLED4*
X167475021Y-144224979D02*
X159678974Y-144224979D01*
X157484796Y-149060528D02*
X157484796Y-149626213D01*
X159678974Y-144224979D02*
X157484796Y-146419157D01*
X168249989Y-143450011D02*
X167475021Y-144224979D01*
X157484796Y-146419157D02*
X157484796Y-149060528D01*
X167650000Y-91600000D02*
X168249989Y-92199989D01*
X168249989Y-92199989D02*
X168249989Y-143450011D01*
G04 #@! TD*
D35*
G04 #@! TO.N,/OUT_A*
G36*
X151880119Y-95323980D02*
X151323980Y-95880119D01*
X151023000Y-96606750D01*
X151023000Y-97393250D01*
X151323980Y-98119881D01*
X151880119Y-98676020D01*
X152606750Y-98977000D01*
X153393250Y-98977000D01*
X154119881Y-98676020D01*
X154676020Y-98119881D01*
X154977000Y-97393250D01*
X154977000Y-96606750D01*
X154676020Y-95880119D01*
X154119881Y-95323980D01*
X153644329Y-95127000D01*
X164917065Y-95127000D01*
X167198001Y-97407937D01*
X167198000Y-119492065D01*
X167067065Y-119623000D01*
X128552011Y-119623000D01*
X128552011Y-118467335D01*
X129195024Y-117824324D01*
X129236932Y-117796322D01*
X129264934Y-117754414D01*
X129264937Y-117754411D01*
X129347883Y-117630272D01*
X129347884Y-117630271D01*
X129377011Y-117483840D01*
X129377011Y-117483836D01*
X129386844Y-117434402D01*
X129377011Y-117384968D01*
X129377011Y-116224444D01*
X129386844Y-116175010D01*
X129377011Y-116125576D01*
X129377011Y-116125572D01*
X129347884Y-115979141D01*
X129321841Y-115940165D01*
X129264937Y-115855001D01*
X129264934Y-115854998D01*
X129236932Y-115813090D01*
X129195023Y-115785087D01*
X128952010Y-115542075D01*
X128952010Y-108257924D01*
X129207915Y-108002020D01*
X132923362Y-108002018D01*
X132972801Y-108011852D01*
X133168671Y-107972891D01*
X133292809Y-107889945D01*
X133292811Y-107889943D01*
X133334722Y-107861939D01*
X133362726Y-107820028D01*
X134320009Y-106862745D01*
X134361921Y-106834741D01*
X134472873Y-106668690D01*
X134502000Y-106522259D01*
X134502000Y-106522254D01*
X134511833Y-106472820D01*
X134502000Y-106423386D01*
X134502000Y-96307934D01*
X135607935Y-95202000D01*
X147303156Y-95202000D01*
X147359865Y-95258709D01*
X147645445Y-95377000D01*
X147954555Y-95377000D01*
X148240135Y-95258709D01*
X148371844Y-95127000D01*
X152355671Y-95127000D01*
X151880119Y-95323980D01*
X151880119Y-95323980D01*
G37*
X151880119Y-95323980D02*
X151323980Y-95880119D01*
X151023000Y-96606750D01*
X151023000Y-97393250D01*
X151323980Y-98119881D01*
X151880119Y-98676020D01*
X152606750Y-98977000D01*
X153393250Y-98977000D01*
X154119881Y-98676020D01*
X154676020Y-98119881D01*
X154977000Y-97393250D01*
X154977000Y-96606750D01*
X154676020Y-95880119D01*
X154119881Y-95323980D01*
X153644329Y-95127000D01*
X164917065Y-95127000D01*
X167198001Y-97407937D01*
X167198000Y-119492065D01*
X167067065Y-119623000D01*
X128552011Y-119623000D01*
X128552011Y-118467335D01*
X129195024Y-117824324D01*
X129236932Y-117796322D01*
X129264934Y-117754414D01*
X129264937Y-117754411D01*
X129347883Y-117630272D01*
X129347884Y-117630271D01*
X129377011Y-117483840D01*
X129377011Y-117483836D01*
X129386844Y-117434402D01*
X129377011Y-117384968D01*
X129377011Y-116224444D01*
X129386844Y-116175010D01*
X129377011Y-116125576D01*
X129377011Y-116125572D01*
X129347884Y-115979141D01*
X129321841Y-115940165D01*
X129264937Y-115855001D01*
X129264934Y-115854998D01*
X129236932Y-115813090D01*
X129195023Y-115785087D01*
X128952010Y-115542075D01*
X128952010Y-108257924D01*
X129207915Y-108002020D01*
X132923362Y-108002018D01*
X132972801Y-108011852D01*
X133168671Y-107972891D01*
X133292809Y-107889945D01*
X133292811Y-107889943D01*
X133334722Y-107861939D01*
X133362726Y-107820028D01*
X134320009Y-106862745D01*
X134361921Y-106834741D01*
X134472873Y-106668690D01*
X134502000Y-106522259D01*
X134502000Y-106522254D01*
X134511833Y-106472820D01*
X134502000Y-106423386D01*
X134502000Y-96307934D01*
X135607935Y-95202000D01*
X147303156Y-95202000D01*
X147359865Y-95258709D01*
X147645445Y-95377000D01*
X147954555Y-95377000D01*
X148240135Y-95258709D01*
X148371844Y-95127000D01*
X152355671Y-95127000D01*
X151880119Y-95323980D01*
G04 #@! TO.N,/OUT_B*
G36*
X130323000Y-120245445D02*
X130323000Y-120554555D01*
X130441291Y-120840135D01*
X130659865Y-121058709D01*
X130945445Y-121177000D01*
X131254555Y-121177000D01*
X131540135Y-121058709D01*
X131696844Y-120902000D01*
X166950566Y-120902000D01*
X167000000Y-120911833D01*
X167049434Y-120902000D01*
X167049439Y-120902000D01*
X167195870Y-120872873D01*
X167361921Y-120761921D01*
X167389927Y-120720007D01*
X167747990Y-120361945D01*
X167747990Y-142873000D01*
X158000000Y-142873000D01*
X157951399Y-142882667D01*
X157910197Y-142910197D01*
X153947394Y-146873000D01*
X132377000Y-146873000D01*
X132377000Y-137367703D01*
X132640135Y-137258709D01*
X132858709Y-137040135D01*
X132977000Y-136754555D01*
X132977000Y-136445445D01*
X132858709Y-136159865D01*
X132702000Y-136003156D01*
X132702000Y-134049435D01*
X132711833Y-134000000D01*
X132702000Y-133950565D01*
X132702000Y-133950561D01*
X132672873Y-133804130D01*
X132672873Y-133804129D01*
X132589926Y-133679991D01*
X132589925Y-133679990D01*
X132561921Y-133638079D01*
X132520009Y-133610075D01*
X132377000Y-133467065D01*
X132377000Y-133000000D01*
X132348303Y-132855728D01*
X132266579Y-132733421D01*
X132144272Y-132651697D01*
X132000000Y-132623000D01*
X131539354Y-132623000D01*
X131395870Y-132527127D01*
X131249439Y-132498000D01*
X131249434Y-132498000D01*
X131200000Y-132488167D01*
X131150566Y-132498000D01*
X129107935Y-132498000D01*
X128902000Y-132292066D01*
X128902000Y-130880936D01*
X129045011Y-130737926D01*
X129086922Y-130709922D01*
X129197874Y-130543871D01*
X129227001Y-130397440D01*
X129227001Y-130397435D01*
X129236834Y-130348001D01*
X129227001Y-130298567D01*
X129227001Y-129701432D01*
X129236834Y-129651998D01*
X129227001Y-129602564D01*
X129227001Y-129602560D01*
X129197874Y-129456129D01*
X129086922Y-129290078D01*
X129045010Y-129262074D01*
X128552011Y-128769075D01*
X128552011Y-120127000D01*
X130372061Y-120127000D01*
X130323000Y-120245445D01*
X130323000Y-120245445D01*
G37*
X130323000Y-120245445D02*
X130323000Y-120554555D01*
X130441291Y-120840135D01*
X130659865Y-121058709D01*
X130945445Y-121177000D01*
X131254555Y-121177000D01*
X131540135Y-121058709D01*
X131696844Y-120902000D01*
X166950566Y-120902000D01*
X167000000Y-120911833D01*
X167049434Y-120902000D01*
X167049439Y-120902000D01*
X167195870Y-120872873D01*
X167361921Y-120761921D01*
X167389927Y-120720007D01*
X167747990Y-120361945D01*
X167747990Y-142873000D01*
X158000000Y-142873000D01*
X157951399Y-142882667D01*
X157910197Y-142910197D01*
X153947394Y-146873000D01*
X132377000Y-146873000D01*
X132377000Y-137367703D01*
X132640135Y-137258709D01*
X132858709Y-137040135D01*
X132977000Y-136754555D01*
X132977000Y-136445445D01*
X132858709Y-136159865D01*
X132702000Y-136003156D01*
X132702000Y-134049435D01*
X132711833Y-134000000D01*
X132702000Y-133950565D01*
X132702000Y-133950561D01*
X132672873Y-133804130D01*
X132672873Y-133804129D01*
X132589926Y-133679991D01*
X132589925Y-133679990D01*
X132561921Y-133638079D01*
X132520009Y-133610075D01*
X132377000Y-133467065D01*
X132377000Y-133000000D01*
X132348303Y-132855728D01*
X132266579Y-132733421D01*
X132144272Y-132651697D01*
X132000000Y-132623000D01*
X131539354Y-132623000D01*
X131395870Y-132527127D01*
X131249439Y-132498000D01*
X131249434Y-132498000D01*
X131200000Y-132488167D01*
X131150566Y-132498000D01*
X129107935Y-132498000D01*
X128902000Y-132292066D01*
X128902000Y-130880936D01*
X129045011Y-130737926D01*
X129086922Y-130709922D01*
X129197874Y-130543871D01*
X129227001Y-130397440D01*
X129227001Y-130397435D01*
X129236834Y-130348001D01*
X129227001Y-130298567D01*
X129227001Y-129701432D01*
X129236834Y-129651998D01*
X129227001Y-129602564D01*
X129227001Y-129602560D01*
X129197874Y-129456129D01*
X129086922Y-129290078D01*
X129045010Y-129262074D01*
X128552011Y-128769075D01*
X128552011Y-120127000D01*
X130372061Y-120127000D01*
X130323000Y-120245445D01*
G04 #@! TO.N,/VIN*
G36*
X108880119Y-95323980D02*
X108323980Y-95880119D01*
X108023000Y-96606750D01*
X108023000Y-97393250D01*
X108323980Y-98119881D01*
X108880119Y-98676020D01*
X109606750Y-98977000D01*
X110393250Y-98977000D01*
X111119881Y-98676020D01*
X111676020Y-98119881D01*
X111977000Y-97393250D01*
X111977000Y-96606750D01*
X111676020Y-95880119D01*
X111119881Y-95323980D01*
X110644329Y-95127000D01*
X131713485Y-95127000D01*
X131623002Y-95345445D01*
X131623002Y-95654555D01*
X131741293Y-95940135D01*
X131959867Y-96158709D01*
X132245447Y-96277000D01*
X132467067Y-96277000D01*
X132498001Y-96307934D01*
X132498000Y-105992065D01*
X132392066Y-106098000D01*
X128549435Y-106098000D01*
X128500000Y-106088167D01*
X128450565Y-106098000D01*
X128450561Y-106098000D01*
X128335329Y-106120921D01*
X128304129Y-106127127D01*
X128179991Y-106210074D01*
X128138079Y-106238079D01*
X128110075Y-106279991D01*
X127179991Y-107210075D01*
X127138080Y-107238079D01*
X127110076Y-107279990D01*
X127110074Y-107279992D01*
X127027128Y-107404130D01*
X126988167Y-107600000D01*
X126998001Y-107649439D01*
X126998000Y-116464379D01*
X126923000Y-116645445D01*
X126923000Y-116954555D01*
X127041291Y-117240135D01*
X127259865Y-117458709D01*
X127432748Y-117530319D01*
X127279992Y-117683076D01*
X127238081Y-117711080D01*
X127210077Y-117752991D01*
X127210075Y-117752993D01*
X127127129Y-117877131D01*
X127088168Y-118073001D01*
X127098002Y-118122440D01*
X127098001Y-129550567D01*
X127088168Y-129600001D01*
X127098001Y-129649435D01*
X127098001Y-129649439D01*
X127127128Y-129795870D01*
X127223000Y-129939353D01*
X127223000Y-130154555D01*
X127341291Y-130440135D01*
X127559865Y-130658709D01*
X127845445Y-130777000D01*
X127873000Y-130777000D01*
X127873000Y-133000000D01*
X127882667Y-133048601D01*
X127910197Y-133089803D01*
X127951399Y-133117333D01*
X128000000Y-133127000D01*
X128317065Y-133127000D01*
X128510074Y-133320009D01*
X128538079Y-133361921D01*
X128704130Y-133472873D01*
X128850561Y-133502000D01*
X128850566Y-133502000D01*
X128900000Y-133511833D01*
X128949434Y-133502000D01*
X130992066Y-133502000D01*
X131698001Y-134207936D01*
X131698000Y-136003156D01*
X131541291Y-136159865D01*
X131423000Y-136445445D01*
X131423000Y-136754555D01*
X131541291Y-137040135D01*
X131759865Y-137258709D01*
X131873000Y-137305571D01*
X131873000Y-146873000D01*
X110052606Y-146873000D01*
X93127000Y-129947394D01*
X93127000Y-124627000D01*
X94750000Y-124627000D01*
X94798601Y-124617333D01*
X94839803Y-124589803D01*
X94867333Y-124548601D01*
X94877000Y-124500000D01*
X94877000Y-95127000D01*
X109355671Y-95127000D01*
X108880119Y-95323980D01*
X108880119Y-95323980D01*
G37*
X108880119Y-95323980D02*
X108323980Y-95880119D01*
X108023000Y-96606750D01*
X108023000Y-97393250D01*
X108323980Y-98119881D01*
X108880119Y-98676020D01*
X109606750Y-98977000D01*
X110393250Y-98977000D01*
X111119881Y-98676020D01*
X111676020Y-98119881D01*
X111977000Y-97393250D01*
X111977000Y-96606750D01*
X111676020Y-95880119D01*
X111119881Y-95323980D01*
X110644329Y-95127000D01*
X131713485Y-95127000D01*
X131623002Y-95345445D01*
X131623002Y-95654555D01*
X131741293Y-95940135D01*
X131959867Y-96158709D01*
X132245447Y-96277000D01*
X132467067Y-96277000D01*
X132498001Y-96307934D01*
X132498000Y-105992065D01*
X132392066Y-106098000D01*
X128549435Y-106098000D01*
X128500000Y-106088167D01*
X128450565Y-106098000D01*
X128450561Y-106098000D01*
X128335329Y-106120921D01*
X128304129Y-106127127D01*
X128179991Y-106210074D01*
X128138079Y-106238079D01*
X128110075Y-106279991D01*
X127179991Y-107210075D01*
X127138080Y-107238079D01*
X127110076Y-107279990D01*
X127110074Y-107279992D01*
X127027128Y-107404130D01*
X126988167Y-107600000D01*
X126998001Y-107649439D01*
X126998000Y-116464379D01*
X126923000Y-116645445D01*
X126923000Y-116954555D01*
X127041291Y-117240135D01*
X127259865Y-117458709D01*
X127432748Y-117530319D01*
X127279992Y-117683076D01*
X127238081Y-117711080D01*
X127210077Y-117752991D01*
X127210075Y-117752993D01*
X127127129Y-117877131D01*
X127088168Y-118073001D01*
X127098002Y-118122440D01*
X127098001Y-129550567D01*
X127088168Y-129600001D01*
X127098001Y-129649435D01*
X127098001Y-129649439D01*
X127127128Y-129795870D01*
X127223000Y-129939353D01*
X127223000Y-130154555D01*
X127341291Y-130440135D01*
X127559865Y-130658709D01*
X127845445Y-130777000D01*
X127873000Y-130777000D01*
X127873000Y-133000000D01*
X127882667Y-133048601D01*
X127910197Y-133089803D01*
X127951399Y-133117333D01*
X128000000Y-133127000D01*
X128317065Y-133127000D01*
X128510074Y-133320009D01*
X128538079Y-133361921D01*
X128704130Y-133472873D01*
X128850561Y-133502000D01*
X128850566Y-133502000D01*
X128900000Y-133511833D01*
X128949434Y-133502000D01*
X130992066Y-133502000D01*
X131698001Y-134207936D01*
X131698000Y-136003156D01*
X131541291Y-136159865D01*
X131423000Y-136445445D01*
X131423000Y-136754555D01*
X131541291Y-137040135D01*
X131759865Y-137258709D01*
X131873000Y-137305571D01*
X131873000Y-146873000D01*
X110052606Y-146873000D01*
X93127000Y-129947394D01*
X93127000Y-124627000D01*
X94750000Y-124627000D01*
X94798601Y-124617333D01*
X94839803Y-124589803D01*
X94867333Y-124548601D01*
X94877000Y-124500000D01*
X94877000Y-95127000D01*
X109355671Y-95127000D01*
X108880119Y-95323980D01*
G04 #@! TO.N,GND*
G36*
X92873000Y-123873000D02*
X87052606Y-123873000D01*
X83089803Y-119910197D01*
X83048601Y-119882667D01*
X83000000Y-119873000D01*
X70452000Y-119873000D01*
X70452000Y-95127000D01*
X92873000Y-95127000D01*
X92873000Y-123873000D01*
X92873000Y-123873000D01*
G37*
X92873000Y-123873000D02*
X87052606Y-123873000D01*
X83089803Y-119910197D01*
X83048601Y-119882667D01*
X83000000Y-119873000D01*
X70452000Y-119873000D01*
X70452000Y-95127000D01*
X92873000Y-95127000D01*
X92873000Y-123873000D01*
G04 #@! TO.N,/VIN*
G36*
X86733421Y-124266579D02*
X86855728Y-124348303D01*
X87000000Y-124377000D01*
X92873000Y-124377000D01*
X92873000Y-130000000D01*
X92882667Y-130048601D01*
X92910197Y-130089803D01*
X109910197Y-147089803D01*
X109951399Y-147117333D01*
X110000000Y-147127000D01*
X131693394Y-147127000D01*
X130578647Y-148241747D01*
X130380119Y-148323980D01*
X129831099Y-148873000D01*
X111668901Y-148873000D01*
X111119881Y-148323980D01*
X110393250Y-148023000D01*
X109606750Y-148023000D01*
X108880119Y-148323980D01*
X108331099Y-148873000D01*
X99052606Y-148873000D01*
X93089803Y-142910197D01*
X93048601Y-142882667D01*
X93000000Y-142873000D01*
X72677000Y-142873000D01*
X72677000Y-120377000D01*
X82843842Y-120377000D01*
X86733421Y-124266579D01*
X86733421Y-124266579D01*
G37*
X86733421Y-124266579D02*
X86855728Y-124348303D01*
X87000000Y-124377000D01*
X92873000Y-124377000D01*
X92873000Y-130000000D01*
X92882667Y-130048601D01*
X92910197Y-130089803D01*
X109910197Y-147089803D01*
X109951399Y-147117333D01*
X110000000Y-147127000D01*
X131693394Y-147127000D01*
X130578647Y-148241747D01*
X130380119Y-148323980D01*
X129831099Y-148873000D01*
X111668901Y-148873000D01*
X111119881Y-148323980D01*
X110393250Y-148023000D01*
X109606750Y-148023000D01*
X108880119Y-148323980D01*
X108331099Y-148873000D01*
X99052606Y-148873000D01*
X93089803Y-142910197D01*
X93048601Y-142882667D01*
X93000000Y-142873000D01*
X72677000Y-142873000D01*
X72677000Y-120377000D01*
X82843842Y-120377000D01*
X86733421Y-124266579D01*
G04 #@! TO.N,GND*
G36*
X98733421Y-149266579D02*
X98855728Y-149348303D01*
X99000000Y-149377000D01*
X108118165Y-149377000D01*
X108023000Y-149606750D01*
X108023000Y-150393250D01*
X108323980Y-151119881D01*
X108880119Y-151676020D01*
X109606750Y-151977000D01*
X110393250Y-151977000D01*
X111119881Y-151676020D01*
X111676020Y-151119881D01*
X111977000Y-150393250D01*
X111977000Y-149606750D01*
X111881835Y-149377000D01*
X129618165Y-149377000D01*
X129523000Y-149606750D01*
X129523000Y-150393250D01*
X129823980Y-151119881D01*
X130380119Y-151676020D01*
X131106750Y-151977000D01*
X131893250Y-151977000D01*
X132619881Y-151676020D01*
X133176020Y-151119881D01*
X133477000Y-150393250D01*
X133477000Y-149606750D01*
X133176020Y-148880119D01*
X132619881Y-148323980D01*
X131893250Y-148023000D01*
X131510158Y-148023000D01*
X132156158Y-147377000D01*
X154000000Y-147377000D01*
X154144272Y-147348303D01*
X154266579Y-147266579D01*
X158156158Y-143377000D01*
X158402804Y-143377000D01*
X158330615Y-143449189D01*
X158212324Y-143734769D01*
X158212324Y-143956389D01*
X156009993Y-146158721D01*
X155968079Y-146186727D01*
X155857127Y-146352779D01*
X155828000Y-146499210D01*
X155828000Y-146499214D01*
X155818167Y-146548648D01*
X155828000Y-146598082D01*
X155828001Y-149284872D01*
X155828000Y-149284877D01*
X155828000Y-149303156D01*
X155733156Y-149398000D01*
X147975291Y-149398000D01*
X148014002Y-149304544D01*
X148014002Y-148995434D01*
X147895711Y-148709854D01*
X147677137Y-148491280D01*
X147391557Y-148372989D01*
X147082447Y-148372989D01*
X146796867Y-148491280D01*
X146640158Y-148647989D01*
X146590032Y-148647989D01*
X146540598Y-148638156D01*
X146491164Y-148647989D01*
X146491159Y-148647989D01*
X146344728Y-148677116D01*
X146178677Y-148788068D01*
X146150673Y-148829979D01*
X142482653Y-152498000D01*
X92207936Y-152498000D01*
X88464927Y-148754993D01*
X88436921Y-148713079D01*
X88270870Y-148602127D01*
X88124439Y-148573000D01*
X88124434Y-148573000D01*
X88075000Y-148563167D01*
X88025566Y-148573000D01*
X82896844Y-148573000D01*
X82740135Y-148416291D01*
X82454555Y-148298000D01*
X82145445Y-148298000D01*
X81859865Y-148416291D01*
X81641291Y-148634865D01*
X81523000Y-148920445D01*
X81523000Y-149229555D01*
X81641291Y-149515135D01*
X81859865Y-149733709D01*
X82145445Y-149852000D01*
X82454555Y-149852000D01*
X82740135Y-149733709D01*
X82896844Y-149577000D01*
X87524154Y-149577000D01*
X87428630Y-149672524D01*
X87310339Y-149958104D01*
X87310339Y-150267214D01*
X87428630Y-150552794D01*
X87647204Y-150771368D01*
X87932784Y-150889659D01*
X88154405Y-150889659D01*
X90662767Y-153398022D01*
X89707957Y-153398022D01*
X88677000Y-152367066D01*
X88677000Y-152145445D01*
X88558709Y-151859865D01*
X88340135Y-151641291D01*
X88054555Y-151523000D01*
X87745445Y-151523000D01*
X87459865Y-151641291D01*
X87241291Y-151859865D01*
X87123000Y-152145445D01*
X87123000Y-152454555D01*
X87241291Y-152740135D01*
X87459865Y-152958709D01*
X87745445Y-153077000D01*
X87967066Y-153077000D01*
X89110097Y-154220032D01*
X89138101Y-154261943D01*
X89304152Y-154372895D01*
X89450583Y-154402022D01*
X89450588Y-154402022D01*
X89500022Y-154411855D01*
X89549456Y-154402022D01*
X143050544Y-154402022D01*
X143099978Y-154411855D01*
X143149412Y-154402022D01*
X143149417Y-154402022D01*
X143295848Y-154372895D01*
X143461899Y-154261943D01*
X143489905Y-154220029D01*
X146498751Y-151211184D01*
X146646276Y-151358709D01*
X146931856Y-151477000D01*
X147240966Y-151477000D01*
X147526546Y-151358709D01*
X147745120Y-151140135D01*
X147863411Y-150854555D01*
X147863411Y-150545445D01*
X147803994Y-150402000D01*
X155733156Y-150402000D01*
X155889865Y-150558709D01*
X156175445Y-150677000D01*
X156484555Y-150677000D01*
X156770135Y-150558709D01*
X156988709Y-150340135D01*
X157021268Y-150261529D01*
X157044661Y-150284922D01*
X157330241Y-150403213D01*
X157639351Y-150403213D01*
X157924931Y-150284922D01*
X158143505Y-150066348D01*
X158261796Y-149780768D01*
X158261796Y-149471658D01*
X158143505Y-149186078D01*
X157986796Y-149029369D01*
X157986796Y-146627091D01*
X158842239Y-145771649D01*
X158842240Y-149759882D01*
X158842239Y-149759887D01*
X158842239Y-149778166D01*
X158685530Y-149934875D01*
X158567239Y-150220455D01*
X158567239Y-150529565D01*
X158685530Y-150815145D01*
X158904104Y-151033719D01*
X159189684Y-151152010D01*
X159498794Y-151152010D01*
X159784374Y-151033719D01*
X159873000Y-150945093D01*
X159873000Y-154548000D01*
X80127000Y-154548000D01*
X80127000Y-145000000D01*
X80117333Y-144951399D01*
X80089803Y-144910197D01*
X80048601Y-144882667D01*
X80000000Y-144873000D01*
X70452000Y-144873000D01*
X70452000Y-143377000D01*
X92843842Y-143377000D01*
X98733421Y-149266579D01*
X98733421Y-149266579D01*
G37*
X98733421Y-149266579D02*
X98855728Y-149348303D01*
X99000000Y-149377000D01*
X108118165Y-149377000D01*
X108023000Y-149606750D01*
X108023000Y-150393250D01*
X108323980Y-151119881D01*
X108880119Y-151676020D01*
X109606750Y-151977000D01*
X110393250Y-151977000D01*
X111119881Y-151676020D01*
X111676020Y-151119881D01*
X111977000Y-150393250D01*
X111977000Y-149606750D01*
X111881835Y-149377000D01*
X129618165Y-149377000D01*
X129523000Y-149606750D01*
X129523000Y-150393250D01*
X129823980Y-151119881D01*
X130380119Y-151676020D01*
X131106750Y-151977000D01*
X131893250Y-151977000D01*
X132619881Y-151676020D01*
X133176020Y-151119881D01*
X133477000Y-150393250D01*
X133477000Y-149606750D01*
X133176020Y-148880119D01*
X132619881Y-148323980D01*
X131893250Y-148023000D01*
X131510158Y-148023000D01*
X132156158Y-147377000D01*
X154000000Y-147377000D01*
X154144272Y-147348303D01*
X154266579Y-147266579D01*
X158156158Y-143377000D01*
X158402804Y-143377000D01*
X158330615Y-143449189D01*
X158212324Y-143734769D01*
X158212324Y-143956389D01*
X156009993Y-146158721D01*
X155968079Y-146186727D01*
X155857127Y-146352779D01*
X155828000Y-146499210D01*
X155828000Y-146499214D01*
X155818167Y-146548648D01*
X155828000Y-146598082D01*
X155828001Y-149284872D01*
X155828000Y-149284877D01*
X155828000Y-149303156D01*
X155733156Y-149398000D01*
X147975291Y-149398000D01*
X148014002Y-149304544D01*
X148014002Y-148995434D01*
X147895711Y-148709854D01*
X147677137Y-148491280D01*
X147391557Y-148372989D01*
X147082447Y-148372989D01*
X146796867Y-148491280D01*
X146640158Y-148647989D01*
X146590032Y-148647989D01*
X146540598Y-148638156D01*
X146491164Y-148647989D01*
X146491159Y-148647989D01*
X146344728Y-148677116D01*
X146178677Y-148788068D01*
X146150673Y-148829979D01*
X142482653Y-152498000D01*
X92207936Y-152498000D01*
X88464927Y-148754993D01*
X88436921Y-148713079D01*
X88270870Y-148602127D01*
X88124439Y-148573000D01*
X88124434Y-148573000D01*
X88075000Y-148563167D01*
X88025566Y-148573000D01*
X82896844Y-148573000D01*
X82740135Y-148416291D01*
X82454555Y-148298000D01*
X82145445Y-148298000D01*
X81859865Y-148416291D01*
X81641291Y-148634865D01*
X81523000Y-148920445D01*
X81523000Y-149229555D01*
X81641291Y-149515135D01*
X81859865Y-149733709D01*
X82145445Y-149852000D01*
X82454555Y-149852000D01*
X82740135Y-149733709D01*
X82896844Y-149577000D01*
X87524154Y-149577000D01*
X87428630Y-149672524D01*
X87310339Y-149958104D01*
X87310339Y-150267214D01*
X87428630Y-150552794D01*
X87647204Y-150771368D01*
X87932784Y-150889659D01*
X88154405Y-150889659D01*
X90662767Y-153398022D01*
X89707957Y-153398022D01*
X88677000Y-152367066D01*
X88677000Y-152145445D01*
X88558709Y-151859865D01*
X88340135Y-151641291D01*
X88054555Y-151523000D01*
X87745445Y-151523000D01*
X87459865Y-151641291D01*
X87241291Y-151859865D01*
X87123000Y-152145445D01*
X87123000Y-152454555D01*
X87241291Y-152740135D01*
X87459865Y-152958709D01*
X87745445Y-153077000D01*
X87967066Y-153077000D01*
X89110097Y-154220032D01*
X89138101Y-154261943D01*
X89304152Y-154372895D01*
X89450583Y-154402022D01*
X89450588Y-154402022D01*
X89500022Y-154411855D01*
X89549456Y-154402022D01*
X143050544Y-154402022D01*
X143099978Y-154411855D01*
X143149412Y-154402022D01*
X143149417Y-154402022D01*
X143295848Y-154372895D01*
X143461899Y-154261943D01*
X143489905Y-154220029D01*
X146498751Y-151211184D01*
X146646276Y-151358709D01*
X146931856Y-151477000D01*
X147240966Y-151477000D01*
X147526546Y-151358709D01*
X147745120Y-151140135D01*
X147863411Y-150854555D01*
X147863411Y-150545445D01*
X147803994Y-150402000D01*
X155733156Y-150402000D01*
X155889865Y-150558709D01*
X156175445Y-150677000D01*
X156484555Y-150677000D01*
X156770135Y-150558709D01*
X156988709Y-150340135D01*
X157021268Y-150261529D01*
X157044661Y-150284922D01*
X157330241Y-150403213D01*
X157639351Y-150403213D01*
X157924931Y-150284922D01*
X158143505Y-150066348D01*
X158261796Y-149780768D01*
X158261796Y-149471658D01*
X158143505Y-149186078D01*
X157986796Y-149029369D01*
X157986796Y-146627091D01*
X158842239Y-145771649D01*
X158842240Y-149759882D01*
X158842239Y-149759887D01*
X158842239Y-149778166D01*
X158685530Y-149934875D01*
X158567239Y-150220455D01*
X158567239Y-150529565D01*
X158685530Y-150815145D01*
X158904104Y-151033719D01*
X159189684Y-151152010D01*
X159498794Y-151152010D01*
X159784374Y-151033719D01*
X159873000Y-150945093D01*
X159873000Y-154548000D01*
X80127000Y-154548000D01*
X80127000Y-145000000D01*
X80117333Y-144951399D01*
X80089803Y-144910197D01*
X80048601Y-144882667D01*
X80000000Y-144873000D01*
X70452000Y-144873000D01*
X70452000Y-143377000D01*
X92843842Y-143377000D01*
X98733421Y-149266579D01*
G36*
X118823000Y-67200000D02*
X118851697Y-67344272D01*
X118933421Y-67466579D01*
X119055728Y-67548303D01*
X119200000Y-67577000D01*
X131510946Y-67577000D01*
X131510946Y-70623000D01*
X130000000Y-70623000D01*
X129855728Y-70651697D01*
X129733421Y-70733421D01*
X129651697Y-70855728D01*
X129623000Y-71000000D01*
X129623000Y-76500000D01*
X129625558Y-76512862D01*
X129600000Y-76507778D01*
X129523475Y-76523000D01*
X129445445Y-76523000D01*
X129373354Y-76552861D01*
X129296829Y-76568083D01*
X129231955Y-76611430D01*
X129159865Y-76641291D01*
X129104690Y-76696466D01*
X126453156Y-79348001D01*
X119212530Y-79348001D01*
X118369223Y-78504695D01*
X118337930Y-78457861D01*
X118359385Y-78350000D01*
X118359385Y-77150000D01*
X118330125Y-77002902D01*
X118246801Y-76878199D01*
X118122098Y-76794875D01*
X117975000Y-76765615D01*
X117225000Y-76765615D01*
X117077902Y-76794875D01*
X116953199Y-76878199D01*
X116869875Y-77002902D01*
X116840615Y-77150000D01*
X116840615Y-78305644D01*
X116831953Y-78311431D01*
X116759865Y-78341291D01*
X116704692Y-78396464D01*
X116639814Y-78439814D01*
X116596464Y-78504692D01*
X116541291Y-78559865D01*
X116511431Y-78631953D01*
X116468082Y-78696830D01*
X116452860Y-78773357D01*
X116423000Y-78845445D01*
X116423000Y-78923474D01*
X116407778Y-79000000D01*
X116423000Y-79076526D01*
X116423000Y-79154555D01*
X116452860Y-79226643D01*
X116468082Y-79303170D01*
X116511431Y-79368047D01*
X116541291Y-79440135D01*
X116596464Y-79495308D01*
X116600224Y-79500935D01*
X116528633Y-79572526D01*
X116410342Y-79858106D01*
X116410342Y-80167216D01*
X116479139Y-80333307D01*
X116459865Y-80341291D01*
X116241291Y-80559865D01*
X116123000Y-80845445D01*
X116123000Y-81154555D01*
X116241291Y-81440135D01*
X116459865Y-81658709D01*
X116745445Y-81777000D01*
X117024789Y-81777000D01*
X117150583Y-81802022D01*
X117150587Y-81802022D01*
X117191080Y-81810076D01*
X117041291Y-81959865D01*
X116923000Y-82245445D01*
X116923000Y-82554555D01*
X117041291Y-82840135D01*
X117259865Y-83058709D01*
X117545445Y-83177000D01*
X117854555Y-83177000D01*
X118140135Y-83058709D01*
X118358709Y-82840135D01*
X118477000Y-82554555D01*
X118477000Y-82332935D01*
X118557902Y-82252033D01*
X118849123Y-82252033D01*
X118641291Y-82459865D01*
X118523000Y-82745445D01*
X118523000Y-83054555D01*
X118641291Y-83340135D01*
X118859865Y-83558709D01*
X119145445Y-83677000D01*
X119454555Y-83677000D01*
X119740135Y-83558709D01*
X119958709Y-83340135D01*
X120077000Y-83054555D01*
X120077000Y-82832935D01*
X120107935Y-82802000D01*
X125823000Y-82802000D01*
X125823000Y-82854555D01*
X125941291Y-83140135D01*
X126159865Y-83358709D01*
X126445445Y-83477000D01*
X126754555Y-83477000D01*
X127040135Y-83358709D01*
X127258709Y-83140135D01*
X127377000Y-82854555D01*
X127377000Y-82545445D01*
X127258709Y-82259865D01*
X127250877Y-82252033D01*
X128753189Y-82252033D01*
X128833241Y-82332085D01*
X128811015Y-82341291D01*
X128592441Y-82559865D01*
X128474150Y-82845445D01*
X128474150Y-83154555D01*
X128592441Y-83440135D01*
X128811015Y-83658709D01*
X129096595Y-83777000D01*
X129405705Y-83777000D01*
X129691285Y-83658709D01*
X129909859Y-83440135D01*
X130028150Y-83154555D01*
X130028150Y-82932935D01*
X130041075Y-82920010D01*
X130041077Y-82920007D01*
X130345011Y-82616074D01*
X130386923Y-82588069D01*
X130497875Y-82422018D01*
X130527002Y-82275587D01*
X130527002Y-82275582D01*
X130536835Y-82226148D01*
X130527002Y-82176714D01*
X130527002Y-81401435D01*
X130536835Y-81352000D01*
X130527002Y-81302565D01*
X130527002Y-81302561D01*
X130497875Y-81156130D01*
X130497875Y-81156129D01*
X130414928Y-81031991D01*
X130414927Y-81031990D01*
X130386923Y-80990079D01*
X130356873Y-80970000D01*
X131259942Y-80970000D01*
X131351291Y-81429242D01*
X131611431Y-81818569D01*
X132000758Y-82078709D01*
X132344080Y-82147000D01*
X132575920Y-82147000D01*
X132919242Y-82078709D01*
X133308569Y-81818569D01*
X133568709Y-81429242D01*
X133660058Y-80970000D01*
X133799942Y-80970000D01*
X133891291Y-81429242D01*
X134151431Y-81818569D01*
X134540758Y-82078709D01*
X134884080Y-82147000D01*
X135115920Y-82147000D01*
X135459242Y-82078709D01*
X135848569Y-81818569D01*
X136108709Y-81429242D01*
X136200058Y-80970000D01*
X136108709Y-80510758D01*
X135848569Y-80121431D01*
X135459242Y-79861291D01*
X135115920Y-79793000D01*
X134884080Y-79793000D01*
X134540758Y-79861291D01*
X134151431Y-80121431D01*
X133891291Y-80510758D01*
X133799942Y-80970000D01*
X133660058Y-80970000D01*
X133568709Y-80510758D01*
X133308569Y-80121431D01*
X132919242Y-79861291D01*
X132575920Y-79793000D01*
X132344080Y-79793000D01*
X132000758Y-79861291D01*
X131611431Y-80121431D01*
X131351291Y-80510758D01*
X131259942Y-80970000D01*
X130356873Y-80970000D01*
X130345012Y-80962075D01*
X129962929Y-80579993D01*
X129934923Y-80538079D01*
X129768872Y-80427127D01*
X129622441Y-80398000D01*
X129622436Y-80398000D01*
X129573002Y-80388167D01*
X129523568Y-80398000D01*
X128949435Y-80398000D01*
X128900000Y-80388167D01*
X128850565Y-80398000D01*
X128850561Y-80398000D01*
X128735329Y-80420921D01*
X128733666Y-80421252D01*
X128733666Y-80232112D01*
X128615375Y-79946532D01*
X128396801Y-79727958D01*
X128307765Y-79691078D01*
X130203534Y-77795310D01*
X130258709Y-77740135D01*
X130288570Y-77668045D01*
X130331917Y-77603171D01*
X130347139Y-77526646D01*
X130377000Y-77454555D01*
X130377000Y-77376525D01*
X130392222Y-77300000D01*
X130377000Y-77223475D01*
X130377000Y-77145445D01*
X130347139Y-77073353D01*
X130331917Y-76996830D01*
X130288571Y-76931958D01*
X130265807Y-76877000D01*
X134343842Y-76877000D01*
X138733421Y-81266579D01*
X138869221Y-81353590D01*
X139014489Y-81376721D01*
X152014489Y-80876721D01*
X152144272Y-80848303D01*
X152266579Y-80766579D01*
X152863158Y-80170000D01*
X154705615Y-80170000D01*
X154705615Y-81770000D01*
X154734875Y-81917098D01*
X154818199Y-82041801D01*
X154942902Y-82125125D01*
X155090000Y-82154385D01*
X156690000Y-82154385D01*
X156837098Y-82125125D01*
X156961801Y-82041801D01*
X157045125Y-81917098D01*
X157074385Y-81770000D01*
X157074385Y-80970000D01*
X157229942Y-80970000D01*
X157321291Y-81429242D01*
X157581431Y-81818569D01*
X157970758Y-82078709D01*
X158314080Y-82147000D01*
X158545920Y-82147000D01*
X158889242Y-82078709D01*
X159278569Y-81818569D01*
X159538709Y-81429242D01*
X159630058Y-80970000D01*
X159538709Y-80510758D01*
X159311022Y-80170000D01*
X159785615Y-80170000D01*
X159785615Y-81770000D01*
X159814875Y-81917098D01*
X159898199Y-82041801D01*
X160022902Y-82125125D01*
X160170000Y-82154385D01*
X161770000Y-82154385D01*
X161917098Y-82125125D01*
X162041801Y-82041801D01*
X162125125Y-81917098D01*
X162154385Y-81770000D01*
X162154385Y-80970000D01*
X162309942Y-80970000D01*
X162401291Y-81429242D01*
X162661431Y-81818569D01*
X163050758Y-82078709D01*
X163394080Y-82147000D01*
X163625920Y-82147000D01*
X163969242Y-82078709D01*
X164358569Y-81818569D01*
X164618709Y-81429242D01*
X164710058Y-80970000D01*
X164618709Y-80510758D01*
X164358569Y-80121431D01*
X163969242Y-79861291D01*
X163625920Y-79793000D01*
X163394080Y-79793000D01*
X163050758Y-79861291D01*
X162661431Y-80121431D01*
X162401291Y-80510758D01*
X162309942Y-80970000D01*
X162154385Y-80970000D01*
X162154385Y-80170000D01*
X162125125Y-80022902D01*
X162041801Y-79898199D01*
X161917098Y-79814875D01*
X161770000Y-79785615D01*
X160170000Y-79785615D01*
X160022902Y-79814875D01*
X159898199Y-79898199D01*
X159814875Y-80022902D01*
X159785615Y-80170000D01*
X159311022Y-80170000D01*
X159278569Y-80121431D01*
X158889242Y-79861291D01*
X158545920Y-79793000D01*
X158314080Y-79793000D01*
X157970758Y-79861291D01*
X157581431Y-80121431D01*
X157321291Y-80510758D01*
X157229942Y-80970000D01*
X157074385Y-80970000D01*
X157074385Y-80170000D01*
X157045125Y-80022902D01*
X156961801Y-79898199D01*
X156837098Y-79814875D01*
X156690000Y-79785615D01*
X155090000Y-79785615D01*
X154942902Y-79814875D01*
X154818199Y-79898199D01*
X154734875Y-80022902D01*
X154705615Y-80170000D01*
X152863158Y-80170000D01*
X154766579Y-78266579D01*
X154848303Y-78144272D01*
X154877000Y-78000000D01*
X154877000Y-76402000D01*
X155830566Y-76402000D01*
X155880000Y-76411833D01*
X155929434Y-76402000D01*
X155929439Y-76402000D01*
X156075870Y-76372873D01*
X156241921Y-76261921D01*
X156269927Y-76220007D01*
X156612934Y-75877000D01*
X165000000Y-75877000D01*
X165144272Y-75848303D01*
X165266579Y-75766579D01*
X165348303Y-75644272D01*
X165377000Y-75500000D01*
X165377000Y-71000000D01*
X165348303Y-70855728D01*
X165266579Y-70733421D01*
X165144272Y-70651697D01*
X165000000Y-70623000D01*
X158377000Y-70623000D01*
X158377000Y-55452000D01*
X159873000Y-55452000D01*
X159873000Y-63000000D01*
X159882667Y-63048601D01*
X159910197Y-63089803D01*
X161910197Y-65089803D01*
X161951399Y-65117333D01*
X162000000Y-65127000D01*
X169548001Y-65127000D01*
X169548001Y-93873000D01*
X169202000Y-93873000D01*
X169202000Y-91696844D01*
X169408709Y-91490135D01*
X169527000Y-91204555D01*
X169527000Y-90895445D01*
X169408709Y-90609865D01*
X169190135Y-90391291D01*
X168904555Y-90273000D01*
X168595445Y-90273000D01*
X168309865Y-90391291D01*
X168091291Y-90609865D01*
X167973945Y-90893164D01*
X167804555Y-90823000D01*
X167495445Y-90823000D01*
X167209865Y-90941291D01*
X166991291Y-91159865D01*
X166873000Y-91445445D01*
X166873000Y-91754555D01*
X166991291Y-92040135D01*
X167209865Y-92258709D01*
X167495445Y-92377000D01*
X167717065Y-92377000D01*
X167747989Y-92407924D01*
X167747989Y-93873000D01*
X166282936Y-93873000D01*
X164289927Y-91879993D01*
X164261921Y-91838079D01*
X164095870Y-91727127D01*
X163949439Y-91698000D01*
X163949434Y-91698000D01*
X163900000Y-91688167D01*
X163850566Y-91698000D01*
X138317347Y-91698000D01*
X136224326Y-89604978D01*
X136196322Y-89563067D01*
X136030271Y-89452115D01*
X135883840Y-89422988D01*
X135883835Y-89422988D01*
X135834401Y-89413155D01*
X135784967Y-89422988D01*
X134563033Y-89422988D01*
X134513599Y-89413155D01*
X134464165Y-89422988D01*
X134464161Y-89422988D01*
X134317730Y-89452115D01*
X134317729Y-89452116D01*
X134317728Y-89452116D01*
X134228356Y-89511833D01*
X134151679Y-89563067D01*
X134123674Y-89604979D01*
X133630655Y-90098000D01*
X123340021Y-90098000D01*
X123290587Y-90088167D01*
X123241153Y-90098000D01*
X123241149Y-90098000D01*
X123094718Y-90127127D01*
X123094717Y-90127128D01*
X123094716Y-90127128D01*
X123075452Y-90140000D01*
X122928667Y-90238079D01*
X122900663Y-90279990D01*
X120982654Y-92198000D01*
X112345278Y-92198000D01*
X112440135Y-92158709D01*
X112658709Y-91940135D01*
X112777000Y-91654555D01*
X112777000Y-91345445D01*
X112658709Y-91059865D01*
X112502000Y-90903156D01*
X112502000Y-89396844D01*
X112558709Y-89340135D01*
X112677000Y-89054555D01*
X112677000Y-88745445D01*
X112558709Y-88459865D01*
X112340135Y-88241291D01*
X112054555Y-88123000D01*
X111745445Y-88123000D01*
X111459865Y-88241291D01*
X111241291Y-88459865D01*
X111123000Y-88745445D01*
X111123000Y-89054555D01*
X111241291Y-89340135D01*
X111459865Y-89558709D01*
X111498001Y-89574505D01*
X111498000Y-90903156D01*
X111341291Y-91059865D01*
X111223000Y-91345445D01*
X111223000Y-91654555D01*
X111341291Y-91940135D01*
X111559865Y-92158709D01*
X111654722Y-92198000D01*
X110557935Y-92198000D01*
X108639926Y-90279992D01*
X108639925Y-90279990D01*
X108627000Y-90267065D01*
X108627000Y-90045445D01*
X108508709Y-89759865D01*
X108290135Y-89541291D01*
X108004555Y-89423000D01*
X107695445Y-89423000D01*
X107409865Y-89541291D01*
X107191291Y-89759865D01*
X107119680Y-89932748D01*
X106727000Y-89540068D01*
X106727000Y-89245445D01*
X106608709Y-88959865D01*
X106390135Y-88741291D01*
X106104555Y-88623000D01*
X105795445Y-88623000D01*
X105509865Y-88741291D01*
X105291291Y-88959865D01*
X105218144Y-89136457D01*
X104777000Y-88695314D01*
X104777000Y-70004686D01*
X105705860Y-69075826D01*
X122813000Y-69075826D01*
X122813000Y-69524174D01*
X122984576Y-69938394D01*
X123301606Y-70255424D01*
X123715826Y-70427000D01*
X124164174Y-70427000D01*
X124578394Y-70255424D01*
X124895424Y-69938394D01*
X125067000Y-69524174D01*
X125067000Y-69075826D01*
X124895424Y-68661606D01*
X124578394Y-68344576D01*
X124164174Y-68173000D01*
X123715826Y-68173000D01*
X123301606Y-68344576D01*
X122984576Y-68661606D01*
X122813000Y-69075826D01*
X105705860Y-69075826D01*
X108422806Y-66358881D01*
X108504377Y-66304377D01*
X108558881Y-66222806D01*
X108558883Y-66222804D01*
X108720312Y-65981207D01*
X108720313Y-65981206D01*
X108768292Y-65740000D01*
X115315615Y-65740000D01*
X115315615Y-67440000D01*
X115344875Y-67587098D01*
X115428199Y-67711801D01*
X115552902Y-67795125D01*
X115700000Y-67824385D01*
X117400000Y-67824385D01*
X117547098Y-67795125D01*
X117671801Y-67711801D01*
X117755125Y-67587098D01*
X117784385Y-67440000D01*
X117784385Y-65740000D01*
X117755125Y-65592902D01*
X117671801Y-65468199D01*
X117547098Y-65384875D01*
X117400000Y-65355615D01*
X115700000Y-65355615D01*
X115552902Y-65384875D01*
X115428199Y-65468199D01*
X115344875Y-65592902D01*
X115315615Y-65740000D01*
X108768292Y-65740000D01*
X108777000Y-65696223D01*
X108777000Y-65696219D01*
X108796139Y-65600001D01*
X108777000Y-65503783D01*
X108777000Y-64784385D01*
X108800000Y-64784385D01*
X108947098Y-64755125D01*
X109071801Y-64671801D01*
X109155125Y-64547098D01*
X109184385Y-64400000D01*
X109184385Y-64050000D01*
X115298962Y-64050000D01*
X115394192Y-64528752D01*
X115665383Y-64934617D01*
X116071248Y-65205808D01*
X116429153Y-65277000D01*
X116670847Y-65277000D01*
X117028752Y-65205808D01*
X117434617Y-64934617D01*
X117705808Y-64528752D01*
X117801038Y-64050000D01*
X117705808Y-63571248D01*
X117434617Y-63165383D01*
X117028752Y-62894192D01*
X116670847Y-62823000D01*
X116429153Y-62823000D01*
X116071248Y-62894192D01*
X115665383Y-63165383D01*
X115394192Y-63571248D01*
X115298962Y-64050000D01*
X109184385Y-64050000D01*
X109184385Y-62400000D01*
X109155125Y-62252902D01*
X109071801Y-62128199D01*
X108947098Y-62044875D01*
X108800000Y-62015615D01*
X106800000Y-62015615D01*
X106652902Y-62044875D01*
X106528199Y-62128199D01*
X106444875Y-62252902D01*
X106415615Y-62400000D01*
X106415615Y-64400000D01*
X106444875Y-64547098D01*
X106528199Y-64671801D01*
X106652902Y-64755125D01*
X106800000Y-64784385D01*
X106823000Y-64784385D01*
X106823000Y-65195313D01*
X103177195Y-68841119D01*
X103095624Y-68895623D01*
X103041120Y-68977194D01*
X103041117Y-68977197D01*
X102879688Y-69218794D01*
X102803861Y-69600000D01*
X102823001Y-69696223D01*
X102823000Y-84072493D01*
X102792762Y-84027238D01*
X102337279Y-83722894D01*
X101935623Y-83643000D01*
X101064377Y-83643000D01*
X100662721Y-83722894D01*
X100207238Y-84027238D01*
X99902894Y-84482721D01*
X99796023Y-85020000D01*
X99902894Y-85557279D01*
X100207238Y-86012762D01*
X100622154Y-86290000D01*
X100207238Y-86567238D01*
X99902894Y-87022721D01*
X99796023Y-87560000D01*
X99902894Y-88097279D01*
X100207238Y-88552762D01*
X100450965Y-88715615D01*
X100200000Y-88715615D01*
X100052902Y-88744875D01*
X99928199Y-88828199D01*
X99844875Y-88952902D01*
X99815615Y-89100000D01*
X99815615Y-91100000D01*
X99844875Y-91247098D01*
X99928199Y-91371801D01*
X100052902Y-91455125D01*
X100200000Y-91484385D01*
X102800000Y-91484385D01*
X102947098Y-91455125D01*
X103071801Y-91371801D01*
X103155125Y-91247098D01*
X103184385Y-91100000D01*
X103184385Y-89866071D01*
X104041119Y-90722806D01*
X104095623Y-90804377D01*
X104177194Y-90858881D01*
X104177196Y-90858883D01*
X104267934Y-90919512D01*
X107221421Y-93873000D01*
X95527000Y-93873000D01*
X95527000Y-93845445D01*
X95408709Y-93559865D01*
X95190135Y-93341291D01*
X94904555Y-93223000D01*
X94595445Y-93223000D01*
X94309865Y-93341291D01*
X94091291Y-93559865D01*
X93973000Y-93845445D01*
X93973000Y-93873000D01*
X70452000Y-93873000D01*
X70452000Y-87100000D01*
X77415615Y-87100000D01*
X77415615Y-89100000D01*
X77444875Y-89247098D01*
X77528199Y-89371801D01*
X77652902Y-89455125D01*
X77800000Y-89484385D01*
X79800000Y-89484385D01*
X79947098Y-89455125D01*
X80071801Y-89371801D01*
X80155125Y-89247098D01*
X80184385Y-89100000D01*
X80184385Y-88140000D01*
X85015615Y-88140000D01*
X85015615Y-90140000D01*
X85044875Y-90287098D01*
X85128199Y-90411801D01*
X85252902Y-90495125D01*
X85400000Y-90524385D01*
X88000000Y-90524385D01*
X88147098Y-90495125D01*
X88271801Y-90411801D01*
X88355125Y-90287098D01*
X88384385Y-90140000D01*
X88384385Y-88140000D01*
X88355125Y-87992902D01*
X88271801Y-87868199D01*
X88147098Y-87784875D01*
X88000000Y-87755615D01*
X85400000Y-87755615D01*
X85252902Y-87784875D01*
X85128199Y-87868199D01*
X85044875Y-87992902D01*
X85015615Y-88140000D01*
X80184385Y-88140000D01*
X80184385Y-87100000D01*
X80155125Y-86952902D01*
X80071801Y-86828199D01*
X79947098Y-86744875D01*
X79800000Y-86715615D01*
X77800000Y-86715615D01*
X77652902Y-86744875D01*
X77528199Y-86828199D01*
X77444875Y-86952902D01*
X77415615Y-87100000D01*
X70452000Y-87100000D01*
X70452000Y-74900000D01*
X77415615Y-74900000D01*
X77415615Y-76900000D01*
X77444875Y-77047098D01*
X77528199Y-77171801D01*
X77652902Y-77255125D01*
X77800000Y-77284385D01*
X79800000Y-77284385D01*
X79947098Y-77255125D01*
X80071801Y-77171801D01*
X80155125Y-77047098D01*
X80184385Y-76900000D01*
X80184385Y-74900000D01*
X80155125Y-74752902D01*
X80071801Y-74628199D01*
X79947098Y-74544875D01*
X79800000Y-74515615D01*
X77800000Y-74515615D01*
X77652902Y-74544875D01*
X77528199Y-74628199D01*
X77444875Y-74752902D01*
X77415615Y-74900000D01*
X70452000Y-74900000D01*
X70452000Y-65127000D01*
X80000000Y-65127000D01*
X80048601Y-65117333D01*
X80089803Y-65089803D01*
X80117333Y-65048601D01*
X80127000Y-65000000D01*
X80127000Y-62400000D01*
X94715615Y-62400000D01*
X94715615Y-64400000D01*
X94744875Y-64547098D01*
X94828199Y-64671801D01*
X94952902Y-64755125D01*
X95100000Y-64784385D01*
X97100000Y-64784385D01*
X97247098Y-64755125D01*
X97371801Y-64671801D01*
X97455125Y-64547098D01*
X97484385Y-64400000D01*
X97484385Y-62400000D01*
X97455125Y-62252902D01*
X97371801Y-62128199D01*
X97247098Y-62044875D01*
X97100000Y-62015615D01*
X95100000Y-62015615D01*
X94952902Y-62044875D01*
X94828199Y-62128199D01*
X94744875Y-62252902D01*
X94715615Y-62400000D01*
X80127000Y-62400000D01*
X80127000Y-58970000D01*
X115298962Y-58970000D01*
X115394192Y-59448752D01*
X115665383Y-59854617D01*
X116071248Y-60125808D01*
X116429153Y-60197000D01*
X116670847Y-60197000D01*
X117028752Y-60125808D01*
X117434617Y-59854617D01*
X117705808Y-59448752D01*
X117801038Y-58970000D01*
X117705808Y-58491248D01*
X117434617Y-58085383D01*
X117028752Y-57814192D01*
X116670847Y-57743000D01*
X116429153Y-57743000D01*
X116071248Y-57814192D01*
X115665383Y-58085383D01*
X115394192Y-58491248D01*
X115298962Y-58970000D01*
X80127000Y-58970000D01*
X80127000Y-55452000D01*
X118823000Y-55452000D01*
X118823000Y-67200000D01*
X118823000Y-67200000D01*
G37*
X118823000Y-67200000D02*
X118851697Y-67344272D01*
X118933421Y-67466579D01*
X119055728Y-67548303D01*
X119200000Y-67577000D01*
X131510946Y-67577000D01*
X131510946Y-70623000D01*
X130000000Y-70623000D01*
X129855728Y-70651697D01*
X129733421Y-70733421D01*
X129651697Y-70855728D01*
X129623000Y-71000000D01*
X129623000Y-76500000D01*
X129625558Y-76512862D01*
X129600000Y-76507778D01*
X129523475Y-76523000D01*
X129445445Y-76523000D01*
X129373354Y-76552861D01*
X129296829Y-76568083D01*
X129231955Y-76611430D01*
X129159865Y-76641291D01*
X129104690Y-76696466D01*
X126453156Y-79348001D01*
X119212530Y-79348001D01*
X118369223Y-78504695D01*
X118337930Y-78457861D01*
X118359385Y-78350000D01*
X118359385Y-77150000D01*
X118330125Y-77002902D01*
X118246801Y-76878199D01*
X118122098Y-76794875D01*
X117975000Y-76765615D01*
X117225000Y-76765615D01*
X117077902Y-76794875D01*
X116953199Y-76878199D01*
X116869875Y-77002902D01*
X116840615Y-77150000D01*
X116840615Y-78305644D01*
X116831953Y-78311431D01*
X116759865Y-78341291D01*
X116704692Y-78396464D01*
X116639814Y-78439814D01*
X116596464Y-78504692D01*
X116541291Y-78559865D01*
X116511431Y-78631953D01*
X116468082Y-78696830D01*
X116452860Y-78773357D01*
X116423000Y-78845445D01*
X116423000Y-78923474D01*
X116407778Y-79000000D01*
X116423000Y-79076526D01*
X116423000Y-79154555D01*
X116452860Y-79226643D01*
X116468082Y-79303170D01*
X116511431Y-79368047D01*
X116541291Y-79440135D01*
X116596464Y-79495308D01*
X116600224Y-79500935D01*
X116528633Y-79572526D01*
X116410342Y-79858106D01*
X116410342Y-80167216D01*
X116479139Y-80333307D01*
X116459865Y-80341291D01*
X116241291Y-80559865D01*
X116123000Y-80845445D01*
X116123000Y-81154555D01*
X116241291Y-81440135D01*
X116459865Y-81658709D01*
X116745445Y-81777000D01*
X117024789Y-81777000D01*
X117150583Y-81802022D01*
X117150587Y-81802022D01*
X117191080Y-81810076D01*
X117041291Y-81959865D01*
X116923000Y-82245445D01*
X116923000Y-82554555D01*
X117041291Y-82840135D01*
X117259865Y-83058709D01*
X117545445Y-83177000D01*
X117854555Y-83177000D01*
X118140135Y-83058709D01*
X118358709Y-82840135D01*
X118477000Y-82554555D01*
X118477000Y-82332935D01*
X118557902Y-82252033D01*
X118849123Y-82252033D01*
X118641291Y-82459865D01*
X118523000Y-82745445D01*
X118523000Y-83054555D01*
X118641291Y-83340135D01*
X118859865Y-83558709D01*
X119145445Y-83677000D01*
X119454555Y-83677000D01*
X119740135Y-83558709D01*
X119958709Y-83340135D01*
X120077000Y-83054555D01*
X120077000Y-82832935D01*
X120107935Y-82802000D01*
X125823000Y-82802000D01*
X125823000Y-82854555D01*
X125941291Y-83140135D01*
X126159865Y-83358709D01*
X126445445Y-83477000D01*
X126754555Y-83477000D01*
X127040135Y-83358709D01*
X127258709Y-83140135D01*
X127377000Y-82854555D01*
X127377000Y-82545445D01*
X127258709Y-82259865D01*
X127250877Y-82252033D01*
X128753189Y-82252033D01*
X128833241Y-82332085D01*
X128811015Y-82341291D01*
X128592441Y-82559865D01*
X128474150Y-82845445D01*
X128474150Y-83154555D01*
X128592441Y-83440135D01*
X128811015Y-83658709D01*
X129096595Y-83777000D01*
X129405705Y-83777000D01*
X129691285Y-83658709D01*
X129909859Y-83440135D01*
X130028150Y-83154555D01*
X130028150Y-82932935D01*
X130041075Y-82920010D01*
X130041077Y-82920007D01*
X130345011Y-82616074D01*
X130386923Y-82588069D01*
X130497875Y-82422018D01*
X130527002Y-82275587D01*
X130527002Y-82275582D01*
X130536835Y-82226148D01*
X130527002Y-82176714D01*
X130527002Y-81401435D01*
X130536835Y-81352000D01*
X130527002Y-81302565D01*
X130527002Y-81302561D01*
X130497875Y-81156130D01*
X130497875Y-81156129D01*
X130414928Y-81031991D01*
X130414927Y-81031990D01*
X130386923Y-80990079D01*
X130356873Y-80970000D01*
X131259942Y-80970000D01*
X131351291Y-81429242D01*
X131611431Y-81818569D01*
X132000758Y-82078709D01*
X132344080Y-82147000D01*
X132575920Y-82147000D01*
X132919242Y-82078709D01*
X133308569Y-81818569D01*
X133568709Y-81429242D01*
X133660058Y-80970000D01*
X133799942Y-80970000D01*
X133891291Y-81429242D01*
X134151431Y-81818569D01*
X134540758Y-82078709D01*
X134884080Y-82147000D01*
X135115920Y-82147000D01*
X135459242Y-82078709D01*
X135848569Y-81818569D01*
X136108709Y-81429242D01*
X136200058Y-80970000D01*
X136108709Y-80510758D01*
X135848569Y-80121431D01*
X135459242Y-79861291D01*
X135115920Y-79793000D01*
X134884080Y-79793000D01*
X134540758Y-79861291D01*
X134151431Y-80121431D01*
X133891291Y-80510758D01*
X133799942Y-80970000D01*
X133660058Y-80970000D01*
X133568709Y-80510758D01*
X133308569Y-80121431D01*
X132919242Y-79861291D01*
X132575920Y-79793000D01*
X132344080Y-79793000D01*
X132000758Y-79861291D01*
X131611431Y-80121431D01*
X131351291Y-80510758D01*
X131259942Y-80970000D01*
X130356873Y-80970000D01*
X130345012Y-80962075D01*
X129962929Y-80579993D01*
X129934923Y-80538079D01*
X129768872Y-80427127D01*
X129622441Y-80398000D01*
X129622436Y-80398000D01*
X129573002Y-80388167D01*
X129523568Y-80398000D01*
X128949435Y-80398000D01*
X128900000Y-80388167D01*
X128850565Y-80398000D01*
X128850561Y-80398000D01*
X128735329Y-80420921D01*
X128733666Y-80421252D01*
X128733666Y-80232112D01*
X128615375Y-79946532D01*
X128396801Y-79727958D01*
X128307765Y-79691078D01*
X130203534Y-77795310D01*
X130258709Y-77740135D01*
X130288570Y-77668045D01*
X130331917Y-77603171D01*
X130347139Y-77526646D01*
X130377000Y-77454555D01*
X130377000Y-77376525D01*
X130392222Y-77300000D01*
X130377000Y-77223475D01*
X130377000Y-77145445D01*
X130347139Y-77073353D01*
X130331917Y-76996830D01*
X130288571Y-76931958D01*
X130265807Y-76877000D01*
X134343842Y-76877000D01*
X138733421Y-81266579D01*
X138869221Y-81353590D01*
X139014489Y-81376721D01*
X152014489Y-80876721D01*
X152144272Y-80848303D01*
X152266579Y-80766579D01*
X152863158Y-80170000D01*
X154705615Y-80170000D01*
X154705615Y-81770000D01*
X154734875Y-81917098D01*
X154818199Y-82041801D01*
X154942902Y-82125125D01*
X155090000Y-82154385D01*
X156690000Y-82154385D01*
X156837098Y-82125125D01*
X156961801Y-82041801D01*
X157045125Y-81917098D01*
X157074385Y-81770000D01*
X157074385Y-80970000D01*
X157229942Y-80970000D01*
X157321291Y-81429242D01*
X157581431Y-81818569D01*
X157970758Y-82078709D01*
X158314080Y-82147000D01*
X158545920Y-82147000D01*
X158889242Y-82078709D01*
X159278569Y-81818569D01*
X159538709Y-81429242D01*
X159630058Y-80970000D01*
X159538709Y-80510758D01*
X159311022Y-80170000D01*
X159785615Y-80170000D01*
X159785615Y-81770000D01*
X159814875Y-81917098D01*
X159898199Y-82041801D01*
X160022902Y-82125125D01*
X160170000Y-82154385D01*
X161770000Y-82154385D01*
X161917098Y-82125125D01*
X162041801Y-82041801D01*
X162125125Y-81917098D01*
X162154385Y-81770000D01*
X162154385Y-80970000D01*
X162309942Y-80970000D01*
X162401291Y-81429242D01*
X162661431Y-81818569D01*
X163050758Y-82078709D01*
X163394080Y-82147000D01*
X163625920Y-82147000D01*
X163969242Y-82078709D01*
X164358569Y-81818569D01*
X164618709Y-81429242D01*
X164710058Y-80970000D01*
X164618709Y-80510758D01*
X164358569Y-80121431D01*
X163969242Y-79861291D01*
X163625920Y-79793000D01*
X163394080Y-79793000D01*
X163050758Y-79861291D01*
X162661431Y-80121431D01*
X162401291Y-80510758D01*
X162309942Y-80970000D01*
X162154385Y-80970000D01*
X162154385Y-80170000D01*
X162125125Y-80022902D01*
X162041801Y-79898199D01*
X161917098Y-79814875D01*
X161770000Y-79785615D01*
X160170000Y-79785615D01*
X160022902Y-79814875D01*
X159898199Y-79898199D01*
X159814875Y-80022902D01*
X159785615Y-80170000D01*
X159311022Y-80170000D01*
X159278569Y-80121431D01*
X158889242Y-79861291D01*
X158545920Y-79793000D01*
X158314080Y-79793000D01*
X157970758Y-79861291D01*
X157581431Y-80121431D01*
X157321291Y-80510758D01*
X157229942Y-80970000D01*
X157074385Y-80970000D01*
X157074385Y-80170000D01*
X157045125Y-80022902D01*
X156961801Y-79898199D01*
X156837098Y-79814875D01*
X156690000Y-79785615D01*
X155090000Y-79785615D01*
X154942902Y-79814875D01*
X154818199Y-79898199D01*
X154734875Y-80022902D01*
X154705615Y-80170000D01*
X152863158Y-80170000D01*
X154766579Y-78266579D01*
X154848303Y-78144272D01*
X154877000Y-78000000D01*
X154877000Y-76402000D01*
X155830566Y-76402000D01*
X155880000Y-76411833D01*
X155929434Y-76402000D01*
X155929439Y-76402000D01*
X156075870Y-76372873D01*
X156241921Y-76261921D01*
X156269927Y-76220007D01*
X156612934Y-75877000D01*
X165000000Y-75877000D01*
X165144272Y-75848303D01*
X165266579Y-75766579D01*
X165348303Y-75644272D01*
X165377000Y-75500000D01*
X165377000Y-71000000D01*
X165348303Y-70855728D01*
X165266579Y-70733421D01*
X165144272Y-70651697D01*
X165000000Y-70623000D01*
X158377000Y-70623000D01*
X158377000Y-55452000D01*
X159873000Y-55452000D01*
X159873000Y-63000000D01*
X159882667Y-63048601D01*
X159910197Y-63089803D01*
X161910197Y-65089803D01*
X161951399Y-65117333D01*
X162000000Y-65127000D01*
X169548001Y-65127000D01*
X169548001Y-93873000D01*
X169202000Y-93873000D01*
X169202000Y-91696844D01*
X169408709Y-91490135D01*
X169527000Y-91204555D01*
X169527000Y-90895445D01*
X169408709Y-90609865D01*
X169190135Y-90391291D01*
X168904555Y-90273000D01*
X168595445Y-90273000D01*
X168309865Y-90391291D01*
X168091291Y-90609865D01*
X167973945Y-90893164D01*
X167804555Y-90823000D01*
X167495445Y-90823000D01*
X167209865Y-90941291D01*
X166991291Y-91159865D01*
X166873000Y-91445445D01*
X166873000Y-91754555D01*
X166991291Y-92040135D01*
X167209865Y-92258709D01*
X167495445Y-92377000D01*
X167717065Y-92377000D01*
X167747989Y-92407924D01*
X167747989Y-93873000D01*
X166282936Y-93873000D01*
X164289927Y-91879993D01*
X164261921Y-91838079D01*
X164095870Y-91727127D01*
X163949439Y-91698000D01*
X163949434Y-91698000D01*
X163900000Y-91688167D01*
X163850566Y-91698000D01*
X138317347Y-91698000D01*
X136224326Y-89604978D01*
X136196322Y-89563067D01*
X136030271Y-89452115D01*
X135883840Y-89422988D01*
X135883835Y-89422988D01*
X135834401Y-89413155D01*
X135784967Y-89422988D01*
X134563033Y-89422988D01*
X134513599Y-89413155D01*
X134464165Y-89422988D01*
X134464161Y-89422988D01*
X134317730Y-89452115D01*
X134317729Y-89452116D01*
X134317728Y-89452116D01*
X134228356Y-89511833D01*
X134151679Y-89563067D01*
X134123674Y-89604979D01*
X133630655Y-90098000D01*
X123340021Y-90098000D01*
X123290587Y-90088167D01*
X123241153Y-90098000D01*
X123241149Y-90098000D01*
X123094718Y-90127127D01*
X123094717Y-90127128D01*
X123094716Y-90127128D01*
X123075452Y-90140000D01*
X122928667Y-90238079D01*
X122900663Y-90279990D01*
X120982654Y-92198000D01*
X112345278Y-92198000D01*
X112440135Y-92158709D01*
X112658709Y-91940135D01*
X112777000Y-91654555D01*
X112777000Y-91345445D01*
X112658709Y-91059865D01*
X112502000Y-90903156D01*
X112502000Y-89396844D01*
X112558709Y-89340135D01*
X112677000Y-89054555D01*
X112677000Y-88745445D01*
X112558709Y-88459865D01*
X112340135Y-88241291D01*
X112054555Y-88123000D01*
X111745445Y-88123000D01*
X111459865Y-88241291D01*
X111241291Y-88459865D01*
X111123000Y-88745445D01*
X111123000Y-89054555D01*
X111241291Y-89340135D01*
X111459865Y-89558709D01*
X111498001Y-89574505D01*
X111498000Y-90903156D01*
X111341291Y-91059865D01*
X111223000Y-91345445D01*
X111223000Y-91654555D01*
X111341291Y-91940135D01*
X111559865Y-92158709D01*
X111654722Y-92198000D01*
X110557935Y-92198000D01*
X108639926Y-90279992D01*
X108639925Y-90279990D01*
X108627000Y-90267065D01*
X108627000Y-90045445D01*
X108508709Y-89759865D01*
X108290135Y-89541291D01*
X108004555Y-89423000D01*
X107695445Y-89423000D01*
X107409865Y-89541291D01*
X107191291Y-89759865D01*
X107119680Y-89932748D01*
X106727000Y-89540068D01*
X106727000Y-89245445D01*
X106608709Y-88959865D01*
X106390135Y-88741291D01*
X106104555Y-88623000D01*
X105795445Y-88623000D01*
X105509865Y-88741291D01*
X105291291Y-88959865D01*
X105218144Y-89136457D01*
X104777000Y-88695314D01*
X104777000Y-70004686D01*
X105705860Y-69075826D01*
X122813000Y-69075826D01*
X122813000Y-69524174D01*
X122984576Y-69938394D01*
X123301606Y-70255424D01*
X123715826Y-70427000D01*
X124164174Y-70427000D01*
X124578394Y-70255424D01*
X124895424Y-69938394D01*
X125067000Y-69524174D01*
X125067000Y-69075826D01*
X124895424Y-68661606D01*
X124578394Y-68344576D01*
X124164174Y-68173000D01*
X123715826Y-68173000D01*
X123301606Y-68344576D01*
X122984576Y-68661606D01*
X122813000Y-69075826D01*
X105705860Y-69075826D01*
X108422806Y-66358881D01*
X108504377Y-66304377D01*
X108558881Y-66222806D01*
X108558883Y-66222804D01*
X108720312Y-65981207D01*
X108720313Y-65981206D01*
X108768292Y-65740000D01*
X115315615Y-65740000D01*
X115315615Y-67440000D01*
X115344875Y-67587098D01*
X115428199Y-67711801D01*
X115552902Y-67795125D01*
X115700000Y-67824385D01*
X117400000Y-67824385D01*
X117547098Y-67795125D01*
X117671801Y-67711801D01*
X117755125Y-67587098D01*
X117784385Y-67440000D01*
X117784385Y-65740000D01*
X117755125Y-65592902D01*
X117671801Y-65468199D01*
X117547098Y-65384875D01*
X117400000Y-65355615D01*
X115700000Y-65355615D01*
X115552902Y-65384875D01*
X115428199Y-65468199D01*
X115344875Y-65592902D01*
X115315615Y-65740000D01*
X108768292Y-65740000D01*
X108777000Y-65696223D01*
X108777000Y-65696219D01*
X108796139Y-65600001D01*
X108777000Y-65503783D01*
X108777000Y-64784385D01*
X108800000Y-64784385D01*
X108947098Y-64755125D01*
X109071801Y-64671801D01*
X109155125Y-64547098D01*
X109184385Y-64400000D01*
X109184385Y-64050000D01*
X115298962Y-64050000D01*
X115394192Y-64528752D01*
X115665383Y-64934617D01*
X116071248Y-65205808D01*
X116429153Y-65277000D01*
X116670847Y-65277000D01*
X117028752Y-65205808D01*
X117434617Y-64934617D01*
X117705808Y-64528752D01*
X117801038Y-64050000D01*
X117705808Y-63571248D01*
X117434617Y-63165383D01*
X117028752Y-62894192D01*
X116670847Y-62823000D01*
X116429153Y-62823000D01*
X116071248Y-62894192D01*
X115665383Y-63165383D01*
X115394192Y-63571248D01*
X115298962Y-64050000D01*
X109184385Y-64050000D01*
X109184385Y-62400000D01*
X109155125Y-62252902D01*
X109071801Y-62128199D01*
X108947098Y-62044875D01*
X108800000Y-62015615D01*
X106800000Y-62015615D01*
X106652902Y-62044875D01*
X106528199Y-62128199D01*
X106444875Y-62252902D01*
X106415615Y-62400000D01*
X106415615Y-64400000D01*
X106444875Y-64547098D01*
X106528199Y-64671801D01*
X106652902Y-64755125D01*
X106800000Y-64784385D01*
X106823000Y-64784385D01*
X106823000Y-65195313D01*
X103177195Y-68841119D01*
X103095624Y-68895623D01*
X103041120Y-68977194D01*
X103041117Y-68977197D01*
X102879688Y-69218794D01*
X102803861Y-69600000D01*
X102823001Y-69696223D01*
X102823000Y-84072493D01*
X102792762Y-84027238D01*
X102337279Y-83722894D01*
X101935623Y-83643000D01*
X101064377Y-83643000D01*
X100662721Y-83722894D01*
X100207238Y-84027238D01*
X99902894Y-84482721D01*
X99796023Y-85020000D01*
X99902894Y-85557279D01*
X100207238Y-86012762D01*
X100622154Y-86290000D01*
X100207238Y-86567238D01*
X99902894Y-87022721D01*
X99796023Y-87560000D01*
X99902894Y-88097279D01*
X100207238Y-88552762D01*
X100450965Y-88715615D01*
X100200000Y-88715615D01*
X100052902Y-88744875D01*
X99928199Y-88828199D01*
X99844875Y-88952902D01*
X99815615Y-89100000D01*
X99815615Y-91100000D01*
X99844875Y-91247098D01*
X99928199Y-91371801D01*
X100052902Y-91455125D01*
X100200000Y-91484385D01*
X102800000Y-91484385D01*
X102947098Y-91455125D01*
X103071801Y-91371801D01*
X103155125Y-91247098D01*
X103184385Y-91100000D01*
X103184385Y-89866071D01*
X104041119Y-90722806D01*
X104095623Y-90804377D01*
X104177194Y-90858881D01*
X104177196Y-90858883D01*
X104267934Y-90919512D01*
X107221421Y-93873000D01*
X95527000Y-93873000D01*
X95527000Y-93845445D01*
X95408709Y-93559865D01*
X95190135Y-93341291D01*
X94904555Y-93223000D01*
X94595445Y-93223000D01*
X94309865Y-93341291D01*
X94091291Y-93559865D01*
X93973000Y-93845445D01*
X93973000Y-93873000D01*
X70452000Y-93873000D01*
X70452000Y-87100000D01*
X77415615Y-87100000D01*
X77415615Y-89100000D01*
X77444875Y-89247098D01*
X77528199Y-89371801D01*
X77652902Y-89455125D01*
X77800000Y-89484385D01*
X79800000Y-89484385D01*
X79947098Y-89455125D01*
X80071801Y-89371801D01*
X80155125Y-89247098D01*
X80184385Y-89100000D01*
X80184385Y-88140000D01*
X85015615Y-88140000D01*
X85015615Y-90140000D01*
X85044875Y-90287098D01*
X85128199Y-90411801D01*
X85252902Y-90495125D01*
X85400000Y-90524385D01*
X88000000Y-90524385D01*
X88147098Y-90495125D01*
X88271801Y-90411801D01*
X88355125Y-90287098D01*
X88384385Y-90140000D01*
X88384385Y-88140000D01*
X88355125Y-87992902D01*
X88271801Y-87868199D01*
X88147098Y-87784875D01*
X88000000Y-87755615D01*
X85400000Y-87755615D01*
X85252902Y-87784875D01*
X85128199Y-87868199D01*
X85044875Y-87992902D01*
X85015615Y-88140000D01*
X80184385Y-88140000D01*
X80184385Y-87100000D01*
X80155125Y-86952902D01*
X80071801Y-86828199D01*
X79947098Y-86744875D01*
X79800000Y-86715615D01*
X77800000Y-86715615D01*
X77652902Y-86744875D01*
X77528199Y-86828199D01*
X77444875Y-86952902D01*
X77415615Y-87100000D01*
X70452000Y-87100000D01*
X70452000Y-74900000D01*
X77415615Y-74900000D01*
X77415615Y-76900000D01*
X77444875Y-77047098D01*
X77528199Y-77171801D01*
X77652902Y-77255125D01*
X77800000Y-77284385D01*
X79800000Y-77284385D01*
X79947098Y-77255125D01*
X80071801Y-77171801D01*
X80155125Y-77047098D01*
X80184385Y-76900000D01*
X80184385Y-74900000D01*
X80155125Y-74752902D01*
X80071801Y-74628199D01*
X79947098Y-74544875D01*
X79800000Y-74515615D01*
X77800000Y-74515615D01*
X77652902Y-74544875D01*
X77528199Y-74628199D01*
X77444875Y-74752902D01*
X77415615Y-74900000D01*
X70452000Y-74900000D01*
X70452000Y-65127000D01*
X80000000Y-65127000D01*
X80048601Y-65117333D01*
X80089803Y-65089803D01*
X80117333Y-65048601D01*
X80127000Y-65000000D01*
X80127000Y-62400000D01*
X94715615Y-62400000D01*
X94715615Y-64400000D01*
X94744875Y-64547098D01*
X94828199Y-64671801D01*
X94952902Y-64755125D01*
X95100000Y-64784385D01*
X97100000Y-64784385D01*
X97247098Y-64755125D01*
X97371801Y-64671801D01*
X97455125Y-64547098D01*
X97484385Y-64400000D01*
X97484385Y-62400000D01*
X97455125Y-62252902D01*
X97371801Y-62128199D01*
X97247098Y-62044875D01*
X97100000Y-62015615D01*
X95100000Y-62015615D01*
X94952902Y-62044875D01*
X94828199Y-62128199D01*
X94744875Y-62252902D01*
X94715615Y-62400000D01*
X80127000Y-62400000D01*
X80127000Y-58970000D01*
X115298962Y-58970000D01*
X115394192Y-59448752D01*
X115665383Y-59854617D01*
X116071248Y-60125808D01*
X116429153Y-60197000D01*
X116670847Y-60197000D01*
X117028752Y-60125808D01*
X117434617Y-59854617D01*
X117705808Y-59448752D01*
X117801038Y-58970000D01*
X117705808Y-58491248D01*
X117434617Y-58085383D01*
X117028752Y-57814192D01*
X116670847Y-57743000D01*
X116429153Y-57743000D01*
X116071248Y-57814192D01*
X115665383Y-58085383D01*
X115394192Y-58491248D01*
X115298962Y-58970000D01*
X80127000Y-58970000D01*
X80127000Y-55452000D01*
X118823000Y-55452000D01*
X118823000Y-67200000D01*
G04 #@! TO.N,/ISO_GND*
G36*
X157873000Y-67073000D02*
X153536934Y-67073000D01*
X154420013Y-66189923D01*
X154461921Y-66161921D01*
X154489923Y-66120013D01*
X154489926Y-66120010D01*
X154572872Y-65995871D01*
X154572873Y-65995870D01*
X154602000Y-65849439D01*
X154602000Y-65849435D01*
X154611833Y-65800001D01*
X154602000Y-65750567D01*
X154602000Y-63149433D01*
X154611833Y-63099999D01*
X154602000Y-63050565D01*
X154602000Y-63050561D01*
X154572873Y-62904130D01*
X154461921Y-62738079D01*
X154420010Y-62710075D01*
X153014926Y-61304992D01*
X152986920Y-61263078D01*
X152820869Y-61152126D01*
X152674438Y-61122999D01*
X152674433Y-61122999D01*
X152624999Y-61113166D01*
X152575565Y-61122999D01*
X150004434Y-61122999D01*
X149955000Y-61113166D01*
X149905566Y-61122999D01*
X149905562Y-61122999D01*
X149759131Y-61152126D01*
X149759129Y-61152127D01*
X149759130Y-61152127D01*
X149634991Y-61235073D01*
X149634988Y-61235076D01*
X149593080Y-61263078D01*
X149565077Y-61304987D01*
X149309992Y-61560074D01*
X149309990Y-61560075D01*
X149240568Y-61629497D01*
X149104174Y-61573000D01*
X148655826Y-61573000D01*
X148241606Y-61744576D01*
X147924576Y-62061606D01*
X147753000Y-62475826D01*
X147753000Y-62924174D01*
X147924576Y-63338394D01*
X147939182Y-63353000D01*
X147635826Y-63353000D01*
X147221606Y-63524576D01*
X146904576Y-63841606D01*
X146840000Y-63997506D01*
X146775424Y-63841606D01*
X146458394Y-63524576D01*
X146044174Y-63353000D01*
X145934385Y-63353000D01*
X145934385Y-61950000D01*
X145905125Y-61802902D01*
X145821801Y-61678199D01*
X145697098Y-61594875D01*
X145550000Y-61565615D01*
X144050000Y-61565615D01*
X143902902Y-61594875D01*
X143778199Y-61678199D01*
X143694875Y-61802902D01*
X143665615Y-61950000D01*
X143665615Y-62073000D01*
X142623087Y-62073000D01*
X143144042Y-61857213D01*
X143707213Y-61294042D01*
X144012000Y-60558222D01*
X144012000Y-59761778D01*
X152708000Y-59761778D01*
X152708000Y-60558222D01*
X153012787Y-61294042D01*
X153575958Y-61857213D01*
X154311778Y-62162000D01*
X155108222Y-62162000D01*
X155844042Y-61857213D01*
X156407213Y-61294042D01*
X156712000Y-60558222D01*
X156712000Y-59761778D01*
X156407213Y-59025958D01*
X155844042Y-58462787D01*
X155108222Y-58158000D01*
X154311778Y-58158000D01*
X153575958Y-58462787D01*
X153012787Y-59025958D01*
X152708000Y-59761778D01*
X144012000Y-59761778D01*
X143707213Y-59025958D01*
X143144042Y-58462787D01*
X142408222Y-58158000D01*
X141611778Y-58158000D01*
X140875958Y-58462787D01*
X140312787Y-59025958D01*
X140008000Y-59761778D01*
X140008000Y-60558222D01*
X140312787Y-61294042D01*
X140531744Y-61512999D01*
X136338256Y-61512999D01*
X136557213Y-61294042D01*
X136862000Y-60558222D01*
X136862000Y-59761778D01*
X136557213Y-59025958D01*
X135994042Y-58462787D01*
X135258222Y-58158000D01*
X134461778Y-58158000D01*
X133725958Y-58462787D01*
X133162787Y-59025958D01*
X132858000Y-59761778D01*
X132858000Y-60558222D01*
X133162787Y-61294042D01*
X133476746Y-61608001D01*
X132640714Y-61608001D01*
X132133022Y-61100309D01*
X132098042Y-61047958D01*
X131890644Y-60909379D01*
X131707751Y-60872999D01*
X131707747Y-60872999D01*
X131646001Y-60860717D01*
X131584255Y-60872999D01*
X126211747Y-60872999D01*
X126150001Y-60860717D01*
X126088255Y-60872999D01*
X126088251Y-60872999D01*
X125905358Y-60909379D01*
X125750309Y-61012979D01*
X125750308Y-61012980D01*
X125697960Y-61047958D01*
X125662982Y-61100306D01*
X125197673Y-61565615D01*
X124200000Y-61565615D01*
X124052902Y-61594875D01*
X123928199Y-61678199D01*
X123844875Y-61802902D01*
X123815615Y-61950000D01*
X123815615Y-63450000D01*
X123844875Y-63597098D01*
X123928199Y-63721801D01*
X124052902Y-63805125D01*
X124200000Y-63834385D01*
X124446071Y-63834385D01*
X124450897Y-63841606D01*
X124497960Y-63912041D01*
X124550308Y-63947019D01*
X124847720Y-64244431D01*
X124843000Y-64255826D01*
X124843000Y-64704174D01*
X125014576Y-65118394D01*
X125331606Y-65435424D01*
X125745826Y-65607000D01*
X126194174Y-65607000D01*
X126608394Y-65435424D01*
X126925424Y-65118394D01*
X126990000Y-64962494D01*
X127054576Y-65118394D01*
X127371606Y-65435424D01*
X127785826Y-65607000D01*
X128234174Y-65607000D01*
X128648394Y-65435424D01*
X128965424Y-65118394D01*
X129137000Y-64704174D01*
X129137000Y-64255826D01*
X128965424Y-63841606D01*
X128950818Y-63827000D01*
X129254174Y-63827000D01*
X129668394Y-63655424D01*
X129985424Y-63338394D01*
X130050000Y-63182494D01*
X130114576Y-63338394D01*
X130431606Y-63655424D01*
X130845826Y-63827000D01*
X131149182Y-63827000D01*
X131134576Y-63841606D01*
X130963000Y-64255826D01*
X130963000Y-64704174D01*
X131134576Y-65118394D01*
X131451606Y-65435424D01*
X131865826Y-65607000D01*
X132314174Y-65607000D01*
X132728394Y-65435424D01*
X133045424Y-65118394D01*
X133217000Y-64704174D01*
X133217000Y-64255826D01*
X133045424Y-63841606D01*
X132728394Y-63524576D01*
X132314174Y-63353000D01*
X132010818Y-63353000D01*
X132025424Y-63338394D01*
X132197000Y-62924174D01*
X132197000Y-62837683D01*
X132319253Y-62862001D01*
X132319257Y-62862001D01*
X132381003Y-62874283D01*
X132442749Y-62862001D01*
X135794255Y-62862001D01*
X135856001Y-62874283D01*
X135917747Y-62862001D01*
X135917751Y-62862001D01*
X136100644Y-62825621D01*
X136188378Y-62766999D01*
X140666290Y-62766999D01*
X140998983Y-63099693D01*
X141033961Y-63152041D01*
X141086309Y-63187019D01*
X141241359Y-63290620D01*
X141424252Y-63327000D01*
X141424255Y-63327000D01*
X141486001Y-63339282D01*
X141547747Y-63327000D01*
X143665615Y-63327000D01*
X143665615Y-63450000D01*
X143694875Y-63597098D01*
X143778199Y-63721801D01*
X143902902Y-63805125D01*
X144050000Y-63834385D01*
X144296071Y-63834385D01*
X144300897Y-63841606D01*
X144347960Y-63912041D01*
X144400308Y-63947019D01*
X144697720Y-64244431D01*
X144693000Y-64255826D01*
X144693000Y-64704174D01*
X144864576Y-65118394D01*
X145181606Y-65435424D01*
X145595826Y-65607000D01*
X146044174Y-65607000D01*
X146055569Y-65602280D01*
X146873000Y-66419711D01*
X146873000Y-67073000D01*
X119327000Y-67073000D01*
X119327000Y-59761778D01*
X120158000Y-59761778D01*
X120158000Y-60558222D01*
X120462787Y-61294042D01*
X121025958Y-61857213D01*
X121761778Y-62162000D01*
X122558222Y-62162000D01*
X123294042Y-61857213D01*
X123857213Y-61294042D01*
X124162000Y-60558222D01*
X124162000Y-59761778D01*
X123857213Y-59025958D01*
X123294042Y-58462787D01*
X122558222Y-58158000D01*
X121761778Y-58158000D01*
X121025958Y-58462787D01*
X120462787Y-59025958D01*
X120158000Y-59761778D01*
X119327000Y-59761778D01*
X119327000Y-55452000D01*
X157873000Y-55452000D01*
X157873000Y-67073000D01*
X157873000Y-67073000D01*
G37*
X157873000Y-67073000D02*
X153536934Y-67073000D01*
X154420013Y-66189923D01*
X154461921Y-66161921D01*
X154489923Y-66120013D01*
X154489926Y-66120010D01*
X154572872Y-65995871D01*
X154572873Y-65995870D01*
X154602000Y-65849439D01*
X154602000Y-65849435D01*
X154611833Y-65800001D01*
X154602000Y-65750567D01*
X154602000Y-63149433D01*
X154611833Y-63099999D01*
X154602000Y-63050565D01*
X154602000Y-63050561D01*
X154572873Y-62904130D01*
X154461921Y-62738079D01*
X154420010Y-62710075D01*
X153014926Y-61304992D01*
X152986920Y-61263078D01*
X152820869Y-61152126D01*
X152674438Y-61122999D01*
X152674433Y-61122999D01*
X152624999Y-61113166D01*
X152575565Y-61122999D01*
X150004434Y-61122999D01*
X149955000Y-61113166D01*
X149905566Y-61122999D01*
X149905562Y-61122999D01*
X149759131Y-61152126D01*
X149759129Y-61152127D01*
X149759130Y-61152127D01*
X149634991Y-61235073D01*
X149634988Y-61235076D01*
X149593080Y-61263078D01*
X149565077Y-61304987D01*
X149309992Y-61560074D01*
X149309990Y-61560075D01*
X149240568Y-61629497D01*
X149104174Y-61573000D01*
X148655826Y-61573000D01*
X148241606Y-61744576D01*
X147924576Y-62061606D01*
X147753000Y-62475826D01*
X147753000Y-62924174D01*
X147924576Y-63338394D01*
X147939182Y-63353000D01*
X147635826Y-63353000D01*
X147221606Y-63524576D01*
X146904576Y-63841606D01*
X146840000Y-63997506D01*
X146775424Y-63841606D01*
X146458394Y-63524576D01*
X146044174Y-63353000D01*
X145934385Y-63353000D01*
X145934385Y-61950000D01*
X145905125Y-61802902D01*
X145821801Y-61678199D01*
X145697098Y-61594875D01*
X145550000Y-61565615D01*
X144050000Y-61565615D01*
X143902902Y-61594875D01*
X143778199Y-61678199D01*
X143694875Y-61802902D01*
X143665615Y-61950000D01*
X143665615Y-62073000D01*
X142623087Y-62073000D01*
X143144042Y-61857213D01*
X143707213Y-61294042D01*
X144012000Y-60558222D01*
X144012000Y-59761778D01*
X152708000Y-59761778D01*
X152708000Y-60558222D01*
X153012787Y-61294042D01*
X153575958Y-61857213D01*
X154311778Y-62162000D01*
X155108222Y-62162000D01*
X155844042Y-61857213D01*
X156407213Y-61294042D01*
X156712000Y-60558222D01*
X156712000Y-59761778D01*
X156407213Y-59025958D01*
X155844042Y-58462787D01*
X155108222Y-58158000D01*
X154311778Y-58158000D01*
X153575958Y-58462787D01*
X153012787Y-59025958D01*
X152708000Y-59761778D01*
X144012000Y-59761778D01*
X143707213Y-59025958D01*
X143144042Y-58462787D01*
X142408222Y-58158000D01*
X141611778Y-58158000D01*
X140875958Y-58462787D01*
X140312787Y-59025958D01*
X140008000Y-59761778D01*
X140008000Y-60558222D01*
X140312787Y-61294042D01*
X140531744Y-61512999D01*
X136338256Y-61512999D01*
X136557213Y-61294042D01*
X136862000Y-60558222D01*
X136862000Y-59761778D01*
X136557213Y-59025958D01*
X135994042Y-58462787D01*
X135258222Y-58158000D01*
X134461778Y-58158000D01*
X133725958Y-58462787D01*
X133162787Y-59025958D01*
X132858000Y-59761778D01*
X132858000Y-60558222D01*
X133162787Y-61294042D01*
X133476746Y-61608001D01*
X132640714Y-61608001D01*
X132133022Y-61100309D01*
X132098042Y-61047958D01*
X131890644Y-60909379D01*
X131707751Y-60872999D01*
X131707747Y-60872999D01*
X131646001Y-60860717D01*
X131584255Y-60872999D01*
X126211747Y-60872999D01*
X126150001Y-60860717D01*
X126088255Y-60872999D01*
X126088251Y-60872999D01*
X125905358Y-60909379D01*
X125750309Y-61012979D01*
X125750308Y-61012980D01*
X125697960Y-61047958D01*
X125662982Y-61100306D01*
X125197673Y-61565615D01*
X124200000Y-61565615D01*
X124052902Y-61594875D01*
X123928199Y-61678199D01*
X123844875Y-61802902D01*
X123815615Y-61950000D01*
X123815615Y-63450000D01*
X123844875Y-63597098D01*
X123928199Y-63721801D01*
X124052902Y-63805125D01*
X124200000Y-63834385D01*
X124446071Y-63834385D01*
X124450897Y-63841606D01*
X124497960Y-63912041D01*
X124550308Y-63947019D01*
X124847720Y-64244431D01*
X124843000Y-64255826D01*
X124843000Y-64704174D01*
X125014576Y-65118394D01*
X125331606Y-65435424D01*
X125745826Y-65607000D01*
X126194174Y-65607000D01*
X126608394Y-65435424D01*
X126925424Y-65118394D01*
X126990000Y-64962494D01*
X127054576Y-65118394D01*
X127371606Y-65435424D01*
X127785826Y-65607000D01*
X128234174Y-65607000D01*
X128648394Y-65435424D01*
X128965424Y-65118394D01*
X129137000Y-64704174D01*
X129137000Y-64255826D01*
X128965424Y-63841606D01*
X128950818Y-63827000D01*
X129254174Y-63827000D01*
X129668394Y-63655424D01*
X129985424Y-63338394D01*
X130050000Y-63182494D01*
X130114576Y-63338394D01*
X130431606Y-63655424D01*
X130845826Y-63827000D01*
X131149182Y-63827000D01*
X131134576Y-63841606D01*
X130963000Y-64255826D01*
X130963000Y-64704174D01*
X131134576Y-65118394D01*
X131451606Y-65435424D01*
X131865826Y-65607000D01*
X132314174Y-65607000D01*
X132728394Y-65435424D01*
X133045424Y-65118394D01*
X133217000Y-64704174D01*
X133217000Y-64255826D01*
X133045424Y-63841606D01*
X132728394Y-63524576D01*
X132314174Y-63353000D01*
X132010818Y-63353000D01*
X132025424Y-63338394D01*
X132197000Y-62924174D01*
X132197000Y-62837683D01*
X132319253Y-62862001D01*
X132319257Y-62862001D01*
X132381003Y-62874283D01*
X132442749Y-62862001D01*
X135794255Y-62862001D01*
X135856001Y-62874283D01*
X135917747Y-62862001D01*
X135917751Y-62862001D01*
X136100644Y-62825621D01*
X136188378Y-62766999D01*
X140666290Y-62766999D01*
X140998983Y-63099693D01*
X141033961Y-63152041D01*
X141086309Y-63187019D01*
X141241359Y-63290620D01*
X141424252Y-63327000D01*
X141424255Y-63327000D01*
X141486001Y-63339282D01*
X141547747Y-63327000D01*
X143665615Y-63327000D01*
X143665615Y-63450000D01*
X143694875Y-63597098D01*
X143778199Y-63721801D01*
X143902902Y-63805125D01*
X144050000Y-63834385D01*
X144296071Y-63834385D01*
X144300897Y-63841606D01*
X144347960Y-63912041D01*
X144400308Y-63947019D01*
X144697720Y-64244431D01*
X144693000Y-64255826D01*
X144693000Y-64704174D01*
X144864576Y-65118394D01*
X145181606Y-65435424D01*
X145595826Y-65607000D01*
X146044174Y-65607000D01*
X146055569Y-65602280D01*
X146873000Y-66419711D01*
X146873000Y-67073000D01*
X119327000Y-67073000D01*
X119327000Y-59761778D01*
X120158000Y-59761778D01*
X120158000Y-60558222D01*
X120462787Y-61294042D01*
X121025958Y-61857213D01*
X121761778Y-62162000D01*
X122558222Y-62162000D01*
X123294042Y-61857213D01*
X123857213Y-61294042D01*
X124162000Y-60558222D01*
X124162000Y-59761778D01*
X123857213Y-59025958D01*
X123294042Y-58462787D01*
X122558222Y-58158000D01*
X121761778Y-58158000D01*
X121025958Y-58462787D01*
X120462787Y-59025958D01*
X120158000Y-59761778D01*
X119327000Y-59761778D01*
X119327000Y-55452000D01*
X157873000Y-55452000D01*
X157873000Y-67073000D01*
G36*
X153598001Y-63307936D02*
X153598000Y-65592064D01*
X152692066Y-66498000D01*
X148949434Y-66498000D01*
X148900000Y-66488167D01*
X148850566Y-66498000D01*
X148850561Y-66498000D01*
X148704130Y-66527127D01*
X148577011Y-66612065D01*
X148577011Y-65805104D01*
X148586844Y-65755670D01*
X148577011Y-65706236D01*
X148577011Y-65706232D01*
X148547884Y-65559801D01*
X148535095Y-65540660D01*
X148521769Y-65520717D01*
X148472065Y-65446330D01*
X148498394Y-65435424D01*
X148815424Y-65118394D01*
X148987000Y-64704174D01*
X148987000Y-64255826D01*
X148815424Y-63841606D01*
X148800818Y-63827000D01*
X149104174Y-63827000D01*
X149518394Y-63655424D01*
X149835424Y-63338394D01*
X149900000Y-63182494D01*
X149964576Y-63338394D01*
X150281606Y-63655424D01*
X150695826Y-63827000D01*
X150999182Y-63827000D01*
X150984576Y-63841606D01*
X150813000Y-64255826D01*
X150813000Y-64704174D01*
X150984576Y-65118394D01*
X151301606Y-65435424D01*
X151715826Y-65607000D01*
X152164174Y-65607000D01*
X152578394Y-65435424D01*
X152895424Y-65118394D01*
X153067000Y-64704174D01*
X153067000Y-64255826D01*
X152895424Y-63841606D01*
X152578394Y-63524576D01*
X152164174Y-63353000D01*
X151860818Y-63353000D01*
X151875424Y-63338394D01*
X152047000Y-62924174D01*
X152047000Y-62475826D01*
X151902511Y-62126999D01*
X152417065Y-62126999D01*
X153598001Y-63307936D01*
X153598001Y-63307936D01*
G37*
X153598001Y-63307936D02*
X153598000Y-65592064D01*
X152692066Y-66498000D01*
X148949434Y-66498000D01*
X148900000Y-66488167D01*
X148850566Y-66498000D01*
X148850561Y-66498000D01*
X148704130Y-66527127D01*
X148577011Y-66612065D01*
X148577011Y-65805104D01*
X148586844Y-65755670D01*
X148577011Y-65706236D01*
X148577011Y-65706232D01*
X148547884Y-65559801D01*
X148535095Y-65540660D01*
X148521769Y-65520717D01*
X148472065Y-65446330D01*
X148498394Y-65435424D01*
X148815424Y-65118394D01*
X148987000Y-64704174D01*
X148987000Y-64255826D01*
X148815424Y-63841606D01*
X148800818Y-63827000D01*
X149104174Y-63827000D01*
X149518394Y-63655424D01*
X149835424Y-63338394D01*
X149900000Y-63182494D01*
X149964576Y-63338394D01*
X150281606Y-63655424D01*
X150695826Y-63827000D01*
X150999182Y-63827000D01*
X150984576Y-63841606D01*
X150813000Y-64255826D01*
X150813000Y-64704174D01*
X150984576Y-65118394D01*
X151301606Y-65435424D01*
X151715826Y-65607000D01*
X152164174Y-65607000D01*
X152578394Y-65435424D01*
X152895424Y-65118394D01*
X153067000Y-64704174D01*
X153067000Y-64255826D01*
X152895424Y-63841606D01*
X152578394Y-63524576D01*
X152164174Y-63353000D01*
X151860818Y-63353000D01*
X151875424Y-63338394D01*
X152047000Y-62924174D01*
X152047000Y-62475826D01*
X151902511Y-62126999D01*
X152417065Y-62126999D01*
X153598001Y-63307936D01*
G36*
X127903000Y-62475826D02*
X127903000Y-62924174D01*
X128074576Y-63338394D01*
X128089182Y-63353000D01*
X127785826Y-63353000D01*
X127371606Y-63524576D01*
X127054576Y-63841606D01*
X126990000Y-63997506D01*
X126925424Y-63841606D01*
X126608394Y-63524576D01*
X126194174Y-63353000D01*
X126084385Y-63353000D01*
X126084385Y-62452327D01*
X126409713Y-62126999D01*
X128047489Y-62126999D01*
X127903000Y-62475826D01*
X127903000Y-62475826D01*
G37*
X127903000Y-62475826D02*
X127903000Y-62924174D01*
X128074576Y-63338394D01*
X128089182Y-63353000D01*
X127785826Y-63353000D01*
X127371606Y-63524576D01*
X127054576Y-63841606D01*
X126990000Y-63997506D01*
X126925424Y-63841606D01*
X126608394Y-63524576D01*
X126194174Y-63353000D01*
X126084385Y-63353000D01*
X126084385Y-62452327D01*
X126409713Y-62126999D01*
X128047489Y-62126999D01*
X127903000Y-62475826D01*
G36*
X146873001Y-72198681D02*
X146844439Y-72193000D01*
X146844434Y-72193000D01*
X146795000Y-72183167D01*
X146745566Y-72193000D01*
X146276736Y-72193000D01*
X146246801Y-72148199D01*
X146122098Y-72064875D01*
X145975000Y-72035615D01*
X144225000Y-72035615D01*
X144077902Y-72064875D01*
X143953199Y-72148199D01*
X143869875Y-72272902D01*
X143840615Y-72420000D01*
X143840615Y-72970000D01*
X143869875Y-73117098D01*
X143953199Y-73241801D01*
X144077902Y-73325125D01*
X144102410Y-73330000D01*
X144077902Y-73334875D01*
X144058065Y-73348130D01*
X143777000Y-73067065D01*
X143777000Y-72845445D01*
X143658709Y-72559865D01*
X143440135Y-72341291D01*
X143154555Y-72223000D01*
X142845445Y-72223000D01*
X142559865Y-72341291D01*
X142341291Y-72559865D01*
X142223000Y-72845445D01*
X142223000Y-73154555D01*
X142341291Y-73440135D01*
X142559865Y-73658709D01*
X142845445Y-73777000D01*
X143067065Y-73777000D01*
X143575076Y-74285012D01*
X143603079Y-74326921D01*
X143644987Y-74354923D01*
X143644990Y-74354926D01*
X143735613Y-74415478D01*
X143769130Y-74437873D01*
X143915561Y-74467000D01*
X143915565Y-74467000D01*
X143924444Y-74468766D01*
X143953199Y-74511801D01*
X144077902Y-74595125D01*
X144102410Y-74600000D01*
X144077902Y-74604875D01*
X143953199Y-74688199D01*
X143869875Y-74812902D01*
X143840615Y-74960000D01*
X143840615Y-75510000D01*
X143869875Y-75657098D01*
X143953199Y-75781801D01*
X144077902Y-75865125D01*
X144102410Y-75870000D01*
X144077902Y-75874875D01*
X143953199Y-75958199D01*
X143869875Y-76082902D01*
X143840615Y-76230000D01*
X143840615Y-76454450D01*
X142379372Y-77915694D01*
X142337461Y-77943698D01*
X142309457Y-77985609D01*
X142309455Y-77985611D01*
X142226509Y-78109749D01*
X142187548Y-78305619D01*
X142197382Y-78355057D01*
X142197382Y-78868530D01*
X142173896Y-78873202D01*
X141972142Y-79008010D01*
X141837334Y-79209764D01*
X141824381Y-79274883D01*
X141811428Y-79209764D01*
X141676620Y-79008010D01*
X141474866Y-78873202D01*
X141236881Y-78825864D01*
X140799932Y-78825864D01*
X136559316Y-74585249D01*
X139914996Y-74585249D01*
X139914996Y-76185249D01*
X139944256Y-76332347D01*
X140027580Y-76457050D01*
X140152283Y-76540374D01*
X140299381Y-76569634D01*
X141899381Y-76569634D01*
X142046479Y-76540374D01*
X142171182Y-76457050D01*
X142254506Y-76332347D01*
X142283766Y-76185249D01*
X142283766Y-74585249D01*
X142254506Y-74438151D01*
X142171182Y-74313448D01*
X142046479Y-74230124D01*
X141899381Y-74200864D01*
X140299381Y-74200864D01*
X140152283Y-74230124D01*
X140027580Y-74313448D01*
X139944256Y-74438151D01*
X139914996Y-74585249D01*
X136559316Y-74585249D01*
X136174377Y-74200311D01*
X136184385Y-74150000D01*
X136184385Y-72550000D01*
X136155125Y-72402902D01*
X136071801Y-72278199D01*
X135947098Y-72194875D01*
X135800000Y-72165615D01*
X134200000Y-72165615D01*
X134052902Y-72194875D01*
X133928199Y-72278199D01*
X133844875Y-72402902D01*
X133815615Y-72550000D01*
X133815615Y-74150000D01*
X133844875Y-74297098D01*
X133928199Y-74421801D01*
X134052902Y-74505125D01*
X134200000Y-74534385D01*
X135088583Y-74534385D01*
X140039996Y-79485800D01*
X140039996Y-79922749D01*
X140087334Y-80160734D01*
X140222142Y-80362488D01*
X140423896Y-80497296D01*
X140661881Y-80544634D01*
X141236881Y-80544634D01*
X141474866Y-80497296D01*
X141676620Y-80362488D01*
X141811428Y-80160734D01*
X141824381Y-80095615D01*
X141837334Y-80160734D01*
X141972142Y-80362488D01*
X142173896Y-80497296D01*
X142411881Y-80544634D01*
X142986881Y-80544634D01*
X143224866Y-80497296D01*
X143426620Y-80362488D01*
X143561428Y-80160734D01*
X143608766Y-79922749D01*
X143608766Y-79447749D01*
X143561428Y-79209764D01*
X143426620Y-79008010D01*
X143224866Y-78873202D01*
X143201381Y-78868531D01*
X143201381Y-78513553D01*
X144550550Y-77164385D01*
X145975000Y-77164385D01*
X146122098Y-77135125D01*
X146246801Y-77051801D01*
X146330125Y-76927098D01*
X146359385Y-76780000D01*
X146359385Y-76230000D01*
X146330125Y-76082902D01*
X146246801Y-75958199D01*
X146122098Y-75874875D01*
X146097590Y-75870000D01*
X146122098Y-75865125D01*
X146246801Y-75781801D01*
X146330125Y-75657098D01*
X146359385Y-75510000D01*
X146359385Y-74960000D01*
X146330125Y-74812902D01*
X146246801Y-74688199D01*
X146122098Y-74604875D01*
X146097590Y-74600000D01*
X146122098Y-74595125D01*
X146246801Y-74511801D01*
X146330125Y-74387098D01*
X146359385Y-74240000D01*
X146359385Y-73690000D01*
X146330125Y-73542902D01*
X146246801Y-73418199D01*
X146122098Y-73334875D01*
X146097590Y-73330000D01*
X146122098Y-73325125D01*
X146246801Y-73241801D01*
X146276736Y-73197000D01*
X146587066Y-73197000D01*
X147423001Y-74032937D01*
X147423000Y-77883282D01*
X147399515Y-77887953D01*
X147197761Y-78022761D01*
X147062953Y-78224515D01*
X147015615Y-78462500D01*
X147015615Y-78937500D01*
X147062953Y-79175485D01*
X147197761Y-79377239D01*
X147399515Y-79512047D01*
X147637500Y-79559385D01*
X148212500Y-79559385D01*
X148450485Y-79512047D01*
X148652239Y-79377239D01*
X148787047Y-79175485D01*
X148834385Y-78937500D01*
X148834385Y-78500549D01*
X150932935Y-76402000D01*
X151240615Y-76402000D01*
X151240615Y-76780000D01*
X151269875Y-76927098D01*
X151353199Y-77051801D01*
X151477902Y-77135125D01*
X151625000Y-77164385D01*
X152954451Y-77164385D01*
X153223000Y-77432935D01*
X153223000Y-77654555D01*
X153341291Y-77940135D01*
X153559865Y-78158709D01*
X153845445Y-78277000D01*
X154043394Y-78277000D01*
X151945387Y-80375007D01*
X139050567Y-80870961D01*
X134589803Y-76410197D01*
X134548601Y-76382667D01*
X134500000Y-76373000D01*
X130127000Y-76373000D01*
X130127000Y-71127000D01*
X145274210Y-71127000D01*
X145322811Y-71117333D01*
X145364013Y-71089803D01*
X145391543Y-71048601D01*
X145401210Y-71000000D01*
X145401210Y-67500000D01*
X145391543Y-67451399D01*
X145364013Y-67410197D01*
X145322811Y-67382667D01*
X145274210Y-67373000D01*
X145127000Y-67373000D01*
X145127000Y-67127000D01*
X146873000Y-67127000D01*
X146873001Y-72198681D01*
X146873001Y-72198681D01*
G37*
X146873001Y-72198681D02*
X146844439Y-72193000D01*
X146844434Y-72193000D01*
X146795000Y-72183167D01*
X146745566Y-72193000D01*
X146276736Y-72193000D01*
X146246801Y-72148199D01*
X146122098Y-72064875D01*
X145975000Y-72035615D01*
X144225000Y-72035615D01*
X144077902Y-72064875D01*
X143953199Y-72148199D01*
X143869875Y-72272902D01*
X143840615Y-72420000D01*
X143840615Y-72970000D01*
X143869875Y-73117098D01*
X143953199Y-73241801D01*
X144077902Y-73325125D01*
X144102410Y-73330000D01*
X144077902Y-73334875D01*
X144058065Y-73348130D01*
X143777000Y-73067065D01*
X143777000Y-72845445D01*
X143658709Y-72559865D01*
X143440135Y-72341291D01*
X143154555Y-72223000D01*
X142845445Y-72223000D01*
X142559865Y-72341291D01*
X142341291Y-72559865D01*
X142223000Y-72845445D01*
X142223000Y-73154555D01*
X142341291Y-73440135D01*
X142559865Y-73658709D01*
X142845445Y-73777000D01*
X143067065Y-73777000D01*
X143575076Y-74285012D01*
X143603079Y-74326921D01*
X143644987Y-74354923D01*
X143644990Y-74354926D01*
X143735613Y-74415478D01*
X143769130Y-74437873D01*
X143915561Y-74467000D01*
X143915565Y-74467000D01*
X143924444Y-74468766D01*
X143953199Y-74511801D01*
X144077902Y-74595125D01*
X144102410Y-74600000D01*
X144077902Y-74604875D01*
X143953199Y-74688199D01*
X143869875Y-74812902D01*
X143840615Y-74960000D01*
X143840615Y-75510000D01*
X143869875Y-75657098D01*
X143953199Y-75781801D01*
X144077902Y-75865125D01*
X144102410Y-75870000D01*
X144077902Y-75874875D01*
X143953199Y-75958199D01*
X143869875Y-76082902D01*
X143840615Y-76230000D01*
X143840615Y-76454450D01*
X142379372Y-77915694D01*
X142337461Y-77943698D01*
X142309457Y-77985609D01*
X142309455Y-77985611D01*
X142226509Y-78109749D01*
X142187548Y-78305619D01*
X142197382Y-78355057D01*
X142197382Y-78868530D01*
X142173896Y-78873202D01*
X141972142Y-79008010D01*
X141837334Y-79209764D01*
X141824381Y-79274883D01*
X141811428Y-79209764D01*
X141676620Y-79008010D01*
X141474866Y-78873202D01*
X141236881Y-78825864D01*
X140799932Y-78825864D01*
X136559316Y-74585249D01*
X139914996Y-74585249D01*
X139914996Y-76185249D01*
X139944256Y-76332347D01*
X140027580Y-76457050D01*
X140152283Y-76540374D01*
X140299381Y-76569634D01*
X141899381Y-76569634D01*
X142046479Y-76540374D01*
X142171182Y-76457050D01*
X142254506Y-76332347D01*
X142283766Y-76185249D01*
X142283766Y-74585249D01*
X142254506Y-74438151D01*
X142171182Y-74313448D01*
X142046479Y-74230124D01*
X141899381Y-74200864D01*
X140299381Y-74200864D01*
X140152283Y-74230124D01*
X140027580Y-74313448D01*
X139944256Y-74438151D01*
X139914996Y-74585249D01*
X136559316Y-74585249D01*
X136174377Y-74200311D01*
X136184385Y-74150000D01*
X136184385Y-72550000D01*
X136155125Y-72402902D01*
X136071801Y-72278199D01*
X135947098Y-72194875D01*
X135800000Y-72165615D01*
X134200000Y-72165615D01*
X134052902Y-72194875D01*
X133928199Y-72278199D01*
X133844875Y-72402902D01*
X133815615Y-72550000D01*
X133815615Y-74150000D01*
X133844875Y-74297098D01*
X133928199Y-74421801D01*
X134052902Y-74505125D01*
X134200000Y-74534385D01*
X135088583Y-74534385D01*
X140039996Y-79485800D01*
X140039996Y-79922749D01*
X140087334Y-80160734D01*
X140222142Y-80362488D01*
X140423896Y-80497296D01*
X140661881Y-80544634D01*
X141236881Y-80544634D01*
X141474866Y-80497296D01*
X141676620Y-80362488D01*
X141811428Y-80160734D01*
X141824381Y-80095615D01*
X141837334Y-80160734D01*
X141972142Y-80362488D01*
X142173896Y-80497296D01*
X142411881Y-80544634D01*
X142986881Y-80544634D01*
X143224866Y-80497296D01*
X143426620Y-80362488D01*
X143561428Y-80160734D01*
X143608766Y-79922749D01*
X143608766Y-79447749D01*
X143561428Y-79209764D01*
X143426620Y-79008010D01*
X143224866Y-78873202D01*
X143201381Y-78868531D01*
X143201381Y-78513553D01*
X144550550Y-77164385D01*
X145975000Y-77164385D01*
X146122098Y-77135125D01*
X146246801Y-77051801D01*
X146330125Y-76927098D01*
X146359385Y-76780000D01*
X146359385Y-76230000D01*
X146330125Y-76082902D01*
X146246801Y-75958199D01*
X146122098Y-75874875D01*
X146097590Y-75870000D01*
X146122098Y-75865125D01*
X146246801Y-75781801D01*
X146330125Y-75657098D01*
X146359385Y-75510000D01*
X146359385Y-74960000D01*
X146330125Y-74812902D01*
X146246801Y-74688199D01*
X146122098Y-74604875D01*
X146097590Y-74600000D01*
X146122098Y-74595125D01*
X146246801Y-74511801D01*
X146330125Y-74387098D01*
X146359385Y-74240000D01*
X146359385Y-73690000D01*
X146330125Y-73542902D01*
X146246801Y-73418199D01*
X146122098Y-73334875D01*
X146097590Y-73330000D01*
X146122098Y-73325125D01*
X146246801Y-73241801D01*
X146276736Y-73197000D01*
X146587066Y-73197000D01*
X147423001Y-74032937D01*
X147423000Y-77883282D01*
X147399515Y-77887953D01*
X147197761Y-78022761D01*
X147062953Y-78224515D01*
X147015615Y-78462500D01*
X147015615Y-78937500D01*
X147062953Y-79175485D01*
X147197761Y-79377239D01*
X147399515Y-79512047D01*
X147637500Y-79559385D01*
X148212500Y-79559385D01*
X148450485Y-79512047D01*
X148652239Y-79377239D01*
X148787047Y-79175485D01*
X148834385Y-78937500D01*
X148834385Y-78500549D01*
X150932935Y-76402000D01*
X151240615Y-76402000D01*
X151240615Y-76780000D01*
X151269875Y-76927098D01*
X151353199Y-77051801D01*
X151477902Y-77135125D01*
X151625000Y-77164385D01*
X152954451Y-77164385D01*
X153223000Y-77432935D01*
X153223000Y-77654555D01*
X153341291Y-77940135D01*
X153559865Y-78158709D01*
X153845445Y-78277000D01*
X154043394Y-78277000D01*
X151945387Y-80375007D01*
X139050567Y-80870961D01*
X134589803Y-76410197D01*
X134548601Y-76382667D01*
X134500000Y-76373000D01*
X130127000Y-76373000D01*
X130127000Y-71127000D01*
X145274210Y-71127000D01*
X145322811Y-71117333D01*
X145364013Y-71089803D01*
X145391543Y-71048601D01*
X145401210Y-71000000D01*
X145401210Y-67500000D01*
X145391543Y-67451399D01*
X145364013Y-67410197D01*
X145322811Y-67382667D01*
X145274210Y-67373000D01*
X145127000Y-67373000D01*
X145127000Y-67127000D01*
X146873000Y-67127000D01*
X146873001Y-72198681D01*
G36*
X157873000Y-71000000D02*
X157882667Y-71048601D01*
X157910197Y-71089803D01*
X157951399Y-71117333D01*
X158000000Y-71127000D01*
X164873000Y-71127000D01*
X164873000Y-75373000D01*
X161234385Y-75373000D01*
X161234385Y-74625000D01*
X161209983Y-74502322D01*
X161429242Y-74458709D01*
X161818569Y-74198569D01*
X162078709Y-73809242D01*
X162170058Y-73350000D01*
X162309942Y-73350000D01*
X162401291Y-73809242D01*
X162661431Y-74198569D01*
X163050758Y-74458709D01*
X163394080Y-74527000D01*
X163625920Y-74527000D01*
X163969242Y-74458709D01*
X164358569Y-74198569D01*
X164618709Y-73809242D01*
X164710058Y-73350000D01*
X164618709Y-72890758D01*
X164358569Y-72501431D01*
X163969242Y-72241291D01*
X163625920Y-72173000D01*
X163394080Y-72173000D01*
X163050758Y-72241291D01*
X162661431Y-72501431D01*
X162401291Y-72890758D01*
X162309942Y-73350000D01*
X162170058Y-73350000D01*
X162078709Y-72890758D01*
X161818569Y-72501431D01*
X161429242Y-72241291D01*
X161085920Y-72173000D01*
X160854080Y-72173000D01*
X160510758Y-72241291D01*
X160121431Y-72501431D01*
X159861291Y-72890758D01*
X159769942Y-73350000D01*
X159820276Y-73603048D01*
X159797960Y-73617959D01*
X159762982Y-73670307D01*
X159762981Y-73670308D01*
X159659380Y-73825358D01*
X159610718Y-74070000D01*
X159623001Y-74131751D01*
X159623001Y-74245986D01*
X159502902Y-74269875D01*
X159378199Y-74353199D01*
X159294875Y-74477902D01*
X159265615Y-74625000D01*
X159265615Y-75373000D01*
X157116934Y-75373000D01*
X158021193Y-74468741D01*
X158314080Y-74527000D01*
X158545920Y-74527000D01*
X158889242Y-74458709D01*
X159278569Y-74198569D01*
X159538709Y-73809242D01*
X159630058Y-73350000D01*
X159538709Y-72890758D01*
X159278569Y-72501431D01*
X158889242Y-72241291D01*
X158545920Y-72173000D01*
X158314080Y-72173000D01*
X157970758Y-72241291D01*
X157581431Y-72501431D01*
X157321291Y-72890758D01*
X157229942Y-73350000D01*
X157311259Y-73758807D01*
X155697066Y-75373000D01*
X154500000Y-75373000D01*
X154451399Y-75382667D01*
X154428451Y-75398000D01*
X153759385Y-75398000D01*
X153759385Y-74960000D01*
X153730125Y-74812902D01*
X153646801Y-74688199D01*
X153522098Y-74604875D01*
X153497590Y-74600000D01*
X153522098Y-74595125D01*
X153646801Y-74511801D01*
X153730125Y-74387098D01*
X153759385Y-74240000D01*
X153759385Y-73690000D01*
X153730125Y-73542902D01*
X153646801Y-73418199D01*
X153544735Y-73350000D01*
X154689942Y-73350000D01*
X154781291Y-73809242D01*
X155041431Y-74198569D01*
X155430758Y-74458709D01*
X155774080Y-74527000D01*
X156005920Y-74527000D01*
X156349242Y-74458709D01*
X156738569Y-74198569D01*
X156998709Y-73809242D01*
X157090058Y-73350000D01*
X156998709Y-72890758D01*
X156738569Y-72501431D01*
X156349242Y-72241291D01*
X156005920Y-72173000D01*
X155774080Y-72173000D01*
X155430758Y-72241291D01*
X155041431Y-72501431D01*
X154781291Y-72890758D01*
X154689942Y-73350000D01*
X153544735Y-73350000D01*
X153522098Y-73334875D01*
X153375000Y-73305615D01*
X151625000Y-73305615D01*
X151477902Y-73334875D01*
X151353199Y-73418199D01*
X151323264Y-73463000D01*
X150872935Y-73463000D01*
X149027022Y-71617088D01*
X149027022Y-67582912D01*
X149107935Y-67502000D01*
X151373000Y-67502000D01*
X151373000Y-71000000D01*
X151382667Y-71048601D01*
X151410197Y-71089803D01*
X151451399Y-71117333D01*
X151500000Y-71127000D01*
X157000000Y-71127000D01*
X157048601Y-71117333D01*
X157089803Y-71089803D01*
X157117333Y-71048601D01*
X157127000Y-71000000D01*
X157127000Y-67500000D01*
X157117333Y-67451399D01*
X157089803Y-67410197D01*
X157048601Y-67382667D01*
X157000000Y-67373000D01*
X153245340Y-67373000D01*
X153261921Y-67361921D01*
X153289927Y-67320007D01*
X153482934Y-67127000D01*
X157873000Y-67127000D01*
X157873000Y-71000000D01*
X157873000Y-71000000D01*
G37*
X157873000Y-71000000D02*
X157882667Y-71048601D01*
X157910197Y-71089803D01*
X157951399Y-71117333D01*
X158000000Y-71127000D01*
X164873000Y-71127000D01*
X164873000Y-75373000D01*
X161234385Y-75373000D01*
X161234385Y-74625000D01*
X161209983Y-74502322D01*
X161429242Y-74458709D01*
X161818569Y-74198569D01*
X162078709Y-73809242D01*
X162170058Y-73350000D01*
X162309942Y-73350000D01*
X162401291Y-73809242D01*
X162661431Y-74198569D01*
X163050758Y-74458709D01*
X163394080Y-74527000D01*
X163625920Y-74527000D01*
X163969242Y-74458709D01*
X164358569Y-74198569D01*
X164618709Y-73809242D01*
X164710058Y-73350000D01*
X164618709Y-72890758D01*
X164358569Y-72501431D01*
X163969242Y-72241291D01*
X163625920Y-72173000D01*
X163394080Y-72173000D01*
X163050758Y-72241291D01*
X162661431Y-72501431D01*
X162401291Y-72890758D01*
X162309942Y-73350000D01*
X162170058Y-73350000D01*
X162078709Y-72890758D01*
X161818569Y-72501431D01*
X161429242Y-72241291D01*
X161085920Y-72173000D01*
X160854080Y-72173000D01*
X160510758Y-72241291D01*
X160121431Y-72501431D01*
X159861291Y-72890758D01*
X159769942Y-73350000D01*
X159820276Y-73603048D01*
X159797960Y-73617959D01*
X159762982Y-73670307D01*
X159762981Y-73670308D01*
X159659380Y-73825358D01*
X159610718Y-74070000D01*
X159623001Y-74131751D01*
X159623001Y-74245986D01*
X159502902Y-74269875D01*
X159378199Y-74353199D01*
X159294875Y-74477902D01*
X159265615Y-74625000D01*
X159265615Y-75373000D01*
X157116934Y-75373000D01*
X158021193Y-74468741D01*
X158314080Y-74527000D01*
X158545920Y-74527000D01*
X158889242Y-74458709D01*
X159278569Y-74198569D01*
X159538709Y-73809242D01*
X159630058Y-73350000D01*
X159538709Y-72890758D01*
X159278569Y-72501431D01*
X158889242Y-72241291D01*
X158545920Y-72173000D01*
X158314080Y-72173000D01*
X157970758Y-72241291D01*
X157581431Y-72501431D01*
X157321291Y-72890758D01*
X157229942Y-73350000D01*
X157311259Y-73758807D01*
X155697066Y-75373000D01*
X154500000Y-75373000D01*
X154451399Y-75382667D01*
X154428451Y-75398000D01*
X153759385Y-75398000D01*
X153759385Y-74960000D01*
X153730125Y-74812902D01*
X153646801Y-74688199D01*
X153522098Y-74604875D01*
X153497590Y-74600000D01*
X153522098Y-74595125D01*
X153646801Y-74511801D01*
X153730125Y-74387098D01*
X153759385Y-74240000D01*
X153759385Y-73690000D01*
X153730125Y-73542902D01*
X153646801Y-73418199D01*
X153544735Y-73350000D01*
X154689942Y-73350000D01*
X154781291Y-73809242D01*
X155041431Y-74198569D01*
X155430758Y-74458709D01*
X155774080Y-74527000D01*
X156005920Y-74527000D01*
X156349242Y-74458709D01*
X156738569Y-74198569D01*
X156998709Y-73809242D01*
X157090058Y-73350000D01*
X156998709Y-72890758D01*
X156738569Y-72501431D01*
X156349242Y-72241291D01*
X156005920Y-72173000D01*
X155774080Y-72173000D01*
X155430758Y-72241291D01*
X155041431Y-72501431D01*
X154781291Y-72890758D01*
X154689942Y-73350000D01*
X153544735Y-73350000D01*
X153522098Y-73334875D01*
X153375000Y-73305615D01*
X151625000Y-73305615D01*
X151477902Y-73334875D01*
X151353199Y-73418199D01*
X151323264Y-73463000D01*
X150872935Y-73463000D01*
X149027022Y-71617088D01*
X149027022Y-67582912D01*
X149107935Y-67502000D01*
X151373000Y-67502000D01*
X151373000Y-71000000D01*
X151382667Y-71048601D01*
X151410197Y-71089803D01*
X151451399Y-71117333D01*
X151500000Y-71127000D01*
X157000000Y-71127000D01*
X157048601Y-71117333D01*
X157089803Y-71089803D01*
X157117333Y-71048601D01*
X157127000Y-71000000D01*
X157127000Y-67500000D01*
X157117333Y-67451399D01*
X157089803Y-67410197D01*
X157048601Y-67382667D01*
X157000000Y-67373000D01*
X153245340Y-67373000D01*
X153261921Y-67361921D01*
X153289927Y-67320007D01*
X153482934Y-67127000D01*
X157873000Y-67127000D01*
X157873000Y-71000000D01*
G04 #@! TD*
M02*
