G04 #@! TF.GenerationSoftware,KiCad,Pcbnew,(5.0.1)*
G04 #@! TF.CreationDate,2019-01-31T10:54:59+09:00*
G04 #@! TF.ProjectId,driver,6472697665722E6B696361645F706362,rev?*
G04 #@! TF.SameCoordinates,Original*
G04 #@! TF.FileFunction,Paste,Bot*
G04 #@! TF.FilePolarity,Positive*
%FSLAX46Y46*%
G04 Gerber Fmt 4.6, Leading zero omitted, Abs format (unit mm)*
G04 Created by KiCad (PCBNEW (5.0.1)) date Thu Jan 31 10:54:59 2019*
%MOMM*%
%LPD*%
G01*
G04 APERTURE LIST*
%ADD10R,0.750000X1.200000*%
%ADD11C,0.100000*%
%ADD12C,0.950000*%
%ADD13R,1.200000X0.750000*%
%ADD14R,1.750000X0.550000*%
G04 APERTURE END LIST*
D10*
G04 #@! TO.C,C11*
X117600000Y-75850000D03*
X117600000Y-77750000D03*
G04 #@! TD*
D11*
G04 #@! TO.C,R34*
G36*
X148235779Y-78226144D02*
X148258834Y-78229563D01*
X148281443Y-78235227D01*
X148303387Y-78243079D01*
X148324457Y-78253044D01*
X148344448Y-78265026D01*
X148363168Y-78278910D01*
X148380438Y-78294562D01*
X148396090Y-78311832D01*
X148409974Y-78330552D01*
X148421956Y-78350543D01*
X148431921Y-78371613D01*
X148439773Y-78393557D01*
X148445437Y-78416166D01*
X148448856Y-78439221D01*
X148450000Y-78462500D01*
X148450000Y-78937500D01*
X148448856Y-78960779D01*
X148445437Y-78983834D01*
X148439773Y-79006443D01*
X148431921Y-79028387D01*
X148421956Y-79049457D01*
X148409974Y-79069448D01*
X148396090Y-79088168D01*
X148380438Y-79105438D01*
X148363168Y-79121090D01*
X148344448Y-79134974D01*
X148324457Y-79146956D01*
X148303387Y-79156921D01*
X148281443Y-79164773D01*
X148258834Y-79170437D01*
X148235779Y-79173856D01*
X148212500Y-79175000D01*
X147637500Y-79175000D01*
X147614221Y-79173856D01*
X147591166Y-79170437D01*
X147568557Y-79164773D01*
X147546613Y-79156921D01*
X147525543Y-79146956D01*
X147505552Y-79134974D01*
X147486832Y-79121090D01*
X147469562Y-79105438D01*
X147453910Y-79088168D01*
X147440026Y-79069448D01*
X147428044Y-79049457D01*
X147418079Y-79028387D01*
X147410227Y-79006443D01*
X147404563Y-78983834D01*
X147401144Y-78960779D01*
X147400000Y-78937500D01*
X147400000Y-78462500D01*
X147401144Y-78439221D01*
X147404563Y-78416166D01*
X147410227Y-78393557D01*
X147418079Y-78371613D01*
X147428044Y-78350543D01*
X147440026Y-78330552D01*
X147453910Y-78311832D01*
X147469562Y-78294562D01*
X147486832Y-78278910D01*
X147505552Y-78265026D01*
X147525543Y-78253044D01*
X147546613Y-78243079D01*
X147568557Y-78235227D01*
X147591166Y-78229563D01*
X147614221Y-78226144D01*
X147637500Y-78225000D01*
X148212500Y-78225000D01*
X148235779Y-78226144D01*
X148235779Y-78226144D01*
G37*
D12*
X147925000Y-78700000D03*
D11*
G36*
X149985779Y-78226144D02*
X150008834Y-78229563D01*
X150031443Y-78235227D01*
X150053387Y-78243079D01*
X150074457Y-78253044D01*
X150094448Y-78265026D01*
X150113168Y-78278910D01*
X150130438Y-78294562D01*
X150146090Y-78311832D01*
X150159974Y-78330552D01*
X150171956Y-78350543D01*
X150181921Y-78371613D01*
X150189773Y-78393557D01*
X150195437Y-78416166D01*
X150198856Y-78439221D01*
X150200000Y-78462500D01*
X150200000Y-78937500D01*
X150198856Y-78960779D01*
X150195437Y-78983834D01*
X150189773Y-79006443D01*
X150181921Y-79028387D01*
X150171956Y-79049457D01*
X150159974Y-79069448D01*
X150146090Y-79088168D01*
X150130438Y-79105438D01*
X150113168Y-79121090D01*
X150094448Y-79134974D01*
X150074457Y-79146956D01*
X150053387Y-79156921D01*
X150031443Y-79164773D01*
X150008834Y-79170437D01*
X149985779Y-79173856D01*
X149962500Y-79175000D01*
X149387500Y-79175000D01*
X149364221Y-79173856D01*
X149341166Y-79170437D01*
X149318557Y-79164773D01*
X149296613Y-79156921D01*
X149275543Y-79146956D01*
X149255552Y-79134974D01*
X149236832Y-79121090D01*
X149219562Y-79105438D01*
X149203910Y-79088168D01*
X149190026Y-79069448D01*
X149178044Y-79049457D01*
X149168079Y-79028387D01*
X149160227Y-79006443D01*
X149154563Y-78983834D01*
X149151144Y-78960779D01*
X149150000Y-78937500D01*
X149150000Y-78462500D01*
X149151144Y-78439221D01*
X149154563Y-78416166D01*
X149160227Y-78393557D01*
X149168079Y-78371613D01*
X149178044Y-78350543D01*
X149190026Y-78330552D01*
X149203910Y-78311832D01*
X149219562Y-78294562D01*
X149236832Y-78278910D01*
X149255552Y-78265026D01*
X149275543Y-78253044D01*
X149296613Y-78243079D01*
X149318557Y-78235227D01*
X149341166Y-78229563D01*
X149364221Y-78226144D01*
X149387500Y-78225000D01*
X149962500Y-78225000D01*
X149985779Y-78226144D01*
X149985779Y-78226144D01*
G37*
D12*
X149675000Y-78700000D03*
G04 #@! TD*
D11*
G04 #@! TO.C,R35*
G36*
X141260160Y-79211393D02*
X141283215Y-79214812D01*
X141305824Y-79220476D01*
X141327768Y-79228328D01*
X141348838Y-79238293D01*
X141368829Y-79250275D01*
X141387549Y-79264159D01*
X141404819Y-79279811D01*
X141420471Y-79297081D01*
X141434355Y-79315801D01*
X141446337Y-79335792D01*
X141456302Y-79356862D01*
X141464154Y-79378806D01*
X141469818Y-79401415D01*
X141473237Y-79424470D01*
X141474381Y-79447749D01*
X141474381Y-79922749D01*
X141473237Y-79946028D01*
X141469818Y-79969083D01*
X141464154Y-79991692D01*
X141456302Y-80013636D01*
X141446337Y-80034706D01*
X141434355Y-80054697D01*
X141420471Y-80073417D01*
X141404819Y-80090687D01*
X141387549Y-80106339D01*
X141368829Y-80120223D01*
X141348838Y-80132205D01*
X141327768Y-80142170D01*
X141305824Y-80150022D01*
X141283215Y-80155686D01*
X141260160Y-80159105D01*
X141236881Y-80160249D01*
X140661881Y-80160249D01*
X140638602Y-80159105D01*
X140615547Y-80155686D01*
X140592938Y-80150022D01*
X140570994Y-80142170D01*
X140549924Y-80132205D01*
X140529933Y-80120223D01*
X140511213Y-80106339D01*
X140493943Y-80090687D01*
X140478291Y-80073417D01*
X140464407Y-80054697D01*
X140452425Y-80034706D01*
X140442460Y-80013636D01*
X140434608Y-79991692D01*
X140428944Y-79969083D01*
X140425525Y-79946028D01*
X140424381Y-79922749D01*
X140424381Y-79447749D01*
X140425525Y-79424470D01*
X140428944Y-79401415D01*
X140434608Y-79378806D01*
X140442460Y-79356862D01*
X140452425Y-79335792D01*
X140464407Y-79315801D01*
X140478291Y-79297081D01*
X140493943Y-79279811D01*
X140511213Y-79264159D01*
X140529933Y-79250275D01*
X140549924Y-79238293D01*
X140570994Y-79228328D01*
X140592938Y-79220476D01*
X140615547Y-79214812D01*
X140638602Y-79211393D01*
X140661881Y-79210249D01*
X141236881Y-79210249D01*
X141260160Y-79211393D01*
X141260160Y-79211393D01*
G37*
D12*
X140949381Y-79685249D03*
D11*
G36*
X143010160Y-79211393D02*
X143033215Y-79214812D01*
X143055824Y-79220476D01*
X143077768Y-79228328D01*
X143098838Y-79238293D01*
X143118829Y-79250275D01*
X143137549Y-79264159D01*
X143154819Y-79279811D01*
X143170471Y-79297081D01*
X143184355Y-79315801D01*
X143196337Y-79335792D01*
X143206302Y-79356862D01*
X143214154Y-79378806D01*
X143219818Y-79401415D01*
X143223237Y-79424470D01*
X143224381Y-79447749D01*
X143224381Y-79922749D01*
X143223237Y-79946028D01*
X143219818Y-79969083D01*
X143214154Y-79991692D01*
X143206302Y-80013636D01*
X143196337Y-80034706D01*
X143184355Y-80054697D01*
X143170471Y-80073417D01*
X143154819Y-80090687D01*
X143137549Y-80106339D01*
X143118829Y-80120223D01*
X143098838Y-80132205D01*
X143077768Y-80142170D01*
X143055824Y-80150022D01*
X143033215Y-80155686D01*
X143010160Y-80159105D01*
X142986881Y-80160249D01*
X142411881Y-80160249D01*
X142388602Y-80159105D01*
X142365547Y-80155686D01*
X142342938Y-80150022D01*
X142320994Y-80142170D01*
X142299924Y-80132205D01*
X142279933Y-80120223D01*
X142261213Y-80106339D01*
X142243943Y-80090687D01*
X142228291Y-80073417D01*
X142214407Y-80054697D01*
X142202425Y-80034706D01*
X142192460Y-80013636D01*
X142184608Y-79991692D01*
X142178944Y-79969083D01*
X142175525Y-79946028D01*
X142174381Y-79922749D01*
X142174381Y-79447749D01*
X142175525Y-79424470D01*
X142178944Y-79401415D01*
X142184608Y-79378806D01*
X142192460Y-79356862D01*
X142202425Y-79335792D01*
X142214407Y-79315801D01*
X142228291Y-79297081D01*
X142243943Y-79279811D01*
X142261213Y-79264159D01*
X142279933Y-79250275D01*
X142299924Y-79238293D01*
X142320994Y-79228328D01*
X142342938Y-79220476D01*
X142365547Y-79214812D01*
X142388602Y-79211393D01*
X142411881Y-79210249D01*
X142986881Y-79210249D01*
X143010160Y-79211393D01*
X143010160Y-79211393D01*
G37*
D12*
X142699381Y-79685249D03*
G04 #@! TD*
D13*
G04 #@! TO.C,C6*
X160250000Y-75000000D03*
X162150000Y-75000000D03*
G04 #@! TD*
D14*
G04 #@! TO.C,U13*
X145100000Y-76505000D03*
X145100000Y-75235000D03*
X145100000Y-73965000D03*
X145100000Y-72695000D03*
X152500000Y-72695000D03*
X152500000Y-73965000D03*
X152500000Y-75235000D03*
X152500000Y-76505000D03*
G04 #@! TD*
M02*
