G04 #@! TF.GenerationSoftware,KiCad,Pcbnew,(5.0.1)*
G04 #@! TF.CreationDate,2018-11-27T11:01:09+09:00*
G04 #@! TF.ProjectId,corner,636F726E65722E6B696361645F706362,rev?*
G04 #@! TF.SameCoordinates,Original*
G04 #@! TF.FileFunction,Copper,L1,Top,Signal*
G04 #@! TF.FilePolarity,Positive*
%FSLAX46Y46*%
G04 Gerber Fmt 4.6, Leading zero omitted, Abs format (unit mm)*
G04 Created by KiCad (PCBNEW (5.0.1)) date Tue Nov 27 11:01:09 2018*
%MOMM*%
%LPD*%
G01*
G04 APERTURE LIST*
G04 #@! TA.AperFunction,SMDPad,CuDef*
%ADD10O,5.000000X2.800000*%
G04 #@! TD*
G04 #@! TA.AperFunction,ComponentPad*
%ADD11R,3.600000X1.800000*%
G04 #@! TD*
G04 #@! TA.AperFunction,ComponentPad*
%ADD12O,3.600000X1.800000*%
G04 #@! TD*
G04 #@! TA.AperFunction,SMDPad,CuDef*
%ADD13C,2.800000*%
G04 #@! TD*
G04 #@! TA.AperFunction,Conductor*
%ADD14C,2.800000*%
G04 #@! TD*
G04 #@! TA.AperFunction,SMDPad,CuDef*
%ADD15O,2.800000X5.000000*%
G04 #@! TD*
G04 #@! TA.AperFunction,Conductor*
%ADD16C,0.254000*%
G04 #@! TD*
G04 APERTURE END LIST*
D10*
G04 #@! TO.P,J3,2*
G04 #@! TO.N,/B*
X174700000Y-42150000D03*
G04 #@! TO.P,J3,1*
G04 #@! TO.N,/C*
X174700000Y-46650000D03*
G04 #@! TD*
D11*
G04 #@! TO.P,J4,1*
G04 #@! TO.N,/C*
X153000000Y-46000000D03*
D12*
G04 #@! TO.P,J4,2*
G04 #@! TO.N,/A*
X153000000Y-51080000D03*
G04 #@! TD*
D13*
G04 #@! TO.P,J2,1*
G04 #@! TO.N,/A*
X163253070Y-59829084D03*
D14*
G04 #@! TD*
G04 #@! TO.N,/A*
G04 #@! TO.C,J2*
X162591073Y-58950585D02*
X163915067Y-60707583D01*
D13*
G04 #@! TO.P,J2,2*
G04 #@! TO.N,/B*
X166846930Y-57120916D03*
D14*
G04 #@! TD*
G04 #@! TO.N,/B*
G04 #@! TO.C,J2*
X166184933Y-56242417D02*
X167508927Y-57999415D01*
D15*
G04 #@! TO.P,J1,2*
G04 #@! TO.N,/A*
X156550000Y-64600000D03*
G04 #@! TO.P,J1,1*
G04 #@! TO.N,/D*
X152050000Y-64600000D03*
G04 #@! TD*
D16*
G04 #@! TO.N,/D*
G36*
X148290001Y-59930069D02*
X148276091Y-60000000D01*
X148331195Y-60277028D01*
X148488119Y-60511881D01*
X148722972Y-60668805D01*
X148930074Y-60710000D01*
X148930075Y-60710000D01*
X149000000Y-60723909D01*
X149069926Y-60710000D01*
X151930074Y-60710000D01*
X152000000Y-60723909D01*
X152069925Y-60710000D01*
X152069926Y-60710000D01*
X152277028Y-60668805D01*
X152511881Y-60511881D01*
X152668805Y-60277028D01*
X152723909Y-60000000D01*
X152710000Y-59930074D01*
X152710000Y-55127000D01*
X153873000Y-55127000D01*
X153873000Y-75873000D01*
X150026416Y-75873000D01*
X149986304Y-75671343D01*
X149823855Y-75428221D01*
X149580733Y-75265772D01*
X149366338Y-75223126D01*
X149293950Y-75208727D01*
X149221562Y-75223126D01*
X145723270Y-75223126D01*
X145723270Y-55127000D01*
X148290000Y-55127000D01*
X148290001Y-59930069D01*
X148290001Y-59930069D01*
G37*
X148290001Y-59930069D02*
X148276091Y-60000000D01*
X148331195Y-60277028D01*
X148488119Y-60511881D01*
X148722972Y-60668805D01*
X148930074Y-60710000D01*
X148930075Y-60710000D01*
X149000000Y-60723909D01*
X149069926Y-60710000D01*
X151930074Y-60710000D01*
X152000000Y-60723909D01*
X152069925Y-60710000D01*
X152069926Y-60710000D01*
X152277028Y-60668805D01*
X152511881Y-60511881D01*
X152668805Y-60277028D01*
X152723909Y-60000000D01*
X152710000Y-59930074D01*
X152710000Y-55127000D01*
X153873000Y-55127000D01*
X153873000Y-75873000D01*
X150026416Y-75873000D01*
X149986304Y-75671343D01*
X149823855Y-75428221D01*
X149580733Y-75265772D01*
X149366338Y-75223126D01*
X149293950Y-75208727D01*
X149221562Y-75223126D01*
X145723270Y-75223126D01*
X145723270Y-55127000D01*
X148290000Y-55127000D01*
X148290001Y-59930069D01*
G04 #@! TO.N,/C*
G36*
X168373000Y-35721979D02*
X168373000Y-38290000D01*
X165069925Y-38290000D01*
X165000000Y-38276091D01*
X164930074Y-38290000D01*
X164722972Y-38331195D01*
X164488119Y-38488119D01*
X164331195Y-38722972D01*
X164276091Y-39000000D01*
X164290000Y-39069926D01*
X164290001Y-41930070D01*
X164276091Y-42000000D01*
X164331195Y-42277028D01*
X164488119Y-42511881D01*
X164722972Y-42668805D01*
X164930074Y-42710000D01*
X164930075Y-42710000D01*
X165000000Y-42723909D01*
X165069926Y-42710000D01*
X169530394Y-42710000D01*
X171410197Y-44589803D01*
X171451399Y-44617333D01*
X171500000Y-44627000D01*
X177873000Y-44627000D01*
X177873000Y-47447394D01*
X174947394Y-50373000D01*
X163052606Y-50373000D01*
X161089803Y-48410197D01*
X161048601Y-48382667D01*
X161000000Y-48373000D01*
X145723270Y-48373000D01*
X145723270Y-39000000D01*
X148276091Y-39000000D01*
X148290001Y-39069931D01*
X148290000Y-43930074D01*
X148276091Y-44000000D01*
X148331195Y-44277028D01*
X148488119Y-44511881D01*
X148722972Y-44668805D01*
X149000000Y-44723909D01*
X149069925Y-44710000D01*
X153930075Y-44710000D01*
X154000000Y-44723909D01*
X154277028Y-44668805D01*
X154511881Y-44511881D01*
X154668805Y-44277028D01*
X154710000Y-44069926D01*
X154710000Y-44069925D01*
X154723909Y-44000000D01*
X154710000Y-43930074D01*
X154710000Y-39069926D01*
X154723909Y-39000000D01*
X154668805Y-38722972D01*
X154511881Y-38488119D01*
X154277028Y-38331195D01*
X154069926Y-38290000D01*
X154069925Y-38290000D01*
X154000000Y-38276091D01*
X153930074Y-38290000D01*
X149069926Y-38290000D01*
X149000000Y-38276091D01*
X148930075Y-38290000D01*
X148930074Y-38290000D01*
X148722972Y-38331195D01*
X148488119Y-38488119D01*
X148331195Y-38722972D01*
X148276091Y-39000000D01*
X145723270Y-39000000D01*
X145723270Y-35721973D01*
X168373000Y-35721979D01*
X168373000Y-35721979D01*
G37*
X168373000Y-35721979D02*
X168373000Y-38290000D01*
X165069925Y-38290000D01*
X165000000Y-38276091D01*
X164930074Y-38290000D01*
X164722972Y-38331195D01*
X164488119Y-38488119D01*
X164331195Y-38722972D01*
X164276091Y-39000000D01*
X164290000Y-39069926D01*
X164290001Y-41930070D01*
X164276091Y-42000000D01*
X164331195Y-42277028D01*
X164488119Y-42511881D01*
X164722972Y-42668805D01*
X164930074Y-42710000D01*
X164930075Y-42710000D01*
X165000000Y-42723909D01*
X165069926Y-42710000D01*
X169530394Y-42710000D01*
X171410197Y-44589803D01*
X171451399Y-44617333D01*
X171500000Y-44627000D01*
X177873000Y-44627000D01*
X177873000Y-47447394D01*
X174947394Y-50373000D01*
X163052606Y-50373000D01*
X161089803Y-48410197D01*
X161048601Y-48382667D01*
X161000000Y-48373000D01*
X145723270Y-48373000D01*
X145723270Y-39000000D01*
X148276091Y-39000000D01*
X148290001Y-39069931D01*
X148290000Y-43930074D01*
X148276091Y-44000000D01*
X148331195Y-44277028D01*
X148488119Y-44511881D01*
X148722972Y-44668805D01*
X149000000Y-44723909D01*
X149069925Y-44710000D01*
X153930075Y-44710000D01*
X154000000Y-44723909D01*
X154277028Y-44668805D01*
X154511881Y-44511881D01*
X154668805Y-44277028D01*
X154710000Y-44069926D01*
X154710000Y-44069925D01*
X154723909Y-44000000D01*
X154710000Y-43930074D01*
X154710000Y-39069926D01*
X154723909Y-39000000D01*
X154668805Y-38722972D01*
X154511881Y-38488119D01*
X154277028Y-38331195D01*
X154069926Y-38290000D01*
X154069925Y-38290000D01*
X154000000Y-38276091D01*
X153930074Y-38290000D01*
X149069926Y-38290000D01*
X149000000Y-38276091D01*
X148930075Y-38290000D01*
X148930074Y-38290000D01*
X148722972Y-38331195D01*
X148488119Y-38488119D01*
X148331195Y-38722972D01*
X148276091Y-39000000D01*
X145723270Y-39000000D01*
X145723270Y-35721973D01*
X168373000Y-35721979D01*
G04 #@! TO.N,/A*
G36*
X162550987Y-50949013D02*
X162756996Y-51086664D01*
X162865000Y-51108147D01*
X162865000Y-56500000D01*
X162890089Y-56676732D01*
X163004148Y-56896681D01*
X170968399Y-66851995D01*
X168098716Y-69721678D01*
X168077724Y-69707653D01*
X168006990Y-69644529D01*
X167957245Y-69627161D01*
X167913431Y-69597888D01*
X167820438Y-69579395D01*
X167730932Y-69548144D01*
X167678329Y-69551134D01*
X167626646Y-69540856D01*
X167533654Y-69559358D01*
X167439004Y-69564738D01*
X167391548Y-69587631D01*
X167339867Y-69597914D01*
X167261034Y-69650593D01*
X167175646Y-69691786D01*
X167092208Y-69785282D01*
X161654864Y-75223126D01*
X159366769Y-75223126D01*
X159294381Y-75208727D01*
X159221993Y-75223126D01*
X159007598Y-75265772D01*
X158764476Y-75428221D01*
X158602027Y-75671343D01*
X158561915Y-75873000D01*
X154635000Y-75873000D01*
X154635000Y-55000000D01*
X154586664Y-54756996D01*
X154449013Y-54550987D01*
X154243004Y-54413336D01*
X154000000Y-54365000D01*
X152327621Y-54365000D01*
X152277028Y-54331195D01*
X152069926Y-54290000D01*
X152000000Y-54276091D01*
X151930075Y-54290000D01*
X149069925Y-54290000D01*
X149000000Y-54276091D01*
X148930074Y-54290000D01*
X148722972Y-54331195D01*
X148672379Y-54365000D01*
X145723270Y-54365000D01*
X145723270Y-49135000D01*
X160736974Y-49135000D01*
X162550987Y-50949013D01*
X162550987Y-50949013D01*
G37*
X162550987Y-50949013D02*
X162756996Y-51086664D01*
X162865000Y-51108147D01*
X162865000Y-56500000D01*
X162890089Y-56676732D01*
X163004148Y-56896681D01*
X170968399Y-66851995D01*
X168098716Y-69721678D01*
X168077724Y-69707653D01*
X168006990Y-69644529D01*
X167957245Y-69627161D01*
X167913431Y-69597888D01*
X167820438Y-69579395D01*
X167730932Y-69548144D01*
X167678329Y-69551134D01*
X167626646Y-69540856D01*
X167533654Y-69559358D01*
X167439004Y-69564738D01*
X167391548Y-69587631D01*
X167339867Y-69597914D01*
X167261034Y-69650593D01*
X167175646Y-69691786D01*
X167092208Y-69785282D01*
X161654864Y-75223126D01*
X159366769Y-75223126D01*
X159294381Y-75208727D01*
X159221993Y-75223126D01*
X159007598Y-75265772D01*
X158764476Y-75428221D01*
X158602027Y-75671343D01*
X158561915Y-75873000D01*
X154635000Y-75873000D01*
X154635000Y-55000000D01*
X154586664Y-54756996D01*
X154449013Y-54550987D01*
X154243004Y-54413336D01*
X154000000Y-54365000D01*
X152327621Y-54365000D01*
X152277028Y-54331195D01*
X152069926Y-54290000D01*
X152000000Y-54276091D01*
X151930075Y-54290000D01*
X149069925Y-54290000D01*
X149000000Y-54276091D01*
X148930074Y-54290000D01*
X148722972Y-54331195D01*
X148672379Y-54365000D01*
X145723270Y-54365000D01*
X145723270Y-49135000D01*
X160736974Y-49135000D01*
X162550987Y-50949013D01*
G04 #@! TO.N,/B*
G36*
X185224413Y-35721984D02*
X185224412Y-39383066D01*
X185210013Y-39455454D01*
X185267058Y-39742237D01*
X185429500Y-39985349D01*
X185429507Y-39985359D01*
X185672629Y-40147808D01*
X185873000Y-40187664D01*
X185873000Y-48723145D01*
X185672629Y-48763001D01*
X185429507Y-48925450D01*
X185267058Y-49168572D01*
X185210013Y-49455355D01*
X185224413Y-49527748D01*
X185224412Y-51653088D01*
X174335731Y-62541759D01*
X174316312Y-62551126D01*
X174232855Y-62644635D01*
X174196412Y-62681078D01*
X174184743Y-62698542D01*
X174121611Y-62769278D01*
X174104240Y-62819022D01*
X174074967Y-62862833D01*
X174056471Y-62955821D01*
X174025214Y-63045331D01*
X174028202Y-63097938D01*
X174017923Y-63149615D01*
X174036419Y-63242603D01*
X174041796Y-63337260D01*
X174064688Y-63384718D01*
X174074967Y-63436396D01*
X174127639Y-63515226D01*
X174136766Y-63534147D01*
X174167790Y-63575315D01*
X174198747Y-63621647D01*
X171510530Y-66309864D01*
X163627000Y-56455452D01*
X163627000Y-51135000D01*
X175000000Y-51135000D01*
X175243004Y-51086664D01*
X175449013Y-50949013D01*
X178449013Y-47949013D01*
X178586664Y-47743004D01*
X178635000Y-47500000D01*
X178635000Y-44500000D01*
X178586664Y-44256996D01*
X178449013Y-44050987D01*
X178243004Y-43913336D01*
X178000000Y-43865000D01*
X171763026Y-43865000D01*
X170450752Y-42552726D01*
X170511881Y-42511881D01*
X170668805Y-42277028D01*
X170723909Y-42000000D01*
X170710000Y-41930074D01*
X170710000Y-39069926D01*
X170723909Y-39000000D01*
X170668805Y-38722972D01*
X170511881Y-38488119D01*
X170277028Y-38331195D01*
X170069926Y-38290000D01*
X170000000Y-38276091D01*
X169930075Y-38290000D01*
X169135000Y-38290000D01*
X169135000Y-35721979D01*
X185224413Y-35721984D01*
X185224413Y-35721984D01*
G37*
X185224413Y-35721984D02*
X185224412Y-39383066D01*
X185210013Y-39455454D01*
X185267058Y-39742237D01*
X185429500Y-39985349D01*
X185429507Y-39985359D01*
X185672629Y-40147808D01*
X185873000Y-40187664D01*
X185873000Y-48723145D01*
X185672629Y-48763001D01*
X185429507Y-48925450D01*
X185267058Y-49168572D01*
X185210013Y-49455355D01*
X185224413Y-49527748D01*
X185224412Y-51653088D01*
X174335731Y-62541759D01*
X174316312Y-62551126D01*
X174232855Y-62644635D01*
X174196412Y-62681078D01*
X174184743Y-62698542D01*
X174121611Y-62769278D01*
X174104240Y-62819022D01*
X174074967Y-62862833D01*
X174056471Y-62955821D01*
X174025214Y-63045331D01*
X174028202Y-63097938D01*
X174017923Y-63149615D01*
X174036419Y-63242603D01*
X174041796Y-63337260D01*
X174064688Y-63384718D01*
X174074967Y-63436396D01*
X174127639Y-63515226D01*
X174136766Y-63534147D01*
X174167790Y-63575315D01*
X174198747Y-63621647D01*
X171510530Y-66309864D01*
X163627000Y-56455452D01*
X163627000Y-51135000D01*
X175000000Y-51135000D01*
X175243004Y-51086664D01*
X175449013Y-50949013D01*
X178449013Y-47949013D01*
X178586664Y-47743004D01*
X178635000Y-47500000D01*
X178635000Y-44500000D01*
X178586664Y-44256996D01*
X178449013Y-44050987D01*
X178243004Y-43913336D01*
X178000000Y-43865000D01*
X171763026Y-43865000D01*
X170450752Y-42552726D01*
X170511881Y-42511881D01*
X170668805Y-42277028D01*
X170723909Y-42000000D01*
X170710000Y-41930074D01*
X170710000Y-39069926D01*
X170723909Y-39000000D01*
X170668805Y-38722972D01*
X170511881Y-38488119D01*
X170277028Y-38331195D01*
X170069926Y-38290000D01*
X170000000Y-38276091D01*
X169930075Y-38290000D01*
X169135000Y-38290000D01*
X169135000Y-35721979D01*
X185224413Y-35721984D01*
G04 #@! TD*
M02*
