G04 #@! TF.GenerationSoftware,KiCad,Pcbnew,(5.0.1)*
G04 #@! TF.CreationDate,2018-11-27T11:01:09+09:00*
G04 #@! TF.ProjectId,corner,636F726E65722E6B696361645F706362,rev?*
G04 #@! TF.SameCoordinates,Original*
G04 #@! TF.FileFunction,Soldermask,Top*
G04 #@! TF.FilePolarity,Negative*
%FSLAX46Y46*%
G04 Gerber Fmt 4.6, Leading zero omitted, Abs format (unit mm)*
G04 Created by KiCad (PCBNEW (5.0.1)) date Tue Nov 27 11:01:09 2018*
%MOMM*%
%LPD*%
G01*
G04 APERTURE LIST*
%ADD10C,0.100000*%
G04 APERTURE END LIST*
D10*
G36*
X152334445Y-62069995D02*
X152496523Y-62119161D01*
X152607960Y-62152965D01*
X152860034Y-62287702D01*
X153080976Y-62469024D01*
X153234728Y-62656371D01*
X153262299Y-62689967D01*
X153325016Y-62807303D01*
X153397035Y-62942039D01*
X153424692Y-63033211D01*
X153480005Y-63215554D01*
X153501000Y-63428724D01*
X153501000Y-65771276D01*
X153480005Y-65984446D01*
X153424692Y-66166789D01*
X153397035Y-66257961D01*
X153325016Y-66392697D01*
X153262299Y-66510033D01*
X153080976Y-66730976D01*
X152860033Y-66912299D01*
X152742697Y-66975016D01*
X152607961Y-67047035D01*
X152516789Y-67074692D01*
X152334446Y-67130005D01*
X152050000Y-67158020D01*
X151765555Y-67130005D01*
X151583212Y-67074692D01*
X151492040Y-67047035D01*
X151357304Y-66975016D01*
X151239968Y-66912299D01*
X151019025Y-66730976D01*
X150837702Y-66510033D01*
X150774985Y-66392697D01*
X150702966Y-66257961D01*
X150675309Y-66166789D01*
X150619996Y-65984446D01*
X150599001Y-65771276D01*
X150599000Y-63428725D01*
X150619995Y-63215555D01*
X150702965Y-62942041D01*
X150702965Y-62942040D01*
X150837702Y-62689966D01*
X151019024Y-62469024D01*
X151239966Y-62287702D01*
X151239965Y-62287702D01*
X151239967Y-62287701D01*
X151357303Y-62224984D01*
X151492039Y-62152965D01*
X151603476Y-62119161D01*
X151765554Y-62069995D01*
X152050000Y-62041980D01*
X152334445Y-62069995D01*
X152334445Y-62069995D01*
G37*
G36*
X156834445Y-62069995D02*
X156996523Y-62119161D01*
X157107960Y-62152965D01*
X157360034Y-62287702D01*
X157580976Y-62469024D01*
X157734728Y-62656371D01*
X157762299Y-62689967D01*
X157825016Y-62807303D01*
X157897035Y-62942039D01*
X157924692Y-63033211D01*
X157980005Y-63215554D01*
X158001000Y-63428724D01*
X158001000Y-65771276D01*
X157980005Y-65984446D01*
X157924692Y-66166789D01*
X157897035Y-66257961D01*
X157825016Y-66392697D01*
X157762299Y-66510033D01*
X157580976Y-66730976D01*
X157360033Y-66912299D01*
X157242697Y-66975016D01*
X157107961Y-67047035D01*
X157016789Y-67074692D01*
X156834446Y-67130005D01*
X156550000Y-67158020D01*
X156265555Y-67130005D01*
X156083212Y-67074692D01*
X155992040Y-67047035D01*
X155857304Y-66975016D01*
X155739968Y-66912299D01*
X155519025Y-66730976D01*
X155337702Y-66510033D01*
X155274985Y-66392697D01*
X155202966Y-66257961D01*
X155175309Y-66166789D01*
X155119996Y-65984446D01*
X155099001Y-65771276D01*
X155099000Y-63428725D01*
X155119995Y-63215555D01*
X155202965Y-62942041D01*
X155202965Y-62942040D01*
X155337702Y-62689966D01*
X155519024Y-62469024D01*
X155739966Y-62287702D01*
X155739965Y-62287702D01*
X155739967Y-62287701D01*
X155857303Y-62224984D01*
X155992039Y-62152965D01*
X156103476Y-62119161D01*
X156265554Y-62069995D01*
X156550000Y-62041980D01*
X156834445Y-62069995D01*
X156834445Y-62069995D01*
G37*
G36*
X162766452Y-57505613D02*
X162793992Y-57506755D01*
X163071768Y-57574084D01*
X163331069Y-57694310D01*
X163331073Y-57694313D01*
X163561941Y-57862818D01*
X163561945Y-57862822D01*
X163706995Y-58020424D01*
X165116781Y-59891270D01*
X165201271Y-60029824D01*
X165228303Y-60074152D01*
X165297480Y-60262932D01*
X165326646Y-60342524D01*
X165370741Y-60624919D01*
X165358897Y-60910502D01*
X165291568Y-61188274D01*
X165291567Y-61188277D01*
X165171339Y-61447583D01*
X165002834Y-61678451D01*
X164906779Y-61766854D01*
X164792525Y-61872009D01*
X164548497Y-62020819D01*
X164336699Y-62098430D01*
X164280124Y-62119162D01*
X163997730Y-62163257D01*
X163997725Y-62163257D01*
X163819241Y-62155854D01*
X163712147Y-62151413D01*
X163434375Y-62084084D01*
X163434374Y-62084083D01*
X163434372Y-62084083D01*
X163175065Y-61963855D01*
X162944198Y-61795350D01*
X162836610Y-61678452D01*
X162799139Y-61637738D01*
X161389356Y-59766892D01*
X161277839Y-59584018D01*
X161277837Y-59584015D01*
X161179495Y-59315644D01*
X161179494Y-59315642D01*
X161150970Y-59132966D01*
X161135398Y-59033244D01*
X161147243Y-58747669D01*
X161147243Y-58747666D01*
X161214572Y-58469890D01*
X161334798Y-58210589D01*
X161473595Y-58020424D01*
X161503306Y-57979717D01*
X161713615Y-57786159D01*
X161957643Y-57637349D01*
X162169441Y-57559738D01*
X162226016Y-57539006D01*
X162432558Y-57506755D01*
X162508414Y-57494910D01*
X162766452Y-57505613D01*
X162766452Y-57505613D01*
G37*
G36*
X166360312Y-54797445D02*
X166387852Y-54798587D01*
X166665628Y-54865916D01*
X166924929Y-54986142D01*
X166924933Y-54986145D01*
X167155801Y-55154650D01*
X167155805Y-55154654D01*
X167300855Y-55312256D01*
X168710641Y-57183102D01*
X168795131Y-57321656D01*
X168822163Y-57365984D01*
X168885566Y-57539007D01*
X168920506Y-57634356D01*
X168964601Y-57916751D01*
X168952757Y-58202334D01*
X168887904Y-58469890D01*
X168885427Y-58480109D01*
X168765199Y-58739415D01*
X168596694Y-58970283D01*
X168528284Y-59033244D01*
X168386385Y-59163841D01*
X168142357Y-59312651D01*
X167930559Y-59390262D01*
X167873984Y-59410994D01*
X167591590Y-59455089D01*
X167591585Y-59455089D01*
X167413101Y-59447686D01*
X167306007Y-59443245D01*
X167028235Y-59375916D01*
X167028234Y-59375915D01*
X167028232Y-59375915D01*
X166768925Y-59255687D01*
X166538058Y-59087182D01*
X166538056Y-59087180D01*
X166392999Y-58929570D01*
X164983216Y-57058724D01*
X164871699Y-56875850D01*
X164871697Y-56875847D01*
X164773355Y-56607476D01*
X164773354Y-56607474D01*
X164729259Y-56325080D01*
X164729258Y-56325076D01*
X164741103Y-56039501D01*
X164741103Y-56039498D01*
X164808432Y-55761722D01*
X164928658Y-55502421D01*
X165067455Y-55312256D01*
X165097166Y-55271549D01*
X165307475Y-55077991D01*
X165551503Y-54929181D01*
X165763301Y-54851570D01*
X165819876Y-54830838D01*
X166026418Y-54798587D01*
X166102274Y-54786742D01*
X166360312Y-54797445D01*
X166360312Y-54797445D01*
G37*
G36*
X154086425Y-50142760D02*
X154086428Y-50142761D01*
X154086429Y-50142761D01*
X154265693Y-50197140D01*
X154265695Y-50197141D01*
X154430905Y-50285448D01*
X154575712Y-50404288D01*
X154694552Y-50549095D01*
X154782859Y-50714305D01*
X154837240Y-50893575D01*
X154855601Y-51080000D01*
X154837240Y-51266425D01*
X154782859Y-51445695D01*
X154694552Y-51610905D01*
X154575712Y-51755712D01*
X154430905Y-51874552D01*
X154430903Y-51874553D01*
X154265693Y-51962860D01*
X154086429Y-52017239D01*
X154086428Y-52017239D01*
X154086425Y-52017240D01*
X153946718Y-52031000D01*
X152053282Y-52031000D01*
X151913575Y-52017240D01*
X151913572Y-52017239D01*
X151913571Y-52017239D01*
X151734307Y-51962860D01*
X151569097Y-51874553D01*
X151569095Y-51874552D01*
X151424288Y-51755712D01*
X151305448Y-51610905D01*
X151217141Y-51445695D01*
X151162760Y-51266425D01*
X151144399Y-51080000D01*
X151162760Y-50893575D01*
X151217141Y-50714305D01*
X151305448Y-50549095D01*
X151424288Y-50404288D01*
X151569095Y-50285448D01*
X151734305Y-50197141D01*
X151734307Y-50197140D01*
X151913571Y-50142761D01*
X151913572Y-50142761D01*
X151913575Y-50142760D01*
X152053282Y-50129000D01*
X153946718Y-50129000D01*
X154086425Y-50142760D01*
X154086425Y-50142760D01*
G37*
G36*
X175977861Y-45209497D02*
X176084446Y-45219995D01*
X176266789Y-45275308D01*
X176357961Y-45302965D01*
X176492697Y-45374984D01*
X176610033Y-45437701D01*
X176610035Y-45437702D01*
X176610034Y-45437702D01*
X176830976Y-45619024D01*
X177012298Y-45839966D01*
X177147035Y-46092039D01*
X177147035Y-46092040D01*
X177230005Y-46365554D01*
X177258020Y-46650000D01*
X177230005Y-46934446D01*
X177224983Y-46951000D01*
X177147035Y-47207961D01*
X177075016Y-47342697D01*
X177012299Y-47460033D01*
X176830976Y-47680976D01*
X176610033Y-47862299D01*
X176492697Y-47925016D01*
X176357961Y-47997035D01*
X176266789Y-48024692D01*
X176084446Y-48080005D01*
X175977861Y-48090503D01*
X175871278Y-48101000D01*
X173528722Y-48101000D01*
X173422139Y-48090503D01*
X173315554Y-48080005D01*
X173133211Y-48024692D01*
X173042039Y-47997035D01*
X172907303Y-47925016D01*
X172789967Y-47862299D01*
X172569024Y-47680976D01*
X172387701Y-47460033D01*
X172324984Y-47342697D01*
X172252965Y-47207961D01*
X172175017Y-46951000D01*
X172169995Y-46934446D01*
X172141980Y-46650000D01*
X172169995Y-46365554D01*
X172252965Y-46092040D01*
X172252965Y-46092039D01*
X172387702Y-45839966D01*
X172569024Y-45619024D01*
X172789966Y-45437702D01*
X172789965Y-45437702D01*
X172789967Y-45437701D01*
X172907303Y-45374984D01*
X173042039Y-45302965D01*
X173133211Y-45275308D01*
X173315554Y-45219995D01*
X173422139Y-45209497D01*
X173528722Y-45199000D01*
X175871278Y-45199000D01*
X175977861Y-45209497D01*
X175977861Y-45209497D01*
G37*
G36*
X154851000Y-46951000D02*
X151149000Y-46951000D01*
X151149000Y-45049000D01*
X154851000Y-45049000D01*
X154851000Y-46951000D01*
X154851000Y-46951000D01*
G37*
G36*
X175977861Y-40709497D02*
X176084446Y-40719995D01*
X176266789Y-40775308D01*
X176357961Y-40802965D01*
X176492697Y-40874984D01*
X176610033Y-40937701D01*
X176610035Y-40937702D01*
X176610034Y-40937702D01*
X176830976Y-41119024D01*
X177012298Y-41339966D01*
X177147035Y-41592039D01*
X177147035Y-41592040D01*
X177230005Y-41865554D01*
X177258020Y-42150000D01*
X177230005Y-42434446D01*
X177174692Y-42616789D01*
X177147035Y-42707961D01*
X177075016Y-42842697D01*
X177012299Y-42960033D01*
X176830976Y-43180976D01*
X176610033Y-43362299D01*
X176492697Y-43425016D01*
X176357961Y-43497035D01*
X176266789Y-43524692D01*
X176084446Y-43580005D01*
X175977861Y-43590502D01*
X175871278Y-43601000D01*
X173528722Y-43601000D01*
X173422139Y-43590503D01*
X173315554Y-43580005D01*
X173133211Y-43524692D01*
X173042039Y-43497035D01*
X172907303Y-43425016D01*
X172789967Y-43362299D01*
X172569024Y-43180976D01*
X172387701Y-42960033D01*
X172324984Y-42842697D01*
X172252965Y-42707961D01*
X172225308Y-42616789D01*
X172169995Y-42434446D01*
X172141980Y-42150000D01*
X172169995Y-41865554D01*
X172252965Y-41592040D01*
X172252965Y-41592039D01*
X172387702Y-41339966D01*
X172569024Y-41119024D01*
X172789966Y-40937702D01*
X172789965Y-40937702D01*
X172789967Y-40937701D01*
X172907303Y-40874984D01*
X173042039Y-40802965D01*
X173133211Y-40775308D01*
X173315554Y-40719995D01*
X173422139Y-40709497D01*
X173528722Y-40699000D01*
X175871278Y-40699000D01*
X175977861Y-40709497D01*
X175977861Y-40709497D01*
G37*
M02*
