G04 #@! TF.GenerationSoftware,KiCad,Pcbnew,(5.0.1)*
G04 #@! TF.CreationDate,2018-11-27T11:01:09+09:00*
G04 #@! TF.ProjectId,corner,636F726E65722E6B696361645F706362,rev?*
G04 #@! TF.SameCoordinates,Original*
G04 #@! TF.FileFunction,Legend,Bot*
G04 #@! TF.FilePolarity,Positive*
%FSLAX46Y46*%
G04 Gerber Fmt 4.6, Leading zero omitted, Abs format (unit mm)*
G04 Created by KiCad (PCBNEW (5.0.1)) date Tue Nov 27 11:01:09 2018*
%MOMM*%
%LPD*%
G01*
G04 APERTURE LIST*
%ADD10C,0.300000*%
%ADD11C,0.600000*%
%ADD12C,0.750000*%
%ADD13C,0.500000*%
G04 APERTURE END LIST*
D10*
X146478571Y-49362857D02*
X147692857Y-49362857D01*
X147835714Y-49291428D01*
X147907142Y-49220000D01*
X147978571Y-49077142D01*
X147978571Y-48862857D01*
X147907142Y-48720000D01*
X147407142Y-49362857D02*
X147478571Y-49220000D01*
X147478571Y-48934285D01*
X147407142Y-48791428D01*
X147335714Y-48720000D01*
X147192857Y-48648571D01*
X146764285Y-48648571D01*
X146621428Y-48720000D01*
X146550000Y-48791428D01*
X146478571Y-48934285D01*
X146478571Y-49220000D01*
X146550000Y-49362857D01*
X147478571Y-50077142D02*
X146478571Y-50077142D01*
X145978571Y-50077142D02*
X146050000Y-50005714D01*
X146121428Y-50077142D01*
X146050000Y-50148571D01*
X145978571Y-50077142D01*
X146121428Y-50077142D01*
X146478571Y-50577142D02*
X146478571Y-51148571D01*
X145978571Y-50791428D02*
X147264285Y-50791428D01*
X147407142Y-50862857D01*
X147478571Y-51005714D01*
X147478571Y-51148571D01*
X147478571Y-51648571D02*
X145978571Y-51648571D01*
X147478571Y-52291428D02*
X146692857Y-52291428D01*
X146550000Y-52220000D01*
X146478571Y-52077142D01*
X146478571Y-51862857D01*
X146550000Y-51720000D01*
X146621428Y-51648571D01*
X146478571Y-53648571D02*
X147478571Y-53648571D01*
X146478571Y-53005714D02*
X147264285Y-53005714D01*
X147407142Y-53077142D01*
X147478571Y-53220000D01*
X147478571Y-53434285D01*
X147407142Y-53577142D01*
X147335714Y-53648571D01*
X147478571Y-54362857D02*
X145978571Y-54362857D01*
X146550000Y-54362857D02*
X146478571Y-54505714D01*
X146478571Y-54791428D01*
X146550000Y-54934285D01*
X146621428Y-55005714D01*
X146764285Y-55077142D01*
X147192857Y-55077142D01*
X147335714Y-55005714D01*
X147407142Y-54934285D01*
X147478571Y-54791428D01*
X147478571Y-54505714D01*
X147407142Y-54362857D01*
X147335714Y-55720000D02*
X147407142Y-55791428D01*
X147478571Y-55720000D01*
X147407142Y-55648571D01*
X147335714Y-55720000D01*
X147478571Y-55720000D01*
X147407142Y-57077142D02*
X147478571Y-56934285D01*
X147478571Y-56648571D01*
X147407142Y-56505714D01*
X147335714Y-56434285D01*
X147192857Y-56362857D01*
X146764285Y-56362857D01*
X146621428Y-56434285D01*
X146550000Y-56505714D01*
X146478571Y-56648571D01*
X146478571Y-56934285D01*
X146550000Y-57077142D01*
X147478571Y-57934285D02*
X147407142Y-57791428D01*
X147335714Y-57720000D01*
X147192857Y-57648571D01*
X146764285Y-57648571D01*
X146621428Y-57720000D01*
X146550000Y-57791428D01*
X146478571Y-57934285D01*
X146478571Y-58148571D01*
X146550000Y-58291428D01*
X146621428Y-58362857D01*
X146764285Y-58434285D01*
X147192857Y-58434285D01*
X147335714Y-58362857D01*
X147407142Y-58291428D01*
X147478571Y-58148571D01*
X147478571Y-57934285D01*
X147478571Y-59077142D02*
X146478571Y-59077142D01*
X146621428Y-59077142D02*
X146550000Y-59148571D01*
X146478571Y-59291428D01*
X146478571Y-59505714D01*
X146550000Y-59648571D01*
X146692857Y-59720000D01*
X147478571Y-59720000D01*
X146692857Y-59720000D02*
X146550000Y-59791428D01*
X146478571Y-59934285D01*
X146478571Y-60148571D01*
X146550000Y-60291428D01*
X146692857Y-60362857D01*
X147478571Y-60362857D01*
X145907142Y-62148571D02*
X147835714Y-60862857D01*
X146478571Y-62648571D02*
X147764285Y-62648571D01*
X147907142Y-62577142D01*
X147978571Y-62434285D01*
X147978571Y-62362857D01*
X145978571Y-62648571D02*
X146050000Y-62577142D01*
X146121428Y-62648571D01*
X146050000Y-62720000D01*
X145978571Y-62648571D01*
X146121428Y-62648571D01*
X147478571Y-64005714D02*
X146692857Y-64005714D01*
X146550000Y-63934285D01*
X146478571Y-63791428D01*
X146478571Y-63505714D01*
X146550000Y-63362857D01*
X147407142Y-64005714D02*
X147478571Y-63862857D01*
X147478571Y-63505714D01*
X147407142Y-63362857D01*
X147264285Y-63291428D01*
X147121428Y-63291428D01*
X146978571Y-63362857D01*
X146907142Y-63505714D01*
X146907142Y-63862857D01*
X146835714Y-64005714D01*
X147407142Y-64648571D02*
X147478571Y-64791428D01*
X147478571Y-65077142D01*
X147407142Y-65220000D01*
X147264285Y-65291428D01*
X147192857Y-65291428D01*
X147050000Y-65220000D01*
X146978571Y-65077142D01*
X146978571Y-64862857D01*
X146907142Y-64720000D01*
X146764285Y-64648571D01*
X146692857Y-64648571D01*
X146550000Y-64720000D01*
X146478571Y-64862857D01*
X146478571Y-65077142D01*
X146550000Y-65220000D01*
X147407142Y-66505714D02*
X147478571Y-66362857D01*
X147478571Y-66077142D01*
X147407142Y-65934285D01*
X147264285Y-65862857D01*
X146692857Y-65862857D01*
X146550000Y-65934285D01*
X146478571Y-66077142D01*
X146478571Y-66362857D01*
X146550000Y-66505714D01*
X146692857Y-66577142D01*
X146835714Y-66577142D01*
X146978571Y-65862857D01*
X146478571Y-67862857D02*
X147692857Y-67862857D01*
X147835714Y-67791428D01*
X147907142Y-67720000D01*
X147978571Y-67577142D01*
X147978571Y-67362857D01*
X147907142Y-67220000D01*
X147407142Y-67862857D02*
X147478571Y-67720000D01*
X147478571Y-67434285D01*
X147407142Y-67291428D01*
X147335714Y-67220000D01*
X147192857Y-67148571D01*
X146764285Y-67148571D01*
X146621428Y-67220000D01*
X146550000Y-67291428D01*
X146478571Y-67434285D01*
X146478571Y-67720000D01*
X146550000Y-67862857D01*
X145907142Y-69648571D02*
X147835714Y-68362857D01*
X146621428Y-70362857D02*
X146550000Y-70220000D01*
X146478571Y-70148571D01*
X146335714Y-70077142D01*
X146264285Y-70077142D01*
X146121428Y-70148571D01*
X146050000Y-70220000D01*
X145978571Y-70362857D01*
X145978571Y-70648571D01*
X146050000Y-70791428D01*
X146121428Y-70862857D01*
X146264285Y-70934285D01*
X146335714Y-70934285D01*
X146478571Y-70862857D01*
X146550000Y-70791428D01*
X146621428Y-70648571D01*
X146621428Y-70362857D01*
X146692857Y-70220000D01*
X146764285Y-70148571D01*
X146907142Y-70077142D01*
X147192857Y-70077142D01*
X147335714Y-70148571D01*
X147407142Y-70220000D01*
X147478571Y-70362857D01*
X147478571Y-70648571D01*
X147407142Y-70791428D01*
X147335714Y-70862857D01*
X147192857Y-70934285D01*
X146907142Y-70934285D01*
X146764285Y-70862857D01*
X146692857Y-70791428D01*
X146621428Y-70648571D01*
X147407142Y-71505714D02*
X147478571Y-71648571D01*
X147478571Y-71934285D01*
X147407142Y-72077142D01*
X147264285Y-72148571D01*
X147192857Y-72148571D01*
X147050000Y-72077142D01*
X146978571Y-71934285D01*
X146978571Y-71720000D01*
X146907142Y-71577142D01*
X146764285Y-71505714D01*
X146692857Y-71505714D01*
X146550000Y-71577142D01*
X146478571Y-71720000D01*
X146478571Y-71934285D01*
X146550000Y-72077142D01*
X147407142Y-73362857D02*
X147478571Y-73220000D01*
X147478571Y-72934285D01*
X147407142Y-72791428D01*
X147264285Y-72720000D01*
X146692857Y-72720000D01*
X146550000Y-72791428D01*
X146478571Y-72934285D01*
X146478571Y-73220000D01*
X146550000Y-73362857D01*
X146692857Y-73434285D01*
X146835714Y-73434285D01*
X146978571Y-72720000D01*
X146478571Y-74720000D02*
X147692857Y-74720000D01*
X147835714Y-74648571D01*
X147907142Y-74577142D01*
X147978571Y-74434285D01*
X147978571Y-74220000D01*
X147907142Y-74077142D01*
X147407142Y-74720000D02*
X147478571Y-74577142D01*
X147478571Y-74291428D01*
X147407142Y-74148571D01*
X147335714Y-74077142D01*
X147192857Y-74005714D01*
X146764285Y-74005714D01*
X146621428Y-74077142D01*
X146550000Y-74148571D01*
X146478571Y-74291428D01*
X146478571Y-74577142D01*
X146550000Y-74720000D01*
X164107142Y-40021428D02*
X164178571Y-39878571D01*
X164178571Y-39592857D01*
X164107142Y-39450000D01*
X164035714Y-39378571D01*
X163892857Y-39307142D01*
X163464285Y-39307142D01*
X163321428Y-39378571D01*
X163250000Y-39450000D01*
X163178571Y-39592857D01*
X163178571Y-39878571D01*
X163250000Y-40021428D01*
X164107142Y-41307142D02*
X164178571Y-41164285D01*
X164178571Y-40878571D01*
X164107142Y-40735714D01*
X164035714Y-40664285D01*
X163892857Y-40592857D01*
X163464285Y-40592857D01*
X163321428Y-40664285D01*
X163250000Y-40735714D01*
X163178571Y-40878571D01*
X163178571Y-41164285D01*
X163250000Y-41307142D01*
X163607142Y-41950000D02*
X163607142Y-43092857D01*
X164178571Y-43807142D02*
X162678571Y-43807142D01*
X163250000Y-43807142D02*
X163178571Y-43950000D01*
X163178571Y-44235714D01*
X163250000Y-44378571D01*
X163321428Y-44450000D01*
X163464285Y-44521428D01*
X163892857Y-44521428D01*
X164035714Y-44450000D01*
X164107142Y-44378571D01*
X164178571Y-44235714D01*
X164178571Y-43950000D01*
X164107142Y-43807142D01*
X163178571Y-45021428D02*
X164178571Y-45378571D01*
X163178571Y-45735714D02*
X164178571Y-45378571D01*
X164535714Y-45235714D01*
X164607142Y-45164285D01*
X164678571Y-45021428D01*
X163607142Y-46307142D02*
X163607142Y-47450000D01*
X164107142Y-48092857D02*
X164178571Y-48235714D01*
X164178571Y-48521428D01*
X164107142Y-48664285D01*
X163964285Y-48735714D01*
X163892857Y-48735714D01*
X163750000Y-48664285D01*
X163678571Y-48521428D01*
X163678571Y-48307142D01*
X163607142Y-48164285D01*
X163464285Y-48092857D01*
X163392857Y-48092857D01*
X163250000Y-48164285D01*
X163178571Y-48307142D01*
X163178571Y-48521428D01*
X163250000Y-48664285D01*
X164178571Y-50021428D02*
X163392857Y-50021428D01*
X163250000Y-49950000D01*
X163178571Y-49807142D01*
X163178571Y-49521428D01*
X163250000Y-49378571D01*
X164107142Y-50021428D02*
X164178571Y-49878571D01*
X164178571Y-49521428D01*
X164107142Y-49378571D01*
X163964285Y-49307142D01*
X163821428Y-49307142D01*
X163678571Y-49378571D01*
X163607142Y-49521428D01*
X163607142Y-49878571D01*
X163535714Y-50021428D01*
X162260000Y-39490000D02*
X162188571Y-39418571D01*
X161974285Y-39275714D01*
X161831428Y-39204285D01*
X161617142Y-39132857D01*
X161260000Y-39061428D01*
X160974285Y-39061428D01*
X160617142Y-39132857D01*
X160402857Y-39204285D01*
X160260000Y-39275714D01*
X160045714Y-39418571D01*
X159974285Y-39490000D01*
X161617142Y-40704285D02*
X161688571Y-40561428D01*
X161688571Y-40275714D01*
X161617142Y-40132857D01*
X161545714Y-40061428D01*
X161402857Y-39990000D01*
X160974285Y-39990000D01*
X160831428Y-40061428D01*
X160760000Y-40132857D01*
X160688571Y-40275714D01*
X160688571Y-40561428D01*
X160760000Y-40704285D01*
X162260000Y-41204285D02*
X162188571Y-41275714D01*
X161974285Y-41418571D01*
X161831428Y-41490000D01*
X161617142Y-41561428D01*
X161260000Y-41632857D01*
X160974285Y-41632857D01*
X160617142Y-41561428D01*
X160402857Y-41490000D01*
X160260000Y-41418571D01*
X160045714Y-41275714D01*
X159974285Y-41204285D01*
X160331428Y-42275714D02*
X160260000Y-42347142D01*
X160188571Y-42490000D01*
X160188571Y-42847142D01*
X160260000Y-42990000D01*
X160331428Y-43061428D01*
X160474285Y-43132857D01*
X160617142Y-43132857D01*
X160831428Y-43061428D01*
X161688571Y-42204285D01*
X161688571Y-43132857D01*
X160188571Y-44061428D02*
X160188571Y-44204285D01*
X160260000Y-44347142D01*
X160331428Y-44418571D01*
X160474285Y-44490000D01*
X160760000Y-44561428D01*
X161117142Y-44561428D01*
X161402857Y-44490000D01*
X161545714Y-44418571D01*
X161617142Y-44347142D01*
X161688571Y-44204285D01*
X161688571Y-44061428D01*
X161617142Y-43918571D01*
X161545714Y-43847142D01*
X161402857Y-43775714D01*
X161117142Y-43704285D01*
X160760000Y-43704285D01*
X160474285Y-43775714D01*
X160331428Y-43847142D01*
X160260000Y-43918571D01*
X160188571Y-44061428D01*
X161688571Y-45990000D02*
X161688571Y-45132857D01*
X161688571Y-45561428D02*
X160188571Y-45561428D01*
X160402857Y-45418571D01*
X160545714Y-45275714D01*
X160617142Y-45132857D01*
X160831428Y-46847142D02*
X160760000Y-46704285D01*
X160688571Y-46632857D01*
X160545714Y-46561428D01*
X160474285Y-46561428D01*
X160331428Y-46632857D01*
X160260000Y-46704285D01*
X160188571Y-46847142D01*
X160188571Y-47132857D01*
X160260000Y-47275714D01*
X160331428Y-47347142D01*
X160474285Y-47418571D01*
X160545714Y-47418571D01*
X160688571Y-47347142D01*
X160760000Y-47275714D01*
X160831428Y-47132857D01*
X160831428Y-46847142D01*
X160902857Y-46704285D01*
X160974285Y-46632857D01*
X161117142Y-46561428D01*
X161402857Y-46561428D01*
X161545714Y-46632857D01*
X161617142Y-46704285D01*
X161688571Y-46847142D01*
X161688571Y-47132857D01*
X161617142Y-47275714D01*
X161545714Y-47347142D01*
X161402857Y-47418571D01*
X161117142Y-47418571D01*
X160974285Y-47347142D01*
X160902857Y-47275714D01*
X160831428Y-47132857D01*
X160688571Y-49204285D02*
X161974285Y-49204285D01*
X162117142Y-49132857D01*
X162188571Y-48990000D01*
X162188571Y-48918571D01*
X160188571Y-49204285D02*
X160260000Y-49132857D01*
X160331428Y-49204285D01*
X160260000Y-49275714D01*
X160188571Y-49204285D01*
X160331428Y-49204285D01*
X161688571Y-50561428D02*
X160902857Y-50561428D01*
X160760000Y-50490000D01*
X160688571Y-50347142D01*
X160688571Y-50061428D01*
X160760000Y-49918571D01*
X161617142Y-50561428D02*
X161688571Y-50418571D01*
X161688571Y-50061428D01*
X161617142Y-49918571D01*
X161474285Y-49847142D01*
X161331428Y-49847142D01*
X161188571Y-49918571D01*
X161117142Y-50061428D01*
X161117142Y-50418571D01*
X161045714Y-50561428D01*
X161617142Y-51204285D02*
X161688571Y-51347142D01*
X161688571Y-51632857D01*
X161617142Y-51775714D01*
X161474285Y-51847142D01*
X161402857Y-51847142D01*
X161260000Y-51775714D01*
X161188571Y-51632857D01*
X161188571Y-51418571D01*
X161117142Y-51275714D01*
X160974285Y-51204285D01*
X160902857Y-51204285D01*
X160760000Y-51275714D01*
X160688571Y-51418571D01*
X160688571Y-51632857D01*
X160760000Y-51775714D01*
X161617142Y-53061428D02*
X161688571Y-52918571D01*
X161688571Y-52632857D01*
X161617142Y-52490000D01*
X161474285Y-52418571D01*
X160902857Y-52418571D01*
X160760000Y-52490000D01*
X160688571Y-52632857D01*
X160688571Y-52918571D01*
X160760000Y-53061428D01*
X160902857Y-53132857D01*
X161045714Y-53132857D01*
X161188571Y-52418571D01*
X160688571Y-54418571D02*
X161902857Y-54418571D01*
X162045714Y-54347142D01*
X162117142Y-54275714D01*
X162188571Y-54132857D01*
X162188571Y-53918571D01*
X162117142Y-53775714D01*
X161617142Y-54418571D02*
X161688571Y-54275714D01*
X161688571Y-53990000D01*
X161617142Y-53847142D01*
X161545714Y-53775714D01*
X161402857Y-53704285D01*
X160974285Y-53704285D01*
X160831428Y-53775714D01*
X160760000Y-53847142D01*
X160688571Y-53990000D01*
X160688571Y-54275714D01*
X160760000Y-54418571D01*
D11*
X156862857Y-40087142D02*
X156720000Y-39801428D01*
X156577142Y-39658571D01*
X156291428Y-39515714D01*
X156148571Y-39515714D01*
X155862857Y-39658571D01*
X155720000Y-39801428D01*
X155577142Y-40087142D01*
X155577142Y-40658571D01*
X155720000Y-40944285D01*
X155862857Y-41087142D01*
X156148571Y-41230000D01*
X156291428Y-41230000D01*
X156577142Y-41087142D01*
X156720000Y-40944285D01*
X156862857Y-40658571D01*
X156862857Y-40087142D01*
X157005714Y-39801428D01*
X157148571Y-39658571D01*
X157434285Y-39515714D01*
X158005714Y-39515714D01*
X158291428Y-39658571D01*
X158434285Y-39801428D01*
X158577142Y-40087142D01*
X158577142Y-40658571D01*
X158434285Y-40944285D01*
X158291428Y-41087142D01*
X158005714Y-41230000D01*
X157434285Y-41230000D01*
X157148571Y-41087142D01*
X157005714Y-40944285D01*
X156862857Y-40658571D01*
X158434285Y-42372857D02*
X158577142Y-42658571D01*
X158577142Y-43230000D01*
X158434285Y-43515714D01*
X158148571Y-43658571D01*
X158005714Y-43658571D01*
X157720000Y-43515714D01*
X157577142Y-43230000D01*
X157577142Y-42801428D01*
X157434285Y-42515714D01*
X157148571Y-42372857D01*
X157005714Y-42372857D01*
X156720000Y-42515714D01*
X156577142Y-42801428D01*
X156577142Y-43230000D01*
X156720000Y-43515714D01*
X158434285Y-46087142D02*
X158577142Y-45801428D01*
X158577142Y-45230000D01*
X158434285Y-44944285D01*
X158148571Y-44801428D01*
X157005714Y-44801428D01*
X156720000Y-44944285D01*
X156577142Y-45230000D01*
X156577142Y-45801428D01*
X156720000Y-46087142D01*
X157005714Y-46230000D01*
X157291428Y-46230000D01*
X157577142Y-44801428D01*
X156577142Y-48801428D02*
X159005714Y-48801428D01*
X159291428Y-48658571D01*
X159434285Y-48515714D01*
X159577142Y-48230000D01*
X159577142Y-47801428D01*
X159434285Y-47515714D01*
X158434285Y-48801428D02*
X158577142Y-48515714D01*
X158577142Y-47944285D01*
X158434285Y-47658571D01*
X158291428Y-47515714D01*
X158005714Y-47372857D01*
X157148571Y-47372857D01*
X156862857Y-47515714D01*
X156720000Y-47658571D01*
X156577142Y-47944285D01*
X156577142Y-48515714D01*
X156720000Y-48801428D01*
X158577142Y-54230000D02*
X157148571Y-53230000D01*
X158577142Y-52515714D02*
X155577142Y-52515714D01*
X155577142Y-53658571D01*
X155720000Y-53944285D01*
X155862857Y-54087142D01*
X156148571Y-54230000D01*
X156577142Y-54230000D01*
X156862857Y-54087142D01*
X157005714Y-53944285D01*
X157148571Y-53658571D01*
X157148571Y-52515714D01*
X155577142Y-56087142D02*
X155577142Y-56372857D01*
X155720000Y-56658571D01*
X155862857Y-56801428D01*
X156148571Y-56944285D01*
X156720000Y-57087142D01*
X157434285Y-57087142D01*
X158005714Y-56944285D01*
X158291428Y-56801428D01*
X158434285Y-56658571D01*
X158577142Y-56372857D01*
X158577142Y-56087142D01*
X158434285Y-55801428D01*
X158291428Y-55658571D01*
X158005714Y-55515714D01*
X157434285Y-55372857D01*
X156720000Y-55372857D01*
X156148571Y-55515714D01*
X155862857Y-55658571D01*
X155720000Y-55801428D01*
X155577142Y-56087142D01*
X158577142Y-59944285D02*
X158577142Y-58230000D01*
X158577142Y-59087142D02*
X155577142Y-59087142D01*
X156005714Y-58801428D01*
X156291428Y-58515714D01*
X156434285Y-58230000D01*
D10*
X180893403Y-55156241D02*
X179832743Y-54095581D01*
X180236804Y-54499642D02*
X180085281Y-54550149D01*
X179883250Y-54752180D01*
X179832743Y-54903703D01*
X179832743Y-55004718D01*
X179883250Y-55156241D01*
X180186296Y-55459287D01*
X180337819Y-55509794D01*
X180438834Y-55509794D01*
X180590357Y-55459287D01*
X180792388Y-55257256D01*
X180842895Y-55105733D01*
X179782235Y-56267409D02*
X179832743Y-56115886D01*
X179832743Y-56014871D01*
X179782235Y-55863348D01*
X179479189Y-55560302D01*
X179327666Y-55509794D01*
X179226651Y-55509794D01*
X179075128Y-55560302D01*
X178923605Y-55711825D01*
X178873098Y-55863348D01*
X178873098Y-55964363D01*
X178923605Y-56115886D01*
X179226651Y-56418932D01*
X179378174Y-56469439D01*
X179479189Y-56469439D01*
X179630712Y-56418932D01*
X179782235Y-56267409D01*
X178418529Y-56216901D02*
X178014468Y-56620962D01*
X177913453Y-56014871D02*
X178822590Y-56924008D01*
X178873098Y-57075531D01*
X178822590Y-57227054D01*
X178721575Y-57328069D01*
X177812438Y-56822993D02*
X177408377Y-57227054D01*
X177307361Y-56620962D02*
X178216499Y-57530099D01*
X178267006Y-57681622D01*
X178216499Y-57833145D01*
X178115483Y-57934161D01*
X177610407Y-58439237D02*
X177660915Y-58287714D01*
X177660915Y-58186699D01*
X177610407Y-58035176D01*
X177307361Y-57732130D01*
X177155838Y-57681622D01*
X177054823Y-57681622D01*
X176903300Y-57732130D01*
X176751777Y-57883653D01*
X176701270Y-58035176D01*
X176701270Y-58136191D01*
X176751777Y-58287714D01*
X177054823Y-58590760D01*
X177206346Y-58641267D01*
X177307361Y-58641267D01*
X177458884Y-58590760D01*
X177610407Y-58439237D01*
X176802285Y-59247359D02*
X176095178Y-58540252D01*
X176196194Y-58641267D02*
X176095178Y-58641267D01*
X175943655Y-58691775D01*
X175792133Y-58843298D01*
X175741625Y-58994821D01*
X175792133Y-59146344D01*
X176347716Y-59701927D01*
X175792133Y-59146344D02*
X175640610Y-59095836D01*
X175489087Y-59146344D01*
X175337564Y-59297866D01*
X175287056Y-59449389D01*
X175337564Y-59600912D01*
X175893148Y-60156496D01*
X174984011Y-60257511D02*
X174175888Y-61065633D01*
X173923350Y-62126294D02*
X173973858Y-61974771D01*
X173923350Y-61823248D01*
X173014213Y-60914111D01*
X173064721Y-62883908D02*
X173216244Y-62833400D01*
X173418274Y-62631370D01*
X173468782Y-62479847D01*
X173418274Y-62328324D01*
X173014213Y-61924263D01*
X172862690Y-61873755D01*
X172711167Y-61924263D01*
X172509137Y-62126294D01*
X172458629Y-62277816D01*
X172509137Y-62429339D01*
X172610152Y-62530355D01*
X173216244Y-62126294D01*
X172054568Y-62580862D02*
X171650507Y-62984923D01*
X172610152Y-63439492D02*
X171701015Y-62530355D01*
X171549492Y-62479847D01*
X171397969Y-62530355D01*
X171296954Y-62631370D01*
X171448477Y-63186954D02*
X171044416Y-63591015D01*
X170943400Y-62984923D02*
X171852538Y-63894061D01*
X171903045Y-64045583D01*
X171852538Y-64197106D01*
X171751522Y-64298122D01*
X169529187Y-64298122D02*
X171802030Y-64752690D01*
X169731217Y-64904213D02*
X169327156Y-65308274D01*
X169226141Y-64702183D02*
X170135278Y-65611320D01*
X170185786Y-65762843D01*
X170135278Y-65914366D01*
X170034263Y-66015381D01*
X169529187Y-66520457D02*
X169579694Y-66368934D01*
X169579694Y-66267919D01*
X169529187Y-66116396D01*
X169226141Y-65813350D01*
X169074618Y-65762843D01*
X168973603Y-65762843D01*
X168822080Y-65813350D01*
X168670557Y-65964873D01*
X168620049Y-66116396D01*
X168620049Y-66217411D01*
X168670557Y-66368934D01*
X168973603Y-66671980D01*
X169125126Y-66722488D01*
X169226141Y-66722488D01*
X169377664Y-66671980D01*
X169529187Y-66520457D01*
X168013958Y-66621472D02*
X169074618Y-67682133D01*
X168064466Y-66671980D02*
X167912943Y-66722488D01*
X167710912Y-66924518D01*
X167660405Y-67076041D01*
X167660405Y-67177056D01*
X167710912Y-67328579D01*
X168013958Y-67631625D01*
X168165481Y-67682133D01*
X168266496Y-67682133D01*
X168418019Y-67631625D01*
X168620049Y-67429594D01*
X168670557Y-67278072D01*
X167357359Y-67884163D02*
X166549237Y-68692285D01*
X166448222Y-69601422D02*
X165741115Y-68894316D01*
X165943145Y-69096346D02*
X165791622Y-69045838D01*
X165690607Y-69045838D01*
X165539084Y-69096346D01*
X165438069Y-69197361D01*
X165791622Y-70258022D02*
X165084516Y-69550915D01*
X164730962Y-69197361D02*
X164831977Y-69197361D01*
X164831977Y-69298377D01*
X164730962Y-69298377D01*
X164730962Y-69197361D01*
X164831977Y-69298377D01*
X164124871Y-70510560D02*
X164983500Y-71369189D01*
X165135023Y-71419697D01*
X165236038Y-71419697D01*
X165387561Y-71369189D01*
X165539084Y-71217666D01*
X165589592Y-71066144D01*
X164781470Y-71167159D02*
X164932993Y-71116651D01*
X165135023Y-70914621D01*
X165185531Y-70763098D01*
X165185531Y-70662083D01*
X165135023Y-70510560D01*
X164831977Y-70207514D01*
X164680455Y-70157006D01*
X164579439Y-70157006D01*
X164427916Y-70207514D01*
X164225886Y-70409544D01*
X164175378Y-70561067D01*
X164326901Y-71722743D02*
X163266241Y-70662083D01*
X163872333Y-72177311D02*
X163316749Y-71621727D01*
X163266241Y-71470205D01*
X163316749Y-71318682D01*
X163468272Y-71167159D01*
X163619794Y-71116651D01*
X163720810Y-71116651D01*
X162811672Y-71823758D02*
X162407611Y-72227819D01*
X162306596Y-71621727D02*
X163215733Y-72530865D01*
X163266241Y-72682388D01*
X163215733Y-72833911D01*
X163114718Y-72934926D01*
X147478571Y-36975714D02*
X147407142Y-36832857D01*
X147264285Y-36761428D01*
X145978571Y-36761428D01*
X147407142Y-38118571D02*
X147478571Y-37975714D01*
X147478571Y-37690000D01*
X147407142Y-37547142D01*
X147264285Y-37475714D01*
X146692857Y-37475714D01*
X146550000Y-37547142D01*
X146478571Y-37690000D01*
X146478571Y-37975714D01*
X146550000Y-38118571D01*
X146692857Y-38190000D01*
X146835714Y-38190000D01*
X146978571Y-37475714D01*
X146478571Y-38618571D02*
X146478571Y-39190000D01*
X147478571Y-38832857D02*
X146192857Y-38832857D01*
X146050000Y-38904285D01*
X145978571Y-39047142D01*
X145978571Y-39190000D01*
X146478571Y-39475714D02*
X146478571Y-40047142D01*
X145978571Y-39690000D02*
X147264285Y-39690000D01*
X147407142Y-39761428D01*
X147478571Y-39904285D01*
X147478571Y-40047142D01*
X145907142Y-41618571D02*
X147835714Y-40332857D01*
X147478571Y-42118571D02*
X146478571Y-42118571D01*
X146764285Y-42118571D02*
X146621428Y-42190000D01*
X146550000Y-42261428D01*
X146478571Y-42404285D01*
X146478571Y-42547142D01*
X147478571Y-43047142D02*
X146478571Y-43047142D01*
X145978571Y-43047142D02*
X146050000Y-42975714D01*
X146121428Y-43047142D01*
X146050000Y-43118571D01*
X145978571Y-43047142D01*
X146121428Y-43047142D01*
X146478571Y-44404285D02*
X147692857Y-44404285D01*
X147835714Y-44332857D01*
X147907142Y-44261428D01*
X147978571Y-44118571D01*
X147978571Y-43904285D01*
X147907142Y-43761428D01*
X147407142Y-44404285D02*
X147478571Y-44261428D01*
X147478571Y-43975714D01*
X147407142Y-43832857D01*
X147335714Y-43761428D01*
X147192857Y-43690000D01*
X146764285Y-43690000D01*
X146621428Y-43761428D01*
X146550000Y-43832857D01*
X146478571Y-43975714D01*
X146478571Y-44261428D01*
X146550000Y-44404285D01*
X147478571Y-45118571D02*
X145978571Y-45118571D01*
X147478571Y-45761428D02*
X146692857Y-45761428D01*
X146550000Y-45690000D01*
X146478571Y-45547142D01*
X146478571Y-45332857D01*
X146550000Y-45190000D01*
X146621428Y-45118571D01*
X146478571Y-46261428D02*
X146478571Y-46832857D01*
X145978571Y-46475714D02*
X147264285Y-46475714D01*
X147407142Y-46547142D01*
X147478571Y-46690000D01*
X147478571Y-46832857D01*
D12*
X150142857Y-62214285D02*
X147857142Y-62214285D01*
X149000000Y-63357142D02*
X149000000Y-61071428D01*
X162182857Y-64594285D02*
X159897142Y-64594285D01*
X161040000Y-65737142D02*
X161040000Y-63451428D01*
X177712857Y-50354285D02*
X175427142Y-50354285D01*
X176570000Y-51497142D02*
X176570000Y-49211428D01*
D10*
X166321428Y-36678571D02*
X165750000Y-36678571D01*
X166107142Y-36178571D02*
X166107142Y-37464285D01*
X166035714Y-37607142D01*
X165892857Y-37678571D01*
X165750000Y-37678571D01*
X165035714Y-37678571D02*
X165178571Y-37607142D01*
X165250000Y-37535714D01*
X165321428Y-37392857D01*
X165321428Y-36964285D01*
X165250000Y-36821428D01*
X165178571Y-36750000D01*
X165035714Y-36678571D01*
X164821428Y-36678571D01*
X164678571Y-36750000D01*
X164607142Y-36821428D01*
X164535714Y-36964285D01*
X164535714Y-37392857D01*
X164607142Y-37535714D01*
X164678571Y-37607142D01*
X164821428Y-37678571D01*
X165035714Y-37678571D01*
X163892857Y-36678571D02*
X163892857Y-38178571D01*
X163892857Y-36750000D02*
X163750000Y-36678571D01*
X163464285Y-36678571D01*
X163321428Y-36750000D01*
X163250000Y-36821428D01*
X163178571Y-36964285D01*
X163178571Y-37392857D01*
X163250000Y-37535714D01*
X163321428Y-37607142D01*
X163464285Y-37678571D01*
X163750000Y-37678571D01*
X163892857Y-37607142D01*
X161464285Y-36107142D02*
X162750000Y-38035714D01*
X160964285Y-37678571D02*
X160964285Y-36178571D01*
X160964285Y-36750000D02*
X160821428Y-36678571D01*
X160535714Y-36678571D01*
X160392857Y-36750000D01*
X160321428Y-36821428D01*
X160250000Y-36964285D01*
X160250000Y-37392857D01*
X160321428Y-37535714D01*
X160392857Y-37607142D01*
X160535714Y-37678571D01*
X160821428Y-37678571D01*
X160964285Y-37607142D01*
X159392857Y-37678571D02*
X159535714Y-37607142D01*
X159607142Y-37535714D01*
X159678571Y-37392857D01*
X159678571Y-36964285D01*
X159607142Y-36821428D01*
X159535714Y-36750000D01*
X159392857Y-36678571D01*
X159178571Y-36678571D01*
X159035714Y-36750000D01*
X158964285Y-36821428D01*
X158892857Y-36964285D01*
X158892857Y-37392857D01*
X158964285Y-37535714D01*
X159035714Y-37607142D01*
X159178571Y-37678571D01*
X159392857Y-37678571D01*
X158464285Y-36678571D02*
X157892857Y-36678571D01*
X158250000Y-36178571D02*
X158250000Y-37464285D01*
X158178571Y-37607142D01*
X158035714Y-37678571D01*
X157892857Y-37678571D01*
X157607142Y-36678571D02*
X157035714Y-36678571D01*
X157392857Y-36178571D02*
X157392857Y-37464285D01*
X157321428Y-37607142D01*
X157178571Y-37678571D01*
X157035714Y-37678571D01*
X156321428Y-37678571D02*
X156464285Y-37607142D01*
X156535714Y-37535714D01*
X156607142Y-37392857D01*
X156607142Y-36964285D01*
X156535714Y-36821428D01*
X156464285Y-36750000D01*
X156321428Y-36678571D01*
X156107142Y-36678571D01*
X155964285Y-36750000D01*
X155892857Y-36821428D01*
X155821428Y-36964285D01*
X155821428Y-37392857D01*
X155892857Y-37535714D01*
X155964285Y-37607142D01*
X156107142Y-37678571D01*
X156321428Y-37678571D01*
X155178571Y-37678571D02*
X155178571Y-36678571D01*
X155178571Y-36821428D02*
X155107142Y-36750000D01*
X154964285Y-36678571D01*
X154750000Y-36678571D01*
X154607142Y-36750000D01*
X154535714Y-36892857D01*
X154535714Y-37678571D01*
X154535714Y-36892857D02*
X154464285Y-36750000D01*
X154321428Y-36678571D01*
X154107142Y-36678571D01*
X153964285Y-36750000D01*
X153892857Y-36892857D01*
X153892857Y-37678571D01*
D13*
G04 #@! TO.C,J2*
X165449318Y-58174092D02*
X164650682Y-58775908D01*
X175095388Y-78452241D02*
X161855458Y-60882260D01*
X168244542Y-56067740D02*
X181484472Y-73637720D01*
X177271767Y-68047273D02*
X170882684Y-72861792D01*
X170882684Y-72861792D02*
X175466322Y-65651366D01*
X175466322Y-65651366D02*
X169077238Y-70465886D01*
X170280868Y-72063157D02*
X173469734Y-67155904D01*
X171473145Y-68660441D02*
X169679054Y-71264521D01*
X176669952Y-67248637D02*
X175275179Y-69551810D01*
X176068137Y-66450002D02*
X173278590Y-71056348D01*
G04 #@! TO.C,J1*
X187700000Y-40400000D02*
X189700000Y-45400000D01*
X188700000Y-40400000D02*
X189700000Y-42900000D01*
X186700000Y-45400000D02*
X187700000Y-48400000D01*
X188700000Y-48400000D02*
X186700000Y-42900000D01*
X186700000Y-40400000D02*
X186700000Y-48400000D01*
X189700000Y-48400000D02*
X186700000Y-40400000D01*
X189700000Y-40400000D02*
X189700000Y-48400000D01*
X174700000Y-40400000D02*
X196700000Y-40400000D01*
X196700000Y-48400000D02*
X174700000Y-48400000D01*
X174700000Y-43900000D02*
X174700000Y-44900000D01*
G04 #@! TO.C,J3*
X158300000Y-77600000D02*
X153300000Y-79600000D01*
X158300000Y-78600000D02*
X155800000Y-79600000D01*
X153300000Y-76600000D02*
X150300000Y-77600000D01*
X150300000Y-78600000D02*
X155800000Y-76600000D01*
X158300000Y-76600000D02*
X150300000Y-76600000D01*
X150300000Y-79600000D02*
X158300000Y-76600000D01*
X158300000Y-79600000D02*
X150300000Y-79600000D01*
X158300000Y-64600000D02*
X158300000Y-86600000D01*
X150300000Y-86600000D02*
X150300000Y-64600000D01*
X154800000Y-64600000D02*
X153800000Y-64600000D01*
G04 #@! TD*
M02*
