G04 #@! TF.GenerationSoftware,KiCad,Pcbnew,(5.0.1)*
G04 #@! TF.CreationDate,2018-11-27T11:01:09+09:00*
G04 #@! TF.ProjectId,corner,636F726E65722E6B696361645F706362,rev?*
G04 #@! TF.SameCoordinates,Original*
G04 #@! TF.FileFunction,Profile,NP*
%FSLAX46Y46*%
G04 Gerber Fmt 4.6, Leading zero omitted, Abs format (unit mm)*
G04 Created by KiCad (PCBNEW (5.0.1)) date Tue Nov 27 11:01:09 2018*
%MOMM*%
%LPD*%
G01*
G04 APERTURE LIST*
%ADD10C,0.150000*%
%ADD11C,0.200000*%
G04 APERTURE END LIST*
D10*
X152000000Y-60000000D02*
X152000000Y-55000000D01*
X149000000Y-60000000D02*
X152000000Y-60000000D01*
X149000000Y-55000000D02*
X152000000Y-55000000D01*
X149000000Y-55000000D02*
X149000000Y-60000000D01*
X149000000Y-44000000D02*
X149000000Y-39000000D01*
X154000000Y-44000000D02*
X149000000Y-44000000D01*
X154000000Y-39000000D02*
X154000000Y-44000000D01*
X149000000Y-39000000D02*
X154000000Y-39000000D01*
X170000000Y-42000000D02*
X170000000Y-39000000D01*
X165000000Y-42000000D02*
X170000000Y-42000000D01*
X165000000Y-39000000D02*
X165000000Y-42000000D01*
X170000000Y-39000000D02*
X165000000Y-39000000D01*
D11*
X149293950Y-75958126D02*
X149293950Y-79986826D01*
X189988102Y-36455114D02*
X189988102Y-39455454D01*
X144988270Y-75958126D02*
X149293950Y-75958126D01*
X178251871Y-67773615D02*
X174767321Y-63149615D01*
X189988102Y-52455175D02*
X194988312Y-52455175D01*
X194988312Y-36455114D02*
X189988102Y-36455114D01*
X167869041Y-75596916D02*
X170878671Y-79590466D01*
X146294140Y-79986816D02*
X146294140Y-84987036D01*
X149293950Y-79986826D02*
X146294140Y-79986816D01*
X189988102Y-49455355D02*
X189988102Y-52455175D01*
X167626681Y-70290255D02*
X170265271Y-73791346D01*
X185959412Y-34986984D02*
X144988270Y-34986974D01*
X174767321Y-63149615D02*
X185959412Y-51957535D01*
X189988102Y-39455454D02*
X185959412Y-39455454D01*
X170878671Y-79590466D02*
X173274391Y-77784896D01*
X180647581Y-65968045D02*
X178251871Y-67773615D01*
X173274391Y-77784896D02*
X181260981Y-71766655D01*
X162294191Y-79986826D02*
X159294381Y-79986826D01*
X194988312Y-49455355D02*
X194988312Y-39455444D01*
X181260981Y-71766655D02*
X183656702Y-69961595D01*
X159294381Y-79986826D02*
X159294381Y-75958126D01*
X185959412Y-49455355D02*
X189988102Y-49455355D01*
X146294140Y-84987036D02*
X162294191Y-84987036D01*
X170265271Y-73791346D02*
X167869041Y-75596916D01*
X162294191Y-84987036D02*
X162294191Y-79986826D01*
X144988270Y-34986974D02*
X144988270Y-75958126D01*
X194988312Y-39455444D02*
X194988312Y-36455114D01*
X159294381Y-75958126D02*
X161959331Y-75958126D01*
X194988312Y-52455175D02*
X194988312Y-49455355D01*
X185959412Y-51957535D02*
X185959412Y-49455355D01*
X161959331Y-75958126D02*
X167626681Y-70290255D01*
X185959412Y-39455454D02*
X185959412Y-34986984D01*
X183656702Y-69961595D02*
X180647581Y-65968045D01*
M02*
