G04 #@! TF.GenerationSoftware,KiCad,Pcbnew,(5.0.1)*
G04 #@! TF.CreationDate,2018-11-27T11:01:09+09:00*
G04 #@! TF.ProjectId,corner,636F726E65722E6B696361645F706362,rev?*
G04 #@! TF.SameCoordinates,Original*
G04 #@! TF.FileFunction,Legend,Top*
G04 #@! TF.FilePolarity,Positive*
%FSLAX46Y46*%
G04 Gerber Fmt 4.6, Leading zero omitted, Abs format (unit mm)*
G04 Created by KiCad (PCBNEW (5.0.1)) date Tue Nov 27 11:01:09 2018*
%MOMM*%
%LPD*%
G01*
G04 APERTURE LIST*
%ADD10C,0.300000*%
%ADD11C,0.750000*%
%ADD12C,0.500000*%
%ADD13C,0.120000*%
G04 APERTURE END LIST*
D10*
X147067142Y-45568571D02*
X147638571Y-45568571D01*
X147281428Y-45068571D02*
X147281428Y-46354285D01*
X147352857Y-46497142D01*
X147495714Y-46568571D01*
X147638571Y-46568571D01*
X148352857Y-46568571D02*
X148210000Y-46497142D01*
X148138571Y-46425714D01*
X148067142Y-46282857D01*
X148067142Y-45854285D01*
X148138571Y-45711428D01*
X148210000Y-45640000D01*
X148352857Y-45568571D01*
X148567142Y-45568571D01*
X148710000Y-45640000D01*
X148781428Y-45711428D01*
X148852857Y-45854285D01*
X148852857Y-46282857D01*
X148781428Y-46425714D01*
X148710000Y-46497142D01*
X148567142Y-46568571D01*
X148352857Y-46568571D01*
X149495714Y-45568571D02*
X149495714Y-47068571D01*
X149495714Y-45640000D02*
X149638571Y-45568571D01*
X149924285Y-45568571D01*
X150067142Y-45640000D01*
X150138571Y-45711428D01*
X150210000Y-45854285D01*
X150210000Y-46282857D01*
X150138571Y-46425714D01*
X150067142Y-46497142D01*
X149924285Y-46568571D01*
X149638571Y-46568571D01*
X149495714Y-46497142D01*
X147388571Y-49118571D02*
X147245714Y-49047142D01*
X147174285Y-48904285D01*
X147174285Y-47618571D01*
X148531428Y-49047142D02*
X148388571Y-49118571D01*
X148102857Y-49118571D01*
X147960000Y-49047142D01*
X147888571Y-48904285D01*
X147888571Y-48332857D01*
X147960000Y-48190000D01*
X148102857Y-48118571D01*
X148388571Y-48118571D01*
X148531428Y-48190000D01*
X148602857Y-48332857D01*
X148602857Y-48475714D01*
X147888571Y-48618571D01*
X149031428Y-48118571D02*
X149602857Y-48118571D01*
X149245714Y-49118571D02*
X149245714Y-47832857D01*
X149317142Y-47690000D01*
X149460000Y-47618571D01*
X149602857Y-47618571D01*
X149888571Y-48118571D02*
X150460000Y-48118571D01*
X150102857Y-47618571D02*
X150102857Y-48904285D01*
X150174285Y-49047142D01*
X150317142Y-49118571D01*
X150460000Y-49118571D01*
X146960000Y-51668571D02*
X146817142Y-51597142D01*
X146745714Y-51525714D01*
X146674285Y-51382857D01*
X146674285Y-50954285D01*
X146745714Y-50811428D01*
X146817142Y-50740000D01*
X146960000Y-50668571D01*
X147174285Y-50668571D01*
X147317142Y-50740000D01*
X147388571Y-50811428D01*
X147460000Y-50954285D01*
X147460000Y-51382857D01*
X147388571Y-51525714D01*
X147317142Y-51597142D01*
X147174285Y-51668571D01*
X146960000Y-51668571D01*
X148102857Y-50668571D02*
X148102857Y-51668571D01*
X148102857Y-50811428D02*
X148174285Y-50740000D01*
X148317142Y-50668571D01*
X148531428Y-50668571D01*
X148674285Y-50740000D01*
X148745714Y-50882857D01*
X148745714Y-51668571D01*
X149674285Y-51668571D02*
X149531428Y-51597142D01*
X149460000Y-51454285D01*
X149460000Y-50168571D01*
X150102857Y-50668571D02*
X150460000Y-51668571D01*
X150817142Y-50668571D02*
X150460000Y-51668571D01*
X150317142Y-52025714D01*
X150245714Y-52097142D01*
X150102857Y-52168571D01*
X162337611Y-72367819D02*
X162741672Y-71963758D01*
X162135581Y-71862743D02*
X163044718Y-72771880D01*
X163196241Y-72822388D01*
X163347764Y-72771880D01*
X163448779Y-72670865D01*
X163953855Y-72165789D02*
X163802333Y-72216296D01*
X163701317Y-72216296D01*
X163549794Y-72165789D01*
X163246749Y-71862743D01*
X163196241Y-71711220D01*
X163196241Y-71610205D01*
X163246749Y-71458682D01*
X163398272Y-71307159D01*
X163549794Y-71256651D01*
X163650810Y-71256651D01*
X163802333Y-71307159D01*
X164105378Y-71610205D01*
X164155886Y-71761727D01*
X164155886Y-71862743D01*
X164105378Y-72014266D01*
X163953855Y-72165789D01*
X164054871Y-70650560D02*
X165115531Y-71711220D01*
X164105378Y-70701067D02*
X164155886Y-70549544D01*
X164357916Y-70347514D01*
X164509439Y-70297006D01*
X164610455Y-70297006D01*
X164761977Y-70347514D01*
X165065023Y-70650560D01*
X165115531Y-70802083D01*
X165115531Y-70903098D01*
X165065023Y-71054621D01*
X164862993Y-71256651D01*
X164711470Y-71307159D01*
X165317561Y-69993961D02*
X166125683Y-69185838D01*
X167186344Y-68933300D02*
X167034821Y-68983808D01*
X166883298Y-68933300D01*
X165974161Y-68024163D01*
X167943958Y-68074671D02*
X167893450Y-68226194D01*
X167691420Y-68428224D01*
X167539897Y-68478732D01*
X167388374Y-68428224D01*
X166984313Y-68024163D01*
X166933805Y-67872640D01*
X166984313Y-67721117D01*
X167186344Y-67519087D01*
X167337866Y-67468579D01*
X167489389Y-67519087D01*
X167590405Y-67620102D01*
X167186344Y-68226194D01*
X167640912Y-67064518D02*
X168044973Y-66660457D01*
X168499542Y-67620102D02*
X167590405Y-66710965D01*
X167539897Y-66559442D01*
X167590405Y-66407919D01*
X167691420Y-66306904D01*
X168247004Y-66458427D02*
X168651065Y-66054366D01*
X168044973Y-65953350D02*
X168954111Y-66862488D01*
X169105633Y-66912995D01*
X169257156Y-66862488D01*
X169358172Y-66761472D01*
X169358172Y-64539137D02*
X169812740Y-66811980D01*
X170822893Y-65296751D02*
X169762233Y-64236091D01*
X170166294Y-64640152D02*
X170216801Y-64488629D01*
X170418832Y-64286599D01*
X170570355Y-64236091D01*
X170671370Y-64236091D01*
X170822893Y-64286599D01*
X171125938Y-64589644D01*
X171176446Y-64741167D01*
X171176446Y-64842183D01*
X171125938Y-64993705D01*
X170923908Y-65195736D01*
X170772385Y-65246244D01*
X171934061Y-64185583D02*
X171782538Y-64236091D01*
X171681522Y-64236091D01*
X171530000Y-64185583D01*
X171226954Y-63882538D01*
X171176446Y-63731015D01*
X171176446Y-63630000D01*
X171226954Y-63478477D01*
X171378477Y-63326954D01*
X171530000Y-63276446D01*
X171631015Y-63276446D01*
X171782538Y-63326954D01*
X172085583Y-63630000D01*
X172136091Y-63781522D01*
X172136091Y-63882538D01*
X172085583Y-64034061D01*
X171934061Y-64185583D01*
X171883553Y-62821877D02*
X172287614Y-62417816D01*
X171681522Y-62316801D02*
X172590660Y-63225938D01*
X172742183Y-63276446D01*
X172893705Y-63225938D01*
X172994721Y-63124923D01*
X172489644Y-62215786D02*
X172893705Y-61811725D01*
X172287614Y-61710710D02*
X173196751Y-62619847D01*
X173348274Y-62670355D01*
X173499797Y-62619847D01*
X173600812Y-62518832D01*
X174105888Y-62013755D02*
X173954366Y-62064263D01*
X173853350Y-62064263D01*
X173701827Y-62013755D01*
X173398782Y-61710710D01*
X173348274Y-61559187D01*
X173348274Y-61458172D01*
X173398782Y-61306649D01*
X173550305Y-61155126D01*
X173701827Y-61104618D01*
X173802843Y-61104618D01*
X173954366Y-61155126D01*
X174257411Y-61458172D01*
X174307919Y-61609694D01*
X174307919Y-61710710D01*
X174257411Y-61862233D01*
X174105888Y-62013755D01*
X174914011Y-61205633D02*
X174206904Y-60498527D01*
X174307919Y-60599542D02*
X174307919Y-60498527D01*
X174358427Y-60347004D01*
X174509950Y-60195481D01*
X174661472Y-60144973D01*
X174812995Y-60195481D01*
X175368579Y-60751065D01*
X174812995Y-60195481D02*
X174762488Y-60043958D01*
X174812995Y-59892435D01*
X174964518Y-59740912D01*
X175116041Y-59690405D01*
X175267564Y-59740912D01*
X175823148Y-60296496D01*
X175924163Y-59387359D02*
X176732285Y-58579237D01*
X177641422Y-58478222D02*
X176934316Y-57771115D01*
X177136346Y-57973145D02*
X177085838Y-57821622D01*
X177085838Y-57720607D01*
X177136346Y-57569084D01*
X177237361Y-57468069D01*
X178298022Y-57821622D02*
X177590915Y-57114516D01*
X177237361Y-56760962D02*
X177237361Y-56861977D01*
X177338377Y-56861977D01*
X177338377Y-56760962D01*
X177237361Y-56760962D01*
X177338377Y-56861977D01*
X178550560Y-56154871D02*
X179409189Y-57013500D01*
X179459697Y-57165023D01*
X179459697Y-57266038D01*
X179409189Y-57417561D01*
X179257666Y-57569084D01*
X179106144Y-57619592D01*
X179207159Y-56811470D02*
X179156651Y-56962993D01*
X178954621Y-57165023D01*
X178803098Y-57215531D01*
X178702083Y-57215531D01*
X178550560Y-57165023D01*
X178247514Y-56861977D01*
X178197006Y-56710455D01*
X178197006Y-56609439D01*
X178247514Y-56457916D01*
X178449544Y-56255886D01*
X178601067Y-56205378D01*
X179762743Y-56356901D02*
X178702083Y-55296241D01*
X180217311Y-55902333D02*
X179661727Y-55346749D01*
X179510205Y-55296241D01*
X179358682Y-55346749D01*
X179207159Y-55498272D01*
X179156651Y-55649794D01*
X179156651Y-55750810D01*
X179863758Y-54841672D02*
X180267819Y-54437611D01*
X179661727Y-54336596D02*
X180570865Y-55245733D01*
X180722388Y-55296241D01*
X180873911Y-55245733D01*
X180974926Y-55144718D01*
X147678571Y-64714285D02*
X147607142Y-64857142D01*
X147464285Y-64928571D01*
X146178571Y-64928571D01*
X147607142Y-63571428D02*
X147678571Y-63714285D01*
X147678571Y-64000000D01*
X147607142Y-64142857D01*
X147464285Y-64214285D01*
X146892857Y-64214285D01*
X146750000Y-64142857D01*
X146678571Y-64000000D01*
X146678571Y-63714285D01*
X146750000Y-63571428D01*
X146892857Y-63500000D01*
X147035714Y-63500000D01*
X147178571Y-64214285D01*
X146678571Y-63071428D02*
X146678571Y-62500000D01*
X147678571Y-62857142D02*
X146392857Y-62857142D01*
X146250000Y-62785714D01*
X146178571Y-62642857D01*
X146178571Y-62500000D01*
X146678571Y-62214285D02*
X146678571Y-61642857D01*
X146178571Y-62000000D02*
X147464285Y-62000000D01*
X147607142Y-61928571D01*
X147678571Y-61785714D01*
X147678571Y-61642857D01*
X146107142Y-60071428D02*
X148035714Y-61357142D01*
X147678571Y-59571428D02*
X146678571Y-59571428D01*
X146964285Y-59571428D02*
X146821428Y-59500000D01*
X146750000Y-59428571D01*
X146678571Y-59285714D01*
X146678571Y-59142857D01*
X147678571Y-58642857D02*
X146678571Y-58642857D01*
X146178571Y-58642857D02*
X146250000Y-58714285D01*
X146321428Y-58642857D01*
X146250000Y-58571428D01*
X146178571Y-58642857D01*
X146321428Y-58642857D01*
X146678571Y-57285714D02*
X147892857Y-57285714D01*
X148035714Y-57357142D01*
X148107142Y-57428571D01*
X148178571Y-57571428D01*
X148178571Y-57785714D01*
X148107142Y-57928571D01*
X147607142Y-57285714D02*
X147678571Y-57428571D01*
X147678571Y-57714285D01*
X147607142Y-57857142D01*
X147535714Y-57928571D01*
X147392857Y-58000000D01*
X146964285Y-58000000D01*
X146821428Y-57928571D01*
X146750000Y-57857142D01*
X146678571Y-57714285D01*
X146678571Y-57428571D01*
X146750000Y-57285714D01*
X147678571Y-56571428D02*
X146178571Y-56571428D01*
X147678571Y-55928571D02*
X146892857Y-55928571D01*
X146750000Y-56000000D01*
X146678571Y-56142857D01*
X146678571Y-56357142D01*
X146750000Y-56500000D01*
X146821428Y-56571428D01*
X146678571Y-55428571D02*
X146678571Y-54857142D01*
X146178571Y-55214285D02*
X147464285Y-55214285D01*
X147607142Y-55142857D01*
X147678571Y-55000000D01*
X147678571Y-54857142D01*
D11*
X169157142Y-55714285D02*
X171442857Y-55714285D01*
X170300000Y-56857142D02*
X170300000Y-54571428D01*
X159207142Y-65364285D02*
X161492857Y-65364285D01*
X160350000Y-66507142D02*
X160350000Y-64221428D01*
X174807142Y-38164285D02*
X177092857Y-38164285D01*
X175950000Y-39307142D02*
X175950000Y-37021428D01*
D10*
X153678571Y-36678571D02*
X154250000Y-36678571D01*
X153892857Y-36178571D02*
X153892857Y-37464285D01*
X153964285Y-37607142D01*
X154107142Y-37678571D01*
X154250000Y-37678571D01*
X154964285Y-37678571D02*
X154821428Y-37607142D01*
X154750000Y-37535714D01*
X154678571Y-37392857D01*
X154678571Y-36964285D01*
X154750000Y-36821428D01*
X154821428Y-36750000D01*
X154964285Y-36678571D01*
X155178571Y-36678571D01*
X155321428Y-36750000D01*
X155392857Y-36821428D01*
X155464285Y-36964285D01*
X155464285Y-37392857D01*
X155392857Y-37535714D01*
X155321428Y-37607142D01*
X155178571Y-37678571D01*
X154964285Y-37678571D01*
X156107142Y-36678571D02*
X156107142Y-38178571D01*
X156107142Y-36750000D02*
X156250000Y-36678571D01*
X156535714Y-36678571D01*
X156678571Y-36750000D01*
X156750000Y-36821428D01*
X156821428Y-36964285D01*
X156821428Y-37392857D01*
X156750000Y-37535714D01*
X156678571Y-37607142D01*
X156535714Y-37678571D01*
X156250000Y-37678571D01*
X156107142Y-37607142D01*
X158535714Y-36107142D02*
X157250000Y-38035714D01*
X159035714Y-37678571D02*
X159035714Y-36178571D01*
X159035714Y-36750000D02*
X159178571Y-36678571D01*
X159464285Y-36678571D01*
X159607142Y-36750000D01*
X159678571Y-36821428D01*
X159750000Y-36964285D01*
X159750000Y-37392857D01*
X159678571Y-37535714D01*
X159607142Y-37607142D01*
X159464285Y-37678571D01*
X159178571Y-37678571D01*
X159035714Y-37607142D01*
X160607142Y-37678571D02*
X160464285Y-37607142D01*
X160392857Y-37535714D01*
X160321428Y-37392857D01*
X160321428Y-36964285D01*
X160392857Y-36821428D01*
X160464285Y-36750000D01*
X160607142Y-36678571D01*
X160821428Y-36678571D01*
X160964285Y-36750000D01*
X161035714Y-36821428D01*
X161107142Y-36964285D01*
X161107142Y-37392857D01*
X161035714Y-37535714D01*
X160964285Y-37607142D01*
X160821428Y-37678571D01*
X160607142Y-37678571D01*
X161535714Y-36678571D02*
X162107142Y-36678571D01*
X161750000Y-36178571D02*
X161750000Y-37464285D01*
X161821428Y-37607142D01*
X161964285Y-37678571D01*
X162107142Y-37678571D01*
X162392857Y-36678571D02*
X162964285Y-36678571D01*
X162607142Y-36178571D02*
X162607142Y-37464285D01*
X162678571Y-37607142D01*
X162821428Y-37678571D01*
X162964285Y-37678571D01*
X163678571Y-37678571D02*
X163535714Y-37607142D01*
X163464285Y-37535714D01*
X163392857Y-37392857D01*
X163392857Y-36964285D01*
X163464285Y-36821428D01*
X163535714Y-36750000D01*
X163678571Y-36678571D01*
X163892857Y-36678571D01*
X164035714Y-36750000D01*
X164107142Y-36821428D01*
X164178571Y-36964285D01*
X164178571Y-37392857D01*
X164107142Y-37535714D01*
X164035714Y-37607142D01*
X163892857Y-37678571D01*
X163678571Y-37678571D01*
X164821428Y-37678571D02*
X164821428Y-36678571D01*
X164821428Y-36821428D02*
X164892857Y-36750000D01*
X165035714Y-36678571D01*
X165250000Y-36678571D01*
X165392857Y-36750000D01*
X165464285Y-36892857D01*
X165464285Y-37678571D01*
X165464285Y-36892857D02*
X165535714Y-36750000D01*
X165678571Y-36678571D01*
X165892857Y-36678571D01*
X166035714Y-36750000D01*
X166107142Y-36892857D01*
X166107142Y-37678571D01*
D12*
G04 #@! TO.C,J3*
X174700000Y-44900000D02*
X174700000Y-43900000D01*
X196700000Y-40400000D02*
X174700000Y-40400000D01*
X174700000Y-48400000D02*
X196700000Y-48400000D01*
X189700000Y-48400000D02*
X189700000Y-40400000D01*
X189700000Y-40400000D02*
X186700000Y-48400000D01*
X186700000Y-48400000D02*
X186700000Y-40400000D01*
X188700000Y-40400000D02*
X186700000Y-45900000D01*
X186700000Y-43400000D02*
X187700000Y-40400000D01*
X188700000Y-48400000D02*
X189700000Y-45900000D01*
X187700000Y-48400000D02*
X189700000Y-43400000D01*
D13*
G04 #@! TO.C,J4*
X154280000Y-43380000D02*
X144920000Y-43380000D01*
X144920000Y-43380000D02*
X144920000Y-53700000D01*
X144920000Y-53700000D02*
X154280000Y-53700000D01*
X154280000Y-43380000D02*
X154280000Y-44950000D01*
X154280000Y-53700000D02*
X154280000Y-52130000D01*
X154280000Y-47050000D02*
X154280000Y-50030000D01*
X148200000Y-43380000D02*
X148200000Y-53700000D01*
X155600000Y-46300000D02*
X155000000Y-46000000D01*
X155000000Y-46000000D02*
X155600000Y-45700000D01*
X155600000Y-45700000D02*
X155600000Y-46300000D01*
D12*
G04 #@! TO.C,J2*
X169679053Y-71264522D02*
X174875861Y-69852718D01*
X170280868Y-72063157D02*
X172879272Y-71357255D01*
X173070416Y-67456811D02*
X176068137Y-66450002D01*
X176669952Y-67248637D02*
X171073827Y-68961349D01*
X169077238Y-70465886D02*
X175466322Y-65651366D01*
X177271767Y-68047273D02*
X169077238Y-70465886D01*
X170882683Y-72861793D02*
X177271767Y-68047273D01*
X161855458Y-60882260D02*
X175095388Y-78452241D01*
X181484473Y-73637721D02*
X168244542Y-56067740D01*
X164650682Y-58775908D02*
X165449318Y-58174092D01*
G04 #@! TO.C,J1*
X153800000Y-64600000D02*
X154800000Y-64600000D01*
X158300000Y-86600000D02*
X158300000Y-64600000D01*
X150300000Y-64600000D02*
X150300000Y-86600000D01*
X150300000Y-79600000D02*
X158300000Y-79600000D01*
X158300000Y-79600000D02*
X150300000Y-76600000D01*
X150300000Y-76600000D02*
X158300000Y-76600000D01*
X158300000Y-78600000D02*
X152800000Y-76600000D01*
X155300000Y-76600000D02*
X158300000Y-77600000D01*
X150300000Y-78600000D02*
X152800000Y-79600000D01*
X150300000Y-77600000D02*
X155300000Y-79600000D01*
G04 #@! TD*
M02*
