G04 #@! TF.GenerationSoftware,KiCad,Pcbnew,(5.0.1)*
G04 #@! TF.CreationDate,2018-11-27T10:01:39+09:00*
G04 #@! TF.ProjectId,center,63656E7465722E6B696361645F706362,rev?*
G04 #@! TF.SameCoordinates,Original*
G04 #@! TF.FileFunction,Soldermask,Bot*
G04 #@! TF.FilePolarity,Negative*
%FSLAX46Y46*%
G04 Gerber Fmt 4.6, Leading zero omitted, Abs format (unit mm)*
G04 Created by KiCad (PCBNEW (5.0.1)) date Tue Nov 27 10:01:39 2018*
%MOMM*%
%LPD*%
G01*
G04 APERTURE LIST*
%ADD10C,0.100000*%
G04 APERTURE END LIST*
D10*
G36*
X104826936Y-118483484D02*
X105018205Y-118562710D01*
X105190347Y-118677732D01*
X105336734Y-118824119D01*
X105451756Y-118996261D01*
X105530982Y-119187530D01*
X105571371Y-119390579D01*
X105571371Y-119597611D01*
X105530982Y-119800660D01*
X105451756Y-119991929D01*
X105336734Y-120164071D01*
X105190347Y-120310458D01*
X105018205Y-120425480D01*
X104826936Y-120504706D01*
X104623887Y-120545095D01*
X104416855Y-120545095D01*
X104213806Y-120504706D01*
X104022537Y-120425480D01*
X103850395Y-120310458D01*
X103704008Y-120164071D01*
X103588986Y-119991929D01*
X103509760Y-119800660D01*
X103469371Y-119597611D01*
X103469371Y-119390579D01*
X103509760Y-119187530D01*
X103588986Y-118996261D01*
X103704008Y-118824119D01*
X103850395Y-118677732D01*
X104022537Y-118562710D01*
X104213806Y-118483484D01*
X104416855Y-118443095D01*
X104623887Y-118443095D01*
X104826936Y-118483484D01*
X104826936Y-118483484D01*
G37*
G36*
X90413040Y-118943169D02*
X90558815Y-119487207D01*
X90587207Y-119593170D01*
X89099012Y-119991930D01*
X88556831Y-120137207D01*
X88556830Y-120137207D01*
X88114737Y-118487290D01*
X88012793Y-118106831D01*
X88012793Y-118106830D01*
X89682556Y-117659419D01*
X90043169Y-117562793D01*
X90043170Y-117562793D01*
X90413040Y-118943169D01*
X90413040Y-118943169D01*
G37*
G36*
X110514035Y-118483484D02*
X110605308Y-118824119D01*
X110637207Y-118943170D01*
X109035899Y-119372238D01*
X108606831Y-119487207D01*
X108606830Y-119487207D01*
X108117076Y-117659419D01*
X108062793Y-117456831D01*
X108062793Y-117456830D01*
X109664101Y-117027762D01*
X110093169Y-116912793D01*
X110093170Y-116912793D01*
X110514035Y-118483484D01*
X110514035Y-118483484D01*
G37*
G36*
X94436194Y-116545294D02*
X94627463Y-116624520D01*
X94799605Y-116739542D01*
X94945992Y-116885929D01*
X95061014Y-117058071D01*
X95140240Y-117249340D01*
X95180629Y-117452389D01*
X95180629Y-117659421D01*
X95140240Y-117862470D01*
X95061014Y-118053739D01*
X94945992Y-118225881D01*
X94799605Y-118372268D01*
X94627463Y-118487290D01*
X94436194Y-118566516D01*
X94233145Y-118606905D01*
X94026113Y-118606905D01*
X93823064Y-118566516D01*
X93631795Y-118487290D01*
X93459653Y-118372268D01*
X93313266Y-118225881D01*
X93198244Y-118053739D01*
X93119018Y-117862470D01*
X93078629Y-117659421D01*
X93078629Y-117452389D01*
X93119018Y-117249340D01*
X93198244Y-117058071D01*
X93313266Y-116885929D01*
X93459653Y-116739542D01*
X93631795Y-116624520D01*
X93823064Y-116545294D01*
X94026113Y-116504905D01*
X94233145Y-116504905D01*
X94436194Y-116545294D01*
X94436194Y-116545294D01*
G37*
G36*
X93823984Y-108064006D02*
X93880559Y-108084738D01*
X94092357Y-108162349D01*
X94214371Y-108236755D01*
X94336385Y-108311159D01*
X94419678Y-108387818D01*
X94546694Y-108504717D01*
X94715199Y-108735585D01*
X94835427Y-108994891D01*
X94835428Y-108994894D01*
X94902757Y-109272666D01*
X94914601Y-109558249D01*
X94870506Y-109840644D01*
X94870505Y-109840646D01*
X94772163Y-110109016D01*
X94745131Y-110153344D01*
X94660641Y-110291898D01*
X93250855Y-112162744D01*
X93105805Y-112320346D01*
X93105801Y-112320350D01*
X92890937Y-112477174D01*
X92874929Y-112488858D01*
X92615628Y-112609084D01*
X92337852Y-112676413D01*
X92310312Y-112677555D01*
X92052274Y-112688258D01*
X91952552Y-112672686D01*
X91769876Y-112644162D01*
X91713301Y-112623430D01*
X91501503Y-112545819D01*
X91257475Y-112397009D01*
X91174182Y-112320350D01*
X91047168Y-112203453D01*
X91047166Y-112203451D01*
X90878661Y-111972583D01*
X90878658Y-111972579D01*
X90758432Y-111713278D01*
X90691103Y-111435502D01*
X90689961Y-111407962D01*
X90679258Y-111149924D01*
X90694830Y-111050202D01*
X90723354Y-110867526D01*
X90745849Y-110806138D01*
X90821697Y-110599153D01*
X90835882Y-110575891D01*
X90933216Y-110416276D01*
X92342999Y-108545430D01*
X92488056Y-108387820D01*
X92488058Y-108387818D01*
X92718925Y-108219313D01*
X92978232Y-108099085D01*
X92978234Y-108099085D01*
X92978235Y-108099084D01*
X93256007Y-108031755D01*
X93363101Y-108027313D01*
X93541585Y-108019911D01*
X93541590Y-108019911D01*
X93823984Y-108064006D01*
X93823984Y-108064006D01*
G37*
G36*
X106716452Y-108030613D02*
X106743992Y-108031755D01*
X107021768Y-108099084D01*
X107281069Y-108219310D01*
X107281073Y-108219313D01*
X107511941Y-108387818D01*
X107511945Y-108387822D01*
X107656995Y-108545424D01*
X109066781Y-110416270D01*
X109151271Y-110554824D01*
X109178303Y-110599152D01*
X109178303Y-110599153D01*
X109276646Y-110867524D01*
X109320741Y-111149919D01*
X109308897Y-111435502D01*
X109241568Y-111713274D01*
X109241567Y-111713277D01*
X109121339Y-111972583D01*
X108952834Y-112203451D01*
X108856779Y-112291854D01*
X108742525Y-112397009D01*
X108498497Y-112545819D01*
X108286699Y-112623430D01*
X108230124Y-112644162D01*
X107947730Y-112688257D01*
X107947725Y-112688257D01*
X107769241Y-112680854D01*
X107662147Y-112676413D01*
X107384375Y-112609084D01*
X107384374Y-112609083D01*
X107384372Y-112609083D01*
X107125065Y-112488855D01*
X106894198Y-112320350D01*
X106786610Y-112203452D01*
X106749139Y-112162738D01*
X105339356Y-110291892D01*
X105227839Y-110109018D01*
X105227837Y-110109015D01*
X105151581Y-109900915D01*
X105129494Y-109840642D01*
X105100970Y-109657966D01*
X105085398Y-109558244D01*
X105097243Y-109272669D01*
X105097243Y-109272666D01*
X105164572Y-108994890D01*
X105284798Y-108735589D01*
X105423595Y-108545424D01*
X105453306Y-108504717D01*
X105580320Y-108387820D01*
X105663615Y-108311159D01*
X105907643Y-108162349D01*
X106119441Y-108084738D01*
X106176016Y-108064006D01*
X106382558Y-108031755D01*
X106458414Y-108019910D01*
X106716452Y-108030613D01*
X106716452Y-108030613D01*
G37*
G36*
X90230124Y-105355838D02*
X90286699Y-105376570D01*
X90498497Y-105454181D01*
X90742525Y-105602991D01*
X90825818Y-105679650D01*
X90952834Y-105796549D01*
X91121339Y-106027417D01*
X91241567Y-106286723D01*
X91241568Y-106286726D01*
X91308897Y-106564498D01*
X91320741Y-106850081D01*
X91276646Y-107132476D01*
X91276645Y-107132478D01*
X91178303Y-107400848D01*
X91151271Y-107445176D01*
X91066781Y-107583730D01*
X89656995Y-109454576D01*
X89511945Y-109612178D01*
X89511941Y-109612182D01*
X89297077Y-109769006D01*
X89281069Y-109780690D01*
X89021768Y-109900916D01*
X88743992Y-109968245D01*
X88716452Y-109969387D01*
X88458414Y-109980090D01*
X88358692Y-109964518D01*
X88176016Y-109935994D01*
X88119441Y-109915262D01*
X87907643Y-109837651D01*
X87663615Y-109688841D01*
X87580322Y-109612182D01*
X87453308Y-109495285D01*
X87453306Y-109495283D01*
X87284801Y-109264415D01*
X87284798Y-109264411D01*
X87164572Y-109005110D01*
X87097243Y-108727334D01*
X87096101Y-108699794D01*
X87085398Y-108441756D01*
X87105791Y-108311159D01*
X87129494Y-108159358D01*
X87176253Y-108031755D01*
X87227837Y-107890985D01*
X87242022Y-107867723D01*
X87339356Y-107708108D01*
X88749139Y-105837262D01*
X88894196Y-105679652D01*
X88894198Y-105679650D01*
X89125065Y-105511145D01*
X89384372Y-105390917D01*
X89384374Y-105390917D01*
X89384375Y-105390916D01*
X89662147Y-105323587D01*
X89769241Y-105319145D01*
X89947725Y-105311743D01*
X89947730Y-105311743D01*
X90230124Y-105355838D01*
X90230124Y-105355838D01*
G37*
G36*
X110310312Y-105322445D02*
X110337852Y-105323587D01*
X110615628Y-105390916D01*
X110874929Y-105511142D01*
X110874933Y-105511145D01*
X111105801Y-105679650D01*
X111105805Y-105679654D01*
X111250855Y-105837256D01*
X112660641Y-107708102D01*
X112745131Y-107846656D01*
X112772163Y-107890984D01*
X112835566Y-108064007D01*
X112870506Y-108159356D01*
X112914601Y-108441751D01*
X112902757Y-108727334D01*
X112837904Y-108994890D01*
X112835427Y-109005109D01*
X112715199Y-109264415D01*
X112546694Y-109495283D01*
X112478279Y-109558248D01*
X112336385Y-109688841D01*
X112214371Y-109763245D01*
X112092357Y-109837651D01*
X111880559Y-109915262D01*
X111823984Y-109935994D01*
X111541590Y-109980089D01*
X111541585Y-109980089D01*
X111363101Y-109972686D01*
X111256007Y-109968245D01*
X110978235Y-109900916D01*
X110978234Y-109900915D01*
X110978232Y-109900915D01*
X110718925Y-109780687D01*
X110488058Y-109612182D01*
X110488054Y-109612178D01*
X110342999Y-109454570D01*
X108933216Y-107583724D01*
X108821699Y-107400850D01*
X108821697Y-107400847D01*
X108745849Y-107193862D01*
X108723354Y-107132474D01*
X108679259Y-106850080D01*
X108679258Y-106850076D01*
X108691103Y-106564501D01*
X108691103Y-106564498D01*
X108758432Y-106286722D01*
X108878658Y-106027421D01*
X109017455Y-105837256D01*
X109047166Y-105796549D01*
X109174180Y-105679652D01*
X109257475Y-105602991D01*
X109501503Y-105454181D01*
X109713301Y-105376570D01*
X109769876Y-105355838D01*
X109976418Y-105323587D01*
X110052274Y-105311742D01*
X110310312Y-105322445D01*
X110310312Y-105322445D01*
G37*
G36*
X83240443Y-95855519D02*
X83306627Y-95862037D01*
X83419853Y-95896384D01*
X83476467Y-95913557D01*
X83615087Y-95987652D01*
X83632991Y-95997222D01*
X83668729Y-96026552D01*
X83770186Y-96109814D01*
X83853448Y-96211271D01*
X83882778Y-96247009D01*
X83882779Y-96247011D01*
X83966443Y-96403533D01*
X83966443Y-96403534D01*
X84017963Y-96573373D01*
X84035359Y-96750000D01*
X84017963Y-96926627D01*
X83983616Y-97039853D01*
X83966443Y-97096467D01*
X83892348Y-97235087D01*
X83882778Y-97252991D01*
X83853448Y-97288729D01*
X83770186Y-97390186D01*
X83668729Y-97473448D01*
X83632991Y-97502778D01*
X83632989Y-97502779D01*
X83476467Y-97586443D01*
X83419853Y-97603616D01*
X83306627Y-97637963D01*
X83240442Y-97644482D01*
X83174260Y-97651000D01*
X83085740Y-97651000D01*
X83019558Y-97644482D01*
X82953373Y-97637963D01*
X82840147Y-97603616D01*
X82783533Y-97586443D01*
X82627011Y-97502779D01*
X82627009Y-97502778D01*
X82591271Y-97473448D01*
X82489814Y-97390186D01*
X82406552Y-97288729D01*
X82377222Y-97252991D01*
X82367652Y-97235087D01*
X82293557Y-97096467D01*
X82276384Y-97039853D01*
X82242037Y-96926627D01*
X82224641Y-96750000D01*
X82242037Y-96573373D01*
X82293557Y-96403534D01*
X82293557Y-96403533D01*
X82377221Y-96247011D01*
X82377222Y-96247009D01*
X82406552Y-96211271D01*
X82489814Y-96109814D01*
X82591271Y-96026552D01*
X82627009Y-95997222D01*
X82644913Y-95987652D01*
X82783533Y-95913557D01*
X82840147Y-95896384D01*
X82953373Y-95862037D01*
X83019557Y-95855519D01*
X83085740Y-95849000D01*
X83174260Y-95849000D01*
X83240443Y-95855519D01*
X83240443Y-95855519D01*
G37*
G36*
X91651000Y-97651000D02*
X89849000Y-97651000D01*
X89849000Y-95849000D01*
X91651000Y-95849000D01*
X91651000Y-97651000D01*
X91651000Y-97651000D01*
G37*
G36*
X88320443Y-95855519D02*
X88386627Y-95862037D01*
X88499853Y-95896384D01*
X88556467Y-95913557D01*
X88695087Y-95987652D01*
X88712991Y-95997222D01*
X88748729Y-96026552D01*
X88850186Y-96109814D01*
X88933448Y-96211271D01*
X88962778Y-96247009D01*
X88962779Y-96247011D01*
X89046443Y-96403533D01*
X89046443Y-96403534D01*
X89097963Y-96573373D01*
X89115359Y-96750000D01*
X89097963Y-96926627D01*
X89063616Y-97039853D01*
X89046443Y-97096467D01*
X88972348Y-97235087D01*
X88962778Y-97252991D01*
X88933448Y-97288729D01*
X88850186Y-97390186D01*
X88748729Y-97473448D01*
X88712991Y-97502778D01*
X88712989Y-97502779D01*
X88556467Y-97586443D01*
X88499853Y-97603616D01*
X88386627Y-97637963D01*
X88320442Y-97644482D01*
X88254260Y-97651000D01*
X88165740Y-97651000D01*
X88099558Y-97644482D01*
X88033373Y-97637963D01*
X87920147Y-97603616D01*
X87863533Y-97586443D01*
X87707011Y-97502779D01*
X87707009Y-97502778D01*
X87671271Y-97473448D01*
X87569814Y-97390186D01*
X87486552Y-97288729D01*
X87457222Y-97252991D01*
X87447652Y-97235087D01*
X87373557Y-97096467D01*
X87356384Y-97039853D01*
X87322037Y-96926627D01*
X87304641Y-96750000D01*
X87322037Y-96573373D01*
X87373557Y-96403534D01*
X87373557Y-96403533D01*
X87457221Y-96247011D01*
X87457222Y-96247009D01*
X87486552Y-96211271D01*
X87569814Y-96109814D01*
X87671271Y-96026552D01*
X87707009Y-95997222D01*
X87724913Y-95987652D01*
X87863533Y-95913557D01*
X87920147Y-95896384D01*
X88033373Y-95862037D01*
X88099557Y-95855519D01*
X88165740Y-95849000D01*
X88254260Y-95849000D01*
X88320443Y-95855519D01*
X88320443Y-95855519D01*
G37*
G36*
X85780444Y-95855519D02*
X85846628Y-95862037D01*
X85959854Y-95896384D01*
X86016468Y-95913557D01*
X86155088Y-95987652D01*
X86172992Y-95997222D01*
X86208730Y-96026552D01*
X86310187Y-96109814D01*
X86393449Y-96211271D01*
X86422779Y-96247009D01*
X86422780Y-96247011D01*
X86506444Y-96403533D01*
X86506444Y-96403534D01*
X86557964Y-96573373D01*
X86575360Y-96750000D01*
X86557964Y-96926627D01*
X86523617Y-97039853D01*
X86506444Y-97096467D01*
X86432349Y-97235087D01*
X86422779Y-97252991D01*
X86393449Y-97288729D01*
X86310187Y-97390186D01*
X86208730Y-97473448D01*
X86172992Y-97502778D01*
X86172990Y-97502779D01*
X86016468Y-97586443D01*
X85959854Y-97603616D01*
X85846628Y-97637963D01*
X85780443Y-97644482D01*
X85714261Y-97651000D01*
X85625741Y-97651000D01*
X85559559Y-97644482D01*
X85493374Y-97637963D01*
X85380148Y-97603616D01*
X85323534Y-97586443D01*
X85167012Y-97502779D01*
X85167010Y-97502778D01*
X85131272Y-97473448D01*
X85029815Y-97390186D01*
X84946553Y-97288729D01*
X84917223Y-97252991D01*
X84907653Y-97235087D01*
X84833558Y-97096467D01*
X84816385Y-97039853D01*
X84782038Y-96926627D01*
X84764642Y-96750000D01*
X84782038Y-96573373D01*
X84833558Y-96403534D01*
X84833558Y-96403533D01*
X84917222Y-96247011D01*
X84917223Y-96247009D01*
X84946553Y-96211271D01*
X85029815Y-96109814D01*
X85131272Y-96026552D01*
X85167010Y-95997222D01*
X85184914Y-95987652D01*
X85323534Y-95913557D01*
X85380148Y-95896384D01*
X85493374Y-95862037D01*
X85559558Y-95855519D01*
X85625741Y-95849000D01*
X85714261Y-95849000D01*
X85780444Y-95855519D01*
X85780444Y-95855519D01*
G37*
G36*
X111823984Y-90064006D02*
X111880559Y-90084738D01*
X112092357Y-90162349D01*
X112214371Y-90236755D01*
X112336385Y-90311159D01*
X112419678Y-90387818D01*
X112546694Y-90504717D01*
X112715199Y-90735585D01*
X112835427Y-90994891D01*
X112835428Y-90994894D01*
X112902757Y-91272666D01*
X112914601Y-91558249D01*
X112870506Y-91840644D01*
X112870505Y-91840646D01*
X112772163Y-92109016D01*
X112745131Y-92153344D01*
X112660641Y-92291898D01*
X111250855Y-94162744D01*
X111105805Y-94320346D01*
X111105801Y-94320350D01*
X110890937Y-94477174D01*
X110874929Y-94488858D01*
X110615628Y-94609084D01*
X110337852Y-94676413D01*
X110310312Y-94677555D01*
X110052274Y-94688258D01*
X109952552Y-94672686D01*
X109769876Y-94644162D01*
X109713301Y-94623430D01*
X109501503Y-94545819D01*
X109257475Y-94397009D01*
X109174182Y-94320350D01*
X109047168Y-94203453D01*
X109047166Y-94203451D01*
X108878661Y-93972583D01*
X108878658Y-93972579D01*
X108758432Y-93713278D01*
X108691103Y-93435502D01*
X108689961Y-93407962D01*
X108679258Y-93149924D01*
X108694830Y-93050202D01*
X108723354Y-92867526D01*
X108745849Y-92806138D01*
X108821697Y-92599153D01*
X108835882Y-92575891D01*
X108933216Y-92416276D01*
X110342999Y-90545430D01*
X110488056Y-90387820D01*
X110488058Y-90387818D01*
X110718925Y-90219313D01*
X110978232Y-90099085D01*
X110978234Y-90099085D01*
X110978235Y-90099084D01*
X111256007Y-90031755D01*
X111363101Y-90027313D01*
X111541585Y-90019911D01*
X111541590Y-90019911D01*
X111823984Y-90064006D01*
X111823984Y-90064006D01*
G37*
G36*
X88716452Y-90030613D02*
X88743992Y-90031755D01*
X89021768Y-90099084D01*
X89281069Y-90219310D01*
X89281073Y-90219313D01*
X89511941Y-90387818D01*
X89511945Y-90387822D01*
X89656995Y-90545424D01*
X91066781Y-92416270D01*
X91151271Y-92554824D01*
X91178303Y-92599152D01*
X91178303Y-92599153D01*
X91276646Y-92867524D01*
X91320741Y-93149919D01*
X91308897Y-93435502D01*
X91241568Y-93713274D01*
X91241567Y-93713277D01*
X91121339Y-93972583D01*
X90952834Y-94203451D01*
X90856779Y-94291854D01*
X90742525Y-94397009D01*
X90498497Y-94545819D01*
X90286699Y-94623430D01*
X90230124Y-94644162D01*
X89947730Y-94688257D01*
X89947725Y-94688257D01*
X89769241Y-94680854D01*
X89662147Y-94676413D01*
X89384375Y-94609084D01*
X89384374Y-94609083D01*
X89384372Y-94609083D01*
X89125065Y-94488855D01*
X88894198Y-94320350D01*
X88786610Y-94203452D01*
X88749139Y-94162738D01*
X87339356Y-92291892D01*
X87227839Y-92109018D01*
X87227837Y-92109015D01*
X87151581Y-91900915D01*
X87129494Y-91840642D01*
X87100970Y-91657966D01*
X87085398Y-91558244D01*
X87097243Y-91272669D01*
X87097243Y-91272666D01*
X87164572Y-90994890D01*
X87284798Y-90735589D01*
X87423595Y-90545424D01*
X87453306Y-90504717D01*
X87580320Y-90387820D01*
X87663615Y-90311159D01*
X87907643Y-90162349D01*
X88119441Y-90084738D01*
X88176016Y-90064006D01*
X88382558Y-90031755D01*
X88458414Y-90019910D01*
X88716452Y-90030613D01*
X88716452Y-90030613D01*
G37*
G36*
X108230124Y-87355838D02*
X108286699Y-87376570D01*
X108498497Y-87454181D01*
X108620511Y-87528587D01*
X108742525Y-87602991D01*
X108825818Y-87679650D01*
X108952834Y-87796549D01*
X109121339Y-88027417D01*
X109241567Y-88286723D01*
X109241568Y-88286726D01*
X109308897Y-88564498D01*
X109320741Y-88850081D01*
X109276646Y-89132476D01*
X109276645Y-89132478D01*
X109178303Y-89400848D01*
X109151271Y-89445176D01*
X109066781Y-89583730D01*
X107656995Y-91454576D01*
X107511945Y-91612178D01*
X107511941Y-91612182D01*
X107297077Y-91769006D01*
X107281069Y-91780690D01*
X107021768Y-91900916D01*
X106743992Y-91968245D01*
X106716452Y-91969387D01*
X106458414Y-91980090D01*
X106358692Y-91964518D01*
X106176016Y-91935994D01*
X106119441Y-91915262D01*
X105907643Y-91837651D01*
X105663615Y-91688841D01*
X105580322Y-91612182D01*
X105453308Y-91495285D01*
X105453306Y-91495283D01*
X105284801Y-91264415D01*
X105284798Y-91264411D01*
X105164572Y-91005110D01*
X105097243Y-90727334D01*
X105096101Y-90699794D01*
X105085398Y-90441756D01*
X105105791Y-90311159D01*
X105129494Y-90159358D01*
X105176253Y-90031755D01*
X105227837Y-89890985D01*
X105242022Y-89867723D01*
X105339356Y-89708108D01*
X106749139Y-87837262D01*
X106894196Y-87679652D01*
X106894198Y-87679650D01*
X107125065Y-87511145D01*
X107384372Y-87390917D01*
X107384374Y-87390917D01*
X107384375Y-87390916D01*
X107662147Y-87323587D01*
X107769241Y-87319145D01*
X107947725Y-87311743D01*
X107947730Y-87311743D01*
X108230124Y-87355838D01*
X108230124Y-87355838D01*
G37*
G36*
X92310312Y-87322445D02*
X92337852Y-87323587D01*
X92615628Y-87390916D01*
X92874929Y-87511142D01*
X92874933Y-87511145D01*
X93105801Y-87679650D01*
X93105805Y-87679654D01*
X93250855Y-87837256D01*
X94660641Y-89708102D01*
X94745131Y-89846656D01*
X94772163Y-89890984D01*
X94835566Y-90064007D01*
X94870506Y-90159356D01*
X94914601Y-90441751D01*
X94902757Y-90727334D01*
X94837904Y-90994890D01*
X94835427Y-91005109D01*
X94715199Y-91264415D01*
X94546694Y-91495283D01*
X94478279Y-91558248D01*
X94336385Y-91688841D01*
X94214371Y-91763245D01*
X94092357Y-91837651D01*
X93880559Y-91915262D01*
X93823984Y-91935994D01*
X93541590Y-91980089D01*
X93541585Y-91980089D01*
X93363101Y-91972686D01*
X93256007Y-91968245D01*
X92978235Y-91900916D01*
X92978234Y-91900915D01*
X92978232Y-91900915D01*
X92718925Y-91780687D01*
X92488058Y-91612182D01*
X92488054Y-91612178D01*
X92342999Y-91454570D01*
X90933216Y-89583724D01*
X90821699Y-89400850D01*
X90821697Y-89400847D01*
X90745849Y-89193862D01*
X90723354Y-89132474D01*
X90679259Y-88850080D01*
X90679258Y-88850076D01*
X90691103Y-88564501D01*
X90691103Y-88564498D01*
X90758432Y-88286722D01*
X90878658Y-88027421D01*
X91017455Y-87837256D01*
X91047166Y-87796549D01*
X91174180Y-87679652D01*
X91257475Y-87602991D01*
X91501503Y-87454181D01*
X91713301Y-87376570D01*
X91769876Y-87355838D01*
X91976418Y-87323587D01*
X92052274Y-87311742D01*
X92310312Y-87322445D01*
X92310312Y-87322445D01*
G37*
M02*
