M48
;DRILL file {KiCad (5.0.1)} date Tue Nov 27 10:01:33 2018
;FORMAT={-:-/ absolute / inch / decimal}
FMAT,2
INCH,TZ
T1C0.0157
T2C0.0236
T3C0.0394
%
G90
G05
M72
T1
X3.6594Y-3.6732
X3.6732Y-3.3701
X3.9547Y-4.1289
X3.9843Y-4.063
X3.9852Y-4.0197
X3.9961Y-4.1299
X4.2707Y-4.1516
X4.6063Y-4.0315
X4.6181Y-3.9783
T2
X3.3426Y-4.0023
X3.378Y-4.3996
X3.4626Y-3.3933
X3.7067Y-3.2441
X3.8327Y-4.1319
X3.8661Y-3.2303
X3.8937Y-3.7756
X3.9055Y-4.1102
X3.9173Y-3.9242
X3.9685Y-3.8563
X3.9705Y-3.9744
X4.0866Y-3.2776
X4.1437Y-3.6378
X4.2028Y-3.9134
X4.3996Y-3.3913
T3
X3.0512Y-3.9567
X3.0885Y-3.682
X3.1006Y-4.2295
X3.2088Y-3.4323
X3.2319Y-4.4736
X3.4004Y-3.2319
X3.4323Y-4.6652
X3.5177Y-4.3681
X3.5246Y-4.4819
X3.6446Y-3.1006
X3.682Y-4.7856
X3.7244Y-3.4646
X3.747Y-4.1171
X3.8248Y-4.3976
X3.9173Y-3.0512
X3.9567Y-4.8228
X4.0955Y-4.3459
X4.1831Y-3.3268
X4.192Y-3.0885
X4.2295Y-4.7734
X4.4232Y-3.9764
X4.4418Y-3.2088
X4.4705Y-4.1575
X4.4736Y-4.6421
X4.5079Y-3.6063
X4.6421Y-3.4004
X4.6652Y-4.4418
X4.7734Y-3.6446
X4.7856Y-4.192
X4.8228Y-3.9173
X3.5157Y-4.6791
X3.7059Y-4.6282
X4.115Y-4.7045
X4.3051Y-4.6535
X3.2728Y-3.8091
X3.3728Y-3.8091
X3.4728Y-3.8091
X3.5728Y-3.8091
T0
M30
