<?xml version="1.0" encoding="utf-8" standalone="no"?>
<!DOCTYPE svg PUBLIC "-//W3C//DTD SVG 1.1//EN"
  "http://www.w3.org/Graphics/SVG/1.1/DTD/svg11.dtd">
<!-- Created with matplotlib (http://matplotlib.org/) -->
<svg height="324pt" version="1.1" viewBox="0 0 576 324" width="576pt" xmlns="http://www.w3.org/2000/svg" xmlns:xlink="http://www.w3.org/1999/xlink">
 <defs>
  <style type="text/css">
*{stroke-linecap:butt;stroke-linejoin:round;}
  </style>
 </defs>
 <g id="figure_1">
  <g id="patch_1">
   <path d="M 0 324 
L 576 324 
L 576 0 
L 0 0 
z
" style="fill:#ffffff;"/>
  </g>
  <g id="axes_1">
   <g id="patch_2">
    <path d="M 72 161.19 
L 518.4 161.19 
L 518.4 38.88 
L 72 38.88 
z
" style="fill:#ffffff;"/>
   </g>
   <g id="matplotlib.axis_1">
    <g id="xtick_1">
     <g id="line2d_1">
      <path clip-path="url(#pf8e72e427c)" d="M 92.290909 161.19 
L 92.290909 38.88 
" style="fill:none;stroke:#08bdf9;stroke-dasharray:0.8,1.32;stroke-dashoffset:0;stroke-width:0.8;"/>
     </g>
     <g id="line2d_2">
      <defs>
       <path d="M 0 0 
L 0 3.5 
" id="mcc862fe01a" style="stroke:#01769d;stroke-width:0.8;"/>
      </defs>
      <g>
       <use style="fill:#01769d;stroke:#01769d;stroke-width:0.8;" x="92.290909" xlink:href="#mcc862fe01a" y="161.19"/>
      </g>
     </g>
    </g>
    <g id="xtick_2">
     <g id="line2d_3">
      <path clip-path="url(#pf8e72e427c)" d="M 150.264935 161.19 
L 150.264935 38.88 
" style="fill:none;stroke:#08bdf9;stroke-dasharray:0.8,1.32;stroke-dashoffset:0;stroke-width:0.8;"/>
     </g>
     <g id="line2d_4">
      <g>
       <use style="fill:#01769d;stroke:#01769d;stroke-width:0.8;" x="150.264935" xlink:href="#mcc862fe01a" y="161.19"/>
      </g>
     </g>
    </g>
    <g id="xtick_3">
     <g id="line2d_5">
      <path clip-path="url(#pf8e72e427c)" d="M 208.238961 161.19 
L 208.238961 38.88 
" style="fill:none;stroke:#08bdf9;stroke-dasharray:0.8,1.32;stroke-dashoffset:0;stroke-width:0.8;"/>
     </g>
     <g id="line2d_6">
      <g>
       <use style="fill:#01769d;stroke:#01769d;stroke-width:0.8;" x="208.238961" xlink:href="#mcc862fe01a" y="161.19"/>
      </g>
     </g>
    </g>
    <g id="xtick_4">
     <g id="line2d_7">
      <path clip-path="url(#pf8e72e427c)" d="M 266.212987 161.19 
L 266.212987 38.88 
" style="fill:none;stroke:#08bdf9;stroke-dasharray:0.8,1.32;stroke-dashoffset:0;stroke-width:0.8;"/>
     </g>
     <g id="line2d_8">
      <g>
       <use style="fill:#01769d;stroke:#01769d;stroke-width:0.8;" x="266.212987" xlink:href="#mcc862fe01a" y="161.19"/>
      </g>
     </g>
    </g>
    <g id="xtick_5">
     <g id="line2d_9">
      <path clip-path="url(#pf8e72e427c)" d="M 324.187013 161.19 
L 324.187013 38.88 
" style="fill:none;stroke:#08bdf9;stroke-dasharray:0.8,1.32;stroke-dashoffset:0;stroke-width:0.8;"/>
     </g>
     <g id="line2d_10">
      <g>
       <use style="fill:#01769d;stroke:#01769d;stroke-width:0.8;" x="324.187013" xlink:href="#mcc862fe01a" y="161.19"/>
      </g>
     </g>
    </g>
    <g id="xtick_6">
     <g id="line2d_11">
      <path clip-path="url(#pf8e72e427c)" d="M 382.161039 161.19 
L 382.161039 38.88 
" style="fill:none;stroke:#08bdf9;stroke-dasharray:0.8,1.32;stroke-dashoffset:0;stroke-width:0.8;"/>
     </g>
     <g id="line2d_12">
      <g>
       <use style="fill:#01769d;stroke:#01769d;stroke-width:0.8;" x="382.161039" xlink:href="#mcc862fe01a" y="161.19"/>
      </g>
     </g>
    </g>
    <g id="xtick_7">
     <g id="line2d_13">
      <path clip-path="url(#pf8e72e427c)" d="M 440.135065 161.19 
L 440.135065 38.88 
" style="fill:none;stroke:#08bdf9;stroke-dasharray:0.8,1.32;stroke-dashoffset:0;stroke-width:0.8;"/>
     </g>
     <g id="line2d_14">
      <g>
       <use style="fill:#01769d;stroke:#01769d;stroke-width:0.8;" x="440.135065" xlink:href="#mcc862fe01a" y="161.19"/>
      </g>
     </g>
    </g>
    <g id="xtick_8">
     <g id="line2d_15">
      <path clip-path="url(#pf8e72e427c)" d="M 498.109091 161.19 
L 498.109091 38.88 
" style="fill:none;stroke:#08bdf9;stroke-dasharray:0.8,1.32;stroke-dashoffset:0;stroke-width:0.8;"/>
     </g>
     <g id="line2d_16">
      <g>
       <use style="fill:#01769d;stroke:#01769d;stroke-width:0.8;" x="498.109091" xlink:href="#mcc862fe01a" y="161.19"/>
      </g>
     </g>
    </g>
    <g id="xtick_9">
     <g id="line2d_17">
      <defs>
       <path d="M 0 0 
L 0 2 
" id="mff5bd7f183" style="stroke:#000000;stroke-width:0.6;"/>
      </defs>
      <g>
       <use style="stroke:#000000;stroke-width:0.6;" x="80.696104" xlink:href="#mff5bd7f183" y="161.19"/>
      </g>
     </g>
    </g>
    <g id="xtick_10">
     <g id="line2d_18">
      <g>
       <use style="stroke:#000000;stroke-width:0.6;" x="92.290909" xlink:href="#mff5bd7f183" y="161.19"/>
      </g>
     </g>
    </g>
    <g id="xtick_11">
     <g id="line2d_19">
      <g>
       <use style="stroke:#000000;stroke-width:0.6;" x="103.885714" xlink:href="#mff5bd7f183" y="161.19"/>
      </g>
     </g>
    </g>
    <g id="xtick_12">
     <g id="line2d_20">
      <g>
       <use style="stroke:#000000;stroke-width:0.6;" x="115.480519" xlink:href="#mff5bd7f183" y="161.19"/>
      </g>
     </g>
    </g>
    <g id="xtick_13">
     <g id="line2d_21">
      <g>
       <use style="stroke:#000000;stroke-width:0.6;" x="127.075325" xlink:href="#mff5bd7f183" y="161.19"/>
      </g>
     </g>
    </g>
    <g id="xtick_14">
     <g id="line2d_22">
      <g>
       <use style="stroke:#000000;stroke-width:0.6;" x="138.67013" xlink:href="#mff5bd7f183" y="161.19"/>
      </g>
     </g>
    </g>
    <g id="xtick_15">
     <g id="line2d_23">
      <g>
       <use style="stroke:#000000;stroke-width:0.6;" x="150.264935" xlink:href="#mff5bd7f183" y="161.19"/>
      </g>
     </g>
    </g>
    <g id="xtick_16">
     <g id="line2d_24">
      <g>
       <use style="stroke:#000000;stroke-width:0.6;" x="161.85974" xlink:href="#mff5bd7f183" y="161.19"/>
      </g>
     </g>
    </g>
    <g id="xtick_17">
     <g id="line2d_25">
      <g>
       <use style="stroke:#000000;stroke-width:0.6;" x="173.454545" xlink:href="#mff5bd7f183" y="161.19"/>
      </g>
     </g>
    </g>
    <g id="xtick_18">
     <g id="line2d_26">
      <g>
       <use style="stroke:#000000;stroke-width:0.6;" x="185.049351" xlink:href="#mff5bd7f183" y="161.19"/>
      </g>
     </g>
    </g>
    <g id="xtick_19">
     <g id="line2d_27">
      <g>
       <use style="stroke:#000000;stroke-width:0.6;" x="196.644156" xlink:href="#mff5bd7f183" y="161.19"/>
      </g>
     </g>
    </g>
    <g id="xtick_20">
     <g id="line2d_28">
      <g>
       <use style="stroke:#000000;stroke-width:0.6;" x="208.238961" xlink:href="#mff5bd7f183" y="161.19"/>
      </g>
     </g>
    </g>
    <g id="xtick_21">
     <g id="line2d_29">
      <g>
       <use style="stroke:#000000;stroke-width:0.6;" x="219.833766" xlink:href="#mff5bd7f183" y="161.19"/>
      </g>
     </g>
    </g>
    <g id="xtick_22">
     <g id="line2d_30">
      <g>
       <use style="stroke:#000000;stroke-width:0.6;" x="231.428571" xlink:href="#mff5bd7f183" y="161.19"/>
      </g>
     </g>
    </g>
    <g id="xtick_23">
     <g id="line2d_31">
      <g>
       <use style="stroke:#000000;stroke-width:0.6;" x="243.023377" xlink:href="#mff5bd7f183" y="161.19"/>
      </g>
     </g>
    </g>
    <g id="xtick_24">
     <g id="line2d_32">
      <g>
       <use style="stroke:#000000;stroke-width:0.6;" x="254.618182" xlink:href="#mff5bd7f183" y="161.19"/>
      </g>
     </g>
    </g>
    <g id="xtick_25">
     <g id="line2d_33">
      <g>
       <use style="stroke:#000000;stroke-width:0.6;" x="266.212987" xlink:href="#mff5bd7f183" y="161.19"/>
      </g>
     </g>
    </g>
    <g id="xtick_26">
     <g id="line2d_34">
      <g>
       <use style="stroke:#000000;stroke-width:0.6;" x="277.807792" xlink:href="#mff5bd7f183" y="161.19"/>
      </g>
     </g>
    </g>
    <g id="xtick_27">
     <g id="line2d_35">
      <g>
       <use style="stroke:#000000;stroke-width:0.6;" x="289.402597" xlink:href="#mff5bd7f183" y="161.19"/>
      </g>
     </g>
    </g>
    <g id="xtick_28">
     <g id="line2d_36">
      <g>
       <use style="stroke:#000000;stroke-width:0.6;" x="300.997403" xlink:href="#mff5bd7f183" y="161.19"/>
      </g>
     </g>
    </g>
    <g id="xtick_29">
     <g id="line2d_37">
      <g>
       <use style="stroke:#000000;stroke-width:0.6;" x="312.592208" xlink:href="#mff5bd7f183" y="161.19"/>
      </g>
     </g>
    </g>
    <g id="xtick_30">
     <g id="line2d_38">
      <g>
       <use style="stroke:#000000;stroke-width:0.6;" x="324.187013" xlink:href="#mff5bd7f183" y="161.19"/>
      </g>
     </g>
    </g>
    <g id="xtick_31">
     <g id="line2d_39">
      <g>
       <use style="stroke:#000000;stroke-width:0.6;" x="335.781818" xlink:href="#mff5bd7f183" y="161.19"/>
      </g>
     </g>
    </g>
    <g id="xtick_32">
     <g id="line2d_40">
      <g>
       <use style="stroke:#000000;stroke-width:0.6;" x="347.376623" xlink:href="#mff5bd7f183" y="161.19"/>
      </g>
     </g>
    </g>
    <g id="xtick_33">
     <g id="line2d_41">
      <g>
       <use style="stroke:#000000;stroke-width:0.6;" x="358.971429" xlink:href="#mff5bd7f183" y="161.19"/>
      </g>
     </g>
    </g>
    <g id="xtick_34">
     <g id="line2d_42">
      <g>
       <use style="stroke:#000000;stroke-width:0.6;" x="370.566234" xlink:href="#mff5bd7f183" y="161.19"/>
      </g>
     </g>
    </g>
    <g id="xtick_35">
     <g id="line2d_43">
      <g>
       <use style="stroke:#000000;stroke-width:0.6;" x="382.161039" xlink:href="#mff5bd7f183" y="161.19"/>
      </g>
     </g>
    </g>
    <g id="xtick_36">
     <g id="line2d_44">
      <g>
       <use style="stroke:#000000;stroke-width:0.6;" x="393.755844" xlink:href="#mff5bd7f183" y="161.19"/>
      </g>
     </g>
    </g>
    <g id="xtick_37">
     <g id="line2d_45">
      <g>
       <use style="stroke:#000000;stroke-width:0.6;" x="405.350649" xlink:href="#mff5bd7f183" y="161.19"/>
      </g>
     </g>
    </g>
    <g id="xtick_38">
     <g id="line2d_46">
      <g>
       <use style="stroke:#000000;stroke-width:0.6;" x="416.945455" xlink:href="#mff5bd7f183" y="161.19"/>
      </g>
     </g>
    </g>
    <g id="xtick_39">
     <g id="line2d_47">
      <g>
       <use style="stroke:#000000;stroke-width:0.6;" x="428.54026" xlink:href="#mff5bd7f183" y="161.19"/>
      </g>
     </g>
    </g>
    <g id="xtick_40">
     <g id="line2d_48">
      <g>
       <use style="stroke:#000000;stroke-width:0.6;" x="440.135065" xlink:href="#mff5bd7f183" y="161.19"/>
      </g>
     </g>
    </g>
    <g id="xtick_41">
     <g id="line2d_49">
      <g>
       <use style="stroke:#000000;stroke-width:0.6;" x="451.72987" xlink:href="#mff5bd7f183" y="161.19"/>
      </g>
     </g>
    </g>
    <g id="xtick_42">
     <g id="line2d_50">
      <g>
       <use style="stroke:#000000;stroke-width:0.6;" x="463.324675" xlink:href="#mff5bd7f183" y="161.19"/>
      </g>
     </g>
    </g>
    <g id="xtick_43">
     <g id="line2d_51">
      <g>
       <use style="stroke:#000000;stroke-width:0.6;" x="474.919481" xlink:href="#mff5bd7f183" y="161.19"/>
      </g>
     </g>
    </g>
    <g id="xtick_44">
     <g id="line2d_52">
      <g>
       <use style="stroke:#000000;stroke-width:0.6;" x="486.514286" xlink:href="#mff5bd7f183" y="161.19"/>
      </g>
     </g>
    </g>
    <g id="xtick_45">
     <g id="line2d_53">
      <g>
       <use style="stroke:#000000;stroke-width:0.6;" x="498.109091" xlink:href="#mff5bd7f183" y="161.19"/>
      </g>
     </g>
    </g>
    <g id="xtick_46">
     <g id="line2d_54">
      <g>
       <use style="stroke:#000000;stroke-width:0.6;" x="509.703896" xlink:href="#mff5bd7f183" y="161.19"/>
      </g>
     </g>
    </g>
   </g>
   <g id="matplotlib.axis_2">
    <g id="ytick_1">
     <g id="line2d_55">
      <path clip-path="url(#pf8e72e427c)" d="M 72 138.402144 
L 518.4 138.402144 
" style="fill:none;stroke:#08bdf9;stroke-dasharray:0.8,1.32;stroke-dashoffset:0;stroke-width:0.8;"/>
     </g>
     <g id="line2d_56">
      <defs>
       <path d="M 0 0 
L -3.5 0 
" id="me80c146f8d" style="stroke:#01769d;stroke-width:0.8;"/>
      </defs>
      <g>
       <use style="fill:#01769d;stroke:#01769d;stroke-width:0.8;" x="72" xlink:href="#me80c146f8d" y="138.402144"/>
      </g>
     </g>
     <g id="text_1">
      <!-- −5 -->
      <defs>
       <path d="M 10.59375 35.5 
L 73.1875 35.5 
L 73.1875 27.203125 
L 10.59375 27.203125 
z
" id="DejaVuSans-2212"/>
       <path d="M 10.796875 72.90625 
L 49.515625 72.90625 
L 49.515625 64.59375 
L 19.828125 64.59375 
L 19.828125 46.734375 
Q 21.96875 47.46875 24.109375 47.828125 
Q 26.265625 48.1875 28.421875 48.1875 
Q 40.625 48.1875 47.75 41.5 
Q 54.890625 34.8125 54.890625 23.390625 
Q 54.890625 11.625 47.5625 5.09375 
Q 40.234375 -1.421875 26.90625 -1.421875 
Q 22.3125 -1.421875 17.546875 -0.640625 
Q 12.796875 0.140625 7.71875 1.703125 
L 7.71875 11.625 
Q 12.109375 9.234375 16.796875 8.0625 
Q 21.484375 6.890625 26.703125 6.890625 
Q 35.15625 6.890625 40.078125 11.328125 
Q 45.015625 15.765625 45.015625 23.390625 
Q 45.015625 31 40.078125 35.4375 
Q 35.15625 39.890625 26.703125 39.890625 
Q 22.75 39.890625 18.8125 39.015625 
Q 14.890625 38.140625 10.796875 36.28125 
z
" id="DejaVuSans-35"/>
      </defs>
      <g style="fill:#01769d;" transform="translate(50.257812 142.201363)scale(0.1 -0.1)">
       <use xlink:href="#DejaVuSans-2212"/>
       <use x="83.789062" xlink:href="#DejaVuSans-35"/>
      </g>
     </g>
    </g>
    <g id="ytick_2">
     <g id="line2d_57">
      <path clip-path="url(#pf8e72e427c)" d="M 72 105.043568 
L 518.4 105.043568 
" style="fill:none;stroke:#08bdf9;stroke-dasharray:0.8,1.32;stroke-dashoffset:0;stroke-width:0.8;"/>
     </g>
     <g id="line2d_58">
      <g>
       <use style="fill:#01769d;stroke:#01769d;stroke-width:0.8;" x="72" xlink:href="#me80c146f8d" y="105.043568"/>
      </g>
     </g>
     <g id="text_2">
      <!-- 0 -->
      <defs>
       <path d="M 31.78125 66.40625 
Q 24.171875 66.40625 20.328125 58.90625 
Q 16.5 51.421875 16.5 36.375 
Q 16.5 21.390625 20.328125 13.890625 
Q 24.171875 6.390625 31.78125 6.390625 
Q 39.453125 6.390625 43.28125 13.890625 
Q 47.125 21.390625 47.125 36.375 
Q 47.125 51.421875 43.28125 58.90625 
Q 39.453125 66.40625 31.78125 66.40625 
z
M 31.78125 74.21875 
Q 44.046875 74.21875 50.515625 64.515625 
Q 56.984375 54.828125 56.984375 36.375 
Q 56.984375 17.96875 50.515625 8.265625 
Q 44.046875 -1.421875 31.78125 -1.421875 
Q 19.53125 -1.421875 13.0625 8.265625 
Q 6.59375 17.96875 6.59375 36.375 
Q 6.59375 54.828125 13.0625 64.515625 
Q 19.53125 74.21875 31.78125 74.21875 
z
" id="DejaVuSans-30"/>
      </defs>
      <g style="fill:#01769d;" transform="translate(58.6375 108.842786)scale(0.1 -0.1)">
       <use xlink:href="#DejaVuSans-30"/>
      </g>
     </g>
    </g>
    <g id="ytick_3">
     <g id="line2d_59">
      <path clip-path="url(#pf8e72e427c)" d="M 72 71.684991 
L 518.4 71.684991 
" style="fill:none;stroke:#08bdf9;stroke-dasharray:0.8,1.32;stroke-dashoffset:0;stroke-width:0.8;"/>
     </g>
     <g id="line2d_60">
      <g>
       <use style="fill:#01769d;stroke:#01769d;stroke-width:0.8;" x="72" xlink:href="#me80c146f8d" y="71.684991"/>
      </g>
     </g>
     <g id="text_3">
      <!-- 5 -->
      <g style="fill:#01769d;" transform="translate(58.6375 75.48421)scale(0.1 -0.1)">
       <use xlink:href="#DejaVuSans-35"/>
      </g>
     </g>
    </g>
    <g id="text_4">
     <!-- distance -->
     <defs>
      <path d="M 45.40625 46.390625 
L 45.40625 75.984375 
L 54.390625 75.984375 
L 54.390625 0 
L 45.40625 0 
L 45.40625 8.203125 
Q 42.578125 3.328125 38.25 0.953125 
Q 33.9375 -1.421875 27.875 -1.421875 
Q 17.96875 -1.421875 11.734375 6.484375 
Q 5.515625 14.40625 5.515625 27.296875 
Q 5.515625 40.1875 11.734375 48.09375 
Q 17.96875 56 27.875 56 
Q 33.9375 56 38.25 53.625 
Q 42.578125 51.265625 45.40625 46.390625 
z
M 14.796875 27.296875 
Q 14.796875 17.390625 18.875 11.75 
Q 22.953125 6.109375 30.078125 6.109375 
Q 37.203125 6.109375 41.296875 11.75 
Q 45.40625 17.390625 45.40625 27.296875 
Q 45.40625 37.203125 41.296875 42.84375 
Q 37.203125 48.484375 30.078125 48.484375 
Q 22.953125 48.484375 18.875 42.84375 
Q 14.796875 37.203125 14.796875 27.296875 
z
" id="DejaVuSans-64"/>
      <path d="M 9.421875 54.6875 
L 18.40625 54.6875 
L 18.40625 0 
L 9.421875 0 
z
M 9.421875 75.984375 
L 18.40625 75.984375 
L 18.40625 64.59375 
L 9.421875 64.59375 
z
" id="DejaVuSans-69"/>
      <path d="M 44.28125 53.078125 
L 44.28125 44.578125 
Q 40.484375 46.53125 36.375 47.5 
Q 32.28125 48.484375 27.875 48.484375 
Q 21.1875 48.484375 17.84375 46.4375 
Q 14.5 44.390625 14.5 40.28125 
Q 14.5 37.15625 16.890625 35.375 
Q 19.28125 33.59375 26.515625 31.984375 
L 29.59375 31.296875 
Q 39.15625 29.25 43.1875 25.515625 
Q 47.21875 21.78125 47.21875 15.09375 
Q 47.21875 7.46875 41.1875 3.015625 
Q 35.15625 -1.421875 24.609375 -1.421875 
Q 20.21875 -1.421875 15.453125 -0.5625 
Q 10.6875 0.296875 5.421875 2 
L 5.421875 11.28125 
Q 10.40625 8.6875 15.234375 7.390625 
Q 20.0625 6.109375 24.8125 6.109375 
Q 31.15625 6.109375 34.5625 8.28125 
Q 37.984375 10.453125 37.984375 14.40625 
Q 37.984375 18.0625 35.515625 20.015625 
Q 33.0625 21.96875 24.703125 23.78125 
L 21.578125 24.515625 
Q 13.234375 26.265625 9.515625 29.90625 
Q 5.8125 33.546875 5.8125 39.890625 
Q 5.8125 47.609375 11.28125 51.796875 
Q 16.75 56 26.8125 56 
Q 31.78125 56 36.171875 55.265625 
Q 40.578125 54.546875 44.28125 53.078125 
z
" id="DejaVuSans-73"/>
      <path d="M 18.3125 70.21875 
L 18.3125 54.6875 
L 36.8125 54.6875 
L 36.8125 47.703125 
L 18.3125 47.703125 
L 18.3125 18.015625 
Q 18.3125 11.328125 20.140625 9.421875 
Q 21.96875 7.515625 27.59375 7.515625 
L 36.8125 7.515625 
L 36.8125 0 
L 27.59375 0 
Q 17.1875 0 13.234375 3.875 
Q 9.28125 7.765625 9.28125 18.015625 
L 9.28125 47.703125 
L 2.6875 47.703125 
L 2.6875 54.6875 
L 9.28125 54.6875 
L 9.28125 70.21875 
z
" id="DejaVuSans-74"/>
      <path d="M 34.28125 27.484375 
Q 23.390625 27.484375 19.1875 25 
Q 14.984375 22.515625 14.984375 16.5 
Q 14.984375 11.71875 18.140625 8.90625 
Q 21.296875 6.109375 26.703125 6.109375 
Q 34.1875 6.109375 38.703125 11.40625 
Q 43.21875 16.703125 43.21875 25.484375 
L 43.21875 27.484375 
z
M 52.203125 31.203125 
L 52.203125 0 
L 43.21875 0 
L 43.21875 8.296875 
Q 40.140625 3.328125 35.546875 0.953125 
Q 30.953125 -1.421875 24.3125 -1.421875 
Q 15.921875 -1.421875 10.953125 3.296875 
Q 6 8.015625 6 15.921875 
Q 6 25.140625 12.171875 29.828125 
Q 18.359375 34.515625 30.609375 34.515625 
L 43.21875 34.515625 
L 43.21875 35.40625 
Q 43.21875 41.609375 39.140625 45 
Q 35.0625 48.390625 27.6875 48.390625 
Q 23 48.390625 18.546875 47.265625 
Q 14.109375 46.140625 10.015625 43.890625 
L 10.015625 52.203125 
Q 14.9375 54.109375 19.578125 55.046875 
Q 24.21875 56 28.609375 56 
Q 40.484375 56 46.34375 49.84375 
Q 52.203125 43.703125 52.203125 31.203125 
z
" id="DejaVuSans-61"/>
      <path d="M 54.890625 33.015625 
L 54.890625 0 
L 45.90625 0 
L 45.90625 32.71875 
Q 45.90625 40.484375 42.875 44.328125 
Q 39.84375 48.1875 33.796875 48.1875 
Q 26.515625 48.1875 22.3125 43.546875 
Q 18.109375 38.921875 18.109375 30.90625 
L 18.109375 0 
L 9.078125 0 
L 9.078125 54.6875 
L 18.109375 54.6875 
L 18.109375 46.1875 
Q 21.34375 51.125 25.703125 53.5625 
Q 30.078125 56 35.796875 56 
Q 45.21875 56 50.046875 50.171875 
Q 54.890625 44.34375 54.890625 33.015625 
z
" id="DejaVuSans-6e"/>
      <path d="M 48.78125 52.59375 
L 48.78125 44.1875 
Q 44.96875 46.296875 41.140625 47.34375 
Q 37.3125 48.390625 33.40625 48.390625 
Q 24.65625 48.390625 19.8125 42.84375 
Q 14.984375 37.3125 14.984375 27.296875 
Q 14.984375 17.28125 19.8125 11.734375 
Q 24.65625 6.203125 33.40625 6.203125 
Q 37.3125 6.203125 41.140625 7.25 
Q 44.96875 8.296875 48.78125 10.40625 
L 48.78125 2.09375 
Q 45.015625 0.34375 40.984375 -0.53125 
Q 36.96875 -1.421875 32.421875 -1.421875 
Q 20.0625 -1.421875 12.78125 6.34375 
Q 5.515625 14.109375 5.515625 27.296875 
Q 5.515625 40.671875 12.859375 48.328125 
Q 20.21875 56 33.015625 56 
Q 37.15625 56 41.109375 55.140625 
Q 45.0625 54.296875 48.78125 52.59375 
z
" id="DejaVuSans-63"/>
      <path d="M 56.203125 29.59375 
L 56.203125 25.203125 
L 14.890625 25.203125 
Q 15.484375 15.921875 20.484375 11.0625 
Q 25.484375 6.203125 34.421875 6.203125 
Q 39.59375 6.203125 44.453125 7.46875 
Q 49.3125 8.734375 54.109375 11.28125 
L 54.109375 2.78125 
Q 49.265625 0.734375 44.1875 -0.34375 
Q 39.109375 -1.421875 33.890625 -1.421875 
Q 20.796875 -1.421875 13.15625 6.1875 
Q 5.515625 13.8125 5.515625 26.8125 
Q 5.515625 40.234375 12.765625 48.109375 
Q 20.015625 56 32.328125 56 
Q 43.359375 56 49.78125 48.890625 
Q 56.203125 41.796875 56.203125 29.59375 
z
M 47.21875 32.234375 
Q 47.125 39.59375 43.09375 43.984375 
Q 39.0625 48.390625 32.421875 48.390625 
Q 24.90625 48.390625 20.390625 44.140625 
Q 15.875 39.890625 15.1875 32.171875 
z
" id="DejaVuSans-65"/>
     </defs>
     <g style="fill:#01769d;" transform="translate(32.980312 121.221719)rotate(-90)scale(0.1 -0.1)">
      <use xlink:href="#DejaVuSans-64"/>
      <use x="63.476562" xlink:href="#DejaVuSans-69"/>
      <use x="91.259766" xlink:href="#DejaVuSans-73"/>
      <use x="143.359375" xlink:href="#DejaVuSans-74"/>
      <use x="182.568359" xlink:href="#DejaVuSans-61"/>
      <use x="243.847656" xlink:href="#DejaVuSans-6e"/>
      <use x="307.226562" xlink:href="#DejaVuSans-63"/>
      <use x="362.207031" xlink:href="#DejaVuSans-65"/>
     </g>
     <!-- error [cm] -->
     <defs>
      <path d="M 41.109375 46.296875 
Q 39.59375 47.171875 37.8125 47.578125 
Q 36.03125 48 33.890625 48 
Q 26.265625 48 22.1875 43.046875 
Q 18.109375 38.09375 18.109375 28.8125 
L 18.109375 0 
L 9.078125 0 
L 9.078125 54.6875 
L 18.109375 54.6875 
L 18.109375 46.1875 
Q 20.953125 51.171875 25.484375 53.578125 
Q 30.03125 56 36.53125 56 
Q 37.453125 56 38.578125 55.875 
Q 39.703125 55.765625 41.0625 55.515625 
z
" id="DejaVuSans-72"/>
      <path d="M 30.609375 48.390625 
Q 23.390625 48.390625 19.1875 42.75 
Q 14.984375 37.109375 14.984375 27.296875 
Q 14.984375 17.484375 19.15625 11.84375 
Q 23.34375 6.203125 30.609375 6.203125 
Q 37.796875 6.203125 41.984375 11.859375 
Q 46.1875 17.53125 46.1875 27.296875 
Q 46.1875 37.015625 41.984375 42.703125 
Q 37.796875 48.390625 30.609375 48.390625 
z
M 30.609375 56 
Q 42.328125 56 49.015625 48.375 
Q 55.71875 40.765625 55.71875 27.296875 
Q 55.71875 13.875 49.015625 6.21875 
Q 42.328125 -1.421875 30.609375 -1.421875 
Q 18.84375 -1.421875 12.171875 6.21875 
Q 5.515625 13.875 5.515625 27.296875 
Q 5.515625 40.765625 12.171875 48.375 
Q 18.84375 56 30.609375 56 
z
" id="DejaVuSans-6f"/>
      <path id="DejaVuSans-20"/>
      <path d="M 8.59375 75.984375 
L 29.296875 75.984375 
L 29.296875 69 
L 17.578125 69 
L 17.578125 -6.203125 
L 29.296875 -6.203125 
L 29.296875 -13.1875 
L 8.59375 -13.1875 
z
" id="DejaVuSans-5b"/>
      <path d="M 52 44.1875 
Q 55.375 50.25 60.0625 53.125 
Q 64.75 56 71.09375 56 
Q 79.640625 56 84.28125 50.015625 
Q 88.921875 44.046875 88.921875 33.015625 
L 88.921875 0 
L 79.890625 0 
L 79.890625 32.71875 
Q 79.890625 40.578125 77.09375 44.375 
Q 74.3125 48.1875 68.609375 48.1875 
Q 61.625 48.1875 57.5625 43.546875 
Q 53.515625 38.921875 53.515625 30.90625 
L 53.515625 0 
L 44.484375 0 
L 44.484375 32.71875 
Q 44.484375 40.625 41.703125 44.40625 
Q 38.921875 48.1875 33.109375 48.1875 
Q 26.21875 48.1875 22.15625 43.53125 
Q 18.109375 38.875 18.109375 30.90625 
L 18.109375 0 
L 9.078125 0 
L 9.078125 54.6875 
L 18.109375 54.6875 
L 18.109375 46.1875 
Q 21.1875 51.21875 25.484375 53.609375 
Q 29.78125 56 35.6875 56 
Q 41.65625 56 45.828125 52.96875 
Q 50 49.953125 52 44.1875 
z
" id="DejaVuSans-6d"/>
      <path d="M 30.421875 75.984375 
L 30.421875 -13.1875 
L 9.71875 -13.1875 
L 9.71875 -6.203125 
L 21.390625 -6.203125 
L 21.390625 69 
L 9.71875 69 
L 9.71875 75.984375 
z
" id="DejaVuSans-5d"/>
     </defs>
     <g style="fill:#01769d;" transform="translate(44.178125 125.445156)rotate(-90)scale(0.1 -0.1)">
      <use xlink:href="#DejaVuSans-65"/>
      <use x="61.523438" xlink:href="#DejaVuSans-72"/>
      <use x="102.621094" xlink:href="#DejaVuSans-72"/>
      <use x="143.703125" xlink:href="#DejaVuSans-6f"/>
      <use x="204.884766" xlink:href="#DejaVuSans-72"/>
      <use x="245.998047" xlink:href="#DejaVuSans-20"/>
      <use x="277.785156" xlink:href="#DejaVuSans-5b"/>
      <use x="316.798828" xlink:href="#DejaVuSans-63"/>
      <use x="371.779297" xlink:href="#DejaVuSans-6d"/>
      <use x="469.191406" xlink:href="#DejaVuSans-5d"/>
     </g>
    </g>
   </g>
   <g id="line2d_61">
    <path clip-path="url(#pf8e72e427c)" d="M 92.290909 105.043568 
L 103.885714 131.22891 
L 115.480519 155.626433 
L 127.075325 44.439545 
L 138.67013 147.236028 
L 150.264935 129.806354 
L 161.85974 120.213714 
L 173.454545 116.079697 
L 185.049351 113.963568 
L 196.644156 112.343718 
L 208.238961 111.146275 
L 219.833766 110.072333 
L 231.428571 109.538865 
L 243.023377 109.238657 
L 254.618182 109.021572 
L 266.212987 108.500054 
L 277.807792 107.502768 
L 289.402597 107.78693 
L 300.997403 107.670087 
L 312.592208 107.570772 
L 324.187013 108.614905 
L 335.781818 108.970479 
L 347.376623 109.094214 
L 358.971429 109.5276 
L 370.566234 110.167609 
L 382.161039 111.012518 
L 393.755844 112.138646 
L 405.350649 113.912698 
L 416.945455 116.241855 
L 428.54026 120.208479 
L 440.135065 129.728263 
L 451.72987 147.139621 
L 463.324675 44.480147 
L 474.919481 155.630455 
L 486.514286 131.145222 
L 498.109091 105.043568 
" style="fill:none;stroke:#fe3ea0;stroke-linecap:square;stroke-width:1.5;"/>
   </g>
   <g id="line2d_62">
    <path clip-path="url(#pf8e72e427c)" d="M 150.264935 161.19 
L 150.264935 38.88 
" style="fill:none;stroke:#ffd2e9;stroke-linecap:square;stroke-width:1.5;"/>
   </g>
   <g id="line2d_63">
    <path clip-path="url(#pf8e72e427c)" d="M 440.135065 161.19 
L 440.135065 38.88 
" style="fill:none;stroke:#ffd2e9;stroke-linecap:square;stroke-width:1.5;"/>
   </g>
   <g id="patch_3">
    <path d="M 72 161.19 
L 72 38.88 
" style="fill:none;stroke:#08bdf9;stroke-linecap:square;stroke-linejoin:miter;stroke-width:0.8;"/>
   </g>
   <g id="patch_4">
    <path d="M 72 161.19 
L 518.4 161.19 
" style="fill:none;stroke:#08bdf9;stroke-linecap:square;stroke-linejoin:miter;stroke-width:0.8;"/>
   </g>
   <g id="text_5">
    <!-- Vertical displacement, $\overline{\Delta d}=-1.04[cm]$, $\Delta d_{max}=3.71[cm]$, $\overline{\Delta y}=-22.1[cm]$, $\Delta y_{max}=28[cm]$ -->
    <defs>
     <path d="M 28.609375 0 
L 0.78125 72.90625 
L 11.078125 72.90625 
L 34.1875 11.53125 
L 57.328125 72.90625 
L 67.578125 72.90625 
L 39.796875 0 
z
" id="DejaVuSans-56"/>
     <path d="M 9.421875 75.984375 
L 18.40625 75.984375 
L 18.40625 0 
L 9.421875 0 
z
" id="DejaVuSans-6c"/>
     <path d="M 18.109375 8.203125 
L 18.109375 -20.796875 
L 9.078125 -20.796875 
L 9.078125 54.6875 
L 18.109375 54.6875 
L 18.109375 46.390625 
Q 20.953125 51.265625 25.265625 53.625 
Q 29.59375 56 35.59375 56 
Q 45.5625 56 51.78125 48.09375 
Q 58.015625 40.1875 58.015625 27.296875 
Q 58.015625 14.40625 51.78125 6.484375 
Q 45.5625 -1.421875 35.59375 -1.421875 
Q 29.59375 -1.421875 25.265625 0.953125 
Q 20.953125 3.328125 18.109375 8.203125 
z
M 48.6875 27.296875 
Q 48.6875 37.203125 44.609375 42.84375 
Q 40.53125 48.484375 33.40625 48.484375 
Q 26.265625 48.484375 22.1875 42.84375 
Q 18.109375 37.203125 18.109375 27.296875 
Q 18.109375 17.390625 22.1875 11.75 
Q 26.265625 6.109375 33.40625 6.109375 
Q 40.53125 6.109375 44.609375 11.75 
Q 48.6875 17.390625 48.6875 27.296875 
z
" id="DejaVuSans-70"/>
     <path d="M 11.71875 12.40625 
L 22.015625 12.40625 
L 22.015625 4 
L 14.015625 -11.625 
L 7.71875 -11.625 
L 11.71875 4 
z
" id="DejaVuSans-2c"/>
     <path d="M 34.1875 63.1875 
L 14.15625 8.203125 
L 54.25 8.203125 
z
M 0.78125 0 
L 28.609375 72.90625 
L 39.796875 72.90625 
L 67.578125 0 
z
" id="DejaVuSans-394"/>
     <path d="M 41.796875 8.203125 
Q 38.1875 3.46875 33.25 1.015625 
Q 28.328125 -1.421875 22.3125 -1.421875 
Q 14.109375 -1.421875 9.34375 4.171875 
Q 4.59375 9.765625 4.59375 19.484375 
Q 4.59375 27.59375 7.46875 34.9375 
Q 10.359375 42.28125 15.828125 48.09375 
Q 19.4375 51.953125 23.96875 53.96875 
Q 28.515625 56 33.5 56 
Q 38.765625 56 42.796875 53.453125 
Q 46.828125 50.921875 49.03125 46.1875 
L 54.890625 75.984375 
L 63.921875 75.984375 
L 49.125 0 
L 40.09375 0 
z
M 13.921875 21.09375 
Q 13.921875 14.015625 17.109375 10.0625 
Q 20.3125 6.109375 25.984375 6.109375 
Q 30.171875 6.109375 33.765625 8.125 
Q 37.359375 10.15625 40.09375 14.109375 
Q 42.96875 18.21875 44.625 23.578125 
Q 46.296875 28.953125 46.296875 34.1875 
Q 46.296875 40.96875 43.09375 44.765625 
Q 39.890625 48.578125 34.28125 48.578125 
Q 30.03125 48.578125 26.359375 46.578125 
Q 22.703125 44.578125 20.125 40.828125 
Q 17.28125 36.765625 15.59375 31.390625 
Q 13.921875 26.03125 13.921875 21.09375 
z
" id="DejaVuSans-Oblique-64"/>
     <path d="M 10.59375 45.40625 
L 73.1875 45.40625 
L 73.1875 37.203125 
L 10.59375 37.203125 
z
M 10.59375 25.484375 
L 73.1875 25.484375 
L 73.1875 17.1875 
L 10.59375 17.1875 
z
" id="DejaVuSans-3d"/>
     <path d="M 12.40625 8.296875 
L 28.515625 8.296875 
L 28.515625 63.921875 
L 10.984375 60.40625 
L 10.984375 69.390625 
L 28.421875 72.90625 
L 38.28125 72.90625 
L 38.28125 8.296875 
L 54.390625 8.296875 
L 54.390625 0 
L 12.40625 0 
z
" id="DejaVuSans-31"/>
     <path d="M 10.6875 12.40625 
L 21 12.40625 
L 21 0 
L 10.6875 0 
z
" id="DejaVuSans-2e"/>
     <path d="M 37.796875 64.3125 
L 12.890625 25.390625 
L 37.796875 25.390625 
z
M 35.203125 72.90625 
L 47.609375 72.90625 
L 47.609375 25.390625 
L 58.015625 25.390625 
L 58.015625 17.1875 
L 47.609375 17.1875 
L 47.609375 0 
L 37.796875 0 
L 37.796875 17.1875 
L 4.890625 17.1875 
L 4.890625 26.703125 
z
" id="DejaVuSans-34"/>
     <path d="M 53.609375 52.59375 
L 51.8125 43.703125 
Q 48.578125 46.046875 44.9375 47.21875 
Q 41.3125 48.390625 37.40625 48.390625 
Q 33.109375 48.390625 29.21875 46.875 
Q 25.34375 45.359375 22.703125 42.578125 
Q 18.5 38.328125 16.203125 32.609375 
Q 13.921875 26.90625 13.921875 20.796875 
Q 13.921875 13.421875 17.609375 9.8125 
Q 21.296875 6.203125 28.8125 6.203125 
Q 32.515625 6.203125 36.6875 7.328125 
Q 40.875 8.453125 45.40625 10.6875 
L 43.703125 1.8125 
Q 39.796875 0.203125 35.671875 -0.609375 
Q 31.546875 -1.421875 27.203125 -1.421875 
Q 16.3125 -1.421875 10.453125 4.015625 
Q 4.59375 9.46875 4.59375 19.578125 
Q 4.59375 28.078125 7.640625 35.234375 
Q 10.6875 42.390625 16.703125 48.09375 
Q 20.796875 52 26.3125 54 
Q 31.84375 56 38.375 56 
Q 42.1875 56 45.9375 55.140625 
Q 49.703125 54.296875 53.609375 52.59375 
z
" id="DejaVuSans-Oblique-63"/>
     <path d="M 89.796875 33.015625 
L 83.40625 0 
L 74.421875 0 
L 80.71875 32.71875 
Q 81.109375 34.8125 81.296875 36.328125 
Q 81.5 37.84375 81.5 38.921875 
Q 81.5 43.3125 79.046875 45.75 
Q 76.609375 48.1875 72.21875 48.1875 
Q 65.671875 48.1875 60.546875 43.28125 
Q 55.421875 38.375 53.90625 30.515625 
L 47.90625 0 
L 38.921875 0 
L 45.3125 32.71875 
Q 45.703125 34.515625 45.890625 36.046875 
Q 46.09375 37.59375 46.09375 38.8125 
Q 46.09375 43.265625 43.65625 45.71875 
Q 41.21875 48.1875 36.921875 48.1875 
Q 30.28125 48.1875 25.140625 43.28125 
Q 20.015625 38.375 18.5 30.515625 
L 12.5 0 
L 3.515625 0 
L 14.203125 54.6875 
L 23.1875 54.6875 
L 21.484375 46.1875 
Q 25.140625 50.984375 30.046875 53.484375 
Q 34.96875 56 40.578125 56 
Q 46.53125 56 50.359375 52.875 
Q 54.203125 49.75 54.984375 44.1875 
Q 59.078125 49.953125 64.46875 52.96875 
Q 69.875 56 75.875 56 
Q 82.90625 56 86.734375 51.953125 
Q 90.578125 47.90625 90.578125 40.484375 
Q 90.578125 38.875 90.375 36.9375 
Q 90.1875 35.015625 89.796875 33.015625 
z
" id="DejaVuSans-Oblique-6d"/>
     <path d="M 53.71875 31.203125 
L 47.609375 0 
L 38.625 0 
L 40.28125 8.296875 
Q 36.328125 3.421875 31.265625 1 
Q 26.21875 -1.421875 20.015625 -1.421875 
Q 13.03125 -1.421875 8.5625 2.84375 
Q 4.109375 7.125 4.109375 13.8125 
Q 4.109375 23.390625 11.75 28.953125 
Q 19.390625 34.515625 32.8125 34.515625 
L 45.3125 34.515625 
L 45.796875 36.921875 
Q 45.90625 37.3125 45.953125 37.765625 
Q 46 38.234375 46 39.203125 
Q 46 43.5625 42.453125 45.96875 
Q 38.921875 48.390625 32.515625 48.390625 
Q 28.125 48.390625 23.5 47.265625 
Q 18.890625 46.140625 14.015625 43.890625 
L 15.578125 52.203125 
Q 20.65625 54.109375 25.515625 55.046875 
Q 30.375 56 34.90625 56 
Q 44.578125 56 49.625 51.796875 
Q 54.6875 47.609375 54.6875 39.59375 
Q 54.6875 37.984375 54.4375 35.8125 
Q 54.203125 33.640625 53.71875 31.203125 
z
M 44 27.484375 
L 35.015625 27.484375 
Q 23.96875 27.484375 18.671875 24.53125 
Q 13.375 21.578125 13.375 15.375 
Q 13.375 11.078125 16.078125 8.640625 
Q 18.796875 6.203125 23.578125 6.203125 
Q 30.90625 6.203125 36.375 11.453125 
Q 41.84375 16.703125 43.609375 25.484375 
z
" id="DejaVuSans-Oblique-61"/>
     <path d="M 60.015625 54.6875 
L 34.90625 27.875 
L 50.296875 0 
L 39.984375 0 
L 28.421875 21.6875 
L 8.296875 0 
L -2.59375 0 
L 24.3125 28.8125 
L 10.015625 54.6875 
L 20.3125 54.6875 
L 30.8125 34.90625 
L 49.125 54.6875 
z
" id="DejaVuSans-Oblique-78"/>
     <path d="M 40.578125 39.3125 
Q 47.65625 37.796875 51.625 33 
Q 55.609375 28.21875 55.609375 21.1875 
Q 55.609375 10.40625 48.1875 4.484375 
Q 40.765625 -1.421875 27.09375 -1.421875 
Q 22.515625 -1.421875 17.65625 -0.515625 
Q 12.796875 0.390625 7.625 2.203125 
L 7.625 11.71875 
Q 11.71875 9.328125 16.59375 8.109375 
Q 21.484375 6.890625 26.8125 6.890625 
Q 36.078125 6.890625 40.9375 10.546875 
Q 45.796875 14.203125 45.796875 21.1875 
Q 45.796875 27.640625 41.28125 31.265625 
Q 36.765625 34.90625 28.71875 34.90625 
L 20.21875 34.90625 
L 20.21875 43.015625 
L 29.109375 43.015625 
Q 36.375 43.015625 40.234375 45.921875 
Q 44.09375 48.828125 44.09375 54.296875 
Q 44.09375 59.90625 40.109375 62.90625 
Q 36.140625 65.921875 28.71875 65.921875 
Q 24.65625 65.921875 20.015625 65.03125 
Q 15.375 64.15625 9.8125 62.3125 
L 9.8125 71.09375 
Q 15.4375 72.65625 20.34375 73.4375 
Q 25.25 74.21875 29.59375 74.21875 
Q 40.828125 74.21875 47.359375 69.109375 
Q 53.90625 64.015625 53.90625 55.328125 
Q 53.90625 49.265625 50.4375 45.09375 
Q 46.96875 40.921875 40.578125 39.3125 
z
" id="DejaVuSans-33"/>
     <path d="M 8.203125 72.90625 
L 55.078125 72.90625 
L 55.078125 68.703125 
L 28.609375 0 
L 18.3125 0 
L 43.21875 64.59375 
L 8.203125 64.59375 
z
" id="DejaVuSans-37"/>
     <path d="M 24.8125 -5.078125 
Q 18.5625 -15.578125 14.625 -18.1875 
Q 10.6875 -20.796875 4.59375 -20.796875 
L -2.484375 -20.796875 
L -0.984375 -13.28125 
L 4.203125 -13.28125 
Q 7.953125 -13.28125 10.59375 -11.234375 
Q 13.234375 -9.1875 16.5 -3.21875 
L 19.28125 2 
L 7.171875 54.6875 
L 16.703125 54.6875 
L 25.78125 12.796875 
L 50.875 54.6875 
L 60.296875 54.6875 
z
" id="DejaVuSans-Oblique-79"/>
     <path d="M 19.1875 8.296875 
L 53.609375 8.296875 
L 53.609375 0 
L 7.328125 0 
L 7.328125 8.296875 
Q 12.9375 14.109375 22.625 23.890625 
Q 32.328125 33.6875 34.8125 36.53125 
Q 39.546875 41.84375 41.421875 45.53125 
Q 43.3125 49.21875 43.3125 52.78125 
Q 43.3125 58.59375 39.234375 62.25 
Q 35.15625 65.921875 28.609375 65.921875 
Q 23.96875 65.921875 18.8125 64.3125 
Q 13.671875 62.703125 7.8125 59.421875 
L 7.8125 69.390625 
Q 13.765625 71.78125 18.9375 73 
Q 24.125 74.21875 28.421875 74.21875 
Q 39.75 74.21875 46.484375 68.546875 
Q 53.21875 62.890625 53.21875 53.421875 
Q 53.21875 48.921875 51.53125 44.890625 
Q 49.859375 40.875 45.40625 35.40625 
Q 44.1875 33.984375 37.640625 27.21875 
Q 31.109375 20.453125 19.1875 8.296875 
z
" id="DejaVuSans-32"/>
     <path d="M 31.78125 34.625 
Q 24.75 34.625 20.71875 30.859375 
Q 16.703125 27.09375 16.703125 20.515625 
Q 16.703125 13.921875 20.71875 10.15625 
Q 24.75 6.390625 31.78125 6.390625 
Q 38.8125 6.390625 42.859375 10.171875 
Q 46.921875 13.96875 46.921875 20.515625 
Q 46.921875 27.09375 42.890625 30.859375 
Q 38.875 34.625 31.78125 34.625 
z
M 21.921875 38.8125 
Q 15.578125 40.375 12.03125 44.71875 
Q 8.5 49.078125 8.5 55.328125 
Q 8.5 64.0625 14.71875 69.140625 
Q 20.953125 74.21875 31.78125 74.21875 
Q 42.671875 74.21875 48.875 69.140625 
Q 55.078125 64.0625 55.078125 55.328125 
Q 55.078125 49.078125 51.53125 44.71875 
Q 48 40.375 41.703125 38.8125 
Q 48.828125 37.15625 52.796875 32.3125 
Q 56.78125 27.484375 56.78125 20.515625 
Q 56.78125 9.90625 50.3125 4.234375 
Q 43.84375 -1.421875 31.78125 -1.421875 
Q 19.734375 -1.421875 13.25 4.234375 
Q 6.78125 9.90625 6.78125 20.515625 
Q 6.78125 27.484375 10.78125 32.3125 
Q 14.796875 37.15625 21.921875 38.8125 
z
M 18.3125 54.390625 
Q 18.3125 48.734375 21.84375 45.5625 
Q 25.390625 42.390625 31.78125 42.390625 
Q 38.140625 42.390625 41.71875 45.5625 
Q 45.3125 48.734375 45.3125 54.390625 
Q 45.3125 60.0625 41.71875 63.234375 
Q 38.140625 66.40625 31.78125 66.40625 
Q 25.390625 66.40625 21.84375 63.234375 
Q 18.3125 60.0625 18.3125 54.390625 
z
" id="DejaVuSans-38"/>
    </defs>
    <g style="fill:#01769d;" transform="translate(17.7 32.88)scale(0.12 -0.12)">
     <use transform="translate(0 0.265625)" xlink:href="#DejaVuSans-56"/>
     <use transform="translate(68.408203 0.265625)" xlink:href="#DejaVuSans-65"/>
     <use transform="translate(129.931641 0.265625)" xlink:href="#DejaVuSans-72"/>
     <use transform="translate(171.044922 0.265625)" xlink:href="#DejaVuSans-74"/>
     <use transform="translate(210.253906 0.265625)" xlink:href="#DejaVuSans-69"/>
     <use transform="translate(238.037109 0.265625)" xlink:href="#DejaVuSans-63"/>
     <use transform="translate(293.017578 0.265625)" xlink:href="#DejaVuSans-61"/>
     <use transform="translate(354.296875 0.265625)" xlink:href="#DejaVuSans-6c"/>
     <use transform="translate(382.080078 0.265625)" xlink:href="#DejaVuSans-20"/>
     <use transform="translate(413.867188 0.265625)" xlink:href="#DejaVuSans-64"/>
     <use transform="translate(477.34375 0.265625)" xlink:href="#DejaVuSans-69"/>
     <use transform="translate(505.126953 0.265625)" xlink:href="#DejaVuSans-73"/>
     <use transform="translate(557.226562 0.265625)" xlink:href="#DejaVuSans-70"/>
     <use transform="translate(620.703125 0.265625)" xlink:href="#DejaVuSans-6c"/>
     <use transform="translate(648.486328 0.265625)" xlink:href="#DejaVuSans-61"/>
     <use transform="translate(709.765625 0.265625)" xlink:href="#DejaVuSans-63"/>
     <use transform="translate(764.746094 0.265625)" xlink:href="#DejaVuSans-65"/>
     <use transform="translate(826.269531 0.265625)" xlink:href="#DejaVuSans-6d"/>
     <use transform="translate(923.681641 0.265625)" xlink:href="#DejaVuSans-65"/>
     <use transform="translate(985.205078 0.265625)" xlink:href="#DejaVuSans-6e"/>
     <use transform="translate(1048.583984 0.265625)" xlink:href="#DejaVuSans-74"/>
     <use transform="translate(1087.792969 0.265625)" xlink:href="#DejaVuSans-2c"/>
     <use transform="translate(1119.580078 0.265625)" xlink:href="#DejaVuSans-20"/>
     <use transform="translate(1151.367188 0.765625)" xlink:href="#DejaVuSans-394"/>
     <use transform="translate(1219.775391 0.765625)" xlink:href="#DejaVuSans-Oblique-64"/>
     <use transform="translate(1302.734375 0.265625)" xlink:href="#DejaVuSans-3d"/>
     <use transform="translate(1425.488281 0.265625)" xlink:href="#DejaVuSans-2212"/>
     <use transform="translate(1528.759766 0.265625)" xlink:href="#DejaVuSans-31"/>
     <use transform="translate(1592.382812 0.265625)" xlink:href="#DejaVuSans-2e"/>
     <use transform="translate(1624.169922 0.265625)" xlink:href="#DejaVuSans-30"/>
     <use transform="translate(1687.792969 0.265625)" xlink:href="#DejaVuSans-34"/>
     <use transform="translate(1751.416016 0.265625)" xlink:href="#DejaVuSans-5b"/>
     <use transform="translate(1790.429688 0.265625)" xlink:href="#DejaVuSans-Oblique-63"/>
     <use transform="translate(1845.410156 0.265625)" xlink:href="#DejaVuSans-Oblique-6d"/>
     <use transform="translate(1942.822266 0.265625)" xlink:href="#DejaVuSans-5d"/>
     <use transform="translate(1981.835938 0.265625)" xlink:href="#DejaVuSans-2c"/>
     <use transform="translate(2013.623047 0.265625)" xlink:href="#DejaVuSans-20"/>
     <use transform="translate(2045.410156 0.265625)" xlink:href="#DejaVuSans-394"/>
     <use transform="translate(2113.818359 0.265625)" xlink:href="#DejaVuSans-Oblique-64"/>
     <use transform="translate(2177.294922 -16.140625)scale(0.7)" xlink:href="#DejaVuSans-Oblique-6d"/>
     <use transform="translate(2245.483398 -16.140625)scale(0.7)" xlink:href="#DejaVuSans-Oblique-61"/>
     <use transform="translate(2288.378906 -16.140625)scale(0.7)" xlink:href="#DejaVuSans-Oblique-78"/>
     <use transform="translate(2352.021484 0.265625)" xlink:href="#DejaVuSans-3d"/>
     <use transform="translate(2455.292969 0.265625)" xlink:href="#DejaVuSans-33"/>
     <use transform="translate(2518.916016 0.265625)" xlink:href="#DejaVuSans-2e"/>
     <use transform="translate(2550.59375 0.265625)" xlink:href="#DejaVuSans-37"/>
     <use transform="translate(2614.216797 0.265625)" xlink:href="#DejaVuSans-31"/>
     <use transform="translate(2677.839844 0.265625)" xlink:href="#DejaVuSans-5b"/>
     <use transform="translate(2716.853516 0.265625)" xlink:href="#DejaVuSans-Oblique-63"/>
     <use transform="translate(2771.833984 0.265625)" xlink:href="#DejaVuSans-Oblique-6d"/>
     <use transform="translate(2869.246094 0.265625)" xlink:href="#DejaVuSans-5d"/>
     <use transform="translate(2908.259766 0.265625)" xlink:href="#DejaVuSans-2c"/>
     <use transform="translate(2940.046875 0.265625)" xlink:href="#DejaVuSans-20"/>
     <use transform="translate(2971.833984 0.765625)" xlink:href="#DejaVuSans-394"/>
     <use transform="translate(3040.242188 0.765625)" xlink:href="#DejaVuSans-Oblique-79"/>
     <use transform="translate(3118.904297 0.265625)" xlink:href="#DejaVuSans-3d"/>
     <use transform="translate(3241.658203 0.265625)" xlink:href="#DejaVuSans-2212"/>
     <use transform="translate(3344.929688 0.265625)" xlink:href="#DejaVuSans-32"/>
     <use transform="translate(3408.552734 0.265625)" xlink:href="#DejaVuSans-32"/>
     <use transform="translate(3472.175781 0.265625)" xlink:href="#DejaVuSans-2e"/>
     <use transform="translate(3503.962891 0.265625)" xlink:href="#DejaVuSans-31"/>
     <use transform="translate(3567.585938 0.265625)" xlink:href="#DejaVuSans-5b"/>
     <use transform="translate(3606.599609 0.265625)" xlink:href="#DejaVuSans-Oblique-63"/>
     <use transform="translate(3661.580078 0.265625)" xlink:href="#DejaVuSans-Oblique-6d"/>
     <use transform="translate(3758.992188 0.265625)" xlink:href="#DejaVuSans-5d"/>
     <use transform="translate(3798.005859 0.265625)" xlink:href="#DejaVuSans-2c"/>
     <use transform="translate(3829.792969 0.265625)" xlink:href="#DejaVuSans-20"/>
     <use transform="translate(3861.580078 0.265625)" xlink:href="#DejaVuSans-394"/>
     <use transform="translate(3929.988281 0.265625)" xlink:href="#DejaVuSans-Oblique-79"/>
     <use transform="translate(3989.167969 -16.140625)scale(0.7)" xlink:href="#DejaVuSans-Oblique-6d"/>
     <use transform="translate(4057.356445 -16.140625)scale(0.7)" xlink:href="#DejaVuSans-Oblique-61"/>
     <use transform="translate(4100.251953 -16.140625)scale(0.7)" xlink:href="#DejaVuSans-Oblique-78"/>
     <use transform="translate(4163.894531 0.265625)" xlink:href="#DejaVuSans-3d"/>
     <use transform="translate(4267.166016 0.265625)" xlink:href="#DejaVuSans-32"/>
     <use transform="translate(4330.789062 0.265625)" xlink:href="#DejaVuSans-38"/>
     <use transform="translate(4394.412109 0.265625)" xlink:href="#DejaVuSans-5b"/>
     <use transform="translate(4433.425781 0.265625)" xlink:href="#DejaVuSans-Oblique-63"/>
     <use transform="translate(4488.40625 0.265625)" xlink:href="#DejaVuSans-Oblique-6d"/>
     <use transform="translate(4585.818359 0.265625)" xlink:href="#DejaVuSans-5d"/>
     <path d="M 1151.367188 88.5 
L 1151.367188 94.75 
L 1283.251953 94.75 
L 1283.251953 88.5 
L 1151.367188 88.5 
z
"/>
     <path d="M 2971.833984 85.421875 
L 2971.833984 91.671875 
L 3099.421875 91.671875 
L 3099.421875 85.421875 
L 2971.833984 85.421875 
z
"/>
    </g>
   </g>
  </g>
  <g id="axes_2">
   <g id="patch_5">
    <path d="M 72 283.5 
L 518.4 283.5 
L 518.4 161.19 
L 72 161.19 
z
" style="fill:#ffffff;"/>
   </g>
   <g id="matplotlib.axis_3">
    <g id="xtick_47">
     <g id="line2d_64">
      <path clip-path="url(#p56a352a73a)" d="M 92.290909 283.5 
L 92.290909 161.19 
" style="fill:none;stroke:#08bdf9;stroke-dasharray:0.8,1.32;stroke-dashoffset:0;stroke-width:0.8;"/>
     </g>
     <g id="line2d_65">
      <g>
       <use style="fill:#01769d;stroke:#01769d;stroke-width:0.8;" x="92.290909" xlink:href="#mcc862fe01a" y="283.5"/>
      </g>
     </g>
     <g id="text_6">
      <!-- 0 -->
      <g style="fill:#01769d;" transform="translate(89.109659 298.098437)scale(0.1 -0.1)">
       <use xlink:href="#DejaVuSans-30"/>
      </g>
     </g>
    </g>
    <g id="xtick_48">
     <g id="line2d_66">
      <path clip-path="url(#p56a352a73a)" d="M 150.264935 283.5 
L 150.264935 161.19 
" style="fill:none;stroke:#08bdf9;stroke-dasharray:0.8,1.32;stroke-dashoffset:0;stroke-width:0.8;"/>
     </g>
     <g id="line2d_67">
      <g>
       <use style="fill:#01769d;stroke:#01769d;stroke-width:0.8;" x="150.264935" xlink:href="#mcc862fe01a" y="283.5"/>
      </g>
     </g>
     <g id="text_7">
      <!-- 5 -->
      <g style="fill:#01769d;" transform="translate(147.083685 298.098437)scale(0.1 -0.1)">
       <use xlink:href="#DejaVuSans-35"/>
      </g>
     </g>
    </g>
    <g id="xtick_49">
     <g id="line2d_68">
      <path clip-path="url(#p56a352a73a)" d="M 208.238961 283.5 
L 208.238961 161.19 
" style="fill:none;stroke:#08bdf9;stroke-dasharray:0.8,1.32;stroke-dashoffset:0;stroke-width:0.8;"/>
     </g>
     <g id="line2d_69">
      <g>
       <use style="fill:#01769d;stroke:#01769d;stroke-width:0.8;" x="208.238961" xlink:href="#mcc862fe01a" y="283.5"/>
      </g>
     </g>
     <g id="text_8">
      <!-- 10 -->
      <g style="fill:#01769d;" transform="translate(201.876461 298.098437)scale(0.1 -0.1)">
       <use xlink:href="#DejaVuSans-31"/>
       <use x="63.623047" xlink:href="#DejaVuSans-30"/>
      </g>
     </g>
    </g>
    <g id="xtick_50">
     <g id="line2d_70">
      <path clip-path="url(#p56a352a73a)" d="M 266.212987 283.5 
L 266.212987 161.19 
" style="fill:none;stroke:#08bdf9;stroke-dasharray:0.8,1.32;stroke-dashoffset:0;stroke-width:0.8;"/>
     </g>
     <g id="line2d_71">
      <g>
       <use style="fill:#01769d;stroke:#01769d;stroke-width:0.8;" x="266.212987" xlink:href="#mcc862fe01a" y="283.5"/>
      </g>
     </g>
     <g id="text_9">
      <!-- 15 -->
      <g style="fill:#01769d;" transform="translate(259.850487 298.098437)scale(0.1 -0.1)">
       <use xlink:href="#DejaVuSans-31"/>
       <use x="63.623047" xlink:href="#DejaVuSans-35"/>
      </g>
     </g>
    </g>
    <g id="xtick_51">
     <g id="line2d_72">
      <path clip-path="url(#p56a352a73a)" d="M 324.187013 283.5 
L 324.187013 161.19 
" style="fill:none;stroke:#08bdf9;stroke-dasharray:0.8,1.32;stroke-dashoffset:0;stroke-width:0.8;"/>
     </g>
     <g id="line2d_73">
      <g>
       <use style="fill:#01769d;stroke:#01769d;stroke-width:0.8;" x="324.187013" xlink:href="#mcc862fe01a" y="283.5"/>
      </g>
     </g>
     <g id="text_10">
      <!-- 20 -->
      <g style="fill:#01769d;" transform="translate(317.824513 298.098437)scale(0.1 -0.1)">
       <use xlink:href="#DejaVuSans-32"/>
       <use x="63.623047" xlink:href="#DejaVuSans-30"/>
      </g>
     </g>
    </g>
    <g id="xtick_52">
     <g id="line2d_74">
      <path clip-path="url(#p56a352a73a)" d="M 382.161039 283.5 
L 382.161039 161.19 
" style="fill:none;stroke:#08bdf9;stroke-dasharray:0.8,1.32;stroke-dashoffset:0;stroke-width:0.8;"/>
     </g>
     <g id="line2d_75">
      <g>
       <use style="fill:#01769d;stroke:#01769d;stroke-width:0.8;" x="382.161039" xlink:href="#mcc862fe01a" y="283.5"/>
      </g>
     </g>
     <g id="text_11">
      <!-- 25 -->
      <g style="fill:#01769d;" transform="translate(375.798539 298.098437)scale(0.1 -0.1)">
       <use xlink:href="#DejaVuSans-32"/>
       <use x="63.623047" xlink:href="#DejaVuSans-35"/>
      </g>
     </g>
    </g>
    <g id="xtick_53">
     <g id="line2d_76">
      <path clip-path="url(#p56a352a73a)" d="M 440.135065 283.5 
L 440.135065 161.19 
" style="fill:none;stroke:#08bdf9;stroke-dasharray:0.8,1.32;stroke-dashoffset:0;stroke-width:0.8;"/>
     </g>
     <g id="line2d_77">
      <g>
       <use style="fill:#01769d;stroke:#01769d;stroke-width:0.8;" x="440.135065" xlink:href="#mcc862fe01a" y="283.5"/>
      </g>
     </g>
     <g id="text_12">
      <!-- 30 -->
      <g style="fill:#01769d;" transform="translate(433.772565 298.098437)scale(0.1 -0.1)">
       <use xlink:href="#DejaVuSans-33"/>
       <use x="63.623047" xlink:href="#DejaVuSans-30"/>
      </g>
     </g>
    </g>
    <g id="xtick_54">
     <g id="line2d_78">
      <path clip-path="url(#p56a352a73a)" d="M 498.109091 283.5 
L 498.109091 161.19 
" style="fill:none;stroke:#08bdf9;stroke-dasharray:0.8,1.32;stroke-dashoffset:0;stroke-width:0.8;"/>
     </g>
     <g id="line2d_79">
      <g>
       <use style="fill:#01769d;stroke:#01769d;stroke-width:0.8;" x="498.109091" xlink:href="#mcc862fe01a" y="283.5"/>
      </g>
     </g>
     <g id="text_13">
      <!-- 35 -->
      <g style="fill:#01769d;" transform="translate(491.746591 298.098437)scale(0.1 -0.1)">
       <use xlink:href="#DejaVuSans-33"/>
       <use x="63.623047" xlink:href="#DejaVuSans-35"/>
      </g>
     </g>
    </g>
    <g id="xtick_55">
     <g id="line2d_80">
      <g>
       <use style="stroke:#000000;stroke-width:0.6;" x="80.696104" xlink:href="#mff5bd7f183" y="283.5"/>
      </g>
     </g>
    </g>
    <g id="xtick_56">
     <g id="line2d_81">
      <g>
       <use style="stroke:#000000;stroke-width:0.6;" x="92.290909" xlink:href="#mff5bd7f183" y="283.5"/>
      </g>
     </g>
    </g>
    <g id="xtick_57">
     <g id="line2d_82">
      <g>
       <use style="stroke:#000000;stroke-width:0.6;" x="103.885714" xlink:href="#mff5bd7f183" y="283.5"/>
      </g>
     </g>
    </g>
    <g id="xtick_58">
     <g id="line2d_83">
      <g>
       <use style="stroke:#000000;stroke-width:0.6;" x="115.480519" xlink:href="#mff5bd7f183" y="283.5"/>
      </g>
     </g>
    </g>
    <g id="xtick_59">
     <g id="line2d_84">
      <g>
       <use style="stroke:#000000;stroke-width:0.6;" x="127.075325" xlink:href="#mff5bd7f183" y="283.5"/>
      </g>
     </g>
    </g>
    <g id="xtick_60">
     <g id="line2d_85">
      <g>
       <use style="stroke:#000000;stroke-width:0.6;" x="138.67013" xlink:href="#mff5bd7f183" y="283.5"/>
      </g>
     </g>
    </g>
    <g id="xtick_61">
     <g id="line2d_86">
      <g>
       <use style="stroke:#000000;stroke-width:0.6;" x="150.264935" xlink:href="#mff5bd7f183" y="283.5"/>
      </g>
     </g>
    </g>
    <g id="xtick_62">
     <g id="line2d_87">
      <g>
       <use style="stroke:#000000;stroke-width:0.6;" x="161.85974" xlink:href="#mff5bd7f183" y="283.5"/>
      </g>
     </g>
    </g>
    <g id="xtick_63">
     <g id="line2d_88">
      <g>
       <use style="stroke:#000000;stroke-width:0.6;" x="173.454545" xlink:href="#mff5bd7f183" y="283.5"/>
      </g>
     </g>
    </g>
    <g id="xtick_64">
     <g id="line2d_89">
      <g>
       <use style="stroke:#000000;stroke-width:0.6;" x="185.049351" xlink:href="#mff5bd7f183" y="283.5"/>
      </g>
     </g>
    </g>
    <g id="xtick_65">
     <g id="line2d_90">
      <g>
       <use style="stroke:#000000;stroke-width:0.6;" x="196.644156" xlink:href="#mff5bd7f183" y="283.5"/>
      </g>
     </g>
    </g>
    <g id="xtick_66">
     <g id="line2d_91">
      <g>
       <use style="stroke:#000000;stroke-width:0.6;" x="208.238961" xlink:href="#mff5bd7f183" y="283.5"/>
      </g>
     </g>
    </g>
    <g id="xtick_67">
     <g id="line2d_92">
      <g>
       <use style="stroke:#000000;stroke-width:0.6;" x="219.833766" xlink:href="#mff5bd7f183" y="283.5"/>
      </g>
     </g>
    </g>
    <g id="xtick_68">
     <g id="line2d_93">
      <g>
       <use style="stroke:#000000;stroke-width:0.6;" x="231.428571" xlink:href="#mff5bd7f183" y="283.5"/>
      </g>
     </g>
    </g>
    <g id="xtick_69">
     <g id="line2d_94">
      <g>
       <use style="stroke:#000000;stroke-width:0.6;" x="243.023377" xlink:href="#mff5bd7f183" y="283.5"/>
      </g>
     </g>
    </g>
    <g id="xtick_70">
     <g id="line2d_95">
      <g>
       <use style="stroke:#000000;stroke-width:0.6;" x="254.618182" xlink:href="#mff5bd7f183" y="283.5"/>
      </g>
     </g>
    </g>
    <g id="xtick_71">
     <g id="line2d_96">
      <g>
       <use style="stroke:#000000;stroke-width:0.6;" x="266.212987" xlink:href="#mff5bd7f183" y="283.5"/>
      </g>
     </g>
    </g>
    <g id="xtick_72">
     <g id="line2d_97">
      <g>
       <use style="stroke:#000000;stroke-width:0.6;" x="277.807792" xlink:href="#mff5bd7f183" y="283.5"/>
      </g>
     </g>
    </g>
    <g id="xtick_73">
     <g id="line2d_98">
      <g>
       <use style="stroke:#000000;stroke-width:0.6;" x="289.402597" xlink:href="#mff5bd7f183" y="283.5"/>
      </g>
     </g>
    </g>
    <g id="xtick_74">
     <g id="line2d_99">
      <g>
       <use style="stroke:#000000;stroke-width:0.6;" x="300.997403" xlink:href="#mff5bd7f183" y="283.5"/>
      </g>
     </g>
    </g>
    <g id="xtick_75">
     <g id="line2d_100">
      <g>
       <use style="stroke:#000000;stroke-width:0.6;" x="312.592208" xlink:href="#mff5bd7f183" y="283.5"/>
      </g>
     </g>
    </g>
    <g id="xtick_76">
     <g id="line2d_101">
      <g>
       <use style="stroke:#000000;stroke-width:0.6;" x="324.187013" xlink:href="#mff5bd7f183" y="283.5"/>
      </g>
     </g>
    </g>
    <g id="xtick_77">
     <g id="line2d_102">
      <g>
       <use style="stroke:#000000;stroke-width:0.6;" x="335.781818" xlink:href="#mff5bd7f183" y="283.5"/>
      </g>
     </g>
    </g>
    <g id="xtick_78">
     <g id="line2d_103">
      <g>
       <use style="stroke:#000000;stroke-width:0.6;" x="347.376623" xlink:href="#mff5bd7f183" y="283.5"/>
      </g>
     </g>
    </g>
    <g id="xtick_79">
     <g id="line2d_104">
      <g>
       <use style="stroke:#000000;stroke-width:0.6;" x="358.971429" xlink:href="#mff5bd7f183" y="283.5"/>
      </g>
     </g>
    </g>
    <g id="xtick_80">
     <g id="line2d_105">
      <g>
       <use style="stroke:#000000;stroke-width:0.6;" x="370.566234" xlink:href="#mff5bd7f183" y="283.5"/>
      </g>
     </g>
    </g>
    <g id="xtick_81">
     <g id="line2d_106">
      <g>
       <use style="stroke:#000000;stroke-width:0.6;" x="382.161039" xlink:href="#mff5bd7f183" y="283.5"/>
      </g>
     </g>
    </g>
    <g id="xtick_82">
     <g id="line2d_107">
      <g>
       <use style="stroke:#000000;stroke-width:0.6;" x="393.755844" xlink:href="#mff5bd7f183" y="283.5"/>
      </g>
     </g>
    </g>
    <g id="xtick_83">
     <g id="line2d_108">
      <g>
       <use style="stroke:#000000;stroke-width:0.6;" x="405.350649" xlink:href="#mff5bd7f183" y="283.5"/>
      </g>
     </g>
    </g>
    <g id="xtick_84">
     <g id="line2d_109">
      <g>
       <use style="stroke:#000000;stroke-width:0.6;" x="416.945455" xlink:href="#mff5bd7f183" y="283.5"/>
      </g>
     </g>
    </g>
    <g id="xtick_85">
     <g id="line2d_110">
      <g>
       <use style="stroke:#000000;stroke-width:0.6;" x="428.54026" xlink:href="#mff5bd7f183" y="283.5"/>
      </g>
     </g>
    </g>
    <g id="xtick_86">
     <g id="line2d_111">
      <g>
       <use style="stroke:#000000;stroke-width:0.6;" x="440.135065" xlink:href="#mff5bd7f183" y="283.5"/>
      </g>
     </g>
    </g>
    <g id="xtick_87">
     <g id="line2d_112">
      <g>
       <use style="stroke:#000000;stroke-width:0.6;" x="451.72987" xlink:href="#mff5bd7f183" y="283.5"/>
      </g>
     </g>
    </g>
    <g id="xtick_88">
     <g id="line2d_113">
      <g>
       <use style="stroke:#000000;stroke-width:0.6;" x="463.324675" xlink:href="#mff5bd7f183" y="283.5"/>
      </g>
     </g>
    </g>
    <g id="xtick_89">
     <g id="line2d_114">
      <g>
       <use style="stroke:#000000;stroke-width:0.6;" x="474.919481" xlink:href="#mff5bd7f183" y="283.5"/>
      </g>
     </g>
    </g>
    <g id="xtick_90">
     <g id="line2d_115">
      <g>
       <use style="stroke:#000000;stroke-width:0.6;" x="486.514286" xlink:href="#mff5bd7f183" y="283.5"/>
      </g>
     </g>
    </g>
    <g id="xtick_91">
     <g id="line2d_116">
      <g>
       <use style="stroke:#000000;stroke-width:0.6;" x="498.109091" xlink:href="#mff5bd7f183" y="283.5"/>
      </g>
     </g>
    </g>
    <g id="xtick_92">
     <g id="line2d_117">
      <g>
       <use style="stroke:#000000;stroke-width:0.6;" x="509.703896" xlink:href="#mff5bd7f183" y="283.5"/>
      </g>
     </g>
    </g>
    <g id="text_14">
     <!-- digit index -->
     <defs>
      <path d="M 45.40625 27.984375 
Q 45.40625 37.75 41.375 43.109375 
Q 37.359375 48.484375 30.078125 48.484375 
Q 22.859375 48.484375 18.828125 43.109375 
Q 14.796875 37.75 14.796875 27.984375 
Q 14.796875 18.265625 18.828125 12.890625 
Q 22.859375 7.515625 30.078125 7.515625 
Q 37.359375 7.515625 41.375 12.890625 
Q 45.40625 18.265625 45.40625 27.984375 
z
M 54.390625 6.78125 
Q 54.390625 -7.171875 48.1875 -13.984375 
Q 42 -20.796875 29.203125 -20.796875 
Q 24.46875 -20.796875 20.265625 -20.09375 
Q 16.0625 -19.390625 12.109375 -17.921875 
L 12.109375 -9.1875 
Q 16.0625 -11.328125 19.921875 -12.34375 
Q 23.78125 -13.375 27.78125 -13.375 
Q 36.625 -13.375 41.015625 -8.765625 
Q 45.40625 -4.15625 45.40625 5.171875 
L 45.40625 9.625 
Q 42.625 4.78125 38.28125 2.390625 
Q 33.9375 0 27.875 0 
Q 17.828125 0 11.671875 7.65625 
Q 5.515625 15.328125 5.515625 27.984375 
Q 5.515625 40.671875 11.671875 48.328125 
Q 17.828125 56 27.875 56 
Q 33.9375 56 38.28125 53.609375 
Q 42.625 51.21875 45.40625 46.390625 
L 45.40625 54.6875 
L 54.390625 54.6875 
z
" id="DejaVuSans-67"/>
      <path d="M 54.890625 54.6875 
L 35.109375 28.078125 
L 55.90625 0 
L 45.3125 0 
L 29.390625 21.484375 
L 13.484375 0 
L 2.875 0 
L 24.125 28.609375 
L 4.6875 54.6875 
L 15.28125 54.6875 
L 29.78125 35.203125 
L 44.28125 54.6875 
z
" id="DejaVuSans-78"/>
     </defs>
     <g style="fill:#01769d;" transform="translate(268.757031 311.776563)scale(0.1 -0.1)">
      <use xlink:href="#DejaVuSans-64"/>
      <use x="63.476562" xlink:href="#DejaVuSans-69"/>
      <use x="91.259766" xlink:href="#DejaVuSans-67"/>
      <use x="154.736328" xlink:href="#DejaVuSans-69"/>
      <use x="182.519531" xlink:href="#DejaVuSans-74"/>
      <use x="221.728516" xlink:href="#DejaVuSans-20"/>
      <use x="253.515625" xlink:href="#DejaVuSans-69"/>
      <use x="281.298828" xlink:href="#DejaVuSans-6e"/>
      <use x="344.677734" xlink:href="#DejaVuSans-64"/>
      <use x="408.154297" xlink:href="#DejaVuSans-65"/>
      <use x="469.662109" xlink:href="#DejaVuSans-78"/>
     </g>
    </g>
   </g>
   <g id="matplotlib.axis_4">
    <g id="ytick_4">
     <g id="line2d_118">
      <path clip-path="url(#p56a352a73a)" d="M 72 246.031329 
L 518.4 246.031329 
" style="fill:none;stroke:#08bdf9;stroke-dasharray:0.8,1.32;stroke-dashoffset:0;stroke-width:0.8;"/>
     </g>
     <g id="line2d_119">
      <g>
       <use style="fill:#01769d;stroke:#01769d;stroke-width:0.8;" x="72" xlink:href="#me80c146f8d" y="246.031329"/>
      </g>
     </g>
     <g id="text_15">
      <!-- −20 -->
      <g style="fill:#01769d;" transform="translate(43.895313 249.830548)scale(0.1 -0.1)">
       <use xlink:href="#DejaVuSans-2212"/>
       <use x="83.789062" xlink:href="#DejaVuSans-32"/>
       <use x="147.412109" xlink:href="#DejaVuSans-30"/>
      </g>
     </g>
    </g>
    <g id="ytick_5">
     <g id="line2d_120">
      <path clip-path="url(#p56a352a73a)" d="M 72 206.390437 
L 518.4 206.390437 
" style="fill:none;stroke:#08bdf9;stroke-dasharray:0.8,1.32;stroke-dashoffset:0;stroke-width:0.8;"/>
     </g>
     <g id="line2d_121">
      <g>
       <use style="fill:#01769d;stroke:#01769d;stroke-width:0.8;" x="72" xlink:href="#me80c146f8d" y="206.390437"/>
      </g>
     </g>
     <g id="text_16">
      <!-- −10 -->
      <g style="fill:#01769d;" transform="translate(43.895313 210.189656)scale(0.1 -0.1)">
       <use xlink:href="#DejaVuSans-2212"/>
       <use x="83.789062" xlink:href="#DejaVuSans-31"/>
       <use x="147.412109" xlink:href="#DejaVuSans-30"/>
      </g>
     </g>
    </g>
    <g id="ytick_6">
     <g id="line2d_122">
      <path clip-path="url(#p56a352a73a)" d="M 72 166.749545 
L 518.4 166.749545 
" style="fill:none;stroke:#08bdf9;stroke-dasharray:0.8,1.32;stroke-dashoffset:0;stroke-width:0.8;"/>
     </g>
     <g id="line2d_123">
      <g>
       <use style="fill:#01769d;stroke:#01769d;stroke-width:0.8;" x="72" xlink:href="#me80c146f8d" y="166.749545"/>
      </g>
     </g>
     <g id="text_17">
      <!-- 0 -->
      <g style="fill:#01769d;" transform="translate(58.6375 170.548764)scale(0.1 -0.1)">
       <use xlink:href="#DejaVuSans-30"/>
      </g>
     </g>
    </g>
    <g id="text_18">
     <!-- absolute -->
     <defs>
      <path d="M 48.6875 27.296875 
Q 48.6875 37.203125 44.609375 42.84375 
Q 40.53125 48.484375 33.40625 48.484375 
Q 26.265625 48.484375 22.1875 42.84375 
Q 18.109375 37.203125 18.109375 27.296875 
Q 18.109375 17.390625 22.1875 11.75 
Q 26.265625 6.109375 33.40625 6.109375 
Q 40.53125 6.109375 44.609375 11.75 
Q 48.6875 17.390625 48.6875 27.296875 
z
M 18.109375 46.390625 
Q 20.953125 51.265625 25.265625 53.625 
Q 29.59375 56 35.59375 56 
Q 45.5625 56 51.78125 48.09375 
Q 58.015625 40.1875 58.015625 27.296875 
Q 58.015625 14.40625 51.78125 6.484375 
Q 45.5625 -1.421875 35.59375 -1.421875 
Q 29.59375 -1.421875 25.265625 0.953125 
Q 20.953125 3.328125 18.109375 8.203125 
L 18.109375 0 
L 9.078125 0 
L 9.078125 75.984375 
L 18.109375 75.984375 
z
" id="DejaVuSans-62"/>
      <path d="M 8.5 21.578125 
L 8.5 54.6875 
L 17.484375 54.6875 
L 17.484375 21.921875 
Q 17.484375 14.15625 20.5 10.265625 
Q 23.53125 6.390625 29.59375 6.390625 
Q 36.859375 6.390625 41.078125 11.03125 
Q 45.3125 15.671875 45.3125 23.6875 
L 45.3125 54.6875 
L 54.296875 54.6875 
L 54.296875 0 
L 45.3125 0 
L 45.3125 8.40625 
Q 42.046875 3.421875 37.71875 1 
Q 33.40625 -1.421875 27.6875 -1.421875 
Q 18.265625 -1.421875 13.375 4.4375 
Q 8.5 10.296875 8.5 21.578125 
z
M 31.109375 56 
z
" id="DejaVuSans-75"/>
     </defs>
     <g style="fill:#01769d;" transform="translate(26.617812 243.841875)rotate(-90)scale(0.1 -0.1)">
      <use xlink:href="#DejaVuSans-61"/>
      <use x="61.279297" xlink:href="#DejaVuSans-62"/>
      <use x="124.755859" xlink:href="#DejaVuSans-73"/>
      <use x="176.855469" xlink:href="#DejaVuSans-6f"/>
      <use x="238.037109" xlink:href="#DejaVuSans-6c"/>
      <use x="265.820312" xlink:href="#DejaVuSans-75"/>
      <use x="329.199219" xlink:href="#DejaVuSans-74"/>
      <use x="368.408203" xlink:href="#DejaVuSans-65"/>
     </g>
     <!-- displacement [cm] -->
     <g style="fill:#01769d;" transform="translate(37.815625 269.152031)rotate(-90)scale(0.1 -0.1)">
      <use xlink:href="#DejaVuSans-64"/>
      <use x="63.476562" xlink:href="#DejaVuSans-69"/>
      <use x="91.259766" xlink:href="#DejaVuSans-73"/>
      <use x="143.359375" xlink:href="#DejaVuSans-70"/>
      <use x="206.835938" xlink:href="#DejaVuSans-6c"/>
      <use x="234.619141" xlink:href="#DejaVuSans-61"/>
      <use x="295.898438" xlink:href="#DejaVuSans-63"/>
      <use x="350.878906" xlink:href="#DejaVuSans-65"/>
      <use x="412.402344" xlink:href="#DejaVuSans-6d"/>
      <use x="509.814453" xlink:href="#DejaVuSans-65"/>
      <use x="571.337891" xlink:href="#DejaVuSans-6e"/>
      <use x="634.716797" xlink:href="#DejaVuSans-74"/>
      <use x="673.925781" xlink:href="#DejaVuSans-20"/>
      <use x="705.712891" xlink:href="#DejaVuSans-5b"/>
      <use x="744.726562" xlink:href="#DejaVuSans-63"/>
      <use x="799.707031" xlink:href="#DejaVuSans-6d"/>
      <use x="897.119141" xlink:href="#DejaVuSans-5d"/>
     </g>
    </g>
   </g>
   <g id="line2d_124">
    <path clip-path="url(#p56a352a73a)" d="M 92.290909 166.749545 
L 103.885714 171.336769 
L 115.480519 175.461185 
L 127.075325 210.838331 
L 138.67013 183.662467 
L 150.264935 201.642265 
L 161.85974 215.918753 
L 173.454545 227.272889 
L 185.049351 236.254354 
L 196.644156 243.900555 
L 208.238961 250.571532 
L 219.833766 256.399839 
L 231.428571 261.318446 
L 243.023377 265.560658 
L 254.618182 269.361205 
L 266.212987 272.585298 
L 277.807792 275.020593 
L 289.402597 276.310449 
L 300.997403 276.342645 
L 312.592208 275.055659 
L 324.187013 272.494897 
L 335.781818 269.32511 
L 347.376623 265.651968 
L 358.971429 261.335867 
L 370.566234 256.30666 
L 382.161039 250.545701 
L 393.755844 244.011078 
L 405.350649 236.271689 
L 416.945455 227.139598 
L 428.54026 215.925774 
L 440.135065 201.657877 
L 451.72987 183.73588 
L 463.324675 210.798856 
L 474.919481 175.439816 
L 486.514286 171.430598 
L 498.109091 166.749545 
" style="fill:none;stroke:#fe3ea0;stroke-linecap:square;stroke-width:1.5;"/>
   </g>
   <g id="line2d_125">
    <path clip-path="url(#p56a352a73a)" d="M 92.290909 166.749545 
L 103.885714 186.895142 
L 115.480519 205.515673 
L 127.075325 174.829638 
L 138.67013 208.731683 
L 150.264935 216.355407 
L 161.85974 224.9323 
L 173.454545 233.830153 
L 185.049351 241.554291 
L 196.644156 248.238038 
L 208.238961 254.197538 
L 219.833766 259.387747 
L 231.428571 263.989388 
L 243.023377 268.053226 
L 254.618182 271.72479 
L 266.212987 274.639015 
L 277.807792 276.481759 
L 289.402597 277.940455 
L 300.997403 277.903227 
L 312.592208 276.557231 
L 324.187013 274.616855 
L 335.781818 271.658337 
L 347.376623 268.058714 
L 358.971429 264.000115 
L 370.566234 259.351178 
L 382.161039 254.092233 
L 393.755844 248.226714 
L 405.350649 241.541402 
L 416.945455 233.79321 
L 428.54026 224.936209 
L 440.135065 216.32462 
L 451.72987 208.747815 
L 463.324675 174.814286 
L 474.919481 205.496694 
L 486.514286 186.939246 
L 498.109091 166.749545 
" style="fill:none;stroke:#fe3ea0;stroke-linecap:square;stroke-width:1.5;"/>
   </g>
   <g id="line2d_126">
    <path clip-path="url(#p56a352a73a)" d="M 150.264935 283.5 
L 150.264935 161.19 
" style="fill:none;stroke:#ffd2e9;stroke-linecap:square;stroke-width:1.5;"/>
   </g>
   <g id="line2d_127">
    <path clip-path="url(#p56a352a73a)" d="M 440.135065 283.5 
L 440.135065 161.19 
" style="fill:none;stroke:#ffd2e9;stroke-linecap:square;stroke-width:1.5;"/>
   </g>
   <g id="patch_6">
    <path d="M 72 283.5 
L 72 161.19 
" style="fill:none;stroke:#08bdf9;stroke-linecap:square;stroke-linejoin:miter;stroke-width:0.8;"/>
   </g>
   <g id="patch_7">
    <path d="M 72 283.5 
L 518.4 283.5 
" style="fill:none;stroke:#08bdf9;stroke-linecap:square;stroke-linejoin:miter;stroke-width:0.8;"/>
   </g>
  </g>
 </g>
 <defs>
  <clipPath id="pf8e72e427c">
   <rect height="122.31" width="446.4" x="72" y="38.88"/>
  </clipPath>
  <clipPath id="p56a352a73a">
   <rect height="122.31" width="446.4" x="72" y="161.19"/>
  </clipPath>
 </defs>
</svg>
