G04 #@! TF.GenerationSoftware,KiCad,Pcbnew,(5.0.1)*
G04 #@! TF.CreationDate,2019-02-02T10:43:19+09:00*
G04 #@! TF.ProjectId,driver,6472697665722E6B696361645F706362,rev?*
G04 #@! TF.SameCoordinates,Original*
G04 #@! TF.FileFunction,Legend,Top*
G04 #@! TF.FilePolarity,Positive*
%FSLAX46Y46*%
G04 Gerber Fmt 4.6, Leading zero omitted, Abs format (unit mm)*
G04 Created by KiCad (PCBNEW (5.0.1)) date Sat Feb  2 10:43:19 2019*
%MOMM*%
%LPD*%
G01*
G04 APERTURE LIST*
%ADD10C,0.300000*%
%ADD11C,0.200000*%
%ADD12C,0.600000*%
%ADD13C,0.450000*%
%ADD14C,0.120000*%
%ADD15C,0.150000*%
G04 APERTURE END LIST*
D10*
X103785714Y-95678571D02*
X103785714Y-94178571D01*
X104285714Y-95250000D01*
X104785714Y-94178571D01*
X104785714Y-95678571D01*
X105357142Y-94178571D02*
X106285714Y-94178571D01*
X105785714Y-94750000D01*
X106000000Y-94750000D01*
X106142857Y-94821428D01*
X106214285Y-94892857D01*
X106285714Y-95035714D01*
X106285714Y-95392857D01*
X106214285Y-95535714D01*
X106142857Y-95607142D01*
X106000000Y-95678571D01*
X105571428Y-95678571D01*
X105428571Y-95607142D01*
X105357142Y-95535714D01*
D11*
X114499999Y-149662380D02*
X114499999Y-148995714D01*
X114499999Y-149186190D02*
X114547618Y-149090952D01*
X114595237Y-149043333D01*
X114690475Y-148995714D01*
X114785714Y-148995714D01*
X115499999Y-149614761D02*
X115404761Y-149662380D01*
X115214285Y-149662380D01*
X115119047Y-149614761D01*
X115071428Y-149519523D01*
X115071428Y-149138571D01*
X115119047Y-149043333D01*
X115214285Y-148995714D01*
X115404761Y-148995714D01*
X115499999Y-149043333D01*
X115547618Y-149138571D01*
X115547618Y-149233809D01*
X115071428Y-149329047D01*
X115880952Y-148995714D02*
X116119047Y-149662380D01*
X116357142Y-148995714D01*
X117404761Y-148662380D02*
X118023809Y-148662380D01*
X117690475Y-149043333D01*
X117833333Y-149043333D01*
X117928571Y-149090952D01*
X117976190Y-149138571D01*
X118023809Y-149233809D01*
X118023809Y-149471904D01*
X117976190Y-149567142D01*
X117928571Y-149614761D01*
X117833333Y-149662380D01*
X117547618Y-149662380D01*
X117452380Y-149614761D01*
X117404761Y-149567142D01*
X115261904Y-152785714D02*
X114500000Y-153071428D01*
X115261904Y-153357142D01*
X115738095Y-153452380D02*
X115738095Y-152452380D01*
X116166666Y-153452380D02*
X116166666Y-152928571D01*
X116119047Y-152833333D01*
X116023809Y-152785714D01*
X115880952Y-152785714D01*
X115785714Y-152833333D01*
X115738095Y-152880952D01*
X116547619Y-152785714D02*
X116738095Y-153452380D01*
X116928571Y-152976190D01*
X117119047Y-153452380D01*
X117309523Y-152785714D01*
X118309523Y-152976190D02*
X118261904Y-152928571D01*
X118166666Y-152880952D01*
X118071428Y-152880952D01*
X117976190Y-152928571D01*
X117928571Y-152976190D01*
X117880952Y-153071428D01*
X117880952Y-153166666D01*
X117928571Y-153261904D01*
X117976190Y-153309523D01*
X118071428Y-153357142D01*
X118166666Y-153357142D01*
X118261904Y-153309523D01*
X118309523Y-153261904D01*
X118309523Y-152880952D02*
X118309523Y-153261904D01*
X118357142Y-153309523D01*
X118404761Y-153309523D01*
X118500000Y-153261904D01*
X118547619Y-153166666D01*
X118547619Y-152928571D01*
X118452380Y-152785714D01*
X118309523Y-152690476D01*
X118119047Y-152642857D01*
X117928571Y-152690476D01*
X117785714Y-152785714D01*
X117690476Y-152928571D01*
X117642857Y-153119047D01*
X117690476Y-153309523D01*
X117785714Y-153452380D01*
X117928571Y-153547619D01*
X118119047Y-153595238D01*
X118309523Y-153547619D01*
X118452380Y-153452380D01*
X118976190Y-152785714D02*
X118976190Y-153642857D01*
X118928571Y-153738095D01*
X118833333Y-153785714D01*
X118785714Y-153785714D01*
X118976190Y-152452380D02*
X118928571Y-152500000D01*
X118976190Y-152547619D01*
X119023809Y-152500000D01*
X118976190Y-152452380D01*
X118976190Y-152547619D01*
X119880952Y-153452380D02*
X119880952Y-152928571D01*
X119833333Y-152833333D01*
X119738095Y-152785714D01*
X119547619Y-152785714D01*
X119452380Y-152833333D01*
X119880952Y-153404761D02*
X119785714Y-153452380D01*
X119547619Y-153452380D01*
X119452380Y-153404761D01*
X119404761Y-153309523D01*
X119404761Y-153214285D01*
X119452380Y-153119047D01*
X119547619Y-153071428D01*
X119785714Y-153071428D01*
X119880952Y-153023809D01*
X120309523Y-153404761D02*
X120404761Y-153452380D01*
X120595238Y-153452380D01*
X120690476Y-153404761D01*
X120738095Y-153309523D01*
X120738095Y-153261904D01*
X120690476Y-153166666D01*
X120595238Y-153119047D01*
X120452380Y-153119047D01*
X120357142Y-153071428D01*
X120309523Y-152976190D01*
X120309523Y-152928571D01*
X120357142Y-152833333D01*
X120452380Y-152785714D01*
X120595238Y-152785714D01*
X120690476Y-152833333D01*
X121547619Y-153404761D02*
X121452380Y-153452380D01*
X121261904Y-153452380D01*
X121166666Y-153404761D01*
X121119047Y-153309523D01*
X121119047Y-152928571D01*
X121166666Y-152833333D01*
X121261904Y-152785714D01*
X121452380Y-152785714D01*
X121547619Y-152833333D01*
X121595238Y-152928571D01*
X121595238Y-153023809D01*
X121119047Y-153119047D01*
X122452380Y-152785714D02*
X122452380Y-153595238D01*
X122404761Y-153690476D01*
X122357142Y-153738095D01*
X122261904Y-153785714D01*
X122119047Y-153785714D01*
X122023809Y-153738095D01*
X122452380Y-153404761D02*
X122357142Y-153452380D01*
X122166666Y-153452380D01*
X122071428Y-153404761D01*
X122023809Y-153357142D01*
X121976190Y-153261904D01*
X121976190Y-152976190D01*
X122023809Y-152880952D01*
X122071428Y-152833333D01*
X122166666Y-152785714D01*
X122357142Y-152785714D01*
X122452380Y-152833333D01*
X122928571Y-153357142D02*
X122976190Y-153404761D01*
X122928571Y-153452380D01*
X122880952Y-153404761D01*
X122928571Y-153357142D01*
X122928571Y-153452380D01*
X123404761Y-152785714D02*
X123404761Y-153452380D01*
X123404761Y-152880952D02*
X123452380Y-152833333D01*
X123547619Y-152785714D01*
X123690476Y-152785714D01*
X123785714Y-152833333D01*
X123833333Y-152928571D01*
X123833333Y-153452380D01*
X124690476Y-153404761D02*
X124595238Y-153452380D01*
X124404761Y-153452380D01*
X124309523Y-153404761D01*
X124261904Y-153309523D01*
X124261904Y-152928571D01*
X124309523Y-152833333D01*
X124404761Y-152785714D01*
X124595238Y-152785714D01*
X124690476Y-152833333D01*
X124738095Y-152928571D01*
X124738095Y-153023809D01*
X124261904Y-153119047D01*
X125023809Y-152785714D02*
X125404761Y-152785714D01*
X125166666Y-152452380D02*
X125166666Y-153309523D01*
X125214285Y-153404761D01*
X125309523Y-153452380D01*
X125404761Y-153452380D01*
X125738095Y-152785714D02*
X126500000Y-153071428D01*
X125738095Y-153357142D01*
D10*
X162950000Y-93500000D02*
G75*
G03X162950000Y-93500000I-550000J0D01*
G01*
X121550000Y-75000000D02*
G75*
G03X121550000Y-75000000I-550000J0D01*
G01*
X113371428Y-56764285D02*
X114871428Y-56764285D01*
X114871428Y-57764285D02*
X114871428Y-58050000D01*
X114800000Y-58192857D01*
X114657142Y-58335714D01*
X114371428Y-58407142D01*
X113871428Y-58407142D01*
X113585714Y-58335714D01*
X113442857Y-58192857D01*
X113371428Y-58050000D01*
X113371428Y-57764285D01*
X113442857Y-57621428D01*
X113585714Y-57478571D01*
X113871428Y-57407142D01*
X114371428Y-57407142D01*
X114657142Y-57478571D01*
X114800000Y-57621428D01*
X114871428Y-57764285D01*
X112871428Y-59407142D02*
X115014285Y-59407142D01*
X114228571Y-60335714D02*
X114228571Y-61764285D01*
X113800000Y-60621428D02*
X113800000Y-61478571D01*
X114871428Y-61050000D02*
X114228571Y-61050000D01*
X113371428Y-61192857D02*
X113371428Y-60907142D01*
X112871428Y-62692857D02*
X115014285Y-62692857D01*
X113514285Y-64621428D02*
X113442857Y-64550000D01*
X113371428Y-64335714D01*
X113371428Y-64192857D01*
X113442857Y-63978571D01*
X113585714Y-63835714D01*
X113728571Y-63764285D01*
X114014285Y-63692857D01*
X114228571Y-63692857D01*
X114514285Y-63764285D01*
X114657142Y-63835714D01*
X114800000Y-63978571D01*
X114871428Y-64192857D01*
X114871428Y-64335714D01*
X114800000Y-64550000D01*
X114728571Y-64621428D01*
X113371428Y-65264285D02*
X114871428Y-65264285D01*
X113371428Y-66121428D02*
X114228571Y-65478571D01*
X114871428Y-66121428D02*
X114014285Y-65264285D01*
X112871428Y-67121428D02*
X115014285Y-67121428D01*
X113942857Y-68192857D02*
X113942857Y-69335714D01*
X113371428Y-68764285D02*
X114514285Y-68764285D01*
D12*
X161750000Y-94957142D02*
X162321428Y-94957142D01*
X162607142Y-95100000D01*
X162892857Y-95385714D01*
X163035714Y-95957142D01*
X163035714Y-96957142D01*
X162892857Y-97528571D01*
X162607142Y-97814285D01*
X162321428Y-97957142D01*
X161750000Y-97957142D01*
X161464285Y-97814285D01*
X161178571Y-97528571D01*
X161035714Y-96957142D01*
X161035714Y-95957142D01*
X161178571Y-95385714D01*
X161464285Y-95100000D01*
X161750000Y-94957142D01*
X164321428Y-94957142D02*
X164321428Y-97385714D01*
X164464285Y-97671428D01*
X164607142Y-97814285D01*
X164892857Y-97957142D01*
X165464285Y-97957142D01*
X165750000Y-97814285D01*
X165892857Y-97671428D01*
X166035714Y-97385714D01*
X166035714Y-94957142D01*
X167035714Y-94957142D02*
X168750000Y-94957142D01*
X167892857Y-97957142D02*
X167892857Y-94957142D01*
D10*
X97250000Y-89300000D02*
G75*
G03X97250000Y-89300000I-550000J0D01*
G01*
X77064285Y-89678571D02*
X77564285Y-91178571D01*
X78064285Y-89678571D01*
X78564285Y-91178571D02*
X78564285Y-90178571D01*
X78564285Y-89678571D02*
X78492857Y-89750000D01*
X78564285Y-89821428D01*
X78635714Y-89750000D01*
X78564285Y-89678571D01*
X78564285Y-89821428D01*
X79278571Y-90178571D02*
X79278571Y-91178571D01*
X79278571Y-90321428D02*
X79350000Y-90250000D01*
X79492857Y-90178571D01*
X79707142Y-90178571D01*
X79850000Y-90250000D01*
X79921428Y-90392857D01*
X79921428Y-91178571D01*
X104628571Y-60878571D02*
X105128571Y-62378571D01*
X105628571Y-60878571D01*
X106128571Y-62378571D02*
X106128571Y-60878571D01*
X106128571Y-61450000D02*
X106271428Y-61378571D01*
X106557142Y-61378571D01*
X106700000Y-61450000D01*
X106771428Y-61521428D01*
X106842857Y-61664285D01*
X106842857Y-62092857D01*
X106771428Y-62235714D01*
X106700000Y-62307142D01*
X106557142Y-62378571D01*
X106271428Y-62378571D01*
X106128571Y-62307142D01*
X107700000Y-62378571D02*
X107557142Y-62307142D01*
X107485714Y-62235714D01*
X107414285Y-62092857D01*
X107414285Y-61664285D01*
X107485714Y-61521428D01*
X107557142Y-61450000D01*
X107700000Y-61378571D01*
X107914285Y-61378571D01*
X108057142Y-61450000D01*
X108128571Y-61521428D01*
X108200000Y-61664285D01*
X108200000Y-62092857D01*
X108128571Y-62235714D01*
X108057142Y-62307142D01*
X107914285Y-62378571D01*
X107700000Y-62378571D01*
X109057142Y-62378571D02*
X108914285Y-62307142D01*
X108842857Y-62235714D01*
X108771428Y-62092857D01*
X108771428Y-61664285D01*
X108842857Y-61521428D01*
X108914285Y-61450000D01*
X109057142Y-61378571D01*
X109271428Y-61378571D01*
X109414285Y-61450000D01*
X109485714Y-61521428D01*
X109557142Y-61664285D01*
X109557142Y-62092857D01*
X109485714Y-62235714D01*
X109414285Y-62307142D01*
X109271428Y-62378571D01*
X109057142Y-62378571D01*
X110128571Y-62307142D02*
X110271428Y-62378571D01*
X110557142Y-62378571D01*
X110700000Y-62307142D01*
X110771428Y-62164285D01*
X110771428Y-62092857D01*
X110700000Y-61950000D01*
X110557142Y-61878571D01*
X110342857Y-61878571D01*
X110200000Y-61807142D01*
X110128571Y-61664285D01*
X110128571Y-61592857D01*
X110200000Y-61450000D01*
X110342857Y-61378571D01*
X110557142Y-61378571D01*
X110700000Y-61450000D01*
X111200000Y-61378571D02*
X111771428Y-61378571D01*
X111414285Y-60878571D02*
X111414285Y-62164285D01*
X111485714Y-62307142D01*
X111628571Y-62378571D01*
X111771428Y-62378571D01*
X97164285Y-61478571D02*
X97664285Y-62978571D01*
X98164285Y-61478571D01*
X98664285Y-62978571D02*
X98664285Y-61978571D01*
X98664285Y-61478571D02*
X98592857Y-61550000D01*
X98664285Y-61621428D01*
X98735714Y-61550000D01*
X98664285Y-61478571D01*
X98664285Y-61621428D01*
X99378571Y-61978571D02*
X99378571Y-62978571D01*
X99378571Y-62121428D02*
X99450000Y-62050000D01*
X99592857Y-61978571D01*
X99807142Y-61978571D01*
X99950000Y-62050000D01*
X100021428Y-62192857D01*
X100021428Y-62978571D01*
X102100000Y-69700000D02*
X103500000Y-69700000D01*
X102800000Y-69900000D02*
X102100000Y-70700000D01*
X103500000Y-70700000D02*
X102800000Y-69900000D01*
X102200000Y-70700000D02*
X103500000Y-70700000D01*
D11*
X85386904Y-78577380D02*
X86005952Y-78577380D01*
X85672619Y-78958333D01*
X85815476Y-78958333D01*
X85910714Y-79005952D01*
X85958333Y-79053571D01*
X86005952Y-79148809D01*
X86005952Y-79386904D01*
X85958333Y-79482142D01*
X85910714Y-79529761D01*
X85815476Y-79577380D01*
X85529761Y-79577380D01*
X85434523Y-79529761D01*
X85386904Y-79482142D01*
X86291666Y-78577380D02*
X86625000Y-79577380D01*
X86958333Y-78577380D01*
X87196428Y-78577380D02*
X87815476Y-78577380D01*
X87482142Y-78958333D01*
X87625000Y-78958333D01*
X87720238Y-79005952D01*
X87767857Y-79053571D01*
X87815476Y-79148809D01*
X87815476Y-79386904D01*
X87767857Y-79482142D01*
X87720238Y-79529761D01*
X87625000Y-79577380D01*
X87339285Y-79577380D01*
X87244047Y-79529761D01*
X87196428Y-79482142D01*
X77086904Y-77377380D02*
X77705952Y-77377380D01*
X77372619Y-77758333D01*
X77515476Y-77758333D01*
X77610714Y-77805952D01*
X77658333Y-77853571D01*
X77705952Y-77948809D01*
X77705952Y-78186904D01*
X77658333Y-78282142D01*
X77610714Y-78329761D01*
X77515476Y-78377380D01*
X77229761Y-78377380D01*
X77134523Y-78329761D01*
X77086904Y-78282142D01*
X77991666Y-77377380D02*
X78325000Y-78377380D01*
X78658333Y-77377380D01*
X78896428Y-77377380D02*
X79515476Y-77377380D01*
X79182142Y-77758333D01*
X79325000Y-77758333D01*
X79420238Y-77805952D01*
X79467857Y-77853571D01*
X79515476Y-77948809D01*
X79515476Y-78186904D01*
X79467857Y-78282142D01*
X79420238Y-78329761D01*
X79325000Y-78377380D01*
X79039285Y-78377380D01*
X78944047Y-78329761D01*
X78896428Y-78282142D01*
D10*
X89378571Y-152728571D02*
X88664285Y-152728571D01*
X88664285Y-151228571D01*
X90092857Y-152728571D02*
X89950000Y-152657142D01*
X89878571Y-152585714D01*
X89807142Y-152442857D01*
X89807142Y-152014285D01*
X89878571Y-151871428D01*
X89950000Y-151800000D01*
X90092857Y-151728571D01*
X90307142Y-151728571D01*
X90450000Y-151800000D01*
X90521428Y-151871428D01*
X90592857Y-152014285D01*
X90592857Y-152442857D01*
X90521428Y-152585714D01*
X90450000Y-152657142D01*
X90307142Y-152728571D01*
X90092857Y-152728571D01*
X91878571Y-152728571D02*
X91878571Y-151942857D01*
X91807142Y-151800000D01*
X91664285Y-151728571D01*
X91378571Y-151728571D01*
X91235714Y-151800000D01*
X91878571Y-152657142D02*
X91735714Y-152728571D01*
X91378571Y-152728571D01*
X91235714Y-152657142D01*
X91164285Y-152514285D01*
X91164285Y-152371428D01*
X91235714Y-152228571D01*
X91378571Y-152157142D01*
X91735714Y-152157142D01*
X91878571Y-152085714D01*
X93235714Y-152728571D02*
X93235714Y-151228571D01*
X93235714Y-152657142D02*
X93092857Y-152728571D01*
X92807142Y-152728571D01*
X92664285Y-152657142D01*
X92592857Y-152585714D01*
X92521428Y-152442857D01*
X92521428Y-152014285D01*
X92592857Y-151871428D01*
X92664285Y-151800000D01*
X92807142Y-151728571D01*
X93092857Y-151728571D01*
X93235714Y-151800000D01*
X88607142Y-146992857D02*
X89107142Y-146992857D01*
X89321428Y-147778571D02*
X88607142Y-147778571D01*
X88607142Y-146278571D01*
X89321428Y-146278571D01*
X89964285Y-147778571D02*
X89964285Y-146778571D01*
X89964285Y-147064285D02*
X90035714Y-146921428D01*
X90107142Y-146850000D01*
X90250000Y-146778571D01*
X90392857Y-146778571D01*
X90892857Y-147778571D02*
X90892857Y-146778571D01*
X90892857Y-147064285D02*
X90964285Y-146921428D01*
X91035714Y-146850000D01*
X91178571Y-146778571D01*
X91321428Y-146778571D01*
X92035714Y-147778571D02*
X91892857Y-147707142D01*
X91821428Y-147635714D01*
X91750000Y-147492857D01*
X91750000Y-147064285D01*
X91821428Y-146921428D01*
X91892857Y-146850000D01*
X92035714Y-146778571D01*
X92250000Y-146778571D01*
X92392857Y-146850000D01*
X92464285Y-146921428D01*
X92535714Y-147064285D01*
X92535714Y-147492857D01*
X92464285Y-147635714D01*
X92392857Y-147707142D01*
X92250000Y-147778571D01*
X92035714Y-147778571D01*
X93178571Y-147778571D02*
X93178571Y-146778571D01*
X93178571Y-147064285D02*
X93250000Y-146921428D01*
X93321428Y-146850000D01*
X93464285Y-146778571D01*
X93607142Y-146778571D01*
X135882142Y-152560714D02*
X135810714Y-152632142D01*
X135596428Y-152703571D01*
X135453571Y-152703571D01*
X135239285Y-152632142D01*
X135096428Y-152489285D01*
X135025000Y-152346428D01*
X134953571Y-152060714D01*
X134953571Y-151846428D01*
X135025000Y-151560714D01*
X135096428Y-151417857D01*
X135239285Y-151275000D01*
X135453571Y-151203571D01*
X135596428Y-151203571D01*
X135810714Y-151275000D01*
X135882142Y-151346428D01*
X136739285Y-152703571D02*
X136596428Y-152632142D01*
X136525000Y-152560714D01*
X136453571Y-152417857D01*
X136453571Y-151989285D01*
X136525000Y-151846428D01*
X136596428Y-151775000D01*
X136739285Y-151703571D01*
X136953571Y-151703571D01*
X137096428Y-151775000D01*
X137167857Y-151846428D01*
X137239285Y-151989285D01*
X137239285Y-152417857D01*
X137167857Y-152560714D01*
X137096428Y-152632142D01*
X136953571Y-152703571D01*
X136739285Y-152703571D01*
X137882142Y-152703571D02*
X137882142Y-151703571D01*
X137882142Y-151846428D02*
X137953571Y-151775000D01*
X138096428Y-151703571D01*
X138310714Y-151703571D01*
X138453571Y-151775000D01*
X138525000Y-151917857D01*
X138525000Y-152703571D01*
X138525000Y-151917857D02*
X138596428Y-151775000D01*
X138739285Y-151703571D01*
X138953571Y-151703571D01*
X139096428Y-151775000D01*
X139167857Y-151917857D01*
X139167857Y-152703571D01*
X139882142Y-152703571D02*
X139882142Y-151703571D01*
X139882142Y-151846428D02*
X139953571Y-151775000D01*
X140096428Y-151703571D01*
X140310714Y-151703571D01*
X140453571Y-151775000D01*
X140525000Y-151917857D01*
X140525000Y-152703571D01*
X140525000Y-151917857D02*
X140596428Y-151775000D01*
X140739285Y-151703571D01*
X140953571Y-151703571D01*
X141096428Y-151775000D01*
X141167857Y-151917857D01*
X141167857Y-152703571D01*
X142525000Y-151703571D02*
X142525000Y-152703571D01*
X141882142Y-151703571D02*
X141882142Y-152489285D01*
X141953571Y-152632142D01*
X142096428Y-152703571D01*
X142310714Y-152703571D01*
X142453571Y-152632142D01*
X142525000Y-152560714D01*
X143239285Y-151703571D02*
X143239285Y-152703571D01*
X143239285Y-151846428D02*
X143310714Y-151775000D01*
X143453571Y-151703571D01*
X143667857Y-151703571D01*
X143810714Y-151775000D01*
X143882142Y-151917857D01*
X143882142Y-152703571D01*
X144596428Y-152703571D02*
X144596428Y-151703571D01*
X144596428Y-151203571D02*
X144525000Y-151275000D01*
X144596428Y-151346428D01*
X144667857Y-151275000D01*
X144596428Y-151203571D01*
X144596428Y-151346428D01*
X145953571Y-152632142D02*
X145810714Y-152703571D01*
X145525000Y-152703571D01*
X145382142Y-152632142D01*
X145310714Y-152560714D01*
X145239285Y-152417857D01*
X145239285Y-151989285D01*
X145310714Y-151846428D01*
X145382142Y-151775000D01*
X145525000Y-151703571D01*
X145810714Y-151703571D01*
X145953571Y-151775000D01*
X147239285Y-152703571D02*
X147239285Y-151917857D01*
X147167857Y-151775000D01*
X147025000Y-151703571D01*
X146739285Y-151703571D01*
X146596428Y-151775000D01*
X147239285Y-152632142D02*
X147096428Y-152703571D01*
X146739285Y-152703571D01*
X146596428Y-152632142D01*
X146525000Y-152489285D01*
X146525000Y-152346428D01*
X146596428Y-152203571D01*
X146739285Y-152132142D01*
X147096428Y-152132142D01*
X147239285Y-152060714D01*
X147739285Y-151703571D02*
X148310714Y-151703571D01*
X147953571Y-151203571D02*
X147953571Y-152489285D01*
X148025000Y-152632142D01*
X148167857Y-152703571D01*
X148310714Y-152703571D01*
X148810714Y-152703571D02*
X148810714Y-151703571D01*
X148810714Y-151203571D02*
X148739285Y-151275000D01*
X148810714Y-151346428D01*
X148882142Y-151275000D01*
X148810714Y-151203571D01*
X148810714Y-151346428D01*
X149739285Y-152703571D02*
X149596428Y-152632142D01*
X149525000Y-152560714D01*
X149453571Y-152417857D01*
X149453571Y-151989285D01*
X149525000Y-151846428D01*
X149596428Y-151775000D01*
X149739285Y-151703571D01*
X149953571Y-151703571D01*
X150096428Y-151775000D01*
X150167857Y-151846428D01*
X150239285Y-151989285D01*
X150239285Y-152417857D01*
X150167857Y-152560714D01*
X150096428Y-152632142D01*
X149953571Y-152703571D01*
X149739285Y-152703571D01*
X150882142Y-151703571D02*
X150882142Y-152703571D01*
X150882142Y-151846428D02*
X150953571Y-151775000D01*
X151096428Y-151703571D01*
X151310714Y-151703571D01*
X151453571Y-151775000D01*
X151525000Y-151917857D01*
X151525000Y-152703571D01*
X141650000Y-146278571D02*
X141935714Y-146278571D01*
X142078571Y-146350000D01*
X142221428Y-146492857D01*
X142292857Y-146778571D01*
X142292857Y-147278571D01*
X142221428Y-147564285D01*
X142078571Y-147707142D01*
X141935714Y-147778571D01*
X141650000Y-147778571D01*
X141507142Y-147707142D01*
X141364285Y-147564285D01*
X141292857Y-147278571D01*
X141292857Y-146778571D01*
X141364285Y-146492857D01*
X141507142Y-146350000D01*
X141650000Y-146278571D01*
X142935714Y-146778571D02*
X142935714Y-148278571D01*
X142935714Y-146850000D02*
X143078571Y-146778571D01*
X143364285Y-146778571D01*
X143507142Y-146850000D01*
X143578571Y-146921428D01*
X143650000Y-147064285D01*
X143650000Y-147492857D01*
X143578571Y-147635714D01*
X143507142Y-147707142D01*
X143364285Y-147778571D01*
X143078571Y-147778571D01*
X142935714Y-147707142D01*
X144864285Y-147707142D02*
X144721428Y-147778571D01*
X144435714Y-147778571D01*
X144292857Y-147707142D01*
X144221428Y-147564285D01*
X144221428Y-146992857D01*
X144292857Y-146850000D01*
X144435714Y-146778571D01*
X144721428Y-146778571D01*
X144864285Y-146850000D01*
X144935714Y-146992857D01*
X144935714Y-147135714D01*
X144221428Y-147278571D01*
X145578571Y-147778571D02*
X145578571Y-146778571D01*
X145578571Y-147064285D02*
X145650000Y-146921428D01*
X145721428Y-146850000D01*
X145864285Y-146778571D01*
X146007142Y-146778571D01*
X147150000Y-147778571D02*
X147150000Y-146992857D01*
X147078571Y-146850000D01*
X146935714Y-146778571D01*
X146650000Y-146778571D01*
X146507142Y-146850000D01*
X147150000Y-147707142D02*
X147007142Y-147778571D01*
X146650000Y-147778571D01*
X146507142Y-147707142D01*
X146435714Y-147564285D01*
X146435714Y-147421428D01*
X146507142Y-147278571D01*
X146650000Y-147207142D01*
X147007142Y-147207142D01*
X147150000Y-147135714D01*
X147650000Y-146778571D02*
X148221428Y-146778571D01*
X147864285Y-146278571D02*
X147864285Y-147564285D01*
X147935714Y-147707142D01*
X148078571Y-147778571D01*
X148221428Y-147778571D01*
X148721428Y-147778571D02*
X148721428Y-146778571D01*
X148721428Y-146278571D02*
X148650000Y-146350000D01*
X148721428Y-146421428D01*
X148792857Y-146350000D01*
X148721428Y-146278571D01*
X148721428Y-146421428D01*
X149650000Y-147778571D02*
X149507142Y-147707142D01*
X149435714Y-147635714D01*
X149364285Y-147492857D01*
X149364285Y-147064285D01*
X149435714Y-146921428D01*
X149507142Y-146850000D01*
X149650000Y-146778571D01*
X149864285Y-146778571D01*
X150007142Y-146850000D01*
X150078571Y-146921428D01*
X150150000Y-147064285D01*
X150150000Y-147492857D01*
X150078571Y-147635714D01*
X150007142Y-147707142D01*
X149864285Y-147778571D01*
X149650000Y-147778571D01*
X150792857Y-146778571D02*
X150792857Y-147778571D01*
X150792857Y-146921428D02*
X150864285Y-146850000D01*
X151007142Y-146778571D01*
X151221428Y-146778571D01*
X151364285Y-146850000D01*
X151435714Y-146992857D01*
X151435714Y-147778571D01*
X78385714Y-57178571D02*
X78385714Y-55678571D01*
X78885714Y-56750000D01*
X79385714Y-55678571D01*
X79385714Y-57178571D01*
X79957142Y-55678571D02*
X80885714Y-55678571D01*
X80385714Y-56250000D01*
X80600000Y-56250000D01*
X80742857Y-56321428D01*
X80814285Y-56392857D01*
X80885714Y-56535714D01*
X80885714Y-56892857D01*
X80814285Y-57035714D01*
X80742857Y-57107142D01*
X80600000Y-57178571D01*
X80171428Y-57178571D01*
X80028571Y-57107142D01*
X79957142Y-57035714D01*
D11*
X115309523Y-150795476D02*
X115214285Y-150747857D01*
X115023809Y-150747857D01*
X114928571Y-150795476D01*
X114833332Y-150890714D01*
X114785713Y-150985952D01*
X114785713Y-151176428D01*
X114833332Y-151271666D01*
X114928571Y-151366904D01*
X115023809Y-151414523D01*
X115214285Y-151414523D01*
X115309523Y-151366904D01*
X115119047Y-150414523D02*
X114880952Y-150462142D01*
X114642856Y-150605000D01*
X114499999Y-150843095D01*
X114452380Y-151081190D01*
X114499999Y-151319285D01*
X114642856Y-151557380D01*
X114880952Y-151700238D01*
X115119047Y-151747857D01*
X115357142Y-151700238D01*
X115595237Y-151557380D01*
X115738094Y-151319285D01*
X115785713Y-151081190D01*
X115738094Y-150843095D01*
X115595237Y-150605000D01*
X115357142Y-150462142D01*
X115119047Y-150414523D01*
X116166666Y-150652619D02*
X116214285Y-150605000D01*
X116309523Y-150557380D01*
X116547618Y-150557380D01*
X116642856Y-150605000D01*
X116690475Y-150652619D01*
X116738094Y-150747857D01*
X116738094Y-150843095D01*
X116690475Y-150985952D01*
X116119047Y-151557380D01*
X116738094Y-151557380D01*
X117357142Y-150557380D02*
X117452380Y-150557380D01*
X117547618Y-150605000D01*
X117595237Y-150652619D01*
X117642856Y-150747857D01*
X117690475Y-150938333D01*
X117690475Y-151176428D01*
X117642856Y-151366904D01*
X117595237Y-151462142D01*
X117547618Y-151509761D01*
X117452380Y-151557380D01*
X117357142Y-151557380D01*
X117261904Y-151509761D01*
X117214285Y-151462142D01*
X117166666Y-151366904D01*
X117119047Y-151176428D01*
X117119047Y-150938333D01*
X117166666Y-150747857D01*
X117214285Y-150652619D01*
X117261904Y-150605000D01*
X117357142Y-150557380D01*
X118642856Y-151557380D02*
X118071428Y-151557380D01*
X118357142Y-151557380D02*
X118357142Y-150557380D01*
X118261904Y-150700238D01*
X118166666Y-150795476D01*
X118071428Y-150843095D01*
X119119047Y-151557380D02*
X119309523Y-151557380D01*
X119404761Y-151509761D01*
X119452380Y-151462142D01*
X119547618Y-151319285D01*
X119595237Y-151128809D01*
X119595237Y-150747857D01*
X119547618Y-150652619D01*
X119499999Y-150605000D01*
X119404761Y-150557380D01*
X119214285Y-150557380D01*
X119119047Y-150605000D01*
X119071428Y-150652619D01*
X119023809Y-150747857D01*
X119023809Y-150985952D01*
X119071428Y-151081190D01*
X119119047Y-151128809D01*
X119214285Y-151176428D01*
X119404761Y-151176428D01*
X119499999Y-151128809D01*
X119547618Y-151081190D01*
X119595237Y-150985952D01*
X120785713Y-150890714D02*
X120785713Y-151747857D01*
X120738094Y-151843095D01*
X120642856Y-151890714D01*
X120595237Y-151890714D01*
X120785713Y-150557380D02*
X120738094Y-150605000D01*
X120785713Y-150652619D01*
X120833332Y-150605000D01*
X120785713Y-150557380D01*
X120785713Y-150652619D01*
X121690475Y-151557380D02*
X121690475Y-151033571D01*
X121642856Y-150938333D01*
X121547618Y-150890714D01*
X121357142Y-150890714D01*
X121261904Y-150938333D01*
X121690475Y-151509761D02*
X121595237Y-151557380D01*
X121357142Y-151557380D01*
X121261904Y-151509761D01*
X121214285Y-151414523D01*
X121214285Y-151319285D01*
X121261904Y-151224047D01*
X121357142Y-151176428D01*
X121595237Y-151176428D01*
X121690475Y-151128809D01*
X122119047Y-151509761D02*
X122214285Y-151557380D01*
X122404761Y-151557380D01*
X122499999Y-151509761D01*
X122547618Y-151414523D01*
X122547618Y-151366904D01*
X122499999Y-151271666D01*
X122404761Y-151224047D01*
X122261904Y-151224047D01*
X122166666Y-151176428D01*
X122119047Y-151081190D01*
X122119047Y-151033571D01*
X122166666Y-150938333D01*
X122261904Y-150890714D01*
X122404761Y-150890714D01*
X122499999Y-150938333D01*
X123357142Y-151509761D02*
X123261904Y-151557380D01*
X123071428Y-151557380D01*
X122976190Y-151509761D01*
X122928571Y-151414523D01*
X122928571Y-151033571D01*
X122976190Y-150938333D01*
X123071428Y-150890714D01*
X123261904Y-150890714D01*
X123357142Y-150938333D01*
X123404761Y-151033571D01*
X123404761Y-151128809D01*
X122928571Y-151224047D01*
X124261904Y-150890714D02*
X124261904Y-151700238D01*
X124214285Y-151795476D01*
X124166666Y-151843095D01*
X124071428Y-151890714D01*
X123928571Y-151890714D01*
X123833332Y-151843095D01*
X124261904Y-151509761D02*
X124166666Y-151557380D01*
X123976190Y-151557380D01*
X123880952Y-151509761D01*
X123833332Y-151462142D01*
X123785713Y-151366904D01*
X123785713Y-151081190D01*
X123833332Y-150985952D01*
X123880952Y-150938333D01*
X123976190Y-150890714D01*
X124166666Y-150890714D01*
X124261904Y-150938333D01*
D10*
X114678571Y-147321428D02*
X114535714Y-147250000D01*
X114464285Y-147178571D01*
X114392857Y-147035714D01*
X114392857Y-146964285D01*
X114464285Y-146821428D01*
X114535714Y-146750000D01*
X114678571Y-146678571D01*
X114964285Y-146678571D01*
X115107142Y-146750000D01*
X115178571Y-146821428D01*
X115250000Y-146964285D01*
X115250000Y-147035714D01*
X115178571Y-147178571D01*
X115107142Y-147250000D01*
X114964285Y-147321428D01*
X114678571Y-147321428D01*
X114535714Y-147392857D01*
X114464285Y-147464285D01*
X114392857Y-147607142D01*
X114392857Y-147892857D01*
X114464285Y-148035714D01*
X114535714Y-148107142D01*
X114678571Y-148178571D01*
X114964285Y-148178571D01*
X115107142Y-148107142D01*
X115178571Y-148035714D01*
X115250000Y-147892857D01*
X115250000Y-147607142D01*
X115178571Y-147464285D01*
X115107142Y-147392857D01*
X114964285Y-147321428D01*
X115821428Y-148107142D02*
X115964285Y-148178571D01*
X116250000Y-148178571D01*
X116392857Y-148107142D01*
X116464285Y-147964285D01*
X116464285Y-147892857D01*
X116392857Y-147750000D01*
X116250000Y-147678571D01*
X116035714Y-147678571D01*
X115892857Y-147607142D01*
X115821428Y-147464285D01*
X115821428Y-147392857D01*
X115892857Y-147250000D01*
X116035714Y-147178571D01*
X116250000Y-147178571D01*
X116392857Y-147250000D01*
X117678571Y-148107142D02*
X117535714Y-148178571D01*
X117250000Y-148178571D01*
X117107142Y-148107142D01*
X117035714Y-147964285D01*
X117035714Y-147392857D01*
X117107142Y-147250000D01*
X117250000Y-147178571D01*
X117535714Y-147178571D01*
X117678571Y-147250000D01*
X117750000Y-147392857D01*
X117750000Y-147535714D01*
X117035714Y-147678571D01*
X119035714Y-147178571D02*
X119035714Y-148392857D01*
X118964285Y-148535714D01*
X118892857Y-148607142D01*
X118750000Y-148678571D01*
X118535714Y-148678571D01*
X118392857Y-148607142D01*
X119035714Y-148107142D02*
X118892857Y-148178571D01*
X118607142Y-148178571D01*
X118464285Y-148107142D01*
X118392857Y-148035714D01*
X118321428Y-147892857D01*
X118321428Y-147464285D01*
X118392857Y-147321428D01*
X118464285Y-147250000D01*
X118607142Y-147178571D01*
X118892857Y-147178571D01*
X119035714Y-147250000D01*
X121535714Y-148178571D02*
X121535714Y-146678571D01*
X121535714Y-148107142D02*
X121392857Y-148178571D01*
X121107142Y-148178571D01*
X120964285Y-148107142D01*
X120892857Y-148035714D01*
X120821428Y-147892857D01*
X120821428Y-147464285D01*
X120892857Y-147321428D01*
X120964285Y-147250000D01*
X121107142Y-147178571D01*
X121392857Y-147178571D01*
X121535714Y-147250000D01*
X122250000Y-148178571D02*
X122250000Y-147178571D01*
X122250000Y-147464285D02*
X122321428Y-147321428D01*
X122392857Y-147250000D01*
X122535714Y-147178571D01*
X122678571Y-147178571D01*
X123178571Y-148178571D02*
X123178571Y-147178571D01*
X123178571Y-146678571D02*
X123107142Y-146750000D01*
X123178571Y-146821428D01*
X123250000Y-146750000D01*
X123178571Y-146678571D01*
X123178571Y-146821428D01*
X123750000Y-147178571D02*
X124107142Y-148178571D01*
X124464285Y-147178571D01*
X125607142Y-148107142D02*
X125464285Y-148178571D01*
X125178571Y-148178571D01*
X125035714Y-148107142D01*
X124964285Y-147964285D01*
X124964285Y-147392857D01*
X125035714Y-147250000D01*
X125178571Y-147178571D01*
X125464285Y-147178571D01*
X125607142Y-147250000D01*
X125678571Y-147392857D01*
X125678571Y-147535714D01*
X124964285Y-147678571D01*
X126321428Y-148178571D02*
X126321428Y-147178571D01*
X126321428Y-147464285D02*
X126392857Y-147321428D01*
X126464285Y-147250000D01*
X126607142Y-147178571D01*
X126750000Y-147178571D01*
X95875000Y-72725000D02*
G75*
G03X95875000Y-72725000I-550000J0D01*
G01*
X139000000Y-87625000D02*
G75*
G03X139000000Y-87625000I-550000J0D01*
G01*
X124125000Y-87625000D02*
G75*
G03X124125000Y-87625000I-550000J0D01*
G01*
D11*
X80573809Y-149380952D02*
X81526190Y-149380952D01*
X80764285Y-149666666D02*
X81335714Y-149666666D01*
X81050000Y-148952380D02*
X81050000Y-149380952D01*
X81145238Y-149952380D02*
X80954761Y-149952380D01*
X150973809Y-149355952D02*
X151926190Y-149355952D01*
X151164285Y-149641666D02*
X151735714Y-149641666D01*
X151450000Y-148927380D02*
X151450000Y-149355952D01*
X151545238Y-149927380D02*
X151354761Y-149927380D01*
X156838095Y-149352380D02*
X156838095Y-148352380D01*
X157219047Y-148352380D01*
X157314285Y-148400000D01*
X157361904Y-148447619D01*
X157409523Y-148542857D01*
X157409523Y-148685714D01*
X157361904Y-148780952D01*
X157314285Y-148828571D01*
X157219047Y-148876190D01*
X156838095Y-148876190D01*
X81438095Y-145102380D02*
X81438095Y-144102380D01*
X81819047Y-144102380D01*
X81914285Y-144150000D01*
X81961904Y-144197619D01*
X82009523Y-144292857D01*
X82009523Y-144435714D01*
X81961904Y-144530952D01*
X81914285Y-144578571D01*
X81819047Y-144626190D01*
X81438095Y-144626190D01*
X107404761Y-92261904D02*
X107452380Y-92119047D01*
X107452380Y-91880952D01*
X107404761Y-91785714D01*
X107357142Y-91738095D01*
X107261904Y-91690476D01*
X107166666Y-91690476D01*
X107071428Y-91738095D01*
X107023809Y-91785714D01*
X106976190Y-91880952D01*
X106928571Y-92071428D01*
X106880952Y-92166666D01*
X106833333Y-92214285D01*
X106738095Y-92261904D01*
X106642857Y-92261904D01*
X106547619Y-92214285D01*
X106500000Y-92166666D01*
X106452380Y-92071428D01*
X106452380Y-91833333D01*
X106500000Y-91690476D01*
X107357142Y-90690476D02*
X107404761Y-90738095D01*
X107452380Y-90880952D01*
X107452380Y-90976190D01*
X107404761Y-91119047D01*
X107309523Y-91214285D01*
X107214285Y-91261904D01*
X107023809Y-91309523D01*
X106880952Y-91309523D01*
X106690476Y-91261904D01*
X106595238Y-91214285D01*
X106500000Y-91119047D01*
X106452380Y-90976190D01*
X106452380Y-90880952D01*
X106500000Y-90738095D01*
X106547619Y-90690476D01*
X107452380Y-89785714D02*
X107452380Y-90261904D01*
X106452380Y-90261904D01*
X107785714Y-89214285D02*
X106357142Y-89214285D01*
X107404761Y-88547619D02*
X107452380Y-88404761D01*
X107452380Y-88166666D01*
X107404761Y-88071428D01*
X107357142Y-88023809D01*
X107261904Y-87976190D01*
X107166666Y-87976190D01*
X107071428Y-88023809D01*
X107023809Y-88071428D01*
X106976190Y-88166666D01*
X106928571Y-88357142D01*
X106880952Y-88452380D01*
X106833333Y-88500000D01*
X106738095Y-88547619D01*
X106642857Y-88547619D01*
X106547619Y-88500000D01*
X106500000Y-88452380D01*
X106452380Y-88357142D01*
X106452380Y-88119047D01*
X106500000Y-87976190D01*
X107452380Y-87547619D02*
X106452380Y-87547619D01*
X106452380Y-87309523D01*
X106500000Y-87166666D01*
X106595238Y-87071428D01*
X106690476Y-87023809D01*
X106880952Y-86976190D01*
X107023809Y-86976190D01*
X107214285Y-87023809D01*
X107309523Y-87071428D01*
X107404761Y-87166666D01*
X107452380Y-87309523D01*
X107452380Y-87547619D01*
X107166666Y-86595238D02*
X107166666Y-86119047D01*
X107452380Y-86690476D02*
X106452380Y-86357142D01*
X107452380Y-86023809D01*
X107785714Y-85452380D02*
X106357142Y-85452380D01*
X106452380Y-84833333D02*
X106452380Y-84214285D01*
X106833333Y-84547619D01*
X106833333Y-84404761D01*
X106880952Y-84309523D01*
X106928571Y-84261904D01*
X107023809Y-84214285D01*
X107261904Y-84214285D01*
X107357142Y-84261904D01*
X107404761Y-84309523D01*
X107452380Y-84404761D01*
X107452380Y-84690476D01*
X107404761Y-84785714D01*
X107357142Y-84833333D01*
X107357142Y-83785714D02*
X107404761Y-83738095D01*
X107452380Y-83785714D01*
X107404761Y-83833333D01*
X107357142Y-83785714D01*
X107452380Y-83785714D01*
X106452380Y-83404761D02*
X106452380Y-82785714D01*
X106833333Y-83119047D01*
X106833333Y-82976190D01*
X106880952Y-82880952D01*
X106928571Y-82833333D01*
X107023809Y-82785714D01*
X107261904Y-82785714D01*
X107357142Y-82833333D01*
X107404761Y-82880952D01*
X107452380Y-82976190D01*
X107452380Y-83261904D01*
X107404761Y-83357142D01*
X107357142Y-83404761D01*
X106452380Y-82500000D02*
X107452380Y-82166666D01*
X106452380Y-81833333D01*
X107785714Y-81261904D02*
X106357142Y-81261904D01*
X106880952Y-80642857D02*
X106880952Y-79690476D01*
X107166666Y-80452380D02*
X107166666Y-79880952D01*
X106452380Y-80166666D02*
X106880952Y-80166666D01*
X107452380Y-80071428D02*
X107452380Y-80261904D01*
D10*
X93433571Y-83603571D02*
X92576428Y-83603571D01*
X93005000Y-83603571D02*
X93005000Y-82103571D01*
X92862142Y-82317857D01*
X92719285Y-82460714D01*
X92576428Y-82532142D01*
X94719285Y-82103571D02*
X94433571Y-82103571D01*
X94290714Y-82175000D01*
X94219285Y-82246428D01*
X94076428Y-82460714D01*
X94005000Y-82746428D01*
X94005000Y-83317857D01*
X94076428Y-83460714D01*
X94147857Y-83532142D01*
X94290714Y-83603571D01*
X94576428Y-83603571D01*
X94719285Y-83532142D01*
X94790714Y-83460714D01*
X94862142Y-83317857D01*
X94862142Y-82960714D01*
X94790714Y-82817857D01*
X94719285Y-82746428D01*
X94576428Y-82675000D01*
X94290714Y-82675000D01*
X94147857Y-82746428D01*
X94076428Y-82817857D01*
X94005000Y-82960714D01*
X95790714Y-82103571D02*
X95933571Y-82103571D01*
X96076428Y-82175000D01*
X96147857Y-82246428D01*
X96219285Y-82389285D01*
X96290714Y-82675000D01*
X96290714Y-83032142D01*
X96219285Y-83317857D01*
X96147857Y-83460714D01*
X96076428Y-83532142D01*
X95933571Y-83603571D01*
X95790714Y-83603571D01*
X95647857Y-83532142D01*
X95576428Y-83460714D01*
X95505000Y-83317857D01*
X95433571Y-83032142D01*
X95433571Y-82675000D01*
X95505000Y-82389285D01*
X95576428Y-82246428D01*
X95647857Y-82175000D01*
X95790714Y-82103571D01*
X96862142Y-82246428D02*
X96933571Y-82175000D01*
X97076428Y-82103571D01*
X97433571Y-82103571D01*
X97576428Y-82175000D01*
X97647857Y-82246428D01*
X97719285Y-82389285D01*
X97719285Y-82532142D01*
X97647857Y-82746428D01*
X96790714Y-83603571D01*
X97719285Y-83603571D01*
X94862142Y-86153571D02*
X94147857Y-86153571D01*
X94147857Y-84653571D01*
X96219285Y-86010714D02*
X96147857Y-86082142D01*
X95933571Y-86153571D01*
X95790714Y-86153571D01*
X95576428Y-86082142D01*
X95433571Y-85939285D01*
X95362142Y-85796428D01*
X95290714Y-85510714D01*
X95290714Y-85296428D01*
X95362142Y-85010714D01*
X95433571Y-84867857D01*
X95576428Y-84725000D01*
X95790714Y-84653571D01*
X95933571Y-84653571D01*
X96147857Y-84725000D01*
X96219285Y-84796428D01*
X96862142Y-86153571D02*
X96862142Y-84653571D01*
X97219285Y-84653571D01*
X97433571Y-84725000D01*
X97576428Y-84867857D01*
X97647857Y-85010714D01*
X97719285Y-85296428D01*
X97719285Y-85510714D01*
X97647857Y-85796428D01*
X97576428Y-85939285D01*
X97433571Y-86082142D01*
X97219285Y-86153571D01*
X96862142Y-86153571D01*
X115942857Y-68814285D02*
X115871428Y-69028571D01*
X115871428Y-69385714D01*
X115942857Y-69528571D01*
X116014285Y-69600000D01*
X116157142Y-69671428D01*
X116300000Y-69671428D01*
X116442857Y-69600000D01*
X116514285Y-69528571D01*
X116585714Y-69385714D01*
X116657142Y-69100000D01*
X116728571Y-68957142D01*
X116800000Y-68885714D01*
X116942857Y-68814285D01*
X117085714Y-68814285D01*
X117228571Y-68885714D01*
X117300000Y-68957142D01*
X117371428Y-69100000D01*
X117371428Y-69457142D01*
X117300000Y-69671428D01*
X117371428Y-70171428D02*
X115871428Y-70528571D01*
X116942857Y-70814285D01*
X115871428Y-71100000D01*
X117371428Y-71457142D01*
X115871428Y-72028571D02*
X117371428Y-72028571D01*
X117371428Y-72385714D01*
X117300000Y-72600000D01*
X117157142Y-72742857D01*
X117014285Y-72814285D01*
X116728571Y-72885714D01*
X116514285Y-72885714D01*
X116228571Y-72814285D01*
X116085714Y-72742857D01*
X115942857Y-72600000D01*
X115871428Y-72385714D01*
X115871428Y-72028571D01*
D13*
X165342857Y-139457142D02*
X165628571Y-139552380D01*
X165723809Y-139647619D01*
X165819047Y-139838095D01*
X165819047Y-140123809D01*
X165723809Y-140314285D01*
X165628571Y-140409523D01*
X165438095Y-140504761D01*
X164676190Y-140504761D01*
X164676190Y-138504761D01*
X165342857Y-138504761D01*
X165533333Y-138600000D01*
X165628571Y-138695238D01*
X165723809Y-138885714D01*
X165723809Y-139076190D01*
X165628571Y-139266666D01*
X165533333Y-139361904D01*
X165342857Y-139457142D01*
X164676190Y-139457142D01*
D12*
X161750000Y-141307142D02*
X162321428Y-141307142D01*
X162607142Y-141450000D01*
X162892857Y-141735714D01*
X163035714Y-142307142D01*
X163035714Y-143307142D01*
X162892857Y-143878571D01*
X162607142Y-144164285D01*
X162321428Y-144307142D01*
X161750000Y-144307142D01*
X161464285Y-144164285D01*
X161178571Y-143878571D01*
X161035714Y-143307142D01*
X161035714Y-142307142D01*
X161178571Y-141735714D01*
X161464285Y-141450000D01*
X161750000Y-141307142D01*
X164321428Y-141307142D02*
X164321428Y-143735714D01*
X164464285Y-144021428D01*
X164607142Y-144164285D01*
X164892857Y-144307142D01*
X165464285Y-144307142D01*
X165750000Y-144164285D01*
X165892857Y-144021428D01*
X166035714Y-143735714D01*
X166035714Y-141307142D01*
X167035714Y-141307142D02*
X168750000Y-141307142D01*
X167892857Y-144307142D02*
X167892857Y-141307142D01*
D13*
X164723809Y-100283333D02*
X165676190Y-100283333D01*
X164533333Y-100854761D02*
X165200000Y-98854761D01*
X165866666Y-100854761D01*
D12*
X71700000Y-97907142D02*
X72700000Y-100907142D01*
X73700000Y-97907142D01*
X76414285Y-100621428D02*
X76271428Y-100764285D01*
X75842857Y-100907142D01*
X75557142Y-100907142D01*
X75128571Y-100764285D01*
X74842857Y-100478571D01*
X74700000Y-100192857D01*
X74557142Y-99621428D01*
X74557142Y-99192857D01*
X74700000Y-98621428D01*
X74842857Y-98335714D01*
X75128571Y-98050000D01*
X75557142Y-97907142D01*
X75842857Y-97907142D01*
X76271428Y-98050000D01*
X76414285Y-98192857D01*
X79414285Y-100621428D02*
X79271428Y-100764285D01*
X78842857Y-100907142D01*
X78557142Y-100907142D01*
X78128571Y-100764285D01*
X77842857Y-100478571D01*
X77700000Y-100192857D01*
X77557142Y-99621428D01*
X77557142Y-99192857D01*
X77700000Y-98621428D01*
X77842857Y-98335714D01*
X78128571Y-98050000D01*
X78557142Y-97907142D01*
X78842857Y-97907142D01*
X79271428Y-98050000D01*
X79414285Y-98192857D01*
X73764285Y-139950000D02*
X73478571Y-139807142D01*
X73050000Y-139807142D01*
X72621428Y-139950000D01*
X72335714Y-140235714D01*
X72192857Y-140521428D01*
X72050000Y-141092857D01*
X72050000Y-141521428D01*
X72192857Y-142092857D01*
X72335714Y-142378571D01*
X72621428Y-142664285D01*
X73050000Y-142807142D01*
X73335714Y-142807142D01*
X73764285Y-142664285D01*
X73907142Y-142521428D01*
X73907142Y-141521428D01*
X73335714Y-141521428D01*
X75192857Y-142807142D02*
X75192857Y-139807142D01*
X76907142Y-142807142D01*
X76907142Y-139807142D01*
X78335714Y-142807142D02*
X78335714Y-139807142D01*
X79050000Y-139807142D01*
X79478571Y-139950000D01*
X79764285Y-140235714D01*
X79907142Y-140521428D01*
X80050000Y-141092857D01*
X80050000Y-141521428D01*
X79907142Y-142092857D01*
X79764285Y-142378571D01*
X79478571Y-142664285D01*
X79050000Y-142807142D01*
X78335714Y-142807142D01*
D14*
G04 #@! TO.C,J6*
X99100000Y-81680000D02*
X98480000Y-81680000D01*
X99100000Y-83280000D02*
X99100000Y-81680000D01*
X98480000Y-83280000D02*
X99100000Y-83280000D01*
X99100000Y-84220000D02*
X98480000Y-84220000D01*
X99100000Y-85820000D02*
X99100000Y-84220000D01*
X98480000Y-85820000D02*
X99100000Y-85820000D01*
X99100000Y-86760000D02*
X98480000Y-86760000D01*
X99100000Y-88360000D02*
X99100000Y-86760000D01*
X98480000Y-88360000D02*
X99100000Y-88360000D01*
X99100000Y-89300000D02*
X98480000Y-89300000D01*
X99100000Y-90900000D02*
X99100000Y-89300000D01*
X98480000Y-90900000D02*
X99100000Y-90900000D01*
X104480000Y-82730000D02*
X103480000Y-82730000D01*
X104480000Y-89850000D02*
X103480000Y-89850000D01*
X103050000Y-82730000D02*
X103480000Y-82480000D01*
X103050000Y-89850000D02*
X103050000Y-82730000D01*
X103480000Y-90100000D02*
X103050000Y-89850000D01*
X103480000Y-82480000D02*
X104480000Y-82480000D01*
X103480000Y-90100000D02*
X103480000Y-82480000D01*
X104480000Y-90100000D02*
X103480000Y-90100000D01*
X98480000Y-81110000D02*
X98480000Y-91470000D01*
X104480000Y-81110000D02*
X98480000Y-81110000D01*
X104480000Y-91470000D02*
X104480000Y-81110000D01*
X98480000Y-91470000D02*
X104480000Y-91470000D01*
D15*
G04 #@! TO.C,U7*
X96675000Y-88325000D02*
X96450000Y-88325000D01*
X96675000Y-91675000D02*
X96375000Y-91675000D01*
X93325000Y-91675000D02*
X93625000Y-91675000D01*
X93325000Y-88325000D02*
X93625000Y-88325000D01*
X96675000Y-88325000D02*
X96675000Y-91675000D01*
X93325000Y-88325000D02*
X93325000Y-91675000D01*
X96450000Y-88325000D02*
X96450000Y-87100000D01*
G04 #@! TO.C,U6*
X120175000Y-81850000D02*
X124625000Y-81850000D01*
X118650000Y-74950000D02*
X124625000Y-74950000D01*
D14*
G04 #@! TO.C,R3*
X111428733Y-66590000D02*
X111771267Y-66590000D01*
X111428733Y-67610000D02*
X111771267Y-67610000D01*
G04 #@! TO.C,R39*
X136671267Y-82890000D02*
X136328733Y-82890000D01*
X136671267Y-83910000D02*
X136328733Y-83910000D01*
G04 #@! TO.C,U12*
X159640000Y-76160000D02*
G75*
G02X159640000Y-78160000I0J-1000000D01*
G01*
X159640000Y-78160000D02*
X159640000Y-79810000D01*
X159640000Y-79810000D02*
X164840000Y-79810000D01*
X164840000Y-79810000D02*
X164840000Y-74510000D01*
X164840000Y-74510000D02*
X159640000Y-74510000D01*
X159640000Y-74510000D02*
X159640000Y-76160000D01*
G04 #@! TO.C,C1*
X107350000Y-66500000D02*
X108050000Y-66500000D01*
X108050000Y-67700000D02*
X107350000Y-67700000D01*
G04 #@! TO.C,C4*
X84650000Y-68550000D02*
X83950000Y-68550000D01*
X83950000Y-67350000D02*
X84650000Y-67350000D01*
G04 #@! TO.C,C5*
X111924999Y-71774999D02*
X111224999Y-71774999D01*
X111224999Y-70574999D02*
X111924999Y-70574999D01*
G04 #@! TO.C,C12*
X129200000Y-77950000D02*
X129200000Y-78650000D01*
X128000000Y-78650000D02*
X128000000Y-77950000D01*
G04 #@! TO.C,C13*
X156600000Y-91450000D02*
X156600000Y-92150000D01*
X155400000Y-92150000D02*
X155400000Y-91450000D01*
G04 #@! TO.C,C14*
X91850000Y-94100000D02*
X91150000Y-94100000D01*
X91150000Y-92900000D02*
X91850000Y-92900000D01*
G04 #@! TO.C,C16*
X80150000Y-82100000D02*
X80150000Y-81400000D01*
X81350000Y-81400000D02*
X81350000Y-82100000D01*
G04 #@! TO.C,C17*
X94650000Y-78500000D02*
X93950000Y-78500000D01*
X93950000Y-77300000D02*
X94650000Y-77300000D01*
G04 #@! TO.C,C18*
X94650000Y-76700000D02*
X93950000Y-76700000D01*
X93950000Y-75500000D02*
X94650000Y-75500000D01*
G04 #@! TO.C,C20*
X113850000Y-81050000D02*
X113150000Y-81050000D01*
X113150000Y-79850000D02*
X113850000Y-79850000D01*
G04 #@! TO.C,C21*
X109450000Y-90900000D02*
X110150000Y-90900000D01*
X110150000Y-92100000D02*
X109450000Y-92100000D01*
G04 #@! TO.C,C22*
X108600000Y-76400000D02*
X108600000Y-75700000D01*
X109800000Y-75700000D02*
X109800000Y-76400000D01*
G04 #@! TO.C,C23*
X124250000Y-85300000D02*
X124950000Y-85300000D01*
X124950000Y-86500000D02*
X124250000Y-86500000D01*
G04 #@! TO.C,C24*
X139850000Y-94850000D02*
X139150000Y-94850000D01*
X139150000Y-93650000D02*
X139850000Y-93650000D01*
G04 #@! TO.C,C25*
X130550000Y-87300000D02*
X131250000Y-87300000D01*
X131250000Y-88500000D02*
X130550000Y-88500000D01*
G04 #@! TO.C,C26*
X145650000Y-87300000D02*
X146350000Y-87300000D01*
X146350000Y-88500000D02*
X145650000Y-88500000D01*
G04 #@! TO.C,C27*
X130600000Y-92700000D02*
X131300000Y-92700000D01*
X131300000Y-93900000D02*
X130600000Y-93900000D01*
G04 #@! TO.C,C28*
X146350000Y-93900000D02*
X145650000Y-93900000D01*
X145650000Y-92700000D02*
X146350000Y-92700000D01*
G04 #@! TO.C,C29*
X94650000Y-80400000D02*
X93950000Y-80400000D01*
X93950000Y-79200000D02*
X94650000Y-79200000D01*
G04 #@! TO.C,D1*
X104950000Y-65600000D02*
X100650000Y-65600000D01*
X100650000Y-65600000D02*
X100650000Y-72900000D01*
X104950000Y-65600000D02*
X104950000Y-72900000D01*
G04 #@! TO.C,D4*
X156450000Y-150400000D02*
X152450000Y-150400000D01*
X156500000Y-153600000D02*
X152500000Y-153600000D01*
G04 #@! TO.C,D5*
X86500000Y-153600000D02*
X82500000Y-153600000D01*
X86450000Y-150400000D02*
X82450000Y-150400000D01*
G04 #@! TO.C,D6*
X86500000Y-148600000D02*
X82500000Y-148600000D01*
X86450000Y-145400000D02*
X82450000Y-145400000D01*
G04 #@! TO.C,D7*
X156450000Y-145400000D02*
X152450000Y-145400000D01*
X156500000Y-148600000D02*
X152500000Y-148600000D01*
G04 #@! TO.C,J1*
X163465244Y-105523318D02*
G75*
G02X163320000Y-104840000I1534756J683318D01*
G01*
X165683042Y-106375426D02*
G75*
G02X164316000Y-106375000I-683042J1535426D01*
G01*
X166535426Y-104156958D02*
G75*
G02X166535000Y-105524000I-1535426J-683042D01*
G01*
X164316958Y-103304574D02*
G75*
G02X165684000Y-103305000I683042J-1535426D01*
G01*
X163319747Y-104868805D02*
G75*
G02X163465000Y-104156000I1680253J28805D01*
G01*
X166680000Y-109920000D02*
G75*
G03X166680000Y-109920000I-1680000J0D01*
G01*
X166680000Y-115000000D02*
G75*
G03X166680000Y-115000000I-1680000J0D01*
G01*
X160900000Y-102240000D02*
X160900000Y-117600000D01*
X162400000Y-102240000D02*
X162400000Y-117600000D01*
X167301000Y-102240000D02*
X167301000Y-117600000D01*
X170261000Y-102240000D02*
X170261000Y-117600000D01*
X160340000Y-102240000D02*
X160340000Y-117600000D01*
X170261000Y-102240000D02*
X160340000Y-102240000D01*
X170261000Y-117600000D02*
X160340000Y-117600000D01*
X166069000Y-111195000D02*
X166023000Y-111148000D01*
X163761000Y-108886000D02*
X163726000Y-108851000D01*
X166275000Y-110990000D02*
X166239000Y-110955000D01*
X163977000Y-108693000D02*
X163931000Y-108646000D01*
X166069000Y-116275000D02*
X166023000Y-116228000D01*
X163761000Y-113966000D02*
X163726000Y-113931000D01*
X166275000Y-116070000D02*
X166239000Y-116035000D01*
X163977000Y-113773000D02*
X163931000Y-113726000D01*
X160840000Y-102000000D02*
X160100000Y-102000000D01*
X160100000Y-102000000D02*
X160100000Y-102500000D01*
G04 #@! TO.C,J2*
X160100000Y-122080000D02*
X160100000Y-122580000D01*
X160840000Y-122080000D02*
X160100000Y-122080000D01*
X163977000Y-133853000D02*
X163931000Y-133806000D01*
X166275000Y-136150000D02*
X166239000Y-136115000D01*
X163761000Y-134046000D02*
X163726000Y-134011000D01*
X166069000Y-136355000D02*
X166023000Y-136308000D01*
X163977000Y-128773000D02*
X163931000Y-128726000D01*
X166275000Y-131070000D02*
X166239000Y-131035000D01*
X163761000Y-128966000D02*
X163726000Y-128931000D01*
X166069000Y-131275000D02*
X166023000Y-131228000D01*
X170261000Y-137680000D02*
X160340000Y-137680000D01*
X170261000Y-122320000D02*
X160340000Y-122320000D01*
X160340000Y-122320000D02*
X160340000Y-137680000D01*
X170261000Y-122320000D02*
X170261000Y-137680000D01*
X167301000Y-122320000D02*
X167301000Y-137680000D01*
X162400000Y-122320000D02*
X162400000Y-137680000D01*
X160900000Y-122320000D02*
X160900000Y-137680000D01*
X166680000Y-135080000D02*
G75*
G03X166680000Y-135080000I-1680000J0D01*
G01*
X166680000Y-130000000D02*
G75*
G03X166680000Y-130000000I-1680000J0D01*
G01*
X163319747Y-124948805D02*
G75*
G02X163465000Y-124236000I1680253J28805D01*
G01*
X164316958Y-123384574D02*
G75*
G02X165684000Y-123385000I683042J-1535426D01*
G01*
X166535426Y-124236958D02*
G75*
G02X166535000Y-125604000I-1535426J-683042D01*
G01*
X165683042Y-126455426D02*
G75*
G02X164316000Y-126455000I-683042J1535426D01*
G01*
X163465244Y-125603318D02*
G75*
G02X163320000Y-124920000I1534756J683318D01*
G01*
G04 #@! TO.C,J7*
X79900000Y-137920000D02*
X79900000Y-137420000D01*
X79160000Y-137920000D02*
X79900000Y-137920000D01*
X76023000Y-126147000D02*
X76069000Y-126194000D01*
X73725000Y-123850000D02*
X73761000Y-123885000D01*
X76239000Y-125954000D02*
X76274000Y-125989000D01*
X73931000Y-123645000D02*
X73977000Y-123692000D01*
X76023000Y-131227000D02*
X76069000Y-131274000D01*
X73725000Y-128930000D02*
X73761000Y-128965000D01*
X76239000Y-131034000D02*
X76274000Y-131069000D01*
X73931000Y-128725000D02*
X73977000Y-128772000D01*
X69739000Y-122320000D02*
X79660000Y-122320000D01*
X69739000Y-137680000D02*
X79660000Y-137680000D01*
X79660000Y-137680000D02*
X79660000Y-122320000D01*
X69739000Y-137680000D02*
X69739000Y-122320000D01*
X72699000Y-137680000D02*
X72699000Y-122320000D01*
X77600000Y-137680000D02*
X77600000Y-122320000D01*
X79100000Y-137680000D02*
X79100000Y-122320000D01*
X76680000Y-124920000D02*
G75*
G03X76680000Y-124920000I-1680000J0D01*
G01*
X76680000Y-130000000D02*
G75*
G03X76680000Y-130000000I-1680000J0D01*
G01*
X76680253Y-135051195D02*
G75*
G02X76535000Y-135764000I-1680253J-28805D01*
G01*
X75683042Y-136615426D02*
G75*
G02X74316000Y-136615000I-683042J1535426D01*
G01*
X73464574Y-135763042D02*
G75*
G02X73465000Y-134396000I1535426J683042D01*
G01*
X74316958Y-133544574D02*
G75*
G02X75684000Y-133545000I683042J-1535426D01*
G01*
X76534756Y-134396682D02*
G75*
G02X76680000Y-135080000I-1534756J-683318D01*
G01*
G04 #@! TO.C,J8*
X76534756Y-114396682D02*
G75*
G02X76680000Y-115080000I-1534756J-683318D01*
G01*
X74316958Y-113544574D02*
G75*
G02X75684000Y-113545000I683042J-1535426D01*
G01*
X73464574Y-115763042D02*
G75*
G02X73465000Y-114396000I1535426J683042D01*
G01*
X75683042Y-116615426D02*
G75*
G02X74316000Y-116615000I-683042J1535426D01*
G01*
X76680253Y-115051195D02*
G75*
G02X76535000Y-115764000I-1680253J-28805D01*
G01*
X76680000Y-110000000D02*
G75*
G03X76680000Y-110000000I-1680000J0D01*
G01*
X76680000Y-104920000D02*
G75*
G03X76680000Y-104920000I-1680000J0D01*
G01*
X79100000Y-117680000D02*
X79100000Y-102320000D01*
X77600000Y-117680000D02*
X77600000Y-102320000D01*
X72699000Y-117680000D02*
X72699000Y-102320000D01*
X69739000Y-117680000D02*
X69739000Y-102320000D01*
X79660000Y-117680000D02*
X79660000Y-102320000D01*
X69739000Y-117680000D02*
X79660000Y-117680000D01*
X69739000Y-102320000D02*
X79660000Y-102320000D01*
X73931000Y-108725000D02*
X73977000Y-108772000D01*
X76239000Y-111034000D02*
X76274000Y-111069000D01*
X73725000Y-108930000D02*
X73761000Y-108965000D01*
X76023000Y-111227000D02*
X76069000Y-111274000D01*
X73931000Y-103645000D02*
X73977000Y-103692000D01*
X76239000Y-105954000D02*
X76274000Y-105989000D01*
X73725000Y-103850000D02*
X73761000Y-103885000D01*
X76023000Y-106147000D02*
X76069000Y-106194000D01*
X79160000Y-117920000D02*
X79900000Y-117920000D01*
X79900000Y-117920000D02*
X79900000Y-117420000D01*
G04 #@! TO.C,L1*
X93550000Y-66450000D02*
X93550000Y-73350000D01*
X88450000Y-66450000D02*
X88450000Y-73350000D01*
G04 #@! TO.C,R2*
X107528733Y-69610000D02*
X107871267Y-69610000D01*
X107528733Y-68590000D02*
X107871267Y-68590000D01*
G04 #@! TO.C,R4*
X107410000Y-72171267D02*
X107410000Y-71828733D01*
X106390000Y-72171267D02*
X106390000Y-71828733D01*
G04 #@! TO.C,R5*
X111428733Y-68590000D02*
X111771267Y-68590000D01*
X111428733Y-69610000D02*
X111771267Y-69610000D01*
G04 #@! TO.C,R7*
X72597936Y-81090000D02*
X73802064Y-81090000D01*
X72597936Y-82910000D02*
X73802064Y-82910000D01*
G04 #@! TO.C,R8*
X116971267Y-92640000D02*
X116628733Y-92640000D01*
X116971267Y-93660000D02*
X116628733Y-93660000D01*
G04 #@! TO.C,R9*
X114321267Y-92010000D02*
X113978733Y-92010000D01*
X114321267Y-90990000D02*
X113978733Y-90990000D01*
G04 #@! TO.C,R10*
X110310000Y-80771267D02*
X110310000Y-80428733D01*
X109290000Y-80771267D02*
X109290000Y-80428733D01*
G04 #@! TO.C,R13*
X157840000Y-147171267D02*
X157840000Y-146828733D01*
X158860000Y-147171267D02*
X158860000Y-146828733D01*
G04 #@! TO.C,R14*
X81560000Y-152171267D02*
X81560000Y-151828733D01*
X80540000Y-152171267D02*
X80540000Y-151828733D01*
G04 #@! TO.C,R15*
X81610000Y-147171267D02*
X81610000Y-146828733D01*
X80590000Y-147171267D02*
X80590000Y-146828733D01*
G04 #@! TO.C,R16*
X157840000Y-151828733D02*
X157840000Y-152171267D01*
X158860000Y-151828733D02*
X158860000Y-152171267D01*
G04 #@! TO.C,R19*
X131071267Y-90210000D02*
X130728733Y-90210000D01*
X131071267Y-89190000D02*
X130728733Y-89190000D01*
G04 #@! TO.C,R20*
X146171267Y-89190000D02*
X145828733Y-89190000D01*
X146171267Y-90210000D02*
X145828733Y-90210000D01*
G04 #@! TO.C,R21*
X131071267Y-92010000D02*
X130728733Y-92010000D01*
X131071267Y-90990000D02*
X130728733Y-90990000D01*
G04 #@! TO.C,R22*
X146171267Y-90990000D02*
X145828733Y-90990000D01*
X146171267Y-92010000D02*
X145828733Y-92010000D01*
G04 #@! TO.C,R23*
X141271267Y-73460000D02*
X140928733Y-73460000D01*
X141271267Y-72440000D02*
X140928733Y-72440000D01*
G04 #@! TO.C,R26*
X126810000Y-72528733D02*
X126810000Y-72871267D01*
X125790000Y-72528733D02*
X125790000Y-72871267D01*
G04 #@! TO.C,R27*
X127490000Y-72528733D02*
X127490000Y-72871267D01*
X128510000Y-72528733D02*
X128510000Y-72871267D01*
G04 #@! TO.C,R28*
X97552064Y-119290000D02*
X93447936Y-119290000D01*
X97552064Y-122710000D02*
X93447936Y-122710000D01*
G04 #@! TO.C,R29*
X97552064Y-99710000D02*
X93447936Y-99710000D01*
X97552064Y-96290000D02*
X93447936Y-96290000D01*
G04 #@! TO.C,R30*
X97552064Y-111210000D02*
X93447936Y-111210000D01*
X97552064Y-107790000D02*
X93447936Y-107790000D01*
G04 #@! TO.C,R31*
X97552064Y-101790000D02*
X93447936Y-101790000D01*
X97552064Y-105210000D02*
X93447936Y-105210000D01*
G04 #@! TO.C,R32*
X97552064Y-117210000D02*
X93447936Y-117210000D01*
X97552064Y-113790000D02*
X93447936Y-113790000D01*
G04 #@! TO.C,R33*
X153428733Y-82490000D02*
X153771267Y-82490000D01*
X153428733Y-83510000D02*
X153771267Y-83510000D01*
G04 #@! TO.C,R36*
X132528733Y-82890000D02*
X132871267Y-82890000D01*
X132528733Y-83910000D02*
X132871267Y-83910000D01*
G04 #@! TO.C,U1*
X98910000Y-70800000D02*
X98910000Y-69000000D01*
X95690000Y-69000000D02*
X95690000Y-71950000D01*
G04 #@! TO.C,U3*
X88610000Y-82510000D02*
X88610000Y-81250000D01*
X88610000Y-75690000D02*
X88610000Y-76950000D01*
X84850000Y-82510000D02*
X88610000Y-82510000D01*
X82600000Y-75690000D02*
X88610000Y-75690000D01*
G04 #@! TO.C,U9*
X154560000Y-74510000D02*
X154560000Y-76160000D01*
X159760000Y-74510000D02*
X154560000Y-74510000D01*
X159760000Y-79810000D02*
X159760000Y-74510000D01*
X154560000Y-79810000D02*
X159760000Y-79810000D01*
X154560000Y-78160000D02*
X154560000Y-79810000D01*
X154560000Y-76160000D02*
G75*
G02X154560000Y-78160000I0J-1000000D01*
G01*
G04 #@! TO.C,U10*
X136330000Y-78160000D02*
G75*
G02X136330000Y-76160000I0J1000000D01*
G01*
X136330000Y-76160000D02*
X136330000Y-74510000D01*
X136330000Y-74510000D02*
X131130000Y-74510000D01*
X131130000Y-74510000D02*
X131130000Y-79810000D01*
X131130000Y-79810000D02*
X136330000Y-79810000D01*
X136330000Y-79810000D02*
X136330000Y-78160000D01*
G04 #@! TO.C,Y1*
X115650000Y-73250000D02*
X111150000Y-73250000D01*
X111150000Y-73250000D02*
X111150000Y-78650000D01*
D15*
G04 #@! TO.C,U4*
X122525000Y-87675000D02*
X121125000Y-87675000D01*
X122525000Y-92775000D02*
X126675000Y-92775000D01*
X122525000Y-87625000D02*
X126675000Y-87625000D01*
X122525000Y-92775000D02*
X122525000Y-92630000D01*
X126675000Y-92775000D02*
X126675000Y-92630000D01*
X126675000Y-87625000D02*
X126675000Y-87770000D01*
X122525000Y-87625000D02*
X122525000Y-87675000D01*
G04 #@! TO.C,U5*
X137525000Y-87625000D02*
X137525000Y-87675000D01*
X141675000Y-87625000D02*
X141675000Y-87770000D01*
X141675000Y-92775000D02*
X141675000Y-92630000D01*
X137525000Y-92775000D02*
X137525000Y-92630000D01*
X137525000Y-87625000D02*
X141675000Y-87625000D01*
X137525000Y-92775000D02*
X141675000Y-92775000D01*
X137525000Y-87675000D02*
X136125000Y-87675000D01*
D14*
G04 #@! TO.C,C2*
X104425000Y-65879646D02*
X105425000Y-65879646D01*
X104925000Y-66379646D02*
X104925000Y-65379646D01*
X107201000Y-55819000D02*
X108399000Y-55819000D01*
X106938000Y-55859000D02*
X108662000Y-55859000D01*
X106738000Y-55899000D02*
X108862000Y-55899000D01*
X106570000Y-55939000D02*
X109030000Y-55939000D01*
X106422000Y-55979000D02*
X109178000Y-55979000D01*
X106290000Y-56019000D02*
X109310000Y-56019000D01*
X106170000Y-56059000D02*
X109430000Y-56059000D01*
X106058000Y-56099000D02*
X109542000Y-56099000D01*
X105954000Y-56139000D02*
X109646000Y-56139000D01*
X105856000Y-56179000D02*
X109744000Y-56179000D01*
X105763000Y-56219000D02*
X109837000Y-56219000D01*
X105675000Y-56259000D02*
X109925000Y-56259000D01*
X105591000Y-56299000D02*
X110009000Y-56299000D01*
X105511000Y-56339000D02*
X110089000Y-56339000D01*
X105435000Y-56379000D02*
X110165000Y-56379000D01*
X105361000Y-56419000D02*
X110239000Y-56419000D01*
X105290000Y-56459000D02*
X110310000Y-56459000D01*
X105221000Y-56499000D02*
X110379000Y-56499000D01*
X105155000Y-56539000D02*
X110445000Y-56539000D01*
X105091000Y-56579000D02*
X110509000Y-56579000D01*
X105030000Y-56619000D02*
X110570000Y-56619000D01*
X104970000Y-56659000D02*
X110630000Y-56659000D01*
X104911000Y-56699000D02*
X110689000Y-56699000D01*
X104855000Y-56739000D02*
X110745000Y-56739000D01*
X104800000Y-56779000D02*
X110800000Y-56779000D01*
X104746000Y-56819000D02*
X110854000Y-56819000D01*
X104694000Y-56859000D02*
X110906000Y-56859000D01*
X104644000Y-56899000D02*
X110956000Y-56899000D01*
X104594000Y-56939000D02*
X111006000Y-56939000D01*
X104546000Y-56979000D02*
X111054000Y-56979000D01*
X104499000Y-57019000D02*
X111101000Y-57019000D01*
X104453000Y-57059000D02*
X111147000Y-57059000D01*
X104408000Y-57099000D02*
X111192000Y-57099000D01*
X104364000Y-57139000D02*
X111236000Y-57139000D01*
X109041000Y-57179000D02*
X111278000Y-57179000D01*
X104322000Y-57179000D02*
X106559000Y-57179000D01*
X109041000Y-57219000D02*
X111320000Y-57219000D01*
X104280000Y-57219000D02*
X106559000Y-57219000D01*
X109041000Y-57259000D02*
X111361000Y-57259000D01*
X104239000Y-57259000D02*
X106559000Y-57259000D01*
X109041000Y-57299000D02*
X111401000Y-57299000D01*
X104199000Y-57299000D02*
X106559000Y-57299000D01*
X109041000Y-57339000D02*
X111440000Y-57339000D01*
X104160000Y-57339000D02*
X106559000Y-57339000D01*
X109041000Y-57379000D02*
X111479000Y-57379000D01*
X104121000Y-57379000D02*
X106559000Y-57379000D01*
X109041000Y-57419000D02*
X111516000Y-57419000D01*
X104084000Y-57419000D02*
X106559000Y-57419000D01*
X109041000Y-57459000D02*
X111553000Y-57459000D01*
X104047000Y-57459000D02*
X106559000Y-57459000D01*
X109041000Y-57499000D02*
X111589000Y-57499000D01*
X104011000Y-57499000D02*
X106559000Y-57499000D01*
X109041000Y-57539000D02*
X111624000Y-57539000D01*
X103976000Y-57539000D02*
X106559000Y-57539000D01*
X109041000Y-57579000D02*
X111658000Y-57579000D01*
X103942000Y-57579000D02*
X106559000Y-57579000D01*
X109041000Y-57619000D02*
X111692000Y-57619000D01*
X103908000Y-57619000D02*
X106559000Y-57619000D01*
X109041000Y-57659000D02*
X111725000Y-57659000D01*
X103875000Y-57659000D02*
X106559000Y-57659000D01*
X109041000Y-57699000D02*
X111757000Y-57699000D01*
X103843000Y-57699000D02*
X106559000Y-57699000D01*
X109041000Y-57739000D02*
X111789000Y-57739000D01*
X103811000Y-57739000D02*
X106559000Y-57739000D01*
X109041000Y-57779000D02*
X111820000Y-57779000D01*
X103780000Y-57779000D02*
X106559000Y-57779000D01*
X109041000Y-57819000D02*
X111850000Y-57819000D01*
X103750000Y-57819000D02*
X106559000Y-57819000D01*
X109041000Y-57859000D02*
X111880000Y-57859000D01*
X103720000Y-57859000D02*
X106559000Y-57859000D01*
X109041000Y-57899000D02*
X111910000Y-57899000D01*
X103690000Y-57899000D02*
X106559000Y-57899000D01*
X109041000Y-57939000D02*
X111938000Y-57939000D01*
X103662000Y-57939000D02*
X106559000Y-57939000D01*
X109041000Y-57979000D02*
X111966000Y-57979000D01*
X103634000Y-57979000D02*
X106559000Y-57979000D01*
X109041000Y-58019000D02*
X111994000Y-58019000D01*
X103606000Y-58019000D02*
X106559000Y-58019000D01*
X109041000Y-58059000D02*
X112021000Y-58059000D01*
X103579000Y-58059000D02*
X106559000Y-58059000D01*
X109041000Y-58099000D02*
X112047000Y-58099000D01*
X103553000Y-58099000D02*
X106559000Y-58099000D01*
X109041000Y-58139000D02*
X112073000Y-58139000D01*
X103527000Y-58139000D02*
X106559000Y-58139000D01*
X109041000Y-58179000D02*
X112098000Y-58179000D01*
X103502000Y-58179000D02*
X106559000Y-58179000D01*
X109041000Y-58219000D02*
X112123000Y-58219000D01*
X103477000Y-58219000D02*
X106559000Y-58219000D01*
X109041000Y-58259000D02*
X112147000Y-58259000D01*
X103453000Y-58259000D02*
X106559000Y-58259000D01*
X109041000Y-58299000D02*
X112171000Y-58299000D01*
X103429000Y-58299000D02*
X106559000Y-58299000D01*
X109041000Y-58339000D02*
X112195000Y-58339000D01*
X103405000Y-58339000D02*
X106559000Y-58339000D01*
X109041000Y-58379000D02*
X112217000Y-58379000D01*
X103383000Y-58379000D02*
X106559000Y-58379000D01*
X109041000Y-58419000D02*
X112240000Y-58419000D01*
X103360000Y-58419000D02*
X106559000Y-58419000D01*
X109041000Y-58459000D02*
X112262000Y-58459000D01*
X103338000Y-58459000D02*
X106559000Y-58459000D01*
X109041000Y-58499000D02*
X112283000Y-58499000D01*
X103317000Y-58499000D02*
X106559000Y-58499000D01*
X109041000Y-58539000D02*
X112304000Y-58539000D01*
X103296000Y-58539000D02*
X106559000Y-58539000D01*
X109041000Y-58579000D02*
X112325000Y-58579000D01*
X103275000Y-58579000D02*
X106559000Y-58579000D01*
X109041000Y-58619000D02*
X112345000Y-58619000D01*
X103255000Y-58619000D02*
X106559000Y-58619000D01*
X109041000Y-58659000D02*
X112364000Y-58659000D01*
X103236000Y-58659000D02*
X106559000Y-58659000D01*
X109041000Y-58699000D02*
X112384000Y-58699000D01*
X103216000Y-58699000D02*
X106559000Y-58699000D01*
X109041000Y-58739000D02*
X112403000Y-58739000D01*
X103197000Y-58739000D02*
X106559000Y-58739000D01*
X109041000Y-58779000D02*
X112421000Y-58779000D01*
X103179000Y-58779000D02*
X106559000Y-58779000D01*
X109041000Y-58819000D02*
X112439000Y-58819000D01*
X103161000Y-58819000D02*
X106559000Y-58819000D01*
X109041000Y-58859000D02*
X112457000Y-58859000D01*
X103143000Y-58859000D02*
X106559000Y-58859000D01*
X109041000Y-58899000D02*
X112474000Y-58899000D01*
X103126000Y-58899000D02*
X106559000Y-58899000D01*
X109041000Y-58939000D02*
X112490000Y-58939000D01*
X103110000Y-58939000D02*
X106559000Y-58939000D01*
X109041000Y-58979000D02*
X112507000Y-58979000D01*
X103093000Y-58979000D02*
X106559000Y-58979000D01*
X109041000Y-59019000D02*
X112523000Y-59019000D01*
X103077000Y-59019000D02*
X106559000Y-59019000D01*
X109041000Y-59059000D02*
X112538000Y-59059000D01*
X103062000Y-59059000D02*
X106559000Y-59059000D01*
X109041000Y-59099000D02*
X112554000Y-59099000D01*
X103046000Y-59099000D02*
X106559000Y-59099000D01*
X109041000Y-59139000D02*
X112568000Y-59139000D01*
X103032000Y-59139000D02*
X106559000Y-59139000D01*
X109041000Y-59179000D02*
X112583000Y-59179000D01*
X103017000Y-59179000D02*
X106559000Y-59179000D01*
X109041000Y-59219000D02*
X112597000Y-59219000D01*
X103003000Y-59219000D02*
X106559000Y-59219000D01*
X109041000Y-59259000D02*
X112611000Y-59259000D01*
X102989000Y-59259000D02*
X106559000Y-59259000D01*
X109041000Y-59299000D02*
X112624000Y-59299000D01*
X102976000Y-59299000D02*
X106559000Y-59299000D01*
X109041000Y-59339000D02*
X112637000Y-59339000D01*
X102963000Y-59339000D02*
X106559000Y-59339000D01*
X109041000Y-59379000D02*
X112650000Y-59379000D01*
X102950000Y-59379000D02*
X106559000Y-59379000D01*
X109041000Y-59419000D02*
X112662000Y-59419000D01*
X102938000Y-59419000D02*
X106559000Y-59419000D01*
X109041000Y-59459000D02*
X112674000Y-59459000D01*
X102926000Y-59459000D02*
X106559000Y-59459000D01*
X109041000Y-59499000D02*
X112685000Y-59499000D01*
X102915000Y-59499000D02*
X106559000Y-59499000D01*
X109041000Y-59539000D02*
X112697000Y-59539000D01*
X102903000Y-59539000D02*
X106559000Y-59539000D01*
X109041000Y-59579000D02*
X112707000Y-59579000D01*
X102893000Y-59579000D02*
X106559000Y-59579000D01*
X109041000Y-59619000D02*
X112718000Y-59619000D01*
X102882000Y-59619000D02*
X106559000Y-59619000D01*
X102872000Y-59659000D02*
X112728000Y-59659000D01*
X102862000Y-59699000D02*
X112738000Y-59699000D01*
X102853000Y-59739000D02*
X112747000Y-59739000D01*
X102844000Y-59779000D02*
X112756000Y-59779000D01*
X102835000Y-59819000D02*
X112765000Y-59819000D01*
X102826000Y-59859000D02*
X112774000Y-59859000D01*
X102818000Y-59899000D02*
X112782000Y-59899000D01*
X102810000Y-59939000D02*
X112790000Y-59939000D01*
X102803000Y-59979000D02*
X112797000Y-59979000D01*
X102796000Y-60019000D02*
X112804000Y-60019000D01*
X102789000Y-60059000D02*
X112811000Y-60059000D01*
X102782000Y-60099000D02*
X112818000Y-60099000D01*
X102776000Y-60139000D02*
X112824000Y-60139000D01*
X102770000Y-60179000D02*
X112830000Y-60179000D01*
X102765000Y-60220000D02*
X112835000Y-60220000D01*
X102760000Y-60260000D02*
X112840000Y-60260000D01*
X102755000Y-60300000D02*
X112845000Y-60300000D01*
X102750000Y-60340000D02*
X112850000Y-60340000D01*
X102746000Y-60380000D02*
X112854000Y-60380000D01*
X102742000Y-60420000D02*
X112858000Y-60420000D01*
X102738000Y-60460000D02*
X112862000Y-60460000D01*
X102735000Y-60500000D02*
X112865000Y-60500000D01*
X102732000Y-60540000D02*
X112868000Y-60540000D01*
X102730000Y-60580000D02*
X112870000Y-60580000D01*
X102727000Y-60620000D02*
X112873000Y-60620000D01*
X102725000Y-60660000D02*
X112875000Y-60660000D01*
X102723000Y-60700000D02*
X112877000Y-60700000D01*
X102722000Y-60740000D02*
X112878000Y-60740000D01*
X102721000Y-60780000D02*
X112879000Y-60780000D01*
X102720000Y-60820000D02*
X112880000Y-60820000D01*
X102720000Y-60860000D02*
X112880000Y-60860000D01*
X102720000Y-60900000D02*
X112880000Y-60900000D01*
X112920000Y-60900000D02*
G75*
G03X112920000Y-60900000I-5120000J0D01*
G01*
G04 #@! TO.C,C3*
X101220000Y-60900000D02*
G75*
G03X101220000Y-60900000I-5120000J0D01*
G01*
X91020000Y-60900000D02*
X101180000Y-60900000D01*
X91020000Y-60860000D02*
X101180000Y-60860000D01*
X91020000Y-60820000D02*
X101180000Y-60820000D01*
X91021000Y-60780000D02*
X101179000Y-60780000D01*
X91022000Y-60740000D02*
X101178000Y-60740000D01*
X91023000Y-60700000D02*
X101177000Y-60700000D01*
X91025000Y-60660000D02*
X101175000Y-60660000D01*
X91027000Y-60620000D02*
X101173000Y-60620000D01*
X91030000Y-60580000D02*
X101170000Y-60580000D01*
X91032000Y-60540000D02*
X101168000Y-60540000D01*
X91035000Y-60500000D02*
X101165000Y-60500000D01*
X91038000Y-60460000D02*
X101162000Y-60460000D01*
X91042000Y-60420000D02*
X101158000Y-60420000D01*
X91046000Y-60380000D02*
X101154000Y-60380000D01*
X91050000Y-60340000D02*
X101150000Y-60340000D01*
X91055000Y-60300000D02*
X101145000Y-60300000D01*
X91060000Y-60260000D02*
X101140000Y-60260000D01*
X91065000Y-60220000D02*
X101135000Y-60220000D01*
X91070000Y-60179000D02*
X101130000Y-60179000D01*
X91076000Y-60139000D02*
X101124000Y-60139000D01*
X91082000Y-60099000D02*
X101118000Y-60099000D01*
X91089000Y-60059000D02*
X101111000Y-60059000D01*
X91096000Y-60019000D02*
X101104000Y-60019000D01*
X91103000Y-59979000D02*
X101097000Y-59979000D01*
X91110000Y-59939000D02*
X101090000Y-59939000D01*
X91118000Y-59899000D02*
X101082000Y-59899000D01*
X91126000Y-59859000D02*
X101074000Y-59859000D01*
X91135000Y-59819000D02*
X101065000Y-59819000D01*
X91144000Y-59779000D02*
X101056000Y-59779000D01*
X91153000Y-59739000D02*
X101047000Y-59739000D01*
X91162000Y-59699000D02*
X101038000Y-59699000D01*
X91172000Y-59659000D02*
X101028000Y-59659000D01*
X91182000Y-59619000D02*
X94859000Y-59619000D01*
X97341000Y-59619000D02*
X101018000Y-59619000D01*
X91193000Y-59579000D02*
X94859000Y-59579000D01*
X97341000Y-59579000D02*
X101007000Y-59579000D01*
X91203000Y-59539000D02*
X94859000Y-59539000D01*
X97341000Y-59539000D02*
X100997000Y-59539000D01*
X91215000Y-59499000D02*
X94859000Y-59499000D01*
X97341000Y-59499000D02*
X100985000Y-59499000D01*
X91226000Y-59459000D02*
X94859000Y-59459000D01*
X97341000Y-59459000D02*
X100974000Y-59459000D01*
X91238000Y-59419000D02*
X94859000Y-59419000D01*
X97341000Y-59419000D02*
X100962000Y-59419000D01*
X91250000Y-59379000D02*
X94859000Y-59379000D01*
X97341000Y-59379000D02*
X100950000Y-59379000D01*
X91263000Y-59339000D02*
X94859000Y-59339000D01*
X97341000Y-59339000D02*
X100937000Y-59339000D01*
X91276000Y-59299000D02*
X94859000Y-59299000D01*
X97341000Y-59299000D02*
X100924000Y-59299000D01*
X91289000Y-59259000D02*
X94859000Y-59259000D01*
X97341000Y-59259000D02*
X100911000Y-59259000D01*
X91303000Y-59219000D02*
X94859000Y-59219000D01*
X97341000Y-59219000D02*
X100897000Y-59219000D01*
X91317000Y-59179000D02*
X94859000Y-59179000D01*
X97341000Y-59179000D02*
X100883000Y-59179000D01*
X91332000Y-59139000D02*
X94859000Y-59139000D01*
X97341000Y-59139000D02*
X100868000Y-59139000D01*
X91346000Y-59099000D02*
X94859000Y-59099000D01*
X97341000Y-59099000D02*
X100854000Y-59099000D01*
X91362000Y-59059000D02*
X94859000Y-59059000D01*
X97341000Y-59059000D02*
X100838000Y-59059000D01*
X91377000Y-59019000D02*
X94859000Y-59019000D01*
X97341000Y-59019000D02*
X100823000Y-59019000D01*
X91393000Y-58979000D02*
X94859000Y-58979000D01*
X97341000Y-58979000D02*
X100807000Y-58979000D01*
X91410000Y-58939000D02*
X94859000Y-58939000D01*
X97341000Y-58939000D02*
X100790000Y-58939000D01*
X91426000Y-58899000D02*
X94859000Y-58899000D01*
X97341000Y-58899000D02*
X100774000Y-58899000D01*
X91443000Y-58859000D02*
X94859000Y-58859000D01*
X97341000Y-58859000D02*
X100757000Y-58859000D01*
X91461000Y-58819000D02*
X94859000Y-58819000D01*
X97341000Y-58819000D02*
X100739000Y-58819000D01*
X91479000Y-58779000D02*
X94859000Y-58779000D01*
X97341000Y-58779000D02*
X100721000Y-58779000D01*
X91497000Y-58739000D02*
X94859000Y-58739000D01*
X97341000Y-58739000D02*
X100703000Y-58739000D01*
X91516000Y-58699000D02*
X94859000Y-58699000D01*
X97341000Y-58699000D02*
X100684000Y-58699000D01*
X91536000Y-58659000D02*
X94859000Y-58659000D01*
X97341000Y-58659000D02*
X100664000Y-58659000D01*
X91555000Y-58619000D02*
X94859000Y-58619000D01*
X97341000Y-58619000D02*
X100645000Y-58619000D01*
X91575000Y-58579000D02*
X94859000Y-58579000D01*
X97341000Y-58579000D02*
X100625000Y-58579000D01*
X91596000Y-58539000D02*
X94859000Y-58539000D01*
X97341000Y-58539000D02*
X100604000Y-58539000D01*
X91617000Y-58499000D02*
X94859000Y-58499000D01*
X97341000Y-58499000D02*
X100583000Y-58499000D01*
X91638000Y-58459000D02*
X94859000Y-58459000D01*
X97341000Y-58459000D02*
X100562000Y-58459000D01*
X91660000Y-58419000D02*
X94859000Y-58419000D01*
X97341000Y-58419000D02*
X100540000Y-58419000D01*
X91683000Y-58379000D02*
X94859000Y-58379000D01*
X97341000Y-58379000D02*
X100517000Y-58379000D01*
X91705000Y-58339000D02*
X94859000Y-58339000D01*
X97341000Y-58339000D02*
X100495000Y-58339000D01*
X91729000Y-58299000D02*
X94859000Y-58299000D01*
X97341000Y-58299000D02*
X100471000Y-58299000D01*
X91753000Y-58259000D02*
X94859000Y-58259000D01*
X97341000Y-58259000D02*
X100447000Y-58259000D01*
X91777000Y-58219000D02*
X94859000Y-58219000D01*
X97341000Y-58219000D02*
X100423000Y-58219000D01*
X91802000Y-58179000D02*
X94859000Y-58179000D01*
X97341000Y-58179000D02*
X100398000Y-58179000D01*
X91827000Y-58139000D02*
X94859000Y-58139000D01*
X97341000Y-58139000D02*
X100373000Y-58139000D01*
X91853000Y-58099000D02*
X94859000Y-58099000D01*
X97341000Y-58099000D02*
X100347000Y-58099000D01*
X91879000Y-58059000D02*
X94859000Y-58059000D01*
X97341000Y-58059000D02*
X100321000Y-58059000D01*
X91906000Y-58019000D02*
X94859000Y-58019000D01*
X97341000Y-58019000D02*
X100294000Y-58019000D01*
X91934000Y-57979000D02*
X94859000Y-57979000D01*
X97341000Y-57979000D02*
X100266000Y-57979000D01*
X91962000Y-57939000D02*
X94859000Y-57939000D01*
X97341000Y-57939000D02*
X100238000Y-57939000D01*
X91990000Y-57899000D02*
X94859000Y-57899000D01*
X97341000Y-57899000D02*
X100210000Y-57899000D01*
X92020000Y-57859000D02*
X94859000Y-57859000D01*
X97341000Y-57859000D02*
X100180000Y-57859000D01*
X92050000Y-57819000D02*
X94859000Y-57819000D01*
X97341000Y-57819000D02*
X100150000Y-57819000D01*
X92080000Y-57779000D02*
X94859000Y-57779000D01*
X97341000Y-57779000D02*
X100120000Y-57779000D01*
X92111000Y-57739000D02*
X94859000Y-57739000D01*
X97341000Y-57739000D02*
X100089000Y-57739000D01*
X92143000Y-57699000D02*
X94859000Y-57699000D01*
X97341000Y-57699000D02*
X100057000Y-57699000D01*
X92175000Y-57659000D02*
X94859000Y-57659000D01*
X97341000Y-57659000D02*
X100025000Y-57659000D01*
X92208000Y-57619000D02*
X94859000Y-57619000D01*
X97341000Y-57619000D02*
X99992000Y-57619000D01*
X92242000Y-57579000D02*
X94859000Y-57579000D01*
X97341000Y-57579000D02*
X99958000Y-57579000D01*
X92276000Y-57539000D02*
X94859000Y-57539000D01*
X97341000Y-57539000D02*
X99924000Y-57539000D01*
X92311000Y-57499000D02*
X94859000Y-57499000D01*
X97341000Y-57499000D02*
X99889000Y-57499000D01*
X92347000Y-57459000D02*
X94859000Y-57459000D01*
X97341000Y-57459000D02*
X99853000Y-57459000D01*
X92384000Y-57419000D02*
X94859000Y-57419000D01*
X97341000Y-57419000D02*
X99816000Y-57419000D01*
X92421000Y-57379000D02*
X94859000Y-57379000D01*
X97341000Y-57379000D02*
X99779000Y-57379000D01*
X92460000Y-57339000D02*
X94859000Y-57339000D01*
X97341000Y-57339000D02*
X99740000Y-57339000D01*
X92499000Y-57299000D02*
X94859000Y-57299000D01*
X97341000Y-57299000D02*
X99701000Y-57299000D01*
X92539000Y-57259000D02*
X94859000Y-57259000D01*
X97341000Y-57259000D02*
X99661000Y-57259000D01*
X92580000Y-57219000D02*
X94859000Y-57219000D01*
X97341000Y-57219000D02*
X99620000Y-57219000D01*
X92622000Y-57179000D02*
X94859000Y-57179000D01*
X97341000Y-57179000D02*
X99578000Y-57179000D01*
X92664000Y-57139000D02*
X99536000Y-57139000D01*
X92708000Y-57099000D02*
X99492000Y-57099000D01*
X92753000Y-57059000D02*
X99447000Y-57059000D01*
X92799000Y-57019000D02*
X99401000Y-57019000D01*
X92846000Y-56979000D02*
X99354000Y-56979000D01*
X92894000Y-56939000D02*
X99306000Y-56939000D01*
X92944000Y-56899000D02*
X99256000Y-56899000D01*
X92994000Y-56859000D02*
X99206000Y-56859000D01*
X93046000Y-56819000D02*
X99154000Y-56819000D01*
X93100000Y-56779000D02*
X99100000Y-56779000D01*
X93155000Y-56739000D02*
X99045000Y-56739000D01*
X93211000Y-56699000D02*
X98989000Y-56699000D01*
X93270000Y-56659000D02*
X98930000Y-56659000D01*
X93330000Y-56619000D02*
X98870000Y-56619000D01*
X93391000Y-56579000D02*
X98809000Y-56579000D01*
X93455000Y-56539000D02*
X98745000Y-56539000D01*
X93521000Y-56499000D02*
X98679000Y-56499000D01*
X93590000Y-56459000D02*
X98610000Y-56459000D01*
X93661000Y-56419000D02*
X98539000Y-56419000D01*
X93735000Y-56379000D02*
X98465000Y-56379000D01*
X93811000Y-56339000D02*
X98389000Y-56339000D01*
X93891000Y-56299000D02*
X98309000Y-56299000D01*
X93975000Y-56259000D02*
X98225000Y-56259000D01*
X94063000Y-56219000D02*
X98137000Y-56219000D01*
X94156000Y-56179000D02*
X98044000Y-56179000D01*
X94254000Y-56139000D02*
X97946000Y-56139000D01*
X94358000Y-56099000D02*
X97842000Y-56099000D01*
X94470000Y-56059000D02*
X97730000Y-56059000D01*
X94590000Y-56019000D02*
X97610000Y-56019000D01*
X94722000Y-55979000D02*
X97478000Y-55979000D01*
X94870000Y-55939000D02*
X97330000Y-55939000D01*
X95038000Y-55899000D02*
X97162000Y-55899000D01*
X95238000Y-55859000D02*
X96962000Y-55859000D01*
X95501000Y-55819000D02*
X96699000Y-55819000D01*
X93225000Y-66379646D02*
X93225000Y-65379646D01*
X92725000Y-65879646D02*
X93725000Y-65879646D01*
G04 #@! TO.C,C15*
X81279646Y-91475000D02*
X81279646Y-90475000D01*
X81779646Y-90975000D02*
X80779646Y-90975000D01*
X71219000Y-88699000D02*
X71219000Y-87501000D01*
X71259000Y-88962000D02*
X71259000Y-87238000D01*
X71299000Y-89162000D02*
X71299000Y-87038000D01*
X71339000Y-89330000D02*
X71339000Y-86870000D01*
X71379000Y-89478000D02*
X71379000Y-86722000D01*
X71419000Y-89610000D02*
X71419000Y-86590000D01*
X71459000Y-89730000D02*
X71459000Y-86470000D01*
X71499000Y-89842000D02*
X71499000Y-86358000D01*
X71539000Y-89946000D02*
X71539000Y-86254000D01*
X71579000Y-90044000D02*
X71579000Y-86156000D01*
X71619000Y-90137000D02*
X71619000Y-86063000D01*
X71659000Y-90225000D02*
X71659000Y-85975000D01*
X71699000Y-90309000D02*
X71699000Y-85891000D01*
X71739000Y-90389000D02*
X71739000Y-85811000D01*
X71779000Y-90465000D02*
X71779000Y-85735000D01*
X71819000Y-90539000D02*
X71819000Y-85661000D01*
X71859000Y-90610000D02*
X71859000Y-85590000D01*
X71899000Y-90679000D02*
X71899000Y-85521000D01*
X71939000Y-90745000D02*
X71939000Y-85455000D01*
X71979000Y-90809000D02*
X71979000Y-85391000D01*
X72019000Y-90870000D02*
X72019000Y-85330000D01*
X72059000Y-90930000D02*
X72059000Y-85270000D01*
X72099000Y-90989000D02*
X72099000Y-85211000D01*
X72139000Y-91045000D02*
X72139000Y-85155000D01*
X72179000Y-91100000D02*
X72179000Y-85100000D01*
X72219000Y-91154000D02*
X72219000Y-85046000D01*
X72259000Y-91206000D02*
X72259000Y-84994000D01*
X72299000Y-91256000D02*
X72299000Y-84944000D01*
X72339000Y-91306000D02*
X72339000Y-84894000D01*
X72379000Y-91354000D02*
X72379000Y-84846000D01*
X72419000Y-91401000D02*
X72419000Y-84799000D01*
X72459000Y-91447000D02*
X72459000Y-84753000D01*
X72499000Y-91492000D02*
X72499000Y-84708000D01*
X72539000Y-91536000D02*
X72539000Y-84664000D01*
X72579000Y-86859000D02*
X72579000Y-84622000D01*
X72579000Y-91578000D02*
X72579000Y-89341000D01*
X72619000Y-86859000D02*
X72619000Y-84580000D01*
X72619000Y-91620000D02*
X72619000Y-89341000D01*
X72659000Y-86859000D02*
X72659000Y-84539000D01*
X72659000Y-91661000D02*
X72659000Y-89341000D01*
X72699000Y-86859000D02*
X72699000Y-84499000D01*
X72699000Y-91701000D02*
X72699000Y-89341000D01*
X72739000Y-86859000D02*
X72739000Y-84460000D01*
X72739000Y-91740000D02*
X72739000Y-89341000D01*
X72779000Y-86859000D02*
X72779000Y-84421000D01*
X72779000Y-91779000D02*
X72779000Y-89341000D01*
X72819000Y-86859000D02*
X72819000Y-84384000D01*
X72819000Y-91816000D02*
X72819000Y-89341000D01*
X72859000Y-86859000D02*
X72859000Y-84347000D01*
X72859000Y-91853000D02*
X72859000Y-89341000D01*
X72899000Y-86859000D02*
X72899000Y-84311000D01*
X72899000Y-91889000D02*
X72899000Y-89341000D01*
X72939000Y-86859000D02*
X72939000Y-84276000D01*
X72939000Y-91924000D02*
X72939000Y-89341000D01*
X72979000Y-86859000D02*
X72979000Y-84242000D01*
X72979000Y-91958000D02*
X72979000Y-89341000D01*
X73019000Y-86859000D02*
X73019000Y-84208000D01*
X73019000Y-91992000D02*
X73019000Y-89341000D01*
X73059000Y-86859000D02*
X73059000Y-84175000D01*
X73059000Y-92025000D02*
X73059000Y-89341000D01*
X73099000Y-86859000D02*
X73099000Y-84143000D01*
X73099000Y-92057000D02*
X73099000Y-89341000D01*
X73139000Y-86859000D02*
X73139000Y-84111000D01*
X73139000Y-92089000D02*
X73139000Y-89341000D01*
X73179000Y-86859000D02*
X73179000Y-84080000D01*
X73179000Y-92120000D02*
X73179000Y-89341000D01*
X73219000Y-86859000D02*
X73219000Y-84050000D01*
X73219000Y-92150000D02*
X73219000Y-89341000D01*
X73259000Y-86859000D02*
X73259000Y-84020000D01*
X73259000Y-92180000D02*
X73259000Y-89341000D01*
X73299000Y-86859000D02*
X73299000Y-83990000D01*
X73299000Y-92210000D02*
X73299000Y-89341000D01*
X73339000Y-86859000D02*
X73339000Y-83962000D01*
X73339000Y-92238000D02*
X73339000Y-89341000D01*
X73379000Y-86859000D02*
X73379000Y-83934000D01*
X73379000Y-92266000D02*
X73379000Y-89341000D01*
X73419000Y-86859000D02*
X73419000Y-83906000D01*
X73419000Y-92294000D02*
X73419000Y-89341000D01*
X73459000Y-86859000D02*
X73459000Y-83879000D01*
X73459000Y-92321000D02*
X73459000Y-89341000D01*
X73499000Y-86859000D02*
X73499000Y-83853000D01*
X73499000Y-92347000D02*
X73499000Y-89341000D01*
X73539000Y-86859000D02*
X73539000Y-83827000D01*
X73539000Y-92373000D02*
X73539000Y-89341000D01*
X73579000Y-86859000D02*
X73579000Y-83802000D01*
X73579000Y-92398000D02*
X73579000Y-89341000D01*
X73619000Y-86859000D02*
X73619000Y-83777000D01*
X73619000Y-92423000D02*
X73619000Y-89341000D01*
X73659000Y-86859000D02*
X73659000Y-83753000D01*
X73659000Y-92447000D02*
X73659000Y-89341000D01*
X73699000Y-86859000D02*
X73699000Y-83729000D01*
X73699000Y-92471000D02*
X73699000Y-89341000D01*
X73739000Y-86859000D02*
X73739000Y-83705000D01*
X73739000Y-92495000D02*
X73739000Y-89341000D01*
X73779000Y-86859000D02*
X73779000Y-83683000D01*
X73779000Y-92517000D02*
X73779000Y-89341000D01*
X73819000Y-86859000D02*
X73819000Y-83660000D01*
X73819000Y-92540000D02*
X73819000Y-89341000D01*
X73859000Y-86859000D02*
X73859000Y-83638000D01*
X73859000Y-92562000D02*
X73859000Y-89341000D01*
X73899000Y-86859000D02*
X73899000Y-83617000D01*
X73899000Y-92583000D02*
X73899000Y-89341000D01*
X73939000Y-86859000D02*
X73939000Y-83596000D01*
X73939000Y-92604000D02*
X73939000Y-89341000D01*
X73979000Y-86859000D02*
X73979000Y-83575000D01*
X73979000Y-92625000D02*
X73979000Y-89341000D01*
X74019000Y-86859000D02*
X74019000Y-83555000D01*
X74019000Y-92645000D02*
X74019000Y-89341000D01*
X74059000Y-86859000D02*
X74059000Y-83536000D01*
X74059000Y-92664000D02*
X74059000Y-89341000D01*
X74099000Y-86859000D02*
X74099000Y-83516000D01*
X74099000Y-92684000D02*
X74099000Y-89341000D01*
X74139000Y-86859000D02*
X74139000Y-83497000D01*
X74139000Y-92703000D02*
X74139000Y-89341000D01*
X74179000Y-86859000D02*
X74179000Y-83479000D01*
X74179000Y-92721000D02*
X74179000Y-89341000D01*
X74219000Y-86859000D02*
X74219000Y-83461000D01*
X74219000Y-92739000D02*
X74219000Y-89341000D01*
X74259000Y-86859000D02*
X74259000Y-83443000D01*
X74259000Y-92757000D02*
X74259000Y-89341000D01*
X74299000Y-86859000D02*
X74299000Y-83426000D01*
X74299000Y-92774000D02*
X74299000Y-89341000D01*
X74339000Y-86859000D02*
X74339000Y-83410000D01*
X74339000Y-92790000D02*
X74339000Y-89341000D01*
X74379000Y-86859000D02*
X74379000Y-83393000D01*
X74379000Y-92807000D02*
X74379000Y-89341000D01*
X74419000Y-86859000D02*
X74419000Y-83377000D01*
X74419000Y-92823000D02*
X74419000Y-89341000D01*
X74459000Y-86859000D02*
X74459000Y-83362000D01*
X74459000Y-92838000D02*
X74459000Y-89341000D01*
X74499000Y-86859000D02*
X74499000Y-83346000D01*
X74499000Y-92854000D02*
X74499000Y-89341000D01*
X74539000Y-86859000D02*
X74539000Y-83332000D01*
X74539000Y-92868000D02*
X74539000Y-89341000D01*
X74579000Y-86859000D02*
X74579000Y-83317000D01*
X74579000Y-92883000D02*
X74579000Y-89341000D01*
X74619000Y-86859000D02*
X74619000Y-83303000D01*
X74619000Y-92897000D02*
X74619000Y-89341000D01*
X74659000Y-86859000D02*
X74659000Y-83289000D01*
X74659000Y-92911000D02*
X74659000Y-89341000D01*
X74699000Y-86859000D02*
X74699000Y-83276000D01*
X74699000Y-92924000D02*
X74699000Y-89341000D01*
X74739000Y-86859000D02*
X74739000Y-83263000D01*
X74739000Y-92937000D02*
X74739000Y-89341000D01*
X74779000Y-86859000D02*
X74779000Y-83250000D01*
X74779000Y-92950000D02*
X74779000Y-89341000D01*
X74819000Y-86859000D02*
X74819000Y-83238000D01*
X74819000Y-92962000D02*
X74819000Y-89341000D01*
X74859000Y-86859000D02*
X74859000Y-83226000D01*
X74859000Y-92974000D02*
X74859000Y-89341000D01*
X74899000Y-86859000D02*
X74899000Y-83215000D01*
X74899000Y-92985000D02*
X74899000Y-89341000D01*
X74939000Y-86859000D02*
X74939000Y-83203000D01*
X74939000Y-92997000D02*
X74939000Y-89341000D01*
X74979000Y-86859000D02*
X74979000Y-83193000D01*
X74979000Y-93007000D02*
X74979000Y-89341000D01*
X75019000Y-86859000D02*
X75019000Y-83182000D01*
X75019000Y-93018000D02*
X75019000Y-89341000D01*
X75059000Y-93028000D02*
X75059000Y-83172000D01*
X75099000Y-93038000D02*
X75099000Y-83162000D01*
X75139000Y-93047000D02*
X75139000Y-83153000D01*
X75179000Y-93056000D02*
X75179000Y-83144000D01*
X75219000Y-93065000D02*
X75219000Y-83135000D01*
X75259000Y-93074000D02*
X75259000Y-83126000D01*
X75299000Y-93082000D02*
X75299000Y-83118000D01*
X75339000Y-93090000D02*
X75339000Y-83110000D01*
X75379000Y-93097000D02*
X75379000Y-83103000D01*
X75419000Y-93104000D02*
X75419000Y-83096000D01*
X75459000Y-93111000D02*
X75459000Y-83089000D01*
X75499000Y-93118000D02*
X75499000Y-83082000D01*
X75539000Y-93124000D02*
X75539000Y-83076000D01*
X75579000Y-93130000D02*
X75579000Y-83070000D01*
X75620000Y-93135000D02*
X75620000Y-83065000D01*
X75660000Y-93140000D02*
X75660000Y-83060000D01*
X75700000Y-93145000D02*
X75700000Y-83055000D01*
X75740000Y-93150000D02*
X75740000Y-83050000D01*
X75780000Y-93154000D02*
X75780000Y-83046000D01*
X75820000Y-93158000D02*
X75820000Y-83042000D01*
X75860000Y-93162000D02*
X75860000Y-83038000D01*
X75900000Y-93165000D02*
X75900000Y-83035000D01*
X75940000Y-93168000D02*
X75940000Y-83032000D01*
X75980000Y-93170000D02*
X75980000Y-83030000D01*
X76020000Y-93173000D02*
X76020000Y-83027000D01*
X76060000Y-93175000D02*
X76060000Y-83025000D01*
X76100000Y-93177000D02*
X76100000Y-83023000D01*
X76140000Y-93178000D02*
X76140000Y-83022000D01*
X76180000Y-93179000D02*
X76180000Y-83021000D01*
X76220000Y-93180000D02*
X76220000Y-83020000D01*
X76260000Y-93180000D02*
X76260000Y-83020000D01*
X76300000Y-93180000D02*
X76300000Y-83020000D01*
X81420000Y-88100000D02*
G75*
G03X81420000Y-88100000I-5120000J0D01*
G01*
G04 #@! TO.C,C19*
X81420000Y-75900000D02*
G75*
G03X81420000Y-75900000I-5120000J0D01*
G01*
X76300000Y-80980000D02*
X76300000Y-70820000D01*
X76260000Y-80980000D02*
X76260000Y-70820000D01*
X76220000Y-80980000D02*
X76220000Y-70820000D01*
X76180000Y-80979000D02*
X76180000Y-70821000D01*
X76140000Y-80978000D02*
X76140000Y-70822000D01*
X76100000Y-80977000D02*
X76100000Y-70823000D01*
X76060000Y-80975000D02*
X76060000Y-70825000D01*
X76020000Y-80973000D02*
X76020000Y-70827000D01*
X75980000Y-80970000D02*
X75980000Y-70830000D01*
X75940000Y-80968000D02*
X75940000Y-70832000D01*
X75900000Y-80965000D02*
X75900000Y-70835000D01*
X75860000Y-80962000D02*
X75860000Y-70838000D01*
X75820000Y-80958000D02*
X75820000Y-70842000D01*
X75780000Y-80954000D02*
X75780000Y-70846000D01*
X75740000Y-80950000D02*
X75740000Y-70850000D01*
X75700000Y-80945000D02*
X75700000Y-70855000D01*
X75660000Y-80940000D02*
X75660000Y-70860000D01*
X75620000Y-80935000D02*
X75620000Y-70865000D01*
X75579000Y-80930000D02*
X75579000Y-70870000D01*
X75539000Y-80924000D02*
X75539000Y-70876000D01*
X75499000Y-80918000D02*
X75499000Y-70882000D01*
X75459000Y-80911000D02*
X75459000Y-70889000D01*
X75419000Y-80904000D02*
X75419000Y-70896000D01*
X75379000Y-80897000D02*
X75379000Y-70903000D01*
X75339000Y-80890000D02*
X75339000Y-70910000D01*
X75299000Y-80882000D02*
X75299000Y-70918000D01*
X75259000Y-80874000D02*
X75259000Y-70926000D01*
X75219000Y-80865000D02*
X75219000Y-70935000D01*
X75179000Y-80856000D02*
X75179000Y-70944000D01*
X75139000Y-80847000D02*
X75139000Y-70953000D01*
X75099000Y-80838000D02*
X75099000Y-70962000D01*
X75059000Y-80828000D02*
X75059000Y-70972000D01*
X75019000Y-80818000D02*
X75019000Y-77141000D01*
X75019000Y-74659000D02*
X75019000Y-70982000D01*
X74979000Y-80807000D02*
X74979000Y-77141000D01*
X74979000Y-74659000D02*
X74979000Y-70993000D01*
X74939000Y-80797000D02*
X74939000Y-77141000D01*
X74939000Y-74659000D02*
X74939000Y-71003000D01*
X74899000Y-80785000D02*
X74899000Y-77141000D01*
X74899000Y-74659000D02*
X74899000Y-71015000D01*
X74859000Y-80774000D02*
X74859000Y-77141000D01*
X74859000Y-74659000D02*
X74859000Y-71026000D01*
X74819000Y-80762000D02*
X74819000Y-77141000D01*
X74819000Y-74659000D02*
X74819000Y-71038000D01*
X74779000Y-80750000D02*
X74779000Y-77141000D01*
X74779000Y-74659000D02*
X74779000Y-71050000D01*
X74739000Y-80737000D02*
X74739000Y-77141000D01*
X74739000Y-74659000D02*
X74739000Y-71063000D01*
X74699000Y-80724000D02*
X74699000Y-77141000D01*
X74699000Y-74659000D02*
X74699000Y-71076000D01*
X74659000Y-80711000D02*
X74659000Y-77141000D01*
X74659000Y-74659000D02*
X74659000Y-71089000D01*
X74619000Y-80697000D02*
X74619000Y-77141000D01*
X74619000Y-74659000D02*
X74619000Y-71103000D01*
X74579000Y-80683000D02*
X74579000Y-77141000D01*
X74579000Y-74659000D02*
X74579000Y-71117000D01*
X74539000Y-80668000D02*
X74539000Y-77141000D01*
X74539000Y-74659000D02*
X74539000Y-71132000D01*
X74499000Y-80654000D02*
X74499000Y-77141000D01*
X74499000Y-74659000D02*
X74499000Y-71146000D01*
X74459000Y-80638000D02*
X74459000Y-77141000D01*
X74459000Y-74659000D02*
X74459000Y-71162000D01*
X74419000Y-80623000D02*
X74419000Y-77141000D01*
X74419000Y-74659000D02*
X74419000Y-71177000D01*
X74379000Y-80607000D02*
X74379000Y-77141000D01*
X74379000Y-74659000D02*
X74379000Y-71193000D01*
X74339000Y-80590000D02*
X74339000Y-77141000D01*
X74339000Y-74659000D02*
X74339000Y-71210000D01*
X74299000Y-80574000D02*
X74299000Y-77141000D01*
X74299000Y-74659000D02*
X74299000Y-71226000D01*
X74259000Y-80557000D02*
X74259000Y-77141000D01*
X74259000Y-74659000D02*
X74259000Y-71243000D01*
X74219000Y-80539000D02*
X74219000Y-77141000D01*
X74219000Y-74659000D02*
X74219000Y-71261000D01*
X74179000Y-80521000D02*
X74179000Y-77141000D01*
X74179000Y-74659000D02*
X74179000Y-71279000D01*
X74139000Y-80503000D02*
X74139000Y-77141000D01*
X74139000Y-74659000D02*
X74139000Y-71297000D01*
X74099000Y-80484000D02*
X74099000Y-77141000D01*
X74099000Y-74659000D02*
X74099000Y-71316000D01*
X74059000Y-80464000D02*
X74059000Y-77141000D01*
X74059000Y-74659000D02*
X74059000Y-71336000D01*
X74019000Y-80445000D02*
X74019000Y-77141000D01*
X74019000Y-74659000D02*
X74019000Y-71355000D01*
X73979000Y-80425000D02*
X73979000Y-77141000D01*
X73979000Y-74659000D02*
X73979000Y-71375000D01*
X73939000Y-80404000D02*
X73939000Y-77141000D01*
X73939000Y-74659000D02*
X73939000Y-71396000D01*
X73899000Y-80383000D02*
X73899000Y-77141000D01*
X73899000Y-74659000D02*
X73899000Y-71417000D01*
X73859000Y-80362000D02*
X73859000Y-77141000D01*
X73859000Y-74659000D02*
X73859000Y-71438000D01*
X73819000Y-80340000D02*
X73819000Y-77141000D01*
X73819000Y-74659000D02*
X73819000Y-71460000D01*
X73779000Y-80317000D02*
X73779000Y-77141000D01*
X73779000Y-74659000D02*
X73779000Y-71483000D01*
X73739000Y-80295000D02*
X73739000Y-77141000D01*
X73739000Y-74659000D02*
X73739000Y-71505000D01*
X73699000Y-80271000D02*
X73699000Y-77141000D01*
X73699000Y-74659000D02*
X73699000Y-71529000D01*
X73659000Y-80247000D02*
X73659000Y-77141000D01*
X73659000Y-74659000D02*
X73659000Y-71553000D01*
X73619000Y-80223000D02*
X73619000Y-77141000D01*
X73619000Y-74659000D02*
X73619000Y-71577000D01*
X73579000Y-80198000D02*
X73579000Y-77141000D01*
X73579000Y-74659000D02*
X73579000Y-71602000D01*
X73539000Y-80173000D02*
X73539000Y-77141000D01*
X73539000Y-74659000D02*
X73539000Y-71627000D01*
X73499000Y-80147000D02*
X73499000Y-77141000D01*
X73499000Y-74659000D02*
X73499000Y-71653000D01*
X73459000Y-80121000D02*
X73459000Y-77141000D01*
X73459000Y-74659000D02*
X73459000Y-71679000D01*
X73419000Y-80094000D02*
X73419000Y-77141000D01*
X73419000Y-74659000D02*
X73419000Y-71706000D01*
X73379000Y-80066000D02*
X73379000Y-77141000D01*
X73379000Y-74659000D02*
X73379000Y-71734000D01*
X73339000Y-80038000D02*
X73339000Y-77141000D01*
X73339000Y-74659000D02*
X73339000Y-71762000D01*
X73299000Y-80010000D02*
X73299000Y-77141000D01*
X73299000Y-74659000D02*
X73299000Y-71790000D01*
X73259000Y-79980000D02*
X73259000Y-77141000D01*
X73259000Y-74659000D02*
X73259000Y-71820000D01*
X73219000Y-79950000D02*
X73219000Y-77141000D01*
X73219000Y-74659000D02*
X73219000Y-71850000D01*
X73179000Y-79920000D02*
X73179000Y-77141000D01*
X73179000Y-74659000D02*
X73179000Y-71880000D01*
X73139000Y-79889000D02*
X73139000Y-77141000D01*
X73139000Y-74659000D02*
X73139000Y-71911000D01*
X73099000Y-79857000D02*
X73099000Y-77141000D01*
X73099000Y-74659000D02*
X73099000Y-71943000D01*
X73059000Y-79825000D02*
X73059000Y-77141000D01*
X73059000Y-74659000D02*
X73059000Y-71975000D01*
X73019000Y-79792000D02*
X73019000Y-77141000D01*
X73019000Y-74659000D02*
X73019000Y-72008000D01*
X72979000Y-79758000D02*
X72979000Y-77141000D01*
X72979000Y-74659000D02*
X72979000Y-72042000D01*
X72939000Y-79724000D02*
X72939000Y-77141000D01*
X72939000Y-74659000D02*
X72939000Y-72076000D01*
X72899000Y-79689000D02*
X72899000Y-77141000D01*
X72899000Y-74659000D02*
X72899000Y-72111000D01*
X72859000Y-79653000D02*
X72859000Y-77141000D01*
X72859000Y-74659000D02*
X72859000Y-72147000D01*
X72819000Y-79616000D02*
X72819000Y-77141000D01*
X72819000Y-74659000D02*
X72819000Y-72184000D01*
X72779000Y-79579000D02*
X72779000Y-77141000D01*
X72779000Y-74659000D02*
X72779000Y-72221000D01*
X72739000Y-79540000D02*
X72739000Y-77141000D01*
X72739000Y-74659000D02*
X72739000Y-72260000D01*
X72699000Y-79501000D02*
X72699000Y-77141000D01*
X72699000Y-74659000D02*
X72699000Y-72299000D01*
X72659000Y-79461000D02*
X72659000Y-77141000D01*
X72659000Y-74659000D02*
X72659000Y-72339000D01*
X72619000Y-79420000D02*
X72619000Y-77141000D01*
X72619000Y-74659000D02*
X72619000Y-72380000D01*
X72579000Y-79378000D02*
X72579000Y-77141000D01*
X72579000Y-74659000D02*
X72579000Y-72422000D01*
X72539000Y-79336000D02*
X72539000Y-72464000D01*
X72499000Y-79292000D02*
X72499000Y-72508000D01*
X72459000Y-79247000D02*
X72459000Y-72553000D01*
X72419000Y-79201000D02*
X72419000Y-72599000D01*
X72379000Y-79154000D02*
X72379000Y-72646000D01*
X72339000Y-79106000D02*
X72339000Y-72694000D01*
X72299000Y-79056000D02*
X72299000Y-72744000D01*
X72259000Y-79006000D02*
X72259000Y-72794000D01*
X72219000Y-78954000D02*
X72219000Y-72846000D01*
X72179000Y-78900000D02*
X72179000Y-72900000D01*
X72139000Y-78845000D02*
X72139000Y-72955000D01*
X72099000Y-78789000D02*
X72099000Y-73011000D01*
X72059000Y-78730000D02*
X72059000Y-73070000D01*
X72019000Y-78670000D02*
X72019000Y-73130000D01*
X71979000Y-78609000D02*
X71979000Y-73191000D01*
X71939000Y-78545000D02*
X71939000Y-73255000D01*
X71899000Y-78479000D02*
X71899000Y-73321000D01*
X71859000Y-78410000D02*
X71859000Y-73390000D01*
X71819000Y-78339000D02*
X71819000Y-73461000D01*
X71779000Y-78265000D02*
X71779000Y-73535000D01*
X71739000Y-78189000D02*
X71739000Y-73611000D01*
X71699000Y-78109000D02*
X71699000Y-73691000D01*
X71659000Y-78025000D02*
X71659000Y-73775000D01*
X71619000Y-77937000D02*
X71619000Y-73863000D01*
X71579000Y-77844000D02*
X71579000Y-73956000D01*
X71539000Y-77746000D02*
X71539000Y-74054000D01*
X71499000Y-77642000D02*
X71499000Y-74158000D01*
X71459000Y-77530000D02*
X71459000Y-74270000D01*
X71419000Y-77410000D02*
X71419000Y-74390000D01*
X71379000Y-77278000D02*
X71379000Y-74522000D01*
X71339000Y-77130000D02*
X71339000Y-74670000D01*
X71299000Y-76962000D02*
X71299000Y-74838000D01*
X71259000Y-76762000D02*
X71259000Y-75038000D01*
X71219000Y-76499000D02*
X71219000Y-75301000D01*
X81779646Y-78775000D02*
X80779646Y-78775000D01*
X81279646Y-79275000D02*
X81279646Y-78275000D01*
G04 #@! TO.C,J9*
X117880000Y-57640000D02*
X115220000Y-57640000D01*
X117880000Y-65320000D02*
X117880000Y-57640000D01*
X115220000Y-65320000D02*
X115220000Y-57640000D01*
X117880000Y-65320000D02*
X115220000Y-65320000D01*
X117880000Y-66590000D02*
X117880000Y-67920000D01*
X117880000Y-67920000D02*
X116550000Y-67920000D01*
G04 #@! TO.C,R1*
X83647936Y-69740000D02*
X84852064Y-69740000D01*
X83647936Y-71560000D02*
X84852064Y-71560000D01*
G04 #@! TO.C,J10*
X83680000Y-90510000D02*
X89680000Y-90510000D01*
X89680000Y-90510000D02*
X89680000Y-85230000D01*
X89680000Y-85230000D02*
X83680000Y-85230000D01*
X83680000Y-85230000D02*
X83680000Y-90510000D01*
X89680000Y-89140000D02*
X88680000Y-89140000D01*
X88680000Y-89140000D02*
X88680000Y-86600000D01*
X88680000Y-86600000D02*
X89680000Y-86600000D01*
X88680000Y-89140000D02*
X88250000Y-88890000D01*
X88250000Y-88890000D02*
X88250000Y-86850000D01*
X88250000Y-86850000D02*
X88680000Y-86600000D01*
X89680000Y-88890000D02*
X88680000Y-88890000D01*
X89680000Y-86850000D02*
X88680000Y-86850000D01*
X83680000Y-89940000D02*
X84300000Y-89940000D01*
X84300000Y-89940000D02*
X84300000Y-88340000D01*
X84300000Y-88340000D02*
X83680000Y-88340000D01*
X83680000Y-87400000D02*
X84300000Y-87400000D01*
X84300000Y-87400000D02*
X84300000Y-85800000D01*
X84300000Y-85800000D02*
X83680000Y-85800000D01*
D15*
G04 #@! TO.C,U8*
X128275000Y-121674950D02*
X128275000Y-121499950D01*
X124925000Y-121674950D02*
X124925000Y-121424950D01*
X124925000Y-118324950D02*
X124925000Y-118574950D01*
X128275000Y-118324950D02*
X128275000Y-118574950D01*
X128275000Y-121674950D02*
X124925000Y-121674950D01*
X128275000Y-118324950D02*
X124925000Y-118324950D01*
X128275000Y-121499950D02*
X129525000Y-121499950D01*
D14*
G04 #@! TO.C,C7*
X138600000Y-76650000D02*
X138600000Y-75950000D01*
X139800000Y-75950000D02*
X139800000Y-76650000D01*
G04 #@! TO.C,C8*
X143719381Y-76385249D02*
G75*
G03X143719381Y-76385249I-2620000J0D01*
G01*
X140059381Y-76385249D02*
X138519381Y-76385249D01*
X143679381Y-76385249D02*
X142139381Y-76385249D01*
X140059381Y-76425249D02*
X138519381Y-76425249D01*
X143679381Y-76425249D02*
X142139381Y-76425249D01*
X143678381Y-76465249D02*
X142139381Y-76465249D01*
X140059381Y-76465249D02*
X138520381Y-76465249D01*
X143677381Y-76505249D02*
X142139381Y-76505249D01*
X140059381Y-76505249D02*
X138521381Y-76505249D01*
X143675381Y-76545249D02*
X142139381Y-76545249D01*
X140059381Y-76545249D02*
X138523381Y-76545249D01*
X143672381Y-76585249D02*
X142139381Y-76585249D01*
X140059381Y-76585249D02*
X138526381Y-76585249D01*
X143668381Y-76625249D02*
X142139381Y-76625249D01*
X140059381Y-76625249D02*
X138530381Y-76625249D01*
X143664381Y-76665249D02*
X142139381Y-76665249D01*
X140059381Y-76665249D02*
X138534381Y-76665249D01*
X143660381Y-76705249D02*
X142139381Y-76705249D01*
X140059381Y-76705249D02*
X138538381Y-76705249D01*
X143655381Y-76745249D02*
X142139381Y-76745249D01*
X140059381Y-76745249D02*
X138543381Y-76745249D01*
X143649381Y-76785249D02*
X142139381Y-76785249D01*
X140059381Y-76785249D02*
X138549381Y-76785249D01*
X143642381Y-76825249D02*
X142139381Y-76825249D01*
X140059381Y-76825249D02*
X138556381Y-76825249D01*
X143635381Y-76865249D02*
X142139381Y-76865249D01*
X140059381Y-76865249D02*
X138563381Y-76865249D01*
X143627381Y-76905249D02*
X142139381Y-76905249D01*
X140059381Y-76905249D02*
X138571381Y-76905249D01*
X143619381Y-76945249D02*
X142139381Y-76945249D01*
X140059381Y-76945249D02*
X138579381Y-76945249D01*
X143610381Y-76985249D02*
X142139381Y-76985249D01*
X140059381Y-76985249D02*
X138588381Y-76985249D01*
X143600381Y-77025249D02*
X142139381Y-77025249D01*
X140059381Y-77025249D02*
X138598381Y-77025249D01*
X143590381Y-77065249D02*
X142139381Y-77065249D01*
X140059381Y-77065249D02*
X138608381Y-77065249D01*
X143579381Y-77106249D02*
X142139381Y-77106249D01*
X140059381Y-77106249D02*
X138619381Y-77106249D01*
X143567381Y-77146249D02*
X142139381Y-77146249D01*
X140059381Y-77146249D02*
X138631381Y-77146249D01*
X143554381Y-77186249D02*
X142139381Y-77186249D01*
X140059381Y-77186249D02*
X138644381Y-77186249D01*
X143541381Y-77226249D02*
X142139381Y-77226249D01*
X140059381Y-77226249D02*
X138657381Y-77226249D01*
X143527381Y-77266249D02*
X142139381Y-77266249D01*
X140059381Y-77266249D02*
X138671381Y-77266249D01*
X143513381Y-77306249D02*
X142139381Y-77306249D01*
X140059381Y-77306249D02*
X138685381Y-77306249D01*
X143497381Y-77346249D02*
X142139381Y-77346249D01*
X140059381Y-77346249D02*
X138701381Y-77346249D01*
X143481381Y-77386249D02*
X142139381Y-77386249D01*
X140059381Y-77386249D02*
X138717381Y-77386249D01*
X143464381Y-77426249D02*
X142139381Y-77426249D01*
X140059381Y-77426249D02*
X138734381Y-77426249D01*
X143447381Y-77466249D02*
X142139381Y-77466249D01*
X140059381Y-77466249D02*
X138751381Y-77466249D01*
X143428381Y-77506249D02*
X142139381Y-77506249D01*
X140059381Y-77506249D02*
X138770381Y-77506249D01*
X143409381Y-77546249D02*
X142139381Y-77546249D01*
X140059381Y-77546249D02*
X138789381Y-77546249D01*
X143389381Y-77586249D02*
X142139381Y-77586249D01*
X140059381Y-77586249D02*
X138809381Y-77586249D01*
X143367381Y-77626249D02*
X142139381Y-77626249D01*
X140059381Y-77626249D02*
X138831381Y-77626249D01*
X143346381Y-77666249D02*
X142139381Y-77666249D01*
X140059381Y-77666249D02*
X138852381Y-77666249D01*
X143323381Y-77706249D02*
X142139381Y-77706249D01*
X140059381Y-77706249D02*
X138875381Y-77706249D01*
X143299381Y-77746249D02*
X142139381Y-77746249D01*
X140059381Y-77746249D02*
X138899381Y-77746249D01*
X143274381Y-77786249D02*
X142139381Y-77786249D01*
X140059381Y-77786249D02*
X138924381Y-77786249D01*
X143248381Y-77826249D02*
X142139381Y-77826249D01*
X140059381Y-77826249D02*
X138950381Y-77826249D01*
X143221381Y-77866249D02*
X142139381Y-77866249D01*
X140059381Y-77866249D02*
X138977381Y-77866249D01*
X143194381Y-77906249D02*
X142139381Y-77906249D01*
X140059381Y-77906249D02*
X139004381Y-77906249D01*
X143164381Y-77946249D02*
X142139381Y-77946249D01*
X140059381Y-77946249D02*
X139034381Y-77946249D01*
X143134381Y-77986249D02*
X142139381Y-77986249D01*
X140059381Y-77986249D02*
X139064381Y-77986249D01*
X143103381Y-78026249D02*
X142139381Y-78026249D01*
X140059381Y-78026249D02*
X139095381Y-78026249D01*
X143070381Y-78066249D02*
X142139381Y-78066249D01*
X140059381Y-78066249D02*
X139128381Y-78066249D01*
X143036381Y-78106249D02*
X142139381Y-78106249D01*
X140059381Y-78106249D02*
X139162381Y-78106249D01*
X143000381Y-78146249D02*
X142139381Y-78146249D01*
X140059381Y-78146249D02*
X139198381Y-78146249D01*
X142963381Y-78186249D02*
X142139381Y-78186249D01*
X140059381Y-78186249D02*
X139235381Y-78186249D01*
X142925381Y-78226249D02*
X142139381Y-78226249D01*
X140059381Y-78226249D02*
X139273381Y-78226249D01*
X142884381Y-78266249D02*
X142139381Y-78266249D01*
X140059381Y-78266249D02*
X139314381Y-78266249D01*
X142842381Y-78306249D02*
X142139381Y-78306249D01*
X140059381Y-78306249D02*
X139356381Y-78306249D01*
X142798381Y-78346249D02*
X142139381Y-78346249D01*
X140059381Y-78346249D02*
X139400381Y-78346249D01*
X142752381Y-78386249D02*
X142139381Y-78386249D01*
X140059381Y-78386249D02*
X139446381Y-78386249D01*
X142704381Y-78426249D02*
X139494381Y-78426249D01*
X142653381Y-78466249D02*
X139545381Y-78466249D01*
X142599381Y-78506249D02*
X139599381Y-78506249D01*
X142542381Y-78546249D02*
X139656381Y-78546249D01*
X142482381Y-78586249D02*
X139716381Y-78586249D01*
X142418381Y-78626249D02*
X139780381Y-78626249D01*
X142350381Y-78666249D02*
X139848381Y-78666249D01*
X142277381Y-78706249D02*
X139921381Y-78706249D01*
X142197381Y-78746249D02*
X140001381Y-78746249D01*
X142110381Y-78786249D02*
X140088381Y-78786249D01*
X142014381Y-78826249D02*
X140184381Y-78826249D01*
X141904381Y-78866249D02*
X140294381Y-78866249D01*
X141776381Y-78906249D02*
X140422381Y-78906249D01*
X141617381Y-78946249D02*
X140581381Y-78946249D01*
X141383381Y-78986249D02*
X140815381Y-78986249D01*
X142574381Y-73580474D02*
X142574381Y-74080474D01*
X142824381Y-73830474D02*
X142324381Y-73830474D01*
G04 #@! TO.C,R6*
X166671267Y-68640000D02*
X166328733Y-68640000D01*
X166671267Y-69660000D02*
X166328733Y-69660000D01*
G04 #@! TO.C,R12*
X166671267Y-68160000D02*
X166328733Y-68160000D01*
X166671267Y-67140000D02*
X166328733Y-67140000D01*
G04 #@! TO.C,R18*
X153428733Y-84190000D02*
X153771267Y-84190000D01*
X153428733Y-85210000D02*
X153771267Y-85210000D01*
G04 #@! TO.C,U11*
X150609381Y-79595249D02*
X150609381Y-78335249D01*
X150609381Y-72775249D02*
X150609381Y-74035249D01*
X146849381Y-79595249D02*
X150609381Y-79595249D01*
X144599381Y-72775249D02*
X150609381Y-72775249D01*
G04 #@! TO.C,J4*
X139300000Y-61700000D02*
X139800000Y-62200000D01*
X139300000Y-62700000D02*
X139300000Y-61700000D01*
X139800000Y-62200000D02*
X139300000Y-62700000D01*
X156680000Y-70515000D02*
X156680000Y-64840000D01*
X140040000Y-70515000D02*
X140040000Y-64840000D01*
X140040000Y-70515000D02*
X156680000Y-70515000D01*
X156680000Y-54635000D02*
X156680000Y-62340000D01*
X140040000Y-54635000D02*
X140040000Y-62340000D01*
X140040000Y-54635000D02*
X156680000Y-54635000D01*
G04 #@! TO.C,J5*
X120190000Y-54635000D02*
X136830000Y-54635000D01*
X120190000Y-54635000D02*
X120190000Y-62340000D01*
X136830000Y-54635000D02*
X136830000Y-62340000D01*
X120190000Y-70515000D02*
X136830000Y-70515000D01*
X120190000Y-70515000D02*
X120190000Y-64840000D01*
X136830000Y-70515000D02*
X136830000Y-64840000D01*
X119950000Y-62200000D02*
X119450000Y-62700000D01*
X119450000Y-62700000D02*
X119450000Y-61700000D01*
X119450000Y-61700000D02*
X119950000Y-62200000D01*
D15*
G04 #@! TO.C,U2*
X163475000Y-93425000D02*
X163475000Y-93400000D01*
X159325000Y-93425000D02*
X159325000Y-93320000D01*
X159325000Y-83275000D02*
X159325000Y-83380000D01*
X163475000Y-83275000D02*
X163475000Y-83380000D01*
X163475000Y-93425000D02*
X159325000Y-93425000D01*
X163475000Y-83275000D02*
X159325000Y-83275000D01*
X163475000Y-93400000D02*
X164850000Y-93400000D01*
D14*
G04 #@! TO.C,R11*
X162321267Y-69660000D02*
X161978733Y-69660000D01*
X162321267Y-68640000D02*
X161978733Y-68640000D01*
G04 #@! TO.C,R17*
X162321267Y-67140000D02*
X161978733Y-67140000D01*
X162321267Y-68160000D02*
X161978733Y-68160000D01*
G04 #@! TO.C,J6*
D15*
X96952380Y-90883333D02*
X97666666Y-90883333D01*
X97809523Y-90930952D01*
X97904761Y-91026190D01*
X97952380Y-91169047D01*
X97952380Y-91264285D01*
X96952380Y-89978571D02*
X96952380Y-90169047D01*
X97000000Y-90264285D01*
X97047619Y-90311904D01*
X97190476Y-90407142D01*
X97380952Y-90454761D01*
X97761904Y-90454761D01*
X97857142Y-90407142D01*
X97904761Y-90359523D01*
X97952380Y-90264285D01*
X97952380Y-90073809D01*
X97904761Y-89978571D01*
X97857142Y-89930952D01*
X97761904Y-89883333D01*
X97523809Y-89883333D01*
X97428571Y-89930952D01*
X97380952Y-89978571D01*
X97333333Y-90073809D01*
X97333333Y-90264285D01*
X97380952Y-90359523D01*
X97428571Y-90407142D01*
X97523809Y-90454761D01*
G04 #@! TO.C,U7*
X91538095Y-90552380D02*
X91538095Y-91361904D01*
X91585714Y-91457142D01*
X91633333Y-91504761D01*
X91728571Y-91552380D01*
X91919047Y-91552380D01*
X92014285Y-91504761D01*
X92061904Y-91457142D01*
X92109523Y-91361904D01*
X92109523Y-90552380D01*
X92490476Y-90552380D02*
X93157142Y-90552380D01*
X92728571Y-91552380D01*
G04 #@! TO.C,U6*
X121638095Y-73552380D02*
X121638095Y-74361904D01*
X121685714Y-74457142D01*
X121733333Y-74504761D01*
X121828571Y-74552380D01*
X122019047Y-74552380D01*
X122114285Y-74504761D01*
X122161904Y-74457142D01*
X122209523Y-74361904D01*
X122209523Y-73552380D01*
X123114285Y-73552380D02*
X122923809Y-73552380D01*
X122828571Y-73600000D01*
X122780952Y-73647619D01*
X122685714Y-73790476D01*
X122638095Y-73980952D01*
X122638095Y-74361904D01*
X122685714Y-74457142D01*
X122733333Y-74504761D01*
X122828571Y-74552380D01*
X123019047Y-74552380D01*
X123114285Y-74504761D01*
X123161904Y-74457142D01*
X123209523Y-74361904D01*
X123209523Y-74123809D01*
X123161904Y-74028571D01*
X123114285Y-73980952D01*
X123019047Y-73933333D01*
X122828571Y-73933333D01*
X122733333Y-73980952D01*
X122685714Y-74028571D01*
X122638095Y-74123809D01*
G04 #@! TO.C,R3*
X111433333Y-66352380D02*
X111100000Y-65876190D01*
X110861904Y-66352380D02*
X110861904Y-65352380D01*
X111242857Y-65352380D01*
X111338095Y-65400000D01*
X111385714Y-65447619D01*
X111433333Y-65542857D01*
X111433333Y-65685714D01*
X111385714Y-65780952D01*
X111338095Y-65828571D01*
X111242857Y-65876190D01*
X110861904Y-65876190D01*
X111766666Y-65352380D02*
X112385714Y-65352380D01*
X112052380Y-65733333D01*
X112195238Y-65733333D01*
X112290476Y-65780952D01*
X112338095Y-65828571D01*
X112385714Y-65923809D01*
X112385714Y-66161904D01*
X112338095Y-66257142D01*
X112290476Y-66304761D01*
X112195238Y-66352380D01*
X111909523Y-66352380D01*
X111814285Y-66304761D01*
X111766666Y-66257142D01*
G04 #@! TO.C,R39*
X135857142Y-85352380D02*
X135523809Y-84876190D01*
X135285714Y-85352380D02*
X135285714Y-84352380D01*
X135666666Y-84352380D01*
X135761904Y-84400000D01*
X135809523Y-84447619D01*
X135857142Y-84542857D01*
X135857142Y-84685714D01*
X135809523Y-84780952D01*
X135761904Y-84828571D01*
X135666666Y-84876190D01*
X135285714Y-84876190D01*
X136190476Y-84352380D02*
X136809523Y-84352380D01*
X136476190Y-84733333D01*
X136619047Y-84733333D01*
X136714285Y-84780952D01*
X136761904Y-84828571D01*
X136809523Y-84923809D01*
X136809523Y-85161904D01*
X136761904Y-85257142D01*
X136714285Y-85304761D01*
X136619047Y-85352380D01*
X136333333Y-85352380D01*
X136238095Y-85304761D01*
X136190476Y-85257142D01*
X137285714Y-85352380D02*
X137476190Y-85352380D01*
X137571428Y-85304761D01*
X137619047Y-85257142D01*
X137714285Y-85114285D01*
X137761904Y-84923809D01*
X137761904Y-84542857D01*
X137714285Y-84447619D01*
X137666666Y-84400000D01*
X137571428Y-84352380D01*
X137380952Y-84352380D01*
X137285714Y-84400000D01*
X137238095Y-84447619D01*
X137190476Y-84542857D01*
X137190476Y-84780952D01*
X137238095Y-84876190D01*
X137285714Y-84923809D01*
X137380952Y-84971428D01*
X137571428Y-84971428D01*
X137666666Y-84923809D01*
X137714285Y-84876190D01*
X137761904Y-84780952D01*
G04 #@! TO.C,U12*
X165052380Y-78398095D02*
X165861904Y-78398095D01*
X165957142Y-78350476D01*
X166004761Y-78302857D01*
X166052380Y-78207619D01*
X166052380Y-78017142D01*
X166004761Y-77921904D01*
X165957142Y-77874285D01*
X165861904Y-77826666D01*
X165052380Y-77826666D01*
X166052380Y-76826666D02*
X166052380Y-77398095D01*
X166052380Y-77112380D02*
X165052380Y-77112380D01*
X165195238Y-77207619D01*
X165290476Y-77302857D01*
X165338095Y-77398095D01*
X165147619Y-76445714D02*
X165100000Y-76398095D01*
X165052380Y-76302857D01*
X165052380Y-76064761D01*
X165100000Y-75969523D01*
X165147619Y-75921904D01*
X165242857Y-75874285D01*
X165338095Y-75874285D01*
X165480952Y-75921904D01*
X166052380Y-76493333D01*
X166052380Y-75874285D01*
G04 #@! TO.C,Q1*
X133704761Y-97347619D02*
X133609523Y-97300000D01*
X133514285Y-97204761D01*
X133371428Y-97061904D01*
X133276190Y-97014285D01*
X133180952Y-97014285D01*
X133228571Y-97252380D02*
X133133333Y-97204761D01*
X133038095Y-97109523D01*
X132990476Y-96919047D01*
X132990476Y-96585714D01*
X133038095Y-96395238D01*
X133133333Y-96300000D01*
X133228571Y-96252380D01*
X133419047Y-96252380D01*
X133514285Y-96300000D01*
X133609523Y-96395238D01*
X133657142Y-96585714D01*
X133657142Y-96919047D01*
X133609523Y-97109523D01*
X133514285Y-97204761D01*
X133419047Y-97252380D01*
X133228571Y-97252380D01*
X134609523Y-97252380D02*
X134038095Y-97252380D01*
X134323809Y-97252380D02*
X134323809Y-96252380D01*
X134228571Y-96395238D01*
X134133333Y-96490476D01*
X134038095Y-96538095D01*
G04 #@! TO.C,Q2*
X134004761Y-144247619D02*
X133909523Y-144200000D01*
X133814285Y-144104761D01*
X133671428Y-143961904D01*
X133576190Y-143914285D01*
X133480952Y-143914285D01*
X133528571Y-144152380D02*
X133433333Y-144104761D01*
X133338095Y-144009523D01*
X133290476Y-143819047D01*
X133290476Y-143485714D01*
X133338095Y-143295238D01*
X133433333Y-143200000D01*
X133528571Y-143152380D01*
X133719047Y-143152380D01*
X133814285Y-143200000D01*
X133909523Y-143295238D01*
X133957142Y-143485714D01*
X133957142Y-143819047D01*
X133909523Y-144009523D01*
X133814285Y-144104761D01*
X133719047Y-144152380D01*
X133528571Y-144152380D01*
X134338095Y-143247619D02*
X134385714Y-143200000D01*
X134480952Y-143152380D01*
X134719047Y-143152380D01*
X134814285Y-143200000D01*
X134861904Y-143247619D01*
X134909523Y-143342857D01*
X134909523Y-143438095D01*
X134861904Y-143580952D01*
X134290476Y-144152380D01*
X134909523Y-144152380D01*
G04 #@! TO.C,Q3*
X125604761Y-110247619D02*
X125509523Y-110200000D01*
X125414285Y-110104761D01*
X125271428Y-109961904D01*
X125176190Y-109914285D01*
X125080952Y-109914285D01*
X125128571Y-110152380D02*
X125033333Y-110104761D01*
X124938095Y-110009523D01*
X124890476Y-109819047D01*
X124890476Y-109485714D01*
X124938095Y-109295238D01*
X125033333Y-109200000D01*
X125128571Y-109152380D01*
X125319047Y-109152380D01*
X125414285Y-109200000D01*
X125509523Y-109295238D01*
X125557142Y-109485714D01*
X125557142Y-109819047D01*
X125509523Y-110009523D01*
X125414285Y-110104761D01*
X125319047Y-110152380D01*
X125128571Y-110152380D01*
X125890476Y-109152380D02*
X126509523Y-109152380D01*
X126176190Y-109533333D01*
X126319047Y-109533333D01*
X126414285Y-109580952D01*
X126461904Y-109628571D01*
X126509523Y-109723809D01*
X126509523Y-109961904D01*
X126461904Y-110057142D01*
X126414285Y-110104761D01*
X126319047Y-110152380D01*
X126033333Y-110152380D01*
X125938095Y-110104761D01*
X125890476Y-110057142D01*
G04 #@! TO.C,Q4*
X126104761Y-130947619D02*
X126009523Y-130900000D01*
X125914285Y-130804761D01*
X125771428Y-130661904D01*
X125676190Y-130614285D01*
X125580952Y-130614285D01*
X125628571Y-130852380D02*
X125533333Y-130804761D01*
X125438095Y-130709523D01*
X125390476Y-130519047D01*
X125390476Y-130185714D01*
X125438095Y-129995238D01*
X125533333Y-129900000D01*
X125628571Y-129852380D01*
X125819047Y-129852380D01*
X125914285Y-129900000D01*
X126009523Y-129995238D01*
X126057142Y-130185714D01*
X126057142Y-130519047D01*
X126009523Y-130709523D01*
X125914285Y-130804761D01*
X125819047Y-130852380D01*
X125628571Y-130852380D01*
X126914285Y-130185714D02*
X126914285Y-130852380D01*
X126676190Y-129804761D02*
X126438095Y-130519047D01*
X127057142Y-130519047D01*
G04 #@! TO.C,C1*
X105957142Y-67266666D02*
X106004761Y-67314285D01*
X106052380Y-67457142D01*
X106052380Y-67552380D01*
X106004761Y-67695238D01*
X105909523Y-67790476D01*
X105814285Y-67838095D01*
X105623809Y-67885714D01*
X105480952Y-67885714D01*
X105290476Y-67838095D01*
X105195238Y-67790476D01*
X105100000Y-67695238D01*
X105052380Y-67552380D01*
X105052380Y-67457142D01*
X105100000Y-67314285D01*
X105147619Y-67266666D01*
X106052380Y-66314285D02*
X106052380Y-66885714D01*
X106052380Y-66600000D02*
X105052380Y-66600000D01*
X105195238Y-66695238D01*
X105290476Y-66790476D01*
X105338095Y-66885714D01*
G04 #@! TO.C,C4*
X81433333Y-68257142D02*
X81385714Y-68304761D01*
X81242857Y-68352380D01*
X81147619Y-68352380D01*
X81004761Y-68304761D01*
X80909523Y-68209523D01*
X80861904Y-68114285D01*
X80814285Y-67923809D01*
X80814285Y-67780952D01*
X80861904Y-67590476D01*
X80909523Y-67495238D01*
X81004761Y-67400000D01*
X81147619Y-67352380D01*
X81242857Y-67352380D01*
X81385714Y-67400000D01*
X81433333Y-67447619D01*
X82290476Y-67685714D02*
X82290476Y-68352380D01*
X82052380Y-67304761D02*
X81814285Y-68019047D01*
X82433333Y-68019047D01*
G04 #@! TO.C,C5*
X111408332Y-72782141D02*
X111360713Y-72829760D01*
X111217856Y-72877379D01*
X111122618Y-72877379D01*
X110979760Y-72829760D01*
X110884522Y-72734522D01*
X110836903Y-72639284D01*
X110789284Y-72448808D01*
X110789284Y-72305951D01*
X110836903Y-72115475D01*
X110884522Y-72020237D01*
X110979760Y-71924999D01*
X111122618Y-71877379D01*
X111217856Y-71877379D01*
X111360713Y-71924999D01*
X111408332Y-71972618D01*
X112313094Y-71877379D02*
X111836903Y-71877379D01*
X111789284Y-72353570D01*
X111836903Y-72305951D01*
X111932141Y-72258332D01*
X112170237Y-72258332D01*
X112265475Y-72305951D01*
X112313094Y-72353570D01*
X112360713Y-72448808D01*
X112360713Y-72686903D01*
X112313094Y-72782141D01*
X112265475Y-72829760D01*
X112170237Y-72877379D01*
X111932141Y-72877379D01*
X111836903Y-72829760D01*
X111789284Y-72782141D01*
G04 #@! TO.C,C12*
X130357142Y-80242857D02*
X130404761Y-80290476D01*
X130452380Y-80433333D01*
X130452380Y-80528571D01*
X130404761Y-80671428D01*
X130309523Y-80766666D01*
X130214285Y-80814285D01*
X130023809Y-80861904D01*
X129880952Y-80861904D01*
X129690476Y-80814285D01*
X129595238Y-80766666D01*
X129500000Y-80671428D01*
X129452380Y-80528571D01*
X129452380Y-80433333D01*
X129500000Y-80290476D01*
X129547619Y-80242857D01*
X130452380Y-79290476D02*
X130452380Y-79861904D01*
X130452380Y-79576190D02*
X129452380Y-79576190D01*
X129595238Y-79671428D01*
X129690476Y-79766666D01*
X129738095Y-79861904D01*
X129547619Y-78909523D02*
X129500000Y-78861904D01*
X129452380Y-78766666D01*
X129452380Y-78528571D01*
X129500000Y-78433333D01*
X129547619Y-78385714D01*
X129642857Y-78338095D01*
X129738095Y-78338095D01*
X129880952Y-78385714D01*
X130452380Y-78957142D01*
X130452380Y-78338095D01*
G04 #@! TO.C,C13*
X155107142Y-92442857D02*
X155154761Y-92490476D01*
X155202380Y-92633333D01*
X155202380Y-92728571D01*
X155154761Y-92871428D01*
X155059523Y-92966666D01*
X154964285Y-93014285D01*
X154773809Y-93061904D01*
X154630952Y-93061904D01*
X154440476Y-93014285D01*
X154345238Y-92966666D01*
X154250000Y-92871428D01*
X154202380Y-92728571D01*
X154202380Y-92633333D01*
X154250000Y-92490476D01*
X154297619Y-92442857D01*
X155202380Y-91490476D02*
X155202380Y-92061904D01*
X155202380Y-91776190D02*
X154202380Y-91776190D01*
X154345238Y-91871428D01*
X154440476Y-91966666D01*
X154488095Y-92061904D01*
X154202380Y-91157142D02*
X154202380Y-90538095D01*
X154583333Y-90871428D01*
X154583333Y-90728571D01*
X154630952Y-90633333D01*
X154678571Y-90585714D01*
X154773809Y-90538095D01*
X155011904Y-90538095D01*
X155107142Y-90585714D01*
X155154761Y-90633333D01*
X155202380Y-90728571D01*
X155202380Y-91014285D01*
X155154761Y-91109523D01*
X155107142Y-91157142D01*
G04 #@! TO.C,C14*
X90557142Y-92557142D02*
X90509523Y-92604761D01*
X90366666Y-92652380D01*
X90271428Y-92652380D01*
X90128571Y-92604761D01*
X90033333Y-92509523D01*
X89985714Y-92414285D01*
X89938095Y-92223809D01*
X89938095Y-92080952D01*
X89985714Y-91890476D01*
X90033333Y-91795238D01*
X90128571Y-91700000D01*
X90271428Y-91652380D01*
X90366666Y-91652380D01*
X90509523Y-91700000D01*
X90557142Y-91747619D01*
X91509523Y-92652380D02*
X90938095Y-92652380D01*
X91223809Y-92652380D02*
X91223809Y-91652380D01*
X91128571Y-91795238D01*
X91033333Y-91890476D01*
X90938095Y-91938095D01*
X92366666Y-91985714D02*
X92366666Y-92652380D01*
X92128571Y-91604761D02*
X91890476Y-92319047D01*
X92509523Y-92319047D01*
G04 #@! TO.C,C16*
X82207142Y-83607142D02*
X82159523Y-83654761D01*
X82016666Y-83702380D01*
X81921428Y-83702380D01*
X81778571Y-83654761D01*
X81683333Y-83559523D01*
X81635714Y-83464285D01*
X81588095Y-83273809D01*
X81588095Y-83130952D01*
X81635714Y-82940476D01*
X81683333Y-82845238D01*
X81778571Y-82750000D01*
X81921428Y-82702380D01*
X82016666Y-82702380D01*
X82159523Y-82750000D01*
X82207142Y-82797619D01*
X83159523Y-83702380D02*
X82588095Y-83702380D01*
X82873809Y-83702380D02*
X82873809Y-82702380D01*
X82778571Y-82845238D01*
X82683333Y-82940476D01*
X82588095Y-82988095D01*
X84016666Y-82702380D02*
X83826190Y-82702380D01*
X83730952Y-82750000D01*
X83683333Y-82797619D01*
X83588095Y-82940476D01*
X83540476Y-83130952D01*
X83540476Y-83511904D01*
X83588095Y-83607142D01*
X83635714Y-83654761D01*
X83730952Y-83702380D01*
X83921428Y-83702380D01*
X84016666Y-83654761D01*
X84064285Y-83607142D01*
X84111904Y-83511904D01*
X84111904Y-83273809D01*
X84064285Y-83178571D01*
X84016666Y-83130952D01*
X83921428Y-83083333D01*
X83730952Y-83083333D01*
X83635714Y-83130952D01*
X83588095Y-83178571D01*
X83540476Y-83273809D01*
G04 #@! TO.C,C17*
X92257142Y-78542857D02*
X92304761Y-78590476D01*
X92352380Y-78733333D01*
X92352380Y-78828571D01*
X92304761Y-78971428D01*
X92209523Y-79066666D01*
X92114285Y-79114285D01*
X91923809Y-79161904D01*
X91780952Y-79161904D01*
X91590476Y-79114285D01*
X91495238Y-79066666D01*
X91400000Y-78971428D01*
X91352380Y-78828571D01*
X91352380Y-78733333D01*
X91400000Y-78590476D01*
X91447619Y-78542857D01*
X92352380Y-77590476D02*
X92352380Y-78161904D01*
X92352380Y-77876190D02*
X91352380Y-77876190D01*
X91495238Y-77971428D01*
X91590476Y-78066666D01*
X91638095Y-78161904D01*
X91352380Y-77257142D02*
X91352380Y-76590476D01*
X92352380Y-77019047D01*
G04 #@! TO.C,C18*
X93657142Y-75157142D02*
X93609523Y-75204761D01*
X93466666Y-75252380D01*
X93371428Y-75252380D01*
X93228571Y-75204761D01*
X93133333Y-75109523D01*
X93085714Y-75014285D01*
X93038095Y-74823809D01*
X93038095Y-74680952D01*
X93085714Y-74490476D01*
X93133333Y-74395238D01*
X93228571Y-74300000D01*
X93371428Y-74252380D01*
X93466666Y-74252380D01*
X93609523Y-74300000D01*
X93657142Y-74347619D01*
X94609523Y-75252380D02*
X94038095Y-75252380D01*
X94323809Y-75252380D02*
X94323809Y-74252380D01*
X94228571Y-74395238D01*
X94133333Y-74490476D01*
X94038095Y-74538095D01*
X95180952Y-74680952D02*
X95085714Y-74633333D01*
X95038095Y-74585714D01*
X94990476Y-74490476D01*
X94990476Y-74442857D01*
X95038095Y-74347619D01*
X95085714Y-74300000D01*
X95180952Y-74252380D01*
X95371428Y-74252380D01*
X95466666Y-74300000D01*
X95514285Y-74347619D01*
X95561904Y-74442857D01*
X95561904Y-74490476D01*
X95514285Y-74585714D01*
X95466666Y-74633333D01*
X95371428Y-74680952D01*
X95180952Y-74680952D01*
X95085714Y-74728571D01*
X95038095Y-74776190D01*
X94990476Y-74871428D01*
X94990476Y-75061904D01*
X95038095Y-75157142D01*
X95085714Y-75204761D01*
X95180952Y-75252380D01*
X95371428Y-75252380D01*
X95466666Y-75204761D01*
X95514285Y-75157142D01*
X95561904Y-75061904D01*
X95561904Y-74871428D01*
X95514285Y-74776190D01*
X95466666Y-74728571D01*
X95371428Y-74680952D01*
G04 #@! TO.C,C20*
X112857142Y-82307142D02*
X112809523Y-82354761D01*
X112666666Y-82402380D01*
X112571428Y-82402380D01*
X112428571Y-82354761D01*
X112333333Y-82259523D01*
X112285714Y-82164285D01*
X112238095Y-81973809D01*
X112238095Y-81830952D01*
X112285714Y-81640476D01*
X112333333Y-81545238D01*
X112428571Y-81450000D01*
X112571428Y-81402380D01*
X112666666Y-81402380D01*
X112809523Y-81450000D01*
X112857142Y-81497619D01*
X113238095Y-81497619D02*
X113285714Y-81450000D01*
X113380952Y-81402380D01*
X113619047Y-81402380D01*
X113714285Y-81450000D01*
X113761904Y-81497619D01*
X113809523Y-81592857D01*
X113809523Y-81688095D01*
X113761904Y-81830952D01*
X113190476Y-82402380D01*
X113809523Y-82402380D01*
X114428571Y-81402380D02*
X114523809Y-81402380D01*
X114619047Y-81450000D01*
X114666666Y-81497619D01*
X114714285Y-81592857D01*
X114761904Y-81783333D01*
X114761904Y-82021428D01*
X114714285Y-82211904D01*
X114666666Y-82307142D01*
X114619047Y-82354761D01*
X114523809Y-82402380D01*
X114428571Y-82402380D01*
X114333333Y-82354761D01*
X114285714Y-82307142D01*
X114238095Y-82211904D01*
X114190476Y-82021428D01*
X114190476Y-81783333D01*
X114238095Y-81592857D01*
X114285714Y-81497619D01*
X114333333Y-81450000D01*
X114428571Y-81402380D01*
G04 #@! TO.C,C21*
X112857142Y-92592857D02*
X112904761Y-92640476D01*
X112952380Y-92783333D01*
X112952380Y-92878571D01*
X112904761Y-93021428D01*
X112809523Y-93116666D01*
X112714285Y-93164285D01*
X112523809Y-93211904D01*
X112380952Y-93211904D01*
X112190476Y-93164285D01*
X112095238Y-93116666D01*
X112000000Y-93021428D01*
X111952380Y-92878571D01*
X111952380Y-92783333D01*
X112000000Y-92640476D01*
X112047619Y-92592857D01*
X112047619Y-92211904D02*
X112000000Y-92164285D01*
X111952380Y-92069047D01*
X111952380Y-91830952D01*
X112000000Y-91735714D01*
X112047619Y-91688095D01*
X112142857Y-91640476D01*
X112238095Y-91640476D01*
X112380952Y-91688095D01*
X112952380Y-92259523D01*
X112952380Y-91640476D01*
X112952380Y-90688095D02*
X112952380Y-91259523D01*
X112952380Y-90973809D02*
X111952380Y-90973809D01*
X112095238Y-91069047D01*
X112190476Y-91164285D01*
X112238095Y-91259523D01*
G04 #@! TO.C,C22*
X108857142Y-74457142D02*
X108809523Y-74504761D01*
X108666666Y-74552380D01*
X108571428Y-74552380D01*
X108428571Y-74504761D01*
X108333333Y-74409523D01*
X108285714Y-74314285D01*
X108238095Y-74123809D01*
X108238095Y-73980952D01*
X108285714Y-73790476D01*
X108333333Y-73695238D01*
X108428571Y-73600000D01*
X108571428Y-73552380D01*
X108666666Y-73552380D01*
X108809523Y-73600000D01*
X108857142Y-73647619D01*
X109238095Y-73647619D02*
X109285714Y-73600000D01*
X109380952Y-73552380D01*
X109619047Y-73552380D01*
X109714285Y-73600000D01*
X109761904Y-73647619D01*
X109809523Y-73742857D01*
X109809523Y-73838095D01*
X109761904Y-73980952D01*
X109190476Y-74552380D01*
X109809523Y-74552380D01*
X110190476Y-73647619D02*
X110238095Y-73600000D01*
X110333333Y-73552380D01*
X110571428Y-73552380D01*
X110666666Y-73600000D01*
X110714285Y-73647619D01*
X110761904Y-73742857D01*
X110761904Y-73838095D01*
X110714285Y-73980952D01*
X110142857Y-74552380D01*
X110761904Y-74552380D01*
G04 #@! TO.C,C23*
X120457142Y-86257142D02*
X120409523Y-86304761D01*
X120266666Y-86352380D01*
X120171428Y-86352380D01*
X120028571Y-86304761D01*
X119933333Y-86209523D01*
X119885714Y-86114285D01*
X119838095Y-85923809D01*
X119838095Y-85780952D01*
X119885714Y-85590476D01*
X119933333Y-85495238D01*
X120028571Y-85400000D01*
X120171428Y-85352380D01*
X120266666Y-85352380D01*
X120409523Y-85400000D01*
X120457142Y-85447619D01*
X120838095Y-85447619D02*
X120885714Y-85400000D01*
X120980952Y-85352380D01*
X121219047Y-85352380D01*
X121314285Y-85400000D01*
X121361904Y-85447619D01*
X121409523Y-85542857D01*
X121409523Y-85638095D01*
X121361904Y-85780952D01*
X120790476Y-86352380D01*
X121409523Y-86352380D01*
X121742857Y-85352380D02*
X122361904Y-85352380D01*
X122028571Y-85733333D01*
X122171428Y-85733333D01*
X122266666Y-85780952D01*
X122314285Y-85828571D01*
X122361904Y-85923809D01*
X122361904Y-86161904D01*
X122314285Y-86257142D01*
X122266666Y-86304761D01*
X122171428Y-86352380D01*
X121885714Y-86352380D01*
X121790476Y-86304761D01*
X121742857Y-86257142D01*
G04 #@! TO.C,C24*
X142157142Y-94557142D02*
X142109523Y-94604761D01*
X141966666Y-94652380D01*
X141871428Y-94652380D01*
X141728571Y-94604761D01*
X141633333Y-94509523D01*
X141585714Y-94414285D01*
X141538095Y-94223809D01*
X141538095Y-94080952D01*
X141585714Y-93890476D01*
X141633333Y-93795238D01*
X141728571Y-93700000D01*
X141871428Y-93652380D01*
X141966666Y-93652380D01*
X142109523Y-93700000D01*
X142157142Y-93747619D01*
X142538095Y-93747619D02*
X142585714Y-93700000D01*
X142680952Y-93652380D01*
X142919047Y-93652380D01*
X143014285Y-93700000D01*
X143061904Y-93747619D01*
X143109523Y-93842857D01*
X143109523Y-93938095D01*
X143061904Y-94080952D01*
X142490476Y-94652380D01*
X143109523Y-94652380D01*
X143966666Y-93985714D02*
X143966666Y-94652380D01*
X143728571Y-93604761D02*
X143490476Y-94319047D01*
X144109523Y-94319047D01*
G04 #@! TO.C,C25*
X133407142Y-89082142D02*
X133359523Y-89129761D01*
X133216666Y-89177380D01*
X133121428Y-89177380D01*
X132978571Y-89129761D01*
X132883333Y-89034523D01*
X132835714Y-88939285D01*
X132788095Y-88748809D01*
X132788095Y-88605952D01*
X132835714Y-88415476D01*
X132883333Y-88320238D01*
X132978571Y-88225000D01*
X133121428Y-88177380D01*
X133216666Y-88177380D01*
X133359523Y-88225000D01*
X133407142Y-88272619D01*
X133788095Y-88272619D02*
X133835714Y-88225000D01*
X133930952Y-88177380D01*
X134169047Y-88177380D01*
X134264285Y-88225000D01*
X134311904Y-88272619D01*
X134359523Y-88367857D01*
X134359523Y-88463095D01*
X134311904Y-88605952D01*
X133740476Y-89177380D01*
X134359523Y-89177380D01*
X135264285Y-88177380D02*
X134788095Y-88177380D01*
X134740476Y-88653571D01*
X134788095Y-88605952D01*
X134883333Y-88558333D01*
X135121428Y-88558333D01*
X135216666Y-88605952D01*
X135264285Y-88653571D01*
X135311904Y-88748809D01*
X135311904Y-88986904D01*
X135264285Y-89082142D01*
X135216666Y-89129761D01*
X135121428Y-89177380D01*
X134883333Y-89177380D01*
X134788095Y-89129761D01*
X134740476Y-89082142D01*
G04 #@! TO.C,C26*
X148357142Y-88357142D02*
X148309523Y-88404761D01*
X148166666Y-88452380D01*
X148071428Y-88452380D01*
X147928571Y-88404761D01*
X147833333Y-88309523D01*
X147785714Y-88214285D01*
X147738095Y-88023809D01*
X147738095Y-87880952D01*
X147785714Y-87690476D01*
X147833333Y-87595238D01*
X147928571Y-87500000D01*
X148071428Y-87452380D01*
X148166666Y-87452380D01*
X148309523Y-87500000D01*
X148357142Y-87547619D01*
X148738095Y-87547619D02*
X148785714Y-87500000D01*
X148880952Y-87452380D01*
X149119047Y-87452380D01*
X149214285Y-87500000D01*
X149261904Y-87547619D01*
X149309523Y-87642857D01*
X149309523Y-87738095D01*
X149261904Y-87880952D01*
X148690476Y-88452380D01*
X149309523Y-88452380D01*
X150166666Y-87452380D02*
X149976190Y-87452380D01*
X149880952Y-87500000D01*
X149833333Y-87547619D01*
X149738095Y-87690476D01*
X149690476Y-87880952D01*
X149690476Y-88261904D01*
X149738095Y-88357142D01*
X149785714Y-88404761D01*
X149880952Y-88452380D01*
X150071428Y-88452380D01*
X150166666Y-88404761D01*
X150214285Y-88357142D01*
X150261904Y-88261904D01*
X150261904Y-88023809D01*
X150214285Y-87928571D01*
X150166666Y-87880952D01*
X150071428Y-87833333D01*
X149880952Y-87833333D01*
X149785714Y-87880952D01*
X149738095Y-87928571D01*
X149690476Y-88023809D01*
G04 #@! TO.C,C27*
X133657142Y-93657142D02*
X133609523Y-93704761D01*
X133466666Y-93752380D01*
X133371428Y-93752380D01*
X133228571Y-93704761D01*
X133133333Y-93609523D01*
X133085714Y-93514285D01*
X133038095Y-93323809D01*
X133038095Y-93180952D01*
X133085714Y-92990476D01*
X133133333Y-92895238D01*
X133228571Y-92800000D01*
X133371428Y-92752380D01*
X133466666Y-92752380D01*
X133609523Y-92800000D01*
X133657142Y-92847619D01*
X134038095Y-92847619D02*
X134085714Y-92800000D01*
X134180952Y-92752380D01*
X134419047Y-92752380D01*
X134514285Y-92800000D01*
X134561904Y-92847619D01*
X134609523Y-92942857D01*
X134609523Y-93038095D01*
X134561904Y-93180952D01*
X133990476Y-93752380D01*
X134609523Y-93752380D01*
X134942857Y-92752380D02*
X135609523Y-92752380D01*
X135180952Y-93752380D01*
G04 #@! TO.C,C28*
X148357142Y-93757142D02*
X148309523Y-93804761D01*
X148166666Y-93852380D01*
X148071428Y-93852380D01*
X147928571Y-93804761D01*
X147833333Y-93709523D01*
X147785714Y-93614285D01*
X147738095Y-93423809D01*
X147738095Y-93280952D01*
X147785714Y-93090476D01*
X147833333Y-92995238D01*
X147928571Y-92900000D01*
X148071428Y-92852380D01*
X148166666Y-92852380D01*
X148309523Y-92900000D01*
X148357142Y-92947619D01*
X148738095Y-92947619D02*
X148785714Y-92900000D01*
X148880952Y-92852380D01*
X149119047Y-92852380D01*
X149214285Y-92900000D01*
X149261904Y-92947619D01*
X149309523Y-93042857D01*
X149309523Y-93138095D01*
X149261904Y-93280952D01*
X148690476Y-93852380D01*
X149309523Y-93852380D01*
X149880952Y-93280952D02*
X149785714Y-93233333D01*
X149738095Y-93185714D01*
X149690476Y-93090476D01*
X149690476Y-93042857D01*
X149738095Y-92947619D01*
X149785714Y-92900000D01*
X149880952Y-92852380D01*
X150071428Y-92852380D01*
X150166666Y-92900000D01*
X150214285Y-92947619D01*
X150261904Y-93042857D01*
X150261904Y-93090476D01*
X150214285Y-93185714D01*
X150166666Y-93233333D01*
X150071428Y-93280952D01*
X149880952Y-93280952D01*
X149785714Y-93328571D01*
X149738095Y-93376190D01*
X149690476Y-93471428D01*
X149690476Y-93661904D01*
X149738095Y-93757142D01*
X149785714Y-93804761D01*
X149880952Y-93852380D01*
X150071428Y-93852380D01*
X150166666Y-93804761D01*
X150214285Y-93757142D01*
X150261904Y-93661904D01*
X150261904Y-93471428D01*
X150214285Y-93376190D01*
X150166666Y-93328571D01*
X150071428Y-93280952D01*
G04 #@! TO.C,C29*
X93057142Y-81557142D02*
X93009523Y-81604761D01*
X92866666Y-81652380D01*
X92771428Y-81652380D01*
X92628571Y-81604761D01*
X92533333Y-81509523D01*
X92485714Y-81414285D01*
X92438095Y-81223809D01*
X92438095Y-81080952D01*
X92485714Y-80890476D01*
X92533333Y-80795238D01*
X92628571Y-80700000D01*
X92771428Y-80652380D01*
X92866666Y-80652380D01*
X93009523Y-80700000D01*
X93057142Y-80747619D01*
X93438095Y-80747619D02*
X93485714Y-80700000D01*
X93580952Y-80652380D01*
X93819047Y-80652380D01*
X93914285Y-80700000D01*
X93961904Y-80747619D01*
X94009523Y-80842857D01*
X94009523Y-80938095D01*
X93961904Y-81080952D01*
X93390476Y-81652380D01*
X94009523Y-81652380D01*
X94485714Y-81652380D02*
X94676190Y-81652380D01*
X94771428Y-81604761D01*
X94819047Y-81557142D01*
X94914285Y-81414285D01*
X94961904Y-81223809D01*
X94961904Y-80842857D01*
X94914285Y-80747619D01*
X94866666Y-80700000D01*
X94771428Y-80652380D01*
X94580952Y-80652380D01*
X94485714Y-80700000D01*
X94438095Y-80747619D01*
X94390476Y-80842857D01*
X94390476Y-81080952D01*
X94438095Y-81176190D01*
X94485714Y-81223809D01*
X94580952Y-81271428D01*
X94771428Y-81271428D01*
X94866666Y-81223809D01*
X94914285Y-81176190D01*
X94961904Y-81080952D01*
G04 #@! TO.C,D1*
X98961904Y-67702380D02*
X98961904Y-66702380D01*
X99200000Y-66702380D01*
X99342857Y-66750000D01*
X99438095Y-66845238D01*
X99485714Y-66940476D01*
X99533333Y-67130952D01*
X99533333Y-67273809D01*
X99485714Y-67464285D01*
X99438095Y-67559523D01*
X99342857Y-67654761D01*
X99200000Y-67702380D01*
X98961904Y-67702380D01*
X100485714Y-67702380D02*
X99914285Y-67702380D01*
X100200000Y-67702380D02*
X100200000Y-66702380D01*
X100104761Y-66845238D01*
X100009523Y-66940476D01*
X99914285Y-66988095D01*
G04 #@! TO.C,D4*
X152511904Y-150302380D02*
X152511904Y-149302380D01*
X152750000Y-149302380D01*
X152892857Y-149350000D01*
X152988095Y-149445238D01*
X153035714Y-149540476D01*
X153083333Y-149730952D01*
X153083333Y-149873809D01*
X153035714Y-150064285D01*
X152988095Y-150159523D01*
X152892857Y-150254761D01*
X152750000Y-150302380D01*
X152511904Y-150302380D01*
X153940476Y-149635714D02*
X153940476Y-150302380D01*
X153702380Y-149254761D02*
X153464285Y-149969047D01*
X154083333Y-149969047D01*
G04 #@! TO.C,D5*
X84561904Y-150252380D02*
X84561904Y-149252380D01*
X84800000Y-149252380D01*
X84942857Y-149300000D01*
X85038095Y-149395238D01*
X85085714Y-149490476D01*
X85133333Y-149680952D01*
X85133333Y-149823809D01*
X85085714Y-150014285D01*
X85038095Y-150109523D01*
X84942857Y-150204761D01*
X84800000Y-150252380D01*
X84561904Y-150252380D01*
X86038095Y-149252380D02*
X85561904Y-149252380D01*
X85514285Y-149728571D01*
X85561904Y-149680952D01*
X85657142Y-149633333D01*
X85895238Y-149633333D01*
X85990476Y-149680952D01*
X86038095Y-149728571D01*
X86085714Y-149823809D01*
X86085714Y-150061904D01*
X86038095Y-150157142D01*
X85990476Y-150204761D01*
X85895238Y-150252380D01*
X85657142Y-150252380D01*
X85561904Y-150204761D01*
X85514285Y-150157142D01*
G04 #@! TO.C,D6*
X85761904Y-145052380D02*
X85761904Y-144052380D01*
X86000000Y-144052380D01*
X86142857Y-144100000D01*
X86238095Y-144195238D01*
X86285714Y-144290476D01*
X86333333Y-144480952D01*
X86333333Y-144623809D01*
X86285714Y-144814285D01*
X86238095Y-144909523D01*
X86142857Y-145004761D01*
X86000000Y-145052380D01*
X85761904Y-145052380D01*
X87190476Y-144052380D02*
X87000000Y-144052380D01*
X86904761Y-144100000D01*
X86857142Y-144147619D01*
X86761904Y-144290476D01*
X86714285Y-144480952D01*
X86714285Y-144861904D01*
X86761904Y-144957142D01*
X86809523Y-145004761D01*
X86904761Y-145052380D01*
X87095238Y-145052380D01*
X87190476Y-145004761D01*
X87238095Y-144957142D01*
X87285714Y-144861904D01*
X87285714Y-144623809D01*
X87238095Y-144528571D01*
X87190476Y-144480952D01*
X87095238Y-144433333D01*
X86904761Y-144433333D01*
X86809523Y-144480952D01*
X86761904Y-144528571D01*
X86714285Y-144623809D01*
G04 #@! TO.C,D7*
X155861904Y-145002380D02*
X155861904Y-144002380D01*
X156100000Y-144002380D01*
X156242857Y-144050000D01*
X156338095Y-144145238D01*
X156385714Y-144240476D01*
X156433333Y-144430952D01*
X156433333Y-144573809D01*
X156385714Y-144764285D01*
X156338095Y-144859523D01*
X156242857Y-144954761D01*
X156100000Y-145002380D01*
X155861904Y-145002380D01*
X156766666Y-144002380D02*
X157433333Y-144002380D01*
X157004761Y-145002380D01*
G04 #@! TO.C,J1*
X160866666Y-118052380D02*
X160866666Y-118766666D01*
X160819047Y-118909523D01*
X160723809Y-119004761D01*
X160580952Y-119052380D01*
X160485714Y-119052380D01*
X161866666Y-119052380D02*
X161295238Y-119052380D01*
X161580952Y-119052380D02*
X161580952Y-118052380D01*
X161485714Y-118195238D01*
X161390476Y-118290476D01*
X161295238Y-118338095D01*
G04 #@! TO.C,J2*
X160866666Y-138252380D02*
X160866666Y-138966666D01*
X160819047Y-139109523D01*
X160723809Y-139204761D01*
X160580952Y-139252380D01*
X160485714Y-139252380D01*
X161295238Y-138347619D02*
X161342857Y-138300000D01*
X161438095Y-138252380D01*
X161676190Y-138252380D01*
X161771428Y-138300000D01*
X161819047Y-138347619D01*
X161866666Y-138442857D01*
X161866666Y-138538095D01*
X161819047Y-138680952D01*
X161247619Y-139252380D01*
X161866666Y-139252380D01*
G04 #@! TO.C,J7*
X78766666Y-138252380D02*
X78766666Y-138966666D01*
X78719047Y-139109523D01*
X78623809Y-139204761D01*
X78480952Y-139252380D01*
X78385714Y-139252380D01*
X79147619Y-138252380D02*
X79814285Y-138252380D01*
X79385714Y-139252380D01*
G04 #@! TO.C,J8*
X78466666Y-118252380D02*
X78466666Y-118966666D01*
X78419047Y-119109523D01*
X78323809Y-119204761D01*
X78180952Y-119252380D01*
X78085714Y-119252380D01*
X79085714Y-118680952D02*
X78990476Y-118633333D01*
X78942857Y-118585714D01*
X78895238Y-118490476D01*
X78895238Y-118442857D01*
X78942857Y-118347619D01*
X78990476Y-118300000D01*
X79085714Y-118252380D01*
X79276190Y-118252380D01*
X79371428Y-118300000D01*
X79419047Y-118347619D01*
X79466666Y-118442857D01*
X79466666Y-118490476D01*
X79419047Y-118585714D01*
X79371428Y-118633333D01*
X79276190Y-118680952D01*
X79085714Y-118680952D01*
X78990476Y-118728571D01*
X78942857Y-118776190D01*
X78895238Y-118871428D01*
X78895238Y-119061904D01*
X78942857Y-119157142D01*
X78990476Y-119204761D01*
X79085714Y-119252380D01*
X79276190Y-119252380D01*
X79371428Y-119204761D01*
X79419047Y-119157142D01*
X79466666Y-119061904D01*
X79466666Y-118871428D01*
X79419047Y-118776190D01*
X79371428Y-118728571D01*
X79276190Y-118680952D01*
G04 #@! TO.C,L1*
X90833333Y-75052380D02*
X90357142Y-75052380D01*
X90357142Y-74052380D01*
X91690476Y-75052380D02*
X91119047Y-75052380D01*
X91404761Y-75052380D02*
X91404761Y-74052380D01*
X91309523Y-74195238D01*
X91214285Y-74290476D01*
X91119047Y-74338095D01*
G04 #@! TO.C,R2*
X105952380Y-69266666D02*
X105476190Y-69600000D01*
X105952380Y-69838095D02*
X104952380Y-69838095D01*
X104952380Y-69457142D01*
X105000000Y-69361904D01*
X105047619Y-69314285D01*
X105142857Y-69266666D01*
X105285714Y-69266666D01*
X105380952Y-69314285D01*
X105428571Y-69361904D01*
X105476190Y-69457142D01*
X105476190Y-69838095D01*
X105047619Y-68885714D02*
X105000000Y-68838095D01*
X104952380Y-68742857D01*
X104952380Y-68504761D01*
X105000000Y-68409523D01*
X105047619Y-68361904D01*
X105142857Y-68314285D01*
X105238095Y-68314285D01*
X105380952Y-68361904D01*
X105952380Y-68933333D01*
X105952380Y-68314285D01*
G04 #@! TO.C,R4*
X106252380Y-72166666D02*
X105776190Y-72500000D01*
X106252380Y-72738095D02*
X105252380Y-72738095D01*
X105252380Y-72357142D01*
X105300000Y-72261904D01*
X105347619Y-72214285D01*
X105442857Y-72166666D01*
X105585714Y-72166666D01*
X105680952Y-72214285D01*
X105728571Y-72261904D01*
X105776190Y-72357142D01*
X105776190Y-72738095D01*
X105585714Y-71309523D02*
X106252380Y-71309523D01*
X105204761Y-71547619D02*
X105919047Y-71785714D01*
X105919047Y-71166666D01*
G04 #@! TO.C,R5*
X113933333Y-70552380D02*
X113600000Y-70076190D01*
X113361904Y-70552380D02*
X113361904Y-69552380D01*
X113742857Y-69552380D01*
X113838095Y-69600000D01*
X113885714Y-69647619D01*
X113933333Y-69742857D01*
X113933333Y-69885714D01*
X113885714Y-69980952D01*
X113838095Y-70028571D01*
X113742857Y-70076190D01*
X113361904Y-70076190D01*
X114838095Y-69552380D02*
X114361904Y-69552380D01*
X114314285Y-70028571D01*
X114361904Y-69980952D01*
X114457142Y-69933333D01*
X114695238Y-69933333D01*
X114790476Y-69980952D01*
X114838095Y-70028571D01*
X114885714Y-70123809D01*
X114885714Y-70361904D01*
X114838095Y-70457142D01*
X114790476Y-70504761D01*
X114695238Y-70552380D01*
X114457142Y-70552380D01*
X114361904Y-70504761D01*
X114314285Y-70457142D01*
G04 #@! TO.C,R7*
X71933333Y-84252380D02*
X71600000Y-83776190D01*
X71361904Y-84252380D02*
X71361904Y-83252380D01*
X71742857Y-83252380D01*
X71838095Y-83300000D01*
X71885714Y-83347619D01*
X71933333Y-83442857D01*
X71933333Y-83585714D01*
X71885714Y-83680952D01*
X71838095Y-83728571D01*
X71742857Y-83776190D01*
X71361904Y-83776190D01*
X72266666Y-83252380D02*
X72933333Y-83252380D01*
X72504761Y-84252380D01*
G04 #@! TO.C,R8*
X119583333Y-93452380D02*
X119250000Y-92976190D01*
X119011904Y-93452380D02*
X119011904Y-92452380D01*
X119392857Y-92452380D01*
X119488095Y-92500000D01*
X119535714Y-92547619D01*
X119583333Y-92642857D01*
X119583333Y-92785714D01*
X119535714Y-92880952D01*
X119488095Y-92928571D01*
X119392857Y-92976190D01*
X119011904Y-92976190D01*
X120154761Y-92880952D02*
X120059523Y-92833333D01*
X120011904Y-92785714D01*
X119964285Y-92690476D01*
X119964285Y-92642857D01*
X120011904Y-92547619D01*
X120059523Y-92500000D01*
X120154761Y-92452380D01*
X120345238Y-92452380D01*
X120440476Y-92500000D01*
X120488095Y-92547619D01*
X120535714Y-92642857D01*
X120535714Y-92690476D01*
X120488095Y-92785714D01*
X120440476Y-92833333D01*
X120345238Y-92880952D01*
X120154761Y-92880952D01*
X120059523Y-92928571D01*
X120011904Y-92976190D01*
X119964285Y-93071428D01*
X119964285Y-93261904D01*
X120011904Y-93357142D01*
X120059523Y-93404761D01*
X120154761Y-93452380D01*
X120345238Y-93452380D01*
X120440476Y-93404761D01*
X120488095Y-93357142D01*
X120535714Y-93261904D01*
X120535714Y-93071428D01*
X120488095Y-92976190D01*
X120440476Y-92928571D01*
X120345238Y-92880952D01*
G04 #@! TO.C,R9*
X111047619Y-91333333D02*
X111523809Y-91000000D01*
X111047619Y-90761904D02*
X112047619Y-90761904D01*
X112047619Y-91142857D01*
X112000000Y-91238095D01*
X111952380Y-91285714D01*
X111857142Y-91333333D01*
X111714285Y-91333333D01*
X111619047Y-91285714D01*
X111571428Y-91238095D01*
X111523809Y-91142857D01*
X111523809Y-90761904D01*
X111047619Y-91809523D02*
X111047619Y-92000000D01*
X111095238Y-92095238D01*
X111142857Y-92142857D01*
X111285714Y-92238095D01*
X111476190Y-92285714D01*
X111857142Y-92285714D01*
X111952380Y-92238095D01*
X112000000Y-92190476D01*
X112047619Y-92095238D01*
X112047619Y-91904761D01*
X112000000Y-91809523D01*
X111952380Y-91761904D01*
X111857142Y-91714285D01*
X111619047Y-91714285D01*
X111523809Y-91761904D01*
X111476190Y-91809523D01*
X111428571Y-91904761D01*
X111428571Y-92095238D01*
X111476190Y-92190476D01*
X111523809Y-92238095D01*
X111619047Y-92285714D01*
G04 #@! TO.C,R10*
X111852380Y-81542857D02*
X111376190Y-81876190D01*
X111852380Y-82114285D02*
X110852380Y-82114285D01*
X110852380Y-81733333D01*
X110900000Y-81638095D01*
X110947619Y-81590476D01*
X111042857Y-81542857D01*
X111185714Y-81542857D01*
X111280952Y-81590476D01*
X111328571Y-81638095D01*
X111376190Y-81733333D01*
X111376190Y-82114285D01*
X111852380Y-80590476D02*
X111852380Y-81161904D01*
X111852380Y-80876190D02*
X110852380Y-80876190D01*
X110995238Y-80971428D01*
X111090476Y-81066666D01*
X111138095Y-81161904D01*
X110852380Y-79971428D02*
X110852380Y-79876190D01*
X110900000Y-79780952D01*
X110947619Y-79733333D01*
X111042857Y-79685714D01*
X111233333Y-79638095D01*
X111471428Y-79638095D01*
X111661904Y-79685714D01*
X111757142Y-79733333D01*
X111804761Y-79780952D01*
X111852380Y-79876190D01*
X111852380Y-79971428D01*
X111804761Y-80066666D01*
X111757142Y-80114285D01*
X111661904Y-80161904D01*
X111471428Y-80209523D01*
X111233333Y-80209523D01*
X111042857Y-80161904D01*
X110947619Y-80114285D01*
X110900000Y-80066666D01*
X110852380Y-79971428D01*
G04 #@! TO.C,R13*
X157372380Y-147642857D02*
X156896190Y-147976190D01*
X157372380Y-148214285D02*
X156372380Y-148214285D01*
X156372380Y-147833333D01*
X156420000Y-147738095D01*
X156467619Y-147690476D01*
X156562857Y-147642857D01*
X156705714Y-147642857D01*
X156800952Y-147690476D01*
X156848571Y-147738095D01*
X156896190Y-147833333D01*
X156896190Y-148214285D01*
X157372380Y-146690476D02*
X157372380Y-147261904D01*
X157372380Y-146976190D02*
X156372380Y-146976190D01*
X156515238Y-147071428D01*
X156610476Y-147166666D01*
X156658095Y-147261904D01*
X156372380Y-146357142D02*
X156372380Y-145738095D01*
X156753333Y-146071428D01*
X156753333Y-145928571D01*
X156800952Y-145833333D01*
X156848571Y-145785714D01*
X156943809Y-145738095D01*
X157181904Y-145738095D01*
X157277142Y-145785714D01*
X157324761Y-145833333D01*
X157372380Y-145928571D01*
X157372380Y-146214285D01*
X157324761Y-146309523D01*
X157277142Y-146357142D01*
G04 #@! TO.C,R14*
X80352380Y-152642857D02*
X79876190Y-152976190D01*
X80352380Y-153214285D02*
X79352380Y-153214285D01*
X79352380Y-152833333D01*
X79400000Y-152738095D01*
X79447619Y-152690476D01*
X79542857Y-152642857D01*
X79685714Y-152642857D01*
X79780952Y-152690476D01*
X79828571Y-152738095D01*
X79876190Y-152833333D01*
X79876190Y-153214285D01*
X80352380Y-151690476D02*
X80352380Y-152261904D01*
X80352380Y-151976190D02*
X79352380Y-151976190D01*
X79495238Y-152071428D01*
X79590476Y-152166666D01*
X79638095Y-152261904D01*
X79685714Y-150833333D02*
X80352380Y-150833333D01*
X79304761Y-151071428D02*
X80019047Y-151309523D01*
X80019047Y-150690476D01*
G04 #@! TO.C,R15*
X80452380Y-147592857D02*
X79976190Y-147926190D01*
X80452380Y-148164285D02*
X79452380Y-148164285D01*
X79452380Y-147783333D01*
X79500000Y-147688095D01*
X79547619Y-147640476D01*
X79642857Y-147592857D01*
X79785714Y-147592857D01*
X79880952Y-147640476D01*
X79928571Y-147688095D01*
X79976190Y-147783333D01*
X79976190Y-148164285D01*
X80452380Y-146640476D02*
X80452380Y-147211904D01*
X80452380Y-146926190D02*
X79452380Y-146926190D01*
X79595238Y-147021428D01*
X79690476Y-147116666D01*
X79738095Y-147211904D01*
X79452380Y-145735714D02*
X79452380Y-146211904D01*
X79928571Y-146259523D01*
X79880952Y-146211904D01*
X79833333Y-146116666D01*
X79833333Y-145878571D01*
X79880952Y-145783333D01*
X79928571Y-145735714D01*
X80023809Y-145688095D01*
X80261904Y-145688095D01*
X80357142Y-145735714D01*
X80404761Y-145783333D01*
X80452380Y-145878571D01*
X80452380Y-146116666D01*
X80404761Y-146211904D01*
X80357142Y-146259523D01*
G04 #@! TO.C,R16*
X160232380Y-152642857D02*
X159756190Y-152976190D01*
X160232380Y-153214285D02*
X159232380Y-153214285D01*
X159232380Y-152833333D01*
X159280000Y-152738095D01*
X159327619Y-152690476D01*
X159422857Y-152642857D01*
X159565714Y-152642857D01*
X159660952Y-152690476D01*
X159708571Y-152738095D01*
X159756190Y-152833333D01*
X159756190Y-153214285D01*
X160232380Y-151690476D02*
X160232380Y-152261904D01*
X160232380Y-151976190D02*
X159232380Y-151976190D01*
X159375238Y-152071428D01*
X159470476Y-152166666D01*
X159518095Y-152261904D01*
X159232380Y-150833333D02*
X159232380Y-151023809D01*
X159280000Y-151119047D01*
X159327619Y-151166666D01*
X159470476Y-151261904D01*
X159660952Y-151309523D01*
X160041904Y-151309523D01*
X160137142Y-151261904D01*
X160184761Y-151214285D01*
X160232380Y-151119047D01*
X160232380Y-150928571D01*
X160184761Y-150833333D01*
X160137142Y-150785714D01*
X160041904Y-150738095D01*
X159803809Y-150738095D01*
X159708571Y-150785714D01*
X159660952Y-150833333D01*
X159613333Y-150928571D01*
X159613333Y-151119047D01*
X159660952Y-151214285D01*
X159708571Y-151261904D01*
X159803809Y-151309523D01*
G04 #@! TO.C,R19*
X133432142Y-90477380D02*
X133098809Y-90001190D01*
X132860714Y-90477380D02*
X132860714Y-89477380D01*
X133241666Y-89477380D01*
X133336904Y-89525000D01*
X133384523Y-89572619D01*
X133432142Y-89667857D01*
X133432142Y-89810714D01*
X133384523Y-89905952D01*
X133336904Y-89953571D01*
X133241666Y-90001190D01*
X132860714Y-90001190D01*
X134384523Y-90477380D02*
X133813095Y-90477380D01*
X134098809Y-90477380D02*
X134098809Y-89477380D01*
X134003571Y-89620238D01*
X133908333Y-89715476D01*
X133813095Y-89763095D01*
X134860714Y-90477380D02*
X135051190Y-90477380D01*
X135146428Y-90429761D01*
X135194047Y-90382142D01*
X135289285Y-90239285D01*
X135336904Y-90048809D01*
X135336904Y-89667857D01*
X135289285Y-89572619D01*
X135241666Y-89525000D01*
X135146428Y-89477380D01*
X134955952Y-89477380D01*
X134860714Y-89525000D01*
X134813095Y-89572619D01*
X134765476Y-89667857D01*
X134765476Y-89905952D01*
X134813095Y-90001190D01*
X134860714Y-90048809D01*
X134955952Y-90096428D01*
X135146428Y-90096428D01*
X135241666Y-90048809D01*
X135289285Y-90001190D01*
X135336904Y-89905952D01*
G04 #@! TO.C,R20*
X148357142Y-90252380D02*
X148023809Y-89776190D01*
X147785714Y-90252380D02*
X147785714Y-89252380D01*
X148166666Y-89252380D01*
X148261904Y-89300000D01*
X148309523Y-89347619D01*
X148357142Y-89442857D01*
X148357142Y-89585714D01*
X148309523Y-89680952D01*
X148261904Y-89728571D01*
X148166666Y-89776190D01*
X147785714Y-89776190D01*
X148738095Y-89347619D02*
X148785714Y-89300000D01*
X148880952Y-89252380D01*
X149119047Y-89252380D01*
X149214285Y-89300000D01*
X149261904Y-89347619D01*
X149309523Y-89442857D01*
X149309523Y-89538095D01*
X149261904Y-89680952D01*
X148690476Y-90252380D01*
X149309523Y-90252380D01*
X149928571Y-89252380D02*
X150023809Y-89252380D01*
X150119047Y-89300000D01*
X150166666Y-89347619D01*
X150214285Y-89442857D01*
X150261904Y-89633333D01*
X150261904Y-89871428D01*
X150214285Y-90061904D01*
X150166666Y-90157142D01*
X150119047Y-90204761D01*
X150023809Y-90252380D01*
X149928571Y-90252380D01*
X149833333Y-90204761D01*
X149785714Y-90157142D01*
X149738095Y-90061904D01*
X149690476Y-89871428D01*
X149690476Y-89633333D01*
X149738095Y-89442857D01*
X149785714Y-89347619D01*
X149833333Y-89300000D01*
X149928571Y-89252380D01*
G04 #@! TO.C,R21*
X133257142Y-92002380D02*
X132923809Y-91526190D01*
X132685714Y-92002380D02*
X132685714Y-91002380D01*
X133066666Y-91002380D01*
X133161904Y-91050000D01*
X133209523Y-91097619D01*
X133257142Y-91192857D01*
X133257142Y-91335714D01*
X133209523Y-91430952D01*
X133161904Y-91478571D01*
X133066666Y-91526190D01*
X132685714Y-91526190D01*
X133638095Y-91097619D02*
X133685714Y-91050000D01*
X133780952Y-91002380D01*
X134019047Y-91002380D01*
X134114285Y-91050000D01*
X134161904Y-91097619D01*
X134209523Y-91192857D01*
X134209523Y-91288095D01*
X134161904Y-91430952D01*
X133590476Y-92002380D01*
X134209523Y-92002380D01*
X135161904Y-92002380D02*
X134590476Y-92002380D01*
X134876190Y-92002380D02*
X134876190Y-91002380D01*
X134780952Y-91145238D01*
X134685714Y-91240476D01*
X134590476Y-91288095D01*
G04 #@! TO.C,R22*
X148357142Y-91752380D02*
X148023809Y-91276190D01*
X147785714Y-91752380D02*
X147785714Y-90752380D01*
X148166666Y-90752380D01*
X148261904Y-90800000D01*
X148309523Y-90847619D01*
X148357142Y-90942857D01*
X148357142Y-91085714D01*
X148309523Y-91180952D01*
X148261904Y-91228571D01*
X148166666Y-91276190D01*
X147785714Y-91276190D01*
X148738095Y-90847619D02*
X148785714Y-90800000D01*
X148880952Y-90752380D01*
X149119047Y-90752380D01*
X149214285Y-90800000D01*
X149261904Y-90847619D01*
X149309523Y-90942857D01*
X149309523Y-91038095D01*
X149261904Y-91180952D01*
X148690476Y-91752380D01*
X149309523Y-91752380D01*
X149690476Y-90847619D02*
X149738095Y-90800000D01*
X149833333Y-90752380D01*
X150071428Y-90752380D01*
X150166666Y-90800000D01*
X150214285Y-90847619D01*
X150261904Y-90942857D01*
X150261904Y-91038095D01*
X150214285Y-91180952D01*
X149642857Y-91752380D01*
X150261904Y-91752380D01*
G04 #@! TO.C,R23*
X140557142Y-72052380D02*
X140223809Y-71576190D01*
X139985714Y-72052380D02*
X139985714Y-71052380D01*
X140366666Y-71052380D01*
X140461904Y-71100000D01*
X140509523Y-71147619D01*
X140557142Y-71242857D01*
X140557142Y-71385714D01*
X140509523Y-71480952D01*
X140461904Y-71528571D01*
X140366666Y-71576190D01*
X139985714Y-71576190D01*
X140938095Y-71147619D02*
X140985714Y-71100000D01*
X141080952Y-71052380D01*
X141319047Y-71052380D01*
X141414285Y-71100000D01*
X141461904Y-71147619D01*
X141509523Y-71242857D01*
X141509523Y-71338095D01*
X141461904Y-71480952D01*
X140890476Y-72052380D01*
X141509523Y-72052380D01*
X141842857Y-71052380D02*
X142461904Y-71052380D01*
X142128571Y-71433333D01*
X142271428Y-71433333D01*
X142366666Y-71480952D01*
X142414285Y-71528571D01*
X142461904Y-71623809D01*
X142461904Y-71861904D01*
X142414285Y-71957142D01*
X142366666Y-72004761D01*
X142271428Y-72052380D01*
X141985714Y-72052380D01*
X141890476Y-72004761D01*
X141842857Y-71957142D01*
G04 #@! TO.C,R26*
X125302380Y-73442857D02*
X124826190Y-73776190D01*
X125302380Y-74014285D02*
X124302380Y-74014285D01*
X124302380Y-73633333D01*
X124350000Y-73538095D01*
X124397619Y-73490476D01*
X124492857Y-73442857D01*
X124635714Y-73442857D01*
X124730952Y-73490476D01*
X124778571Y-73538095D01*
X124826190Y-73633333D01*
X124826190Y-74014285D01*
X124397619Y-73061904D02*
X124350000Y-73014285D01*
X124302380Y-72919047D01*
X124302380Y-72680952D01*
X124350000Y-72585714D01*
X124397619Y-72538095D01*
X124492857Y-72490476D01*
X124588095Y-72490476D01*
X124730952Y-72538095D01*
X125302380Y-73109523D01*
X125302380Y-72490476D01*
X124302380Y-71633333D02*
X124302380Y-71823809D01*
X124350000Y-71919047D01*
X124397619Y-71966666D01*
X124540476Y-72061904D01*
X124730952Y-72109523D01*
X125111904Y-72109523D01*
X125207142Y-72061904D01*
X125254761Y-72014285D01*
X125302380Y-71919047D01*
X125302380Y-71728571D01*
X125254761Y-71633333D01*
X125207142Y-71585714D01*
X125111904Y-71538095D01*
X124873809Y-71538095D01*
X124778571Y-71585714D01*
X124730952Y-71633333D01*
X124683333Y-71728571D01*
X124683333Y-71919047D01*
X124730952Y-72014285D01*
X124778571Y-72061904D01*
X124873809Y-72109523D01*
G04 #@! TO.C,R27*
X129882380Y-73342857D02*
X129406190Y-73676190D01*
X129882380Y-73914285D02*
X128882380Y-73914285D01*
X128882380Y-73533333D01*
X128930000Y-73438095D01*
X128977619Y-73390476D01*
X129072857Y-73342857D01*
X129215714Y-73342857D01*
X129310952Y-73390476D01*
X129358571Y-73438095D01*
X129406190Y-73533333D01*
X129406190Y-73914285D01*
X128977619Y-72961904D02*
X128930000Y-72914285D01*
X128882380Y-72819047D01*
X128882380Y-72580952D01*
X128930000Y-72485714D01*
X128977619Y-72438095D01*
X129072857Y-72390476D01*
X129168095Y-72390476D01*
X129310952Y-72438095D01*
X129882380Y-73009523D01*
X129882380Y-72390476D01*
X128882380Y-72057142D02*
X128882380Y-71390476D01*
X129882380Y-71819047D01*
G04 #@! TO.C,R28*
X94857142Y-124072380D02*
X94523809Y-123596190D01*
X94285714Y-124072380D02*
X94285714Y-123072380D01*
X94666666Y-123072380D01*
X94761904Y-123120000D01*
X94809523Y-123167619D01*
X94857142Y-123262857D01*
X94857142Y-123405714D01*
X94809523Y-123500952D01*
X94761904Y-123548571D01*
X94666666Y-123596190D01*
X94285714Y-123596190D01*
X95238095Y-123167619D02*
X95285714Y-123120000D01*
X95380952Y-123072380D01*
X95619047Y-123072380D01*
X95714285Y-123120000D01*
X95761904Y-123167619D01*
X95809523Y-123262857D01*
X95809523Y-123358095D01*
X95761904Y-123500952D01*
X95190476Y-124072380D01*
X95809523Y-124072380D01*
X96380952Y-123500952D02*
X96285714Y-123453333D01*
X96238095Y-123405714D01*
X96190476Y-123310476D01*
X96190476Y-123262857D01*
X96238095Y-123167619D01*
X96285714Y-123120000D01*
X96380952Y-123072380D01*
X96571428Y-123072380D01*
X96666666Y-123120000D01*
X96714285Y-123167619D01*
X96761904Y-123262857D01*
X96761904Y-123310476D01*
X96714285Y-123405714D01*
X96666666Y-123453333D01*
X96571428Y-123500952D01*
X96380952Y-123500952D01*
X96285714Y-123548571D01*
X96238095Y-123596190D01*
X96190476Y-123691428D01*
X96190476Y-123881904D01*
X96238095Y-123977142D01*
X96285714Y-124024761D01*
X96380952Y-124072380D01*
X96571428Y-124072380D01*
X96666666Y-124024761D01*
X96714285Y-123977142D01*
X96761904Y-123881904D01*
X96761904Y-123691428D01*
X96714285Y-123596190D01*
X96666666Y-123548571D01*
X96571428Y-123500952D01*
G04 #@! TO.C,R29*
X94857142Y-101072380D02*
X94523809Y-100596190D01*
X94285714Y-101072380D02*
X94285714Y-100072380D01*
X94666666Y-100072380D01*
X94761904Y-100120000D01*
X94809523Y-100167619D01*
X94857142Y-100262857D01*
X94857142Y-100405714D01*
X94809523Y-100500952D01*
X94761904Y-100548571D01*
X94666666Y-100596190D01*
X94285714Y-100596190D01*
X95238095Y-100167619D02*
X95285714Y-100120000D01*
X95380952Y-100072380D01*
X95619047Y-100072380D01*
X95714285Y-100120000D01*
X95761904Y-100167619D01*
X95809523Y-100262857D01*
X95809523Y-100358095D01*
X95761904Y-100500952D01*
X95190476Y-101072380D01*
X95809523Y-101072380D01*
X96285714Y-101072380D02*
X96476190Y-101072380D01*
X96571428Y-101024761D01*
X96619047Y-100977142D01*
X96714285Y-100834285D01*
X96761904Y-100643809D01*
X96761904Y-100262857D01*
X96714285Y-100167619D01*
X96666666Y-100120000D01*
X96571428Y-100072380D01*
X96380952Y-100072380D01*
X96285714Y-100120000D01*
X96238095Y-100167619D01*
X96190476Y-100262857D01*
X96190476Y-100500952D01*
X96238095Y-100596190D01*
X96285714Y-100643809D01*
X96380952Y-100691428D01*
X96571428Y-100691428D01*
X96666666Y-100643809D01*
X96714285Y-100596190D01*
X96761904Y-100500952D01*
G04 #@! TO.C,R30*
X94857142Y-112572380D02*
X94523809Y-112096190D01*
X94285714Y-112572380D02*
X94285714Y-111572380D01*
X94666666Y-111572380D01*
X94761904Y-111620000D01*
X94809523Y-111667619D01*
X94857142Y-111762857D01*
X94857142Y-111905714D01*
X94809523Y-112000952D01*
X94761904Y-112048571D01*
X94666666Y-112096190D01*
X94285714Y-112096190D01*
X95190476Y-111572380D02*
X95809523Y-111572380D01*
X95476190Y-111953333D01*
X95619047Y-111953333D01*
X95714285Y-112000952D01*
X95761904Y-112048571D01*
X95809523Y-112143809D01*
X95809523Y-112381904D01*
X95761904Y-112477142D01*
X95714285Y-112524761D01*
X95619047Y-112572380D01*
X95333333Y-112572380D01*
X95238095Y-112524761D01*
X95190476Y-112477142D01*
X96428571Y-111572380D02*
X96523809Y-111572380D01*
X96619047Y-111620000D01*
X96666666Y-111667619D01*
X96714285Y-111762857D01*
X96761904Y-111953333D01*
X96761904Y-112191428D01*
X96714285Y-112381904D01*
X96666666Y-112477142D01*
X96619047Y-112524761D01*
X96523809Y-112572380D01*
X96428571Y-112572380D01*
X96333333Y-112524761D01*
X96285714Y-112477142D01*
X96238095Y-112381904D01*
X96190476Y-112191428D01*
X96190476Y-111953333D01*
X96238095Y-111762857D01*
X96285714Y-111667619D01*
X96333333Y-111620000D01*
X96428571Y-111572380D01*
G04 #@! TO.C,R31*
X94857142Y-106572380D02*
X94523809Y-106096190D01*
X94285714Y-106572380D02*
X94285714Y-105572380D01*
X94666666Y-105572380D01*
X94761904Y-105620000D01*
X94809523Y-105667619D01*
X94857142Y-105762857D01*
X94857142Y-105905714D01*
X94809523Y-106000952D01*
X94761904Y-106048571D01*
X94666666Y-106096190D01*
X94285714Y-106096190D01*
X95190476Y-105572380D02*
X95809523Y-105572380D01*
X95476190Y-105953333D01*
X95619047Y-105953333D01*
X95714285Y-106000952D01*
X95761904Y-106048571D01*
X95809523Y-106143809D01*
X95809523Y-106381904D01*
X95761904Y-106477142D01*
X95714285Y-106524761D01*
X95619047Y-106572380D01*
X95333333Y-106572380D01*
X95238095Y-106524761D01*
X95190476Y-106477142D01*
X96761904Y-106572380D02*
X96190476Y-106572380D01*
X96476190Y-106572380D02*
X96476190Y-105572380D01*
X96380952Y-105715238D01*
X96285714Y-105810476D01*
X96190476Y-105858095D01*
G04 #@! TO.C,R32*
X94857142Y-118572380D02*
X94523809Y-118096190D01*
X94285714Y-118572380D02*
X94285714Y-117572380D01*
X94666666Y-117572380D01*
X94761904Y-117620000D01*
X94809523Y-117667619D01*
X94857142Y-117762857D01*
X94857142Y-117905714D01*
X94809523Y-118000952D01*
X94761904Y-118048571D01*
X94666666Y-118096190D01*
X94285714Y-118096190D01*
X95190476Y-117572380D02*
X95809523Y-117572380D01*
X95476190Y-117953333D01*
X95619047Y-117953333D01*
X95714285Y-118000952D01*
X95761904Y-118048571D01*
X95809523Y-118143809D01*
X95809523Y-118381904D01*
X95761904Y-118477142D01*
X95714285Y-118524761D01*
X95619047Y-118572380D01*
X95333333Y-118572380D01*
X95238095Y-118524761D01*
X95190476Y-118477142D01*
X96190476Y-117667619D02*
X96238095Y-117620000D01*
X96333333Y-117572380D01*
X96571428Y-117572380D01*
X96666666Y-117620000D01*
X96714285Y-117667619D01*
X96761904Y-117762857D01*
X96761904Y-117858095D01*
X96714285Y-118000952D01*
X96142857Y-118572380D01*
X96761904Y-118572380D01*
G04 #@! TO.C,R33*
X152957142Y-82052380D02*
X152623809Y-81576190D01*
X152385714Y-82052380D02*
X152385714Y-81052380D01*
X152766666Y-81052380D01*
X152861904Y-81100000D01*
X152909523Y-81147619D01*
X152957142Y-81242857D01*
X152957142Y-81385714D01*
X152909523Y-81480952D01*
X152861904Y-81528571D01*
X152766666Y-81576190D01*
X152385714Y-81576190D01*
X153290476Y-81052380D02*
X153909523Y-81052380D01*
X153576190Y-81433333D01*
X153719047Y-81433333D01*
X153814285Y-81480952D01*
X153861904Y-81528571D01*
X153909523Y-81623809D01*
X153909523Y-81861904D01*
X153861904Y-81957142D01*
X153814285Y-82004761D01*
X153719047Y-82052380D01*
X153433333Y-82052380D01*
X153338095Y-82004761D01*
X153290476Y-81957142D01*
X154242857Y-81052380D02*
X154861904Y-81052380D01*
X154528571Y-81433333D01*
X154671428Y-81433333D01*
X154766666Y-81480952D01*
X154814285Y-81528571D01*
X154861904Y-81623809D01*
X154861904Y-81861904D01*
X154814285Y-81957142D01*
X154766666Y-82004761D01*
X154671428Y-82052380D01*
X154385714Y-82052380D01*
X154290476Y-82004761D01*
X154242857Y-81957142D01*
G04 #@! TO.C,R36*
X132057142Y-85352380D02*
X131723809Y-84876190D01*
X131485714Y-85352380D02*
X131485714Y-84352380D01*
X131866666Y-84352380D01*
X131961904Y-84400000D01*
X132009523Y-84447619D01*
X132057142Y-84542857D01*
X132057142Y-84685714D01*
X132009523Y-84780952D01*
X131961904Y-84828571D01*
X131866666Y-84876190D01*
X131485714Y-84876190D01*
X132390476Y-84352380D02*
X133009523Y-84352380D01*
X132676190Y-84733333D01*
X132819047Y-84733333D01*
X132914285Y-84780952D01*
X132961904Y-84828571D01*
X133009523Y-84923809D01*
X133009523Y-85161904D01*
X132961904Y-85257142D01*
X132914285Y-85304761D01*
X132819047Y-85352380D01*
X132533333Y-85352380D01*
X132438095Y-85304761D01*
X132390476Y-85257142D01*
X133866666Y-84352380D02*
X133676190Y-84352380D01*
X133580952Y-84400000D01*
X133533333Y-84447619D01*
X133438095Y-84590476D01*
X133390476Y-84780952D01*
X133390476Y-85161904D01*
X133438095Y-85257142D01*
X133485714Y-85304761D01*
X133580952Y-85352380D01*
X133771428Y-85352380D01*
X133866666Y-85304761D01*
X133914285Y-85257142D01*
X133961904Y-85161904D01*
X133961904Y-84923809D01*
X133914285Y-84828571D01*
X133866666Y-84780952D01*
X133771428Y-84733333D01*
X133580952Y-84733333D01*
X133485714Y-84780952D01*
X133438095Y-84828571D01*
X133390476Y-84923809D01*
G04 #@! TO.C,U1*
X96638095Y-72452380D02*
X96638095Y-73261904D01*
X96685714Y-73357142D01*
X96733333Y-73404761D01*
X96828571Y-73452380D01*
X97019047Y-73452380D01*
X97114285Y-73404761D01*
X97161904Y-73357142D01*
X97209523Y-73261904D01*
X97209523Y-72452380D01*
X98209523Y-73452380D02*
X97638095Y-73452380D01*
X97923809Y-73452380D02*
X97923809Y-72452380D01*
X97828571Y-72595238D01*
X97733333Y-72690476D01*
X97638095Y-72738095D01*
G04 #@! TO.C,U3*
X87688095Y-74302380D02*
X87688095Y-75111904D01*
X87735714Y-75207142D01*
X87783333Y-75254761D01*
X87878571Y-75302380D01*
X88069047Y-75302380D01*
X88164285Y-75254761D01*
X88211904Y-75207142D01*
X88259523Y-75111904D01*
X88259523Y-74302380D01*
X88640476Y-74302380D02*
X89259523Y-74302380D01*
X88926190Y-74683333D01*
X89069047Y-74683333D01*
X89164285Y-74730952D01*
X89211904Y-74778571D01*
X89259523Y-74873809D01*
X89259523Y-75111904D01*
X89211904Y-75207142D01*
X89164285Y-75254761D01*
X89069047Y-75302380D01*
X88783333Y-75302380D01*
X88688095Y-75254761D01*
X88640476Y-75207142D01*
G04 #@! TO.C,U9*
X153252380Y-79761904D02*
X154061904Y-79761904D01*
X154157142Y-79714285D01*
X154204761Y-79666666D01*
X154252380Y-79571428D01*
X154252380Y-79380952D01*
X154204761Y-79285714D01*
X154157142Y-79238095D01*
X154061904Y-79190476D01*
X153252380Y-79190476D01*
X154252380Y-78666666D02*
X154252380Y-78476190D01*
X154204761Y-78380952D01*
X154157142Y-78333333D01*
X154014285Y-78238095D01*
X153823809Y-78190476D01*
X153442857Y-78190476D01*
X153347619Y-78238095D01*
X153300000Y-78285714D01*
X153252380Y-78380952D01*
X153252380Y-78571428D01*
X153300000Y-78666666D01*
X153347619Y-78714285D01*
X153442857Y-78761904D01*
X153680952Y-78761904D01*
X153776190Y-78714285D01*
X153823809Y-78666666D01*
X153871428Y-78571428D01*
X153871428Y-78380952D01*
X153823809Y-78285714D01*
X153776190Y-78238095D01*
X153680952Y-78190476D01*
G04 #@! TO.C,U10*
X129902380Y-78208095D02*
X130711904Y-78208095D01*
X130807142Y-78160476D01*
X130854761Y-78112857D01*
X130902380Y-78017619D01*
X130902380Y-77827142D01*
X130854761Y-77731904D01*
X130807142Y-77684285D01*
X130711904Y-77636666D01*
X129902380Y-77636666D01*
X130902380Y-76636666D02*
X130902380Y-77208095D01*
X130902380Y-76922380D02*
X129902380Y-76922380D01*
X130045238Y-77017619D01*
X130140476Y-77112857D01*
X130188095Y-77208095D01*
X129902380Y-76017619D02*
X129902380Y-75922380D01*
X129950000Y-75827142D01*
X129997619Y-75779523D01*
X130092857Y-75731904D01*
X130283333Y-75684285D01*
X130521428Y-75684285D01*
X130711904Y-75731904D01*
X130807142Y-75779523D01*
X130854761Y-75827142D01*
X130902380Y-75922380D01*
X130902380Y-76017619D01*
X130854761Y-76112857D01*
X130807142Y-76160476D01*
X130711904Y-76208095D01*
X130521428Y-76255714D01*
X130283333Y-76255714D01*
X130092857Y-76208095D01*
X129997619Y-76160476D01*
X129950000Y-76112857D01*
X129902380Y-76017619D01*
G04 #@! TO.C,Y1*
X113023809Y-72326190D02*
X113023809Y-72802380D01*
X112690476Y-71802380D02*
X113023809Y-72326190D01*
X113357142Y-71802380D01*
X114214285Y-72802380D02*
X113642857Y-72802380D01*
X113928571Y-72802380D02*
X113928571Y-71802380D01*
X113833333Y-71945238D01*
X113738095Y-72040476D01*
X113642857Y-72088095D01*
G04 #@! TO.C,U4*
X123838095Y-93252380D02*
X123838095Y-94061904D01*
X123885714Y-94157142D01*
X123933333Y-94204761D01*
X124028571Y-94252380D01*
X124219047Y-94252380D01*
X124314285Y-94204761D01*
X124361904Y-94157142D01*
X124409523Y-94061904D01*
X124409523Y-93252380D01*
X125314285Y-93585714D02*
X125314285Y-94252380D01*
X125076190Y-93204761D02*
X124838095Y-93919047D01*
X125457142Y-93919047D01*
G04 #@! TO.C,U5*
X136013095Y-86477380D02*
X136013095Y-87286904D01*
X136060714Y-87382142D01*
X136108333Y-87429761D01*
X136203571Y-87477380D01*
X136394047Y-87477380D01*
X136489285Y-87429761D01*
X136536904Y-87382142D01*
X136584523Y-87286904D01*
X136584523Y-86477380D01*
X137536904Y-86477380D02*
X137060714Y-86477380D01*
X137013095Y-86953571D01*
X137060714Y-86905952D01*
X137155952Y-86858333D01*
X137394047Y-86858333D01*
X137489285Y-86905952D01*
X137536904Y-86953571D01*
X137584523Y-87048809D01*
X137584523Y-87286904D01*
X137536904Y-87382142D01*
X137489285Y-87429761D01*
X137394047Y-87477380D01*
X137155952Y-87477380D01*
X137060714Y-87429761D01*
X137013095Y-87382142D01*
G04 #@! TO.C,C2*
X102433333Y-64857142D02*
X102385714Y-64904761D01*
X102242857Y-64952380D01*
X102147619Y-64952380D01*
X102004761Y-64904761D01*
X101909523Y-64809523D01*
X101861904Y-64714285D01*
X101814285Y-64523809D01*
X101814285Y-64380952D01*
X101861904Y-64190476D01*
X101909523Y-64095238D01*
X102004761Y-64000000D01*
X102147619Y-63952380D01*
X102242857Y-63952380D01*
X102385714Y-64000000D01*
X102433333Y-64047619D01*
X102814285Y-64047619D02*
X102861904Y-64000000D01*
X102957142Y-63952380D01*
X103195238Y-63952380D01*
X103290476Y-64000000D01*
X103338095Y-64047619D01*
X103385714Y-64142857D01*
X103385714Y-64238095D01*
X103338095Y-64380952D01*
X102766666Y-64952380D01*
X103385714Y-64952380D01*
G04 #@! TO.C,C3*
X90733333Y-64857142D02*
X90685714Y-64904761D01*
X90542857Y-64952380D01*
X90447619Y-64952380D01*
X90304761Y-64904761D01*
X90209523Y-64809523D01*
X90161904Y-64714285D01*
X90114285Y-64523809D01*
X90114285Y-64380952D01*
X90161904Y-64190476D01*
X90209523Y-64095238D01*
X90304761Y-64000000D01*
X90447619Y-63952380D01*
X90542857Y-63952380D01*
X90685714Y-64000000D01*
X90733333Y-64047619D01*
X91066666Y-63952380D02*
X91685714Y-63952380D01*
X91352380Y-64333333D01*
X91495238Y-64333333D01*
X91590476Y-64380952D01*
X91638095Y-64428571D01*
X91685714Y-64523809D01*
X91685714Y-64761904D01*
X91638095Y-64857142D01*
X91590476Y-64904761D01*
X91495238Y-64952380D01*
X91209523Y-64952380D01*
X91114285Y-64904761D01*
X91066666Y-64857142D01*
G04 #@! TO.C,C15*
X80357142Y-93007142D02*
X80309523Y-93054761D01*
X80166666Y-93102380D01*
X80071428Y-93102380D01*
X79928571Y-93054761D01*
X79833333Y-92959523D01*
X79785714Y-92864285D01*
X79738095Y-92673809D01*
X79738095Y-92530952D01*
X79785714Y-92340476D01*
X79833333Y-92245238D01*
X79928571Y-92150000D01*
X80071428Y-92102380D01*
X80166666Y-92102380D01*
X80309523Y-92150000D01*
X80357142Y-92197619D01*
X81309523Y-93102380D02*
X80738095Y-93102380D01*
X81023809Y-93102380D02*
X81023809Y-92102380D01*
X80928571Y-92245238D01*
X80833333Y-92340476D01*
X80738095Y-92388095D01*
X82214285Y-92102380D02*
X81738095Y-92102380D01*
X81690476Y-92578571D01*
X81738095Y-92530952D01*
X81833333Y-92483333D01*
X82071428Y-92483333D01*
X82166666Y-92530952D01*
X82214285Y-92578571D01*
X82261904Y-92673809D01*
X82261904Y-92911904D01*
X82214285Y-93007142D01*
X82166666Y-93054761D01*
X82071428Y-93102380D01*
X81833333Y-93102380D01*
X81738095Y-93054761D01*
X81690476Y-93007142D01*
G04 #@! TO.C,C19*
X75957142Y-70357142D02*
X75909523Y-70404761D01*
X75766666Y-70452380D01*
X75671428Y-70452380D01*
X75528571Y-70404761D01*
X75433333Y-70309523D01*
X75385714Y-70214285D01*
X75338095Y-70023809D01*
X75338095Y-69880952D01*
X75385714Y-69690476D01*
X75433333Y-69595238D01*
X75528571Y-69500000D01*
X75671428Y-69452380D01*
X75766666Y-69452380D01*
X75909523Y-69500000D01*
X75957142Y-69547619D01*
X76909523Y-70452380D02*
X76338095Y-70452380D01*
X76623809Y-70452380D02*
X76623809Y-69452380D01*
X76528571Y-69595238D01*
X76433333Y-69690476D01*
X76338095Y-69738095D01*
X77385714Y-70452380D02*
X77576190Y-70452380D01*
X77671428Y-70404761D01*
X77719047Y-70357142D01*
X77814285Y-70214285D01*
X77861904Y-70023809D01*
X77861904Y-69642857D01*
X77814285Y-69547619D01*
X77766666Y-69500000D01*
X77671428Y-69452380D01*
X77480952Y-69452380D01*
X77385714Y-69500000D01*
X77338095Y-69547619D01*
X77290476Y-69642857D01*
X77290476Y-69880952D01*
X77338095Y-69976190D01*
X77385714Y-70023809D01*
X77480952Y-70071428D01*
X77671428Y-70071428D01*
X77766666Y-70023809D01*
X77814285Y-69976190D01*
X77861904Y-69880952D01*
G04 #@! TO.C,J9*
X116266666Y-56152380D02*
X116266666Y-56866666D01*
X116219047Y-57009523D01*
X116123809Y-57104761D01*
X115980952Y-57152380D01*
X115885714Y-57152380D01*
X116790476Y-57152380D02*
X116980952Y-57152380D01*
X117076190Y-57104761D01*
X117123809Y-57057142D01*
X117219047Y-56914285D01*
X117266666Y-56723809D01*
X117266666Y-56342857D01*
X117219047Y-56247619D01*
X117171428Y-56200000D01*
X117076190Y-56152380D01*
X116885714Y-56152380D01*
X116790476Y-56200000D01*
X116742857Y-56247619D01*
X116695238Y-56342857D01*
X116695238Y-56580952D01*
X116742857Y-56676190D01*
X116790476Y-56723809D01*
X116885714Y-56771428D01*
X117076190Y-56771428D01*
X117171428Y-56723809D01*
X117219047Y-56676190D01*
X117266666Y-56580952D01*
G04 #@! TO.C,R1*
X84433333Y-72352380D02*
X84100000Y-71876190D01*
X83861904Y-72352380D02*
X83861904Y-71352380D01*
X84242857Y-71352380D01*
X84338095Y-71400000D01*
X84385714Y-71447619D01*
X84433333Y-71542857D01*
X84433333Y-71685714D01*
X84385714Y-71780952D01*
X84338095Y-71828571D01*
X84242857Y-71876190D01*
X83861904Y-71876190D01*
X85385714Y-72352380D02*
X84814285Y-72352380D01*
X85100000Y-72352380D02*
X85100000Y-71352380D01*
X85004761Y-71495238D01*
X84909523Y-71590476D01*
X84814285Y-71638095D01*
G04 #@! TO.C,J10*
X87990476Y-83852380D02*
X87990476Y-84566666D01*
X87942857Y-84709523D01*
X87847619Y-84804761D01*
X87704761Y-84852380D01*
X87609523Y-84852380D01*
X88990476Y-84852380D02*
X88419047Y-84852380D01*
X88704761Y-84852380D02*
X88704761Y-83852380D01*
X88609523Y-83995238D01*
X88514285Y-84090476D01*
X88419047Y-84138095D01*
X89609523Y-83852380D02*
X89704761Y-83852380D01*
X89800000Y-83900000D01*
X89847619Y-83947619D01*
X89895238Y-84042857D01*
X89942857Y-84233333D01*
X89942857Y-84471428D01*
X89895238Y-84661904D01*
X89847619Y-84757142D01*
X89800000Y-84804761D01*
X89704761Y-84852380D01*
X89609523Y-84852380D01*
X89514285Y-84804761D01*
X89466666Y-84757142D01*
X89419047Y-84661904D01*
X89371428Y-84471428D01*
X89371428Y-84233333D01*
X89419047Y-84042857D01*
X89466666Y-83947619D01*
X89514285Y-83900000D01*
X89609523Y-83852380D01*
G04 #@! TO.C,U8*
X125838095Y-122052330D02*
X125838095Y-122861854D01*
X125885714Y-122957092D01*
X125933333Y-123004711D01*
X126028571Y-123052330D01*
X126219047Y-123052330D01*
X126314285Y-123004711D01*
X126361904Y-122957092D01*
X126409523Y-122861854D01*
X126409523Y-122052330D01*
X127028571Y-122480902D02*
X126933333Y-122433283D01*
X126885714Y-122385664D01*
X126838095Y-122290426D01*
X126838095Y-122242807D01*
X126885714Y-122147569D01*
X126933333Y-122099950D01*
X127028571Y-122052330D01*
X127219047Y-122052330D01*
X127314285Y-122099950D01*
X127361904Y-122147569D01*
X127409523Y-122242807D01*
X127409523Y-122290426D01*
X127361904Y-122385664D01*
X127314285Y-122433283D01*
X127219047Y-122480902D01*
X127028571Y-122480902D01*
X126933333Y-122528521D01*
X126885714Y-122576140D01*
X126838095Y-122671378D01*
X126838095Y-122861854D01*
X126885714Y-122957092D01*
X126933333Y-123004711D01*
X127028571Y-123052330D01*
X127219047Y-123052330D01*
X127314285Y-123004711D01*
X127361904Y-122957092D01*
X127409523Y-122861854D01*
X127409523Y-122671378D01*
X127361904Y-122576140D01*
X127314285Y-122528521D01*
X127219047Y-122480902D01*
G04 #@! TO.C,C7*
X138257142Y-76466666D02*
X138304761Y-76514285D01*
X138352380Y-76657142D01*
X138352380Y-76752380D01*
X138304761Y-76895238D01*
X138209523Y-76990476D01*
X138114285Y-77038095D01*
X137923809Y-77085714D01*
X137780952Y-77085714D01*
X137590476Y-77038095D01*
X137495238Y-76990476D01*
X137400000Y-76895238D01*
X137352380Y-76752380D01*
X137352380Y-76657142D01*
X137400000Y-76514285D01*
X137447619Y-76466666D01*
X137352380Y-76133333D02*
X137352380Y-75466666D01*
X138352380Y-75895238D01*
G04 #@! TO.C,C8*
X140933333Y-80257142D02*
X140885714Y-80304761D01*
X140742857Y-80352380D01*
X140647619Y-80352380D01*
X140504761Y-80304761D01*
X140409523Y-80209523D01*
X140361904Y-80114285D01*
X140314285Y-79923809D01*
X140314285Y-79780952D01*
X140361904Y-79590476D01*
X140409523Y-79495238D01*
X140504761Y-79400000D01*
X140647619Y-79352380D01*
X140742857Y-79352380D01*
X140885714Y-79400000D01*
X140933333Y-79447619D01*
X141504761Y-79780952D02*
X141409523Y-79733333D01*
X141361904Y-79685714D01*
X141314285Y-79590476D01*
X141314285Y-79542857D01*
X141361904Y-79447619D01*
X141409523Y-79400000D01*
X141504761Y-79352380D01*
X141695238Y-79352380D01*
X141790476Y-79400000D01*
X141838095Y-79447619D01*
X141885714Y-79542857D01*
X141885714Y-79590476D01*
X141838095Y-79685714D01*
X141790476Y-79733333D01*
X141695238Y-79780952D01*
X141504761Y-79780952D01*
X141409523Y-79828571D01*
X141361904Y-79876190D01*
X141314285Y-79971428D01*
X141314285Y-80161904D01*
X141361904Y-80257142D01*
X141409523Y-80304761D01*
X141504761Y-80352380D01*
X141695238Y-80352380D01*
X141790476Y-80304761D01*
X141838095Y-80257142D01*
X141885714Y-80161904D01*
X141885714Y-79971428D01*
X141838095Y-79876190D01*
X141790476Y-79828571D01*
X141695238Y-79780952D01*
G04 #@! TO.C,R6*
X166333333Y-71032380D02*
X166000000Y-70556190D01*
X165761904Y-71032380D02*
X165761904Y-70032380D01*
X166142857Y-70032380D01*
X166238095Y-70080000D01*
X166285714Y-70127619D01*
X166333333Y-70222857D01*
X166333333Y-70365714D01*
X166285714Y-70460952D01*
X166238095Y-70508571D01*
X166142857Y-70556190D01*
X165761904Y-70556190D01*
X167190476Y-70032380D02*
X167000000Y-70032380D01*
X166904761Y-70080000D01*
X166857142Y-70127619D01*
X166761904Y-70270476D01*
X166714285Y-70460952D01*
X166714285Y-70841904D01*
X166761904Y-70937142D01*
X166809523Y-70984761D01*
X166904761Y-71032380D01*
X167095238Y-71032380D01*
X167190476Y-70984761D01*
X167238095Y-70937142D01*
X167285714Y-70841904D01*
X167285714Y-70603809D01*
X167238095Y-70508571D01*
X167190476Y-70460952D01*
X167095238Y-70413333D01*
X166904761Y-70413333D01*
X166809523Y-70460952D01*
X166761904Y-70508571D01*
X166714285Y-70603809D01*
G04 #@! TO.C,R12*
X165857142Y-66752380D02*
X165523809Y-66276190D01*
X165285714Y-66752380D02*
X165285714Y-65752380D01*
X165666666Y-65752380D01*
X165761904Y-65800000D01*
X165809523Y-65847619D01*
X165857142Y-65942857D01*
X165857142Y-66085714D01*
X165809523Y-66180952D01*
X165761904Y-66228571D01*
X165666666Y-66276190D01*
X165285714Y-66276190D01*
X166809523Y-66752380D02*
X166238095Y-66752380D01*
X166523809Y-66752380D02*
X166523809Y-65752380D01*
X166428571Y-65895238D01*
X166333333Y-65990476D01*
X166238095Y-66038095D01*
X167190476Y-65847619D02*
X167238095Y-65800000D01*
X167333333Y-65752380D01*
X167571428Y-65752380D01*
X167666666Y-65800000D01*
X167714285Y-65847619D01*
X167761904Y-65942857D01*
X167761904Y-66038095D01*
X167714285Y-66180952D01*
X167142857Y-66752380D01*
X167761904Y-66752380D01*
G04 #@! TO.C,R18*
X152957142Y-86752380D02*
X152623809Y-86276190D01*
X152385714Y-86752380D02*
X152385714Y-85752380D01*
X152766666Y-85752380D01*
X152861904Y-85800000D01*
X152909523Y-85847619D01*
X152957142Y-85942857D01*
X152957142Y-86085714D01*
X152909523Y-86180952D01*
X152861904Y-86228571D01*
X152766666Y-86276190D01*
X152385714Y-86276190D01*
X153909523Y-86752380D02*
X153338095Y-86752380D01*
X153623809Y-86752380D02*
X153623809Y-85752380D01*
X153528571Y-85895238D01*
X153433333Y-85990476D01*
X153338095Y-86038095D01*
X154480952Y-86180952D02*
X154385714Y-86133333D01*
X154338095Y-86085714D01*
X154290476Y-85990476D01*
X154290476Y-85942857D01*
X154338095Y-85847619D01*
X154385714Y-85800000D01*
X154480952Y-85752380D01*
X154671428Y-85752380D01*
X154766666Y-85800000D01*
X154814285Y-85847619D01*
X154861904Y-85942857D01*
X154861904Y-85990476D01*
X154814285Y-86085714D01*
X154766666Y-86133333D01*
X154671428Y-86180952D01*
X154480952Y-86180952D01*
X154385714Y-86228571D01*
X154338095Y-86276190D01*
X154290476Y-86371428D01*
X154290476Y-86561904D01*
X154338095Y-86657142D01*
X154385714Y-86704761D01*
X154480952Y-86752380D01*
X154671428Y-86752380D01*
X154766666Y-86704761D01*
X154814285Y-86657142D01*
X154861904Y-86561904D01*
X154861904Y-86371428D01*
X154814285Y-86276190D01*
X154766666Y-86228571D01*
X154671428Y-86180952D01*
G04 #@! TO.C,U11*
X147461285Y-71137629D02*
X147461285Y-71947153D01*
X147508904Y-72042391D01*
X147556523Y-72090010D01*
X147651761Y-72137629D01*
X147842238Y-72137629D01*
X147937476Y-72090010D01*
X147985095Y-72042391D01*
X148032714Y-71947153D01*
X148032714Y-71137629D01*
X149032714Y-72137629D02*
X148461285Y-72137629D01*
X148747000Y-72137629D02*
X148747000Y-71137629D01*
X148651761Y-71280487D01*
X148556523Y-71375725D01*
X148461285Y-71423344D01*
X149985095Y-72137629D02*
X149413666Y-72137629D01*
X149699381Y-72137629D02*
X149699381Y-71137629D01*
X149604142Y-71280487D01*
X149508904Y-71375725D01*
X149413666Y-71423344D01*
G04 #@! TO.C,J4*
X157266666Y-55852380D02*
X157266666Y-56566666D01*
X157219047Y-56709523D01*
X157123809Y-56804761D01*
X156980952Y-56852380D01*
X156885714Y-56852380D01*
X158171428Y-56185714D02*
X158171428Y-56852380D01*
X157933333Y-55804761D02*
X157695238Y-56519047D01*
X158314285Y-56519047D01*
G04 #@! TO.C,J5*
X120066666Y-70952380D02*
X120066666Y-71666666D01*
X120019047Y-71809523D01*
X119923809Y-71904761D01*
X119780952Y-71952380D01*
X119685714Y-71952380D01*
X121019047Y-70952380D02*
X120542857Y-70952380D01*
X120495238Y-71428571D01*
X120542857Y-71380952D01*
X120638095Y-71333333D01*
X120876190Y-71333333D01*
X120971428Y-71380952D01*
X121019047Y-71428571D01*
X121066666Y-71523809D01*
X121066666Y-71761904D01*
X121019047Y-71857142D01*
X120971428Y-71904761D01*
X120876190Y-71952380D01*
X120638095Y-71952380D01*
X120542857Y-71904761D01*
X120495238Y-71857142D01*
G04 #@! TO.C,U2*
X165638095Y-84452380D02*
X165638095Y-85261904D01*
X165685714Y-85357142D01*
X165733333Y-85404761D01*
X165828571Y-85452380D01*
X166019047Y-85452380D01*
X166114285Y-85404761D01*
X166161904Y-85357142D01*
X166209523Y-85261904D01*
X166209523Y-84452380D01*
X166638095Y-84547619D02*
X166685714Y-84500000D01*
X166780952Y-84452380D01*
X167019047Y-84452380D01*
X167114285Y-84500000D01*
X167161904Y-84547619D01*
X167209523Y-84642857D01*
X167209523Y-84738095D01*
X167161904Y-84880952D01*
X166590476Y-85452380D01*
X167209523Y-85452380D01*
G04 #@! TO.C,R11*
X161507142Y-71032380D02*
X161173809Y-70556190D01*
X160935714Y-71032380D02*
X160935714Y-70032380D01*
X161316666Y-70032380D01*
X161411904Y-70080000D01*
X161459523Y-70127619D01*
X161507142Y-70222857D01*
X161507142Y-70365714D01*
X161459523Y-70460952D01*
X161411904Y-70508571D01*
X161316666Y-70556190D01*
X160935714Y-70556190D01*
X162459523Y-71032380D02*
X161888095Y-71032380D01*
X162173809Y-71032380D02*
X162173809Y-70032380D01*
X162078571Y-70175238D01*
X161983333Y-70270476D01*
X161888095Y-70318095D01*
X163411904Y-71032380D02*
X162840476Y-71032380D01*
X163126190Y-71032380D02*
X163126190Y-70032380D01*
X163030952Y-70175238D01*
X162935714Y-70270476D01*
X162840476Y-70318095D01*
G04 #@! TO.C,R17*
X161507142Y-66652380D02*
X161173809Y-66176190D01*
X160935714Y-66652380D02*
X160935714Y-65652380D01*
X161316666Y-65652380D01*
X161411904Y-65700000D01*
X161459523Y-65747619D01*
X161507142Y-65842857D01*
X161507142Y-65985714D01*
X161459523Y-66080952D01*
X161411904Y-66128571D01*
X161316666Y-66176190D01*
X160935714Y-66176190D01*
X162459523Y-66652380D02*
X161888095Y-66652380D01*
X162173809Y-66652380D02*
X162173809Y-65652380D01*
X162078571Y-65795238D01*
X161983333Y-65890476D01*
X161888095Y-65938095D01*
X162792857Y-65652380D02*
X163459523Y-65652380D01*
X163030952Y-66652380D01*
G04 #@! TD*
M02*
