G04 #@! TF.GenerationSoftware,KiCad,Pcbnew,(5.0.1)*
G04 #@! TF.CreationDate,2019-02-02T10:43:19+09:00*
G04 #@! TF.ProjectId,driver,6472697665722E6B696361645F706362,rev?*
G04 #@! TF.SameCoordinates,Original*
G04 #@! TF.FileFunction,Paste,Top*
G04 #@! TF.FilePolarity,Positive*
%FSLAX46Y46*%
G04 Gerber Fmt 4.6, Leading zero omitted, Abs format (unit mm)*
G04 Created by KiCad (PCBNEW (5.0.1)) date Sat Feb  2 10:43:19 2019*
%MOMM*%
%LPD*%
G01*
G04 APERTURE LIST*
%ADD10R,0.300000X1.400000*%
%ADD11R,1.450000X0.450000*%
%ADD12C,0.100000*%
%ADD13C,0.950000*%
%ADD14R,3.750000X4.700000*%
%ADD15R,2.950000X0.850000*%
%ADD16R,3.000000X0.850000*%
%ADD17R,1.200000X0.750000*%
%ADD18R,0.750000X1.200000*%
%ADD19R,2.300000X3.500000*%
%ADD20R,2.500000X2.100000*%
%ADD21R,1.500000X2.100000*%
%ADD22R,4.200000X2.400000*%
%ADD23C,1.425000*%
%ADD24C,1.525000*%
%ADD25R,0.650000X1.560000*%
%ADD26R,2.000000X3.800000*%
%ADD27R,2.000000X1.500000*%
%ADD28R,1.800000X2.100000*%
%ADD29R,1.550000X0.600000*%
%ADD30R,1.500000X0.600000*%
G04 APERTURE END LIST*
D10*
G04 #@! TO.C,U7*
X96000000Y-87800000D03*
X95500000Y-87800000D03*
X95000000Y-87800000D03*
X94500000Y-87800000D03*
X94000000Y-87800000D03*
X94000000Y-92200000D03*
X94500000Y-92200000D03*
X95000000Y-92200000D03*
X95500000Y-92200000D03*
X96000000Y-92200000D03*
G04 #@! TD*
D11*
G04 #@! TO.C,U6*
X119450000Y-75475000D03*
X119450000Y-76125000D03*
X119450000Y-76775000D03*
X119450000Y-77425000D03*
X119450000Y-78075000D03*
X119450000Y-78725000D03*
X119450000Y-79375000D03*
X119450000Y-80025000D03*
X119450000Y-80675000D03*
X119450000Y-81325000D03*
X125350000Y-81325000D03*
X125350000Y-80675000D03*
X125350000Y-80025000D03*
X125350000Y-79375000D03*
X125350000Y-78725000D03*
X125350000Y-78075000D03*
X125350000Y-77425000D03*
X125350000Y-76775000D03*
X125350000Y-76125000D03*
X125350000Y-75475000D03*
G04 #@! TD*
D12*
G04 #@! TO.C,R3*
G36*
X111035779Y-66626144D02*
X111058834Y-66629563D01*
X111081443Y-66635227D01*
X111103387Y-66643079D01*
X111124457Y-66653044D01*
X111144448Y-66665026D01*
X111163168Y-66678910D01*
X111180438Y-66694562D01*
X111196090Y-66711832D01*
X111209974Y-66730552D01*
X111221956Y-66750543D01*
X111231921Y-66771613D01*
X111239773Y-66793557D01*
X111245437Y-66816166D01*
X111248856Y-66839221D01*
X111250000Y-66862500D01*
X111250000Y-67337500D01*
X111248856Y-67360779D01*
X111245437Y-67383834D01*
X111239773Y-67406443D01*
X111231921Y-67428387D01*
X111221956Y-67449457D01*
X111209974Y-67469448D01*
X111196090Y-67488168D01*
X111180438Y-67505438D01*
X111163168Y-67521090D01*
X111144448Y-67534974D01*
X111124457Y-67546956D01*
X111103387Y-67556921D01*
X111081443Y-67564773D01*
X111058834Y-67570437D01*
X111035779Y-67573856D01*
X111012500Y-67575000D01*
X110437500Y-67575000D01*
X110414221Y-67573856D01*
X110391166Y-67570437D01*
X110368557Y-67564773D01*
X110346613Y-67556921D01*
X110325543Y-67546956D01*
X110305552Y-67534974D01*
X110286832Y-67521090D01*
X110269562Y-67505438D01*
X110253910Y-67488168D01*
X110240026Y-67469448D01*
X110228044Y-67449457D01*
X110218079Y-67428387D01*
X110210227Y-67406443D01*
X110204563Y-67383834D01*
X110201144Y-67360779D01*
X110200000Y-67337500D01*
X110200000Y-66862500D01*
X110201144Y-66839221D01*
X110204563Y-66816166D01*
X110210227Y-66793557D01*
X110218079Y-66771613D01*
X110228044Y-66750543D01*
X110240026Y-66730552D01*
X110253910Y-66711832D01*
X110269562Y-66694562D01*
X110286832Y-66678910D01*
X110305552Y-66665026D01*
X110325543Y-66653044D01*
X110346613Y-66643079D01*
X110368557Y-66635227D01*
X110391166Y-66629563D01*
X110414221Y-66626144D01*
X110437500Y-66625000D01*
X111012500Y-66625000D01*
X111035779Y-66626144D01*
X111035779Y-66626144D01*
G37*
D13*
X110725000Y-67100000D03*
D12*
G36*
X112785779Y-66626144D02*
X112808834Y-66629563D01*
X112831443Y-66635227D01*
X112853387Y-66643079D01*
X112874457Y-66653044D01*
X112894448Y-66665026D01*
X112913168Y-66678910D01*
X112930438Y-66694562D01*
X112946090Y-66711832D01*
X112959974Y-66730552D01*
X112971956Y-66750543D01*
X112981921Y-66771613D01*
X112989773Y-66793557D01*
X112995437Y-66816166D01*
X112998856Y-66839221D01*
X113000000Y-66862500D01*
X113000000Y-67337500D01*
X112998856Y-67360779D01*
X112995437Y-67383834D01*
X112989773Y-67406443D01*
X112981921Y-67428387D01*
X112971956Y-67449457D01*
X112959974Y-67469448D01*
X112946090Y-67488168D01*
X112930438Y-67505438D01*
X112913168Y-67521090D01*
X112894448Y-67534974D01*
X112874457Y-67546956D01*
X112853387Y-67556921D01*
X112831443Y-67564773D01*
X112808834Y-67570437D01*
X112785779Y-67573856D01*
X112762500Y-67575000D01*
X112187500Y-67575000D01*
X112164221Y-67573856D01*
X112141166Y-67570437D01*
X112118557Y-67564773D01*
X112096613Y-67556921D01*
X112075543Y-67546956D01*
X112055552Y-67534974D01*
X112036832Y-67521090D01*
X112019562Y-67505438D01*
X112003910Y-67488168D01*
X111990026Y-67469448D01*
X111978044Y-67449457D01*
X111968079Y-67428387D01*
X111960227Y-67406443D01*
X111954563Y-67383834D01*
X111951144Y-67360779D01*
X111950000Y-67337500D01*
X111950000Y-66862500D01*
X111951144Y-66839221D01*
X111954563Y-66816166D01*
X111960227Y-66793557D01*
X111968079Y-66771613D01*
X111978044Y-66750543D01*
X111990026Y-66730552D01*
X112003910Y-66711832D01*
X112019562Y-66694562D01*
X112036832Y-66678910D01*
X112055552Y-66665026D01*
X112075543Y-66653044D01*
X112096613Y-66643079D01*
X112118557Y-66635227D01*
X112141166Y-66629563D01*
X112164221Y-66626144D01*
X112187500Y-66625000D01*
X112762500Y-66625000D01*
X112785779Y-66626144D01*
X112785779Y-66626144D01*
G37*
D13*
X112475000Y-67100000D03*
G04 #@! TD*
D12*
G04 #@! TO.C,R39*
G36*
X135935779Y-82926144D02*
X135958834Y-82929563D01*
X135981443Y-82935227D01*
X136003387Y-82943079D01*
X136024457Y-82953044D01*
X136044448Y-82965026D01*
X136063168Y-82978910D01*
X136080438Y-82994562D01*
X136096090Y-83011832D01*
X136109974Y-83030552D01*
X136121956Y-83050543D01*
X136131921Y-83071613D01*
X136139773Y-83093557D01*
X136145437Y-83116166D01*
X136148856Y-83139221D01*
X136150000Y-83162500D01*
X136150000Y-83637500D01*
X136148856Y-83660779D01*
X136145437Y-83683834D01*
X136139773Y-83706443D01*
X136131921Y-83728387D01*
X136121956Y-83749457D01*
X136109974Y-83769448D01*
X136096090Y-83788168D01*
X136080438Y-83805438D01*
X136063168Y-83821090D01*
X136044448Y-83834974D01*
X136024457Y-83846956D01*
X136003387Y-83856921D01*
X135981443Y-83864773D01*
X135958834Y-83870437D01*
X135935779Y-83873856D01*
X135912500Y-83875000D01*
X135337500Y-83875000D01*
X135314221Y-83873856D01*
X135291166Y-83870437D01*
X135268557Y-83864773D01*
X135246613Y-83856921D01*
X135225543Y-83846956D01*
X135205552Y-83834974D01*
X135186832Y-83821090D01*
X135169562Y-83805438D01*
X135153910Y-83788168D01*
X135140026Y-83769448D01*
X135128044Y-83749457D01*
X135118079Y-83728387D01*
X135110227Y-83706443D01*
X135104563Y-83683834D01*
X135101144Y-83660779D01*
X135100000Y-83637500D01*
X135100000Y-83162500D01*
X135101144Y-83139221D01*
X135104563Y-83116166D01*
X135110227Y-83093557D01*
X135118079Y-83071613D01*
X135128044Y-83050543D01*
X135140026Y-83030552D01*
X135153910Y-83011832D01*
X135169562Y-82994562D01*
X135186832Y-82978910D01*
X135205552Y-82965026D01*
X135225543Y-82953044D01*
X135246613Y-82943079D01*
X135268557Y-82935227D01*
X135291166Y-82929563D01*
X135314221Y-82926144D01*
X135337500Y-82925000D01*
X135912500Y-82925000D01*
X135935779Y-82926144D01*
X135935779Y-82926144D01*
G37*
D13*
X135625000Y-83400000D03*
D12*
G36*
X137685779Y-82926144D02*
X137708834Y-82929563D01*
X137731443Y-82935227D01*
X137753387Y-82943079D01*
X137774457Y-82953044D01*
X137794448Y-82965026D01*
X137813168Y-82978910D01*
X137830438Y-82994562D01*
X137846090Y-83011832D01*
X137859974Y-83030552D01*
X137871956Y-83050543D01*
X137881921Y-83071613D01*
X137889773Y-83093557D01*
X137895437Y-83116166D01*
X137898856Y-83139221D01*
X137900000Y-83162500D01*
X137900000Y-83637500D01*
X137898856Y-83660779D01*
X137895437Y-83683834D01*
X137889773Y-83706443D01*
X137881921Y-83728387D01*
X137871956Y-83749457D01*
X137859974Y-83769448D01*
X137846090Y-83788168D01*
X137830438Y-83805438D01*
X137813168Y-83821090D01*
X137794448Y-83834974D01*
X137774457Y-83846956D01*
X137753387Y-83856921D01*
X137731443Y-83864773D01*
X137708834Y-83870437D01*
X137685779Y-83873856D01*
X137662500Y-83875000D01*
X137087500Y-83875000D01*
X137064221Y-83873856D01*
X137041166Y-83870437D01*
X137018557Y-83864773D01*
X136996613Y-83856921D01*
X136975543Y-83846956D01*
X136955552Y-83834974D01*
X136936832Y-83821090D01*
X136919562Y-83805438D01*
X136903910Y-83788168D01*
X136890026Y-83769448D01*
X136878044Y-83749457D01*
X136868079Y-83728387D01*
X136860227Y-83706443D01*
X136854563Y-83683834D01*
X136851144Y-83660779D01*
X136850000Y-83637500D01*
X136850000Y-83162500D01*
X136851144Y-83139221D01*
X136854563Y-83116166D01*
X136860227Y-83093557D01*
X136868079Y-83071613D01*
X136878044Y-83050543D01*
X136890026Y-83030552D01*
X136903910Y-83011832D01*
X136919562Y-82994562D01*
X136936832Y-82978910D01*
X136955552Y-82965026D01*
X136975543Y-82953044D01*
X136996613Y-82943079D01*
X137018557Y-82935227D01*
X137041166Y-82929563D01*
X137064221Y-82926144D01*
X137087500Y-82925000D01*
X137662500Y-82925000D01*
X137685779Y-82926144D01*
X137685779Y-82926144D01*
G37*
D13*
X137375000Y-83400000D03*
G04 #@! TD*
D14*
G04 #@! TO.C,Q1*
X129450000Y-100000000D03*
D15*
X133500000Y-101905000D03*
X133500000Y-100635000D03*
X133500000Y-99365000D03*
X133500000Y-98095000D03*
D16*
X126525000Y-98095000D03*
X126525000Y-99365000D03*
X126525000Y-100635000D03*
X126525000Y-101905000D03*
G04 #@! TD*
D14*
G04 #@! TO.C,Q2*
X129450000Y-140000000D03*
D15*
X133500000Y-141905000D03*
X133500000Y-140635000D03*
X133500000Y-139365000D03*
X133500000Y-138095000D03*
D16*
X126525000Y-138095000D03*
X126525000Y-139365000D03*
X126525000Y-140635000D03*
X126525000Y-141905000D03*
G04 #@! TD*
D14*
G04 #@! TO.C,Q3*
X130550000Y-113333300D03*
D15*
X126500000Y-111428300D03*
X126500000Y-112698300D03*
X126500000Y-113968300D03*
X126500000Y-115238300D03*
D16*
X133475000Y-115238300D03*
X133475000Y-113968300D03*
X133475000Y-112698300D03*
X133475000Y-111428300D03*
G04 #@! TD*
D14*
G04 #@! TO.C,Q4*
X130550000Y-126666700D03*
D15*
X126500000Y-124761700D03*
X126500000Y-126031700D03*
X126500000Y-127301700D03*
X126500000Y-128571700D03*
D16*
X133475000Y-128571700D03*
X133475000Y-127301700D03*
X133475000Y-126031700D03*
X133475000Y-124761700D03*
G04 #@! TD*
D17*
G04 #@! TO.C,C1*
X106750000Y-67100000D03*
X108650000Y-67100000D03*
G04 #@! TD*
G04 #@! TO.C,C4*
X85250000Y-67950000D03*
X83350000Y-67950000D03*
G04 #@! TD*
G04 #@! TO.C,C5*
X112524999Y-71174999D03*
X110624999Y-71174999D03*
G04 #@! TD*
D18*
G04 #@! TO.C,C12*
X128600000Y-77350000D03*
X128600000Y-79250000D03*
G04 #@! TD*
G04 #@! TO.C,C13*
X156000000Y-90850000D03*
X156000000Y-92750000D03*
G04 #@! TD*
D17*
G04 #@! TO.C,C14*
X92450000Y-93500000D03*
X90550000Y-93500000D03*
G04 #@! TD*
D18*
G04 #@! TO.C,C16*
X80750000Y-82700000D03*
X80750000Y-80800000D03*
G04 #@! TD*
D17*
G04 #@! TO.C,C17*
X95250000Y-77900000D03*
X93350000Y-77900000D03*
G04 #@! TD*
G04 #@! TO.C,C18*
X95250000Y-76100000D03*
X93350000Y-76100000D03*
G04 #@! TD*
G04 #@! TO.C,C20*
X114450000Y-80450000D03*
X112550000Y-80450000D03*
G04 #@! TD*
G04 #@! TO.C,C21*
X108850000Y-91500000D03*
X110750000Y-91500000D03*
G04 #@! TD*
D18*
G04 #@! TO.C,C22*
X109200000Y-77000000D03*
X109200000Y-75100000D03*
G04 #@! TD*
D17*
G04 #@! TO.C,C23*
X123650000Y-85900000D03*
X125550000Y-85900000D03*
G04 #@! TD*
G04 #@! TO.C,C24*
X140450000Y-94250000D03*
X138550000Y-94250000D03*
G04 #@! TD*
G04 #@! TO.C,C25*
X129950000Y-87900000D03*
X131850000Y-87900000D03*
G04 #@! TD*
G04 #@! TO.C,C26*
X145050000Y-87900000D03*
X146950000Y-87900000D03*
G04 #@! TD*
G04 #@! TO.C,C27*
X130000000Y-93300000D03*
X131900000Y-93300000D03*
G04 #@! TD*
G04 #@! TO.C,C28*
X146950000Y-93300000D03*
X145050000Y-93300000D03*
G04 #@! TD*
G04 #@! TO.C,C29*
X95250000Y-79800000D03*
X93350000Y-79800000D03*
G04 #@! TD*
D19*
G04 #@! TO.C,D1*
X102800000Y-67500000D03*
X102800000Y-72900000D03*
G04 #@! TD*
D20*
G04 #@! TO.C,D4*
X153670000Y-152000000D03*
D21*
X156330000Y-152000000D03*
G04 #@! TD*
G04 #@! TO.C,D5*
X86330000Y-152000000D03*
D20*
X83670000Y-152000000D03*
G04 #@! TD*
D21*
G04 #@! TO.C,D6*
X86330000Y-147000000D03*
D20*
X83670000Y-147000000D03*
G04 #@! TD*
G04 #@! TO.C,D7*
X153670000Y-147000000D03*
D21*
X156330000Y-147000000D03*
G04 #@! TD*
D22*
G04 #@! TO.C,L1*
X91000000Y-67650000D03*
X91000000Y-72150000D03*
G04 #@! TD*
D12*
G04 #@! TO.C,R2*
G36*
X108885779Y-68626144D02*
X108908834Y-68629563D01*
X108931443Y-68635227D01*
X108953387Y-68643079D01*
X108974457Y-68653044D01*
X108994448Y-68665026D01*
X109013168Y-68678910D01*
X109030438Y-68694562D01*
X109046090Y-68711832D01*
X109059974Y-68730552D01*
X109071956Y-68750543D01*
X109081921Y-68771613D01*
X109089773Y-68793557D01*
X109095437Y-68816166D01*
X109098856Y-68839221D01*
X109100000Y-68862500D01*
X109100000Y-69337500D01*
X109098856Y-69360779D01*
X109095437Y-69383834D01*
X109089773Y-69406443D01*
X109081921Y-69428387D01*
X109071956Y-69449457D01*
X109059974Y-69469448D01*
X109046090Y-69488168D01*
X109030438Y-69505438D01*
X109013168Y-69521090D01*
X108994448Y-69534974D01*
X108974457Y-69546956D01*
X108953387Y-69556921D01*
X108931443Y-69564773D01*
X108908834Y-69570437D01*
X108885779Y-69573856D01*
X108862500Y-69575000D01*
X108287500Y-69575000D01*
X108264221Y-69573856D01*
X108241166Y-69570437D01*
X108218557Y-69564773D01*
X108196613Y-69556921D01*
X108175543Y-69546956D01*
X108155552Y-69534974D01*
X108136832Y-69521090D01*
X108119562Y-69505438D01*
X108103910Y-69488168D01*
X108090026Y-69469448D01*
X108078044Y-69449457D01*
X108068079Y-69428387D01*
X108060227Y-69406443D01*
X108054563Y-69383834D01*
X108051144Y-69360779D01*
X108050000Y-69337500D01*
X108050000Y-68862500D01*
X108051144Y-68839221D01*
X108054563Y-68816166D01*
X108060227Y-68793557D01*
X108068079Y-68771613D01*
X108078044Y-68750543D01*
X108090026Y-68730552D01*
X108103910Y-68711832D01*
X108119562Y-68694562D01*
X108136832Y-68678910D01*
X108155552Y-68665026D01*
X108175543Y-68653044D01*
X108196613Y-68643079D01*
X108218557Y-68635227D01*
X108241166Y-68629563D01*
X108264221Y-68626144D01*
X108287500Y-68625000D01*
X108862500Y-68625000D01*
X108885779Y-68626144D01*
X108885779Y-68626144D01*
G37*
D13*
X108575000Y-69100000D03*
D12*
G36*
X107135779Y-68626144D02*
X107158834Y-68629563D01*
X107181443Y-68635227D01*
X107203387Y-68643079D01*
X107224457Y-68653044D01*
X107244448Y-68665026D01*
X107263168Y-68678910D01*
X107280438Y-68694562D01*
X107296090Y-68711832D01*
X107309974Y-68730552D01*
X107321956Y-68750543D01*
X107331921Y-68771613D01*
X107339773Y-68793557D01*
X107345437Y-68816166D01*
X107348856Y-68839221D01*
X107350000Y-68862500D01*
X107350000Y-69337500D01*
X107348856Y-69360779D01*
X107345437Y-69383834D01*
X107339773Y-69406443D01*
X107331921Y-69428387D01*
X107321956Y-69449457D01*
X107309974Y-69469448D01*
X107296090Y-69488168D01*
X107280438Y-69505438D01*
X107263168Y-69521090D01*
X107244448Y-69534974D01*
X107224457Y-69546956D01*
X107203387Y-69556921D01*
X107181443Y-69564773D01*
X107158834Y-69570437D01*
X107135779Y-69573856D01*
X107112500Y-69575000D01*
X106537500Y-69575000D01*
X106514221Y-69573856D01*
X106491166Y-69570437D01*
X106468557Y-69564773D01*
X106446613Y-69556921D01*
X106425543Y-69546956D01*
X106405552Y-69534974D01*
X106386832Y-69521090D01*
X106369562Y-69505438D01*
X106353910Y-69488168D01*
X106340026Y-69469448D01*
X106328044Y-69449457D01*
X106318079Y-69428387D01*
X106310227Y-69406443D01*
X106304563Y-69383834D01*
X106301144Y-69360779D01*
X106300000Y-69337500D01*
X106300000Y-68862500D01*
X106301144Y-68839221D01*
X106304563Y-68816166D01*
X106310227Y-68793557D01*
X106318079Y-68771613D01*
X106328044Y-68750543D01*
X106340026Y-68730552D01*
X106353910Y-68711832D01*
X106369562Y-68694562D01*
X106386832Y-68678910D01*
X106405552Y-68665026D01*
X106425543Y-68653044D01*
X106446613Y-68643079D01*
X106468557Y-68635227D01*
X106491166Y-68629563D01*
X106514221Y-68626144D01*
X106537500Y-68625000D01*
X107112500Y-68625000D01*
X107135779Y-68626144D01*
X107135779Y-68626144D01*
G37*
D13*
X106825000Y-69100000D03*
G04 #@! TD*
D12*
G04 #@! TO.C,R4*
G36*
X107160779Y-70601144D02*
X107183834Y-70604563D01*
X107206443Y-70610227D01*
X107228387Y-70618079D01*
X107249457Y-70628044D01*
X107269448Y-70640026D01*
X107288168Y-70653910D01*
X107305438Y-70669562D01*
X107321090Y-70686832D01*
X107334974Y-70705552D01*
X107346956Y-70725543D01*
X107356921Y-70746613D01*
X107364773Y-70768557D01*
X107370437Y-70791166D01*
X107373856Y-70814221D01*
X107375000Y-70837500D01*
X107375000Y-71412500D01*
X107373856Y-71435779D01*
X107370437Y-71458834D01*
X107364773Y-71481443D01*
X107356921Y-71503387D01*
X107346956Y-71524457D01*
X107334974Y-71544448D01*
X107321090Y-71563168D01*
X107305438Y-71580438D01*
X107288168Y-71596090D01*
X107269448Y-71609974D01*
X107249457Y-71621956D01*
X107228387Y-71631921D01*
X107206443Y-71639773D01*
X107183834Y-71645437D01*
X107160779Y-71648856D01*
X107137500Y-71650000D01*
X106662500Y-71650000D01*
X106639221Y-71648856D01*
X106616166Y-71645437D01*
X106593557Y-71639773D01*
X106571613Y-71631921D01*
X106550543Y-71621956D01*
X106530552Y-71609974D01*
X106511832Y-71596090D01*
X106494562Y-71580438D01*
X106478910Y-71563168D01*
X106465026Y-71544448D01*
X106453044Y-71524457D01*
X106443079Y-71503387D01*
X106435227Y-71481443D01*
X106429563Y-71458834D01*
X106426144Y-71435779D01*
X106425000Y-71412500D01*
X106425000Y-70837500D01*
X106426144Y-70814221D01*
X106429563Y-70791166D01*
X106435227Y-70768557D01*
X106443079Y-70746613D01*
X106453044Y-70725543D01*
X106465026Y-70705552D01*
X106478910Y-70686832D01*
X106494562Y-70669562D01*
X106511832Y-70653910D01*
X106530552Y-70640026D01*
X106550543Y-70628044D01*
X106571613Y-70618079D01*
X106593557Y-70610227D01*
X106616166Y-70604563D01*
X106639221Y-70601144D01*
X106662500Y-70600000D01*
X107137500Y-70600000D01*
X107160779Y-70601144D01*
X107160779Y-70601144D01*
G37*
D13*
X106900000Y-71125000D03*
D12*
G36*
X107160779Y-72351144D02*
X107183834Y-72354563D01*
X107206443Y-72360227D01*
X107228387Y-72368079D01*
X107249457Y-72378044D01*
X107269448Y-72390026D01*
X107288168Y-72403910D01*
X107305438Y-72419562D01*
X107321090Y-72436832D01*
X107334974Y-72455552D01*
X107346956Y-72475543D01*
X107356921Y-72496613D01*
X107364773Y-72518557D01*
X107370437Y-72541166D01*
X107373856Y-72564221D01*
X107375000Y-72587500D01*
X107375000Y-73162500D01*
X107373856Y-73185779D01*
X107370437Y-73208834D01*
X107364773Y-73231443D01*
X107356921Y-73253387D01*
X107346956Y-73274457D01*
X107334974Y-73294448D01*
X107321090Y-73313168D01*
X107305438Y-73330438D01*
X107288168Y-73346090D01*
X107269448Y-73359974D01*
X107249457Y-73371956D01*
X107228387Y-73381921D01*
X107206443Y-73389773D01*
X107183834Y-73395437D01*
X107160779Y-73398856D01*
X107137500Y-73400000D01*
X106662500Y-73400000D01*
X106639221Y-73398856D01*
X106616166Y-73395437D01*
X106593557Y-73389773D01*
X106571613Y-73381921D01*
X106550543Y-73371956D01*
X106530552Y-73359974D01*
X106511832Y-73346090D01*
X106494562Y-73330438D01*
X106478910Y-73313168D01*
X106465026Y-73294448D01*
X106453044Y-73274457D01*
X106443079Y-73253387D01*
X106435227Y-73231443D01*
X106429563Y-73208834D01*
X106426144Y-73185779D01*
X106425000Y-73162500D01*
X106425000Y-72587500D01*
X106426144Y-72564221D01*
X106429563Y-72541166D01*
X106435227Y-72518557D01*
X106443079Y-72496613D01*
X106453044Y-72475543D01*
X106465026Y-72455552D01*
X106478910Y-72436832D01*
X106494562Y-72419562D01*
X106511832Y-72403910D01*
X106530552Y-72390026D01*
X106550543Y-72378044D01*
X106571613Y-72368079D01*
X106593557Y-72360227D01*
X106616166Y-72354563D01*
X106639221Y-72351144D01*
X106662500Y-72350000D01*
X107137500Y-72350000D01*
X107160779Y-72351144D01*
X107160779Y-72351144D01*
G37*
D13*
X106900000Y-72875000D03*
G04 #@! TD*
D12*
G04 #@! TO.C,R5*
G36*
X111035779Y-68626144D02*
X111058834Y-68629563D01*
X111081443Y-68635227D01*
X111103387Y-68643079D01*
X111124457Y-68653044D01*
X111144448Y-68665026D01*
X111163168Y-68678910D01*
X111180438Y-68694562D01*
X111196090Y-68711832D01*
X111209974Y-68730552D01*
X111221956Y-68750543D01*
X111231921Y-68771613D01*
X111239773Y-68793557D01*
X111245437Y-68816166D01*
X111248856Y-68839221D01*
X111250000Y-68862500D01*
X111250000Y-69337500D01*
X111248856Y-69360779D01*
X111245437Y-69383834D01*
X111239773Y-69406443D01*
X111231921Y-69428387D01*
X111221956Y-69449457D01*
X111209974Y-69469448D01*
X111196090Y-69488168D01*
X111180438Y-69505438D01*
X111163168Y-69521090D01*
X111144448Y-69534974D01*
X111124457Y-69546956D01*
X111103387Y-69556921D01*
X111081443Y-69564773D01*
X111058834Y-69570437D01*
X111035779Y-69573856D01*
X111012500Y-69575000D01*
X110437500Y-69575000D01*
X110414221Y-69573856D01*
X110391166Y-69570437D01*
X110368557Y-69564773D01*
X110346613Y-69556921D01*
X110325543Y-69546956D01*
X110305552Y-69534974D01*
X110286832Y-69521090D01*
X110269562Y-69505438D01*
X110253910Y-69488168D01*
X110240026Y-69469448D01*
X110228044Y-69449457D01*
X110218079Y-69428387D01*
X110210227Y-69406443D01*
X110204563Y-69383834D01*
X110201144Y-69360779D01*
X110200000Y-69337500D01*
X110200000Y-68862500D01*
X110201144Y-68839221D01*
X110204563Y-68816166D01*
X110210227Y-68793557D01*
X110218079Y-68771613D01*
X110228044Y-68750543D01*
X110240026Y-68730552D01*
X110253910Y-68711832D01*
X110269562Y-68694562D01*
X110286832Y-68678910D01*
X110305552Y-68665026D01*
X110325543Y-68653044D01*
X110346613Y-68643079D01*
X110368557Y-68635227D01*
X110391166Y-68629563D01*
X110414221Y-68626144D01*
X110437500Y-68625000D01*
X111012500Y-68625000D01*
X111035779Y-68626144D01*
X111035779Y-68626144D01*
G37*
D13*
X110725000Y-69100000D03*
D12*
G36*
X112785779Y-68626144D02*
X112808834Y-68629563D01*
X112831443Y-68635227D01*
X112853387Y-68643079D01*
X112874457Y-68653044D01*
X112894448Y-68665026D01*
X112913168Y-68678910D01*
X112930438Y-68694562D01*
X112946090Y-68711832D01*
X112959974Y-68730552D01*
X112971956Y-68750543D01*
X112981921Y-68771613D01*
X112989773Y-68793557D01*
X112995437Y-68816166D01*
X112998856Y-68839221D01*
X113000000Y-68862500D01*
X113000000Y-69337500D01*
X112998856Y-69360779D01*
X112995437Y-69383834D01*
X112989773Y-69406443D01*
X112981921Y-69428387D01*
X112971956Y-69449457D01*
X112959974Y-69469448D01*
X112946090Y-69488168D01*
X112930438Y-69505438D01*
X112913168Y-69521090D01*
X112894448Y-69534974D01*
X112874457Y-69546956D01*
X112853387Y-69556921D01*
X112831443Y-69564773D01*
X112808834Y-69570437D01*
X112785779Y-69573856D01*
X112762500Y-69575000D01*
X112187500Y-69575000D01*
X112164221Y-69573856D01*
X112141166Y-69570437D01*
X112118557Y-69564773D01*
X112096613Y-69556921D01*
X112075543Y-69546956D01*
X112055552Y-69534974D01*
X112036832Y-69521090D01*
X112019562Y-69505438D01*
X112003910Y-69488168D01*
X111990026Y-69469448D01*
X111978044Y-69449457D01*
X111968079Y-69428387D01*
X111960227Y-69406443D01*
X111954563Y-69383834D01*
X111951144Y-69360779D01*
X111950000Y-69337500D01*
X111950000Y-68862500D01*
X111951144Y-68839221D01*
X111954563Y-68816166D01*
X111960227Y-68793557D01*
X111968079Y-68771613D01*
X111978044Y-68750543D01*
X111990026Y-68730552D01*
X112003910Y-68711832D01*
X112019562Y-68694562D01*
X112036832Y-68678910D01*
X112055552Y-68665026D01*
X112075543Y-68653044D01*
X112096613Y-68643079D01*
X112118557Y-68635227D01*
X112141166Y-68629563D01*
X112164221Y-68626144D01*
X112187500Y-68625000D01*
X112762500Y-68625000D01*
X112785779Y-68626144D01*
X112785779Y-68626144D01*
G37*
D13*
X112475000Y-69100000D03*
G04 #@! TD*
D12*
G04 #@! TO.C,R7*
G36*
X72199504Y-81126204D02*
X72223773Y-81129804D01*
X72247571Y-81135765D01*
X72270671Y-81144030D01*
X72292849Y-81154520D01*
X72313893Y-81167133D01*
X72333598Y-81181747D01*
X72351777Y-81198223D01*
X72368253Y-81216402D01*
X72382867Y-81236107D01*
X72395480Y-81257151D01*
X72405970Y-81279329D01*
X72414235Y-81302429D01*
X72420196Y-81326227D01*
X72423796Y-81350496D01*
X72425000Y-81375000D01*
X72425000Y-82625000D01*
X72423796Y-82649504D01*
X72420196Y-82673773D01*
X72414235Y-82697571D01*
X72405970Y-82720671D01*
X72395480Y-82742849D01*
X72382867Y-82763893D01*
X72368253Y-82783598D01*
X72351777Y-82801777D01*
X72333598Y-82818253D01*
X72313893Y-82832867D01*
X72292849Y-82845480D01*
X72270671Y-82855970D01*
X72247571Y-82864235D01*
X72223773Y-82870196D01*
X72199504Y-82873796D01*
X72175000Y-82875000D01*
X71250000Y-82875000D01*
X71225496Y-82873796D01*
X71201227Y-82870196D01*
X71177429Y-82864235D01*
X71154329Y-82855970D01*
X71132151Y-82845480D01*
X71111107Y-82832867D01*
X71091402Y-82818253D01*
X71073223Y-82801777D01*
X71056747Y-82783598D01*
X71042133Y-82763893D01*
X71029520Y-82742849D01*
X71019030Y-82720671D01*
X71010765Y-82697571D01*
X71004804Y-82673773D01*
X71001204Y-82649504D01*
X71000000Y-82625000D01*
X71000000Y-81375000D01*
X71001204Y-81350496D01*
X71004804Y-81326227D01*
X71010765Y-81302429D01*
X71019030Y-81279329D01*
X71029520Y-81257151D01*
X71042133Y-81236107D01*
X71056747Y-81216402D01*
X71073223Y-81198223D01*
X71091402Y-81181747D01*
X71111107Y-81167133D01*
X71132151Y-81154520D01*
X71154329Y-81144030D01*
X71177429Y-81135765D01*
X71201227Y-81129804D01*
X71225496Y-81126204D01*
X71250000Y-81125000D01*
X72175000Y-81125000D01*
X72199504Y-81126204D01*
X72199504Y-81126204D01*
G37*
D23*
X71712500Y-82000000D03*
D12*
G36*
X75174504Y-81126204D02*
X75198773Y-81129804D01*
X75222571Y-81135765D01*
X75245671Y-81144030D01*
X75267849Y-81154520D01*
X75288893Y-81167133D01*
X75308598Y-81181747D01*
X75326777Y-81198223D01*
X75343253Y-81216402D01*
X75357867Y-81236107D01*
X75370480Y-81257151D01*
X75380970Y-81279329D01*
X75389235Y-81302429D01*
X75395196Y-81326227D01*
X75398796Y-81350496D01*
X75400000Y-81375000D01*
X75400000Y-82625000D01*
X75398796Y-82649504D01*
X75395196Y-82673773D01*
X75389235Y-82697571D01*
X75380970Y-82720671D01*
X75370480Y-82742849D01*
X75357867Y-82763893D01*
X75343253Y-82783598D01*
X75326777Y-82801777D01*
X75308598Y-82818253D01*
X75288893Y-82832867D01*
X75267849Y-82845480D01*
X75245671Y-82855970D01*
X75222571Y-82864235D01*
X75198773Y-82870196D01*
X75174504Y-82873796D01*
X75150000Y-82875000D01*
X74225000Y-82875000D01*
X74200496Y-82873796D01*
X74176227Y-82870196D01*
X74152429Y-82864235D01*
X74129329Y-82855970D01*
X74107151Y-82845480D01*
X74086107Y-82832867D01*
X74066402Y-82818253D01*
X74048223Y-82801777D01*
X74031747Y-82783598D01*
X74017133Y-82763893D01*
X74004520Y-82742849D01*
X73994030Y-82720671D01*
X73985765Y-82697571D01*
X73979804Y-82673773D01*
X73976204Y-82649504D01*
X73975000Y-82625000D01*
X73975000Y-81375000D01*
X73976204Y-81350496D01*
X73979804Y-81326227D01*
X73985765Y-81302429D01*
X73994030Y-81279329D01*
X74004520Y-81257151D01*
X74017133Y-81236107D01*
X74031747Y-81216402D01*
X74048223Y-81198223D01*
X74066402Y-81181747D01*
X74086107Y-81167133D01*
X74107151Y-81154520D01*
X74129329Y-81144030D01*
X74152429Y-81135765D01*
X74176227Y-81129804D01*
X74200496Y-81126204D01*
X74225000Y-81125000D01*
X75150000Y-81125000D01*
X75174504Y-81126204D01*
X75174504Y-81126204D01*
G37*
D23*
X74687500Y-82000000D03*
G04 #@! TD*
D12*
G04 #@! TO.C,R8*
G36*
X116235779Y-92676144D02*
X116258834Y-92679563D01*
X116281443Y-92685227D01*
X116303387Y-92693079D01*
X116324457Y-92703044D01*
X116344448Y-92715026D01*
X116363168Y-92728910D01*
X116380438Y-92744562D01*
X116396090Y-92761832D01*
X116409974Y-92780552D01*
X116421956Y-92800543D01*
X116431921Y-92821613D01*
X116439773Y-92843557D01*
X116445437Y-92866166D01*
X116448856Y-92889221D01*
X116450000Y-92912500D01*
X116450000Y-93387500D01*
X116448856Y-93410779D01*
X116445437Y-93433834D01*
X116439773Y-93456443D01*
X116431921Y-93478387D01*
X116421956Y-93499457D01*
X116409974Y-93519448D01*
X116396090Y-93538168D01*
X116380438Y-93555438D01*
X116363168Y-93571090D01*
X116344448Y-93584974D01*
X116324457Y-93596956D01*
X116303387Y-93606921D01*
X116281443Y-93614773D01*
X116258834Y-93620437D01*
X116235779Y-93623856D01*
X116212500Y-93625000D01*
X115637500Y-93625000D01*
X115614221Y-93623856D01*
X115591166Y-93620437D01*
X115568557Y-93614773D01*
X115546613Y-93606921D01*
X115525543Y-93596956D01*
X115505552Y-93584974D01*
X115486832Y-93571090D01*
X115469562Y-93555438D01*
X115453910Y-93538168D01*
X115440026Y-93519448D01*
X115428044Y-93499457D01*
X115418079Y-93478387D01*
X115410227Y-93456443D01*
X115404563Y-93433834D01*
X115401144Y-93410779D01*
X115400000Y-93387500D01*
X115400000Y-92912500D01*
X115401144Y-92889221D01*
X115404563Y-92866166D01*
X115410227Y-92843557D01*
X115418079Y-92821613D01*
X115428044Y-92800543D01*
X115440026Y-92780552D01*
X115453910Y-92761832D01*
X115469562Y-92744562D01*
X115486832Y-92728910D01*
X115505552Y-92715026D01*
X115525543Y-92703044D01*
X115546613Y-92693079D01*
X115568557Y-92685227D01*
X115591166Y-92679563D01*
X115614221Y-92676144D01*
X115637500Y-92675000D01*
X116212500Y-92675000D01*
X116235779Y-92676144D01*
X116235779Y-92676144D01*
G37*
D13*
X115925000Y-93150000D03*
D12*
G36*
X117985779Y-92676144D02*
X118008834Y-92679563D01*
X118031443Y-92685227D01*
X118053387Y-92693079D01*
X118074457Y-92703044D01*
X118094448Y-92715026D01*
X118113168Y-92728910D01*
X118130438Y-92744562D01*
X118146090Y-92761832D01*
X118159974Y-92780552D01*
X118171956Y-92800543D01*
X118181921Y-92821613D01*
X118189773Y-92843557D01*
X118195437Y-92866166D01*
X118198856Y-92889221D01*
X118200000Y-92912500D01*
X118200000Y-93387500D01*
X118198856Y-93410779D01*
X118195437Y-93433834D01*
X118189773Y-93456443D01*
X118181921Y-93478387D01*
X118171956Y-93499457D01*
X118159974Y-93519448D01*
X118146090Y-93538168D01*
X118130438Y-93555438D01*
X118113168Y-93571090D01*
X118094448Y-93584974D01*
X118074457Y-93596956D01*
X118053387Y-93606921D01*
X118031443Y-93614773D01*
X118008834Y-93620437D01*
X117985779Y-93623856D01*
X117962500Y-93625000D01*
X117387500Y-93625000D01*
X117364221Y-93623856D01*
X117341166Y-93620437D01*
X117318557Y-93614773D01*
X117296613Y-93606921D01*
X117275543Y-93596956D01*
X117255552Y-93584974D01*
X117236832Y-93571090D01*
X117219562Y-93555438D01*
X117203910Y-93538168D01*
X117190026Y-93519448D01*
X117178044Y-93499457D01*
X117168079Y-93478387D01*
X117160227Y-93456443D01*
X117154563Y-93433834D01*
X117151144Y-93410779D01*
X117150000Y-93387500D01*
X117150000Y-92912500D01*
X117151144Y-92889221D01*
X117154563Y-92866166D01*
X117160227Y-92843557D01*
X117168079Y-92821613D01*
X117178044Y-92800543D01*
X117190026Y-92780552D01*
X117203910Y-92761832D01*
X117219562Y-92744562D01*
X117236832Y-92728910D01*
X117255552Y-92715026D01*
X117275543Y-92703044D01*
X117296613Y-92693079D01*
X117318557Y-92685227D01*
X117341166Y-92679563D01*
X117364221Y-92676144D01*
X117387500Y-92675000D01*
X117962500Y-92675000D01*
X117985779Y-92676144D01*
X117985779Y-92676144D01*
G37*
D13*
X117675000Y-93150000D03*
G04 #@! TD*
D12*
G04 #@! TO.C,R9*
G36*
X115335779Y-91026144D02*
X115358834Y-91029563D01*
X115381443Y-91035227D01*
X115403387Y-91043079D01*
X115424457Y-91053044D01*
X115444448Y-91065026D01*
X115463168Y-91078910D01*
X115480438Y-91094562D01*
X115496090Y-91111832D01*
X115509974Y-91130552D01*
X115521956Y-91150543D01*
X115531921Y-91171613D01*
X115539773Y-91193557D01*
X115545437Y-91216166D01*
X115548856Y-91239221D01*
X115550000Y-91262500D01*
X115550000Y-91737500D01*
X115548856Y-91760779D01*
X115545437Y-91783834D01*
X115539773Y-91806443D01*
X115531921Y-91828387D01*
X115521956Y-91849457D01*
X115509974Y-91869448D01*
X115496090Y-91888168D01*
X115480438Y-91905438D01*
X115463168Y-91921090D01*
X115444448Y-91934974D01*
X115424457Y-91946956D01*
X115403387Y-91956921D01*
X115381443Y-91964773D01*
X115358834Y-91970437D01*
X115335779Y-91973856D01*
X115312500Y-91975000D01*
X114737500Y-91975000D01*
X114714221Y-91973856D01*
X114691166Y-91970437D01*
X114668557Y-91964773D01*
X114646613Y-91956921D01*
X114625543Y-91946956D01*
X114605552Y-91934974D01*
X114586832Y-91921090D01*
X114569562Y-91905438D01*
X114553910Y-91888168D01*
X114540026Y-91869448D01*
X114528044Y-91849457D01*
X114518079Y-91828387D01*
X114510227Y-91806443D01*
X114504563Y-91783834D01*
X114501144Y-91760779D01*
X114500000Y-91737500D01*
X114500000Y-91262500D01*
X114501144Y-91239221D01*
X114504563Y-91216166D01*
X114510227Y-91193557D01*
X114518079Y-91171613D01*
X114528044Y-91150543D01*
X114540026Y-91130552D01*
X114553910Y-91111832D01*
X114569562Y-91094562D01*
X114586832Y-91078910D01*
X114605552Y-91065026D01*
X114625543Y-91053044D01*
X114646613Y-91043079D01*
X114668557Y-91035227D01*
X114691166Y-91029563D01*
X114714221Y-91026144D01*
X114737500Y-91025000D01*
X115312500Y-91025000D01*
X115335779Y-91026144D01*
X115335779Y-91026144D01*
G37*
D13*
X115025000Y-91500000D03*
D12*
G36*
X113585779Y-91026144D02*
X113608834Y-91029563D01*
X113631443Y-91035227D01*
X113653387Y-91043079D01*
X113674457Y-91053044D01*
X113694448Y-91065026D01*
X113713168Y-91078910D01*
X113730438Y-91094562D01*
X113746090Y-91111832D01*
X113759974Y-91130552D01*
X113771956Y-91150543D01*
X113781921Y-91171613D01*
X113789773Y-91193557D01*
X113795437Y-91216166D01*
X113798856Y-91239221D01*
X113800000Y-91262500D01*
X113800000Y-91737500D01*
X113798856Y-91760779D01*
X113795437Y-91783834D01*
X113789773Y-91806443D01*
X113781921Y-91828387D01*
X113771956Y-91849457D01*
X113759974Y-91869448D01*
X113746090Y-91888168D01*
X113730438Y-91905438D01*
X113713168Y-91921090D01*
X113694448Y-91934974D01*
X113674457Y-91946956D01*
X113653387Y-91956921D01*
X113631443Y-91964773D01*
X113608834Y-91970437D01*
X113585779Y-91973856D01*
X113562500Y-91975000D01*
X112987500Y-91975000D01*
X112964221Y-91973856D01*
X112941166Y-91970437D01*
X112918557Y-91964773D01*
X112896613Y-91956921D01*
X112875543Y-91946956D01*
X112855552Y-91934974D01*
X112836832Y-91921090D01*
X112819562Y-91905438D01*
X112803910Y-91888168D01*
X112790026Y-91869448D01*
X112778044Y-91849457D01*
X112768079Y-91828387D01*
X112760227Y-91806443D01*
X112754563Y-91783834D01*
X112751144Y-91760779D01*
X112750000Y-91737500D01*
X112750000Y-91262500D01*
X112751144Y-91239221D01*
X112754563Y-91216166D01*
X112760227Y-91193557D01*
X112768079Y-91171613D01*
X112778044Y-91150543D01*
X112790026Y-91130552D01*
X112803910Y-91111832D01*
X112819562Y-91094562D01*
X112836832Y-91078910D01*
X112855552Y-91065026D01*
X112875543Y-91053044D01*
X112896613Y-91043079D01*
X112918557Y-91035227D01*
X112941166Y-91029563D01*
X112964221Y-91026144D01*
X112987500Y-91025000D01*
X113562500Y-91025000D01*
X113585779Y-91026144D01*
X113585779Y-91026144D01*
G37*
D13*
X113275000Y-91500000D03*
G04 #@! TD*
D12*
G04 #@! TO.C,R10*
G36*
X110060779Y-79201144D02*
X110083834Y-79204563D01*
X110106443Y-79210227D01*
X110128387Y-79218079D01*
X110149457Y-79228044D01*
X110169448Y-79240026D01*
X110188168Y-79253910D01*
X110205438Y-79269562D01*
X110221090Y-79286832D01*
X110234974Y-79305552D01*
X110246956Y-79325543D01*
X110256921Y-79346613D01*
X110264773Y-79368557D01*
X110270437Y-79391166D01*
X110273856Y-79414221D01*
X110275000Y-79437500D01*
X110275000Y-80012500D01*
X110273856Y-80035779D01*
X110270437Y-80058834D01*
X110264773Y-80081443D01*
X110256921Y-80103387D01*
X110246956Y-80124457D01*
X110234974Y-80144448D01*
X110221090Y-80163168D01*
X110205438Y-80180438D01*
X110188168Y-80196090D01*
X110169448Y-80209974D01*
X110149457Y-80221956D01*
X110128387Y-80231921D01*
X110106443Y-80239773D01*
X110083834Y-80245437D01*
X110060779Y-80248856D01*
X110037500Y-80250000D01*
X109562500Y-80250000D01*
X109539221Y-80248856D01*
X109516166Y-80245437D01*
X109493557Y-80239773D01*
X109471613Y-80231921D01*
X109450543Y-80221956D01*
X109430552Y-80209974D01*
X109411832Y-80196090D01*
X109394562Y-80180438D01*
X109378910Y-80163168D01*
X109365026Y-80144448D01*
X109353044Y-80124457D01*
X109343079Y-80103387D01*
X109335227Y-80081443D01*
X109329563Y-80058834D01*
X109326144Y-80035779D01*
X109325000Y-80012500D01*
X109325000Y-79437500D01*
X109326144Y-79414221D01*
X109329563Y-79391166D01*
X109335227Y-79368557D01*
X109343079Y-79346613D01*
X109353044Y-79325543D01*
X109365026Y-79305552D01*
X109378910Y-79286832D01*
X109394562Y-79269562D01*
X109411832Y-79253910D01*
X109430552Y-79240026D01*
X109450543Y-79228044D01*
X109471613Y-79218079D01*
X109493557Y-79210227D01*
X109516166Y-79204563D01*
X109539221Y-79201144D01*
X109562500Y-79200000D01*
X110037500Y-79200000D01*
X110060779Y-79201144D01*
X110060779Y-79201144D01*
G37*
D13*
X109800000Y-79725000D03*
D12*
G36*
X110060779Y-80951144D02*
X110083834Y-80954563D01*
X110106443Y-80960227D01*
X110128387Y-80968079D01*
X110149457Y-80978044D01*
X110169448Y-80990026D01*
X110188168Y-81003910D01*
X110205438Y-81019562D01*
X110221090Y-81036832D01*
X110234974Y-81055552D01*
X110246956Y-81075543D01*
X110256921Y-81096613D01*
X110264773Y-81118557D01*
X110270437Y-81141166D01*
X110273856Y-81164221D01*
X110275000Y-81187500D01*
X110275000Y-81762500D01*
X110273856Y-81785779D01*
X110270437Y-81808834D01*
X110264773Y-81831443D01*
X110256921Y-81853387D01*
X110246956Y-81874457D01*
X110234974Y-81894448D01*
X110221090Y-81913168D01*
X110205438Y-81930438D01*
X110188168Y-81946090D01*
X110169448Y-81959974D01*
X110149457Y-81971956D01*
X110128387Y-81981921D01*
X110106443Y-81989773D01*
X110083834Y-81995437D01*
X110060779Y-81998856D01*
X110037500Y-82000000D01*
X109562500Y-82000000D01*
X109539221Y-81998856D01*
X109516166Y-81995437D01*
X109493557Y-81989773D01*
X109471613Y-81981921D01*
X109450543Y-81971956D01*
X109430552Y-81959974D01*
X109411832Y-81946090D01*
X109394562Y-81930438D01*
X109378910Y-81913168D01*
X109365026Y-81894448D01*
X109353044Y-81874457D01*
X109343079Y-81853387D01*
X109335227Y-81831443D01*
X109329563Y-81808834D01*
X109326144Y-81785779D01*
X109325000Y-81762500D01*
X109325000Y-81187500D01*
X109326144Y-81164221D01*
X109329563Y-81141166D01*
X109335227Y-81118557D01*
X109343079Y-81096613D01*
X109353044Y-81075543D01*
X109365026Y-81055552D01*
X109378910Y-81036832D01*
X109394562Y-81019562D01*
X109411832Y-81003910D01*
X109430552Y-80990026D01*
X109450543Y-80978044D01*
X109471613Y-80968079D01*
X109493557Y-80960227D01*
X109516166Y-80954563D01*
X109539221Y-80951144D01*
X109562500Y-80950000D01*
X110037500Y-80950000D01*
X110060779Y-80951144D01*
X110060779Y-80951144D01*
G37*
D13*
X109800000Y-81475000D03*
G04 #@! TD*
D12*
G04 #@! TO.C,R13*
G36*
X158610779Y-147351144D02*
X158633834Y-147354563D01*
X158656443Y-147360227D01*
X158678387Y-147368079D01*
X158699457Y-147378044D01*
X158719448Y-147390026D01*
X158738168Y-147403910D01*
X158755438Y-147419562D01*
X158771090Y-147436832D01*
X158784974Y-147455552D01*
X158796956Y-147475543D01*
X158806921Y-147496613D01*
X158814773Y-147518557D01*
X158820437Y-147541166D01*
X158823856Y-147564221D01*
X158825000Y-147587500D01*
X158825000Y-148162500D01*
X158823856Y-148185779D01*
X158820437Y-148208834D01*
X158814773Y-148231443D01*
X158806921Y-148253387D01*
X158796956Y-148274457D01*
X158784974Y-148294448D01*
X158771090Y-148313168D01*
X158755438Y-148330438D01*
X158738168Y-148346090D01*
X158719448Y-148359974D01*
X158699457Y-148371956D01*
X158678387Y-148381921D01*
X158656443Y-148389773D01*
X158633834Y-148395437D01*
X158610779Y-148398856D01*
X158587500Y-148400000D01*
X158112500Y-148400000D01*
X158089221Y-148398856D01*
X158066166Y-148395437D01*
X158043557Y-148389773D01*
X158021613Y-148381921D01*
X158000543Y-148371956D01*
X157980552Y-148359974D01*
X157961832Y-148346090D01*
X157944562Y-148330438D01*
X157928910Y-148313168D01*
X157915026Y-148294448D01*
X157903044Y-148274457D01*
X157893079Y-148253387D01*
X157885227Y-148231443D01*
X157879563Y-148208834D01*
X157876144Y-148185779D01*
X157875000Y-148162500D01*
X157875000Y-147587500D01*
X157876144Y-147564221D01*
X157879563Y-147541166D01*
X157885227Y-147518557D01*
X157893079Y-147496613D01*
X157903044Y-147475543D01*
X157915026Y-147455552D01*
X157928910Y-147436832D01*
X157944562Y-147419562D01*
X157961832Y-147403910D01*
X157980552Y-147390026D01*
X158000543Y-147378044D01*
X158021613Y-147368079D01*
X158043557Y-147360227D01*
X158066166Y-147354563D01*
X158089221Y-147351144D01*
X158112500Y-147350000D01*
X158587500Y-147350000D01*
X158610779Y-147351144D01*
X158610779Y-147351144D01*
G37*
D13*
X158350000Y-147875000D03*
D12*
G36*
X158610779Y-145601144D02*
X158633834Y-145604563D01*
X158656443Y-145610227D01*
X158678387Y-145618079D01*
X158699457Y-145628044D01*
X158719448Y-145640026D01*
X158738168Y-145653910D01*
X158755438Y-145669562D01*
X158771090Y-145686832D01*
X158784974Y-145705552D01*
X158796956Y-145725543D01*
X158806921Y-145746613D01*
X158814773Y-145768557D01*
X158820437Y-145791166D01*
X158823856Y-145814221D01*
X158825000Y-145837500D01*
X158825000Y-146412500D01*
X158823856Y-146435779D01*
X158820437Y-146458834D01*
X158814773Y-146481443D01*
X158806921Y-146503387D01*
X158796956Y-146524457D01*
X158784974Y-146544448D01*
X158771090Y-146563168D01*
X158755438Y-146580438D01*
X158738168Y-146596090D01*
X158719448Y-146609974D01*
X158699457Y-146621956D01*
X158678387Y-146631921D01*
X158656443Y-146639773D01*
X158633834Y-146645437D01*
X158610779Y-146648856D01*
X158587500Y-146650000D01*
X158112500Y-146650000D01*
X158089221Y-146648856D01*
X158066166Y-146645437D01*
X158043557Y-146639773D01*
X158021613Y-146631921D01*
X158000543Y-146621956D01*
X157980552Y-146609974D01*
X157961832Y-146596090D01*
X157944562Y-146580438D01*
X157928910Y-146563168D01*
X157915026Y-146544448D01*
X157903044Y-146524457D01*
X157893079Y-146503387D01*
X157885227Y-146481443D01*
X157879563Y-146458834D01*
X157876144Y-146435779D01*
X157875000Y-146412500D01*
X157875000Y-145837500D01*
X157876144Y-145814221D01*
X157879563Y-145791166D01*
X157885227Y-145768557D01*
X157893079Y-145746613D01*
X157903044Y-145725543D01*
X157915026Y-145705552D01*
X157928910Y-145686832D01*
X157944562Y-145669562D01*
X157961832Y-145653910D01*
X157980552Y-145640026D01*
X158000543Y-145628044D01*
X158021613Y-145618079D01*
X158043557Y-145610227D01*
X158066166Y-145604563D01*
X158089221Y-145601144D01*
X158112500Y-145600000D01*
X158587500Y-145600000D01*
X158610779Y-145601144D01*
X158610779Y-145601144D01*
G37*
D13*
X158350000Y-146125000D03*
G04 #@! TD*
D12*
G04 #@! TO.C,R14*
G36*
X81310779Y-150601144D02*
X81333834Y-150604563D01*
X81356443Y-150610227D01*
X81378387Y-150618079D01*
X81399457Y-150628044D01*
X81419448Y-150640026D01*
X81438168Y-150653910D01*
X81455438Y-150669562D01*
X81471090Y-150686832D01*
X81484974Y-150705552D01*
X81496956Y-150725543D01*
X81506921Y-150746613D01*
X81514773Y-150768557D01*
X81520437Y-150791166D01*
X81523856Y-150814221D01*
X81525000Y-150837500D01*
X81525000Y-151412500D01*
X81523856Y-151435779D01*
X81520437Y-151458834D01*
X81514773Y-151481443D01*
X81506921Y-151503387D01*
X81496956Y-151524457D01*
X81484974Y-151544448D01*
X81471090Y-151563168D01*
X81455438Y-151580438D01*
X81438168Y-151596090D01*
X81419448Y-151609974D01*
X81399457Y-151621956D01*
X81378387Y-151631921D01*
X81356443Y-151639773D01*
X81333834Y-151645437D01*
X81310779Y-151648856D01*
X81287500Y-151650000D01*
X80812500Y-151650000D01*
X80789221Y-151648856D01*
X80766166Y-151645437D01*
X80743557Y-151639773D01*
X80721613Y-151631921D01*
X80700543Y-151621956D01*
X80680552Y-151609974D01*
X80661832Y-151596090D01*
X80644562Y-151580438D01*
X80628910Y-151563168D01*
X80615026Y-151544448D01*
X80603044Y-151524457D01*
X80593079Y-151503387D01*
X80585227Y-151481443D01*
X80579563Y-151458834D01*
X80576144Y-151435779D01*
X80575000Y-151412500D01*
X80575000Y-150837500D01*
X80576144Y-150814221D01*
X80579563Y-150791166D01*
X80585227Y-150768557D01*
X80593079Y-150746613D01*
X80603044Y-150725543D01*
X80615026Y-150705552D01*
X80628910Y-150686832D01*
X80644562Y-150669562D01*
X80661832Y-150653910D01*
X80680552Y-150640026D01*
X80700543Y-150628044D01*
X80721613Y-150618079D01*
X80743557Y-150610227D01*
X80766166Y-150604563D01*
X80789221Y-150601144D01*
X80812500Y-150600000D01*
X81287500Y-150600000D01*
X81310779Y-150601144D01*
X81310779Y-150601144D01*
G37*
D13*
X81050000Y-151125000D03*
D12*
G36*
X81310779Y-152351144D02*
X81333834Y-152354563D01*
X81356443Y-152360227D01*
X81378387Y-152368079D01*
X81399457Y-152378044D01*
X81419448Y-152390026D01*
X81438168Y-152403910D01*
X81455438Y-152419562D01*
X81471090Y-152436832D01*
X81484974Y-152455552D01*
X81496956Y-152475543D01*
X81506921Y-152496613D01*
X81514773Y-152518557D01*
X81520437Y-152541166D01*
X81523856Y-152564221D01*
X81525000Y-152587500D01*
X81525000Y-153162500D01*
X81523856Y-153185779D01*
X81520437Y-153208834D01*
X81514773Y-153231443D01*
X81506921Y-153253387D01*
X81496956Y-153274457D01*
X81484974Y-153294448D01*
X81471090Y-153313168D01*
X81455438Y-153330438D01*
X81438168Y-153346090D01*
X81419448Y-153359974D01*
X81399457Y-153371956D01*
X81378387Y-153381921D01*
X81356443Y-153389773D01*
X81333834Y-153395437D01*
X81310779Y-153398856D01*
X81287500Y-153400000D01*
X80812500Y-153400000D01*
X80789221Y-153398856D01*
X80766166Y-153395437D01*
X80743557Y-153389773D01*
X80721613Y-153381921D01*
X80700543Y-153371956D01*
X80680552Y-153359974D01*
X80661832Y-153346090D01*
X80644562Y-153330438D01*
X80628910Y-153313168D01*
X80615026Y-153294448D01*
X80603044Y-153274457D01*
X80593079Y-153253387D01*
X80585227Y-153231443D01*
X80579563Y-153208834D01*
X80576144Y-153185779D01*
X80575000Y-153162500D01*
X80575000Y-152587500D01*
X80576144Y-152564221D01*
X80579563Y-152541166D01*
X80585227Y-152518557D01*
X80593079Y-152496613D01*
X80603044Y-152475543D01*
X80615026Y-152455552D01*
X80628910Y-152436832D01*
X80644562Y-152419562D01*
X80661832Y-152403910D01*
X80680552Y-152390026D01*
X80700543Y-152378044D01*
X80721613Y-152368079D01*
X80743557Y-152360227D01*
X80766166Y-152354563D01*
X80789221Y-152351144D01*
X80812500Y-152350000D01*
X81287500Y-152350000D01*
X81310779Y-152351144D01*
X81310779Y-152351144D01*
G37*
D13*
X81050000Y-152875000D03*
G04 #@! TD*
D12*
G04 #@! TO.C,R15*
G36*
X81360779Y-145601144D02*
X81383834Y-145604563D01*
X81406443Y-145610227D01*
X81428387Y-145618079D01*
X81449457Y-145628044D01*
X81469448Y-145640026D01*
X81488168Y-145653910D01*
X81505438Y-145669562D01*
X81521090Y-145686832D01*
X81534974Y-145705552D01*
X81546956Y-145725543D01*
X81556921Y-145746613D01*
X81564773Y-145768557D01*
X81570437Y-145791166D01*
X81573856Y-145814221D01*
X81575000Y-145837500D01*
X81575000Y-146412500D01*
X81573856Y-146435779D01*
X81570437Y-146458834D01*
X81564773Y-146481443D01*
X81556921Y-146503387D01*
X81546956Y-146524457D01*
X81534974Y-146544448D01*
X81521090Y-146563168D01*
X81505438Y-146580438D01*
X81488168Y-146596090D01*
X81469448Y-146609974D01*
X81449457Y-146621956D01*
X81428387Y-146631921D01*
X81406443Y-146639773D01*
X81383834Y-146645437D01*
X81360779Y-146648856D01*
X81337500Y-146650000D01*
X80862500Y-146650000D01*
X80839221Y-146648856D01*
X80816166Y-146645437D01*
X80793557Y-146639773D01*
X80771613Y-146631921D01*
X80750543Y-146621956D01*
X80730552Y-146609974D01*
X80711832Y-146596090D01*
X80694562Y-146580438D01*
X80678910Y-146563168D01*
X80665026Y-146544448D01*
X80653044Y-146524457D01*
X80643079Y-146503387D01*
X80635227Y-146481443D01*
X80629563Y-146458834D01*
X80626144Y-146435779D01*
X80625000Y-146412500D01*
X80625000Y-145837500D01*
X80626144Y-145814221D01*
X80629563Y-145791166D01*
X80635227Y-145768557D01*
X80643079Y-145746613D01*
X80653044Y-145725543D01*
X80665026Y-145705552D01*
X80678910Y-145686832D01*
X80694562Y-145669562D01*
X80711832Y-145653910D01*
X80730552Y-145640026D01*
X80750543Y-145628044D01*
X80771613Y-145618079D01*
X80793557Y-145610227D01*
X80816166Y-145604563D01*
X80839221Y-145601144D01*
X80862500Y-145600000D01*
X81337500Y-145600000D01*
X81360779Y-145601144D01*
X81360779Y-145601144D01*
G37*
D13*
X81100000Y-146125000D03*
D12*
G36*
X81360779Y-147351144D02*
X81383834Y-147354563D01*
X81406443Y-147360227D01*
X81428387Y-147368079D01*
X81449457Y-147378044D01*
X81469448Y-147390026D01*
X81488168Y-147403910D01*
X81505438Y-147419562D01*
X81521090Y-147436832D01*
X81534974Y-147455552D01*
X81546956Y-147475543D01*
X81556921Y-147496613D01*
X81564773Y-147518557D01*
X81570437Y-147541166D01*
X81573856Y-147564221D01*
X81575000Y-147587500D01*
X81575000Y-148162500D01*
X81573856Y-148185779D01*
X81570437Y-148208834D01*
X81564773Y-148231443D01*
X81556921Y-148253387D01*
X81546956Y-148274457D01*
X81534974Y-148294448D01*
X81521090Y-148313168D01*
X81505438Y-148330438D01*
X81488168Y-148346090D01*
X81469448Y-148359974D01*
X81449457Y-148371956D01*
X81428387Y-148381921D01*
X81406443Y-148389773D01*
X81383834Y-148395437D01*
X81360779Y-148398856D01*
X81337500Y-148400000D01*
X80862500Y-148400000D01*
X80839221Y-148398856D01*
X80816166Y-148395437D01*
X80793557Y-148389773D01*
X80771613Y-148381921D01*
X80750543Y-148371956D01*
X80730552Y-148359974D01*
X80711832Y-148346090D01*
X80694562Y-148330438D01*
X80678910Y-148313168D01*
X80665026Y-148294448D01*
X80653044Y-148274457D01*
X80643079Y-148253387D01*
X80635227Y-148231443D01*
X80629563Y-148208834D01*
X80626144Y-148185779D01*
X80625000Y-148162500D01*
X80625000Y-147587500D01*
X80626144Y-147564221D01*
X80629563Y-147541166D01*
X80635227Y-147518557D01*
X80643079Y-147496613D01*
X80653044Y-147475543D01*
X80665026Y-147455552D01*
X80678910Y-147436832D01*
X80694562Y-147419562D01*
X80711832Y-147403910D01*
X80730552Y-147390026D01*
X80750543Y-147378044D01*
X80771613Y-147368079D01*
X80793557Y-147360227D01*
X80816166Y-147354563D01*
X80839221Y-147351144D01*
X80862500Y-147350000D01*
X81337500Y-147350000D01*
X81360779Y-147351144D01*
X81360779Y-147351144D01*
G37*
D13*
X81100000Y-147875000D03*
G04 #@! TD*
D12*
G04 #@! TO.C,R16*
G36*
X158610779Y-152351144D02*
X158633834Y-152354563D01*
X158656443Y-152360227D01*
X158678387Y-152368079D01*
X158699457Y-152378044D01*
X158719448Y-152390026D01*
X158738168Y-152403910D01*
X158755438Y-152419562D01*
X158771090Y-152436832D01*
X158784974Y-152455552D01*
X158796956Y-152475543D01*
X158806921Y-152496613D01*
X158814773Y-152518557D01*
X158820437Y-152541166D01*
X158823856Y-152564221D01*
X158825000Y-152587500D01*
X158825000Y-153162500D01*
X158823856Y-153185779D01*
X158820437Y-153208834D01*
X158814773Y-153231443D01*
X158806921Y-153253387D01*
X158796956Y-153274457D01*
X158784974Y-153294448D01*
X158771090Y-153313168D01*
X158755438Y-153330438D01*
X158738168Y-153346090D01*
X158719448Y-153359974D01*
X158699457Y-153371956D01*
X158678387Y-153381921D01*
X158656443Y-153389773D01*
X158633834Y-153395437D01*
X158610779Y-153398856D01*
X158587500Y-153400000D01*
X158112500Y-153400000D01*
X158089221Y-153398856D01*
X158066166Y-153395437D01*
X158043557Y-153389773D01*
X158021613Y-153381921D01*
X158000543Y-153371956D01*
X157980552Y-153359974D01*
X157961832Y-153346090D01*
X157944562Y-153330438D01*
X157928910Y-153313168D01*
X157915026Y-153294448D01*
X157903044Y-153274457D01*
X157893079Y-153253387D01*
X157885227Y-153231443D01*
X157879563Y-153208834D01*
X157876144Y-153185779D01*
X157875000Y-153162500D01*
X157875000Y-152587500D01*
X157876144Y-152564221D01*
X157879563Y-152541166D01*
X157885227Y-152518557D01*
X157893079Y-152496613D01*
X157903044Y-152475543D01*
X157915026Y-152455552D01*
X157928910Y-152436832D01*
X157944562Y-152419562D01*
X157961832Y-152403910D01*
X157980552Y-152390026D01*
X158000543Y-152378044D01*
X158021613Y-152368079D01*
X158043557Y-152360227D01*
X158066166Y-152354563D01*
X158089221Y-152351144D01*
X158112500Y-152350000D01*
X158587500Y-152350000D01*
X158610779Y-152351144D01*
X158610779Y-152351144D01*
G37*
D13*
X158350000Y-152875000D03*
D12*
G36*
X158610779Y-150601144D02*
X158633834Y-150604563D01*
X158656443Y-150610227D01*
X158678387Y-150618079D01*
X158699457Y-150628044D01*
X158719448Y-150640026D01*
X158738168Y-150653910D01*
X158755438Y-150669562D01*
X158771090Y-150686832D01*
X158784974Y-150705552D01*
X158796956Y-150725543D01*
X158806921Y-150746613D01*
X158814773Y-150768557D01*
X158820437Y-150791166D01*
X158823856Y-150814221D01*
X158825000Y-150837500D01*
X158825000Y-151412500D01*
X158823856Y-151435779D01*
X158820437Y-151458834D01*
X158814773Y-151481443D01*
X158806921Y-151503387D01*
X158796956Y-151524457D01*
X158784974Y-151544448D01*
X158771090Y-151563168D01*
X158755438Y-151580438D01*
X158738168Y-151596090D01*
X158719448Y-151609974D01*
X158699457Y-151621956D01*
X158678387Y-151631921D01*
X158656443Y-151639773D01*
X158633834Y-151645437D01*
X158610779Y-151648856D01*
X158587500Y-151650000D01*
X158112500Y-151650000D01*
X158089221Y-151648856D01*
X158066166Y-151645437D01*
X158043557Y-151639773D01*
X158021613Y-151631921D01*
X158000543Y-151621956D01*
X157980552Y-151609974D01*
X157961832Y-151596090D01*
X157944562Y-151580438D01*
X157928910Y-151563168D01*
X157915026Y-151544448D01*
X157903044Y-151524457D01*
X157893079Y-151503387D01*
X157885227Y-151481443D01*
X157879563Y-151458834D01*
X157876144Y-151435779D01*
X157875000Y-151412500D01*
X157875000Y-150837500D01*
X157876144Y-150814221D01*
X157879563Y-150791166D01*
X157885227Y-150768557D01*
X157893079Y-150746613D01*
X157903044Y-150725543D01*
X157915026Y-150705552D01*
X157928910Y-150686832D01*
X157944562Y-150669562D01*
X157961832Y-150653910D01*
X157980552Y-150640026D01*
X158000543Y-150628044D01*
X158021613Y-150618079D01*
X158043557Y-150610227D01*
X158066166Y-150604563D01*
X158089221Y-150601144D01*
X158112500Y-150600000D01*
X158587500Y-150600000D01*
X158610779Y-150601144D01*
X158610779Y-150601144D01*
G37*
D13*
X158350000Y-151125000D03*
G04 #@! TD*
D12*
G04 #@! TO.C,R19*
G36*
X132085779Y-89226144D02*
X132108834Y-89229563D01*
X132131443Y-89235227D01*
X132153387Y-89243079D01*
X132174457Y-89253044D01*
X132194448Y-89265026D01*
X132213168Y-89278910D01*
X132230438Y-89294562D01*
X132246090Y-89311832D01*
X132259974Y-89330552D01*
X132271956Y-89350543D01*
X132281921Y-89371613D01*
X132289773Y-89393557D01*
X132295437Y-89416166D01*
X132298856Y-89439221D01*
X132300000Y-89462500D01*
X132300000Y-89937500D01*
X132298856Y-89960779D01*
X132295437Y-89983834D01*
X132289773Y-90006443D01*
X132281921Y-90028387D01*
X132271956Y-90049457D01*
X132259974Y-90069448D01*
X132246090Y-90088168D01*
X132230438Y-90105438D01*
X132213168Y-90121090D01*
X132194448Y-90134974D01*
X132174457Y-90146956D01*
X132153387Y-90156921D01*
X132131443Y-90164773D01*
X132108834Y-90170437D01*
X132085779Y-90173856D01*
X132062500Y-90175000D01*
X131487500Y-90175000D01*
X131464221Y-90173856D01*
X131441166Y-90170437D01*
X131418557Y-90164773D01*
X131396613Y-90156921D01*
X131375543Y-90146956D01*
X131355552Y-90134974D01*
X131336832Y-90121090D01*
X131319562Y-90105438D01*
X131303910Y-90088168D01*
X131290026Y-90069448D01*
X131278044Y-90049457D01*
X131268079Y-90028387D01*
X131260227Y-90006443D01*
X131254563Y-89983834D01*
X131251144Y-89960779D01*
X131250000Y-89937500D01*
X131250000Y-89462500D01*
X131251144Y-89439221D01*
X131254563Y-89416166D01*
X131260227Y-89393557D01*
X131268079Y-89371613D01*
X131278044Y-89350543D01*
X131290026Y-89330552D01*
X131303910Y-89311832D01*
X131319562Y-89294562D01*
X131336832Y-89278910D01*
X131355552Y-89265026D01*
X131375543Y-89253044D01*
X131396613Y-89243079D01*
X131418557Y-89235227D01*
X131441166Y-89229563D01*
X131464221Y-89226144D01*
X131487500Y-89225000D01*
X132062500Y-89225000D01*
X132085779Y-89226144D01*
X132085779Y-89226144D01*
G37*
D13*
X131775000Y-89700000D03*
D12*
G36*
X130335779Y-89226144D02*
X130358834Y-89229563D01*
X130381443Y-89235227D01*
X130403387Y-89243079D01*
X130424457Y-89253044D01*
X130444448Y-89265026D01*
X130463168Y-89278910D01*
X130480438Y-89294562D01*
X130496090Y-89311832D01*
X130509974Y-89330552D01*
X130521956Y-89350543D01*
X130531921Y-89371613D01*
X130539773Y-89393557D01*
X130545437Y-89416166D01*
X130548856Y-89439221D01*
X130550000Y-89462500D01*
X130550000Y-89937500D01*
X130548856Y-89960779D01*
X130545437Y-89983834D01*
X130539773Y-90006443D01*
X130531921Y-90028387D01*
X130521956Y-90049457D01*
X130509974Y-90069448D01*
X130496090Y-90088168D01*
X130480438Y-90105438D01*
X130463168Y-90121090D01*
X130444448Y-90134974D01*
X130424457Y-90146956D01*
X130403387Y-90156921D01*
X130381443Y-90164773D01*
X130358834Y-90170437D01*
X130335779Y-90173856D01*
X130312500Y-90175000D01*
X129737500Y-90175000D01*
X129714221Y-90173856D01*
X129691166Y-90170437D01*
X129668557Y-90164773D01*
X129646613Y-90156921D01*
X129625543Y-90146956D01*
X129605552Y-90134974D01*
X129586832Y-90121090D01*
X129569562Y-90105438D01*
X129553910Y-90088168D01*
X129540026Y-90069448D01*
X129528044Y-90049457D01*
X129518079Y-90028387D01*
X129510227Y-90006443D01*
X129504563Y-89983834D01*
X129501144Y-89960779D01*
X129500000Y-89937500D01*
X129500000Y-89462500D01*
X129501144Y-89439221D01*
X129504563Y-89416166D01*
X129510227Y-89393557D01*
X129518079Y-89371613D01*
X129528044Y-89350543D01*
X129540026Y-89330552D01*
X129553910Y-89311832D01*
X129569562Y-89294562D01*
X129586832Y-89278910D01*
X129605552Y-89265026D01*
X129625543Y-89253044D01*
X129646613Y-89243079D01*
X129668557Y-89235227D01*
X129691166Y-89229563D01*
X129714221Y-89226144D01*
X129737500Y-89225000D01*
X130312500Y-89225000D01*
X130335779Y-89226144D01*
X130335779Y-89226144D01*
G37*
D13*
X130025000Y-89700000D03*
G04 #@! TD*
D12*
G04 #@! TO.C,R20*
G36*
X145435779Y-89226144D02*
X145458834Y-89229563D01*
X145481443Y-89235227D01*
X145503387Y-89243079D01*
X145524457Y-89253044D01*
X145544448Y-89265026D01*
X145563168Y-89278910D01*
X145580438Y-89294562D01*
X145596090Y-89311832D01*
X145609974Y-89330552D01*
X145621956Y-89350543D01*
X145631921Y-89371613D01*
X145639773Y-89393557D01*
X145645437Y-89416166D01*
X145648856Y-89439221D01*
X145650000Y-89462500D01*
X145650000Y-89937500D01*
X145648856Y-89960779D01*
X145645437Y-89983834D01*
X145639773Y-90006443D01*
X145631921Y-90028387D01*
X145621956Y-90049457D01*
X145609974Y-90069448D01*
X145596090Y-90088168D01*
X145580438Y-90105438D01*
X145563168Y-90121090D01*
X145544448Y-90134974D01*
X145524457Y-90146956D01*
X145503387Y-90156921D01*
X145481443Y-90164773D01*
X145458834Y-90170437D01*
X145435779Y-90173856D01*
X145412500Y-90175000D01*
X144837500Y-90175000D01*
X144814221Y-90173856D01*
X144791166Y-90170437D01*
X144768557Y-90164773D01*
X144746613Y-90156921D01*
X144725543Y-90146956D01*
X144705552Y-90134974D01*
X144686832Y-90121090D01*
X144669562Y-90105438D01*
X144653910Y-90088168D01*
X144640026Y-90069448D01*
X144628044Y-90049457D01*
X144618079Y-90028387D01*
X144610227Y-90006443D01*
X144604563Y-89983834D01*
X144601144Y-89960779D01*
X144600000Y-89937500D01*
X144600000Y-89462500D01*
X144601144Y-89439221D01*
X144604563Y-89416166D01*
X144610227Y-89393557D01*
X144618079Y-89371613D01*
X144628044Y-89350543D01*
X144640026Y-89330552D01*
X144653910Y-89311832D01*
X144669562Y-89294562D01*
X144686832Y-89278910D01*
X144705552Y-89265026D01*
X144725543Y-89253044D01*
X144746613Y-89243079D01*
X144768557Y-89235227D01*
X144791166Y-89229563D01*
X144814221Y-89226144D01*
X144837500Y-89225000D01*
X145412500Y-89225000D01*
X145435779Y-89226144D01*
X145435779Y-89226144D01*
G37*
D13*
X145125000Y-89700000D03*
D12*
G36*
X147185779Y-89226144D02*
X147208834Y-89229563D01*
X147231443Y-89235227D01*
X147253387Y-89243079D01*
X147274457Y-89253044D01*
X147294448Y-89265026D01*
X147313168Y-89278910D01*
X147330438Y-89294562D01*
X147346090Y-89311832D01*
X147359974Y-89330552D01*
X147371956Y-89350543D01*
X147381921Y-89371613D01*
X147389773Y-89393557D01*
X147395437Y-89416166D01*
X147398856Y-89439221D01*
X147400000Y-89462500D01*
X147400000Y-89937500D01*
X147398856Y-89960779D01*
X147395437Y-89983834D01*
X147389773Y-90006443D01*
X147381921Y-90028387D01*
X147371956Y-90049457D01*
X147359974Y-90069448D01*
X147346090Y-90088168D01*
X147330438Y-90105438D01*
X147313168Y-90121090D01*
X147294448Y-90134974D01*
X147274457Y-90146956D01*
X147253387Y-90156921D01*
X147231443Y-90164773D01*
X147208834Y-90170437D01*
X147185779Y-90173856D01*
X147162500Y-90175000D01*
X146587500Y-90175000D01*
X146564221Y-90173856D01*
X146541166Y-90170437D01*
X146518557Y-90164773D01*
X146496613Y-90156921D01*
X146475543Y-90146956D01*
X146455552Y-90134974D01*
X146436832Y-90121090D01*
X146419562Y-90105438D01*
X146403910Y-90088168D01*
X146390026Y-90069448D01*
X146378044Y-90049457D01*
X146368079Y-90028387D01*
X146360227Y-90006443D01*
X146354563Y-89983834D01*
X146351144Y-89960779D01*
X146350000Y-89937500D01*
X146350000Y-89462500D01*
X146351144Y-89439221D01*
X146354563Y-89416166D01*
X146360227Y-89393557D01*
X146368079Y-89371613D01*
X146378044Y-89350543D01*
X146390026Y-89330552D01*
X146403910Y-89311832D01*
X146419562Y-89294562D01*
X146436832Y-89278910D01*
X146455552Y-89265026D01*
X146475543Y-89253044D01*
X146496613Y-89243079D01*
X146518557Y-89235227D01*
X146541166Y-89229563D01*
X146564221Y-89226144D01*
X146587500Y-89225000D01*
X147162500Y-89225000D01*
X147185779Y-89226144D01*
X147185779Y-89226144D01*
G37*
D13*
X146875000Y-89700000D03*
G04 #@! TD*
D12*
G04 #@! TO.C,R21*
G36*
X132085779Y-91026144D02*
X132108834Y-91029563D01*
X132131443Y-91035227D01*
X132153387Y-91043079D01*
X132174457Y-91053044D01*
X132194448Y-91065026D01*
X132213168Y-91078910D01*
X132230438Y-91094562D01*
X132246090Y-91111832D01*
X132259974Y-91130552D01*
X132271956Y-91150543D01*
X132281921Y-91171613D01*
X132289773Y-91193557D01*
X132295437Y-91216166D01*
X132298856Y-91239221D01*
X132300000Y-91262500D01*
X132300000Y-91737500D01*
X132298856Y-91760779D01*
X132295437Y-91783834D01*
X132289773Y-91806443D01*
X132281921Y-91828387D01*
X132271956Y-91849457D01*
X132259974Y-91869448D01*
X132246090Y-91888168D01*
X132230438Y-91905438D01*
X132213168Y-91921090D01*
X132194448Y-91934974D01*
X132174457Y-91946956D01*
X132153387Y-91956921D01*
X132131443Y-91964773D01*
X132108834Y-91970437D01*
X132085779Y-91973856D01*
X132062500Y-91975000D01*
X131487500Y-91975000D01*
X131464221Y-91973856D01*
X131441166Y-91970437D01*
X131418557Y-91964773D01*
X131396613Y-91956921D01*
X131375543Y-91946956D01*
X131355552Y-91934974D01*
X131336832Y-91921090D01*
X131319562Y-91905438D01*
X131303910Y-91888168D01*
X131290026Y-91869448D01*
X131278044Y-91849457D01*
X131268079Y-91828387D01*
X131260227Y-91806443D01*
X131254563Y-91783834D01*
X131251144Y-91760779D01*
X131250000Y-91737500D01*
X131250000Y-91262500D01*
X131251144Y-91239221D01*
X131254563Y-91216166D01*
X131260227Y-91193557D01*
X131268079Y-91171613D01*
X131278044Y-91150543D01*
X131290026Y-91130552D01*
X131303910Y-91111832D01*
X131319562Y-91094562D01*
X131336832Y-91078910D01*
X131355552Y-91065026D01*
X131375543Y-91053044D01*
X131396613Y-91043079D01*
X131418557Y-91035227D01*
X131441166Y-91029563D01*
X131464221Y-91026144D01*
X131487500Y-91025000D01*
X132062500Y-91025000D01*
X132085779Y-91026144D01*
X132085779Y-91026144D01*
G37*
D13*
X131775000Y-91500000D03*
D12*
G36*
X130335779Y-91026144D02*
X130358834Y-91029563D01*
X130381443Y-91035227D01*
X130403387Y-91043079D01*
X130424457Y-91053044D01*
X130444448Y-91065026D01*
X130463168Y-91078910D01*
X130480438Y-91094562D01*
X130496090Y-91111832D01*
X130509974Y-91130552D01*
X130521956Y-91150543D01*
X130531921Y-91171613D01*
X130539773Y-91193557D01*
X130545437Y-91216166D01*
X130548856Y-91239221D01*
X130550000Y-91262500D01*
X130550000Y-91737500D01*
X130548856Y-91760779D01*
X130545437Y-91783834D01*
X130539773Y-91806443D01*
X130531921Y-91828387D01*
X130521956Y-91849457D01*
X130509974Y-91869448D01*
X130496090Y-91888168D01*
X130480438Y-91905438D01*
X130463168Y-91921090D01*
X130444448Y-91934974D01*
X130424457Y-91946956D01*
X130403387Y-91956921D01*
X130381443Y-91964773D01*
X130358834Y-91970437D01*
X130335779Y-91973856D01*
X130312500Y-91975000D01*
X129737500Y-91975000D01*
X129714221Y-91973856D01*
X129691166Y-91970437D01*
X129668557Y-91964773D01*
X129646613Y-91956921D01*
X129625543Y-91946956D01*
X129605552Y-91934974D01*
X129586832Y-91921090D01*
X129569562Y-91905438D01*
X129553910Y-91888168D01*
X129540026Y-91869448D01*
X129528044Y-91849457D01*
X129518079Y-91828387D01*
X129510227Y-91806443D01*
X129504563Y-91783834D01*
X129501144Y-91760779D01*
X129500000Y-91737500D01*
X129500000Y-91262500D01*
X129501144Y-91239221D01*
X129504563Y-91216166D01*
X129510227Y-91193557D01*
X129518079Y-91171613D01*
X129528044Y-91150543D01*
X129540026Y-91130552D01*
X129553910Y-91111832D01*
X129569562Y-91094562D01*
X129586832Y-91078910D01*
X129605552Y-91065026D01*
X129625543Y-91053044D01*
X129646613Y-91043079D01*
X129668557Y-91035227D01*
X129691166Y-91029563D01*
X129714221Y-91026144D01*
X129737500Y-91025000D01*
X130312500Y-91025000D01*
X130335779Y-91026144D01*
X130335779Y-91026144D01*
G37*
D13*
X130025000Y-91500000D03*
G04 #@! TD*
D12*
G04 #@! TO.C,R22*
G36*
X145435779Y-91026144D02*
X145458834Y-91029563D01*
X145481443Y-91035227D01*
X145503387Y-91043079D01*
X145524457Y-91053044D01*
X145544448Y-91065026D01*
X145563168Y-91078910D01*
X145580438Y-91094562D01*
X145596090Y-91111832D01*
X145609974Y-91130552D01*
X145621956Y-91150543D01*
X145631921Y-91171613D01*
X145639773Y-91193557D01*
X145645437Y-91216166D01*
X145648856Y-91239221D01*
X145650000Y-91262500D01*
X145650000Y-91737500D01*
X145648856Y-91760779D01*
X145645437Y-91783834D01*
X145639773Y-91806443D01*
X145631921Y-91828387D01*
X145621956Y-91849457D01*
X145609974Y-91869448D01*
X145596090Y-91888168D01*
X145580438Y-91905438D01*
X145563168Y-91921090D01*
X145544448Y-91934974D01*
X145524457Y-91946956D01*
X145503387Y-91956921D01*
X145481443Y-91964773D01*
X145458834Y-91970437D01*
X145435779Y-91973856D01*
X145412500Y-91975000D01*
X144837500Y-91975000D01*
X144814221Y-91973856D01*
X144791166Y-91970437D01*
X144768557Y-91964773D01*
X144746613Y-91956921D01*
X144725543Y-91946956D01*
X144705552Y-91934974D01*
X144686832Y-91921090D01*
X144669562Y-91905438D01*
X144653910Y-91888168D01*
X144640026Y-91869448D01*
X144628044Y-91849457D01*
X144618079Y-91828387D01*
X144610227Y-91806443D01*
X144604563Y-91783834D01*
X144601144Y-91760779D01*
X144600000Y-91737500D01*
X144600000Y-91262500D01*
X144601144Y-91239221D01*
X144604563Y-91216166D01*
X144610227Y-91193557D01*
X144618079Y-91171613D01*
X144628044Y-91150543D01*
X144640026Y-91130552D01*
X144653910Y-91111832D01*
X144669562Y-91094562D01*
X144686832Y-91078910D01*
X144705552Y-91065026D01*
X144725543Y-91053044D01*
X144746613Y-91043079D01*
X144768557Y-91035227D01*
X144791166Y-91029563D01*
X144814221Y-91026144D01*
X144837500Y-91025000D01*
X145412500Y-91025000D01*
X145435779Y-91026144D01*
X145435779Y-91026144D01*
G37*
D13*
X145125000Y-91500000D03*
D12*
G36*
X147185779Y-91026144D02*
X147208834Y-91029563D01*
X147231443Y-91035227D01*
X147253387Y-91043079D01*
X147274457Y-91053044D01*
X147294448Y-91065026D01*
X147313168Y-91078910D01*
X147330438Y-91094562D01*
X147346090Y-91111832D01*
X147359974Y-91130552D01*
X147371956Y-91150543D01*
X147381921Y-91171613D01*
X147389773Y-91193557D01*
X147395437Y-91216166D01*
X147398856Y-91239221D01*
X147400000Y-91262500D01*
X147400000Y-91737500D01*
X147398856Y-91760779D01*
X147395437Y-91783834D01*
X147389773Y-91806443D01*
X147381921Y-91828387D01*
X147371956Y-91849457D01*
X147359974Y-91869448D01*
X147346090Y-91888168D01*
X147330438Y-91905438D01*
X147313168Y-91921090D01*
X147294448Y-91934974D01*
X147274457Y-91946956D01*
X147253387Y-91956921D01*
X147231443Y-91964773D01*
X147208834Y-91970437D01*
X147185779Y-91973856D01*
X147162500Y-91975000D01*
X146587500Y-91975000D01*
X146564221Y-91973856D01*
X146541166Y-91970437D01*
X146518557Y-91964773D01*
X146496613Y-91956921D01*
X146475543Y-91946956D01*
X146455552Y-91934974D01*
X146436832Y-91921090D01*
X146419562Y-91905438D01*
X146403910Y-91888168D01*
X146390026Y-91869448D01*
X146378044Y-91849457D01*
X146368079Y-91828387D01*
X146360227Y-91806443D01*
X146354563Y-91783834D01*
X146351144Y-91760779D01*
X146350000Y-91737500D01*
X146350000Y-91262500D01*
X146351144Y-91239221D01*
X146354563Y-91216166D01*
X146360227Y-91193557D01*
X146368079Y-91171613D01*
X146378044Y-91150543D01*
X146390026Y-91130552D01*
X146403910Y-91111832D01*
X146419562Y-91094562D01*
X146436832Y-91078910D01*
X146455552Y-91065026D01*
X146475543Y-91053044D01*
X146496613Y-91043079D01*
X146518557Y-91035227D01*
X146541166Y-91029563D01*
X146564221Y-91026144D01*
X146587500Y-91025000D01*
X147162500Y-91025000D01*
X147185779Y-91026144D01*
X147185779Y-91026144D01*
G37*
D13*
X146875000Y-91500000D03*
G04 #@! TD*
D12*
G04 #@! TO.C,R23*
G36*
X142285779Y-72476144D02*
X142308834Y-72479563D01*
X142331443Y-72485227D01*
X142353387Y-72493079D01*
X142374457Y-72503044D01*
X142394448Y-72515026D01*
X142413168Y-72528910D01*
X142430438Y-72544562D01*
X142446090Y-72561832D01*
X142459974Y-72580552D01*
X142471956Y-72600543D01*
X142481921Y-72621613D01*
X142489773Y-72643557D01*
X142495437Y-72666166D01*
X142498856Y-72689221D01*
X142500000Y-72712500D01*
X142500000Y-73187500D01*
X142498856Y-73210779D01*
X142495437Y-73233834D01*
X142489773Y-73256443D01*
X142481921Y-73278387D01*
X142471956Y-73299457D01*
X142459974Y-73319448D01*
X142446090Y-73338168D01*
X142430438Y-73355438D01*
X142413168Y-73371090D01*
X142394448Y-73384974D01*
X142374457Y-73396956D01*
X142353387Y-73406921D01*
X142331443Y-73414773D01*
X142308834Y-73420437D01*
X142285779Y-73423856D01*
X142262500Y-73425000D01*
X141687500Y-73425000D01*
X141664221Y-73423856D01*
X141641166Y-73420437D01*
X141618557Y-73414773D01*
X141596613Y-73406921D01*
X141575543Y-73396956D01*
X141555552Y-73384974D01*
X141536832Y-73371090D01*
X141519562Y-73355438D01*
X141503910Y-73338168D01*
X141490026Y-73319448D01*
X141478044Y-73299457D01*
X141468079Y-73278387D01*
X141460227Y-73256443D01*
X141454563Y-73233834D01*
X141451144Y-73210779D01*
X141450000Y-73187500D01*
X141450000Y-72712500D01*
X141451144Y-72689221D01*
X141454563Y-72666166D01*
X141460227Y-72643557D01*
X141468079Y-72621613D01*
X141478044Y-72600543D01*
X141490026Y-72580552D01*
X141503910Y-72561832D01*
X141519562Y-72544562D01*
X141536832Y-72528910D01*
X141555552Y-72515026D01*
X141575543Y-72503044D01*
X141596613Y-72493079D01*
X141618557Y-72485227D01*
X141641166Y-72479563D01*
X141664221Y-72476144D01*
X141687500Y-72475000D01*
X142262500Y-72475000D01*
X142285779Y-72476144D01*
X142285779Y-72476144D01*
G37*
D13*
X141975000Y-72950000D03*
D12*
G36*
X140535779Y-72476144D02*
X140558834Y-72479563D01*
X140581443Y-72485227D01*
X140603387Y-72493079D01*
X140624457Y-72503044D01*
X140644448Y-72515026D01*
X140663168Y-72528910D01*
X140680438Y-72544562D01*
X140696090Y-72561832D01*
X140709974Y-72580552D01*
X140721956Y-72600543D01*
X140731921Y-72621613D01*
X140739773Y-72643557D01*
X140745437Y-72666166D01*
X140748856Y-72689221D01*
X140750000Y-72712500D01*
X140750000Y-73187500D01*
X140748856Y-73210779D01*
X140745437Y-73233834D01*
X140739773Y-73256443D01*
X140731921Y-73278387D01*
X140721956Y-73299457D01*
X140709974Y-73319448D01*
X140696090Y-73338168D01*
X140680438Y-73355438D01*
X140663168Y-73371090D01*
X140644448Y-73384974D01*
X140624457Y-73396956D01*
X140603387Y-73406921D01*
X140581443Y-73414773D01*
X140558834Y-73420437D01*
X140535779Y-73423856D01*
X140512500Y-73425000D01*
X139937500Y-73425000D01*
X139914221Y-73423856D01*
X139891166Y-73420437D01*
X139868557Y-73414773D01*
X139846613Y-73406921D01*
X139825543Y-73396956D01*
X139805552Y-73384974D01*
X139786832Y-73371090D01*
X139769562Y-73355438D01*
X139753910Y-73338168D01*
X139740026Y-73319448D01*
X139728044Y-73299457D01*
X139718079Y-73278387D01*
X139710227Y-73256443D01*
X139704563Y-73233834D01*
X139701144Y-73210779D01*
X139700000Y-73187500D01*
X139700000Y-72712500D01*
X139701144Y-72689221D01*
X139704563Y-72666166D01*
X139710227Y-72643557D01*
X139718079Y-72621613D01*
X139728044Y-72600543D01*
X139740026Y-72580552D01*
X139753910Y-72561832D01*
X139769562Y-72544562D01*
X139786832Y-72528910D01*
X139805552Y-72515026D01*
X139825543Y-72503044D01*
X139846613Y-72493079D01*
X139868557Y-72485227D01*
X139891166Y-72479563D01*
X139914221Y-72476144D01*
X139937500Y-72475000D01*
X140512500Y-72475000D01*
X140535779Y-72476144D01*
X140535779Y-72476144D01*
G37*
D13*
X140225000Y-72950000D03*
G04 #@! TD*
D12*
G04 #@! TO.C,R26*
G36*
X126560779Y-71301144D02*
X126583834Y-71304563D01*
X126606443Y-71310227D01*
X126628387Y-71318079D01*
X126649457Y-71328044D01*
X126669448Y-71340026D01*
X126688168Y-71353910D01*
X126705438Y-71369562D01*
X126721090Y-71386832D01*
X126734974Y-71405552D01*
X126746956Y-71425543D01*
X126756921Y-71446613D01*
X126764773Y-71468557D01*
X126770437Y-71491166D01*
X126773856Y-71514221D01*
X126775000Y-71537500D01*
X126775000Y-72112500D01*
X126773856Y-72135779D01*
X126770437Y-72158834D01*
X126764773Y-72181443D01*
X126756921Y-72203387D01*
X126746956Y-72224457D01*
X126734974Y-72244448D01*
X126721090Y-72263168D01*
X126705438Y-72280438D01*
X126688168Y-72296090D01*
X126669448Y-72309974D01*
X126649457Y-72321956D01*
X126628387Y-72331921D01*
X126606443Y-72339773D01*
X126583834Y-72345437D01*
X126560779Y-72348856D01*
X126537500Y-72350000D01*
X126062500Y-72350000D01*
X126039221Y-72348856D01*
X126016166Y-72345437D01*
X125993557Y-72339773D01*
X125971613Y-72331921D01*
X125950543Y-72321956D01*
X125930552Y-72309974D01*
X125911832Y-72296090D01*
X125894562Y-72280438D01*
X125878910Y-72263168D01*
X125865026Y-72244448D01*
X125853044Y-72224457D01*
X125843079Y-72203387D01*
X125835227Y-72181443D01*
X125829563Y-72158834D01*
X125826144Y-72135779D01*
X125825000Y-72112500D01*
X125825000Y-71537500D01*
X125826144Y-71514221D01*
X125829563Y-71491166D01*
X125835227Y-71468557D01*
X125843079Y-71446613D01*
X125853044Y-71425543D01*
X125865026Y-71405552D01*
X125878910Y-71386832D01*
X125894562Y-71369562D01*
X125911832Y-71353910D01*
X125930552Y-71340026D01*
X125950543Y-71328044D01*
X125971613Y-71318079D01*
X125993557Y-71310227D01*
X126016166Y-71304563D01*
X126039221Y-71301144D01*
X126062500Y-71300000D01*
X126537500Y-71300000D01*
X126560779Y-71301144D01*
X126560779Y-71301144D01*
G37*
D13*
X126300000Y-71825000D03*
D12*
G36*
X126560779Y-73051144D02*
X126583834Y-73054563D01*
X126606443Y-73060227D01*
X126628387Y-73068079D01*
X126649457Y-73078044D01*
X126669448Y-73090026D01*
X126688168Y-73103910D01*
X126705438Y-73119562D01*
X126721090Y-73136832D01*
X126734974Y-73155552D01*
X126746956Y-73175543D01*
X126756921Y-73196613D01*
X126764773Y-73218557D01*
X126770437Y-73241166D01*
X126773856Y-73264221D01*
X126775000Y-73287500D01*
X126775000Y-73862500D01*
X126773856Y-73885779D01*
X126770437Y-73908834D01*
X126764773Y-73931443D01*
X126756921Y-73953387D01*
X126746956Y-73974457D01*
X126734974Y-73994448D01*
X126721090Y-74013168D01*
X126705438Y-74030438D01*
X126688168Y-74046090D01*
X126669448Y-74059974D01*
X126649457Y-74071956D01*
X126628387Y-74081921D01*
X126606443Y-74089773D01*
X126583834Y-74095437D01*
X126560779Y-74098856D01*
X126537500Y-74100000D01*
X126062500Y-74100000D01*
X126039221Y-74098856D01*
X126016166Y-74095437D01*
X125993557Y-74089773D01*
X125971613Y-74081921D01*
X125950543Y-74071956D01*
X125930552Y-74059974D01*
X125911832Y-74046090D01*
X125894562Y-74030438D01*
X125878910Y-74013168D01*
X125865026Y-73994448D01*
X125853044Y-73974457D01*
X125843079Y-73953387D01*
X125835227Y-73931443D01*
X125829563Y-73908834D01*
X125826144Y-73885779D01*
X125825000Y-73862500D01*
X125825000Y-73287500D01*
X125826144Y-73264221D01*
X125829563Y-73241166D01*
X125835227Y-73218557D01*
X125843079Y-73196613D01*
X125853044Y-73175543D01*
X125865026Y-73155552D01*
X125878910Y-73136832D01*
X125894562Y-73119562D01*
X125911832Y-73103910D01*
X125930552Y-73090026D01*
X125950543Y-73078044D01*
X125971613Y-73068079D01*
X125993557Y-73060227D01*
X126016166Y-73054563D01*
X126039221Y-73051144D01*
X126062500Y-73050000D01*
X126537500Y-73050000D01*
X126560779Y-73051144D01*
X126560779Y-73051144D01*
G37*
D13*
X126300000Y-73575000D03*
G04 #@! TD*
D12*
G04 #@! TO.C,R27*
G36*
X128260779Y-73051144D02*
X128283834Y-73054563D01*
X128306443Y-73060227D01*
X128328387Y-73068079D01*
X128349457Y-73078044D01*
X128369448Y-73090026D01*
X128388168Y-73103910D01*
X128405438Y-73119562D01*
X128421090Y-73136832D01*
X128434974Y-73155552D01*
X128446956Y-73175543D01*
X128456921Y-73196613D01*
X128464773Y-73218557D01*
X128470437Y-73241166D01*
X128473856Y-73264221D01*
X128475000Y-73287500D01*
X128475000Y-73862500D01*
X128473856Y-73885779D01*
X128470437Y-73908834D01*
X128464773Y-73931443D01*
X128456921Y-73953387D01*
X128446956Y-73974457D01*
X128434974Y-73994448D01*
X128421090Y-74013168D01*
X128405438Y-74030438D01*
X128388168Y-74046090D01*
X128369448Y-74059974D01*
X128349457Y-74071956D01*
X128328387Y-74081921D01*
X128306443Y-74089773D01*
X128283834Y-74095437D01*
X128260779Y-74098856D01*
X128237500Y-74100000D01*
X127762500Y-74100000D01*
X127739221Y-74098856D01*
X127716166Y-74095437D01*
X127693557Y-74089773D01*
X127671613Y-74081921D01*
X127650543Y-74071956D01*
X127630552Y-74059974D01*
X127611832Y-74046090D01*
X127594562Y-74030438D01*
X127578910Y-74013168D01*
X127565026Y-73994448D01*
X127553044Y-73974457D01*
X127543079Y-73953387D01*
X127535227Y-73931443D01*
X127529563Y-73908834D01*
X127526144Y-73885779D01*
X127525000Y-73862500D01*
X127525000Y-73287500D01*
X127526144Y-73264221D01*
X127529563Y-73241166D01*
X127535227Y-73218557D01*
X127543079Y-73196613D01*
X127553044Y-73175543D01*
X127565026Y-73155552D01*
X127578910Y-73136832D01*
X127594562Y-73119562D01*
X127611832Y-73103910D01*
X127630552Y-73090026D01*
X127650543Y-73078044D01*
X127671613Y-73068079D01*
X127693557Y-73060227D01*
X127716166Y-73054563D01*
X127739221Y-73051144D01*
X127762500Y-73050000D01*
X128237500Y-73050000D01*
X128260779Y-73051144D01*
X128260779Y-73051144D01*
G37*
D13*
X128000000Y-73575000D03*
D12*
G36*
X128260779Y-71301144D02*
X128283834Y-71304563D01*
X128306443Y-71310227D01*
X128328387Y-71318079D01*
X128349457Y-71328044D01*
X128369448Y-71340026D01*
X128388168Y-71353910D01*
X128405438Y-71369562D01*
X128421090Y-71386832D01*
X128434974Y-71405552D01*
X128446956Y-71425543D01*
X128456921Y-71446613D01*
X128464773Y-71468557D01*
X128470437Y-71491166D01*
X128473856Y-71514221D01*
X128475000Y-71537500D01*
X128475000Y-72112500D01*
X128473856Y-72135779D01*
X128470437Y-72158834D01*
X128464773Y-72181443D01*
X128456921Y-72203387D01*
X128446956Y-72224457D01*
X128434974Y-72244448D01*
X128421090Y-72263168D01*
X128405438Y-72280438D01*
X128388168Y-72296090D01*
X128369448Y-72309974D01*
X128349457Y-72321956D01*
X128328387Y-72331921D01*
X128306443Y-72339773D01*
X128283834Y-72345437D01*
X128260779Y-72348856D01*
X128237500Y-72350000D01*
X127762500Y-72350000D01*
X127739221Y-72348856D01*
X127716166Y-72345437D01*
X127693557Y-72339773D01*
X127671613Y-72331921D01*
X127650543Y-72321956D01*
X127630552Y-72309974D01*
X127611832Y-72296090D01*
X127594562Y-72280438D01*
X127578910Y-72263168D01*
X127565026Y-72244448D01*
X127553044Y-72224457D01*
X127543079Y-72203387D01*
X127535227Y-72181443D01*
X127529563Y-72158834D01*
X127526144Y-72135779D01*
X127525000Y-72112500D01*
X127525000Y-71537500D01*
X127526144Y-71514221D01*
X127529563Y-71491166D01*
X127535227Y-71468557D01*
X127543079Y-71446613D01*
X127553044Y-71425543D01*
X127565026Y-71405552D01*
X127578910Y-71386832D01*
X127594562Y-71369562D01*
X127611832Y-71353910D01*
X127630552Y-71340026D01*
X127650543Y-71328044D01*
X127671613Y-71318079D01*
X127693557Y-71310227D01*
X127716166Y-71304563D01*
X127739221Y-71301144D01*
X127762500Y-71300000D01*
X128237500Y-71300000D01*
X128260779Y-71301144D01*
X128260779Y-71301144D01*
G37*
D13*
X128000000Y-71825000D03*
G04 #@! TD*
D12*
G04 #@! TO.C,R28*
G36*
X93049505Y-119326204D02*
X93073773Y-119329804D01*
X93097572Y-119335765D01*
X93120671Y-119344030D01*
X93142850Y-119354520D01*
X93163893Y-119367132D01*
X93183599Y-119381747D01*
X93201777Y-119398223D01*
X93218253Y-119416401D01*
X93232868Y-119436107D01*
X93245480Y-119457150D01*
X93255970Y-119479329D01*
X93264235Y-119502428D01*
X93270196Y-119526227D01*
X93273796Y-119550495D01*
X93275000Y-119574999D01*
X93275000Y-122425001D01*
X93273796Y-122449505D01*
X93270196Y-122473773D01*
X93264235Y-122497572D01*
X93255970Y-122520671D01*
X93245480Y-122542850D01*
X93232868Y-122563893D01*
X93218253Y-122583599D01*
X93201777Y-122601777D01*
X93183599Y-122618253D01*
X93163893Y-122632868D01*
X93142850Y-122645480D01*
X93120671Y-122655970D01*
X93097572Y-122664235D01*
X93073773Y-122670196D01*
X93049505Y-122673796D01*
X93025001Y-122675000D01*
X91999999Y-122675000D01*
X91975495Y-122673796D01*
X91951227Y-122670196D01*
X91927428Y-122664235D01*
X91904329Y-122655970D01*
X91882150Y-122645480D01*
X91861107Y-122632868D01*
X91841401Y-122618253D01*
X91823223Y-122601777D01*
X91806747Y-122583599D01*
X91792132Y-122563893D01*
X91779520Y-122542850D01*
X91769030Y-122520671D01*
X91760765Y-122497572D01*
X91754804Y-122473773D01*
X91751204Y-122449505D01*
X91750000Y-122425001D01*
X91750000Y-119574999D01*
X91751204Y-119550495D01*
X91754804Y-119526227D01*
X91760765Y-119502428D01*
X91769030Y-119479329D01*
X91779520Y-119457150D01*
X91792132Y-119436107D01*
X91806747Y-119416401D01*
X91823223Y-119398223D01*
X91841401Y-119381747D01*
X91861107Y-119367132D01*
X91882150Y-119354520D01*
X91904329Y-119344030D01*
X91927428Y-119335765D01*
X91951227Y-119329804D01*
X91975495Y-119326204D01*
X91999999Y-119325000D01*
X93025001Y-119325000D01*
X93049505Y-119326204D01*
X93049505Y-119326204D01*
G37*
D24*
X92512500Y-121000000D03*
D12*
G36*
X99024505Y-119326204D02*
X99048773Y-119329804D01*
X99072572Y-119335765D01*
X99095671Y-119344030D01*
X99117850Y-119354520D01*
X99138893Y-119367132D01*
X99158599Y-119381747D01*
X99176777Y-119398223D01*
X99193253Y-119416401D01*
X99207868Y-119436107D01*
X99220480Y-119457150D01*
X99230970Y-119479329D01*
X99239235Y-119502428D01*
X99245196Y-119526227D01*
X99248796Y-119550495D01*
X99250000Y-119574999D01*
X99250000Y-122425001D01*
X99248796Y-122449505D01*
X99245196Y-122473773D01*
X99239235Y-122497572D01*
X99230970Y-122520671D01*
X99220480Y-122542850D01*
X99207868Y-122563893D01*
X99193253Y-122583599D01*
X99176777Y-122601777D01*
X99158599Y-122618253D01*
X99138893Y-122632868D01*
X99117850Y-122645480D01*
X99095671Y-122655970D01*
X99072572Y-122664235D01*
X99048773Y-122670196D01*
X99024505Y-122673796D01*
X99000001Y-122675000D01*
X97974999Y-122675000D01*
X97950495Y-122673796D01*
X97926227Y-122670196D01*
X97902428Y-122664235D01*
X97879329Y-122655970D01*
X97857150Y-122645480D01*
X97836107Y-122632868D01*
X97816401Y-122618253D01*
X97798223Y-122601777D01*
X97781747Y-122583599D01*
X97767132Y-122563893D01*
X97754520Y-122542850D01*
X97744030Y-122520671D01*
X97735765Y-122497572D01*
X97729804Y-122473773D01*
X97726204Y-122449505D01*
X97725000Y-122425001D01*
X97725000Y-119574999D01*
X97726204Y-119550495D01*
X97729804Y-119526227D01*
X97735765Y-119502428D01*
X97744030Y-119479329D01*
X97754520Y-119457150D01*
X97767132Y-119436107D01*
X97781747Y-119416401D01*
X97798223Y-119398223D01*
X97816401Y-119381747D01*
X97836107Y-119367132D01*
X97857150Y-119354520D01*
X97879329Y-119344030D01*
X97902428Y-119335765D01*
X97926227Y-119329804D01*
X97950495Y-119326204D01*
X97974999Y-119325000D01*
X99000001Y-119325000D01*
X99024505Y-119326204D01*
X99024505Y-119326204D01*
G37*
D24*
X98487500Y-121000000D03*
G04 #@! TD*
D12*
G04 #@! TO.C,R29*
G36*
X99024505Y-96326204D02*
X99048773Y-96329804D01*
X99072572Y-96335765D01*
X99095671Y-96344030D01*
X99117850Y-96354520D01*
X99138893Y-96367132D01*
X99158599Y-96381747D01*
X99176777Y-96398223D01*
X99193253Y-96416401D01*
X99207868Y-96436107D01*
X99220480Y-96457150D01*
X99230970Y-96479329D01*
X99239235Y-96502428D01*
X99245196Y-96526227D01*
X99248796Y-96550495D01*
X99250000Y-96574999D01*
X99250000Y-99425001D01*
X99248796Y-99449505D01*
X99245196Y-99473773D01*
X99239235Y-99497572D01*
X99230970Y-99520671D01*
X99220480Y-99542850D01*
X99207868Y-99563893D01*
X99193253Y-99583599D01*
X99176777Y-99601777D01*
X99158599Y-99618253D01*
X99138893Y-99632868D01*
X99117850Y-99645480D01*
X99095671Y-99655970D01*
X99072572Y-99664235D01*
X99048773Y-99670196D01*
X99024505Y-99673796D01*
X99000001Y-99675000D01*
X97974999Y-99675000D01*
X97950495Y-99673796D01*
X97926227Y-99670196D01*
X97902428Y-99664235D01*
X97879329Y-99655970D01*
X97857150Y-99645480D01*
X97836107Y-99632868D01*
X97816401Y-99618253D01*
X97798223Y-99601777D01*
X97781747Y-99583599D01*
X97767132Y-99563893D01*
X97754520Y-99542850D01*
X97744030Y-99520671D01*
X97735765Y-99497572D01*
X97729804Y-99473773D01*
X97726204Y-99449505D01*
X97725000Y-99425001D01*
X97725000Y-96574999D01*
X97726204Y-96550495D01*
X97729804Y-96526227D01*
X97735765Y-96502428D01*
X97744030Y-96479329D01*
X97754520Y-96457150D01*
X97767132Y-96436107D01*
X97781747Y-96416401D01*
X97798223Y-96398223D01*
X97816401Y-96381747D01*
X97836107Y-96367132D01*
X97857150Y-96354520D01*
X97879329Y-96344030D01*
X97902428Y-96335765D01*
X97926227Y-96329804D01*
X97950495Y-96326204D01*
X97974999Y-96325000D01*
X99000001Y-96325000D01*
X99024505Y-96326204D01*
X99024505Y-96326204D01*
G37*
D24*
X98487500Y-98000000D03*
D12*
G36*
X93049505Y-96326204D02*
X93073773Y-96329804D01*
X93097572Y-96335765D01*
X93120671Y-96344030D01*
X93142850Y-96354520D01*
X93163893Y-96367132D01*
X93183599Y-96381747D01*
X93201777Y-96398223D01*
X93218253Y-96416401D01*
X93232868Y-96436107D01*
X93245480Y-96457150D01*
X93255970Y-96479329D01*
X93264235Y-96502428D01*
X93270196Y-96526227D01*
X93273796Y-96550495D01*
X93275000Y-96574999D01*
X93275000Y-99425001D01*
X93273796Y-99449505D01*
X93270196Y-99473773D01*
X93264235Y-99497572D01*
X93255970Y-99520671D01*
X93245480Y-99542850D01*
X93232868Y-99563893D01*
X93218253Y-99583599D01*
X93201777Y-99601777D01*
X93183599Y-99618253D01*
X93163893Y-99632868D01*
X93142850Y-99645480D01*
X93120671Y-99655970D01*
X93097572Y-99664235D01*
X93073773Y-99670196D01*
X93049505Y-99673796D01*
X93025001Y-99675000D01*
X91999999Y-99675000D01*
X91975495Y-99673796D01*
X91951227Y-99670196D01*
X91927428Y-99664235D01*
X91904329Y-99655970D01*
X91882150Y-99645480D01*
X91861107Y-99632868D01*
X91841401Y-99618253D01*
X91823223Y-99601777D01*
X91806747Y-99583599D01*
X91792132Y-99563893D01*
X91779520Y-99542850D01*
X91769030Y-99520671D01*
X91760765Y-99497572D01*
X91754804Y-99473773D01*
X91751204Y-99449505D01*
X91750000Y-99425001D01*
X91750000Y-96574999D01*
X91751204Y-96550495D01*
X91754804Y-96526227D01*
X91760765Y-96502428D01*
X91769030Y-96479329D01*
X91779520Y-96457150D01*
X91792132Y-96436107D01*
X91806747Y-96416401D01*
X91823223Y-96398223D01*
X91841401Y-96381747D01*
X91861107Y-96367132D01*
X91882150Y-96354520D01*
X91904329Y-96344030D01*
X91927428Y-96335765D01*
X91951227Y-96329804D01*
X91975495Y-96326204D01*
X91999999Y-96325000D01*
X93025001Y-96325000D01*
X93049505Y-96326204D01*
X93049505Y-96326204D01*
G37*
D24*
X92512500Y-98000000D03*
G04 #@! TD*
D12*
G04 #@! TO.C,R30*
G36*
X99024505Y-107826204D02*
X99048773Y-107829804D01*
X99072572Y-107835765D01*
X99095671Y-107844030D01*
X99117850Y-107854520D01*
X99138893Y-107867132D01*
X99158599Y-107881747D01*
X99176777Y-107898223D01*
X99193253Y-107916401D01*
X99207868Y-107936107D01*
X99220480Y-107957150D01*
X99230970Y-107979329D01*
X99239235Y-108002428D01*
X99245196Y-108026227D01*
X99248796Y-108050495D01*
X99250000Y-108074999D01*
X99250000Y-110925001D01*
X99248796Y-110949505D01*
X99245196Y-110973773D01*
X99239235Y-110997572D01*
X99230970Y-111020671D01*
X99220480Y-111042850D01*
X99207868Y-111063893D01*
X99193253Y-111083599D01*
X99176777Y-111101777D01*
X99158599Y-111118253D01*
X99138893Y-111132868D01*
X99117850Y-111145480D01*
X99095671Y-111155970D01*
X99072572Y-111164235D01*
X99048773Y-111170196D01*
X99024505Y-111173796D01*
X99000001Y-111175000D01*
X97974999Y-111175000D01*
X97950495Y-111173796D01*
X97926227Y-111170196D01*
X97902428Y-111164235D01*
X97879329Y-111155970D01*
X97857150Y-111145480D01*
X97836107Y-111132868D01*
X97816401Y-111118253D01*
X97798223Y-111101777D01*
X97781747Y-111083599D01*
X97767132Y-111063893D01*
X97754520Y-111042850D01*
X97744030Y-111020671D01*
X97735765Y-110997572D01*
X97729804Y-110973773D01*
X97726204Y-110949505D01*
X97725000Y-110925001D01*
X97725000Y-108074999D01*
X97726204Y-108050495D01*
X97729804Y-108026227D01*
X97735765Y-108002428D01*
X97744030Y-107979329D01*
X97754520Y-107957150D01*
X97767132Y-107936107D01*
X97781747Y-107916401D01*
X97798223Y-107898223D01*
X97816401Y-107881747D01*
X97836107Y-107867132D01*
X97857150Y-107854520D01*
X97879329Y-107844030D01*
X97902428Y-107835765D01*
X97926227Y-107829804D01*
X97950495Y-107826204D01*
X97974999Y-107825000D01*
X99000001Y-107825000D01*
X99024505Y-107826204D01*
X99024505Y-107826204D01*
G37*
D24*
X98487500Y-109500000D03*
D12*
G36*
X93049505Y-107826204D02*
X93073773Y-107829804D01*
X93097572Y-107835765D01*
X93120671Y-107844030D01*
X93142850Y-107854520D01*
X93163893Y-107867132D01*
X93183599Y-107881747D01*
X93201777Y-107898223D01*
X93218253Y-107916401D01*
X93232868Y-107936107D01*
X93245480Y-107957150D01*
X93255970Y-107979329D01*
X93264235Y-108002428D01*
X93270196Y-108026227D01*
X93273796Y-108050495D01*
X93275000Y-108074999D01*
X93275000Y-110925001D01*
X93273796Y-110949505D01*
X93270196Y-110973773D01*
X93264235Y-110997572D01*
X93255970Y-111020671D01*
X93245480Y-111042850D01*
X93232868Y-111063893D01*
X93218253Y-111083599D01*
X93201777Y-111101777D01*
X93183599Y-111118253D01*
X93163893Y-111132868D01*
X93142850Y-111145480D01*
X93120671Y-111155970D01*
X93097572Y-111164235D01*
X93073773Y-111170196D01*
X93049505Y-111173796D01*
X93025001Y-111175000D01*
X91999999Y-111175000D01*
X91975495Y-111173796D01*
X91951227Y-111170196D01*
X91927428Y-111164235D01*
X91904329Y-111155970D01*
X91882150Y-111145480D01*
X91861107Y-111132868D01*
X91841401Y-111118253D01*
X91823223Y-111101777D01*
X91806747Y-111083599D01*
X91792132Y-111063893D01*
X91779520Y-111042850D01*
X91769030Y-111020671D01*
X91760765Y-110997572D01*
X91754804Y-110973773D01*
X91751204Y-110949505D01*
X91750000Y-110925001D01*
X91750000Y-108074999D01*
X91751204Y-108050495D01*
X91754804Y-108026227D01*
X91760765Y-108002428D01*
X91769030Y-107979329D01*
X91779520Y-107957150D01*
X91792132Y-107936107D01*
X91806747Y-107916401D01*
X91823223Y-107898223D01*
X91841401Y-107881747D01*
X91861107Y-107867132D01*
X91882150Y-107854520D01*
X91904329Y-107844030D01*
X91927428Y-107835765D01*
X91951227Y-107829804D01*
X91975495Y-107826204D01*
X91999999Y-107825000D01*
X93025001Y-107825000D01*
X93049505Y-107826204D01*
X93049505Y-107826204D01*
G37*
D24*
X92512500Y-109500000D03*
G04 #@! TD*
D12*
G04 #@! TO.C,R31*
G36*
X93049505Y-101826204D02*
X93073773Y-101829804D01*
X93097572Y-101835765D01*
X93120671Y-101844030D01*
X93142850Y-101854520D01*
X93163893Y-101867132D01*
X93183599Y-101881747D01*
X93201777Y-101898223D01*
X93218253Y-101916401D01*
X93232868Y-101936107D01*
X93245480Y-101957150D01*
X93255970Y-101979329D01*
X93264235Y-102002428D01*
X93270196Y-102026227D01*
X93273796Y-102050495D01*
X93275000Y-102074999D01*
X93275000Y-104925001D01*
X93273796Y-104949505D01*
X93270196Y-104973773D01*
X93264235Y-104997572D01*
X93255970Y-105020671D01*
X93245480Y-105042850D01*
X93232868Y-105063893D01*
X93218253Y-105083599D01*
X93201777Y-105101777D01*
X93183599Y-105118253D01*
X93163893Y-105132868D01*
X93142850Y-105145480D01*
X93120671Y-105155970D01*
X93097572Y-105164235D01*
X93073773Y-105170196D01*
X93049505Y-105173796D01*
X93025001Y-105175000D01*
X91999999Y-105175000D01*
X91975495Y-105173796D01*
X91951227Y-105170196D01*
X91927428Y-105164235D01*
X91904329Y-105155970D01*
X91882150Y-105145480D01*
X91861107Y-105132868D01*
X91841401Y-105118253D01*
X91823223Y-105101777D01*
X91806747Y-105083599D01*
X91792132Y-105063893D01*
X91779520Y-105042850D01*
X91769030Y-105020671D01*
X91760765Y-104997572D01*
X91754804Y-104973773D01*
X91751204Y-104949505D01*
X91750000Y-104925001D01*
X91750000Y-102074999D01*
X91751204Y-102050495D01*
X91754804Y-102026227D01*
X91760765Y-102002428D01*
X91769030Y-101979329D01*
X91779520Y-101957150D01*
X91792132Y-101936107D01*
X91806747Y-101916401D01*
X91823223Y-101898223D01*
X91841401Y-101881747D01*
X91861107Y-101867132D01*
X91882150Y-101854520D01*
X91904329Y-101844030D01*
X91927428Y-101835765D01*
X91951227Y-101829804D01*
X91975495Y-101826204D01*
X91999999Y-101825000D01*
X93025001Y-101825000D01*
X93049505Y-101826204D01*
X93049505Y-101826204D01*
G37*
D24*
X92512500Y-103500000D03*
D12*
G36*
X99024505Y-101826204D02*
X99048773Y-101829804D01*
X99072572Y-101835765D01*
X99095671Y-101844030D01*
X99117850Y-101854520D01*
X99138893Y-101867132D01*
X99158599Y-101881747D01*
X99176777Y-101898223D01*
X99193253Y-101916401D01*
X99207868Y-101936107D01*
X99220480Y-101957150D01*
X99230970Y-101979329D01*
X99239235Y-102002428D01*
X99245196Y-102026227D01*
X99248796Y-102050495D01*
X99250000Y-102074999D01*
X99250000Y-104925001D01*
X99248796Y-104949505D01*
X99245196Y-104973773D01*
X99239235Y-104997572D01*
X99230970Y-105020671D01*
X99220480Y-105042850D01*
X99207868Y-105063893D01*
X99193253Y-105083599D01*
X99176777Y-105101777D01*
X99158599Y-105118253D01*
X99138893Y-105132868D01*
X99117850Y-105145480D01*
X99095671Y-105155970D01*
X99072572Y-105164235D01*
X99048773Y-105170196D01*
X99024505Y-105173796D01*
X99000001Y-105175000D01*
X97974999Y-105175000D01*
X97950495Y-105173796D01*
X97926227Y-105170196D01*
X97902428Y-105164235D01*
X97879329Y-105155970D01*
X97857150Y-105145480D01*
X97836107Y-105132868D01*
X97816401Y-105118253D01*
X97798223Y-105101777D01*
X97781747Y-105083599D01*
X97767132Y-105063893D01*
X97754520Y-105042850D01*
X97744030Y-105020671D01*
X97735765Y-104997572D01*
X97729804Y-104973773D01*
X97726204Y-104949505D01*
X97725000Y-104925001D01*
X97725000Y-102074999D01*
X97726204Y-102050495D01*
X97729804Y-102026227D01*
X97735765Y-102002428D01*
X97744030Y-101979329D01*
X97754520Y-101957150D01*
X97767132Y-101936107D01*
X97781747Y-101916401D01*
X97798223Y-101898223D01*
X97816401Y-101881747D01*
X97836107Y-101867132D01*
X97857150Y-101854520D01*
X97879329Y-101844030D01*
X97902428Y-101835765D01*
X97926227Y-101829804D01*
X97950495Y-101826204D01*
X97974999Y-101825000D01*
X99000001Y-101825000D01*
X99024505Y-101826204D01*
X99024505Y-101826204D01*
G37*
D24*
X98487500Y-103500000D03*
G04 #@! TD*
D12*
G04 #@! TO.C,R32*
G36*
X99024505Y-113826204D02*
X99048773Y-113829804D01*
X99072572Y-113835765D01*
X99095671Y-113844030D01*
X99117850Y-113854520D01*
X99138893Y-113867132D01*
X99158599Y-113881747D01*
X99176777Y-113898223D01*
X99193253Y-113916401D01*
X99207868Y-113936107D01*
X99220480Y-113957150D01*
X99230970Y-113979329D01*
X99239235Y-114002428D01*
X99245196Y-114026227D01*
X99248796Y-114050495D01*
X99250000Y-114074999D01*
X99250000Y-116925001D01*
X99248796Y-116949505D01*
X99245196Y-116973773D01*
X99239235Y-116997572D01*
X99230970Y-117020671D01*
X99220480Y-117042850D01*
X99207868Y-117063893D01*
X99193253Y-117083599D01*
X99176777Y-117101777D01*
X99158599Y-117118253D01*
X99138893Y-117132868D01*
X99117850Y-117145480D01*
X99095671Y-117155970D01*
X99072572Y-117164235D01*
X99048773Y-117170196D01*
X99024505Y-117173796D01*
X99000001Y-117175000D01*
X97974999Y-117175000D01*
X97950495Y-117173796D01*
X97926227Y-117170196D01*
X97902428Y-117164235D01*
X97879329Y-117155970D01*
X97857150Y-117145480D01*
X97836107Y-117132868D01*
X97816401Y-117118253D01*
X97798223Y-117101777D01*
X97781747Y-117083599D01*
X97767132Y-117063893D01*
X97754520Y-117042850D01*
X97744030Y-117020671D01*
X97735765Y-116997572D01*
X97729804Y-116973773D01*
X97726204Y-116949505D01*
X97725000Y-116925001D01*
X97725000Y-114074999D01*
X97726204Y-114050495D01*
X97729804Y-114026227D01*
X97735765Y-114002428D01*
X97744030Y-113979329D01*
X97754520Y-113957150D01*
X97767132Y-113936107D01*
X97781747Y-113916401D01*
X97798223Y-113898223D01*
X97816401Y-113881747D01*
X97836107Y-113867132D01*
X97857150Y-113854520D01*
X97879329Y-113844030D01*
X97902428Y-113835765D01*
X97926227Y-113829804D01*
X97950495Y-113826204D01*
X97974999Y-113825000D01*
X99000001Y-113825000D01*
X99024505Y-113826204D01*
X99024505Y-113826204D01*
G37*
D24*
X98487500Y-115500000D03*
D12*
G36*
X93049505Y-113826204D02*
X93073773Y-113829804D01*
X93097572Y-113835765D01*
X93120671Y-113844030D01*
X93142850Y-113854520D01*
X93163893Y-113867132D01*
X93183599Y-113881747D01*
X93201777Y-113898223D01*
X93218253Y-113916401D01*
X93232868Y-113936107D01*
X93245480Y-113957150D01*
X93255970Y-113979329D01*
X93264235Y-114002428D01*
X93270196Y-114026227D01*
X93273796Y-114050495D01*
X93275000Y-114074999D01*
X93275000Y-116925001D01*
X93273796Y-116949505D01*
X93270196Y-116973773D01*
X93264235Y-116997572D01*
X93255970Y-117020671D01*
X93245480Y-117042850D01*
X93232868Y-117063893D01*
X93218253Y-117083599D01*
X93201777Y-117101777D01*
X93183599Y-117118253D01*
X93163893Y-117132868D01*
X93142850Y-117145480D01*
X93120671Y-117155970D01*
X93097572Y-117164235D01*
X93073773Y-117170196D01*
X93049505Y-117173796D01*
X93025001Y-117175000D01*
X91999999Y-117175000D01*
X91975495Y-117173796D01*
X91951227Y-117170196D01*
X91927428Y-117164235D01*
X91904329Y-117155970D01*
X91882150Y-117145480D01*
X91861107Y-117132868D01*
X91841401Y-117118253D01*
X91823223Y-117101777D01*
X91806747Y-117083599D01*
X91792132Y-117063893D01*
X91779520Y-117042850D01*
X91769030Y-117020671D01*
X91760765Y-116997572D01*
X91754804Y-116973773D01*
X91751204Y-116949505D01*
X91750000Y-116925001D01*
X91750000Y-114074999D01*
X91751204Y-114050495D01*
X91754804Y-114026227D01*
X91760765Y-114002428D01*
X91769030Y-113979329D01*
X91779520Y-113957150D01*
X91792132Y-113936107D01*
X91806747Y-113916401D01*
X91823223Y-113898223D01*
X91841401Y-113881747D01*
X91861107Y-113867132D01*
X91882150Y-113854520D01*
X91904329Y-113844030D01*
X91927428Y-113835765D01*
X91951227Y-113829804D01*
X91975495Y-113826204D01*
X91999999Y-113825000D01*
X93025001Y-113825000D01*
X93049505Y-113826204D01*
X93049505Y-113826204D01*
G37*
D24*
X92512500Y-115500000D03*
G04 #@! TD*
D12*
G04 #@! TO.C,R33*
G36*
X153035779Y-82526144D02*
X153058834Y-82529563D01*
X153081443Y-82535227D01*
X153103387Y-82543079D01*
X153124457Y-82553044D01*
X153144448Y-82565026D01*
X153163168Y-82578910D01*
X153180438Y-82594562D01*
X153196090Y-82611832D01*
X153209974Y-82630552D01*
X153221956Y-82650543D01*
X153231921Y-82671613D01*
X153239773Y-82693557D01*
X153245437Y-82716166D01*
X153248856Y-82739221D01*
X153250000Y-82762500D01*
X153250000Y-83237500D01*
X153248856Y-83260779D01*
X153245437Y-83283834D01*
X153239773Y-83306443D01*
X153231921Y-83328387D01*
X153221956Y-83349457D01*
X153209974Y-83369448D01*
X153196090Y-83388168D01*
X153180438Y-83405438D01*
X153163168Y-83421090D01*
X153144448Y-83434974D01*
X153124457Y-83446956D01*
X153103387Y-83456921D01*
X153081443Y-83464773D01*
X153058834Y-83470437D01*
X153035779Y-83473856D01*
X153012500Y-83475000D01*
X152437500Y-83475000D01*
X152414221Y-83473856D01*
X152391166Y-83470437D01*
X152368557Y-83464773D01*
X152346613Y-83456921D01*
X152325543Y-83446956D01*
X152305552Y-83434974D01*
X152286832Y-83421090D01*
X152269562Y-83405438D01*
X152253910Y-83388168D01*
X152240026Y-83369448D01*
X152228044Y-83349457D01*
X152218079Y-83328387D01*
X152210227Y-83306443D01*
X152204563Y-83283834D01*
X152201144Y-83260779D01*
X152200000Y-83237500D01*
X152200000Y-82762500D01*
X152201144Y-82739221D01*
X152204563Y-82716166D01*
X152210227Y-82693557D01*
X152218079Y-82671613D01*
X152228044Y-82650543D01*
X152240026Y-82630552D01*
X152253910Y-82611832D01*
X152269562Y-82594562D01*
X152286832Y-82578910D01*
X152305552Y-82565026D01*
X152325543Y-82553044D01*
X152346613Y-82543079D01*
X152368557Y-82535227D01*
X152391166Y-82529563D01*
X152414221Y-82526144D01*
X152437500Y-82525000D01*
X153012500Y-82525000D01*
X153035779Y-82526144D01*
X153035779Y-82526144D01*
G37*
D13*
X152725000Y-83000000D03*
D12*
G36*
X154785779Y-82526144D02*
X154808834Y-82529563D01*
X154831443Y-82535227D01*
X154853387Y-82543079D01*
X154874457Y-82553044D01*
X154894448Y-82565026D01*
X154913168Y-82578910D01*
X154930438Y-82594562D01*
X154946090Y-82611832D01*
X154959974Y-82630552D01*
X154971956Y-82650543D01*
X154981921Y-82671613D01*
X154989773Y-82693557D01*
X154995437Y-82716166D01*
X154998856Y-82739221D01*
X155000000Y-82762500D01*
X155000000Y-83237500D01*
X154998856Y-83260779D01*
X154995437Y-83283834D01*
X154989773Y-83306443D01*
X154981921Y-83328387D01*
X154971956Y-83349457D01*
X154959974Y-83369448D01*
X154946090Y-83388168D01*
X154930438Y-83405438D01*
X154913168Y-83421090D01*
X154894448Y-83434974D01*
X154874457Y-83446956D01*
X154853387Y-83456921D01*
X154831443Y-83464773D01*
X154808834Y-83470437D01*
X154785779Y-83473856D01*
X154762500Y-83475000D01*
X154187500Y-83475000D01*
X154164221Y-83473856D01*
X154141166Y-83470437D01*
X154118557Y-83464773D01*
X154096613Y-83456921D01*
X154075543Y-83446956D01*
X154055552Y-83434974D01*
X154036832Y-83421090D01*
X154019562Y-83405438D01*
X154003910Y-83388168D01*
X153990026Y-83369448D01*
X153978044Y-83349457D01*
X153968079Y-83328387D01*
X153960227Y-83306443D01*
X153954563Y-83283834D01*
X153951144Y-83260779D01*
X153950000Y-83237500D01*
X153950000Y-82762500D01*
X153951144Y-82739221D01*
X153954563Y-82716166D01*
X153960227Y-82693557D01*
X153968079Y-82671613D01*
X153978044Y-82650543D01*
X153990026Y-82630552D01*
X154003910Y-82611832D01*
X154019562Y-82594562D01*
X154036832Y-82578910D01*
X154055552Y-82565026D01*
X154075543Y-82553044D01*
X154096613Y-82543079D01*
X154118557Y-82535227D01*
X154141166Y-82529563D01*
X154164221Y-82526144D01*
X154187500Y-82525000D01*
X154762500Y-82525000D01*
X154785779Y-82526144D01*
X154785779Y-82526144D01*
G37*
D13*
X154475000Y-83000000D03*
G04 #@! TD*
D12*
G04 #@! TO.C,R36*
G36*
X132135779Y-82926144D02*
X132158834Y-82929563D01*
X132181443Y-82935227D01*
X132203387Y-82943079D01*
X132224457Y-82953044D01*
X132244448Y-82965026D01*
X132263168Y-82978910D01*
X132280438Y-82994562D01*
X132296090Y-83011832D01*
X132309974Y-83030552D01*
X132321956Y-83050543D01*
X132331921Y-83071613D01*
X132339773Y-83093557D01*
X132345437Y-83116166D01*
X132348856Y-83139221D01*
X132350000Y-83162500D01*
X132350000Y-83637500D01*
X132348856Y-83660779D01*
X132345437Y-83683834D01*
X132339773Y-83706443D01*
X132331921Y-83728387D01*
X132321956Y-83749457D01*
X132309974Y-83769448D01*
X132296090Y-83788168D01*
X132280438Y-83805438D01*
X132263168Y-83821090D01*
X132244448Y-83834974D01*
X132224457Y-83846956D01*
X132203387Y-83856921D01*
X132181443Y-83864773D01*
X132158834Y-83870437D01*
X132135779Y-83873856D01*
X132112500Y-83875000D01*
X131537500Y-83875000D01*
X131514221Y-83873856D01*
X131491166Y-83870437D01*
X131468557Y-83864773D01*
X131446613Y-83856921D01*
X131425543Y-83846956D01*
X131405552Y-83834974D01*
X131386832Y-83821090D01*
X131369562Y-83805438D01*
X131353910Y-83788168D01*
X131340026Y-83769448D01*
X131328044Y-83749457D01*
X131318079Y-83728387D01*
X131310227Y-83706443D01*
X131304563Y-83683834D01*
X131301144Y-83660779D01*
X131300000Y-83637500D01*
X131300000Y-83162500D01*
X131301144Y-83139221D01*
X131304563Y-83116166D01*
X131310227Y-83093557D01*
X131318079Y-83071613D01*
X131328044Y-83050543D01*
X131340026Y-83030552D01*
X131353910Y-83011832D01*
X131369562Y-82994562D01*
X131386832Y-82978910D01*
X131405552Y-82965026D01*
X131425543Y-82953044D01*
X131446613Y-82943079D01*
X131468557Y-82935227D01*
X131491166Y-82929563D01*
X131514221Y-82926144D01*
X131537500Y-82925000D01*
X132112500Y-82925000D01*
X132135779Y-82926144D01*
X132135779Y-82926144D01*
G37*
D13*
X131825000Y-83400000D03*
D12*
G36*
X133885779Y-82926144D02*
X133908834Y-82929563D01*
X133931443Y-82935227D01*
X133953387Y-82943079D01*
X133974457Y-82953044D01*
X133994448Y-82965026D01*
X134013168Y-82978910D01*
X134030438Y-82994562D01*
X134046090Y-83011832D01*
X134059974Y-83030552D01*
X134071956Y-83050543D01*
X134081921Y-83071613D01*
X134089773Y-83093557D01*
X134095437Y-83116166D01*
X134098856Y-83139221D01*
X134100000Y-83162500D01*
X134100000Y-83637500D01*
X134098856Y-83660779D01*
X134095437Y-83683834D01*
X134089773Y-83706443D01*
X134081921Y-83728387D01*
X134071956Y-83749457D01*
X134059974Y-83769448D01*
X134046090Y-83788168D01*
X134030438Y-83805438D01*
X134013168Y-83821090D01*
X133994448Y-83834974D01*
X133974457Y-83846956D01*
X133953387Y-83856921D01*
X133931443Y-83864773D01*
X133908834Y-83870437D01*
X133885779Y-83873856D01*
X133862500Y-83875000D01*
X133287500Y-83875000D01*
X133264221Y-83873856D01*
X133241166Y-83870437D01*
X133218557Y-83864773D01*
X133196613Y-83856921D01*
X133175543Y-83846956D01*
X133155552Y-83834974D01*
X133136832Y-83821090D01*
X133119562Y-83805438D01*
X133103910Y-83788168D01*
X133090026Y-83769448D01*
X133078044Y-83749457D01*
X133068079Y-83728387D01*
X133060227Y-83706443D01*
X133054563Y-83683834D01*
X133051144Y-83660779D01*
X133050000Y-83637500D01*
X133050000Y-83162500D01*
X133051144Y-83139221D01*
X133054563Y-83116166D01*
X133060227Y-83093557D01*
X133068079Y-83071613D01*
X133078044Y-83050543D01*
X133090026Y-83030552D01*
X133103910Y-83011832D01*
X133119562Y-82994562D01*
X133136832Y-82978910D01*
X133155552Y-82965026D01*
X133175543Y-82953044D01*
X133196613Y-82943079D01*
X133218557Y-82935227D01*
X133241166Y-82929563D01*
X133264221Y-82926144D01*
X133287500Y-82925000D01*
X133862500Y-82925000D01*
X133885779Y-82926144D01*
X133885779Y-82926144D01*
G37*
D13*
X133575000Y-83400000D03*
G04 #@! TD*
D25*
G04 #@! TO.C,U1*
X96350000Y-71250000D03*
X97300000Y-71250000D03*
X98250000Y-71250000D03*
X98250000Y-68550000D03*
X96350000Y-68550000D03*
X97300000Y-68550000D03*
G04 #@! TD*
D26*
G04 #@! TO.C,U3*
X89850000Y-79100000D03*
D27*
X83550000Y-79100000D03*
X83550000Y-81400000D03*
X83550000Y-76800000D03*
G04 #@! TD*
D28*
G04 #@! TO.C,Y1*
X112250000Y-74500000D03*
X112250000Y-77400000D03*
X114550000Y-77400000D03*
X114550000Y-74500000D03*
G04 #@! TD*
D29*
G04 #@! TO.C,U4*
X127300000Y-88295000D03*
X127300000Y-89565000D03*
X127300000Y-90835000D03*
X127300000Y-92105000D03*
X121900000Y-92105000D03*
X121900000Y-90835000D03*
X121900000Y-89565000D03*
X121900000Y-88295000D03*
G04 #@! TD*
G04 #@! TO.C,U5*
X136900000Y-88295000D03*
X136900000Y-89565000D03*
X136900000Y-90835000D03*
X136900000Y-92105000D03*
X142300000Y-92105000D03*
X142300000Y-90835000D03*
X142300000Y-89565000D03*
X142300000Y-88295000D03*
G04 #@! TD*
D12*
G04 #@! TO.C,R1*
G36*
X83249504Y-69776204D02*
X83273773Y-69779804D01*
X83297571Y-69785765D01*
X83320671Y-69794030D01*
X83342849Y-69804520D01*
X83363893Y-69817133D01*
X83383598Y-69831747D01*
X83401777Y-69848223D01*
X83418253Y-69866402D01*
X83432867Y-69886107D01*
X83445480Y-69907151D01*
X83455970Y-69929329D01*
X83464235Y-69952429D01*
X83470196Y-69976227D01*
X83473796Y-70000496D01*
X83475000Y-70025000D01*
X83475000Y-71275000D01*
X83473796Y-71299504D01*
X83470196Y-71323773D01*
X83464235Y-71347571D01*
X83455970Y-71370671D01*
X83445480Y-71392849D01*
X83432867Y-71413893D01*
X83418253Y-71433598D01*
X83401777Y-71451777D01*
X83383598Y-71468253D01*
X83363893Y-71482867D01*
X83342849Y-71495480D01*
X83320671Y-71505970D01*
X83297571Y-71514235D01*
X83273773Y-71520196D01*
X83249504Y-71523796D01*
X83225000Y-71525000D01*
X82300000Y-71525000D01*
X82275496Y-71523796D01*
X82251227Y-71520196D01*
X82227429Y-71514235D01*
X82204329Y-71505970D01*
X82182151Y-71495480D01*
X82161107Y-71482867D01*
X82141402Y-71468253D01*
X82123223Y-71451777D01*
X82106747Y-71433598D01*
X82092133Y-71413893D01*
X82079520Y-71392849D01*
X82069030Y-71370671D01*
X82060765Y-71347571D01*
X82054804Y-71323773D01*
X82051204Y-71299504D01*
X82050000Y-71275000D01*
X82050000Y-70025000D01*
X82051204Y-70000496D01*
X82054804Y-69976227D01*
X82060765Y-69952429D01*
X82069030Y-69929329D01*
X82079520Y-69907151D01*
X82092133Y-69886107D01*
X82106747Y-69866402D01*
X82123223Y-69848223D01*
X82141402Y-69831747D01*
X82161107Y-69817133D01*
X82182151Y-69804520D01*
X82204329Y-69794030D01*
X82227429Y-69785765D01*
X82251227Y-69779804D01*
X82275496Y-69776204D01*
X82300000Y-69775000D01*
X83225000Y-69775000D01*
X83249504Y-69776204D01*
X83249504Y-69776204D01*
G37*
D23*
X82762500Y-70650000D03*
D12*
G36*
X86224504Y-69776204D02*
X86248773Y-69779804D01*
X86272571Y-69785765D01*
X86295671Y-69794030D01*
X86317849Y-69804520D01*
X86338893Y-69817133D01*
X86358598Y-69831747D01*
X86376777Y-69848223D01*
X86393253Y-69866402D01*
X86407867Y-69886107D01*
X86420480Y-69907151D01*
X86430970Y-69929329D01*
X86439235Y-69952429D01*
X86445196Y-69976227D01*
X86448796Y-70000496D01*
X86450000Y-70025000D01*
X86450000Y-71275000D01*
X86448796Y-71299504D01*
X86445196Y-71323773D01*
X86439235Y-71347571D01*
X86430970Y-71370671D01*
X86420480Y-71392849D01*
X86407867Y-71413893D01*
X86393253Y-71433598D01*
X86376777Y-71451777D01*
X86358598Y-71468253D01*
X86338893Y-71482867D01*
X86317849Y-71495480D01*
X86295671Y-71505970D01*
X86272571Y-71514235D01*
X86248773Y-71520196D01*
X86224504Y-71523796D01*
X86200000Y-71525000D01*
X85275000Y-71525000D01*
X85250496Y-71523796D01*
X85226227Y-71520196D01*
X85202429Y-71514235D01*
X85179329Y-71505970D01*
X85157151Y-71495480D01*
X85136107Y-71482867D01*
X85116402Y-71468253D01*
X85098223Y-71451777D01*
X85081747Y-71433598D01*
X85067133Y-71413893D01*
X85054520Y-71392849D01*
X85044030Y-71370671D01*
X85035765Y-71347571D01*
X85029804Y-71323773D01*
X85026204Y-71299504D01*
X85025000Y-71275000D01*
X85025000Y-70025000D01*
X85026204Y-70000496D01*
X85029804Y-69976227D01*
X85035765Y-69952429D01*
X85044030Y-69929329D01*
X85054520Y-69907151D01*
X85067133Y-69886107D01*
X85081747Y-69866402D01*
X85098223Y-69848223D01*
X85116402Y-69831747D01*
X85136107Y-69817133D01*
X85157151Y-69804520D01*
X85179329Y-69794030D01*
X85202429Y-69785765D01*
X85226227Y-69779804D01*
X85250496Y-69776204D01*
X85275000Y-69775000D01*
X86200000Y-69775000D01*
X86224504Y-69776204D01*
X86224504Y-69776204D01*
G37*
D23*
X85737500Y-70650000D03*
G04 #@! TD*
D11*
G04 #@! TO.C,U8*
X128800000Y-120974950D03*
X128800000Y-120324950D03*
X128800000Y-119674950D03*
X128800000Y-119024950D03*
X124400000Y-119024950D03*
X124400000Y-119674950D03*
X124400000Y-120324950D03*
X124400000Y-120974950D03*
G04 #@! TD*
D18*
G04 #@! TO.C,C7*
X139200000Y-77250000D03*
X139200000Y-75350000D03*
G04 #@! TD*
D12*
G04 #@! TO.C,R6*
G36*
X165935779Y-68676144D02*
X165958834Y-68679563D01*
X165981443Y-68685227D01*
X166003387Y-68693079D01*
X166024457Y-68703044D01*
X166044448Y-68715026D01*
X166063168Y-68728910D01*
X166080438Y-68744562D01*
X166096090Y-68761832D01*
X166109974Y-68780552D01*
X166121956Y-68800543D01*
X166131921Y-68821613D01*
X166139773Y-68843557D01*
X166145437Y-68866166D01*
X166148856Y-68889221D01*
X166150000Y-68912500D01*
X166150000Y-69387500D01*
X166148856Y-69410779D01*
X166145437Y-69433834D01*
X166139773Y-69456443D01*
X166131921Y-69478387D01*
X166121956Y-69499457D01*
X166109974Y-69519448D01*
X166096090Y-69538168D01*
X166080438Y-69555438D01*
X166063168Y-69571090D01*
X166044448Y-69584974D01*
X166024457Y-69596956D01*
X166003387Y-69606921D01*
X165981443Y-69614773D01*
X165958834Y-69620437D01*
X165935779Y-69623856D01*
X165912500Y-69625000D01*
X165337500Y-69625000D01*
X165314221Y-69623856D01*
X165291166Y-69620437D01*
X165268557Y-69614773D01*
X165246613Y-69606921D01*
X165225543Y-69596956D01*
X165205552Y-69584974D01*
X165186832Y-69571090D01*
X165169562Y-69555438D01*
X165153910Y-69538168D01*
X165140026Y-69519448D01*
X165128044Y-69499457D01*
X165118079Y-69478387D01*
X165110227Y-69456443D01*
X165104563Y-69433834D01*
X165101144Y-69410779D01*
X165100000Y-69387500D01*
X165100000Y-68912500D01*
X165101144Y-68889221D01*
X165104563Y-68866166D01*
X165110227Y-68843557D01*
X165118079Y-68821613D01*
X165128044Y-68800543D01*
X165140026Y-68780552D01*
X165153910Y-68761832D01*
X165169562Y-68744562D01*
X165186832Y-68728910D01*
X165205552Y-68715026D01*
X165225543Y-68703044D01*
X165246613Y-68693079D01*
X165268557Y-68685227D01*
X165291166Y-68679563D01*
X165314221Y-68676144D01*
X165337500Y-68675000D01*
X165912500Y-68675000D01*
X165935779Y-68676144D01*
X165935779Y-68676144D01*
G37*
D13*
X165625000Y-69150000D03*
D12*
G36*
X167685779Y-68676144D02*
X167708834Y-68679563D01*
X167731443Y-68685227D01*
X167753387Y-68693079D01*
X167774457Y-68703044D01*
X167794448Y-68715026D01*
X167813168Y-68728910D01*
X167830438Y-68744562D01*
X167846090Y-68761832D01*
X167859974Y-68780552D01*
X167871956Y-68800543D01*
X167881921Y-68821613D01*
X167889773Y-68843557D01*
X167895437Y-68866166D01*
X167898856Y-68889221D01*
X167900000Y-68912500D01*
X167900000Y-69387500D01*
X167898856Y-69410779D01*
X167895437Y-69433834D01*
X167889773Y-69456443D01*
X167881921Y-69478387D01*
X167871956Y-69499457D01*
X167859974Y-69519448D01*
X167846090Y-69538168D01*
X167830438Y-69555438D01*
X167813168Y-69571090D01*
X167794448Y-69584974D01*
X167774457Y-69596956D01*
X167753387Y-69606921D01*
X167731443Y-69614773D01*
X167708834Y-69620437D01*
X167685779Y-69623856D01*
X167662500Y-69625000D01*
X167087500Y-69625000D01*
X167064221Y-69623856D01*
X167041166Y-69620437D01*
X167018557Y-69614773D01*
X166996613Y-69606921D01*
X166975543Y-69596956D01*
X166955552Y-69584974D01*
X166936832Y-69571090D01*
X166919562Y-69555438D01*
X166903910Y-69538168D01*
X166890026Y-69519448D01*
X166878044Y-69499457D01*
X166868079Y-69478387D01*
X166860227Y-69456443D01*
X166854563Y-69433834D01*
X166851144Y-69410779D01*
X166850000Y-69387500D01*
X166850000Y-68912500D01*
X166851144Y-68889221D01*
X166854563Y-68866166D01*
X166860227Y-68843557D01*
X166868079Y-68821613D01*
X166878044Y-68800543D01*
X166890026Y-68780552D01*
X166903910Y-68761832D01*
X166919562Y-68744562D01*
X166936832Y-68728910D01*
X166955552Y-68715026D01*
X166975543Y-68703044D01*
X166996613Y-68693079D01*
X167018557Y-68685227D01*
X167041166Y-68679563D01*
X167064221Y-68676144D01*
X167087500Y-68675000D01*
X167662500Y-68675000D01*
X167685779Y-68676144D01*
X167685779Y-68676144D01*
G37*
D13*
X167375000Y-69150000D03*
G04 #@! TD*
D12*
G04 #@! TO.C,R12*
G36*
X167685779Y-67176144D02*
X167708834Y-67179563D01*
X167731443Y-67185227D01*
X167753387Y-67193079D01*
X167774457Y-67203044D01*
X167794448Y-67215026D01*
X167813168Y-67228910D01*
X167830438Y-67244562D01*
X167846090Y-67261832D01*
X167859974Y-67280552D01*
X167871956Y-67300543D01*
X167881921Y-67321613D01*
X167889773Y-67343557D01*
X167895437Y-67366166D01*
X167898856Y-67389221D01*
X167900000Y-67412500D01*
X167900000Y-67887500D01*
X167898856Y-67910779D01*
X167895437Y-67933834D01*
X167889773Y-67956443D01*
X167881921Y-67978387D01*
X167871956Y-67999457D01*
X167859974Y-68019448D01*
X167846090Y-68038168D01*
X167830438Y-68055438D01*
X167813168Y-68071090D01*
X167794448Y-68084974D01*
X167774457Y-68096956D01*
X167753387Y-68106921D01*
X167731443Y-68114773D01*
X167708834Y-68120437D01*
X167685779Y-68123856D01*
X167662500Y-68125000D01*
X167087500Y-68125000D01*
X167064221Y-68123856D01*
X167041166Y-68120437D01*
X167018557Y-68114773D01*
X166996613Y-68106921D01*
X166975543Y-68096956D01*
X166955552Y-68084974D01*
X166936832Y-68071090D01*
X166919562Y-68055438D01*
X166903910Y-68038168D01*
X166890026Y-68019448D01*
X166878044Y-67999457D01*
X166868079Y-67978387D01*
X166860227Y-67956443D01*
X166854563Y-67933834D01*
X166851144Y-67910779D01*
X166850000Y-67887500D01*
X166850000Y-67412500D01*
X166851144Y-67389221D01*
X166854563Y-67366166D01*
X166860227Y-67343557D01*
X166868079Y-67321613D01*
X166878044Y-67300543D01*
X166890026Y-67280552D01*
X166903910Y-67261832D01*
X166919562Y-67244562D01*
X166936832Y-67228910D01*
X166955552Y-67215026D01*
X166975543Y-67203044D01*
X166996613Y-67193079D01*
X167018557Y-67185227D01*
X167041166Y-67179563D01*
X167064221Y-67176144D01*
X167087500Y-67175000D01*
X167662500Y-67175000D01*
X167685779Y-67176144D01*
X167685779Y-67176144D01*
G37*
D13*
X167375000Y-67650000D03*
D12*
G36*
X165935779Y-67176144D02*
X165958834Y-67179563D01*
X165981443Y-67185227D01*
X166003387Y-67193079D01*
X166024457Y-67203044D01*
X166044448Y-67215026D01*
X166063168Y-67228910D01*
X166080438Y-67244562D01*
X166096090Y-67261832D01*
X166109974Y-67280552D01*
X166121956Y-67300543D01*
X166131921Y-67321613D01*
X166139773Y-67343557D01*
X166145437Y-67366166D01*
X166148856Y-67389221D01*
X166150000Y-67412500D01*
X166150000Y-67887500D01*
X166148856Y-67910779D01*
X166145437Y-67933834D01*
X166139773Y-67956443D01*
X166131921Y-67978387D01*
X166121956Y-67999457D01*
X166109974Y-68019448D01*
X166096090Y-68038168D01*
X166080438Y-68055438D01*
X166063168Y-68071090D01*
X166044448Y-68084974D01*
X166024457Y-68096956D01*
X166003387Y-68106921D01*
X165981443Y-68114773D01*
X165958834Y-68120437D01*
X165935779Y-68123856D01*
X165912500Y-68125000D01*
X165337500Y-68125000D01*
X165314221Y-68123856D01*
X165291166Y-68120437D01*
X165268557Y-68114773D01*
X165246613Y-68106921D01*
X165225543Y-68096956D01*
X165205552Y-68084974D01*
X165186832Y-68071090D01*
X165169562Y-68055438D01*
X165153910Y-68038168D01*
X165140026Y-68019448D01*
X165128044Y-67999457D01*
X165118079Y-67978387D01*
X165110227Y-67956443D01*
X165104563Y-67933834D01*
X165101144Y-67910779D01*
X165100000Y-67887500D01*
X165100000Y-67412500D01*
X165101144Y-67389221D01*
X165104563Y-67366166D01*
X165110227Y-67343557D01*
X165118079Y-67321613D01*
X165128044Y-67300543D01*
X165140026Y-67280552D01*
X165153910Y-67261832D01*
X165169562Y-67244562D01*
X165186832Y-67228910D01*
X165205552Y-67215026D01*
X165225543Y-67203044D01*
X165246613Y-67193079D01*
X165268557Y-67185227D01*
X165291166Y-67179563D01*
X165314221Y-67176144D01*
X165337500Y-67175000D01*
X165912500Y-67175000D01*
X165935779Y-67176144D01*
X165935779Y-67176144D01*
G37*
D13*
X165625000Y-67650000D03*
G04 #@! TD*
D12*
G04 #@! TO.C,R18*
G36*
X153035779Y-84226144D02*
X153058834Y-84229563D01*
X153081443Y-84235227D01*
X153103387Y-84243079D01*
X153124457Y-84253044D01*
X153144448Y-84265026D01*
X153163168Y-84278910D01*
X153180438Y-84294562D01*
X153196090Y-84311832D01*
X153209974Y-84330552D01*
X153221956Y-84350543D01*
X153231921Y-84371613D01*
X153239773Y-84393557D01*
X153245437Y-84416166D01*
X153248856Y-84439221D01*
X153250000Y-84462500D01*
X153250000Y-84937500D01*
X153248856Y-84960779D01*
X153245437Y-84983834D01*
X153239773Y-85006443D01*
X153231921Y-85028387D01*
X153221956Y-85049457D01*
X153209974Y-85069448D01*
X153196090Y-85088168D01*
X153180438Y-85105438D01*
X153163168Y-85121090D01*
X153144448Y-85134974D01*
X153124457Y-85146956D01*
X153103387Y-85156921D01*
X153081443Y-85164773D01*
X153058834Y-85170437D01*
X153035779Y-85173856D01*
X153012500Y-85175000D01*
X152437500Y-85175000D01*
X152414221Y-85173856D01*
X152391166Y-85170437D01*
X152368557Y-85164773D01*
X152346613Y-85156921D01*
X152325543Y-85146956D01*
X152305552Y-85134974D01*
X152286832Y-85121090D01*
X152269562Y-85105438D01*
X152253910Y-85088168D01*
X152240026Y-85069448D01*
X152228044Y-85049457D01*
X152218079Y-85028387D01*
X152210227Y-85006443D01*
X152204563Y-84983834D01*
X152201144Y-84960779D01*
X152200000Y-84937500D01*
X152200000Y-84462500D01*
X152201144Y-84439221D01*
X152204563Y-84416166D01*
X152210227Y-84393557D01*
X152218079Y-84371613D01*
X152228044Y-84350543D01*
X152240026Y-84330552D01*
X152253910Y-84311832D01*
X152269562Y-84294562D01*
X152286832Y-84278910D01*
X152305552Y-84265026D01*
X152325543Y-84253044D01*
X152346613Y-84243079D01*
X152368557Y-84235227D01*
X152391166Y-84229563D01*
X152414221Y-84226144D01*
X152437500Y-84225000D01*
X153012500Y-84225000D01*
X153035779Y-84226144D01*
X153035779Y-84226144D01*
G37*
D13*
X152725000Y-84700000D03*
D12*
G36*
X154785779Y-84226144D02*
X154808834Y-84229563D01*
X154831443Y-84235227D01*
X154853387Y-84243079D01*
X154874457Y-84253044D01*
X154894448Y-84265026D01*
X154913168Y-84278910D01*
X154930438Y-84294562D01*
X154946090Y-84311832D01*
X154959974Y-84330552D01*
X154971956Y-84350543D01*
X154981921Y-84371613D01*
X154989773Y-84393557D01*
X154995437Y-84416166D01*
X154998856Y-84439221D01*
X155000000Y-84462500D01*
X155000000Y-84937500D01*
X154998856Y-84960779D01*
X154995437Y-84983834D01*
X154989773Y-85006443D01*
X154981921Y-85028387D01*
X154971956Y-85049457D01*
X154959974Y-85069448D01*
X154946090Y-85088168D01*
X154930438Y-85105438D01*
X154913168Y-85121090D01*
X154894448Y-85134974D01*
X154874457Y-85146956D01*
X154853387Y-85156921D01*
X154831443Y-85164773D01*
X154808834Y-85170437D01*
X154785779Y-85173856D01*
X154762500Y-85175000D01*
X154187500Y-85175000D01*
X154164221Y-85173856D01*
X154141166Y-85170437D01*
X154118557Y-85164773D01*
X154096613Y-85156921D01*
X154075543Y-85146956D01*
X154055552Y-85134974D01*
X154036832Y-85121090D01*
X154019562Y-85105438D01*
X154003910Y-85088168D01*
X153990026Y-85069448D01*
X153978044Y-85049457D01*
X153968079Y-85028387D01*
X153960227Y-85006443D01*
X153954563Y-84983834D01*
X153951144Y-84960779D01*
X153950000Y-84937500D01*
X153950000Y-84462500D01*
X153951144Y-84439221D01*
X153954563Y-84416166D01*
X153960227Y-84393557D01*
X153968079Y-84371613D01*
X153978044Y-84350543D01*
X153990026Y-84330552D01*
X154003910Y-84311832D01*
X154019562Y-84294562D01*
X154036832Y-84278910D01*
X154055552Y-84265026D01*
X154075543Y-84253044D01*
X154096613Y-84243079D01*
X154118557Y-84235227D01*
X154141166Y-84229563D01*
X154164221Y-84226144D01*
X154187500Y-84225000D01*
X154762500Y-84225000D01*
X154785779Y-84226144D01*
X154785779Y-84226144D01*
G37*
D13*
X154475000Y-84700000D03*
G04 #@! TD*
D26*
G04 #@! TO.C,U11*
X151849381Y-76185249D03*
D27*
X145549381Y-76185249D03*
X145549381Y-78485249D03*
X145549381Y-73885249D03*
G04 #@! TD*
D30*
G04 #@! TO.C,U2*
X164100000Y-92795000D03*
X164100000Y-91525000D03*
X164100000Y-90255000D03*
X164100000Y-88985000D03*
X164100000Y-87715000D03*
X164100000Y-86445000D03*
X164100000Y-85175000D03*
X164100000Y-83905000D03*
X158700000Y-83905000D03*
X158700000Y-85175000D03*
X158700000Y-86445000D03*
X158700000Y-87715000D03*
X158700000Y-88985000D03*
X158700000Y-90255000D03*
X158700000Y-91525000D03*
X158700000Y-92795000D03*
G04 #@! TD*
D12*
G04 #@! TO.C,R11*
G36*
X163335779Y-68676144D02*
X163358834Y-68679563D01*
X163381443Y-68685227D01*
X163403387Y-68693079D01*
X163424457Y-68703044D01*
X163444448Y-68715026D01*
X163463168Y-68728910D01*
X163480438Y-68744562D01*
X163496090Y-68761832D01*
X163509974Y-68780552D01*
X163521956Y-68800543D01*
X163531921Y-68821613D01*
X163539773Y-68843557D01*
X163545437Y-68866166D01*
X163548856Y-68889221D01*
X163550000Y-68912500D01*
X163550000Y-69387500D01*
X163548856Y-69410779D01*
X163545437Y-69433834D01*
X163539773Y-69456443D01*
X163531921Y-69478387D01*
X163521956Y-69499457D01*
X163509974Y-69519448D01*
X163496090Y-69538168D01*
X163480438Y-69555438D01*
X163463168Y-69571090D01*
X163444448Y-69584974D01*
X163424457Y-69596956D01*
X163403387Y-69606921D01*
X163381443Y-69614773D01*
X163358834Y-69620437D01*
X163335779Y-69623856D01*
X163312500Y-69625000D01*
X162737500Y-69625000D01*
X162714221Y-69623856D01*
X162691166Y-69620437D01*
X162668557Y-69614773D01*
X162646613Y-69606921D01*
X162625543Y-69596956D01*
X162605552Y-69584974D01*
X162586832Y-69571090D01*
X162569562Y-69555438D01*
X162553910Y-69538168D01*
X162540026Y-69519448D01*
X162528044Y-69499457D01*
X162518079Y-69478387D01*
X162510227Y-69456443D01*
X162504563Y-69433834D01*
X162501144Y-69410779D01*
X162500000Y-69387500D01*
X162500000Y-68912500D01*
X162501144Y-68889221D01*
X162504563Y-68866166D01*
X162510227Y-68843557D01*
X162518079Y-68821613D01*
X162528044Y-68800543D01*
X162540026Y-68780552D01*
X162553910Y-68761832D01*
X162569562Y-68744562D01*
X162586832Y-68728910D01*
X162605552Y-68715026D01*
X162625543Y-68703044D01*
X162646613Y-68693079D01*
X162668557Y-68685227D01*
X162691166Y-68679563D01*
X162714221Y-68676144D01*
X162737500Y-68675000D01*
X163312500Y-68675000D01*
X163335779Y-68676144D01*
X163335779Y-68676144D01*
G37*
D13*
X163025000Y-69150000D03*
D12*
G36*
X161585779Y-68676144D02*
X161608834Y-68679563D01*
X161631443Y-68685227D01*
X161653387Y-68693079D01*
X161674457Y-68703044D01*
X161694448Y-68715026D01*
X161713168Y-68728910D01*
X161730438Y-68744562D01*
X161746090Y-68761832D01*
X161759974Y-68780552D01*
X161771956Y-68800543D01*
X161781921Y-68821613D01*
X161789773Y-68843557D01*
X161795437Y-68866166D01*
X161798856Y-68889221D01*
X161800000Y-68912500D01*
X161800000Y-69387500D01*
X161798856Y-69410779D01*
X161795437Y-69433834D01*
X161789773Y-69456443D01*
X161781921Y-69478387D01*
X161771956Y-69499457D01*
X161759974Y-69519448D01*
X161746090Y-69538168D01*
X161730438Y-69555438D01*
X161713168Y-69571090D01*
X161694448Y-69584974D01*
X161674457Y-69596956D01*
X161653387Y-69606921D01*
X161631443Y-69614773D01*
X161608834Y-69620437D01*
X161585779Y-69623856D01*
X161562500Y-69625000D01*
X160987500Y-69625000D01*
X160964221Y-69623856D01*
X160941166Y-69620437D01*
X160918557Y-69614773D01*
X160896613Y-69606921D01*
X160875543Y-69596956D01*
X160855552Y-69584974D01*
X160836832Y-69571090D01*
X160819562Y-69555438D01*
X160803910Y-69538168D01*
X160790026Y-69519448D01*
X160778044Y-69499457D01*
X160768079Y-69478387D01*
X160760227Y-69456443D01*
X160754563Y-69433834D01*
X160751144Y-69410779D01*
X160750000Y-69387500D01*
X160750000Y-68912500D01*
X160751144Y-68889221D01*
X160754563Y-68866166D01*
X160760227Y-68843557D01*
X160768079Y-68821613D01*
X160778044Y-68800543D01*
X160790026Y-68780552D01*
X160803910Y-68761832D01*
X160819562Y-68744562D01*
X160836832Y-68728910D01*
X160855552Y-68715026D01*
X160875543Y-68703044D01*
X160896613Y-68693079D01*
X160918557Y-68685227D01*
X160941166Y-68679563D01*
X160964221Y-68676144D01*
X160987500Y-68675000D01*
X161562500Y-68675000D01*
X161585779Y-68676144D01*
X161585779Y-68676144D01*
G37*
D13*
X161275000Y-69150000D03*
G04 #@! TD*
D12*
G04 #@! TO.C,R17*
G36*
X161585779Y-67176144D02*
X161608834Y-67179563D01*
X161631443Y-67185227D01*
X161653387Y-67193079D01*
X161674457Y-67203044D01*
X161694448Y-67215026D01*
X161713168Y-67228910D01*
X161730438Y-67244562D01*
X161746090Y-67261832D01*
X161759974Y-67280552D01*
X161771956Y-67300543D01*
X161781921Y-67321613D01*
X161789773Y-67343557D01*
X161795437Y-67366166D01*
X161798856Y-67389221D01*
X161800000Y-67412500D01*
X161800000Y-67887500D01*
X161798856Y-67910779D01*
X161795437Y-67933834D01*
X161789773Y-67956443D01*
X161781921Y-67978387D01*
X161771956Y-67999457D01*
X161759974Y-68019448D01*
X161746090Y-68038168D01*
X161730438Y-68055438D01*
X161713168Y-68071090D01*
X161694448Y-68084974D01*
X161674457Y-68096956D01*
X161653387Y-68106921D01*
X161631443Y-68114773D01*
X161608834Y-68120437D01*
X161585779Y-68123856D01*
X161562500Y-68125000D01*
X160987500Y-68125000D01*
X160964221Y-68123856D01*
X160941166Y-68120437D01*
X160918557Y-68114773D01*
X160896613Y-68106921D01*
X160875543Y-68096956D01*
X160855552Y-68084974D01*
X160836832Y-68071090D01*
X160819562Y-68055438D01*
X160803910Y-68038168D01*
X160790026Y-68019448D01*
X160778044Y-67999457D01*
X160768079Y-67978387D01*
X160760227Y-67956443D01*
X160754563Y-67933834D01*
X160751144Y-67910779D01*
X160750000Y-67887500D01*
X160750000Y-67412500D01*
X160751144Y-67389221D01*
X160754563Y-67366166D01*
X160760227Y-67343557D01*
X160768079Y-67321613D01*
X160778044Y-67300543D01*
X160790026Y-67280552D01*
X160803910Y-67261832D01*
X160819562Y-67244562D01*
X160836832Y-67228910D01*
X160855552Y-67215026D01*
X160875543Y-67203044D01*
X160896613Y-67193079D01*
X160918557Y-67185227D01*
X160941166Y-67179563D01*
X160964221Y-67176144D01*
X160987500Y-67175000D01*
X161562500Y-67175000D01*
X161585779Y-67176144D01*
X161585779Y-67176144D01*
G37*
D13*
X161275000Y-67650000D03*
D12*
G36*
X163335779Y-67176144D02*
X163358834Y-67179563D01*
X163381443Y-67185227D01*
X163403387Y-67193079D01*
X163424457Y-67203044D01*
X163444448Y-67215026D01*
X163463168Y-67228910D01*
X163480438Y-67244562D01*
X163496090Y-67261832D01*
X163509974Y-67280552D01*
X163521956Y-67300543D01*
X163531921Y-67321613D01*
X163539773Y-67343557D01*
X163545437Y-67366166D01*
X163548856Y-67389221D01*
X163550000Y-67412500D01*
X163550000Y-67887500D01*
X163548856Y-67910779D01*
X163545437Y-67933834D01*
X163539773Y-67956443D01*
X163531921Y-67978387D01*
X163521956Y-67999457D01*
X163509974Y-68019448D01*
X163496090Y-68038168D01*
X163480438Y-68055438D01*
X163463168Y-68071090D01*
X163444448Y-68084974D01*
X163424457Y-68096956D01*
X163403387Y-68106921D01*
X163381443Y-68114773D01*
X163358834Y-68120437D01*
X163335779Y-68123856D01*
X163312500Y-68125000D01*
X162737500Y-68125000D01*
X162714221Y-68123856D01*
X162691166Y-68120437D01*
X162668557Y-68114773D01*
X162646613Y-68106921D01*
X162625543Y-68096956D01*
X162605552Y-68084974D01*
X162586832Y-68071090D01*
X162569562Y-68055438D01*
X162553910Y-68038168D01*
X162540026Y-68019448D01*
X162528044Y-67999457D01*
X162518079Y-67978387D01*
X162510227Y-67956443D01*
X162504563Y-67933834D01*
X162501144Y-67910779D01*
X162500000Y-67887500D01*
X162500000Y-67412500D01*
X162501144Y-67389221D01*
X162504563Y-67366166D01*
X162510227Y-67343557D01*
X162518079Y-67321613D01*
X162528044Y-67300543D01*
X162540026Y-67280552D01*
X162553910Y-67261832D01*
X162569562Y-67244562D01*
X162586832Y-67228910D01*
X162605552Y-67215026D01*
X162625543Y-67203044D01*
X162646613Y-67193079D01*
X162668557Y-67185227D01*
X162691166Y-67179563D01*
X162714221Y-67176144D01*
X162737500Y-67175000D01*
X163312500Y-67175000D01*
X163335779Y-67176144D01*
X163335779Y-67176144D01*
G37*
D13*
X163025000Y-67650000D03*
G04 #@! TD*
M02*
